<svg xmlns="http://www.w3.org/2000/svg" xmlns:xlink="http://www.w3.org/1999/xlink" id="body_5" preserveAspectRatio="xMinYMin meet" viewBox="0 0 1144 816"><defs><clipPath id="1"><path id="" clip-rule="evenodd" transform="matrix(1 0 0 1 0 0)" d="M0 612L0 -0.28302L0 -0.28302L858.898 -0.28302L858.898 -0.28302L858.898 612L858.898 612L0 612z" /></clipPath><clipPath id="2"><path id="" clip-rule="evenodd" transform="matrix(1 0 0 1 0 0)" d="M0 -0.28302L858.898 -0.28302L858.898 -0.28302L858.898 612L858.898 612L0 612z" /></clipPath><clipPath id="3"><path id="" clip-rule="evenodd" transform="matrix(1 0 0 1 0 0)" d="M69.449 555.307L814.961 555.307L814.961 555.307L814.961 56.409L814.961 56.409L69.449 56.409z" /></clipPath><clipPath id="4"><path id="" clip-rule="evenodd" transform="matrix(1 0 0 1 0 0)" d="M511.937 351.213L802.205 351.213L802.205 351.213L802.205 235.465L802.205 235.465L511.937 235.465z" /></clipPath></defs><g transform="matrix(1.333333 0 0 1.333333 0 0)"><g clip-path="url(#1)"><g clip-path="url(#2)"><path id="1" transform="matrix(1 0 0 -1 0 612)" d="M65.2581 139.6837L58.0999 139.6837L58.0999 139.6837L58.0999 142.8576C 58.0999 143.4956 58.16419 143.9806 58.29277 144.3126C 58.42135 144.6447 58.6484 144.91 58.97392 145.1085C 59.29944 145.3071 59.65915 145.4064 60.05302 145.4064C 61.06865 145.4064 61.81247 144.7635 62.00127 143.3898C 62.12171 143.6404 62.24052 143.8309 62.35771 143.9611C 62.61162 144.2378 62.929 144.4998 63.30986 144.7472L63.30986 144.7472L65.2581 145.9923L65.2581 145.9923L65.2581 144.8009L65.2581 144.8009L63.76884 143.8537C 63.33916 143.577 63.01038 143.3491 62.78252 143.1701C 62.55465 142.991 62.39515 142.8307 62.304 142.6891C 62.21286 142.5475 62.14938 142.4035 62.11357 142.257C 62.09079 142.1496 62.07939 141.9738 62.07939 141.7296L62.07939 141.7296L62.07939 140.631L62.07939 140.631L65.2581 140.631zM61.25908 140.631L61.25908 142.6671C 61.25908 143.1001 61.21432 143.4386 61.1248 143.6828C 61.03528 143.9269 60.89206 144.1124 60.69511 144.2394C 60.49817 144.3663 60.28415 144.4298 60.05302 144.4298C 59.37594 144.4298 58.89091 143.9578 58.89091 142.8966L58.89091 142.8966L58.89091 140.631z" stroke="none" fill="#353231" fill-rule="evenodd" /><path id="2" transform="matrix(1 0 0 -1 0 612)" d="M65.2581 150.1752L64.49638 150.1752C 65.08232 149.7716 65.37529 149.2231 65.37529 148.5297C 65.37529 148.2237 65.3167 147.9381 65.19951 147.6728C 65.08232 147.4075 64.93502 147.2105 64.75761 147.082C 64.58021 146.9534 64.36292 146.863 64.10576 146.811C 63.93323 146.7751 63.65979 146.7572 63.28545 146.7572L63.28545 146.7572L60.07256 146.7572L60.07256 146.7572L60.07256 147.6362L60.07256 147.6362L62.94853 147.6362C 63.40752 147.6362 63.71676 147.6541 63.87627 147.6899C 64.33851 147.8005 64.61845 148.1781 64.61845 148.7055C 64.61845 148.9692 64.55091 149.2166 64.41582 149.4477C 64.28072 149.6788 64.09681 149.8424 63.86406 149.9384C 63.63131 150.0344 63.29358 150.0824 62.85088 150.0824L62.85088 150.0824L60.07256 150.0824L60.07256 150.0824L60.07256 150.9613L60.07256 150.9613L65.2581 150.9613z" stroke="none" fill="#353231" fill-rule="evenodd" /><path id="3" transform="matrix(1 0 0 -1 0 612)" d="M62.66533 152.0096C 61.70504 152.0096 60.99378 152.2766 60.53154 152.8104C 60.14743 153.2564 59.95537 153.8 59.95537 154.4413C 59.95537 155.8671 60.94495 156.868 62.59209 156.868C 63.2594 156.868 63.78431 156.7679 64.16679 156.5677C 64.54928 156.3675 64.84632 156.0762 65.05791 155.6937C 65.26949 155.3112 65.37529 154.8937 65.37529 154.4413C 65.37529 152.9894 64.41663 152.0096 62.66533 152.0096zM62.66533 152.9129C 63.99345 152.9129 64.65263 153.5624 64.65263 154.4413C 64.65263 155.3137 63.99671 155.9647 62.63603 155.9647C 61.35348 155.9647 60.68291 155.3072 60.68291 154.4413C 60.68291 153.5624 61.3372 152.9129 62.66533 152.9129z" stroke="none" fill="#353231" fill-rule="evenodd" /><path id="4" transform="matrix(1 0 0 -1 0 612)" d="M63.35869 161.2806L63.47099 162.1448C 64.6624 161.956 65.37529 161.1194 65.37529 159.9866C 65.37529 158.5674 64.41663 157.6282 62.68486 157.6282C 62.12497 157.6282 61.63506 157.721 61.21513 157.9065C 60.79521 158.0921 60.48027 158.3745 60.27031 158.7537C 60.06035 159.1329 59.95537 159.5455 59.95537 159.9915C 59.95537 161.1178 60.54782 161.86 61.59599 162.0618L61.59599 162.0618L61.72783 161.2073C 61.03122 161.0446 60.67802 160.6116 60.67802 160.0257C 60.67802 159.1403 61.28675 158.5315 62.66045 158.5315C 64.05367 158.5315 64.65263 159.1175 64.65263 159.9769C 64.65263 160.667 64.23759 161.1569 63.35869 161.2806z" stroke="none" fill="#353231" fill-rule="evenodd" /><path id="5" transform="matrix(1 0 0 -1 0 612)" d="M65.2581 162.8968L58.0999 162.8968L58.0999 162.8968L58.0999 163.7757L58.0999 163.7757L60.66826 163.7757C 60.193 164.1858 59.95537 164.7034 59.95537 165.3284C 59.95537 165.7125 60.03105 166.0462 60.18242 166.3294C 60.33379 166.6126 60.54293 166.8152 60.80986 166.9373C 61.07679 167.0594 61.46416 167.1204 61.97197 167.1204L61.97197 167.1204L65.2581 167.1204L65.2581 167.1204L65.2581 166.2415L65.2581 166.2415L61.97197 166.2415C 61.09306 166.2415 60.7122 165.8444 60.7122 165.1478C 60.7122 164.8873 60.77975 164.6424 60.91484 164.4129C 61.04993 164.1834 61.23304 164.0198 61.46416 163.9222C 61.69528 163.8245 62.01429 163.7757 62.42119 163.7757L62.42119 163.7757L65.2581 163.7757z" stroke="none" fill="#353231" fill-rule="evenodd" /><path id="6" transform="matrix(1 0 0 -1 0 612)" d="M62.66533 168.1296C 61.70504 168.1296 60.99378 168.3966 60.53154 168.9304C 60.14743 169.3764 59.95537 169.92 59.95537 170.5613C 59.95537 171.9871 60.94495 172.988 62.59209 172.988C 63.2594 172.988 63.78431 172.8879 64.16679 172.6877C 64.54928 172.4875 64.84632 172.1962 65.05791 171.8137C 65.26949 171.4312 65.37529 171.0137 65.37529 170.5613C 65.37529 169.1095 64.41663 168.1296 62.66533 168.1296zM62.66533 169.033C 63.99345 169.033 64.65263 169.6824 64.65263 170.5613C 64.65263 171.4337 63.99671 172.0847 62.63603 172.0847C 61.35348 172.0847 60.68291 171.4272 60.68291 170.5613C 60.68291 169.6824 61.3372 169.033 62.66533 169.033z" stroke="none" fill="#353231" fill-rule="evenodd" /><path id="7" transform="matrix(1 0 0 -1 0 612)" d="M65.2581 174.0168L60.07256 174.0168L60.07256 174.0168L60.07256 174.8078L60.07256 174.8078L60.80986 174.8078C 60.2402 175.1887 59.95537 175.7388 59.95537 176.4582C 59.95537 176.7707 60.01152 177.058 60.12383 177.32C 60.23613 177.582 60.38343 177.7782 60.56572 177.9084C 60.74801 178.0386 60.96448 178.1297 61.21513 178.1818C 61.3779 178.2144 61.66272 178.2307 62.06963 178.2307L62.06963 178.2307L65.2581 178.2307L65.2581 178.2307L65.2581 177.3517L65.2581 177.3517L62.10381 177.3517C 61.74573 177.3517 61.47799 177.3176 61.30058 177.2492C 61.12317 177.1808 60.98157 177.0596 60.87578 176.8854C 60.76999 176.7113 60.71709 176.507 60.71709 176.2726C 60.71709 175.5239 61.09795 174.8957 62.42607 174.8957L62.42607 174.8957L65.2581 174.8957z" stroke="none" fill="#353231" fill-rule="evenodd" /><path id="8" transform="matrix(1 0 0 -1 0 612)" d="M65.68779 179.4156L65.81474 180.2701C 66.07841 180.3059 66.27047 180.4052 66.39091 180.568C 66.55367 180.7861 66.63506 181.0839 66.63506 181.4615C 66.63506 182.2753 66.29326 182.6969 65.70732 182.8531C 65.52828 182.8987 65.15231 182.9199 64.57939 182.9166C 65.03187 182.5325 65.2581 182.054 65.2581 181.4811C 65.2581 180.0553 64.07484 179.2399 62.63603 179.2399C 62.14124 179.2399 61.6847 179.3294 61.2664 179.5084C 60.84811 179.6875 60.52503 179.9471 60.29716 180.2872C 60.0693 180.6274 59.95537 181.027 59.95537 181.486C 59.95537 182.0979 60.20276 182.6025 60.69756 182.9996L60.69756 182.9996L60.07256 182.9996L60.07256 182.9996L60.07256 183.8102L60.07256 183.8102L64.55498 183.8102C 65.36227 183.8102 65.93437 183.728 66.27129 183.5636C 66.6082 183.3992 66.87431 183.1388 67.06963 182.7823C 67.26494 182.4259 67.36259 181.9873 67.36259 181.4664C 67.36259 180.2294 66.80758 179.3896 65.68779 179.4156zM62.57256 180.1432C 63.93323 180.1432 64.53056 180.7503 64.53056 181.5641C 64.53056 182.3714 63.92998 182.9899 62.60185 182.9899C 61.33232 182.9899 60.68291 182.3437 60.68291 181.5494C 60.68291 180.7682 61.32256 180.1432 62.57256 180.1432z" stroke="none" fill="#353231" fill-rule="evenodd" /></g><path id="9" transform="matrix(1 0 0 -1 0 612)" d="M69.449 56.693L814.961 56.693L814.961 555.591L69.449 555.591z" stroke="none" fill="#E6E6E6" fill-rule="nonzero" /><g clip-path="url(#3)"><g transform="matrix(0.2662207 0 0 0.2662207 68.83015 56.40942)"><g transform="matrix(1 0 0 1 0 0)"><image x="0" y="0" xlink:href="img_08.png" width="2805" height="1874" /></g></g></g><path id="29" transform="matrix(1 0 0 -1 0 612)" d="M79.303 528.731L217.768 528.731L217.768 546.306L79.303 546.306z" stroke="none" fill="#FFFEFE" fill-rule="nonzero" /><path id="48" transform="matrix(1 0 0 -1 0 612)" d="M79.303 286.318L240.071 286.318L240.071 302.476L79.303 302.476z" stroke="none" fill="#FFFEFE" fill-rule="nonzero" /><path id="464" transform="matrix(1 0 0 -1 0 612)" d="M63.2459 417.3657L57.56377 417.3657L57.56377 417.3657L57.56377 415.2431L57.56377 415.2431L56.80352 415.2431L56.80352 415.2431L56.80352 420.3496L56.80352 420.3496L57.56377 420.3496L57.56377 420.3496L57.56377 418.2182L57.56377 418.2182L63.2459 418.2182z" stroke="none" fill="#353332" fill-rule="evenodd" /><path id="465" transform="matrix(1 0 0 -1 0 612)" d="M63.2459 421.1245L56.80352 421.1245L56.80352 421.1245L56.80352 421.9155L56.80352 421.9155L59.11504 421.9155C 58.68731 422.2846 58.47344 422.7504 58.47344 423.3129C 58.47344 423.6586 58.54155 423.9589 58.67778 424.2138C 58.81401 424.4687 59.00225 424.6511 59.24248 424.7609C 59.48272 424.8708 59.83135 424.9257 60.28838 424.9257L60.28838 424.9257L63.2459 424.9257L63.2459 424.9257L63.2459 424.1347L63.2459 424.1347L60.28838 424.1347C 59.49736 424.1347 59.15459 423.7773 59.15459 423.1503C 59.15459 422.916 59.21538 422.6955 59.33696 422.489C 59.45855 422.2824 59.62334 422.1352 59.83135 422.0473C 60.03936 421.9594 60.32647 421.9155 60.69268 421.9155L60.69268 421.9155L63.2459 421.9155z" stroke="none" fill="#353332" fill-rule="evenodd" /><path id="466" transform="matrix(1 0 0 -1 0 612)" d="M61.74297 429.3233L61.84404 430.1407C 62.79912 429.8828 63.35137 429.1724 63.35137 428.0884C 63.35137 426.7232 62.46953 425.8648 60.95195 425.8648C 59.38164 425.8648 58.47344 426.7554 58.47344 428.0445C 58.47344 429.2925 59.3626 430.167 60.90361 430.167C 60.95049 430.167 61.0208 430.1656 61.11455 430.1626L61.11455 430.1626L61.11455 426.6822C 62.13994 426.7408 62.70098 427.3135 62.70098 428.0928C 62.70098 428.6729 62.41094 429.083 61.74297 429.3233zM60.46416 426.7261L60.46416 429.3321C 60.07158 429.2969 59.77715 429.1973 59.58086 429.0332C 59.27617 428.7813 59.12383 428.4546 59.12383 428.0533C 59.12383 427.3267 59.64971 426.7788 60.46416 426.7261z" stroke="none" fill="#353332" fill-rule="evenodd" /><path id="468" transform="matrix(1 0 0 -1 0 612)" d="M63.2459 434.8605L56.80352 433.1511L56.80352 433.1511L56.80352 434.0256L56.80352 434.0256L61.02666 435.0056C 61.46904 435.111 61.9085 435.2018 62.34502 435.278C 61.65654 435.4421 61.25957 435.5388 61.1541 435.5681L61.1541 435.5681L56.80352 436.7941L56.80352 436.7941L56.80352 437.8224L56.80352 437.8224L60.06426 438.7453C 60.87285 438.9767 61.63311 439.1437 62.34502 439.2463C 61.93779 439.3283 61.47051 439.4352 60.94316 439.5671L60.94316 439.5671L56.80352 440.5778L56.80352 440.5778L56.80352 441.4348L56.80352 441.4348L63.2459 439.6682L63.2459 439.6682L63.2459 438.8464L63.2459 438.8464L58.33721 437.4885C 57.92705 437.3742 57.6751 437.3068 57.58135 437.2863C 57.87725 437.2189 58.1292 437.1559 58.33721 437.0974L58.33721 437.0974L63.2459 435.7307z" stroke="none" fill="#353332" fill-rule="evenodd" /><path id="469" transform="matrix(1 0 0 -1 0 612)" d="M60.9124 441.674C 60.04815 441.674 59.40801 441.9142 58.99199 442.3947C 58.64629 442.7961 58.47344 443.2853 58.47344 443.8625C 58.47344 445.1457 59.36406 446.0466 60.84649 446.0466C 61.44707 446.0466 61.91948 445.9565 62.26372 445.7763C 62.60796 445.5961 62.87529 445.3339 63.06572 444.9897C 63.25615 444.6454 63.35137 444.2697 63.35137 443.8625C 63.35137 442.5558 62.48857 441.674 60.9124 441.674zM60.9124 442.487C 62.10772 442.487 62.70098 443.0715 62.70098 443.8625C 62.70098 444.6476 62.11065 445.2336 60.88604 445.2336C 59.73174 445.2336 59.12822 444.6418 59.12822 443.8625C 59.12822 443.0715 59.71709 442.487 60.9124 442.487z" stroke="none" fill="#353332" fill-rule="evenodd" /><path id="470" transform="matrix(1 0 0 -1 0 612)" d="M63.2459 446.9724L58.57891 446.9724L58.57891 446.9724L58.57891 447.6844L58.57891 447.6844L59.24248 447.6844C 58.72979 448.0271 58.47344 448.5222 58.47344 449.1697C 58.47344 449.451 58.52398 449.7095 58.62505 449.9453C 58.72612 450.1812 58.85869 450.3577 59.02275 450.4749C 59.18682 450.5921 59.38164 450.6741 59.60723 450.721C 59.75371 450.7503 60.01006 450.7649 60.37627 450.7649L60.37627 450.7649L63.2459 450.7649L63.2459 450.7649L63.2459 449.9739L63.2459 449.9739L60.40703 449.9739C 60.08477 449.9739 59.8438 449.9431 59.68413 449.8816C 59.52446 449.8201 59.39702 449.711 59.30181 449.5542C 59.20659 449.3975 59.15899 449.2137 59.15899 449.0027C 59.15899 448.3289 59.50176 447.7635 60.69707 447.7635L60.69707 447.7635L63.2459 447.7635z" stroke="none" fill="#353332" fill-rule="evenodd" /><path id="471" transform="matrix(1 0 0 -1 0 612)" d="M63.2459 455.0043L62.65703 455.0043C 63.11992 454.7084 63.35137 454.2733 63.35137 453.6991C 63.35137 453.327 63.24883 452.985 63.04375 452.673C 62.83867 452.361 62.5523 452.1193 62.18462 451.9479C 61.81694 451.7765 61.39434 451.6908 60.9168 451.6908C 60.45098 451.6908 60.02837 451.7684 59.64898 451.9237C 59.26958 452.079 58.97881 452.3119 58.77666 452.6224C 58.57451 452.933 58.47344 453.2802 58.47344 453.6639C 58.47344 454.2264 58.73418 454.6761 59.11504 454.9515L59.11504 454.9515L56.80352 454.9515L56.80352 454.9515L56.80352 455.7382L56.80352 455.7382L63.2459 455.7382zM60.9168 452.5038C 62.11211 452.5038 62.70098 453.0883 62.70098 453.7738C 62.70098 454.4652 62.14287 455.0175 60.98272 455.0175C 59.70537 455.0175 59.12822 454.4594 59.12822 453.7386C 59.12822 453.0355 59.68047 452.5038 60.9168 452.5038z" stroke="none" fill="#353332" fill-rule="evenodd" /><path id="472" transform="matrix(1 0 0 -1 0 612)" d="M61.74297 460.1753L61.84404 460.9926C 62.79912 460.7348 63.35137 460.0244 63.35137 458.9404C 63.35137 457.5752 62.46953 456.7168 60.95195 456.7168C 59.38164 456.7168 58.47344 457.6074 58.47344 458.8965C 58.47344 460.1445 59.3626 461.019 60.90361 461.019C 60.95049 461.019 61.0208 461.0175 61.11455 461.0146L61.11455 461.0146L61.11455 457.5341C 62.13994 457.5927 62.70098 458.1655 62.70098 458.9448C 62.70098 459.5249 62.41094 459.935 61.74297 460.1753zM60.46416 457.5781L60.46416 460.1841C 60.07158 460.1489 59.77715 460.0493 59.58086 459.8852C 59.27617 459.6333 59.12383 459.3066 59.12383 458.9052C 59.12383 458.1787 59.64971 457.6308 60.46416 457.5781z" stroke="none" fill="#353332" fill-rule="evenodd" /><path id="473" transform="matrix(1 0 0 -1 0 612)" d="M63.2459 461.9756L58.57891 461.9756L58.57891 461.9756L58.57891 462.6876L58.57891 462.6876L59.28643 462.6876C 58.62432 463.0508 58.47344 463.3292 58.47344 463.6983C 58.47344 463.9649 58.5584 464.2359 58.72832 464.5113L58.72832 464.5113L59.46221 464.2388C 59.34795 464.0455 59.29082 463.8521 59.29082 463.6588C 59.29082 463.313 59.51055 463.0157 59.87969 462.8985C 60.16094 462.8106 60.46856 462.7667 60.80254 462.7667L60.80254 462.7667L63.2459 462.7667z" stroke="none" fill="#353332" fill-rule="evenodd" /><path id="475" transform="matrix(1 0 0 -1 0 612)" d="M60.1082 467.3253C 57.96953 467.3253 56.68926 468.5938 56.68926 470.4102C 56.68926 471.0049 56.83135 471.5411 57.11553 472.0186C 57.39971 472.4962 57.79595 472.8602 58.30425 473.1107C 58.81255 473.3611 59.38897 473.4864 60.0335 473.4864C 60.68682 473.4864 61.27129 473.3546 61.78691 473.0909C 62.30254 472.8272 62.69292 472.4537 62.95806 471.9703C 63.22319 471.4869 63.35576 470.9654 63.35576 470.4058C 63.35576 469.7994 63.20928 469.2574 62.91631 468.7798C 62.62334 468.3023 62.22344 467.9405 61.7166 467.6944C 61.20977 467.4483 60.67363 467.3253 60.1082 467.3253zM60.12139 468.2042C 61.67412 468.2042 62.62627 469.1417 62.62627 470.4014C 62.62627 471.6846 61.68731 472.6075 60.0291 472.6075C 59.50469 472.6075 59.04692 472.5189 58.65581 472.3416C 58.2647 472.1644 57.96148 471.9051 57.74614 471.5638C 57.53081 471.2225 57.42315 470.8394 57.42315 470.4146C 57.42315 469.2076 58.18193 468.2042 60.12139 468.2042z" stroke="none" fill="#353332" fill-rule="evenodd" /><path id="476" transform="matrix(1 0 0 -1 0 612)" d="M63.2459 474.4854L58.57891 474.4854L58.57891 474.4854L58.57891 475.1974L58.57891 475.1974L59.24248 475.1974C 58.72979 475.5401 58.47344 476.0352 58.47344 476.6827C 58.47344 476.964 58.52398 477.2225 58.62505 477.4583C 58.72612 477.6942 58.85869 477.8707 59.02275 477.9879C 59.18682 478.1051 59.38164 478.1871 59.60723 478.234C 59.75371 478.2633 60.01006 478.2779 60.37627 478.2779L60.37627 478.2779L63.2459 478.2779L63.2459 478.2779L63.2459 477.4869L63.2459 477.4869L60.40703 477.4869C 60.08477 477.4869 59.8438 477.4561 59.68413 477.3946C 59.52446 477.3331 59.39702 477.224 59.30181 477.0672C 59.20659 476.9105 59.15899 476.7267 59.15899 476.5157C 59.15899 475.8419 59.50176 475.2765 60.69707 475.2765L60.69707 475.2765L63.2459 475.2765z" stroke="none" fill="#353332" fill-rule="evenodd" /><path id="477" transform="matrix(1 0 0 -1 0 612)" d="M61.74297 482.6843L61.84404 483.5016C 62.79912 483.2438 63.35137 482.5334 63.35137 481.4494C 63.35137 480.0842 62.46953 479.2258 60.95195 479.2258C 59.38164 479.2258 58.47344 480.1164 58.47344 481.4055C 58.47344 482.6535 59.3626 483.528 60.90361 483.528C 60.95049 483.528 61.0208 483.5266 61.11455 483.5236L61.11455 483.5236L61.11455 480.0432C 62.13994 480.1017 62.70098 480.6745 62.70098 481.4538C 62.70098 482.0339 62.41094 482.444 61.74297 482.6843zM60.46416 480.0871L60.46416 482.6931C 60.07158 482.6579 59.77715 482.5583 59.58086 482.3942C 59.27617 482.1423 59.12383 481.8156 59.12383 481.4142C 59.12383 480.6877 59.64971 480.1398 60.46416 480.0871z" stroke="none" fill="#353332" fill-rule="evenodd" /><path id="478" transform="matrix(1 0 0 -1 0 612)" d="M61.85283 484.177L61.72979 484.9593C 62.35674 485.0471 62.70098 485.4471 62.70098 486.1678C 62.70098 486.8943 62.35674 487.24 61.9583 487.24C 61.77959 487.24 61.63897 487.1624 61.53643 487.0071C 61.46611 486.8987 61.37676 486.6292 61.26836 486.1985C 61.12188 485.6184 60.99517 485.2163 60.88823 484.9922C 60.7813 484.7681 60.63335 484.5982 60.44439 484.4825C 60.25542 484.3667 60.04668 484.3089 59.81816 484.3089C 59.40215 484.3089 59.03301 484.5125 58.79863 484.8406C 58.61699 485.0867 58.47344 485.5408 58.47344 486.0271C 58.47344 486.3933 58.52617 486.7149 58.63164 486.9917C 58.73711 487.2686 58.87993 487.4729 59.06011 487.6048C 59.24028 487.7366 59.48125 487.8274 59.78301 487.8772L59.78301 487.8772L59.88848 487.1038C 59.40801 487.0335 59.12383 486.6995 59.12383 486.0843C 59.12383 485.3577 59.40361 485.0735 59.72588 485.0735C 59.82842 485.0735 59.9207 485.1057 60.00274 485.1702C 60.0877 485.2346 60.15801 485.3357 60.21367 485.4734C 60.24297 485.5525 60.31035 485.7854 60.41582 486.1721C 60.56524 486.7317 60.68755 487.1221 60.78276 487.3433C 60.87798 487.5645 61.01641 487.7381 61.19805 487.864C 61.37969 487.99 61.60527 488.053 61.87481 488.053C 62.13848 488.053 62.38677 487.9761 62.61968 487.8223C 62.85259 487.6685 63.03276 487.4466 63.16021 487.1565C 63.28765 486.8665 63.35137 486.5384 63.35137 486.1721C 63.35137 484.9593 62.84307 484.3528 61.85283 484.177z" stroke="none" fill="#353332" fill-rule="evenodd" /><g clip-path="url(#4)"><g transform="matrix(0.2398907 0 0 0.2395338 511.937 234.4135)"><g transform="matrix(1 0 0 1 0 0)"><image x="0" y="0" xlink:href="img_09.png" width="1210" height="492" /></g></g></g></g></g></svg>