<svg xmlns="http://www.w3.org/2000/svg" xmlns:xlink="http://www.w3.org/1999/xlink" id="body_2" preserveAspectRatio="xMinYMin meet" viewBox="0 0 1144 816"><defs><clipPath id="1"><path id="" clip-rule="evenodd" transform="matrix(1 0 0 1 0 0)" d="M0 612L0 -0.28302L0 -0.28302L858.898 -0.28302L858.898 -0.28302L858.898 612L858.898 612L0 612z" /></clipPath><clipPath id="2"><path id="" clip-rule="evenodd" transform="matrix(1 0 0 1 0 0)" d="M0 -0.28302L858.898 -0.28302L858.898 -0.28302L858.898 612L858.898 612L0 612z" /></clipPath><clipPath id="3"><path id="" clip-rule="evenodd" transform="matrix(1 0 0 1 0 0)" d="M56.693 555.307L787.505 555.307L787.505 555.307L787.505 56.409L787.505 56.409L56.693 56.409z" /></clipPath></defs><g transform="matrix(1.333333 0 0 1.333333 0 0)"><g clip-path="url(#1)"><g clip-path="url(#2)"><path id="1" transform="matrix(1 0 0 -1 0 612)" d="M65.2581 139.6838L58.0999 139.6838L58.0999 139.6838L58.0999 142.8577C 58.0999 143.4957 58.16419 143.9807 58.29277 144.3127C 58.42135 144.6448 58.6484 144.9101 58.97392 145.1086C 59.29944 145.3072 59.65915 145.4065 60.05302 145.4065C 61.06865 145.4065 61.81247 144.7636 62.00127 143.3899C 62.12171 143.6405 62.24052 143.831 62.35771 143.9612C 62.61162 144.2379 62.929 144.4999 63.30986 144.7473L63.30986 144.7473L65.2581 145.9924L65.2581 145.9924L65.2581 144.801L65.2581 144.801L63.76884 143.8538C 63.33916 143.5771 63.01038 143.3492 62.78252 143.1702C 62.55465 142.9911 62.39515 142.8308 62.304 142.6892C 62.21286 142.5476 62.14938 142.4036 62.11357 142.2571C 62.09079 142.1497 62.07939 141.9739 62.07939 141.7297L62.07939 141.7297L62.07939 140.6311L62.07939 140.6311L65.2581 140.6311zM61.25908 140.6311L61.25908 142.6672C 61.25908 143.1002 61.21432 143.4387 61.1248 143.6829C 61.03528 143.927 60.89206 144.1125 60.69511 144.2395C 60.49817 144.3665 60.28415 144.4299 60.05302 144.4299C 59.37594 144.4299 58.89091 143.9579 58.89091 142.8967L58.89091 142.8967L58.89091 140.6311z" stroke="none" fill="#353231" fill-rule="evenodd" /><path id="2" transform="matrix(1 0 0 -1 0 612)" d="M65.2581 150.1753L64.49638 150.1753C 65.08232 149.7717 65.37529 149.2232 65.37529 148.5298C 65.37529 148.2238 65.3167 147.9382 65.19951 147.6729C 65.08232 147.4076 64.93502 147.2106 64.75761 147.0821C 64.58021 146.9535 64.36292 146.8631 64.10576 146.8111C 63.93323 146.7753 63.65979 146.7574 63.28545 146.7574L63.28545 146.7574L60.07256 146.7574L60.07256 146.7574L60.07256 147.6363L60.07256 147.6363L62.94853 147.6363C 63.40752 147.6363 63.71676 147.6542 63.87627 147.69C 64.33851 147.8006 64.61845 148.1783 64.61845 148.7056C 64.61845 148.9693 64.55091 149.2167 64.41582 149.4478C 64.28072 149.6789 64.09681 149.8425 63.86406 149.9385C 63.63131 150.0345 63.29358 150.0826 62.85088 150.0826L62.85088 150.0826L60.07256 150.0826L60.07256 150.0826L60.07256 150.9615L60.07256 150.9615L65.2581 150.9615z" stroke="none" fill="#353231" fill-rule="evenodd" /><path id="3" transform="matrix(1 0 0 -1 0 612)" d="M62.66533 152.0097C 61.70504 152.0097 60.99378 152.2767 60.53154 152.8105C 60.14743 153.2565 59.95537 153.8001 59.95537 154.4414C 59.95537 155.8672 60.94495 156.8681 62.59209 156.8681C 63.2594 156.8681 63.78431 156.768 64.16679 156.5678C 64.54928 156.3676 64.84632 156.0763 65.05791 155.6938C 65.26949 155.3113 65.37529 154.8938 65.37529 154.4414C 65.37529 152.9895 64.41663 152.0097 62.66533 152.0097zM62.66533 152.9131C 63.99345 152.9131 64.65263 153.5625 64.65263 154.4414C 64.65263 155.3138 63.99671 155.9648 62.63603 155.9648C 61.35348 155.9648 60.68291 155.3073 60.68291 154.4414C 60.68291 153.5625 61.3372 152.9131 62.66533 152.9131z" stroke="none" fill="#353231" fill-rule="evenodd" /><path id="4" transform="matrix(1 0 0 -1 0 612)" d="M63.35869 161.2807L63.47099 162.1449C 64.6624 161.9561 65.37529 161.1195 65.37529 159.9867C 65.37529 158.5675 64.41663 157.6283 62.68486 157.6283C 62.12497 157.6283 61.63506 157.7211 61.21513 157.9066C 60.79521 158.0922 60.48027 158.3746 60.27031 158.7538C 60.06035 159.1331 59.95537 159.5457 59.95537 159.9916C 59.95537 161.1179 60.54782 161.8601 61.59599 162.0619L61.59599 162.0619L61.72783 161.2074C 61.03122 161.0447 60.67802 160.6117 60.67802 160.0258C 60.67802 159.1404 61.28675 158.5316 62.66045 158.5316C 64.05367 158.5316 64.65263 159.1176 64.65263 159.977C 64.65263 160.6671 64.23759 161.157 63.35869 161.2807z" stroke="none" fill="#353231" fill-rule="evenodd" /><path id="5" transform="matrix(1 0 0 -1 0 612)" d="M65.2581 162.8969L58.0999 162.8969L58.0999 162.8969L58.0999 163.7758L58.0999 163.7758L60.66826 163.7758C 60.193 164.1859 59.95537 164.7035 59.95537 165.3285C 59.95537 165.7126 60.03105 166.0463 60.18242 166.3295C 60.33379 166.6127 60.54293 166.8153 60.80986 166.9374C 61.07679 167.0595 61.46416 167.1205 61.97197 167.1205L61.97197 167.1205L65.2581 167.1205L65.2581 167.1205L65.2581 166.2416L65.2581 166.2416L61.97197 166.2416C 61.09306 166.2416 60.7122 165.8445 60.7122 165.1479C 60.7122 164.8875 60.77975 164.6425 60.91484 164.413C 61.04993 164.1835 61.23304 164.0199 61.46416 163.9223C 61.69528 163.8246 62.01429 163.7758 62.42119 163.7758L62.42119 163.7758L65.2581 163.7758z" stroke="none" fill="#353231" fill-rule="evenodd" /><path id="6" transform="matrix(1 0 0 -1 0 612)" d="M62.66533 168.1297C 61.70504 168.1297 60.99378 168.3967 60.53154 168.9305C 60.14743 169.3765 59.95537 169.9201 59.95537 170.5614C 59.95537 171.9872 60.94495 172.9881 62.59209 172.9881C 63.2594 172.9881 63.78431 172.888 64.16679 172.6878C 64.54928 172.4876 64.84632 172.1963 65.05791 171.8138C 65.26949 171.4313 65.37529 171.0139 65.37529 170.5614C 65.37529 169.1096 64.41663 168.1297 62.66533 168.1297zM62.66533 169.0331C 63.99345 169.0331 64.65263 169.6825 64.65263 170.5614C 64.65263 171.4338 63.99671 172.0848 62.63603 172.0848C 61.35348 172.0848 60.68291 171.4273 60.68291 170.5614C 60.68291 169.6825 61.3372 169.0331 62.66533 169.0331z" stroke="none" fill="#353231" fill-rule="evenodd" /><path id="7" transform="matrix(1 0 0 -1 0 612)" d="M65.2581 174.0169L60.07256 174.0169L60.07256 174.0169L60.07256 174.8079L60.07256 174.8079L60.80986 174.8079C 60.2402 175.1888 59.95537 175.7389 59.95537 176.4583C 59.95537 176.7708 60.01152 177.0581 60.12383 177.3201C 60.23613 177.5822 60.38343 177.7783 60.56572 177.9085C 60.74801 178.0387 60.96448 178.1298 61.21513 178.1819C 61.3779 178.2145 61.66272 178.2307 62.06963 178.2307L62.06963 178.2307L65.2581 178.2307L65.2581 178.2307L65.2581 177.3518L65.2581 177.3518L62.10381 177.3518C 61.74573 177.3518 61.47799 177.3177 61.30058 177.2493C 61.12317 177.1809 60.98157 177.0597 60.87578 176.8855C 60.76999 176.7114 60.71709 176.5071 60.71709 176.2727C 60.71709 175.524 61.09795 174.8958 62.42607 174.8958L62.42607 174.8958L65.2581 174.8958z" stroke="none" fill="#353231" fill-rule="evenodd" /><path id="8" transform="matrix(1 0 0 -1 0 612)" d="M65.68779 179.4157L65.81474 180.2702C 66.07841 180.306 66.27047 180.4053 66.39091 180.5681C 66.55367 180.7862 66.63506 181.084 66.63506 181.4616C 66.63506 182.2755 66.29326 182.697 65.70732 182.8532C 65.52828 182.8988 65.15231 182.92 64.57939 182.9167C 65.03187 182.5326 65.2581 182.0541 65.2581 181.4812C 65.2581 180.0554 64.07484 179.24 62.63603 179.24C 62.14124 179.24 61.6847 179.3295 61.2664 179.5085C 60.84811 179.6876 60.52503 179.9472 60.29716 180.2873C 60.0693 180.6275 59.95537 181.0271 59.95537 181.4861C 59.95537 182.098 60.20276 182.6026 60.69756 182.9997L60.69756 182.9997L60.07256 182.9997L60.07256 182.9997L60.07256 183.8103L60.07256 183.8103L64.55498 183.8103C 65.36227 183.8103 65.93437 183.7281 66.27129 183.5637C 66.6082 183.3993 66.87431 183.1389 67.06963 182.7824C 67.26494 182.426 67.36259 181.9874 67.36259 181.4665C 67.36259 180.2296 66.80758 179.3897 65.68779 179.4157zM62.57256 180.1433C 63.93323 180.1433 64.53056 180.7504 64.53056 181.5642C 64.53056 182.3715 63.92998 182.99 62.60185 182.99C 61.33232 182.99 60.68291 182.3438 60.68291 181.5495C 60.68291 180.7683 61.32256 180.1433 62.57256 180.1433z" stroke="none" fill="#353231" fill-rule="evenodd" /></g><path id="9" transform="matrix(1 0 0 -1 0 612)" d="M56.693 56.693L787.505 56.693L787.505 555.59L56.693 555.59z" stroke="none" fill="#E5E6E6" fill-rule="nonzero" /><g clip-path="url(#3)"><g transform="matrix(0.482651 0 0 0.482651 55.32328 55.0813)"><g transform="matrix(1 0 0 1 0 0)"><image x="0" y="0" xlink:href="img_03.png" width="1517" height="1039" /></g></g></g><path id="11" transform="matrix(1 0 0 -1 0 612)" d="M794.4813 553.2571L800.1635 553.2571L800.1635 553.2571L800.1635 555.3796L800.1635 555.3796L800.9237 555.3796L800.9237 555.3796L800.9237 550.2732L800.9237 550.2732L800.1635 550.2732L800.1635 550.2732L800.1635 552.4045L800.1635 552.4045L794.4813 552.4045z" stroke="none" fill="#353231" fill-rule="evenodd" /><path id="12" transform="matrix(1 0 0 -1 0 612)" d="M794.4813 549.4983L800.9237 549.4983L800.9237 549.4983L800.9237 548.7073L800.9237 548.7073L798.6122 548.7073C 799.0399 548.3381 799.2538 547.8723 799.2538 547.3098C 799.2538 546.9641 799.1857 546.6638 799.0494 546.4089C 798.9132 546.1541 798.725 545.9717 798.4847 545.8618C 798.2445 545.752 797.8959 545.697 797.4388 545.697L797.4388 545.697L794.4813 545.697L794.4813 545.697L794.4813 546.488L794.4813 546.488L797.4388 546.488C 798.2299 546.488 798.5726 546.8455 798.5726 547.4724C 798.5726 547.7068 798.5118 547.9272 798.3903 548.1338C 798.2687 548.3403 798.1039 548.4875 797.8959 548.5754C 797.6879 548.6633 797.4008 548.7073 797.0345 548.7073L797.0345 548.7073L794.4813 548.7073z" stroke="none" fill="#353231" fill-rule="evenodd" /><path id="13" transform="matrix(1 0 0 -1 0 612)" d="M795.9843 541.2995L795.8832 540.4821C 794.9281 540.7399 794.3759 541.4504 794.3759 542.5344C 794.3759 543.8996 795.2577 544.758 796.7753 544.758C 798.3456 544.758 799.2538 543.8674 799.2538 542.5783C 799.2538 541.3303 798.3646 540.4557 796.8236 540.4557C 796.7767 540.4557 796.7064 540.4572 796.6127 540.4601L796.6127 540.4601L796.6127 543.9406C 795.5873 543.882 795.0262 543.3093 795.0262 542.53C 795.0262 541.9499 795.3163 541.5397 795.9843 541.2995zM797.2631 543.8967L797.2631 541.2907C 797.6556 541.3259 797.9501 541.4255 798.1464 541.5895C 798.451 541.8415 798.6034 542.1682 798.6034 542.5695C 798.6034 543.2961 798.0775 543.8439 797.2631 543.8967z" stroke="none" fill="#353231" fill-rule="evenodd" /><path id="15" transform="matrix(1 0 0 -1 0 612)" d="M794.4813 535.7623L800.9237 537.4717L800.9237 537.4717L800.9237 536.5972L800.9237 536.5972L796.7006 535.6172C 796.2582 535.5118 795.8187 535.421 795.3822 535.3448C 796.0707 535.1807 796.4677 535.084 796.5731 535.0547L796.5731 535.0547L800.9237 533.8287L800.9237 533.8287L800.9237 532.8004L800.9237 532.8004L797.663 531.8775C 796.8544 531.6461 796.0941 531.4791 795.3822 531.3765C 795.7894 531.2945 796.2567 531.1876 796.7841 531.0557L796.7841 531.0557L800.9237 530.045L800.9237 530.045L800.9237 529.188L800.9237 529.188L794.4813 530.9547L794.4813 530.9547L794.4813 531.7764L794.4813 531.7764L799.39 533.1343C 799.8002 533.2486 800.0521 533.316 800.1459 533.3365C 799.85 533.4039 799.598 533.4669 799.39 533.5255L799.39 533.5255L794.4813 534.8922z" stroke="none" fill="#353231" fill-rule="evenodd" /><path id="16" transform="matrix(1 0 0 -1 0 612)" d="M796.8148 528.9487C 797.6791 528.9487 798.3192 528.7085 798.7352 528.228C 799.0809 527.8267 799.2538 527.3374 799.2538 526.7603C 799.2538 525.4771 798.3632 524.5762 796.8807 524.5762C 796.2802 524.5762 795.8077 524.6663 795.4635 524.8464C 795.1193 525.0266 794.8519 525.2888 794.6615 525.6331C 794.4711 525.9773 794.3759 526.353 794.3759 526.7603C 794.3759 528.0669 795.2386 528.9487 796.8148 528.9487zM796.8148 528.1357C 795.6195 528.1357 795.0262 527.5513 795.0262 526.7603C 795.0262 525.9751 795.6166 525.3892 796.8412 525.3892C 797.9955 525.3892 798.599 525.981 798.599 526.7603C 798.599 527.5513 798.0101 528.1357 796.8148 528.1357z" stroke="none" fill="#353231" fill-rule="evenodd" /><path id="17" transform="matrix(1 0 0 -1 0 612)" d="M794.4813 523.6503L799.1483 523.6503L799.1483 523.6503L799.1483 522.9384L799.1483 522.9384L798.4847 522.9384C 798.9974 522.5956 799.2538 522.1005 799.2538 521.453C 799.2538 521.1718 799.2032 520.9132 799.1022 520.6774C 799.0011 520.4415 798.8685 520.265 798.7045 520.1478C 798.5404 520.0306 798.3456 519.9486 798.12 519.9017C 797.9735 519.8724 797.7172 519.8578 797.351 519.8578L797.351 519.8578L794.4813 519.8578L794.4813 519.8578L794.4813 520.6488L794.4813 520.6488L797.3202 520.6488C 797.6425 520.6488 797.8834 520.6796 798.0431 520.7411C 798.2028 520.8026 798.3302 520.9117 798.4254 521.0685C 798.5206 521.2252 798.5682 521.4091 798.5682 521.62C 798.5682 522.2938 798.2255 522.8593 797.0302 522.8593L797.0302 522.8593L794.4813 522.8593z" stroke="none" fill="#353231" fill-rule="evenodd" /><path id="18" transform="matrix(1 0 0 -1 0 612)" d="M794.4813 515.6185L795.0702 515.6185C 794.6073 515.9144 794.3759 516.3494 794.3759 516.9236C 794.3759 517.2957 794.4784 517.6378 794.6835 517.9498C 794.8885 518.2618 795.1749 518.5035 795.5426 518.6749C 795.9103 518.8463 796.3329 518.9319 796.8104 518.9319C 797.2762 518.9319 797.6989 518.8543 798.0782 518.699C 798.4576 518.5438 798.7484 518.3109 798.9506 518.0003C 799.1527 517.6898 799.2538 517.3426 799.2538 516.9588C 799.2538 516.3963 798.993 515.9466 798.6122 515.6712L798.6122 515.6712L800.9237 515.6712L800.9237 515.6712L800.9237 514.8846L800.9237 514.8846L794.4813 514.8846zM796.8104 518.119C 795.6151 518.119 795.0262 517.5345 795.0262 516.8489C 795.0262 516.1575 795.5844 515.6053 796.7445 515.6053C 798.0219 515.6053 798.599 516.1634 798.599 516.8841C 798.599 517.5872 798.0468 518.119 796.8104 518.119z" stroke="none" fill="#353231" fill-rule="evenodd" /><path id="19" transform="matrix(1 0 0 -1 0 612)" d="M795.9843 510.4475L795.8832 509.6301C 794.9281 509.8879 794.3759 510.5984 794.3759 511.6823C 794.3759 513.0475 795.2577 513.9059 796.7753 513.9059C 798.3456 513.9059 799.2538 513.0153 799.2538 511.7263C 799.2538 510.4782 798.3646 509.6037 796.8236 509.6037C 796.7767 509.6037 796.7064 509.6052 796.6127 509.6081L796.6127 509.6081L796.6127 513.0886C 795.5873 513.03 795.0262 512.4572 795.0262 511.6779C 795.0262 511.0979 795.3163 510.6877 795.9843 510.4475zM797.2631 513.0446L797.2631 510.4387C 797.6556 510.4738 797.9501 510.5735 798.1464 510.7375C 798.451 510.9895 798.6034 511.3161 798.6034 511.7175C 798.6034 512.444 798.0775 512.9919 797.2631 513.0446z" stroke="none" fill="#353231" fill-rule="evenodd" /><path id="20" transform="matrix(1 0 0 -1 0 612)" d="M794.4813 508.6471L799.1483 508.6471L799.1483 508.6471L799.1483 507.9352L799.1483 507.9352L798.4408 507.9352C 799.1029 507.5719 799.2538 507.2936 799.2538 506.9244C 799.2538 506.6578 799.1688 506.3868 798.9989 506.1115L798.9989 506.1115L798.265 506.3839C 798.3793 506.5773 798.4364 506.7706 798.4364 506.964C 798.4364 507.3097 798.2167 507.6071 797.8475 507.7242C 797.5663 507.8121 797.2587 507.8561 796.9247 507.8561L796.9247 507.8561L794.4813 507.8561z" stroke="none" fill="#353231" fill-rule="evenodd" /><path id="22" transform="matrix(1 0 0 -1 0 612)" d="M797.619 503.2975C 799.7577 503.2975 801.038 502.0289 801.038 500.2125C 801.038 499.6178 800.8959 499.0817 800.6117 498.6041C 800.3275 498.1266 799.9313 497.7626 799.423 497.5121C 798.9147 497.2616 798.3383 497.1364 797.6937 497.1364C 797.0404 497.1364 796.4559 497.2682 795.9403 497.5319C 795.4247 497.7955 795.0343 498.1691 794.7692 498.6525C 794.504 499.1359 794.3715 499.6573 794.3715 500.2169C 794.3715 500.8234 794.5179 501.3654 794.8109 501.8429C 795.1039 502.3204 795.5038 502.6823 796.0106 502.9283C 796.5175 503.1744 797.0536 503.2975 797.619 503.2975zM797.6058 502.4186C 796.0531 502.4186 795.101 501.4811 795.101 500.2213C 795.101 498.9381 796.0399 498.0153 797.6981 498.0153C 798.2225 498.0153 798.6803 498.1039 799.0714 498.2811C 799.4625 498.4584 799.7657 498.7177 799.9811 499.059C 800.1964 499.4003 800.3041 499.7833 800.3041 500.2081C 800.3041 501.4152 799.5453 502.4186 797.6058 502.4186z" stroke="none" fill="#353231" fill-rule="evenodd" /><path id="23" transform="matrix(1 0 0 -1 0 612)" d="M794.4813 496.1373L799.1483 496.1373L799.1483 496.1373L799.1483 495.4254L799.1483 495.4254L798.4847 495.4254C 798.9974 495.0826 799.2538 494.5875 799.2538 493.94C 799.2538 493.6588 799.2032 493.4002 799.1022 493.1644C 799.0011 492.9286 798.8685 492.752 798.7045 492.6349C 798.5404 492.5177 798.3456 492.4356 798.12 492.3888C 797.9735 492.3595 797.7172 492.3448 797.351 492.3448L797.351 492.3448L794.4813 492.3448L794.4813 492.3448L794.4813 493.1358L794.4813 493.1358L797.3202 493.1358C 797.6425 493.1358 797.8834 493.1666 798.0431 493.2281C 798.2028 493.2896 798.3302 493.3988 798.4254 493.5555C 798.5206 493.7122 798.5682 493.8961 798.5682 494.107C 798.5682 494.7809 798.2255 495.3463 797.0302 495.3463L797.0302 495.3463L794.4813 495.3463z" stroke="none" fill="#353231" fill-rule="evenodd" /><path id="24" transform="matrix(1 0 0 -1 0 612)" d="M795.9843 487.9385L795.8832 487.1211C 794.9281 487.3789 794.3759 488.0894 794.3759 489.1733C 794.3759 490.5386 795.2577 491.397 796.7753 491.397C 798.3456 491.397 799.2538 490.5063 799.2538 489.2173C 799.2538 487.9692 798.3646 487.0947 796.8236 487.0947C 796.7767 487.0947 796.7064 487.0962 796.6127 487.0991L796.6127 487.0991L796.6127 490.5796C 795.5873 490.521 795.0262 489.9482 795.0262 489.1689C 795.0262 488.5889 795.3163 488.1787 795.9843 487.9385zM797.2631 490.5356L797.2631 487.9297C 797.6556 487.9648 797.9501 488.0645 798.1464 488.2285C 798.451 488.4805 798.6034 488.8071 798.6034 489.2085C 798.6034 489.9351 798.0775 490.4829 797.2631 490.5356z" stroke="none" fill="#353231" fill-rule="evenodd" /><path id="25" transform="matrix(1 0 0 -1 0 612)" d="M795.8744 486.4457L795.9974 485.6635C 795.3705 485.5756 795.0262 485.1757 795.0262 484.455C 795.0262 483.7284 795.3705 483.3827 795.7689 483.3827C 795.9476 483.3827 796.0883 483.4604 796.1908 483.6156C 796.2611 483.724 796.3505 483.9936 796.4589 484.4242C 796.6053 485.0043 796.7321 485.4064 796.839 485.6305C 796.9459 485.8546 797.0939 486.0246 797.2828 486.1403C 797.4718 486.256 797.6805 486.3139 797.9091 486.3139C 798.3251 486.3139 798.6942 486.1103 798.9286 485.7821C 799.1102 485.536 799.2538 485.0819 799.2538 484.5956C 799.2538 484.2294 799.201 483.9079 799.0956 483.631C 798.9901 483.3542 798.8473 483.1498 798.6671 483.018C 798.4869 482.8861 798.246 482.7953 797.9442 482.7455L797.9442 482.7455L797.8387 483.519C 798.3192 483.5893 798.6034 483.9232 798.6034 484.5385C 798.6034 485.265 798.3236 485.5492 798.0013 485.5492C 797.8988 485.5492 797.8065 485.517 797.7245 485.4525C 797.6395 485.3881 797.5692 485.287 797.5135 485.1493C 797.4843 485.0702 797.4169 484.8373 797.3114 484.4506C 797.162 483.891 797.0397 483.5006 796.9445 483.2794C 796.8492 483.0583 796.7108 482.8847 796.5292 482.7587C 796.3475 482.6327 796.1219 482.5697 795.8524 482.5697C 795.5887 482.5697 795.3405 482.6466 795.1075 482.8004C 794.8746 482.9543 794.6945 483.1762 794.567 483.4662C 794.4396 483.7563 794.3759 484.0844 794.3759 484.4506C 794.3759 485.6635 794.8842 486.2699 795.8744 486.4457z" stroke="none" fill="#353231" fill-rule="evenodd" /></g></g></svg>