<svg xmlns="http://www.w3.org/2000/svg" xmlns:xlink="http://www.w3.org/1999/xlink" id="body_3" preserveAspectRatio="xMinYMin meet" viewBox="0 0 1144 816"><defs><clipPath id="1"><path id="" clip-rule="evenodd" transform="matrix(1 0 0 1 0 0)" d="M0 612L0 -0.28302L0 -0.28302L858.898 -0.28302L858.898 -0.28302L858.898 612L858.898 612L0 612z" /></clipPath><clipPath id="2"><path id="" clip-rule="evenodd" transform="matrix(1 0 0 1 0 0)" d="M0 -0.28302L858.898 -0.28302L858.898 -0.28302L858.898 612L858.898 612L0 612z" /></clipPath></defs><g transform="matrix(1.333333 0 0 1.333333 0 0)"><g clip-path="url(#1)"><g clip-path="url(#2)"><path id="1" transform="matrix(1 0 0 -1 0 612)" d="M65.2581 139.6838L58.0999 139.6838L58.0999 139.6838L58.0999 142.8577C 58.0999 143.4957 58.16419 143.9807 58.29277 144.3127C 58.42135 144.6448 58.6484 144.9101 58.97392 145.1086C 59.29944 145.3072 59.65915 145.4065 60.05302 145.4065C 61.06865 145.4065 61.81247 144.7636 62.00127 143.3899C 62.12171 143.6405 62.24052 143.831 62.35771 143.9612C 62.61162 144.2379 62.929 144.4999 63.30986 144.7473L63.30986 144.7473L65.2581 145.9924L65.2581 145.9924L65.2581 144.801L65.2581 144.801L63.76884 143.8538C 63.33916 143.5771 63.01038 143.3492 62.78252 143.1702C 62.55465 142.9911 62.39515 142.8308 62.304 142.6892C 62.21286 142.5476 62.14938 142.4036 62.11357 142.2571C 62.09079 142.1497 62.07939 141.9739 62.07939 141.7297L62.07939 141.7297L62.07939 140.6311L62.07939 140.6311L65.2581 140.6311zM61.25908 140.6311L61.25908 142.6672C 61.25908 143.1002 61.21432 143.4387 61.1248 143.6829C 61.03528 143.927 60.89206 144.1125 60.69511 144.2395C 60.49817 144.3665 60.28415 144.4299 60.05302 144.4299C 59.37594 144.4299 58.89091 143.9579 58.89091 142.8967L58.89091 142.8967L58.89091 140.6311z" stroke="none" fill="#353231" fill-rule="evenodd" /><path id="2" transform="matrix(1 0 0 -1 0 612)" d="M65.2581 150.1753L64.49638 150.1753C 65.08232 149.7717 65.37529 149.2232 65.37529 148.5298C 65.37529 148.2238 65.3167 147.9382 65.19951 147.6729C 65.08232 147.4076 64.93502 147.2106 64.75761 147.0821C 64.58021 146.9535 64.36292 146.8631 64.10576 146.8111C 63.93323 146.7753 63.65979 146.7574 63.28545 146.7574L63.28545 146.7574L60.07256 146.7574L60.07256 146.7574L60.07256 147.6363L60.07256 147.6363L62.94853 147.6363C 63.40752 147.6363 63.71676 147.6542 63.87627 147.69C 64.33851 147.8006 64.61845 148.1783 64.61845 148.7056C 64.61845 148.9693 64.55091 149.2167 64.41582 149.4478C 64.28072 149.6789 64.09681 149.8425 63.86406 149.9385C 63.63131 150.0345 63.29358 150.0826 62.85088 150.0826L62.85088 150.0826L60.07256 150.0826L60.07256 150.0826L60.07256 150.9615L60.07256 150.9615L65.2581 150.9615z" stroke="none" fill="#353231" fill-rule="evenodd" /><path id="3" transform="matrix(1 0 0 -1 0 612)" d="M62.66533 152.0097C 61.70504 152.0097 60.99378 152.2767 60.53154 152.8105C 60.14743 153.2565 59.95537 153.8001 59.95537 154.4414C 59.95537 155.8672 60.94495 156.8681 62.59209 156.8681C 63.2594 156.8681 63.78431 156.768 64.16679 156.5678C 64.54928 156.3676 64.84632 156.0763 65.05791 155.6938C 65.26949 155.3113 65.37529 154.8938 65.37529 154.4414C 65.37529 152.9895 64.41663 152.0097 62.66533 152.0097zM62.66533 152.9131C 63.99345 152.9131 64.65263 153.5625 64.65263 154.4414C 64.65263 155.3138 63.99671 155.9648 62.63603 155.9648C 61.35348 155.9648 60.68291 155.3073 60.68291 154.4414C 60.68291 153.5625 61.3372 152.9131 62.66533 152.9131z" stroke="none" fill="#353231" fill-rule="evenodd" /><path id="4" transform="matrix(1 0 0 -1 0 612)" d="M63.35869 161.2807L63.47099 162.1449C 64.6624 161.9561 65.37529 161.1195 65.37529 159.9867C 65.37529 158.5675 64.41663 157.6283 62.68486 157.6283C 62.12497 157.6283 61.63506 157.7211 61.21513 157.9066C 60.79521 158.0922 60.48027 158.3746 60.27031 158.7538C 60.06035 159.1331 59.95537 159.5457 59.95537 159.9916C 59.95537 161.1179 60.54782 161.8601 61.59599 162.0619L61.59599 162.0619L61.72783 161.2074C 61.03122 161.0447 60.67802 160.6117 60.67802 160.0258C 60.67802 159.1404 61.28675 158.5316 62.66045 158.5316C 64.05367 158.5316 64.65263 159.1176 64.65263 159.977C 64.65263 160.6671 64.23759 161.157 63.35869 161.2807z" stroke="none" fill="#353231" fill-rule="evenodd" /><path id="5" transform="matrix(1 0 0 -1 0 612)" d="M65.2581 162.8969L58.0999 162.8969L58.0999 162.8969L58.0999 163.7758L58.0999 163.7758L60.66826 163.7758C 60.193 164.1859 59.95537 164.7035 59.95537 165.3285C 59.95537 165.7126 60.03105 166.0463 60.18242 166.3295C 60.33379 166.6127 60.54293 166.8153 60.80986 166.9374C 61.07679 167.0595 61.46416 167.1205 61.97197 167.1205L61.97197 167.1205L65.2581 167.1205L65.2581 167.1205L65.2581 166.2416L65.2581 166.2416L61.97197 166.2416C 61.09306 166.2416 60.7122 165.8445 60.7122 165.1479C 60.7122 164.8875 60.77975 164.6425 60.91484 164.413C 61.04993 164.1835 61.23304 164.0199 61.46416 163.9223C 61.69528 163.8246 62.01429 163.7758 62.42119 163.7758L62.42119 163.7758L65.2581 163.7758z" stroke="none" fill="#353231" fill-rule="evenodd" /><path id="6" transform="matrix(1 0 0 -1 0 612)" d="M62.66533 168.1297C 61.70504 168.1297 60.99378 168.3967 60.53154 168.9305C 60.14743 169.3765 59.95537 169.9201 59.95537 170.5614C 59.95537 171.9872 60.94495 172.9881 62.59209 172.9881C 63.2594 172.9881 63.78431 172.888 64.16679 172.6878C 64.54928 172.4876 64.84632 172.1963 65.05791 171.8138C 65.26949 171.4313 65.37529 171.0139 65.37529 170.5614C 65.37529 169.1096 64.41663 168.1297 62.66533 168.1297zM62.66533 169.0331C 63.99345 169.0331 64.65263 169.6825 64.65263 170.5614C 64.65263 171.4338 63.99671 172.0848 62.63603 172.0848C 61.35348 172.0848 60.68291 171.4273 60.68291 170.5614C 60.68291 169.6825 61.3372 169.0331 62.66533 169.0331z" stroke="none" fill="#353231" fill-rule="evenodd" /><path id="7" transform="matrix(1 0 0 -1 0 612)" d="M65.2581 174.0169L60.07256 174.0169L60.07256 174.0169L60.07256 174.8079L60.07256 174.8079L60.80986 174.8079C 60.2402 175.1888 59.95537 175.7389 59.95537 176.4583C 59.95537 176.7708 60.01152 177.0581 60.12383 177.3201C 60.23613 177.5822 60.38343 177.7783 60.56572 177.9085C 60.74801 178.0387 60.96448 178.1298 61.21513 178.1819C 61.3779 178.2145 61.66272 178.2307 62.06963 178.2307L62.06963 178.2307L65.2581 178.2307L65.2581 178.2307L65.2581 177.3518L65.2581 177.3518L62.10381 177.3518C 61.74573 177.3518 61.47799 177.3177 61.30058 177.2493C 61.12317 177.1809 60.98157 177.0597 60.87578 176.8855C 60.76999 176.7114 60.71709 176.5071 60.71709 176.2727C 60.71709 175.524 61.09795 174.8958 62.42607 174.8958L62.42607 174.8958L65.2581 174.8958z" stroke="none" fill="#353231" fill-rule="evenodd" /><path id="8" transform="matrix(1 0 0 -1 0 612)" d="M65.68779 179.4157L65.81474 180.2702C 66.07841 180.306 66.27047 180.4053 66.39091 180.5681C 66.55367 180.7862 66.63506 181.084 66.63506 181.4616C 66.63506 182.2755 66.29326 182.697 65.70732 182.8532C 65.52828 182.8988 65.15231 182.92 64.57939 182.9167C 65.03187 182.5326 65.2581 182.0541 65.2581 181.4812C 65.2581 180.0554 64.07484 179.24 62.63603 179.24C 62.14124 179.24 61.6847 179.3295 61.2664 179.5085C 60.84811 179.6876 60.52503 179.9472 60.29716 180.2873C 60.0693 180.6275 59.95537 181.0271 59.95537 181.4861C 59.95537 182.098 60.20276 182.6026 60.69756 182.9997L60.69756 182.9997L60.07256 182.9997L60.07256 182.9997L60.07256 183.8103L60.07256 183.8103L64.55498 183.8103C 65.36227 183.8103 65.93437 183.7281 66.27129 183.5637C 66.6082 183.3993 66.87431 183.1389 67.06963 182.7824C 67.26494 182.426 67.36259 181.9874 67.36259 181.4665C 67.36259 180.2296 66.80758 179.3897 65.68779 179.4157zM62.57256 180.1433C 63.93323 180.1433 64.53056 180.7504 64.53056 181.5642C 64.53056 182.3715 63.92998 182.99 62.60185 182.99C 61.33232 182.99 60.68291 182.3438 60.68291 181.5495C 60.68291 180.7683 61.32256 180.1433 62.57256 180.1433z" stroke="none" fill="#353231" fill-rule="evenodd" /></g><path id="9" transform="matrix(1 0 0 -1 0 612)" d="M75.89 57.693L781.008 57.693L781.008 447.874L75.89 447.874z" stroke="none" fill="#FFFEFE" fill-rule="nonzero" /><path id="3820" transform="matrix(1 0 0 -1 0 612)" d="M64.4163 384.0228L58.73417 384.0228L58.73417 384.0228L58.73417 381.9002L58.73417 381.9002L57.97392 381.9002L57.97392 381.9002L57.97392 387.0067L57.97392 387.0067L58.73417 387.0067L58.73417 387.0067L58.73417 384.8753L58.73417 384.8753L64.4163 384.8753z" stroke="none" fill="#353231" fill-rule="evenodd" /><path id="3821" transform="matrix(1 0 0 -1 0 612)" d="M64.4163 387.7816L57.97392 387.7816L57.97392 387.7816L57.97392 388.5726L57.97392 388.5726L60.28544 388.5726C 59.8577 388.9417 59.64384 389.4075 59.64384 389.97C 59.64384 390.3157 59.71195 390.616 59.84818 390.8709C 59.98441 391.1258 60.17265 391.3082 60.41288 391.418C 60.65311 391.5279 61.00175 391.5828 61.45878 391.5828L61.45878 391.5828L64.4163 391.5828L64.4163 391.5828L64.4163 390.7918L64.4163 390.7918L61.45878 390.7918C 60.66776 390.7918 60.32499 390.4344 60.32499 389.8074C 60.32499 389.5731 60.38578 389.3526 60.50736 389.1461C 60.62894 388.9395 60.79374 388.7923 61.00175 388.7044C 61.20975 388.6165 61.49686 388.5726 61.86308 388.5726L61.86308 388.5726L64.4163 388.5726z" stroke="none" fill="#353231" fill-rule="evenodd" /><path id="3822" transform="matrix(1 0 0 -1 0 612)" d="M62.91337 395.9804L63.01444 396.7978C 63.96952 396.5399 64.52177 395.8295 64.52177 394.7455C 64.52177 393.3803 63.63993 392.5219 62.12235 392.5219C 60.55204 392.5219 59.64384 393.4125 59.64384 394.7016C 59.64384 395.9496 60.533 396.8241 62.07401 396.8241C 62.12089 396.8241 62.1912 396.8227 62.28495 396.8197L62.28495 396.8197L62.28495 393.3393C 63.31034 393.3979 63.87138 393.9706 63.87138 394.7499C 63.87138 395.33 63.58134 395.7401 62.91337 395.9804zM61.63456 393.3832L61.63456 395.9892C 61.24198 395.954 60.94755 395.8544 60.75126 395.6903C 60.44657 395.4384 60.29423 395.1117 60.29423 394.7104C 60.29423 393.9838 60.82011 393.4359 61.63456 393.3832z" stroke="none" fill="#353231" fill-rule="evenodd" /><path id="3824" transform="matrix(1 0 0 -1 0 612)" d="M64.4163 401.5176L57.97392 399.8082L57.97392 399.8082L57.97392 400.6827L57.97392 400.6827L62.19706 401.6627C 62.63944 401.7681 63.0789 401.8589 63.51542 401.9351C 62.82694 402.0992 62.42997 402.1959 62.3245 402.2252L62.3245 402.2252L57.97392 403.4512L57.97392 403.4512L57.97392 404.4796L57.97392 404.4796L61.23466 405.4024C 62.04325 405.6339 62.8035 405.8008 63.51542 405.9034C 63.10819 405.9854 62.64091 406.0923 62.11356 406.2242L62.11356 406.2242L57.97392 407.2349L57.97392 407.2349L57.97392 408.0919L57.97392 408.0919L64.4163 406.3253L64.4163 406.3253L64.4163 405.5035L64.4163 405.5035L59.50761 404.1456C 59.09745 404.0313 58.8455 403.9639 58.75175 403.9434C 59.04765 403.876 59.2996 403.813 59.50761 403.7545L59.50761 403.7545L64.4163 402.3878z" stroke="none" fill="#353231" fill-rule="evenodd" /><path id="3825" transform="matrix(1 0 0 -1 0 612)" d="M62.0828 408.3311C 61.21854 408.3311 60.57841 408.5714 60.16239 409.0518C 59.81669 409.4532 59.64384 409.9424 59.64384 410.5196C 59.64384 411.8028 60.53446 412.7037 62.01688 412.7037C 62.61747 412.7037 63.08988 412.6136 63.43412 412.4334C 63.77836 412.2532 64.04569 411.991 64.23612 411.6468C 64.42655 411.3026 64.52177 410.9268 64.52177 410.5196C 64.52177 409.213 63.65897 408.3311 62.0828 408.3311zM62.0828 409.1441C 63.27811 409.1441 63.87138 409.7286 63.87138 410.5196C 63.87138 411.3047 63.28104 411.8907 62.05643 411.8907C 60.90214 411.8907 60.29862 411.2989 60.29862 410.5196C 60.29862 409.7286 60.88749 409.1441 62.0828 409.1441z" stroke="none" fill="#353231" fill-rule="evenodd" /><path id="3826" transform="matrix(1 0 0 -1 0 612)" d="M64.4163 413.6295L59.74931 413.6295L59.74931 413.6295L59.74931 414.3415L59.74931 414.3415L60.41288 414.3415C 59.90018 414.6842 59.64384 415.1794 59.64384 415.8268C 59.64384 416.1081 59.69437 416.3666 59.79545 416.6024C 59.89652 416.8383 60.02909 417.0148 60.19315 417.132C 60.35722 417.2492 60.55204 417.3312 60.77763 417.3781C 60.92411 417.4074 61.18046 417.422 61.54667 417.422L61.54667 417.422L64.4163 417.422L64.4163 417.422L64.4163 416.631L64.4163 416.631L61.57743 416.631C 61.25517 416.631 61.0142 416.6003 60.85453 416.5387C 60.69486 416.4772 60.56742 416.3681 60.47221 416.2113C 60.37699 416.0546 60.32938 415.8708 60.32938 415.6598C 60.32938 414.986 60.67216 414.4206 61.86747 414.4206L61.86747 414.4206L64.4163 414.4206z" stroke="none" fill="#353231" fill-rule="evenodd" /><path id="3827" transform="matrix(1 0 0 -1 0 612)" d="M64.4163 421.6614L63.82743 421.6614C 64.29032 421.3655 64.52177 420.9304 64.52177 420.3562C 64.52177 419.9841 64.41923 419.6421 64.21415 419.3301C 64.00907 419.0181 63.72269 418.7764 63.35502 418.605C 62.98734 418.4336 62.56474 418.3479 62.0872 418.3479C 61.62138 418.3479 61.19877 418.4255 60.81937 418.5808C 60.43998 418.7361 60.14921 418.969 59.94706 419.2795C 59.74491 419.5901 59.64384 419.9373 59.64384 420.321C 59.64384 420.8835 59.90458 421.3333 60.28544 421.6086L60.28544 421.6086L57.97392 421.6086L57.97392 421.6086L57.97392 422.3953L57.97392 422.3953L64.4163 422.3953zM62.0872 419.1609C 63.28251 419.1609 63.87138 419.7454 63.87138 420.4309C 63.87138 421.1223 63.31327 421.6746 62.15311 421.6746C 60.87577 421.6746 60.29862 421.1165 60.29862 420.3958C 60.29862 419.6926 60.85087 419.1609 62.0872 419.1609z" stroke="none" fill="#353231" fill-rule="evenodd" /><path id="3828" transform="matrix(1 0 0 -1 0 612)" d="M62.91337 426.8324L63.01444 427.6497C 63.96952 427.3919 64.52177 426.6815 64.52177 425.5975C 64.52177 424.2323 63.63993 423.3739 62.12235 423.3739C 60.55204 423.3739 59.64384 424.2645 59.64384 425.5536C 59.64384 426.8016 60.533 427.6761 62.07401 427.6761C 62.12089 427.6761 62.1912 427.6747 62.28495 427.6717L62.28495 427.6717L62.28495 424.1913C 63.31034 424.2498 63.87138 424.8226 63.87138 425.6019C 63.87138 426.182 63.58134 426.5921 62.91337 426.8324zM61.63456 424.2352L61.63456 426.8412C 61.24198 426.806 60.94755 426.7064 60.75126 426.5423C 60.44657 426.2904 60.29423 425.9637 60.29423 425.5623C 60.29423 424.8358 60.82011 424.2879 61.63456 424.2352z" stroke="none" fill="#353231" fill-rule="evenodd" /><path id="3829" transform="matrix(1 0 0 -1 0 612)" d="M64.4163 428.6328L59.74931 428.6328L59.74931 428.6328L59.74931 429.3447L59.74931 429.3447L60.45683 429.3447C 59.79472 429.7079 59.64384 429.9863 59.64384 430.3554C 59.64384 430.622 59.7288 430.893 59.89872 431.1684L59.89872 431.1684L60.63261 430.8959C 60.51835 430.7026 60.46122 430.5092 60.46122 430.3159C 60.46122 429.9702 60.68095 429.6728 61.05009 429.5556C 61.33134 429.4677 61.63895 429.4238 61.97294 429.4238L61.97294 429.4238L64.4163 429.4238z" stroke="none" fill="#353231" fill-rule="evenodd" /><path id="3831" transform="matrix(1 0 0 -1 0 612)" d="M61.2786 433.9824C 59.13993 433.9824 57.85966 435.2509 57.85966 437.0673C 57.85966 437.662 58.00175 438.1982 58.28593 438.6757C 58.57011 439.1533 58.96635 439.5173 59.47465 439.7678C 59.98295 440.0182 60.55936 440.1435 61.2039 440.1435C 61.85722 440.1435 62.44169 440.0117 62.95731 439.748C 63.47294 439.4843 63.86332 439.1108 64.12846 438.6274C 64.39359 438.144 64.52616 437.6225 64.52616 437.0629C 64.52616 436.4565 64.37968 435.9145 64.08671 435.437C 63.79374 434.9594 63.39384 434.5976 62.887 434.3515C 62.38017 434.1054 61.84403 433.9824 61.2786 433.9824zM61.29179 434.8613C 62.84452 434.8613 63.79667 435.7988 63.79667 437.0585C 63.79667 438.3417 62.8577 439.2646 61.1995 439.2646C 60.67509 439.2646 60.21732 439.176 59.82621 438.9987C 59.4351 438.8215 59.13187 438.5622 58.91654 438.2209C 58.70121 437.8796 58.59354 437.4965 58.59354 437.0717C 58.59354 435.8647 59.35233 434.8613 61.29179 434.8613z" stroke="none" fill="#353231" fill-rule="evenodd" /><path id="3832" transform="matrix(1 0 0 -1 0 612)" d="M64.4163 441.1425L59.74931 441.1425L59.74931 441.1425L59.74931 441.8545L59.74931 441.8545L60.41288 441.8545C 59.90018 442.1972 59.64384 442.6924 59.64384 443.3398C 59.64384 443.6211 59.69437 443.8796 59.79545 444.1154C 59.89652 444.3513 60.02909 444.5278 60.19315 444.645C 60.35722 444.7622 60.55204 444.8442 60.77763 444.8911C 60.92411 444.9204 61.18046 444.935 61.54667 444.935L61.54667 444.935L64.4163 444.935L64.4163 444.935L64.4163 444.144L64.4163 444.144L61.57743 444.144C 61.25517 444.144 61.0142 444.1133 60.85453 444.0517C 60.69486 443.9902 60.56742 443.8811 60.47221 443.7243C 60.37699 443.5676 60.32938 443.3838 60.32938 443.1728C 60.32938 442.499 60.67216 441.9336 61.86747 441.9336L61.86747 441.9336L64.4163 441.9336z" stroke="none" fill="#353231" fill-rule="evenodd" /><path id="3833" transform="matrix(1 0 0 -1 0 612)" d="M62.91337 449.3414L63.01444 450.1588C 63.96952 449.9009 64.52177 449.1905 64.52177 448.1065C 64.52177 446.7413 63.63993 445.8829 62.12235 445.8829C 60.55204 445.8829 59.64384 446.7735 59.64384 448.0626C 59.64384 449.3106 60.533 450.1851 62.07401 450.1851C 62.12089 450.1851 62.1912 450.1837 62.28495 450.1807L62.28495 450.1807L62.28495 446.7003C 63.31034 446.7589 63.87138 447.3316 63.87138 448.1109C 63.87138 448.691 63.58134 449.1011 62.91337 449.3414zM61.63456 446.7442L61.63456 449.3502C 61.24198 449.315 60.94755 449.2154 60.75126 449.0513C 60.44657 448.7994 60.29423 448.4727 60.29423 448.0714C 60.29423 447.3448 60.82011 446.7969 61.63456 446.7442z" stroke="none" fill="#353231" fill-rule="evenodd" /><path id="3834" transform="matrix(1 0 0 -1 0 612)" d="M63.02323 450.8341L62.90018 451.6164C 63.52714 451.7043 63.87138 452.1042 63.87138 452.8249C 63.87138 453.5514 63.52714 453.8971 63.1287 453.8971C 62.94999 453.8971 62.80936 453.8195 62.70683 453.6642C 62.63651 453.5558 62.54716 453.2863 62.43876 452.8556C 62.29227 452.2755 62.16557 451.8734 62.05863 451.6493C 61.9517 451.4252 61.80375 451.2553 61.61478 451.1396C 61.42582 451.0238 61.21708 450.966 60.98856 450.966C 60.57255 450.966 60.20341 451.1696 59.96903 451.4977C 59.78739 451.7438 59.64384 452.1979 59.64384 452.6842C 59.64384 453.0504 59.69657 453.372 59.80204 453.6488C 59.90751 453.9257 60.05033 454.13 60.23051 454.2619C 60.41068 454.3937 60.65165 454.4845 60.95341 454.5343L60.95341 454.5343L61.05888 453.7609C 60.57841 453.6906 60.29423 453.3566 60.29423 452.7414C 60.29423 452.0148 60.57401 451.7306 60.89628 451.7306C 60.99882 451.7306 61.0911 451.7628 61.17313 451.8273C 61.25809 451.8918 61.32841 451.9928 61.38407 452.1305C 61.41337 452.2096 61.48075 452.4425 61.58622 452.8293C 61.73563 453.3888 61.85795 453.7792 61.95316 454.0004C 62.04838 454.2216 62.18681 454.3952 62.36845 454.5211C 62.55009 454.6471 62.77567 454.7101 63.0452 454.7101C 63.30888 454.7101 63.55717 454.6332 63.79008 454.4794C 64.02299 454.3256 64.20316 454.1037 64.3306 453.8136C 64.45805 453.5236 64.52177 453.1955 64.52177 452.8293C 64.52177 451.6164 64.01347 451.0099 63.02323 450.8341z" stroke="none" fill="#353231" fill-rule="evenodd" /></g></g></svg>