<svg xmlns="http://www.w3.org/2000/svg" xmlns:xlink="http://www.w3.org/1999/xlink" id="body_6" preserveAspectRatio="xMinYMin meet" viewBox="0 0 1144 816"><defs><clipPath id="1"><path id="" clip-rule="evenodd" transform="matrix(1 0 0 1 0 0)" d="M0 612L0 -0.28302L0 -0.28302L858.898 -0.28302L858.898 -0.28302L858.898 612L858.898 612L0 612z" /></clipPath><clipPath id="2"><path id="" clip-rule="evenodd" transform="matrix(1 0 0 1 0 0)" d="M0 -0.28302L858.898 -0.28302L858.898 -0.28302L858.898 612L858.898 612L0 612z" /></clipPath><clipPath id="3"><path id="" clip-rule="evenodd" transform="matrix(1 0 0 1 0 0)" d="M55.275 56.409L780.236 56.409L780.236 56.409L780.236 555.307L780.236 555.307L55.275 555.307z" /></clipPath><clipPath id="4"><path id="" clip-rule="evenodd" transform="matrix(1 0 0 1 0 0)" d="M657.501 375.874L779.522 375.874L779.522 375.874L779.522 284.599L779.522 284.599L657.501 284.599z" /></clipPath><clipPath id="5"><path id="" clip-rule="evenodd" transform="matrix(1 0 0 1 0 0)" d="M538.025 541.135L775.747 541.135L775.747 541.135L775.747 392.315L775.747 392.315L538.025 392.315z" /></clipPath></defs><g transform="matrix(1.333333 0 0 1.333333 0 0)"><g clip-path="url(#1)"><g clip-path="url(#2)"><path id="1" transform="matrix(1 0 0 -1 0 612)" d="M65.2581 139.6837L58.0999 139.6837L58.0999 139.6837L58.0999 142.8576C 58.0999 143.4956 58.16419 143.9806 58.29277 144.3126C 58.42135 144.6447 58.6484 144.91 58.97392 145.1085C 59.29944 145.3071 59.65915 145.4064 60.05302 145.4064C 61.06865 145.4064 61.81247 144.7635 62.00127 143.3898C 62.12171 143.6404 62.24052 143.8309 62.35771 143.9611C 62.61162 144.2378 62.929 144.4998 63.30986 144.7472L63.30986 144.7472L65.2581 145.9923L65.2581 145.9923L65.2581 144.8009L65.2581 144.8009L63.76884 143.8537C 63.33916 143.577 63.01038 143.3491 62.78252 143.1701C 62.55465 142.991 62.39515 142.8307 62.304 142.6891C 62.21286 142.5475 62.14938 142.4035 62.11357 142.257C 62.09079 142.1496 62.07939 141.9738 62.07939 141.7296L62.07939 141.7296L62.07939 140.631L62.07939 140.631L65.2581 140.631zM61.25908 140.631L61.25908 142.6671C 61.25908 143.1001 61.21432 143.4386 61.1248 143.6828C 61.03528 143.9269 60.89206 144.1124 60.69511 144.2394C 60.49817 144.3663 60.28415 144.4298 60.05302 144.4298C 59.37594 144.4298 58.89091 143.9578 58.89091 142.8966L58.89091 142.8966L58.89091 140.631z" stroke="none" fill="#353332" fill-rule="evenodd" /><path id="2" transform="matrix(1 0 0 -1 0 612)" d="M65.2581 150.1752L64.49638 150.1752C 65.08232 149.7716 65.37529 149.2231 65.37529 148.5297C 65.37529 148.2237 65.3167 147.9381 65.19951 147.6728C 65.08232 147.4075 64.93502 147.2105 64.75761 147.082C 64.58021 146.9534 64.36292 146.863 64.10576 146.811C 63.93323 146.7751 63.65979 146.7572 63.28545 146.7572L63.28545 146.7572L60.07256 146.7572L60.07256 146.7572L60.07256 147.6362L60.07256 147.6362L62.94853 147.6362C 63.40752 147.6362 63.71676 147.6541 63.87627 147.6899C 64.33851 147.8005 64.61845 148.1781 64.61845 148.7055C 64.61845 148.9692 64.55091 149.2166 64.41582 149.4477C 64.28072 149.6788 64.09681 149.8424 63.86406 149.9384C 63.63131 150.0344 63.29358 150.0824 62.85088 150.0824L62.85088 150.0824L60.07256 150.0824L60.07256 150.0824L60.07256 150.9613L60.07256 150.9613L65.2581 150.9613z" stroke="none" fill="#353332" fill-rule="evenodd" /><path id="3" transform="matrix(1 0 0 -1 0 612)" d="M62.66533 152.0096C 61.70504 152.0096 60.99378 152.2766 60.53154 152.8104C 60.14743 153.2564 59.95537 153.8 59.95537 154.4413C 59.95537 155.8671 60.94495 156.868 62.59209 156.868C 63.2594 156.868 63.78431 156.7679 64.16679 156.5677C 64.54928 156.3675 64.84632 156.0762 65.05791 155.6937C 65.26949 155.3112 65.37529 154.8937 65.37529 154.4413C 65.37529 152.9894 64.41663 152.0096 62.66533 152.0096zM62.66533 152.9129C 63.99345 152.9129 64.65263 153.5624 64.65263 154.4413C 64.65263 155.3137 63.99671 155.9647 62.63603 155.9647C 61.35348 155.9647 60.68291 155.3072 60.68291 154.4413C 60.68291 153.5624 61.3372 152.9129 62.66533 152.9129z" stroke="none" fill="#353332" fill-rule="evenodd" /><path id="4" transform="matrix(1 0 0 -1 0 612)" d="M63.35869 161.2806L63.47099 162.1448C 64.6624 161.956 65.37529 161.1194 65.37529 159.9866C 65.37529 158.5674 64.41663 157.6282 62.68486 157.6282C 62.12497 157.6282 61.63506 157.721 61.21513 157.9065C 60.79521 158.0921 60.48027 158.3745 60.27031 158.7537C 60.06035 159.1329 59.95537 159.5455 59.95537 159.9915C 59.95537 161.1178 60.54782 161.86 61.59599 162.0618L61.59599 162.0618L61.72783 161.2073C 61.03122 161.0446 60.67802 160.6116 60.67802 160.0257C 60.67802 159.1403 61.28675 158.5315 62.66045 158.5315C 64.05367 158.5315 64.65263 159.1175 64.65263 159.9769C 64.65263 160.667 64.23759 161.1569 63.35869 161.2806z" stroke="none" fill="#353332" fill-rule="evenodd" /><path id="5" transform="matrix(1 0 0 -1 0 612)" d="M65.2581 162.8968L58.0999 162.8968L58.0999 162.8968L58.0999 163.7757L58.0999 163.7757L60.66826 163.7757C 60.193 164.1858 59.95537 164.7034 59.95537 165.3284C 59.95537 165.7125 60.03105 166.0462 60.18242 166.3294C 60.33379 166.6126 60.54293 166.8152 60.80986 166.9373C 61.07679 167.0594 61.46416 167.1204 61.97197 167.1204L61.97197 167.1204L65.2581 167.1204L65.2581 167.1204L65.2581 166.2415L65.2581 166.2415L61.97197 166.2415C 61.09306 166.2415 60.7122 165.8444 60.7122 165.1478C 60.7122 164.8873 60.77975 164.6424 60.91484 164.4129C 61.04993 164.1834 61.23304 164.0198 61.46416 163.9222C 61.69528 163.8245 62.01429 163.7757 62.42119 163.7757L62.42119 163.7757L65.2581 163.7757z" stroke="none" fill="#353332" fill-rule="evenodd" /><path id="6" transform="matrix(1 0 0 -1 0 612)" d="M62.66533 168.1296C 61.70504 168.1296 60.99378 168.3966 60.53154 168.9304C 60.14743 169.3764 59.95537 169.92 59.95537 170.5613C 59.95537 171.9871 60.94495 172.988 62.59209 172.988C 63.2594 172.988 63.78431 172.8879 64.16679 172.6877C 64.54928 172.4875 64.84632 172.1962 65.05791 171.8137C 65.26949 171.4312 65.37529 171.0137 65.37529 170.5613C 65.37529 169.1095 64.41663 168.1296 62.66533 168.1296zM62.66533 169.033C 63.99345 169.033 64.65263 169.6824 64.65263 170.5613C 64.65263 171.4337 63.99671 172.0847 62.63603 172.0847C 61.35348 172.0847 60.68291 171.4272 60.68291 170.5613C 60.68291 169.6824 61.3372 169.033 62.66533 169.033z" stroke="none" fill="#353332" fill-rule="evenodd" /><path id="7" transform="matrix(1 0 0 -1 0 612)" d="M65.2581 174.0168L60.07256 174.0168L60.07256 174.0168L60.07256 174.8078L60.07256 174.8078L60.80986 174.8078C 60.2402 175.1887 59.95537 175.7388 59.95537 176.4582C 59.95537 176.7707 60.01152 177.058 60.12383 177.32C 60.23613 177.582 60.38343 177.7782 60.56572 177.9084C 60.74801 178.0386 60.96448 178.1297 61.21513 178.1818C 61.3779 178.2144 61.66272 178.2307 62.06963 178.2307L62.06963 178.2307L65.2581 178.2307L65.2581 178.2307L65.2581 177.3517L65.2581 177.3517L62.10381 177.3517C 61.74573 177.3517 61.47799 177.3176 61.30058 177.2492C 61.12317 177.1808 60.98157 177.0596 60.87578 176.8854C 60.76999 176.7113 60.71709 176.507 60.71709 176.2726C 60.71709 175.5239 61.09795 174.8957 62.42607 174.8957L62.42607 174.8957L65.2581 174.8957z" stroke="none" fill="#353332" fill-rule="evenodd" /><path id="8" transform="matrix(1 0 0 -1 0 612)" d="M65.68779 179.4156L65.81474 180.2701C 66.07841 180.3059 66.27047 180.4052 66.39091 180.568C 66.55367 180.7861 66.63506 181.0839 66.63506 181.4615C 66.63506 182.2753 66.29326 182.6969 65.70732 182.8531C 65.52828 182.8987 65.15231 182.9199 64.57939 182.9166C 65.03187 182.5325 65.2581 182.054 65.2581 181.4811C 65.2581 180.0553 64.07484 179.2399 62.63603 179.2399C 62.14124 179.2399 61.6847 179.3294 61.2664 179.5084C 60.84811 179.6875 60.52503 179.9471 60.29716 180.2872C 60.0693 180.6274 59.95537 181.027 59.95537 181.486C 59.95537 182.0979 60.20276 182.6025 60.69756 182.9996L60.69756 182.9996L60.07256 182.9996L60.07256 182.9996L60.07256 183.8102L60.07256 183.8102L64.55498 183.8102C 65.36227 183.8102 65.93437 183.728 66.27129 183.5636C 66.6082 183.3992 66.87431 183.1388 67.06963 182.7823C 67.26494 182.4259 67.36259 181.9873 67.36259 181.4664C 67.36259 180.2294 66.80758 179.3896 65.68779 179.4156zM62.57256 180.1432C 63.93323 180.1432 64.53056 180.7503 64.53056 181.5641C 64.53056 182.3714 63.92998 182.9899 62.60185 182.9899C 61.33232 182.9899 60.68291 182.3437 60.68291 181.5494C 60.68291 180.7682 61.32256 180.1432 62.57256 180.1432z" stroke="none" fill="#353332" fill-rule="evenodd" /></g><path id="9" transform="matrix(1 0 0 -1 0 612)" d="M55.276 56.693L780.237 56.693L780.237 555.591L55.276 555.591z" stroke="none" fill="#E5E6E6" fill-rule="nonzero" /><g clip-path="url(#3)"><g transform="matrix(0.2662207 0 0 0.2667543 54.09843 56.40948)"><g transform="matrix(1 0 0 1 0 0)"><image x="0" y="0" xlink:href="img_11.png" width="2732" height="1874" /></g></g></g><path id="732" transform="matrix(1 0 0 -1 0 612)" d="M794.657 490.2613L800.3391 490.2613L800.3391 490.2613L800.3391 492.3839L800.3391 492.3839L801.0994 492.3839L801.0994 492.3839L801.0994 487.2774L801.0994 487.2774L800.3391 487.2774L800.3391 487.2774L800.3391 489.4088L800.3391 489.4088L794.657 489.4088z" stroke="none" fill="#353332" fill-rule="evenodd" /><path id="733" transform="matrix(1 0 0 -1 0 612)" d="M794.657 486.5025L801.0994 486.5025L801.0994 486.5025L801.0994 485.7115L801.0994 485.7115L798.7878 485.7115C 799.2156 485.3424 799.4294 484.8766 799.4294 484.3141C 799.4294 483.9684 799.3613 483.6681 799.2251 483.4132C 799.0889 483.1583 798.9006 482.9759 798.6604 482.8661C 798.4202 482.7562 798.0715 482.7013 797.6145 482.7013L797.6145 482.7013L794.657 482.7013L794.657 482.7013L794.657 483.4923L794.657 483.4923L797.6145 483.4923C 798.4055 483.4923 798.7483 483.8497 798.7483 484.4767C 798.7483 484.711 798.6875 484.9315 798.5659 485.138C 798.4443 485.3446 798.2795 485.4918 798.0715 485.5797C 797.8635 485.6676 797.5764 485.7115 797.2102 485.7115L797.2102 485.7115L794.657 485.7115z" stroke="none" fill="#353332" fill-rule="evenodd" /><path id="734" transform="matrix(1 0 0 -1 0 612)" d="M796.1599 478.3037L796.0588 477.4863C 795.1038 477.7441 794.5515 478.4546 794.5515 479.5386C 794.5515 480.9038 795.4333 481.7622 796.9509 481.7622C 798.5212 481.7622 799.4294 480.8716 799.4294 479.5825C 799.4294 478.3345 798.5403 477.46 796.9993 477.46C 796.9524 477.46 796.8821 477.4614 796.7883 477.4644L796.7883 477.4644L796.7883 480.9448C 795.7629 480.8862 795.2019 480.3135 795.2019 479.5342C 795.2019 478.9541 795.4919 478.5439 796.1599 478.3037zM797.4387 480.9009L797.4387 478.2949C 797.8313 478.3301 798.1257 478.4297 798.322 478.5938C 798.6267 478.8457 798.7791 479.1724 798.7791 479.5737C 798.7791 480.3003 798.2532 480.8481 797.4387 480.9009z" stroke="none" fill="#353332" fill-rule="evenodd" /><path id="736" transform="matrix(1 0 0 -1 0 612)" d="M794.657 472.7664L801.0994 474.4759L801.0994 474.4759L801.0994 473.6014L801.0994 473.6014L796.8762 472.6214C 796.4338 472.516 795.9944 472.4251 795.5579 472.349C 796.2463 472.1849 796.6433 472.0882 796.7488 472.0589L796.7488 472.0589L801.0994 470.8329L801.0994 470.8329L801.0994 469.8045L801.0994 469.8045L797.8386 468.8817C 797.03 468.6502 796.2698 468.4832 795.5579 468.3807C 795.9651 468.2987 796.4324 468.1917 796.9597 468.0599L796.9597 468.0599L801.0994 467.0492L801.0994 467.0492L801.0994 466.1922L801.0994 466.1922L794.657 467.9588L794.657 467.9588L794.657 468.7806L794.657 468.7806L799.5657 470.1385C 799.9758 470.2528 800.2278 470.3202 800.3215 470.3407C 800.0256 470.4081 799.7737 470.471 799.5657 470.5296L799.5657 470.5296L794.657 471.8963z" stroke="none" fill="#353332" fill-rule="evenodd" /><path id="737" transform="matrix(1 0 0 -1 0 612)" d="M796.9905 465.953C 797.8547 465.953 798.4949 465.7127 798.9109 465.2323C 799.2566 464.8309 799.4294 464.3416 799.4294 463.7645C 799.4294 462.4813 798.5388 461.5804 797.0564 461.5804C 796.4558 461.5804 795.9834 461.6705 795.6392 461.8507C 795.2949 462.0309 795.0276 462.2931 794.8372 462.6373C 794.6467 462.9815 794.5515 463.3573 794.5515 463.7645C 794.5515 465.0711 795.4143 465.953 796.9905 465.953zM796.9905 465.14C 795.7952 465.14 795.2019 464.5555 795.2019 463.7645C 795.2019 462.9793 795.7922 462.3934 797.0168 462.3934C 798.1711 462.3934 798.7747 462.9852 798.7747 463.7645C 798.7747 464.5555 798.1858 465.14 796.9905 465.14z" stroke="none" fill="#353332" fill-rule="evenodd" /><path id="738" transform="matrix(1 0 0 -1 0 612)" d="M794.657 460.6545L799.324 460.6545L799.324 460.6545L799.324 459.9426L799.324 459.9426L798.6604 459.9426C 799.1731 459.5999 799.4294 459.1047 799.4294 458.4573C 799.4294 458.176 799.3789 457.9175 799.2778 457.6816C 799.1768 457.4458 799.0442 457.2693 798.8801 457.1521C 798.7161 457.0349 798.5212 456.9529 798.2957 456.906C 798.1492 456.8767 797.8928 456.8621 797.5266 456.8621L797.5266 456.8621L794.657 456.8621L794.657 456.8621L794.657 457.6531L794.657 457.6531L797.4958 457.6531C 797.8181 457.6531 798.0591 457.6838 798.2188 457.7454C 798.3784 457.8069 798.5059 457.916 798.6011 458.0728C 798.6963 458.2295 798.7439 458.4133 798.7439 458.6243C 798.7439 459.2981 798.4011 459.8635 797.2058 459.8635L797.2058 459.8635L794.657 459.8635z" stroke="none" fill="#353332" fill-rule="evenodd" /><path id="739" transform="matrix(1 0 0 -1 0 612)" d="M794.657 452.6227L795.2458 452.6227C 794.783 452.9186 794.5515 453.3537 794.5515 453.9279C 794.5515 454.3 794.6541 454.642 794.8591 454.954C 795.0642 455.266 795.3506 455.5077 795.7183 455.6791C 796.0859 455.8505 796.5085 455.9362 796.9861 455.9362C 797.4519 455.9362 797.8745 455.8586 798.2539 455.7033C 798.6333 455.548 798.9241 455.3151 799.1262 455.0045C 799.3284 454.694 799.4294 454.3468 799.4294 453.963C 799.4294 453.4005 799.1687 452.9508 798.7878 452.6754L798.7878 452.6754L801.0994 452.6754L801.0994 452.6754L801.0994 451.8888L801.0994 451.8888L794.657 451.8888zM796.9861 455.1232C 795.7908 455.1232 795.2019 454.5387 795.2019 453.8532C 795.2019 453.1618 795.76 452.6095 796.9202 452.6095C 798.1975 452.6095 798.7747 453.1676 798.7747 453.8883C 798.7747 454.5915 798.2224 455.1232 796.9861 455.1232z" stroke="none" fill="#353332" fill-rule="evenodd" /><path id="740" transform="matrix(1 0 0 -1 0 612)" d="M796.1599 447.4517L796.0588 446.6343C 795.1038 446.8922 794.5515 447.6026 794.5515 448.6866C 794.5515 450.0518 795.4333 450.9102 796.9509 450.9102C 798.5212 450.9102 799.4294 450.0196 799.4294 448.7305C 799.4294 447.4825 798.5403 446.608 796.9993 446.608C 796.9524 446.608 796.8821 446.6094 796.7883 446.6124L796.7883 446.6124L796.7883 450.0928C 795.7629 450.0342 795.2019 449.4615 795.2019 448.6822C 795.2019 448.1021 795.4919 447.692 796.1599 447.4517zM797.4387 450.0489L797.4387 447.4429C 797.8313 447.4781 798.1257 447.5777 798.322 447.7418C 798.6267 447.9937 798.7791 448.3204 798.7791 448.7217C 798.7791 449.4483 798.2532 449.9962 797.4387 450.0489z" stroke="none" fill="#353332" fill-rule="evenodd" /><path id="741" transform="matrix(1 0 0 -1 0 612)" d="M794.657 445.6513L799.324 445.6513L799.324 445.6513L799.324 444.9394L799.324 444.9394L798.6165 444.9394C 799.2786 444.5761 799.4294 444.2978 799.4294 443.9287C 799.4294 443.6621 799.3445 443.3911 799.1746 443.1157L799.1746 443.1157L798.4407 443.3882C 798.5549 443.5815 798.6121 443.7749 798.6121 443.9682C 798.6121 444.3139 798.3923 444.6113 798.0232 444.7285C 797.7419 444.8164 797.4343 444.8603 797.1003 444.8603L797.1003 444.8603L794.657 444.8603z" stroke="none" fill="#353332" fill-rule="evenodd" /><path id="743" transform="matrix(1 0 0 -1 0 612)" d="M797.7947 440.3018C 799.9333 440.3018 801.2136 439.0332 801.2136 437.2168C 801.2136 436.622 801.0715 436.0859 800.7874 435.6084C 800.5032 435.1309 800.1069 434.7668 799.5986 434.5164C 799.0903 434.2659 798.5139 434.1406 797.8694 434.1406C 797.2161 434.1406 796.6316 434.2725 796.116 434.5361C 795.6003 434.7998 795.21 435.1733 794.9448 435.6567C 794.6797 436.1401 794.5471 436.6616 794.5471 437.2212C 794.5471 437.8276 794.6936 438.3696 794.9866 438.8472C 795.2795 439.3247 795.6794 439.6865 796.1863 439.9326C 796.6931 440.1787 797.2292 440.3018 797.7947 440.3018zM797.7815 439.4229C 796.2288 439.4229 795.2766 438.4853 795.2766 437.2256C 795.2766 435.9424 796.2156 435.0195 797.8738 435.0195C 798.3982 435.0195 798.856 435.1081 799.2471 435.2854C 799.6382 435.4626 799.9414 435.7219 800.1567 436.0632C 800.3721 436.4045 800.4797 436.7876 800.4797 437.2124C 800.4797 438.4194 799.7209 439.4229 797.7815 439.4229z" stroke="none" fill="#353332" fill-rule="evenodd" /><path id="744" transform="matrix(1 0 0 -1 0 612)" d="M794.657 433.1415L799.324 433.1415L799.324 433.1415L799.324 432.4296L799.324 432.4296L798.6604 432.4296C 799.1731 432.0869 799.4294 431.5917 799.4294 430.9443C 799.4294 430.663 799.3789 430.4045 799.2778 430.1686C 799.1768 429.9328 799.0442 429.7563 798.8801 429.6391C 798.7161 429.5219 798.5212 429.4399 798.2957 429.393C 798.1492 429.3637 797.8928 429.3491 797.5266 429.3491L797.5266 429.3491L794.657 429.3491L794.657 429.3491L794.657 430.1401L794.657 430.1401L797.4958 430.1401C 797.8181 430.1401 798.0591 430.1708 798.2188 430.2324C 798.3784 430.2939 798.5059 430.403 798.6011 430.5598C 798.6963 430.7165 798.7439 430.9003 798.7439 431.1113C 798.7439 431.7851 798.4011 432.3505 797.2058 432.3505L797.2058 432.3505L794.657 432.3505z" stroke="none" fill="#353332" fill-rule="evenodd" /><path id="745" transform="matrix(1 0 0 -1 0 612)" d="M796.1599 424.9427L796.0588 424.1253C 795.1038 424.3831 794.5515 425.0936 794.5515 426.1776C 794.5515 427.5428 795.4333 428.4012 796.9509 428.4012C 798.5212 428.4012 799.4294 427.5106 799.4294 426.2215C 799.4294 424.9735 798.5403 424.099 796.9993 424.099C 796.9524 424.099 796.8821 424.1004 796.7883 424.1034L796.7883 424.1034L796.7883 427.5838C 795.7629 427.5252 795.2019 426.9525 795.2019 426.1732C 795.2019 425.5931 795.4919 425.183 796.1599 424.9427zM797.4387 427.5399L797.4387 424.9339C 797.8313 424.9691 798.1257 425.0687 798.322 425.2328C 798.6267 425.4847 798.7791 425.8114 798.7791 426.2127C 798.7791 426.9393 798.2532 427.4872 797.4387 427.5399z" stroke="none" fill="#353332" fill-rule="evenodd" /><path id="746" transform="matrix(1 0 0 -1 0 612)" d="M796.05 423.45L796.1731 422.6677C 795.5461 422.5798 795.2019 422.1799 795.2019 421.4592C 795.2019 420.7327 795.5461 420.387 795.9446 420.387C 796.1233 420.387 796.2639 420.4646 796.3665 420.6199C 796.4368 420.7283 796.5261 420.9978 796.6345 421.4285C 796.781 422.0085 796.9077 422.4106 797.0146 422.6348C 797.1216 422.8589 797.2695 423.0288 797.4585 423.1445C 797.6475 423.2603 797.8562 423.3181 798.0847 423.3181C 798.5007 423.3181 798.8699 423.1145 799.1042 422.7864C 799.2859 422.5403 799.4294 422.0862 799.4294 421.5999C 799.4294 421.2336 799.3767 420.9121 799.2712 420.6353C 799.1658 420.3584 799.0229 420.1541 798.8428 420.0222C 798.6626 419.8904 798.4216 419.7996 798.1199 419.7498L798.1199 419.7498L798.0144 420.5232C 798.4949 420.5935 798.7791 420.9275 798.7791 421.5427C 798.7791 422.2693 798.4993 422.5535 798.177 422.5535C 798.0745 422.5535 797.9822 422.5212 797.9001 422.4568C 797.8152 422.3923 797.7449 422.2913 797.6892 422.1536C 797.6599 422.0745 797.5925 421.8416 797.4871 421.4548C 797.3376 420.8953 797.2153 420.5049 797.1201 420.2837C 797.0249 420.0625 796.8865 419.8889 796.7048 419.7629C 796.5232 419.637 796.2976 419.574 796.0281 419.574C 795.7644 419.574 795.5161 419.6509 795.2832 419.8047C 795.0503 419.9585 794.8701 420.1804 794.7427 420.4705C 794.6152 420.7605 794.5515 421.0886 794.5515 421.4548C 794.5515 422.6677 795.0598 423.2742 796.05 423.45z" stroke="none" fill="#353332" fill-rule="evenodd" /><g clip-path="url(#4)"><g transform="matrix(0.239727 0 0 0.2395685 657.5013 284.5984)"><g transform="matrix(1 0 0 1 0 0)"><image x="0" y="0" xlink:href="img_12.png" width="509" height="381" /></g></g></g><g clip-path="url(#5)"><g transform="matrix(0.2399593 0 0 0.2399171 538.025 391.2296)"><g transform="matrix(1 0 0 1 0 0)"><image x="0" y="0" xlink:href="img_13.png" width="995" height="629" /></g></g></g></g></g></svg>