<svg xmlns="http://www.w3.org/2000/svg" xmlns:xlink="http://www.w3.org/1999/xlink" id="body_4" preserveAspectRatio="xMinYMin meet" viewBox="0 0 1144 816"><defs><clipPath id="1"><path id="" clip-rule="evenodd" transform="matrix(1 0 0 1 0 0)" d="M0 612L0 -0.28302L0 -0.28302L858.898 -0.28302L858.898 -0.28302L858.898 612L858.898 612L0 612z" /></clipPath><clipPath id="2"><path id="" clip-rule="evenodd" transform="matrix(1 0 0 1 0 0)" d="M0 -0.28302L858.898 -0.28302L858.898 -0.28302L858.898 612L858.898 612L0 612z" /></clipPath><clipPath id="3"><path id="" clip-rule="evenodd" transform="matrix(1 0 0 1 0 0)" d="M56.693 550.562L788.976 550.562L788.976 550.562L788.976 61.22797L788.976 61.22797L56.693 61.22797z" /></clipPath></defs><g transform="matrix(1.333333 0 0 1.333333 0 0)"><g clip-path="url(#1)"><g clip-path="url(#2)"><path id="1" transform="matrix(1 0 0 -1 0 612)" d="M65.2581 139.6838L58.0999 139.6838L58.0999 139.6838L58.0999 142.8577C 58.0999 143.4957 58.16419 143.9807 58.29277 144.3127C 58.42135 144.6448 58.6484 144.9101 58.97392 145.1086C 59.29944 145.3072 59.65915 145.4065 60.05302 145.4065C 61.06865 145.4065 61.81247 144.7636 62.00127 143.3899C 62.12171 143.6405 62.24052 143.831 62.35771 143.9612C 62.61162 144.2379 62.929 144.4999 63.30986 144.7473L63.30986 144.7473L65.2581 145.9924L65.2581 145.9924L65.2581 144.801L65.2581 144.801L63.76884 143.8538C 63.33916 143.5771 63.01038 143.3492 62.78252 143.1702C 62.55465 142.9911 62.39515 142.8308 62.304 142.6892C 62.21286 142.5476 62.14938 142.4036 62.11357 142.2571C 62.09079 142.1497 62.07939 141.9739 62.07939 141.7297L62.07939 141.7297L62.07939 140.6311L62.07939 140.6311L65.2581 140.6311zM61.25908 140.6311L61.25908 142.6672C 61.25908 143.1002 61.21432 143.4387 61.1248 143.6829C 61.03528 143.927 60.89206 144.1125 60.69511 144.2395C 60.49817 144.3665 60.28415 144.4299 60.05302 144.4299C 59.37594 144.4299 58.89091 143.9579 58.89091 142.8967L58.89091 142.8967L58.89091 140.6311z" stroke="none" fill="#353231" fill-rule="evenodd" /><path id="2" transform="matrix(1 0 0 -1 0 612)" d="M65.2581 150.1753L64.49638 150.1753C 65.08232 149.7717 65.37529 149.2232 65.37529 148.5298C 65.37529 148.2238 65.3167 147.9382 65.19951 147.6729C 65.08232 147.4076 64.93502 147.2106 64.75761 147.0821C 64.58021 146.9535 64.36292 146.8631 64.10576 146.8111C 63.93323 146.7753 63.65979 146.7574 63.28545 146.7574L63.28545 146.7574L60.07256 146.7574L60.07256 146.7574L60.07256 147.6363L60.07256 147.6363L62.94853 147.6363C 63.40752 147.6363 63.71676 147.6542 63.87627 147.69C 64.33851 147.8006 64.61845 148.1783 64.61845 148.7056C 64.61845 148.9693 64.55091 149.2167 64.41582 149.4478C 64.28072 149.6789 64.09681 149.8425 63.86406 149.9385C 63.63131 150.0345 63.29358 150.0826 62.85088 150.0826L62.85088 150.0826L60.07256 150.0826L60.07256 150.0826L60.07256 150.9615L60.07256 150.9615L65.2581 150.9615z" stroke="none" fill="#353231" fill-rule="evenodd" /><path id="3" transform="matrix(1 0 0 -1 0 612)" d="M62.66533 152.0097C 61.70504 152.0097 60.99378 152.2767 60.53154 152.8105C 60.14743 153.2565 59.95537 153.8001 59.95537 154.4414C 59.95537 155.8672 60.94495 156.8681 62.59209 156.8681C 63.2594 156.8681 63.78431 156.768 64.16679 156.5678C 64.54928 156.3676 64.84632 156.0763 65.05791 155.6938C 65.26949 155.3113 65.37529 154.8938 65.37529 154.4414C 65.37529 152.9895 64.41663 152.0097 62.66533 152.0097zM62.66533 152.9131C 63.99345 152.9131 64.65263 153.5625 64.65263 154.4414C 64.65263 155.3138 63.99671 155.9648 62.63603 155.9648C 61.35348 155.9648 60.68291 155.3073 60.68291 154.4414C 60.68291 153.5625 61.3372 152.9131 62.66533 152.9131z" stroke="none" fill="#353231" fill-rule="evenodd" /><path id="4" transform="matrix(1 0 0 -1 0 612)" d="M63.35869 161.2807L63.47099 162.1449C 64.6624 161.9561 65.37529 161.1195 65.37529 159.9867C 65.37529 158.5675 64.41663 157.6283 62.68486 157.6283C 62.12497 157.6283 61.63506 157.7211 61.21513 157.9066C 60.79521 158.0922 60.48027 158.3746 60.27031 158.7538C 60.06035 159.1331 59.95537 159.5457 59.95537 159.9916C 59.95537 161.1179 60.54782 161.8601 61.59599 162.0619L61.59599 162.0619L61.72783 161.2074C 61.03122 161.0447 60.67802 160.6117 60.67802 160.0258C 60.67802 159.1404 61.28675 158.5316 62.66045 158.5316C 64.05367 158.5316 64.65263 159.1176 64.65263 159.977C 64.65263 160.6671 64.23759 161.157 63.35869 161.2807z" stroke="none" fill="#353231" fill-rule="evenodd" /><path id="5" transform="matrix(1 0 0 -1 0 612)" d="M65.2581 162.8969L58.0999 162.8969L58.0999 162.8969L58.0999 163.7758L58.0999 163.7758L60.66826 163.7758C 60.193 164.1859 59.95537 164.7035 59.95537 165.3285C 59.95537 165.7126 60.03105 166.0463 60.18242 166.3295C 60.33379 166.6127 60.54293 166.8153 60.80986 166.9374C 61.07679 167.0595 61.46416 167.1205 61.97197 167.1205L61.97197 167.1205L65.2581 167.1205L65.2581 167.1205L65.2581 166.2416L65.2581 166.2416L61.97197 166.2416C 61.09306 166.2416 60.7122 165.8445 60.7122 165.1479C 60.7122 164.8875 60.77975 164.6425 60.91484 164.413C 61.04993 164.1835 61.23304 164.0199 61.46416 163.9223C 61.69528 163.8246 62.01429 163.7758 62.42119 163.7758L62.42119 163.7758L65.2581 163.7758z" stroke="none" fill="#353231" fill-rule="evenodd" /><path id="6" transform="matrix(1 0 0 -1 0 612)" d="M62.66533 168.1297C 61.70504 168.1297 60.99378 168.3967 60.53154 168.9305C 60.14743 169.3765 59.95537 169.9201 59.95537 170.5614C 59.95537 171.9872 60.94495 172.9881 62.59209 172.9881C 63.2594 172.9881 63.78431 172.888 64.16679 172.6878C 64.54928 172.4876 64.84632 172.1963 65.05791 171.8138C 65.26949 171.4313 65.37529 171.0139 65.37529 170.5614C 65.37529 169.1096 64.41663 168.1297 62.66533 168.1297zM62.66533 169.0331C 63.99345 169.0331 64.65263 169.6825 64.65263 170.5614C 64.65263 171.4338 63.99671 172.0848 62.63603 172.0848C 61.35348 172.0848 60.68291 171.4273 60.68291 170.5614C 60.68291 169.6825 61.3372 169.0331 62.66533 169.0331z" stroke="none" fill="#353231" fill-rule="evenodd" /><path id="7" transform="matrix(1 0 0 -1 0 612)" d="M65.2581 174.0169L60.07256 174.0169L60.07256 174.0169L60.07256 174.8079L60.07256 174.8079L60.80986 174.8079C 60.2402 175.1888 59.95537 175.7389 59.95537 176.4583C 59.95537 176.7708 60.01152 177.0581 60.12383 177.3201C 60.23613 177.5822 60.38343 177.7783 60.56572 177.9085C 60.74801 178.0387 60.96448 178.1298 61.21513 178.1819C 61.3779 178.2145 61.66272 178.2307 62.06963 178.2307L62.06963 178.2307L65.2581 178.2307L65.2581 178.2307L65.2581 177.3518L65.2581 177.3518L62.10381 177.3518C 61.74573 177.3518 61.47799 177.3177 61.30058 177.2493C 61.12317 177.1809 60.98157 177.0597 60.87578 176.8855C 60.76999 176.7114 60.71709 176.5071 60.71709 176.2727C 60.71709 175.524 61.09795 174.8958 62.42607 174.8958L62.42607 174.8958L65.2581 174.8958z" stroke="none" fill="#353231" fill-rule="evenodd" /><path id="8" transform="matrix(1 0 0 -1 0 612)" d="M65.68779 179.4157L65.81474 180.2702C 66.07841 180.306 66.27047 180.4053 66.39091 180.5681C 66.55367 180.7862 66.63506 181.084 66.63506 181.4616C 66.63506 182.2755 66.29326 182.697 65.70732 182.8532C 65.52828 182.8988 65.15231 182.92 64.57939 182.9167C 65.03187 182.5326 65.2581 182.0541 65.2581 181.4812C 65.2581 180.0554 64.07484 179.24 62.63603 179.24C 62.14124 179.24 61.6847 179.3295 61.2664 179.5085C 60.84811 179.6876 60.52503 179.9472 60.29716 180.2873C 60.0693 180.6275 59.95537 181.0271 59.95537 181.4861C 59.95537 182.098 60.20276 182.6026 60.69756 182.9997L60.69756 182.9997L60.07256 182.9997L60.07256 182.9997L60.07256 183.8103L60.07256 183.8103L64.55498 183.8103C 65.36227 183.8103 65.93437 183.7281 66.27129 183.5637C 66.6082 183.3993 66.87431 183.1389 67.06963 182.7824C 67.26494 182.426 67.36259 181.9874 67.36259 181.4665C 67.36259 180.2296 66.80758 179.3897 65.68779 179.4157zM62.57256 180.1433C 63.93323 180.1433 64.53056 180.7504 64.53056 181.5642C 64.53056 182.3715 63.92998 182.99 62.60185 182.99C 61.33232 182.99 60.68291 182.3438 60.68291 181.5495C 60.68291 180.7683 61.32256 180.1433 62.57256 180.1433z" stroke="none" fill="#353231" fill-rule="evenodd" /></g><path id="9" transform="matrix(1 0 0 -1 0 612)" d="M56.693 61.228L788.976 61.228L788.976 550.771L56.693 550.771z" stroke="none" fill="#E5E6E6" fill-rule="nonzero" /><g clip-path="url(#3)"><g transform="matrix(0.2611567 0 0 0.2611567 56.6929 61.15442)"><g transform="matrix(1 0 0 1 0 0)"><image x="0" y="0" xlink:href="img_06.png" width="2804" height="1874" /></g></g></g><path id="11" transform="matrix(1 0 0 -1 0 612)" d="M794.3072 452.237L799.9893 452.237L799.9893 452.237L799.9893 454.3596L799.9893 454.3596L800.7496 454.3596L800.7496 454.3596L800.7496 449.2531L800.7496 449.2531L799.9893 449.2531L799.9893 449.2531L799.9893 451.3845L799.9893 451.3845L794.3072 451.3845z" stroke="none" fill="#353332" fill-rule="evenodd" /><path id="12" transform="matrix(1 0 0 -1 0 612)" d="M794.3072 448.4782L800.7496 448.4782L800.7496 448.4782L800.7496 447.6872L800.7496 447.6872L798.438 447.6872C 798.8658 447.3181 799.0797 446.8523 799.0797 446.2898C 799.0797 445.9441 799.0115 445.6438 798.8753 445.3889C 798.7391 445.134 798.5508 444.9516 798.3106 444.8418C 798.0704 444.7319 797.7217 444.677 797.2647 444.677L797.2647 444.677L794.3072 444.677L794.3072 444.677L794.3072 445.468L794.3072 445.468L797.2647 445.468C 798.0557 445.468 798.3985 445.8254 798.3985 446.4524C 798.3985 446.6867 798.3377 446.9072 798.2161 447.1137C 798.0945 447.3203 797.9297 447.4675 797.7217 447.5554C 797.5137 447.6433 797.2266 447.6872 796.8604 447.6872L796.8604 447.6872L794.3072 447.6872z" stroke="none" fill="#353332" fill-rule="evenodd" /><path id="13" transform="matrix(1 0 0 -1 0 612)" d="M795.8101 440.2794L795.709 439.462C 794.754 439.7198 794.2017 440.4303 794.2017 441.5143C 794.2017 442.8795 795.0836 443.7379 796.6011 443.7379C 798.1714 443.7379 799.0797 442.8473 799.0797 441.5582C 799.0797 440.3102 798.1905 439.4357 796.6495 439.4357C 796.6026 439.4357 796.5323 439.4371 796.4385 439.4401L796.4385 439.4401L796.4385 442.9205C 795.4131 442.8619 794.8521 442.2892 794.8521 441.5099C 794.8521 440.9298 795.1422 440.5197 795.8101 440.2794zM797.0889 442.8766L797.0889 440.2706C 797.4815 440.3058 797.7759 440.4054 797.9722 440.5695C 798.2769 440.8214 798.4293 441.1481 798.4293 441.5494C 798.4293 442.276 797.9034 442.8239 797.0889 442.8766z" stroke="none" fill="#353332" fill-rule="evenodd" /><path id="15" transform="matrix(1 0 0 -1 0 612)" d="M794.3072 434.7422L800.7496 436.4516L800.7496 436.4516L800.7496 435.5771L800.7496 435.5771L796.5264 434.5971C 796.084 434.4917 795.6446 434.4008 795.2081 434.3247C 795.8965 434.1606 796.2935 434.0639 796.399 434.0346L796.399 434.0346L800.7496 432.8086L800.7496 432.8086L800.7496 431.7802L800.7496 431.7802L797.4888 430.8574C 796.6802 430.6259 795.92 430.459 795.2081 430.3564C 795.6153 430.2744 796.0826 430.1674 796.6099 430.0356L796.6099 430.0356L800.7496 429.0249L800.7496 429.0249L800.7496 428.1679L800.7496 428.1679L794.3072 429.9345L794.3072 429.9345L794.3072 430.7563L794.3072 430.7563L799.2159 432.1142C 799.626 432.2285 799.878 432.2959 799.9717 432.3164C 799.6758 432.3838 799.4239 432.4467 799.2159 432.5053L799.2159 432.5053L794.3072 433.872z" stroke="none" fill="#353332" fill-rule="evenodd" /><path id="16" transform="matrix(1 0 0 -1 0 612)" d="M796.6407 427.9287C 797.5049 427.9287 798.1451 427.6884 798.5611 427.208C 798.9068 426.8066 799.0797 426.3174 799.0797 425.7402C 799.0797 424.457 798.189 423.5561 796.7066 423.5561C 796.106 423.5561 795.6336 423.6462 795.2894 423.8264C 794.9451 424.0066 794.6778 424.2688 794.4874 424.613C 794.2969 424.9572 794.2017 425.333 794.2017 425.7402C 794.2017 427.0468 795.0645 427.9287 796.6407 427.9287zM796.6407 427.1157C 795.4454 427.1157 794.8521 426.5312 794.8521 425.7402C 794.8521 424.955 795.4424 424.3691 796.6671 424.3691C 797.8214 424.3691 798.4249 424.9609 798.4249 425.7402C 798.4249 426.5312 797.836 427.1157 796.6407 427.1157z" stroke="none" fill="#353332" fill-rule="evenodd" /><path id="17" transform="matrix(1 0 0 -1 0 612)" d="M794.3072 422.6302L798.9742 422.6302L798.9742 422.6302L798.9742 421.9183L798.9742 421.9183L798.3106 421.9183C 798.8233 421.5756 799.0797 421.0804 799.0797 420.433C 799.0797 420.1517 799.0291 419.8932 798.928 419.6573C 798.827 419.4215 798.6944 419.245 798.5303 419.1278C 798.3663 419.0106 798.1714 418.9286 797.9459 418.8817C 797.7994 418.8524 797.543 418.8378 797.1768 418.8378L797.1768 418.8378L794.3072 418.8378L794.3072 418.8378L794.3072 419.6288L794.3072 419.6288L797.1461 419.6288C 797.4683 419.6288 797.7093 419.6595 797.869 419.7211C 798.0286 419.7826 798.1561 419.8917 798.2513 420.0485C 798.3465 420.2052 798.3941 420.389 798.3941 420.6C 798.3941 421.2738 798.0513 421.8392 796.856 421.8392L796.856 421.8392L794.3072 421.8392z" stroke="none" fill="#353332" fill-rule="evenodd" /><path id="18" transform="matrix(1 0 0 -1 0 612)" d="M794.3072 414.5984L794.8961 414.5984C 794.4332 414.8943 794.2017 415.3294 794.2017 415.9036C 794.2017 416.2757 794.3043 416.6177 794.5093 416.9297C 794.7144 417.2417 795.0008 417.4834 795.3685 417.6548C 795.7361 417.8262 796.1588 417.9119 796.6363 417.9119C 797.1021 417.9119 797.5247 417.8343 797.9041 417.679C 798.2835 417.5237 798.5743 417.2908 798.7764 416.9803C 798.9786 416.6697 799.0797 416.3225 799.0797 415.9388C 799.0797 415.3763 798.8189 414.9265 798.438 414.6512L798.438 414.6512L800.7496 414.6512L800.7496 414.6512L800.7496 413.8645L800.7496 413.8645L794.3072 413.8645zM796.6363 417.0989C 795.441 417.0989 794.8521 416.5144 794.8521 415.8289C 794.8521 415.1375 795.4102 414.5852 796.5704 414.5852C 797.8477 414.5852 798.4249 415.1433 798.4249 415.864C 798.4249 416.5672 797.8726 417.0989 796.6363 417.0989z" stroke="none" fill="#353332" fill-rule="evenodd" /><path id="19" transform="matrix(1 0 0 -1 0 612)" d="M795.8101 409.4274L795.709 408.61C 794.754 408.8679 794.2017 409.5783 794.2017 410.6623C 794.2017 412.0275 795.0836 412.8859 796.6011 412.8859C 798.1714 412.8859 799.0797 411.9953 799.0797 410.7062C 799.0797 409.4582 798.1905 408.5837 796.6495 408.5837C 796.6026 408.5837 796.5323 408.5851 796.4385 408.5881L796.4385 408.5881L796.4385 412.0685C 795.4131 412.0099 794.8521 411.4372 794.8521 410.6579C 794.8521 410.0778 795.1422 409.6677 795.8101 409.4274zM797.0889 412.0246L797.0889 409.4186C 797.4815 409.4538 797.7759 409.5534 797.9722 409.7175C 798.2769 409.9694 798.4293 410.2961 798.4293 410.6974C 798.4293 411.424 797.9034 411.9719 797.0889 412.0246z" stroke="none" fill="#353332" fill-rule="evenodd" /><path id="20" transform="matrix(1 0 0 -1 0 612)" d="M794.3072 407.627L798.9742 407.627L798.9742 407.627L798.9742 406.9151L798.9742 406.9151L798.2667 406.9151C 798.9288 406.5518 799.0797 406.2735 799.0797 405.9044C 799.0797 405.6378 798.9947 405.3668 798.8248 405.0914L798.8248 405.0914L798.0909 405.3639C 798.2051 405.5572 798.2623 405.7506 798.2623 405.9439C 798.2623 406.2896 798.0425 406.587 797.6734 406.7042C 797.3922 406.7921 797.0845 406.836 796.7505 406.836L796.7505 406.836L794.3072 406.836z" stroke="none" fill="#353332" fill-rule="evenodd" /><path id="22" transform="matrix(1 0 0 -1 0 612)" d="M797.4449 402.2775C 799.5836 402.2775 800.8638 401.0089 800.8638 399.1925C 800.8638 398.5977 800.7217 398.0616 800.4376 397.5841C 800.1534 397.1066 799.7571 396.7426 799.2488 396.4921C 798.7405 396.2416 798.1641 396.1163 797.5196 396.1163C 796.8663 396.1163 796.2818 396.2482 795.7662 396.5118C 795.2505 396.7755 794.8602 397.149 794.595 397.6324C 794.3299 398.1158 794.1973 398.6373 794.1973 399.1969C 794.1973 399.8033 794.3438 400.3453 794.6368 400.8229C 794.9297 401.3004 795.3297 401.6622 795.8365 401.9083C 796.3433 402.1544 796.8795 402.2775 797.4449 402.2775zM797.4317 401.3986C 795.879 401.3986 794.9268 400.461 794.9268 399.2013C 794.9268 397.9181 795.8658 396.9952 797.524 396.9952C 798.0484 396.9952 798.5062 397.0838 798.8973 397.2611C 799.2884 397.4384 799.5916 397.6976 799.8069 398.0389C 800.0223 398.3802 800.1299 398.7633 800.1299 399.1881C 800.1299 400.3951 799.3712 401.3986 797.4317 401.3986z" stroke="none" fill="#353332" fill-rule="evenodd" /><path id="23" transform="matrix(1 0 0 -1 0 612)" d="M794.3072 395.1172L798.9742 395.1172L798.9742 395.1172L798.9742 394.4053L798.9742 394.4053L798.3106 394.4053C 798.8233 394.0626 799.0797 393.5674 799.0797 392.92C 799.0797 392.6387 799.0291 392.3802 798.928 392.1443C 798.827 391.9085 798.6944 391.732 798.5303 391.6148C 798.3663 391.4976 798.1714 391.4156 797.9459 391.3687C 797.7994 391.3394 797.543 391.3248 797.1768 391.3248L797.1768 391.3248L794.3072 391.3248L794.3072 391.3248L794.3072 392.1158L794.3072 392.1158L797.1461 392.1158C 797.4683 392.1158 797.7093 392.1465 797.869 392.2081C 798.0286 392.2696 798.1561 392.3787 798.2513 392.5355C 798.3465 392.6922 798.3941 392.876 798.3941 393.087C 798.3941 393.7608 798.0513 394.3262 796.856 394.3262L796.856 394.3262L794.3072 394.3262z" stroke="none" fill="#353332" fill-rule="evenodd" /><path id="24" transform="matrix(1 0 0 -1 0 612)" d="M795.8101 386.9184L795.709 386.101C 794.754 386.3589 794.2017 387.0693 794.2017 388.1533C 794.2017 389.5185 795.0836 390.3769 796.6011 390.3769C 798.1714 390.3769 799.0797 389.4863 799.0797 388.1972C 799.0797 386.9492 798.1905 386.0747 796.6495 386.0747C 796.6026 386.0747 796.5323 386.0761 796.4385 386.0791L796.4385 386.0791L796.4385 389.5595C 795.4131 389.5009 794.8521 388.9282 794.8521 388.1489C 794.8521 387.5688 795.1422 387.1587 795.8101 386.9184zM797.0889 389.5156L797.0889 386.9096C 797.4815 386.9448 797.7759 387.0444 797.9722 387.2085C 798.2769 387.4604 798.4293 387.7871 798.4293 388.1884C 798.4293 388.915 797.9034 389.4629 797.0889 389.5156z" stroke="none" fill="#353332" fill-rule="evenodd" /><path id="25" transform="matrix(1 0 0 -1 0 612)" d="M795.7003 385.4257L795.8233 384.6434C 795.1964 384.5555 794.8521 384.1556 794.8521 383.4349C 794.8521 382.7084 795.1964 382.3627 795.5948 382.3627C 795.7735 382.3627 795.9141 382.4403 796.0167 382.5956C 796.087 382.704 796.1763 382.9735 796.2847 383.4042C 796.4312 383.9843 796.5579 384.3864 796.6649 384.6105C 796.7718 384.8346 796.9197 385.0045 797.1087 385.1202C 797.2977 385.236 797.5064 385.2938 797.7349 385.2938C 798.1509 385.2938 798.5201 385.0902 798.7545 384.7621C 798.9361 384.516 799.0797 384.0619 799.0797 383.5756C 799.0797 383.2094 799.0269 382.8878 798.9214 382.611C 798.816 382.3341 798.6732 382.1298 798.493 381.9979C 798.3128 381.8661 798.0718 381.7753 797.7701 381.7255L797.7701 381.7255L797.6646 382.4989C 798.1451 382.5692 798.4293 382.9032 798.4293 383.5184C 798.4293 384.245 798.1495 384.5292 797.8272 384.5292C 797.7247 384.5292 797.6324 384.4969 797.5504 384.4325C 797.4654 384.368 797.3951 384.267 797.3394 384.1293C 797.3101 384.0502 797.2427 383.8173 797.1373 383.4305C 796.9879 382.871 796.8655 382.4806 796.7703 382.2594C 796.6751 382.0382 796.5367 381.8646 796.355 381.7386C 796.1734 381.6127 795.9478 381.5497 795.6783 381.5497C 795.4146 381.5497 795.1663 381.6266 794.9334 381.7804C 794.7005 381.9342 794.5203 382.1561 794.3929 382.4462C 794.2654 382.7362 794.2017 383.0643 794.2017 383.4305C 794.2017 384.6434 794.71 385.2499 795.7003 385.4257z" stroke="none" fill="#353332" fill-rule="evenodd" /></g></g></svg>