<svg xmlns="http://www.w3.org/2000/svg" xmlns:xlink="http://www.w3.org/1999/xlink" id="body_7" preserveAspectRatio="xMinYMin meet" viewBox="0 0 1144 816"><defs><clipPath id="1"><path id="" clip-rule="evenodd" transform="matrix(1 0 0 1 0 0)" d="M0 612L0 -0.28302L0 -0.28302L858.898 -0.28302L858.898 -0.28302L858.898 612L858.898 612L0 612z" /></clipPath><clipPath id="2"><path id="" clip-rule="evenodd" transform="matrix(1 0 0 1 0 0)" d="M0 -0.28302L858.898 -0.28302L858.898 -0.28302L858.898 612L858.898 612L0 612z" /></clipPath><clipPath id="3"><path id="" clip-rule="evenodd" transform="matrix(1 0 0 1 0 0)" d="M56.693 555.25L802.205 555.25L802.205 555.25L802.205 56.46704L802.205 56.46704L56.693 56.46704z" /></clipPath></defs><g transform="matrix(1.333333 0 0 1.333333 0 0)"><g clip-path="url(#1)"><g clip-path="url(#2)"><path id="1" transform="matrix(1 0 0 -1 0 612)" d="M65.2581 139.6837L58.0999 139.6837L58.0999 139.6837L58.0999 142.8576C 58.0999 143.4956 58.16419 143.9806 58.29277 144.3126C 58.42135 144.6447 58.6484 144.91 58.97392 145.1085C 59.29944 145.3071 59.65915 145.4064 60.05302 145.4064C 61.06865 145.4064 61.81247 144.7635 62.00127 143.3898C 62.12171 143.6404 62.24052 143.8309 62.35771 143.9611C 62.61162 144.2378 62.929 144.4998 63.30986 144.7472L63.30986 144.7472L65.2581 145.9923L65.2581 145.9923L65.2581 144.8009L65.2581 144.8009L63.76884 143.8537C 63.33916 143.577 63.01038 143.3491 62.78252 143.1701C 62.55465 142.991 62.39515 142.8307 62.304 142.6891C 62.21286 142.5475 62.14938 142.4035 62.11357 142.257C 62.09079 142.1496 62.07939 141.9738 62.07939 141.7296L62.07939 141.7296L62.07939 140.631L62.07939 140.631L65.2581 140.631zM61.25908 140.631L61.25908 142.6671C 61.25908 143.1001 61.21432 143.4386 61.1248 143.6828C 61.03528 143.9269 60.89206 144.1124 60.69511 144.2394C 60.49817 144.3663 60.28415 144.4298 60.05302 144.4298C 59.37594 144.4298 58.89091 143.9578 58.89091 142.8966L58.89091 142.8966L58.89091 140.631z" stroke="none" fill="#353231" fill-rule="evenodd" /><path id="2" transform="matrix(1 0 0 -1 0 612)" d="M65.2581 150.1752L64.49638 150.1752C 65.08232 149.7716 65.37529 149.2231 65.37529 148.5297C 65.37529 148.2237 65.3167 147.9381 65.19951 147.6728C 65.08232 147.4075 64.93502 147.2105 64.75761 147.082C 64.58021 146.9534 64.36292 146.863 64.10576 146.811C 63.93323 146.7751 63.65979 146.7572 63.28545 146.7572L63.28545 146.7572L60.07256 146.7572L60.07256 146.7572L60.07256 147.6362L60.07256 147.6362L62.94853 147.6362C 63.40752 147.6362 63.71676 147.6541 63.87627 147.6899C 64.33851 147.8005 64.61845 148.1781 64.61845 148.7055C 64.61845 148.9692 64.55091 149.2166 64.41582 149.4477C 64.28072 149.6788 64.09681 149.8424 63.86406 149.9384C 63.63131 150.0344 63.29358 150.0824 62.85088 150.0824L62.85088 150.0824L60.07256 150.0824L60.07256 150.0824L60.07256 150.9613L60.07256 150.9613L65.2581 150.9613z" stroke="none" fill="#353231" fill-rule="evenodd" /><path id="3" transform="matrix(1 0 0 -1 0 612)" d="M62.66533 152.0096C 61.70504 152.0096 60.99378 152.2766 60.53154 152.8104C 60.14743 153.2564 59.95537 153.8 59.95537 154.4413C 59.95537 155.8671 60.94495 156.868 62.59209 156.868C 63.2594 156.868 63.78431 156.7679 64.16679 156.5677C 64.54928 156.3675 64.84632 156.0762 65.05791 155.6937C 65.26949 155.3112 65.37529 154.8937 65.37529 154.4413C 65.37529 152.9894 64.41663 152.0096 62.66533 152.0096zM62.66533 152.9129C 63.99345 152.9129 64.65263 153.5624 64.65263 154.4413C 64.65263 155.3137 63.99671 155.9647 62.63603 155.9647C 61.35348 155.9647 60.68291 155.3072 60.68291 154.4413C 60.68291 153.5624 61.3372 152.9129 62.66533 152.9129z" stroke="none" fill="#353231" fill-rule="evenodd" /><path id="4" transform="matrix(1 0 0 -1 0 612)" d="M63.35869 161.2806L63.47099 162.1448C 64.6624 161.956 65.37529 161.1194 65.37529 159.9866C 65.37529 158.5674 64.41663 157.6282 62.68486 157.6282C 62.12497 157.6282 61.63506 157.721 61.21513 157.9065C 60.79521 158.0921 60.48027 158.3745 60.27031 158.7537C 60.06035 159.1329 59.95537 159.5455 59.95537 159.9915C 59.95537 161.1178 60.54782 161.86 61.59599 162.0618L61.59599 162.0618L61.72783 161.2073C 61.03122 161.0446 60.67802 160.6116 60.67802 160.0257C 60.67802 159.1403 61.28675 158.5315 62.66045 158.5315C 64.05367 158.5315 64.65263 159.1175 64.65263 159.9769C 64.65263 160.667 64.23759 161.1569 63.35869 161.2806z" stroke="none" fill="#353231" fill-rule="evenodd" /><path id="5" transform="matrix(1 0 0 -1 0 612)" d="M65.2581 162.8968L58.0999 162.8968L58.0999 162.8968L58.0999 163.7757L58.0999 163.7757L60.66826 163.7757C 60.193 164.1858 59.95537 164.7034 59.95537 165.3284C 59.95537 165.7125 60.03105 166.0462 60.18242 166.3294C 60.33379 166.6126 60.54293 166.8152 60.80986 166.9373C 61.07679 167.0594 61.46416 167.1204 61.97197 167.1204L61.97197 167.1204L65.2581 167.1204L65.2581 167.1204L65.2581 166.2415L65.2581 166.2415L61.97197 166.2415C 61.09306 166.2415 60.7122 165.8444 60.7122 165.1478C 60.7122 164.8873 60.77975 164.6424 60.91484 164.4129C 61.04993 164.1834 61.23304 164.0198 61.46416 163.9222C 61.69528 163.8245 62.01429 163.7757 62.42119 163.7757L62.42119 163.7757L65.2581 163.7757z" stroke="none" fill="#353231" fill-rule="evenodd" /><path id="6" transform="matrix(1 0 0 -1 0 612)" d="M62.66533 168.1296C 61.70504 168.1296 60.99378 168.3966 60.53154 168.9304C 60.14743 169.3764 59.95537 169.92 59.95537 170.5613C 59.95537 171.9871 60.94495 172.988 62.59209 172.988C 63.2594 172.988 63.78431 172.8879 64.16679 172.6877C 64.54928 172.4875 64.84632 172.1962 65.05791 171.8137C 65.26949 171.4312 65.37529 171.0137 65.37529 170.5613C 65.37529 169.1095 64.41663 168.1296 62.66533 168.1296zM62.66533 169.033C 63.99345 169.033 64.65263 169.6824 64.65263 170.5613C 64.65263 171.4337 63.99671 172.0847 62.63603 172.0847C 61.35348 172.0847 60.68291 171.4272 60.68291 170.5613C 60.68291 169.6824 61.3372 169.033 62.66533 169.033z" stroke="none" fill="#353231" fill-rule="evenodd" /><path id="7" transform="matrix(1 0 0 -1 0 612)" d="M65.2581 174.0168L60.07256 174.0168L60.07256 174.0168L60.07256 174.8078L60.07256 174.8078L60.80986 174.8078C 60.2402 175.1887 59.95537 175.7388 59.95537 176.4582C 59.95537 176.7707 60.01152 177.058 60.12383 177.32C 60.23613 177.582 60.38343 177.7782 60.56572 177.9084C 60.74801 178.0386 60.96448 178.1297 61.21513 178.1818C 61.3779 178.2144 61.66272 178.2307 62.06963 178.2307L62.06963 178.2307L65.2581 178.2307L65.2581 178.2307L65.2581 177.3517L65.2581 177.3517L62.10381 177.3517C 61.74573 177.3517 61.47799 177.3176 61.30058 177.2492C 61.12317 177.1808 60.98157 177.0596 60.87578 176.8854C 60.76999 176.7113 60.71709 176.507 60.71709 176.2726C 60.71709 175.5239 61.09795 174.8957 62.42607 174.8957L62.42607 174.8957L65.2581 174.8957z" stroke="none" fill="#353231" fill-rule="evenodd" /><path id="8" transform="matrix(1 0 0 -1 0 612)" d="M65.68779 179.4156L65.81474 180.2701C 66.07841 180.3059 66.27047 180.4052 66.39091 180.568C 66.55367 180.7861 66.63506 181.0839 66.63506 181.4615C 66.63506 182.2753 66.29326 182.6969 65.70732 182.8531C 65.52828 182.8987 65.15231 182.9199 64.57939 182.9166C 65.03187 182.5325 65.2581 182.054 65.2581 181.4811C 65.2581 180.0553 64.07484 179.2399 62.63603 179.2399C 62.14124 179.2399 61.6847 179.3294 61.2664 179.5084C 60.84811 179.6875 60.52503 179.9471 60.29716 180.2872C 60.0693 180.6274 59.95537 181.027 59.95537 181.486C 59.95537 182.0979 60.20276 182.6025 60.69756 182.9996L60.69756 182.9996L60.07256 182.9996L60.07256 182.9996L60.07256 183.8102L60.07256 183.8102L64.55498 183.8102C 65.36227 183.8102 65.93437 183.728 66.27129 183.5636C 66.6082 183.3992 66.87431 183.1388 67.06963 182.7823C 67.26494 182.4259 67.36259 181.9873 67.36259 181.4664C 67.36259 180.2294 66.80758 179.3896 65.68779 179.4156zM62.57256 180.1432C 63.93323 180.1432 64.53056 180.7503 64.53056 181.5641C 64.53056 182.3714 63.92998 182.9899 62.60185 182.9899C 61.33232 182.9899 60.68291 182.3437 60.68291 181.5494C 60.68291 180.7682 61.32256 180.1432 62.57256 180.1432z" stroke="none" fill="#353231" fill-rule="evenodd" /></g><path id="9" transform="matrix(1 0 0 -1 0 612)" d="M56.693 56.693L802.205 56.693L802.205 555.591L56.693 555.591z" stroke="none" fill="#E5E6E6" fill-rule="nonzero" /><g clip-path="url(#3)"><g transform="matrix(0.2661591 0 0 0.2661591 56.6929 56.46716)"><g transform="matrix(1 0 0 1 0 0)"><image x="0" y="0" xlink:href="img_15.png" width="2801" height="1874" /></g></g></g></g></g></svg>