<svg xmlns="http://www.w3.org/2000/svg" xmlns:xlink="http://www.w3.org/1999/xlink" id="body_2" preserveAspectRatio="xMinYMin meet" viewBox="0 0 1144 816"><defs><clipPath id="1"><path id="" clip-rule="evenodd" transform="matrix(1 0 0 1 0 0)" d="M0 612L0 -0.28302L0 -0.28302L858.898 -0.28302L858.898 -0.28302L858.898 612L858.898 612L0 612z" /></clipPath><clipPath id="2"><path id="" clip-rule="evenodd" transform="matrix(1 0 0 1 0 0)" d="M0 -0.28302L858.898 -0.28302L858.898 -0.28302L858.898 612L858.898 612L0 612z" /></clipPath></defs><g transform="matrix(1.333333 0 0 1.333333 0 0)"><g clip-path="url(#1)"><g clip-path="url(#2)"><path id="1" transform="matrix(1 0 0 -1 0 612)" d="M56.0365 141.0577C 56.5565 140.8977 57.43983 140.5444 58.0265 140.2777C 58.91983 139.851 59.1265 139.7077 59.2465 139.4277L59.2465 139.4277L59.8265 139.5777C 59.73317 140.0977 59.7265 140.131 59.6865 140.4777C 59.6065 141.331 59.60984 141.331 59.5965 141.4777C 60.5565 140.7977 60.87317 140.5477 61.2865 140.1877C 61.51317 139.9877 61.5765 139.8844 61.6565 139.6577L61.6565 139.6577L62.3165 139.8377C 62.2365 140.171 62.1965 140.3377 62.1565 140.5777C 61.8365 142.4044 61.75983 142.8377 61.7465 142.9177L61.7465 142.9177L61.1165 142.9877C 61.28984 142.241 61.30984 142.1677 61.5765 140.6477C 60.8165 141.2877 60.11983 141.8377 59.6265 142.1577C 58.6665 142.7844 58.6565 142.781 58.2965 143.0477L58.2965 143.0477L57.9765 142.4277C 58.44317 142.1744 58.4865 142.1444 59.0465 141.8377C 59.1265 140.931 59.12317 140.9344 59.1765 140.2677C 58.9365 140.4277 58.8565 140.461 58.6565 140.5677C 58.4165 140.6877 57.56317 141.1177 57.4965 141.1577C 56.5765 141.5577 56.57317 141.561 56.3065 141.7077zM60.2565 144.2377L60.2565 146.6977C 60.2565 147.1244 60.26984 147.3944 60.2965 147.6877C 60.02983 147.6477 59.7665 147.6477 59.3665 147.6477L59.3665 147.6477L57.4765 147.6477C 56.9565 147.6477 56.76317 147.651 56.4965 147.6777C 56.5365 147.411 56.5365 147.1277 56.5365 146.7277L56.5365 146.7277L56.5365 144.3277C 56.5365 143.9677 56.5165 143.6777 56.4765 143.3977L56.4765 143.3977L57.1765 143.3977C 57.14983 143.6377 57.1265 143.9277 57.1265 144.3277L57.1265 144.3277L57.1265 147.0177L57.1265 147.0177L59.6765 147.0177L59.6765 147.0177L59.6765 144.5177C 59.6765 144.131 59.6765 143.851 59.6365 143.5577C 59.8765 143.5977 60.12984 143.6077 60.5965 143.6077L60.5965 143.6077L63.9865 143.6077C 64.71983 143.6077 64.8265 143.881 64.8265 145.8277C 64.8265 148.1344 64.7565 148.2144 62.4365 148.4277C 62.38317 148.1877 62.28317 147.9577 62.1365 147.7577C 63.20317 147.7177 63.7665 147.6377 63.9665 147.4777C 64.1665 147.3177 64.2165 146.921 64.2165 145.7077C 64.2165 144.4144 64.1665 144.2377 63.8465 144.2377zM62.9865 143.0577C 63.2265 142.3644 63.4565 141.451 63.6165 140.5577C 63.6965 140.1044 63.7565 139.631 63.7565 139.4577C 63.7565 139.431 63.7565 139.4144 63.7565 139.3877L63.7565 139.3877L64.4765 139.5377C 64.4365 139.6577 64.42317 139.691 64.3565 140.0377C 64.1565 141.131 63.9165 142.0777 63.6365 143.0377z" stroke="none" fill="#323232" fill-rule="evenodd" /><path id="2" transform="matrix(1 0 0 -1 0 612)" d="M57.1065 152.6877L56.8465 152.6877C 56.59317 152.6877 56.3765 152.6977 56.1365 152.7377L56.1365 152.7377L56.1365 152.0177C 56.3765 152.0577 56.6065 152.0777 56.8465 152.0777L56.8465 152.0777L57.1065 152.0777L57.1065 152.0777L57.1065 150.5877C 57.1065 150.0944 57.0865 149.7477 57.0465 149.4677L57.0465 149.4677L57.7165 149.4677C 57.6765 149.7477 57.6665 150.0544 57.6665 150.5877L57.6665 150.5877L57.6665 152.0777L57.6665 152.0777L57.9765 152.0777C 58.22984 152.0777 58.4365 152.0644 58.6365 152.0377L58.6365 152.0377L58.6365 152.7277C 58.4365 152.6877 58.25983 152.6877 57.9665 152.6877L57.9665 152.6877L57.6665 152.6877L57.6665 152.6877L57.6665 154.9977L57.6665 154.9977L57.9765 154.9977C 58.24317 154.9977 58.42317 154.9844 58.6365 154.9577L58.6365 154.9577L58.6365 155.6477C 58.4365 155.6077 58.2565 155.6077 57.9765 155.6077L57.9765 155.6077L57.6665 155.6077L57.6665 155.6077L57.6665 157.1477C 57.6665 157.6677 57.6765 157.971 57.7165 158.2777L57.7165 158.2777L57.0465 158.2777C 57.0865 157.971 57.1065 157.6277 57.1065 157.1477L57.1065 157.1477L57.1065 155.6077L57.1065 155.6077L56.8465 155.6077C 56.6065 155.6077 56.36317 155.6177 56.1365 155.6577L56.1365 155.6577L56.1365 154.9377C 56.3765 154.9777 56.6065 154.9977 56.8465 154.9977L56.8465 154.9977L57.1065 154.9977zM59.9865 157.1777C 59.9865 157.6044 60.0065 157.9444 60.0465 158.2777L60.0465 158.2777L59.3565 158.2777C 59.3965 157.9577 59.4165 157.6177 59.4165 157.1777L59.4165 157.1777L59.4165 153.5177C 59.2565 153.5977 59.1865 153.6277 59.0265 153.7077C 58.69317 153.8677 58.65984 153.8944 58.4865 153.9877L58.4865 153.9877L58.3365 153.2477C 58.6965 153.1677 58.9765 153.0744 59.4165 152.8477L59.4165 152.8477L59.4165 150.6377C 59.4165 150.1844 59.3965 149.8244 59.3565 149.5177L59.3565 149.5177L60.0465 149.5177C 60.0065 149.8377 59.9865 150.1977 59.9865 150.6377L59.9865 150.6377L59.9865 152.5077C 61.1465 151.721 61.86317 150.901 62.6365 149.4477C 62.8765 149.6877 62.8765 149.6877 63.0765 149.8077C 63.10317 149.8077 63.1365 149.8277 63.1765 149.8677C 62.58984 150.761 62.4365 150.9577 61.9165 151.5577L61.9165 151.5577L64.06651 151.5577C 64.47984 151.5577 64.75317 151.5377 65.0065 151.4977L65.0065 151.4977L65.0065 152.1977L65.0065 152.1977L64.4465 152.1977L64.4465 152.1977L64.4465 156.4777L64.4465 156.4777L65.0165 156.4777L65.0165 156.4777L65.0165 157.1877C 64.68317 157.1477 64.39317 157.1277 64.0865 157.1277L64.0865 157.1277L62.2065 157.1277C 61.8465 157.1277 61.5765 157.1377 61.2565 157.1777C 61.2965 156.9244 61.3065 156.7177 61.3065 156.2377L61.3065 156.2377L61.3065 152.1877C 60.9065 152.5477 60.61317 152.7877 59.9865 153.1877zM61.8665 152.1977L61.8665 156.4777L61.8665 156.4777L63.8765 156.4777L63.8765 156.4777L63.8765 152.1977z" stroke="none" fill="#323232" fill-rule="evenodd" /><path id="3" transform="matrix(1 0 0 -1 0 612)" d="M57.9865 164.6177L57.9865 162.8777C 57.9865 162.4777 57.9865 162.191 57.9465 161.9777C 58.19984 162.0044 58.4765 162.0177 58.8365 162.0177L58.8365 162.0177L61.0165 162.0177C 61.52317 162.0177 61.8165 162.0077 62.1365 161.9677L62.1365 161.9677L62.1365 162.6477L62.1365 162.6477L61.5865 162.6477L61.5865 162.6477L61.5865 164.6177L61.5865 164.6177L63.7665 164.6177C 64.29984 164.6177 64.62984 164.5877 64.9765 164.5477L64.9765 164.5477L64.9765 165.3277C 64.6165 165.2744 64.3265 165.2577 63.7665 165.2577L63.7665 165.2577L61.5865 165.2577L61.5865 165.2577L61.5865 167.3977L61.5865 167.3977L62.1365 167.3977L62.1365 167.3977L62.1365 168.0977C 61.80317 168.0577 61.49317 168.0377 61.0265 168.0377L61.0265 168.0377L58.8765 168.0377C 58.4365 168.0377 58.1865 168.0377 57.9465 168.0777C 57.9865 167.8644 57.9865 167.5777 57.9865 167.1377L57.9865 167.1377L57.9865 165.2577L57.9865 165.2577L57.2165 165.2577C 56.68317 165.2577 56.39983 165.2744 56.0665 165.3277L56.0665 165.3277L56.0665 164.5477C 56.3865 164.5877 56.69984 164.6177 57.2065 164.6177zM60.9965 164.6177L60.9965 162.6477L60.9965 162.6477L58.5765 162.6477L58.5765 162.6477L58.5765 164.6177zM60.9965 165.2577L58.5765 165.2577L58.5765 165.2577L58.5765 167.3977L58.5765 167.3977L60.9965 167.3977zM56.7965 159.6177C 57.4365 160.2444 57.8465 160.561 58.6865 161.0677L58.6865 161.0677L58.2365 161.5977C 57.50317 161.1044 57.07983 160.781 56.3865 160.1277zM60.6865 161.1277C 61.8465 160.7277 62.7665 160.2877 63.6065 159.7277C 63.85984 159.5544 63.97984 159.4577 64.0865 159.3377L64.0865 159.3377L64.5965 159.9477C 64.4365 160.0144 64.38317 160.0377 63.9965 160.2777C 63.10317 160.7977 62.37317 161.1477 61.1865 161.6277z" stroke="none" fill="#323232" fill-rule="evenodd" /></g><path id="4" transform="matrix(1 0 0 -1 0 612)" d="M75.89 57.693L781.008 57.693L781.008 447.874L75.89 447.874z" stroke="none" fill="#FFFEFE" fill-rule="nonzero" /><path id="1180" transform="matrix(1 0 0 -1 0 612)" d="M63.2452 384.0228L57.56307 384.0228L57.56307 384.0228L57.56307 381.9002L57.56307 381.9002L56.80282 381.9002L56.80282 381.9002L56.80282 387.0067L56.80282 387.0067L57.56307 387.0067L57.56307 387.0067L57.56307 384.8753L57.56307 384.8753L63.2452 384.8753z" stroke="none" fill="#323232" fill-rule="evenodd" /><path id="1181" transform="matrix(1 0 0 -1 0 612)" d="M63.2452 387.7816L56.80282 387.7816L56.80282 387.7816L56.80282 388.5726L56.80282 388.5726L59.11434 388.5726C 58.68661 388.9417 58.47274 389.4075 58.47274 389.97C 58.47274 390.3157 58.54086 390.616 58.67709 390.8709C 58.81332 391.1258 59.00155 391.3082 59.24178 391.418C 59.48202 391.5279 59.83065 391.5828 60.28768 391.5828L60.28768 391.5828L63.2452 391.5828L63.2452 391.5828L63.2452 390.7918L63.2452 390.7918L60.28768 390.7918C 59.49667 390.7918 59.15389 390.4344 59.15389 389.8074C 59.15389 389.5731 59.21468 389.3526 59.33627 389.1461C 59.45785 388.9395 59.62264 388.7923 59.83065 388.7044C 60.03866 388.6165 60.32577 388.5726 60.69198 388.5726L60.69198 388.5726L63.2452 388.5726z" stroke="none" fill="#323232" fill-rule="evenodd" /><path id="1182" transform="matrix(1 0 0 -1 0 612)" d="M61.74227 395.9804L61.84335 396.7978C 62.79842 396.5399 63.35067 395.8295 63.35067 394.7455C 63.35067 393.3803 62.46883 392.5219 60.95126 392.5219C 59.38094 392.5219 58.47274 393.4125 58.47274 394.7016C 58.47274 395.9496 59.3619 396.8241 60.90292 396.8241C 60.94979 396.8241 61.0201 396.8227 61.11385 396.8197L61.11385 396.8197L61.11385 393.3393C 62.13924 393.3979 62.70028 393.9706 62.70028 394.7499C 62.70028 395.33 62.41024 395.7401 61.74227 395.9804zM60.46346 393.3832L60.46346 395.9892C 60.07088 395.954 59.77645 395.8544 59.58016 395.6903C 59.27547 395.4384 59.12313 395.1117 59.12313 394.7104C 59.12313 393.9838 59.64901 393.4359 60.46346 393.3832z" stroke="none" fill="#323232" fill-rule="evenodd" /><path id="1184" transform="matrix(1 0 0 -1 0 612)" d="M63.2452 401.5176L56.80282 399.8082L56.80282 399.8082L56.80282 400.6827L56.80282 400.6827L61.02596 401.6627C 61.46835 401.7681 61.9078 401.8589 62.34432 401.9351C 61.65585 402.0992 61.25887 402.1959 61.1534 402.2252L61.1534 402.2252L56.80282 403.4512L56.80282 403.4512L56.80282 404.4796L56.80282 404.4796L60.06356 405.4024C 60.87215 405.6339 61.63241 405.8008 62.34432 405.9034C 61.9371 405.9854 61.46981 406.0923 60.94247 406.2242L60.94247 406.2242L56.80282 407.2349L56.80282 407.2349L56.80282 408.0919L56.80282 408.0919L63.2452 406.3253L63.2452 406.3253L63.2452 405.5035L63.2452 405.5035L58.33651 404.1456C 57.92635 404.0313 57.6744 403.9639 57.58065 403.9434C 57.87655 403.876 58.1285 403.813 58.33651 403.7545L58.33651 403.7545L63.2452 402.3878z" stroke="none" fill="#323232" fill-rule="evenodd" /><path id="1185" transform="matrix(1 0 0 -1 0 612)" d="M60.91171 408.3311C 60.04745 408.3311 59.40731 408.5714 58.99129 409.0518C 58.64559 409.4532 58.47274 409.9424 58.47274 410.5196C 58.47274 411.8028 59.36337 412.7037 60.84579 412.7037C 61.44637 412.7037 61.91879 412.6136 62.26302 412.4334C 62.60726 412.2532 62.8746 411.991 63.06503 411.6468C 63.25546 411.3026 63.35067 410.9268 63.35067 410.5196C 63.35067 409.213 62.48788 408.3311 60.91171 408.3311zM60.91171 409.1441C 62.10702 409.1441 62.70028 409.7286 62.70028 410.5196C 62.70028 411.3047 62.10995 411.8907 60.88534 411.8907C 59.73104 411.8907 59.12753 411.2989 59.12753 410.5196C 59.12753 409.7286 59.71639 409.1441 60.91171 409.1441z" stroke="none" fill="#323232" fill-rule="evenodd" /><path id="1186" transform="matrix(1 0 0 -1 0 612)" d="M63.2452 413.6295L58.57821 413.6295L58.57821 413.6295L58.57821 414.3415L58.57821 414.3415L59.24178 414.3415C 58.72909 414.6842 58.47274 415.1794 58.47274 415.8268C 58.47274 416.1081 58.52328 416.3666 58.62435 416.6024C 58.72543 416.8383 58.85799 417.0148 59.02206 417.132C 59.18612 417.2492 59.38094 417.3312 59.60653 417.3781C 59.75301 417.4074 60.00936 417.422 60.37557 417.422L60.37557 417.422L63.2452 417.422L63.2452 417.422L63.2452 416.631L63.2452 416.631L60.40633 416.631C 60.08407 416.631 59.8431 416.6003 59.68343 416.5387C 59.52377 416.4772 59.39632 416.3681 59.30111 416.2113C 59.20589 416.0546 59.15829 415.8708 59.15829 415.6598C 59.15829 414.986 59.50106 414.4206 60.69637 414.4206L60.69637 414.4206L63.2452 414.4206z" stroke="none" fill="#323232" fill-rule="evenodd" /><path id="1187" transform="matrix(1 0 0 -1 0 612)" d="M63.2452 421.6614L62.65633 421.6614C 63.11922 421.3655 63.35067 420.9304 63.35067 420.3562C 63.35067 419.9841 63.24813 419.6421 63.04305 419.3301C 62.83797 419.0181 62.5516 418.7764 62.18392 418.605C 61.81625 418.4336 61.39364 418.3479 60.9161 418.3479C 60.45028 418.3479 60.02767 418.4255 59.64828 418.5808C 59.26888 418.7361 58.97811 418.969 58.77596 419.2795C 58.57381 419.5901 58.47274 419.9373 58.47274 420.321C 58.47274 420.8835 58.73348 421.3333 59.11434 421.6086L59.11434 421.6086L56.80282 421.6086L56.80282 421.6086L56.80282 422.3953L56.80282 422.3953L63.2452 422.3953zM60.9161 419.1609C 62.11141 419.1609 62.70028 419.7454 62.70028 420.4309C 62.70028 421.1223 62.14217 421.6746 60.98202 421.6746C 59.70467 421.6746 59.12753 421.1165 59.12753 420.3958C 59.12753 419.6926 59.67977 419.1609 60.9161 419.1609z" stroke="none" fill="#323232" fill-rule="evenodd" /><path id="1188" transform="matrix(1 0 0 -1 0 612)" d="M61.74227 426.8324L61.84335 427.6497C 62.79842 427.3919 63.35067 426.6815 63.35067 425.5975C 63.35067 424.2323 62.46883 423.3739 60.95126 423.3739C 59.38094 423.3739 58.47274 424.2645 58.47274 425.5536C 58.47274 426.8016 59.3619 427.6761 60.90292 427.6761C 60.94979 427.6761 61.0201 427.6747 61.11385 427.6717L61.11385 427.6717L61.11385 424.1913C 62.13924 424.2498 62.70028 424.8226 62.70028 425.6019C 62.70028 426.182 62.41024 426.5921 61.74227 426.8324zM60.46346 424.2352L60.46346 426.8412C 60.07088 426.806 59.77645 426.7064 59.58016 426.5423C 59.27547 426.2904 59.12313 425.9637 59.12313 425.5623C 59.12313 424.8358 59.64901 424.2879 60.46346 424.2352z" stroke="none" fill="#323232" fill-rule="evenodd" /><path id="1189" transform="matrix(1 0 0 -1 0 612)" d="M63.2452 428.6328L58.57821 428.6328L58.57821 428.6328L58.57821 429.3447L58.57821 429.3447L59.28573 429.3447C 58.62362 429.7079 58.47274 429.9863 58.47274 430.3554C 58.47274 430.622 58.5577 430.893 58.72762 431.1684L58.72762 431.1684L59.46151 430.8959C 59.34725 430.7026 59.29012 430.5092 59.29012 430.3159C 59.29012 429.9702 59.50985 429.6728 59.87899 429.5556C 60.16024 429.4677 60.46786 429.4238 60.80184 429.4238L60.80184 429.4238L63.2452 429.4238z" stroke="none" fill="#323232" fill-rule="evenodd" /><path id="1191" transform="matrix(1 0 0 -1 0 612)" d="M60.10751 433.9824C 57.96883 433.9824 56.68856 435.2509 56.68856 437.0673C 56.68856 437.662 56.83065 438.1982 57.11483 438.6757C 57.39901 439.1533 57.79525 439.5173 58.30355 439.7678C 58.81185 440.0182 59.38827 440.1435 60.0328 440.1435C 60.68612 440.1435 61.27059 440.0117 61.78622 439.748C 62.30184 439.4843 62.69222 439.1108 62.95736 438.6274C 63.2225 438.144 63.35506 437.6225 63.35506 437.0629C 63.35506 436.4565 63.20858 435.9145 62.91561 435.437C 62.62264 434.9594 62.22274 434.5976 61.7159 434.3515C 61.20907 434.1054 60.67294 433.9824 60.10751 433.9824zM60.12069 434.8613C 61.67342 434.8613 62.62557 435.7988 62.62557 437.0585C 62.62557 438.3417 61.68661 439.2646 60.0284 439.2646C 59.50399 439.2646 59.04623 439.176 58.65511 438.9987C 58.264 438.8215 57.96078 438.5622 57.74545 438.2209C 57.53011 437.8796 57.42245 437.4965 57.42245 437.0717C 57.42245 435.8647 58.18124 434.8613 60.12069 434.8613z" stroke="none" fill="#323232" fill-rule="evenodd" /><path id="1192" transform="matrix(1 0 0 -1 0 612)" d="M63.2452 441.1425L58.57821 441.1425L58.57821 441.1425L58.57821 441.8545L58.57821 441.8545L59.24178 441.8545C 58.72909 442.1972 58.47274 442.6924 58.47274 443.3398C 58.47274 443.6211 58.52328 443.8796 58.62435 444.1154C 58.72543 444.3513 58.85799 444.5278 59.02206 444.645C 59.18612 444.7622 59.38094 444.8442 59.60653 444.8911C 59.75301 444.9204 60.00936 444.935 60.37557 444.935L60.37557 444.935L63.2452 444.935L63.2452 444.935L63.2452 444.144L63.2452 444.144L60.40633 444.144C 60.08407 444.144 59.8431 444.1133 59.68343 444.0517C 59.52377 443.9902 59.39632 443.8811 59.30111 443.7243C 59.20589 443.5676 59.15829 443.3838 59.15829 443.1728C 59.15829 442.499 59.50106 441.9336 60.69637 441.9336L60.69637 441.9336L63.2452 441.9336z" stroke="none" fill="#323232" fill-rule="evenodd" /><path id="1193" transform="matrix(1 0 0 -1 0 612)" d="M61.74227 449.3414L61.84335 450.1588C 62.79842 449.9009 63.35067 449.1905 63.35067 448.1065C 63.35067 446.7413 62.46883 445.8829 60.95126 445.8829C 59.38094 445.8829 58.47274 446.7735 58.47274 448.0626C 58.47274 449.3106 59.3619 450.1851 60.90292 450.1851C 60.94979 450.1851 61.0201 450.1837 61.11385 450.1807L61.11385 450.1807L61.11385 446.7003C 62.13924 446.7589 62.70028 447.3316 62.70028 448.1109C 62.70028 448.691 62.41024 449.1011 61.74227 449.3414zM60.46346 446.7442L60.46346 449.3502C 60.07088 449.315 59.77645 449.2154 59.58016 449.0513C 59.27547 448.7994 59.12313 448.4727 59.12313 448.0714C 59.12313 447.3448 59.64901 446.7969 60.46346 446.7442z" stroke="none" fill="#323232" fill-rule="evenodd" /><path id="1194" transform="matrix(1 0 0 -1 0 612)" d="M61.85213 450.8341L61.72909 451.6164C 62.35604 451.7043 62.70028 452.1042 62.70028 452.8249C 62.70028 453.5514 62.35604 453.8971 61.9576 453.8971C 61.77889 453.8971 61.63827 453.8195 61.53573 453.6642C 61.46542 453.5558 61.37606 453.2863 61.26766 452.8556C 61.12118 452.2755 60.99447 451.8734 60.88754 451.6493C 60.7806 451.4252 60.63265 451.2553 60.44369 451.1396C 60.25472 451.0238 60.04598 450.966 59.81747 450.966C 59.40145 450.966 59.03231 451.1696 58.79794 451.4977C 58.61629 451.7438 58.47274 452.1979 58.47274 452.6842C 58.47274 453.0504 58.52547 453.372 58.63094 453.6488C 58.73641 453.9257 58.87923 454.13 59.05941 454.2619C 59.23959 454.3937 59.48055 454.4845 59.78231 454.5343L59.78231 454.5343L59.88778 453.7609C 59.40731 453.6906 59.12313 453.3566 59.12313 452.7414C 59.12313 452.0148 59.40292 451.7306 59.72518 451.7306C 59.82772 451.7306 59.92001 451.7628 60.00204 451.8273C 60.087 451.8918 60.15731 451.9928 60.21297 452.1305C 60.24227 452.2096 60.30965 452.4425 60.41512 452.8293C 60.56454 453.3888 60.68685 453.7792 60.78207 454.0004C 60.87728 454.2216 61.01571 454.3952 61.19735 454.5211C 61.37899 454.6471 61.60458 454.7101 61.87411 454.7101C 62.13778 454.7101 62.38607 454.6332 62.61898 454.4794C 62.85189 454.3256 63.03207 454.1037 63.15951 453.8136C 63.28695 453.5236 63.35067 453.1955 63.35067 452.8293C 63.35067 451.6164 62.84237 451.0099 61.85213 450.8341z" stroke="none" fill="#323232" fill-rule="evenodd" /></g></g></svg>