<svg xmlns="http://www.w3.org/2000/svg" xmlns:xlink="http://www.w3.org/1999/xlink" id="body_3" preserveAspectRatio="xMinYMin meet" viewBox="0 0 1144 816"><defs><clipPath id="1"><path id="" clip-rule="evenodd" transform="matrix(1 0 0 1 0 0)" d="M0 612L0 -0.28302L0 -0.28302L858.898 -0.28302L858.898 -0.28302L858.898 612L858.898 612L0 612z" /></clipPath><clipPath id="2"><path id="" clip-rule="evenodd" transform="matrix(1 0 0 1 0 0)" d="M0 -0.28302L858.898 -0.28302L858.898 -0.28302L858.898 612L858.898 612L0 612z" /></clipPath><clipPath id="3"><path id="" clip-rule="evenodd" transform="matrix(1 0 0 1 0 0)" d="M56.693 550.562L788.976 550.562L788.976 550.562L788.976 61.22797L788.976 61.22797L56.693 61.22797z" /></clipPath></defs><g transform="matrix(1.333333 0 0 1.333333 0 0)"><g clip-path="url(#1)"><g clip-path="url(#2)"><path id="1" transform="matrix(1 0 0 -1 0 612)" d="M802.6706 188.9572C 802.1506 189.1172 801.2673 189.4705 800.6806 189.7372C 799.7873 190.1639 799.5806 190.3072 799.4606 190.5872L799.4606 190.5872L798.8806 190.4372C 798.9739 189.9172 798.9806 189.8839 799.0206 189.5372C 799.1006 188.6839 799.0973 188.6839 799.1106 188.5372C 798.1506 189.2172 797.8339 189.4672 797.4206 189.8272C 797.1939 190.0272 797.1306 190.1305 797.0506 190.3572L797.0506 190.3572L796.3906 190.1772C 796.4706 189.8439 796.5106 189.6772 796.5506 189.4372C 796.8706 187.6105 796.9473 187.1772 796.9606 187.0972L796.9606 187.0972L797.5906 187.0272C 797.4173 187.7739 797.3973 187.8472 797.1306 189.3672C 797.8906 188.7272 798.5873 188.1772 799.0806 187.8572C 800.0406 187.2305 800.0506 187.2339 800.4106 186.9672L800.4106 186.9672L800.7306 187.5872C 800.2639 187.8405 800.2206 187.8705 799.6606 188.1772C 799.5806 189.0839 799.5839 189.0805 799.5306 189.7472C 799.7706 189.5872 799.8506 189.5539 800.0506 189.4472C 800.2906 189.3272 801.1439 188.8972 801.2106 188.8572C 802.1306 188.4572 802.1339 188.4539 802.4006 188.3072zM798.4506 185.7772L798.4506 183.3172C 798.4506 182.8905 798.4373 182.6205 798.4106 182.3272C 798.6772 182.3672 798.9406 182.3672 799.3406 182.3672L799.3406 182.3672L801.2306 182.3672C 801.7506 182.3672 801.9439 182.3639 802.2106 182.3372C 802.1706 182.6039 802.1706 182.8872 802.1706 183.2872L802.1706 183.2872L802.1706 185.6872C 802.1706 186.0472 802.1906 186.3372 802.2306 186.6172L802.2306 186.6172L801.5306 186.6172C 801.5573 186.3772 801.5806 186.0872 801.5806 185.6872L801.5806 185.6872L801.5806 182.9972L801.5806 182.9972L799.0306 182.9972L799.0306 182.9972L799.0306 185.4972C 799.0306 185.8839 799.0306 186.1639 799.0706 186.4572C 798.8306 186.4172 798.5773 186.4072 798.1106 186.4072L798.1106 186.4072L794.7206 186.4072C 793.9872 186.4072 793.8806 186.1339 793.8806 184.1872C 793.8806 181.8805 793.9506 181.8005 796.2706 181.5872C 796.3239 181.8272 796.424 182.0572 796.5706 182.2572C 795.504 182.2972 794.9406 182.3772 794.7406 182.5372C 794.5406 182.6972 794.4906 183.0939 794.4906 184.3072C 794.4906 185.6005 794.5406 185.7772 794.8606 185.7772zM795.7206 186.9572C 795.4806 187.6505 795.2506 188.5639 795.0906 189.4572C 795.0106 189.9105 794.9506 190.3839 794.9506 190.5572C 794.9506 190.5839 794.9506 190.6005 794.9506 190.6272L794.9506 190.6272L794.2306 190.4772C 794.2706 190.3572 794.2839 190.3239 794.3506 189.9772C 794.5506 188.8839 794.7906 187.9372 795.0706 186.9772z" stroke="none" fill="#323232" fill-rule="evenodd" /><path id="2" transform="matrix(1 0 0 -1 0 612)" d="M801.6006 177.3272L801.8606 177.3272C 802.114 177.3272 802.3306 177.3172 802.5706 177.2772L802.5706 177.2772L802.5706 177.9972C 802.3306 177.9572 802.1006 177.9372 801.8606 177.9372L801.8606 177.9372L801.6006 177.9372L801.6006 177.9372L801.6006 179.4272C 801.6006 179.9205 801.6206 180.2672 801.6606 180.5472L801.6606 180.5472L800.9906 180.5472C 801.0306 180.2672 801.0406 179.9605 801.0406 179.4272L801.0406 179.4272L801.0406 177.9372L801.0406 177.9372L800.7306 177.9372C 800.4773 177.9372 800.2706 177.9505 800.0706 177.9772L800.0706 177.9772L800.0706 177.2872C 800.2706 177.3272 800.4473 177.3272 800.7406 177.3272L800.7406 177.3272L801.0406 177.3272L801.0406 177.3272L801.0406 175.0172L801.0406 175.0172L800.7306 175.0172C 800.4639 175.0172 800.2839 175.0305 800.0706 175.0572L800.0706 175.0572L800.0706 174.3672C 800.2706 174.4072 800.4506 174.4072 800.7306 174.4072L800.7306 174.4072L801.0406 174.4072L801.0406 174.4072L801.0406 172.8672C 801.0406 172.3472 801.0306 172.0439 800.9906 171.7372L800.9906 171.7372L801.6606 171.7372C 801.6206 172.0439 801.6006 172.3872 801.6006 172.8672L801.6006 172.8672L801.6006 174.4072L801.6006 174.4072L801.8606 174.4072C 802.1006 174.4072 802.3439 174.3972 802.5706 174.3572L802.5706 174.3572L802.5706 175.0772C 802.3306 175.0372 802.1006 175.0172 801.8606 175.0172L801.8606 175.0172L801.6006 175.0172zM798.7206 172.8372C 798.7206 172.4105 798.7006 172.0705 798.6606 171.7372L798.6606 171.7372L799.3506 171.7372C 799.3106 172.0572 799.2906 172.3972 799.2906 172.8372L799.2906 172.8372L799.2906 176.4972C 799.4506 176.4172 799.5206 176.3872 799.6806 176.3072C 800.0139 176.1472 800.0472 176.1205 800.2206 176.0272L800.2206 176.0272L800.3706 176.7672C 800.0106 176.8472 799.7306 176.9405 799.2906 177.1672L799.2906 177.1672L799.2906 179.3772C 799.2906 179.8305 799.3106 180.1905 799.3506 180.4972L799.3506 180.4972L798.6606 180.4972C 798.7006 180.1772 798.7206 179.8172 798.7206 179.3772L798.7206 179.3772L798.7206 177.5072C 797.5606 178.2939 796.8439 179.1139 796.0706 180.5672C 795.8306 180.3272 795.8306 180.3272 795.6306 180.2072C 795.6039 180.2072 795.5706 180.1872 795.5306 180.1472C 796.1172 179.2539 796.2706 179.0572 796.7906 178.4572L796.7906 178.4572L794.6406 178.4572C 794.2273 178.4572 793.9539 178.4772 793.7006 178.5172L793.7006 178.5172L793.7006 177.8172L793.7006 177.8172L794.2606 177.8172L794.2606 177.8172L794.2606 173.5372L794.2606 173.5372L793.6906 173.5372L793.6906 173.5372L793.6906 172.8272C 794.0239 172.8672 794.314 172.8872 794.6206 172.8872L794.6206 172.8872L796.5006 172.8872C 796.8606 172.8872 797.1306 172.8772 797.4506 172.8372C 797.4106 173.0905 797.4006 173.2972 797.4006 173.7772L797.4006 173.7772L797.4006 177.8272C 797.8006 177.4672 798.0939 177.2272 798.7206 176.8272zM796.8406 177.8172L796.8406 173.5372L796.8406 173.5372L794.8306 173.5372L794.8306 173.5372L794.8306 177.8172z" stroke="none" fill="#323232" fill-rule="evenodd" /><path id="3" transform="matrix(1 0 0 -1 0 612)" d="M800.7206 165.3972L800.7206 167.1372C 800.7206 167.5372 800.7206 167.8239 800.7606 168.0372C 800.5073 168.0105 800.2306 167.9972 799.8706 167.9972L799.8706 167.9972L797.6906 167.9972C 797.184 167.9972 796.8906 168.0072 796.5706 168.0472L796.5706 168.0472L796.5706 167.3672L796.5706 167.3672L797.1206 167.3672L797.1206 167.3672L797.1206 165.3972L797.1206 165.3972L794.9406 165.3972C 794.4073 165.3972 794.0773 165.4272 793.7306 165.4672L793.7306 165.4672L793.7306 164.6872C 794.0906 164.7405 794.3806 164.7572 794.9406 164.7572L794.9406 164.7572L797.1206 164.7572L797.1206 164.7572L797.1206 162.6172L797.1206 162.6172L796.5706 162.6172L796.5706 162.6172L796.5706 161.9172C 796.9039 161.9572 797.2139 161.9772 797.6806 161.9772L797.6806 161.9772L799.8306 161.9772C 800.2706 161.9772 800.5206 161.9772 800.7606 161.9372C 800.7206 162.1505 800.7206 162.4372 800.7206 162.8772L800.7206 162.8772L800.7206 164.7572L800.7206 164.7572L801.4906 164.7572C 802.0239 164.7572 802.3073 164.7405 802.6406 164.6872L802.6406 164.6872L802.6406 165.4672C 802.3206 165.4272 802.0073 165.3972 801.5006 165.3972zM797.7106 165.3972L797.7106 167.3672L797.7106 167.3672L800.1306 167.3672L800.1306 167.3672L800.1306 165.3972zM797.7106 164.7572L800.1306 164.7572L800.1306 164.7572L800.1306 162.6172L800.1306 162.6172L797.7106 162.6172zM801.9106 170.3972C 801.2706 169.7705 800.8606 169.4539 800.0206 168.9472L800.0206 168.9472L800.4706 168.4172C 801.2039 168.9105 801.6273 169.2339 802.3206 169.8872zM798.0206 168.8872C 796.8606 169.2872 795.9406 169.7272 795.1006 170.2872C 794.8473 170.4605 794.7273 170.5572 794.6206 170.6772L794.6206 170.6772L794.1106 170.0672C 794.2706 170.0005 794.3239 169.9772 794.7106 169.7372C 795.6039 169.2172 796.3339 168.8672 797.5206 168.3872z" stroke="none" fill="#323232" fill-rule="evenodd" /></g><path id="4" transform="matrix(1 0 0 -1 0 612)" d="M56.693 61.228L788.976 61.228L788.976 550.771L56.693 550.771z" stroke="none" fill="#DBDCDE" fill-rule="nonzero" /><g clip-path="url(#3)"><g transform="matrix(0.4998522 0 0 0.4999058 56.6929 61.15442)"><g transform="matrix(1 0 0 1 0 0)"><image x="0" y="0" xlink:href="img_04.png" width="1465" height="979" /></g></g></g><path id="6" transform="matrix(1 0 0 -1 0 612)" d="M795.4783 452.237L801.1604 452.237L801.1604 452.237L801.1604 454.3596L801.1604 454.3596L801.9207 454.3596L801.9207 454.3596L801.9207 449.2531L801.9207 449.2531L801.1604 449.2531L801.1604 449.2531L801.1604 451.3845L801.1604 451.3845L795.4783 451.3845z" stroke="none" fill="#333332" fill-rule="evenodd" /><path id="7" transform="matrix(1 0 0 -1 0 612)" d="M795.4783 448.4782L801.9207 448.4782L801.9207 448.4782L801.9207 447.6872L801.9207 447.6872L799.6091 447.6872C 800.0369 447.3181 800.2507 446.8523 800.2507 446.2898C 800.2507 445.9441 800.1826 445.6438 800.0464 445.3889C 799.9102 445.134 799.7219 444.9516 799.4817 444.8418C 799.2415 444.7319 798.8928 444.677 798.4358 444.677L798.4358 444.677L795.4783 444.677L795.4783 444.677L795.4783 445.468L795.4783 445.468L798.4358 445.468C 799.2268 445.468 799.5696 445.8254 799.5696 446.4524C 799.5696 446.6867 799.5088 446.9072 799.3872 447.1137C 799.2656 447.3203 799.1008 447.4675 798.8928 447.5554C 798.6848 447.6433 798.3977 447.6872 798.0315 447.6872L798.0315 447.6872L795.4783 447.6872z" stroke="none" fill="#333332" fill-rule="evenodd" /><path id="8" transform="matrix(1 0 0 -1 0 612)" d="M796.9812 440.2794L796.8801 439.462C 795.925 439.7198 795.3728 440.4303 795.3728 441.5143C 795.3728 442.8795 796.2546 443.7379 797.7722 443.7379C 799.3425 443.7379 800.2507 442.8473 800.2507 441.5582C 800.2507 440.3102 799.3616 439.4357 797.8206 439.4357C 797.7737 439.4357 797.7034 439.4371 797.6096 439.4401L797.6096 439.4401L797.6096 442.9205C 796.5842 442.8619 796.0232 442.2892 796.0232 441.5099C 796.0232 440.9298 796.3132 440.5197 796.9812 440.2794zM798.26 442.8766L798.26 440.2706C 798.6526 440.3058 798.947 440.4054 799.1433 440.5695C 799.448 440.8214 799.6003 441.1481 799.6003 441.5494C 799.6003 442.276 799.0745 442.8239 798.26 442.8766z" stroke="none" fill="#333332" fill-rule="evenodd" /><path id="10" transform="matrix(1 0 0 -1 0 612)" d="M795.4783 434.7422L801.9207 436.4516L801.9207 436.4516L801.9207 435.5771L801.9207 435.5771L797.6975 434.5971C 797.2551 434.4917 796.8157 434.4008 796.3792 434.3247C 797.0676 434.1606 797.4646 434.0639 797.5701 434.0346L797.5701 434.0346L801.9207 432.8086L801.9207 432.8086L801.9207 431.7802L801.9207 431.7802L798.6599 430.8574C 797.8513 430.6259 797.0911 430.459 796.3792 430.3564C 796.7864 430.2744 797.2537 430.1674 797.781 430.0356L797.781 430.0356L801.9207 429.0249L801.9207 429.0249L801.9207 428.1679L801.9207 428.1679L795.4783 429.9345L795.4783 429.9345L795.4783 430.7563L795.4783 430.7563L800.387 432.1142C 800.7971 432.2285 801.0491 432.2959 801.1428 432.3164C 800.8469 432.3838 800.595 432.4467 800.387 432.5053L800.387 432.5053L795.4783 433.872z" stroke="none" fill="#333332" fill-rule="evenodd" /><path id="11" transform="matrix(1 0 0 -1 0 612)" d="M797.8118 427.9287C 798.676 427.9287 799.3162 427.6884 799.7322 427.208C 800.0779 426.8066 800.2507 426.3174 800.2507 425.7402C 800.2507 424.457 799.3601 423.5561 797.8777 423.5561C 797.2771 423.5561 796.8047 423.6462 796.4604 423.8264C 796.1162 424.0066 795.8489 424.2688 795.6584 424.613C 795.468 424.9572 795.3728 425.333 795.3728 425.7402C 795.3728 427.0468 796.2356 427.9287 797.8118 427.9287zM797.8118 427.1157C 796.6165 427.1157 796.0232 426.5312 796.0232 425.7402C 796.0232 424.955 796.6135 424.3691 797.8381 424.3691C 798.9924 424.3691 799.5959 424.9609 799.5959 425.7402C 799.5959 426.5312 799.0071 427.1157 797.8118 427.1157z" stroke="none" fill="#333332" fill-rule="evenodd" /><path id="12" transform="matrix(1 0 0 -1 0 612)" d="M795.4783 422.6302L800.1453 422.6302L800.1453 422.6302L800.1453 421.9183L800.1453 421.9183L799.4817 421.9183C 799.9944 421.5756 800.2507 421.0804 800.2507 420.433C 800.2507 420.1517 800.2002 419.8932 800.0991 419.6573C 799.998 419.4215 799.8655 419.245 799.7014 419.1278C 799.5374 419.0106 799.3425 418.9286 799.1169 418.8817C 798.9705 418.8524 798.7141 418.8378 798.3479 418.8378L798.3479 418.8378L795.4783 418.8378L795.4783 418.8378L795.4783 419.6288L795.4783 419.6288L798.3171 419.6288C 798.6394 419.6288 798.8804 419.6595 799.04 419.7211C 799.1997 419.7826 799.3271 419.8917 799.4224 420.0485C 799.5176 420.2052 799.5652 420.389 799.5652 420.6C 799.5652 421.2738 799.2224 421.8392 798.0271 421.8392L798.0271 421.8392L795.4783 421.8392z" stroke="none" fill="#333332" fill-rule="evenodd" /><path id="13" transform="matrix(1 0 0 -1 0 612)" d="M795.4783 414.5984L796.0671 414.5984C 795.6042 414.8943 795.3728 415.3294 795.3728 415.9036C 795.3728 416.2757 795.4753 416.6177 795.6804 416.9297C 795.8855 417.2417 796.1719 417.4834 796.5396 417.6548C 796.9072 417.8262 797.3298 417.9119 797.8074 417.9119C 798.2732 417.9119 798.6958 417.8343 799.0752 417.679C 799.4546 417.5237 799.7454 417.2908 799.9475 416.9803C 800.1497 416.6697 800.2507 416.3225 800.2507 415.9388C 800.2507 415.3763 799.99 414.9265 799.6091 414.6512L799.6091 414.6512L801.9207 414.6512L801.9207 414.6512L801.9207 413.8645L801.9207 413.8645L795.4783 413.8645zM797.8074 417.0989C 796.6121 417.0989 796.0232 416.5144 796.0232 415.8289C 796.0232 415.1375 796.5813 414.5852 797.7415 414.5852C 799.0188 414.5852 799.5959 415.1433 799.5959 415.864C 799.5959 416.5672 799.0437 417.0989 797.8074 417.0989z" stroke="none" fill="#333332" fill-rule="evenodd" /><path id="14" transform="matrix(1 0 0 -1 0 612)" d="M796.9812 409.4274L796.8801 408.61C 795.925 408.8679 795.3728 409.5783 795.3728 410.6623C 795.3728 412.0275 796.2546 412.8859 797.7722 412.8859C 799.3425 412.8859 800.2507 411.9953 800.2507 410.7062C 800.2507 409.4582 799.3616 408.5837 797.8206 408.5837C 797.7737 408.5837 797.7034 408.5851 797.6096 408.5881L797.6096 408.5881L797.6096 412.0685C 796.5842 412.0099 796.0232 411.4372 796.0232 410.6579C 796.0232 410.0778 796.3132 409.6677 796.9812 409.4274zM798.26 412.0246L798.26 409.4186C 798.6526 409.4538 798.947 409.5534 799.1433 409.7175C 799.448 409.9694 799.6003 410.2961 799.6003 410.6974C 799.6003 411.424 799.0745 411.9719 798.26 412.0246z" stroke="none" fill="#333332" fill-rule="evenodd" /><path id="15" transform="matrix(1 0 0 -1 0 612)" d="M795.4783 407.627L800.1453 407.627L800.1453 407.627L800.1453 406.9151L800.1453 406.9151L799.4377 406.9151C 800.0999 406.5518 800.2507 406.2735 800.2507 405.9044C 800.2507 405.6378 800.1658 405.3668 799.9958 405.0914L799.9958 405.0914L799.262 405.3639C 799.3762 405.5572 799.4333 405.7506 799.4333 405.9439C 799.4333 406.2896 799.2136 406.587 798.8445 406.7042C 798.5632 406.7921 798.2556 406.836 797.9216 406.836L797.9216 406.836L795.4783 406.836z" stroke="none" fill="#333332" fill-rule="evenodd" /><path id="17" transform="matrix(1 0 0 -1 0 612)" d="M798.616 402.2775C 800.7546 402.2775 802.0349 401.0089 802.0349 399.1925C 802.0349 398.5977 801.8928 398.0616 801.6086 397.5841C 801.3245 397.1066 800.9282 396.7426 800.4199 396.4921C 799.9116 396.2416 799.3352 396.1163 798.6907 396.1163C 798.0374 396.1163 797.4529 396.2482 796.9373 396.5118C 796.4216 396.7755 796.0313 397.149 795.7661 397.6324C 795.501 398.1158 795.3684 398.6373 795.3684 399.1969C 795.3684 399.8033 795.5149 400.3453 795.8079 400.8229C 796.1008 401.3004 796.5007 401.6622 797.0076 401.9083C 797.5144 402.1544 798.0505 402.2775 798.616 402.2775zM798.6028 401.3986C 797.05 401.3986 796.0979 400.461 796.0979 399.2013C 796.0979 397.9181 797.0369 396.9952 798.6951 396.9952C 799.2195 396.9952 799.6772 397.0838 800.0684 397.2611C 800.4595 397.4384 800.7627 397.6976 800.978 398.0389C 801.1934 398.3802 801.301 398.7633 801.301 399.1881C 801.301 400.3951 800.5422 401.3986 798.6028 401.3986z" stroke="none" fill="#333332" fill-rule="evenodd" /><path id="18" transform="matrix(1 0 0 -1 0 612)" d="M795.4783 395.1172L800.1453 395.1172L800.1453 395.1172L800.1453 394.4053L800.1453 394.4053L799.4817 394.4053C 799.9944 394.0626 800.2507 393.5674 800.2507 392.92C 800.2507 392.6387 800.2002 392.3802 800.0991 392.1443C 799.998 391.9085 799.8655 391.732 799.7014 391.6148C 799.5374 391.4976 799.3425 391.4156 799.1169 391.3687C 798.9705 391.3394 798.7141 391.3248 798.3479 391.3248L798.3479 391.3248L795.4783 391.3248L795.4783 391.3248L795.4783 392.1158L795.4783 392.1158L798.3171 392.1158C 798.6394 392.1158 798.8804 392.1465 799.04 392.2081C 799.1997 392.2696 799.3271 392.3787 799.4224 392.5355C 799.5176 392.6922 799.5652 392.876 799.5652 393.087C 799.5652 393.7608 799.2224 394.3262 798.0271 394.3262L798.0271 394.3262L795.4783 394.3262z" stroke="none" fill="#333332" fill-rule="evenodd" /><path id="19" transform="matrix(1 0 0 -1 0 612)" d="M796.9812 386.9184L796.8801 386.101C 795.925 386.3589 795.3728 387.0693 795.3728 388.1533C 795.3728 389.5185 796.2546 390.3769 797.7722 390.3769C 799.3425 390.3769 800.2507 389.4863 800.2507 388.1972C 800.2507 386.9492 799.3616 386.0747 797.8206 386.0747C 797.7737 386.0747 797.7034 386.0761 797.6096 386.0791L797.6096 386.0791L797.6096 389.5595C 796.5842 389.5009 796.0232 388.9282 796.0232 388.1489C 796.0232 387.5688 796.3132 387.1587 796.9812 386.9184zM798.26 389.5156L798.26 386.9096C 798.6526 386.9448 798.947 387.0444 799.1433 387.2085C 799.448 387.4604 799.6003 387.7871 799.6003 388.1884C 799.6003 388.915 799.0745 389.4629 798.26 389.5156z" stroke="none" fill="#333332" fill-rule="evenodd" /><path id="20" transform="matrix(1 0 0 -1 0 612)" d="M796.8713 385.4257L796.9944 384.6434C 796.3674 384.5555 796.0232 384.1556 796.0232 383.4349C 796.0232 382.7084 796.3674 382.3627 796.7659 382.3627C 796.9446 382.3627 797.0852 382.4403 797.1877 382.5956C 797.2581 382.704 797.3474 382.9735 797.4558 383.4042C 797.6023 383.9843 797.729 384.3864 797.8359 384.6105C 797.9429 384.8346 798.0908 385.0045 798.2798 385.1202C 798.4688 385.236 798.6775 385.2938 798.906 385.2938C 799.322 385.2938 799.6912 385.0902 799.9255 384.7621C 800.1072 384.516 800.2507 384.0619 800.2507 383.5756C 800.2507 383.2094 800.198 382.8878 800.0925 382.611C 799.9871 382.3341 799.8442 382.1298 799.6641 381.9979C 799.4839 381.8661 799.2429 381.7753 798.9412 381.7255L798.9412 381.7255L798.8357 382.4989C 799.3162 382.5692 799.6003 382.9032 799.6003 383.5184C 799.6003 384.245 799.3206 384.5292 798.9983 384.5292C 798.8958 384.5292 798.8035 384.4969 798.7214 384.4325C 798.6365 384.368 798.5662 384.267 798.5105 384.1293C 798.4812 384.0502 798.4138 383.8173 798.3083 383.4305C 798.1589 382.871 798.0366 382.4806 797.9414 382.2594C 797.8462 382.0382 797.7078 381.8646 797.5261 381.7386C 797.3445 381.6127 797.1189 381.5497 796.8494 381.5497C 796.5857 381.5497 796.3374 381.6266 796.1045 381.7804C 795.8716 381.9342 795.6914 382.1561 795.564 382.4462C 795.4365 382.7362 795.3728 383.0643 795.3728 383.4305C 795.3728 384.6434 795.8811 385.2499 796.8713 385.4257z" stroke="none" fill="#333332" fill-rule="evenodd" /></g></g></svg>