<svg xmlns="http://www.w3.org/2000/svg" xmlns:xlink="http://www.w3.org/1999/xlink" id="body_5" preserveAspectRatio="xMinYMin meet" viewBox="0 0 1144 816"><defs><clipPath id="1"><path id="" clip-rule="evenodd" transform="matrix(1 0 0 1 0 0)" d="M0 612L0 -0.28302L0 -0.28302L858.898 -0.28302L858.898 -0.28302L858.898 612L858.898 612L0 612z" /></clipPath><clipPath id="2"><path id="" clip-rule="evenodd" transform="matrix(1 0 0 1 0 0)" d="M0 -0.28302L858.898 -0.28302L858.898 -0.28302L858.898 612L858.898 612L0 612z" /></clipPath><clipPath id="3"><path id="" clip-rule="evenodd" transform="matrix(1 0 0 1 0 0)" d="M55.275 56.409L780.236 56.409L780.236 56.409L780.236 555.307L780.236 555.307L55.275 555.307z" /></clipPath><clipPath id="4"><path id="" clip-rule="evenodd" transform="matrix(1 0 0 1 0 0)" d="M657.501 375.874L779.522 375.874L779.522 375.874L779.522 284.599L779.522 284.599L657.501 284.599z" /></clipPath><clipPath id="5"><path id="" clip-rule="evenodd" transform="matrix(1 0 0 1 0 0)" d="M538.025 541.135L775.747 541.135L775.747 541.135L775.747 392.315L775.747 392.315L538.025 392.315z" /></clipPath></defs><g transform="matrix(1.333333 0 0 1.333333 0 0)"><g clip-path="url(#1)"><g clip-path="url(#2)"><path id="1" transform="matrix(1 0 0 -1 0 612)" d="M802.6706 188.9571C 802.1506 189.1171 801.2673 189.4704 800.6806 189.7371C 799.7873 190.1638 799.5806 190.3071 799.4606 190.5871L799.4606 190.5871L798.8806 190.4371C 798.9739 189.9171 798.9806 189.8838 799.0206 189.5371C 799.1006 188.6838 799.0973 188.6838 799.1106 188.5371C 798.1506 189.2171 797.8339 189.4671 797.4206 189.8271C 797.1939 190.0271 797.1306 190.1304 797.0506 190.3571L797.0506 190.3571L796.3906 190.1771C 796.4706 189.8438 796.5106 189.6771 796.5506 189.4371C 796.8706 187.6104 796.9473 187.1771 796.9606 187.0971L796.9606 187.0971L797.5906 187.0271C 797.4173 187.7738 797.3973 187.8471 797.1306 189.3671C 797.8906 188.7271 798.5873 188.1771 799.0806 187.8571C 800.0406 187.2304 800.0506 187.2338 800.4106 186.9671L800.4106 186.9671L800.7306 187.5871C 800.2639 187.8404 800.2206 187.8704 799.6606 188.1771C 799.5806 189.0838 799.5839 189.0804 799.5306 189.7471C 799.7706 189.5871 799.8506 189.5538 800.0506 189.4471C 800.2906 189.3271 801.1439 188.8971 801.2106 188.8571C 802.1306 188.4571 802.1339 188.4538 802.4006 188.3071zM798.4506 185.7771L798.4506 183.3171C 798.4506 182.8904 798.4373 182.6204 798.4106 182.3271C 798.6772 182.3671 798.9406 182.3671 799.3406 182.3671L799.3406 182.3671L801.2306 182.3671C 801.7506 182.3671 801.9439 182.3638 802.2106 182.3371C 802.1706 182.6038 802.1706 182.8871 802.1706 183.2871L802.1706 183.2871L802.1706 185.6871C 802.1706 186.0471 802.1906 186.3371 802.2306 186.6171L802.2306 186.6171L801.5306 186.6171C 801.5573 186.3771 801.5806 186.0871 801.5806 185.6871L801.5806 185.6871L801.5806 182.9971L801.5806 182.9971L799.0306 182.9971L799.0306 182.9971L799.0306 185.4971C 799.0306 185.8838 799.0306 186.1638 799.0706 186.4571C 798.8306 186.4171 798.5773 186.4071 798.1106 186.4071L798.1106 186.4071L794.7206 186.4071C 793.9872 186.4071 793.8806 186.1338 793.8806 184.1871C 793.8806 181.8804 793.9506 181.8004 796.2706 181.5871C 796.3239 181.8271 796.424 182.0571 796.5706 182.2571C 795.504 182.2971 794.9406 182.3771 794.7406 182.5371C 794.5406 182.6971 794.4906 183.0938 794.4906 184.3071C 794.4906 185.6004 794.5406 185.7771 794.8606 185.7771zM795.7206 186.9571C 795.4806 187.6504 795.2506 188.5638 795.0906 189.4571C 795.0106 189.9104 794.9506 190.3838 794.9506 190.5571C 794.9506 190.5838 794.9506 190.6004 794.9506 190.6271L794.9506 190.6271L794.2306 190.4771C 794.2706 190.3571 794.2839 190.3238 794.3506 189.9771C 794.5506 188.8838 794.7906 187.9371 795.0706 186.9771z" stroke="none" fill="#323232" fill-rule="evenodd" /><path id="2" transform="matrix(1 0 0 -1 0 612)" d="M801.6006 177.3271L801.8606 177.3271C 802.114 177.3271 802.3306 177.3171 802.5706 177.2771L802.5706 177.2771L802.5706 177.9971C 802.3306 177.9571 802.1006 177.9371 801.8606 177.9371L801.8606 177.9371L801.6006 177.9371L801.6006 177.9371L801.6006 179.4271C 801.6006 179.9204 801.6206 180.2671 801.6606 180.5471L801.6606 180.5471L800.9906 180.5471C 801.0306 180.2671 801.0406 179.9604 801.0406 179.4271L801.0406 179.4271L801.0406 177.9371L801.0406 177.9371L800.7306 177.9371C 800.4773 177.9371 800.2706 177.9504 800.0706 177.9771L800.0706 177.9771L800.0706 177.2871C 800.2706 177.3271 800.4473 177.3271 800.7406 177.3271L800.7406 177.3271L801.0406 177.3271L801.0406 177.3271L801.0406 175.0171L801.0406 175.0171L800.7306 175.0171C 800.4639 175.0171 800.2839 175.0304 800.0706 175.0571L800.0706 175.0571L800.0706 174.3671C 800.2706 174.4071 800.4506 174.4071 800.7306 174.4071L800.7306 174.4071L801.0406 174.4071L801.0406 174.4071L801.0406 172.8671C 801.0406 172.3471 801.0306 172.0438 800.9906 171.7371L800.9906 171.7371L801.6606 171.7371C 801.6206 172.0438 801.6006 172.3871 801.6006 172.8671L801.6006 172.8671L801.6006 174.4071L801.6006 174.4071L801.8606 174.4071C 802.1006 174.4071 802.3439 174.3971 802.5706 174.3571L802.5706 174.3571L802.5706 175.0771C 802.3306 175.0371 802.1006 175.0171 801.8606 175.0171L801.8606 175.0171L801.6006 175.0171zM798.7206 172.8371C 798.7206 172.4104 798.7006 172.0704 798.6606 171.7371L798.6606 171.7371L799.3506 171.7371C 799.3106 172.0571 799.2906 172.3971 799.2906 172.8371L799.2906 172.8371L799.2906 176.4971C 799.4506 176.4171 799.5206 176.3871 799.6806 176.3071C 800.0139 176.1471 800.0472 176.1204 800.2206 176.0271L800.2206 176.0271L800.3706 176.7671C 800.0106 176.8471 799.7306 176.9404 799.2906 177.1671L799.2906 177.1671L799.2906 179.3771C 799.2906 179.8304 799.3106 180.1904 799.3506 180.4971L799.3506 180.4971L798.6606 180.4971C 798.7006 180.1771 798.7206 179.8171 798.7206 179.3771L798.7206 179.3771L798.7206 177.5071C 797.5606 178.2938 796.8439 179.1138 796.0706 180.5671C 795.8306 180.3271 795.8306 180.3271 795.6306 180.2071C 795.6039 180.2071 795.5706 180.1871 795.5306 180.1471C 796.1172 179.2538 796.2706 179.0571 796.7906 178.4571L796.7906 178.4571L794.6406 178.4571C 794.2273 178.4571 793.9539 178.4771 793.7006 178.5171L793.7006 178.5171L793.7006 177.8171L793.7006 177.8171L794.2606 177.8171L794.2606 177.8171L794.2606 173.5371L794.2606 173.5371L793.6906 173.5371L793.6906 173.5371L793.6906 172.8271C 794.0239 172.8671 794.314 172.8871 794.6206 172.8871L794.6206 172.8871L796.5006 172.8871C 796.8606 172.8871 797.1306 172.8771 797.4506 172.8371C 797.4106 173.0904 797.4006 173.2971 797.4006 173.7771L797.4006 173.7771L797.4006 177.8271C 797.8006 177.4671 798.0939 177.2271 798.7206 176.8271zM796.8406 177.8171L796.8406 173.5371L796.8406 173.5371L794.8306 173.5371L794.8306 173.5371L794.8306 177.8171z" stroke="none" fill="#323232" fill-rule="evenodd" /><path id="3" transform="matrix(1 0 0 -1 0 612)" d="M800.7206 165.3971L800.7206 167.1371C 800.7206 167.5371 800.7206 167.8238 800.7606 168.0371C 800.5073 168.0104 800.2306 167.9971 799.8706 167.9971L799.8706 167.9971L797.6906 167.9971C 797.184 167.9971 796.8906 168.0071 796.5706 168.0471L796.5706 168.0471L796.5706 167.3671L796.5706 167.3671L797.1206 167.3671L797.1206 167.3671L797.1206 165.3971L797.1206 165.3971L794.9406 165.3971C 794.4073 165.3971 794.0773 165.4271 793.7306 165.4671L793.7306 165.4671L793.7306 164.6871C 794.0906 164.7404 794.3806 164.7571 794.9406 164.7571L794.9406 164.7571L797.1206 164.7571L797.1206 164.7571L797.1206 162.6171L797.1206 162.6171L796.5706 162.6171L796.5706 162.6171L796.5706 161.9171C 796.9039 161.9571 797.2139 161.9771 797.6806 161.9771L797.6806 161.9771L799.8306 161.9771C 800.2706 161.9771 800.5206 161.9771 800.7606 161.9371C 800.7206 162.1504 800.7206 162.4371 800.7206 162.8771L800.7206 162.8771L800.7206 164.7571L800.7206 164.7571L801.4906 164.7571C 802.0239 164.7571 802.3073 164.7404 802.6406 164.6871L802.6406 164.6871L802.6406 165.4671C 802.3206 165.4271 802.0073 165.3971 801.5006 165.3971zM797.7106 165.3971L797.7106 167.3671L797.7106 167.3671L800.1306 167.3671L800.1306 167.3671L800.1306 165.3971zM797.7106 164.7571L800.1306 164.7571L800.1306 164.7571L800.1306 162.6171L800.1306 162.6171L797.7106 162.6171zM801.9106 170.3971C 801.2706 169.7704 800.8606 169.4538 800.0206 168.9471L800.0206 168.9471L800.4706 168.4171C 801.2039 168.9104 801.6273 169.2338 802.3206 169.8871zM798.0206 168.8871C 796.8606 169.2871 795.9406 169.7271 795.1006 170.2871C 794.8473 170.4604 794.7273 170.5571 794.6206 170.6771L794.6206 170.6771L794.1106 170.0671C 794.2706 170.0004 794.3239 169.9771 794.7106 169.7371C 795.6039 169.2171 796.3339 168.8671 797.5206 168.3871z" stroke="none" fill="#323232" fill-rule="evenodd" /></g><path id="4" transform="matrix(1 0 0 -1 0 612)" d="M55.276 56.693L780.237 56.693L780.237 555.591L55.276 555.591z" stroke="none" fill="#DCDDDE" fill-rule="nonzero" /><g clip-path="url(#3)"><g transform="matrix(0.4998729 0 0 0.4998977 54.09842 56.40948)"><g transform="matrix(1 0 0 1 0 0)"><image x="0" y="0" xlink:href="img_09.png" width="1455" height="1000" /></g></g></g><path id="241" transform="matrix(1 0 0 -1 0 612)" d="M795.8282 490.2613L801.5103 490.2613L801.5103 490.2613L801.5103 492.3839L801.5103 492.3839L802.2706 492.3839L802.2706 492.3839L802.2706 487.2774L802.2706 487.2774L801.5103 487.2774L801.5103 487.2774L801.5103 489.4088L801.5103 489.4088L795.8282 489.4088z" stroke="none" fill="#323232" fill-rule="evenodd" /><path id="242" transform="matrix(1 0 0 -1 0 612)" d="M795.8282 486.5025L802.2706 486.5025L802.2706 486.5025L802.2706 485.7115L802.2706 485.7115L799.959 485.7115C 800.3868 485.3424 800.6006 484.8766 800.6006 484.3141C 800.6006 483.9684 800.5325 483.6681 800.3963 483.4132C 800.2601 483.1583 800.0718 482.9759 799.8316 482.8661C 799.5914 482.7562 799.2427 482.7013 798.7857 482.7013L798.7857 482.7013L795.8282 482.7013L795.8282 482.7013L795.8282 483.4923L795.8282 483.4923L798.7857 483.4923C 799.5767 483.4923 799.9195 483.8497 799.9195 484.4767C 799.9195 484.711 799.8587 484.9315 799.7371 485.138C 799.6155 485.3446 799.4507 485.4918 799.2427 485.5797C 799.0347 485.6676 798.7476 485.7115 798.3814 485.7115L798.3814 485.7115L795.8282 485.7115z" stroke="none" fill="#323232" fill-rule="evenodd" /><path id="243" transform="matrix(1 0 0 -1 0 612)" d="M797.3311 478.3037L797.23 477.4863C 796.275 477.7441 795.7227 478.4546 795.7227 479.5386C 795.7227 480.9038 796.6046 481.7622 798.1221 481.7622C 799.6924 481.7622 800.6006 480.8716 800.6006 479.5825C 800.6006 478.3345 799.7115 477.46 798.1705 477.46C 798.1236 477.46 798.0533 477.4614 797.9595 477.4644L797.9595 477.4644L797.9595 480.9448C 796.9341 480.8862 796.3731 480.3135 796.3731 479.5342C 796.3731 478.9541 796.6631 478.5439 797.3311 478.3037zM798.6099 480.9009L798.6099 478.2949C 799.0025 478.3301 799.2969 478.4297 799.4932 478.5938C 799.7979 478.8457 799.9503 479.1724 799.9503 479.5737C 799.9503 480.3003 799.4244 480.8481 798.6099 480.9009z" stroke="none" fill="#323232" fill-rule="evenodd" /><path id="245" transform="matrix(1 0 0 -1 0 612)" d="M795.8282 472.7664L802.2706 474.4759L802.2706 474.4759L802.2706 473.6014L802.2706 473.6014L798.0474 472.6214C 797.605 472.516 797.1656 472.4251 796.7291 472.349C 797.4175 472.1849 797.8145 472.0882 797.92 472.0589L797.92 472.0589L802.2706 470.8329L802.2706 470.8329L802.2706 469.8045L802.2706 469.8045L799.0098 468.8817C 798.2012 468.6502 797.441 468.4832 796.7291 468.3807C 797.1363 468.2987 797.6036 468.1917 798.1309 468.0599L798.1309 468.0599L802.2706 467.0492L802.2706 467.0492L802.2706 466.1922L802.2706 466.1922L795.8282 467.9588L795.8282 467.9588L795.8282 468.7806L795.8282 468.7806L800.7369 470.1385C 801.147 470.2528 801.399 470.3202 801.4927 470.3407C 801.1968 470.4081 800.9449 470.471 800.7369 470.5296L800.7369 470.5296L795.8282 471.8963z" stroke="none" fill="#323232" fill-rule="evenodd" /><path id="246" transform="matrix(1 0 0 -1 0 612)" d="M798.1617 465.953C 799.0259 465.953 799.6661 465.7127 800.0821 465.2323C 800.4278 464.8309 800.6006 464.3416 800.6006 463.7645C 800.6006 462.4813 799.71 461.5804 798.2276 461.5804C 797.627 461.5804 797.1546 461.6705 796.8104 461.8507C 796.4661 462.0309 796.1988 462.2931 796.0084 462.6373C 795.8179 462.9815 795.7227 463.3573 795.7227 463.7645C 795.7227 465.0711 796.5855 465.953 798.1617 465.953zM798.1617 465.14C 796.9664 465.14 796.3731 464.5555 796.3731 463.7645C 796.3731 462.9793 796.9634 462.3934 798.188 462.3934C 799.3423 462.3934 799.9459 462.9852 799.9459 463.7645C 799.9459 464.5555 799.357 465.14 798.1617 465.14z" stroke="none" fill="#323232" fill-rule="evenodd" /><path id="247" transform="matrix(1 0 0 -1 0 612)" d="M795.8282 460.6545L800.4952 460.6545L800.4952 460.6545L800.4952 459.9426L800.4952 459.9426L799.8316 459.9426C 800.3443 459.5999 800.6006 459.1047 800.6006 458.4573C 800.6006 458.176 800.5501 457.9175 800.449 457.6816C 800.348 457.4458 800.2154 457.2693 800.0513 457.1521C 799.8873 457.0349 799.6924 456.9529 799.4669 456.906C 799.3204 456.8767 799.064 456.8621 798.6978 456.8621L798.6978 456.8621L795.8282 456.8621L795.8282 456.8621L795.8282 457.6531L795.8282 457.6531L798.6671 457.6531C 798.9893 457.6531 799.2303 457.6838 799.39 457.7454C 799.5496 457.8069 799.6771 457.916 799.7723 458.0728C 799.8675 458.2295 799.9151 458.4133 799.9151 458.6243C 799.9151 459.2981 799.5723 459.8635 798.377 459.8635L798.377 459.8635L795.8282 459.8635z" stroke="none" fill="#323232" fill-rule="evenodd" /><path id="248" transform="matrix(1 0 0 -1 0 612)" d="M795.8282 452.6227L796.4171 452.6227C 795.9542 452.9186 795.7227 453.3537 795.7227 453.9279C 795.7227 454.3 795.8253 454.642 796.0303 454.954C 796.2354 455.266 796.5218 455.5077 796.8895 455.6791C 797.2571 455.8505 797.6797 455.9362 798.1573 455.9362C 798.6231 455.9362 799.0457 455.8586 799.4251 455.7033C 799.8045 455.548 800.0953 455.3151 800.2974 455.0045C 800.4996 454.694 800.6006 454.3468 800.6006 453.963C 800.6006 453.4005 800.3399 452.9508 799.959 452.6754L799.959 452.6754L802.2706 452.6754L802.2706 452.6754L802.2706 451.8888L802.2706 451.8888L795.8282 451.8888zM798.1573 455.1232C 796.962 455.1232 796.3731 454.5387 796.3731 453.8532C 796.3731 453.1618 796.9312 452.6095 798.0914 452.6095C 799.3687 452.6095 799.9459 453.1676 799.9459 453.8883C 799.9459 454.5915 799.3936 455.1232 798.1573 455.1232z" stroke="none" fill="#323232" fill-rule="evenodd" /><path id="249" transform="matrix(1 0 0 -1 0 612)" d="M797.3311 447.4517L797.23 446.6343C 796.275 446.8922 795.7227 447.6026 795.7227 448.6866C 795.7227 450.0518 796.6046 450.9102 798.1221 450.9102C 799.6924 450.9102 800.6006 450.0196 800.6006 448.7305C 800.6006 447.4825 799.7115 446.608 798.1705 446.608C 798.1236 446.608 798.0533 446.6094 797.9595 446.6124L797.9595 446.6124L797.9595 450.0928C 796.9341 450.0342 796.3731 449.4615 796.3731 448.6822C 796.3731 448.1021 796.6631 447.692 797.3311 447.4517zM798.6099 450.0489L798.6099 447.4429C 799.0025 447.4781 799.2969 447.5777 799.4932 447.7418C 799.7979 447.9937 799.9503 448.3204 799.9503 448.7217C 799.9503 449.4483 799.4244 449.9962 798.6099 450.0489z" stroke="none" fill="#323232" fill-rule="evenodd" /><path id="250" transform="matrix(1 0 0 -1 0 612)" d="M795.8282 445.6513L800.4952 445.6513L800.4952 445.6513L800.4952 444.9394L800.4952 444.9394L799.7877 444.9394C 800.4498 444.5761 800.6006 444.2978 800.6006 443.9287C 800.6006 443.6621 800.5157 443.3911 800.3458 443.1157L800.3458 443.1157L799.6119 443.3882C 799.7261 443.5815 799.7833 443.7749 799.7833 443.9682C 799.7833 444.3139 799.5635 444.6113 799.1944 444.7285C 798.9131 444.8164 798.6055 444.8603 798.2715 444.8603L798.2715 444.8603L795.8282 444.8603z" stroke="none" fill="#323232" fill-rule="evenodd" /><path id="252" transform="matrix(1 0 0 -1 0 612)" d="M798.9659 440.3018C 801.1046 440.3018 802.3848 439.0332 802.3848 437.2168C 802.3848 436.622 802.2427 436.0859 801.9586 435.6084C 801.6744 435.1309 801.2781 434.7668 800.7698 434.5164C 800.2615 434.2659 799.6851 434.1406 799.0406 434.1406C 798.3873 434.1406 797.8028 434.2725 797.2872 434.5361C 796.7715 434.7998 796.3812 435.1733 796.116 435.6567C 795.8509 436.1401 795.7183 436.6616 795.7183 437.2212C 795.7183 437.8276 795.8648 438.3696 796.1578 438.8472C 796.4507 439.3247 796.8506 439.6865 797.3575 439.9326C 797.8643 440.1787 798.4005 440.3018 798.9659 440.3018zM798.9527 439.4229C 797.4 439.4229 796.4478 438.4853 796.4478 437.2256C 796.4478 435.9424 797.3868 435.0195 799.045 435.0195C 799.5694 435.0195 800.0272 435.1081 800.4183 435.2854C 800.8094 435.4626 801.1126 435.7219 801.3279 436.0632C 801.5433 436.4045 801.6509 436.7876 801.6509 437.2124C 801.6509 438.4194 800.8922 439.4229 798.9527 439.4229z" stroke="none" fill="#323232" fill-rule="evenodd" /><path id="253" transform="matrix(1 0 0 -1 0 612)" d="M795.8282 433.1415L800.4952 433.1415L800.4952 433.1415L800.4952 432.4296L800.4952 432.4296L799.8316 432.4296C 800.3443 432.0869 800.6006 431.5917 800.6006 430.9443C 800.6006 430.663 800.5501 430.4045 800.449 430.1686C 800.348 429.9328 800.2154 429.7563 800.0513 429.6391C 799.8873 429.5219 799.6924 429.4399 799.4669 429.393C 799.3204 429.3637 799.064 429.3491 798.6978 429.3491L798.6978 429.3491L795.8282 429.3491L795.8282 429.3491L795.8282 430.1401L795.8282 430.1401L798.6671 430.1401C 798.9893 430.1401 799.2303 430.1708 799.39 430.2324C 799.5496 430.2939 799.6771 430.403 799.7723 430.5598C 799.8675 430.7165 799.9151 430.9003 799.9151 431.1113C 799.9151 431.7851 799.5723 432.3505 798.377 432.3505L798.377 432.3505L795.8282 432.3505z" stroke="none" fill="#323232" fill-rule="evenodd" /><path id="254" transform="matrix(1 0 0 -1 0 612)" d="M797.3311 424.9427L797.23 424.1253C 796.275 424.3831 795.7227 425.0936 795.7227 426.1776C 795.7227 427.5428 796.6046 428.4012 798.1221 428.4012C 799.6924 428.4012 800.6006 427.5106 800.6006 426.2215C 800.6006 424.9735 799.7115 424.099 798.1705 424.099C 798.1236 424.099 798.0533 424.1004 797.9595 424.1034L797.9595 424.1034L797.9595 427.5838C 796.9341 427.5252 796.3731 426.9525 796.3731 426.1732C 796.3731 425.5931 796.6631 425.183 797.3311 424.9427zM798.6099 427.5399L798.6099 424.9339C 799.0025 424.9691 799.2969 425.0687 799.4932 425.2328C 799.7979 425.4847 799.9503 425.8114 799.9503 426.2127C 799.9503 426.9393 799.4244 427.4872 798.6099 427.5399z" stroke="none" fill="#323232" fill-rule="evenodd" /><path id="255" transform="matrix(1 0 0 -1 0 612)" d="M797.2213 423.45L797.3443 422.6677C 796.7173 422.5798 796.3731 422.1799 796.3731 421.4592C 796.3731 420.7327 796.7173 420.387 797.1158 420.387C 797.2945 420.387 797.4351 420.4646 797.5377 420.6199C 797.608 420.7283 797.6973 420.9978 797.8057 421.4285C 797.9522 422.0085 798.0789 422.4106 798.1859 422.6348C 798.2928 422.8589 798.4407 423.0288 798.6297 423.1445C 798.8187 423.2603 799.0274 423.3181 799.2559 423.3181C 799.6719 423.3181 800.0411 423.1145 800.2755 422.7864C 800.4571 422.5403 800.6006 422.0862 800.6006 421.5999C 800.6006 421.2336 800.5479 420.9121 800.4424 420.6353C 800.337 420.3584 800.1942 420.1541 800.014 420.0222C 799.8338 419.8904 799.5928 419.7996 799.2911 419.7498L799.2911 419.7498L799.1856 420.5232C 799.6661 420.5935 799.9503 420.9275 799.9503 421.5427C 799.9503 422.2693 799.6705 422.5535 799.3482 422.5535C 799.2457 422.5535 799.1534 422.5212 799.0714 422.4568C 798.9864 422.3923 798.9161 422.2913 798.8604 422.1536C 798.8311 422.0745 798.7637 421.8416 798.6583 421.4548C 798.5089 420.8953 798.3865 420.5049 798.2913 420.2837C 798.1961 420.0625 798.0577 419.8889 797.876 419.7629C 797.6944 419.637 797.4688 419.574 797.1993 419.574C 796.9356 419.574 796.6873 419.6509 796.4544 419.8047C 796.2215 419.9585 796.0413 420.1804 795.9139 420.4705C 795.7864 420.7605 795.7227 421.0886 795.7227 421.4548C 795.7227 422.6677 796.231 423.2742 797.2213 423.45z" stroke="none" fill="#323232" fill-rule="evenodd" /><g clip-path="url(#4)"><g transform="matrix(0.4980451 0 0 0.4987738 657.5013 284.5984)"><g transform="matrix(1 0 0 1 0 0)"><image x="0" y="0" xlink:href="img_10.png" width="245" height="183" /></g></g></g><g clip-path="url(#5)"><g transform="matrix(0.499497 0 0 0.4996949 538.025 391.2296)"><g transform="matrix(1 0 0 1 0 0)"><image x="0" y="0" xlink:href="img_11.png" width="478" height="302" /></g></g></g></g></g></svg>