<svg xmlns="http://www.w3.org/2000/svg" xmlns:xlink="http://www.w3.org/1999/xlink" id="body_7" preserveAspectRatio="xMinYMin meet" viewBox="0 0 1144 816"><defs><clipPath id="1"><path id="" clip-rule="evenodd" transform="matrix(1 0 0 1 0 0)" d="M0 612L0 -0.28302L0 -0.28302L858.898 -0.28302L858.898 -0.28302L858.898 612L858.898 612L0 612z" /></clipPath><clipPath id="2"><path id="" clip-rule="evenodd" transform="matrix(1 0 0 1 0 0)" d="M0 -0.28302L858.898 -0.28302L858.898 -0.28302L858.898 612L858.898 612L0 612z" /></clipPath><clipPath id="3"><path id="" clip-rule="evenodd" transform="matrix(1 0 0 1 0 0)" d="M56.693 555.307L802.205 555.307L802.205 555.307L802.205 56.409L802.205 56.409L56.693 56.409z" /></clipPath></defs><g transform="matrix(1.333333 0 0 1.333333 0 0)"><g clip-path="url(#1)"><g clip-path="url(#2)"><path id="1" transform="matrix(1 0 0 -1 0 612)" d="M802.6706 188.9571C 802.1506 189.1171 801.2673 189.4704 800.6806 189.7371C 799.7873 190.1638 799.5806 190.3071 799.4606 190.5871L799.4606 190.5871L798.8806 190.4371C 798.9739 189.9171 798.9806 189.8838 799.0206 189.5371C 799.1006 188.6838 799.0973 188.6838 799.1106 188.5371C 798.1506 189.2171 797.8339 189.4671 797.4206 189.8271C 797.1939 190.0271 797.1306 190.1304 797.0506 190.3571L797.0506 190.3571L796.3906 190.1771C 796.4706 189.8438 796.5106 189.6771 796.5506 189.4371C 796.8706 187.6104 796.9473 187.1771 796.9606 187.0971L796.9606 187.0971L797.5906 187.0271C 797.4173 187.7738 797.3973 187.8471 797.1306 189.3671C 797.8906 188.7271 798.5873 188.1771 799.0806 187.8571C 800.0406 187.2304 800.0506 187.2338 800.4106 186.9671L800.4106 186.9671L800.7306 187.5871C 800.2639 187.8404 800.2206 187.8704 799.6606 188.1771C 799.5806 189.0838 799.5839 189.0804 799.5306 189.7471C 799.7706 189.5871 799.8506 189.5538 800.0506 189.4471C 800.2906 189.3271 801.1439 188.8971 801.2106 188.8571C 802.1306 188.4571 802.1339 188.4538 802.4006 188.3071zM798.4506 185.7771L798.4506 183.3171C 798.4506 182.8904 798.4373 182.6204 798.4106 182.3271C 798.6772 182.3671 798.9406 182.3671 799.3406 182.3671L799.3406 182.3671L801.2306 182.3671C 801.7506 182.3671 801.9439 182.3638 802.2106 182.3371C 802.1706 182.6038 802.1706 182.8871 802.1706 183.2871L802.1706 183.2871L802.1706 185.6871C 802.1706 186.0471 802.1906 186.3371 802.2306 186.6171L802.2306 186.6171L801.5306 186.6171C 801.5573 186.3771 801.5806 186.0871 801.5806 185.6871L801.5806 185.6871L801.5806 182.9971L801.5806 182.9971L799.0306 182.9971L799.0306 182.9971L799.0306 185.4971C 799.0306 185.8838 799.0306 186.1638 799.0706 186.4571C 798.8306 186.4171 798.5773 186.4071 798.1106 186.4071L798.1106 186.4071L794.7206 186.4071C 793.9872 186.4071 793.8806 186.1338 793.8806 184.1871C 793.8806 181.8804 793.9506 181.8004 796.2706 181.5871C 796.3239 181.8271 796.424 182.0571 796.5706 182.2571C 795.504 182.2971 794.9406 182.3771 794.7406 182.5371C 794.5406 182.6971 794.4906 183.0938 794.4906 184.3071C 794.4906 185.6004 794.5406 185.7771 794.8606 185.7771zM795.7206 186.9571C 795.4806 187.6504 795.2506 188.5638 795.0906 189.4571C 795.0106 189.9104 794.9506 190.3838 794.9506 190.5571C 794.9506 190.5838 794.9506 190.6004 794.9506 190.6271L794.9506 190.6271L794.2306 190.4771C 794.2706 190.3571 794.2839 190.3238 794.3506 189.9771C 794.5506 188.8838 794.7906 187.9371 795.0706 186.9771z" stroke="none" fill="#333332" fill-rule="evenodd" /><path id="2" transform="matrix(1 0 0 -1 0 612)" d="M801.6006 177.3271L801.8606 177.3271C 802.114 177.3271 802.3306 177.3171 802.5706 177.2771L802.5706 177.2771L802.5706 177.9971C 802.3306 177.9571 802.1006 177.9371 801.8606 177.9371L801.8606 177.9371L801.6006 177.9371L801.6006 177.9371L801.6006 179.4271C 801.6006 179.9204 801.6206 180.2671 801.6606 180.5471L801.6606 180.5471L800.9906 180.5471C 801.0306 180.2671 801.0406 179.9604 801.0406 179.4271L801.0406 179.4271L801.0406 177.9371L801.0406 177.9371L800.7306 177.9371C 800.4773 177.9371 800.2706 177.9504 800.0706 177.9771L800.0706 177.9771L800.0706 177.2871C 800.2706 177.3271 800.4473 177.3271 800.7406 177.3271L800.7406 177.3271L801.0406 177.3271L801.0406 177.3271L801.0406 175.0171L801.0406 175.0171L800.7306 175.0171C 800.4639 175.0171 800.2839 175.0304 800.0706 175.0571L800.0706 175.0571L800.0706 174.3671C 800.2706 174.4071 800.4506 174.4071 800.7306 174.4071L800.7306 174.4071L801.0406 174.4071L801.0406 174.4071L801.0406 172.8671C 801.0406 172.3471 801.0306 172.0438 800.9906 171.7371L800.9906 171.7371L801.6606 171.7371C 801.6206 172.0438 801.6006 172.3871 801.6006 172.8671L801.6006 172.8671L801.6006 174.4071L801.6006 174.4071L801.8606 174.4071C 802.1006 174.4071 802.3439 174.3971 802.5706 174.3571L802.5706 174.3571L802.5706 175.0771C 802.3306 175.0371 802.1006 175.0171 801.8606 175.0171L801.8606 175.0171L801.6006 175.0171zM798.7206 172.8371C 798.7206 172.4104 798.7006 172.0704 798.6606 171.7371L798.6606 171.7371L799.3506 171.7371C 799.3106 172.0571 799.2906 172.3971 799.2906 172.8371L799.2906 172.8371L799.2906 176.4971C 799.4506 176.4171 799.5206 176.3871 799.6806 176.3071C 800.0139 176.1471 800.0472 176.1204 800.2206 176.0271L800.2206 176.0271L800.3706 176.7671C 800.0106 176.8471 799.7306 176.9404 799.2906 177.1671L799.2906 177.1671L799.2906 179.3771C 799.2906 179.8304 799.3106 180.1904 799.3506 180.4971L799.3506 180.4971L798.6606 180.4971C 798.7006 180.1771 798.7206 179.8171 798.7206 179.3771L798.7206 179.3771L798.7206 177.5071C 797.5606 178.2938 796.8439 179.1138 796.0706 180.5671C 795.8306 180.3271 795.8306 180.3271 795.6306 180.2071C 795.6039 180.2071 795.5706 180.1871 795.5306 180.1471C 796.1172 179.2538 796.2706 179.0571 796.7906 178.4571L796.7906 178.4571L794.6406 178.4571C 794.2273 178.4571 793.9539 178.4771 793.7006 178.5171L793.7006 178.5171L793.7006 177.8171L793.7006 177.8171L794.2606 177.8171L794.2606 177.8171L794.2606 173.5371L794.2606 173.5371L793.6906 173.5371L793.6906 173.5371L793.6906 172.8271C 794.0239 172.8671 794.314 172.8871 794.6206 172.8871L794.6206 172.8871L796.5006 172.8871C 796.8606 172.8871 797.1306 172.8771 797.4506 172.8371C 797.4106 173.0904 797.4006 173.2971 797.4006 173.7771L797.4006 173.7771L797.4006 177.8271C 797.8006 177.4671 798.0939 177.2271 798.7206 176.8271zM796.8406 177.8171L796.8406 173.5371L796.8406 173.5371L794.8306 173.5371L794.8306 173.5371L794.8306 177.8171z" stroke="none" fill="#333332" fill-rule="evenodd" /><path id="3" transform="matrix(1 0 0 -1 0 612)" d="M800.7206 165.3971L800.7206 167.1371C 800.7206 167.5371 800.7206 167.8238 800.7606 168.0371C 800.5073 168.0104 800.2306 167.9971 799.8706 167.9971L799.8706 167.9971L797.6906 167.9971C 797.184 167.9971 796.8906 168.0071 796.5706 168.0471L796.5706 168.0471L796.5706 167.3671L796.5706 167.3671L797.1206 167.3671L797.1206 167.3671L797.1206 165.3971L797.1206 165.3971L794.9406 165.3971C 794.4073 165.3971 794.0773 165.4271 793.7306 165.4671L793.7306 165.4671L793.7306 164.6871C 794.0906 164.7404 794.3806 164.7571 794.9406 164.7571L794.9406 164.7571L797.1206 164.7571L797.1206 164.7571L797.1206 162.6171L797.1206 162.6171L796.5706 162.6171L796.5706 162.6171L796.5706 161.9171C 796.9039 161.9571 797.2139 161.9771 797.6806 161.9771L797.6806 161.9771L799.8306 161.9771C 800.2706 161.9771 800.5206 161.9771 800.7606 161.9371C 800.7206 162.1504 800.7206 162.4371 800.7206 162.8771L800.7206 162.8771L800.7206 164.7571L800.7206 164.7571L801.4906 164.7571C 802.0239 164.7571 802.3073 164.7404 802.6406 164.6871L802.6406 164.6871L802.6406 165.4671C 802.3206 165.4271 802.0073 165.3971 801.5006 165.3971zM797.7106 165.3971L797.7106 167.3671L797.7106 167.3671L800.1306 167.3671L800.1306 167.3671L800.1306 165.3971zM797.7106 164.7571L800.1306 164.7571L800.1306 164.7571L800.1306 162.6171L800.1306 162.6171L797.7106 162.6171zM801.9106 170.3971C 801.2706 169.7704 800.8606 169.4538 800.0206 168.9471L800.0206 168.9471L800.4706 168.4171C 801.2039 168.9104 801.6273 169.2338 802.3206 169.8871zM798.0206 168.8871C 796.8606 169.2871 795.9406 169.7271 795.1006 170.2871C 794.8473 170.4604 794.7273 170.5571 794.6206 170.6771L794.6206 170.6771L794.1106 170.0671C 794.2706 170.0004 794.3239 169.9771 794.7106 169.7371C 795.6039 169.2171 796.3339 168.8671 797.5206 168.3871z" stroke="none" fill="#333332" fill-rule="evenodd" /></g><path id="4" transform="matrix(1 0 0 -1 0 612)" d="M56.693 56.693L802.205 56.693L802.205 555.591L56.693 555.591z" stroke="none" fill="#DBDBDE" fill-rule="nonzero" /><g clip-path="url(#3)"><g transform="matrix(0.4999558 0 0 0.4996575 55.48189 55.28015)"><g transform="matrix(1 0 0 1 0 0)"><image x="0" y="0" xlink:href="img_15.png" width="1496" height="1003" /></g></g></g></g></g></svg>