<svg xmlns="http://www.w3.org/2000/svg" xmlns:xlink="http://www.w3.org/1999/xlink" id="body_4" preserveAspectRatio="xMinYMin meet" viewBox="0 0 1144 816"><defs><clipPath id="1"><path id="" clip-rule="evenodd" transform="matrix(1 0 0 1 0 0)" d="M0 612L0 -0.28302L0 -0.28302L858.898 -0.28302L858.898 -0.28302L858.898 612L858.898 612L0 612z" /></clipPath><clipPath id="2"><path id="" clip-rule="evenodd" transform="matrix(1 0 0 1 0 0)" d="M0 -0.28302L858.898 -0.28302L858.898 -0.28302L858.898 612L858.898 612L0 612z" /></clipPath><clipPath id="3"><path id="" clip-rule="evenodd" transform="matrix(1 0 0 1 0 0)" d="M69.449 555.307L814.961 555.307L814.961 555.307L814.961 56.409L814.961 56.409L69.449 56.409z" /></clipPath><clipPath id="4"><path id="" clip-rule="evenodd" transform="matrix(1 0 0 1 0 0)" d="M511.937 351.213L802.205 351.213L802.205 351.213L802.205 235.465L802.205 235.465L511.937 235.465z" /></clipPath></defs><g transform="matrix(1.333333 0 0 1.333333 0 0)"><g clip-path="url(#1)"><g clip-path="url(#2)"><path id="1" transform="matrix(1 0 0 -1 0 612)" d="M56.0365 141.0576C 56.5565 140.8976 57.43983 140.5443 58.0265 140.2776C 58.91983 139.8509 59.1265 139.7076 59.2465 139.4276L59.2465 139.4276L59.8265 139.5776C 59.73317 140.0976 59.7265 140.1309 59.6865 140.4776C 59.6065 141.3309 59.60984 141.3309 59.5965 141.4776C 60.5565 140.7976 60.87317 140.5476 61.2865 140.1876C 61.51317 139.9876 61.5765 139.8843 61.6565 139.6576L61.6565 139.6576L62.3165 139.8376C 62.2365 140.1709 62.1965 140.3376 62.1565 140.5776C 61.8365 142.4043 61.75983 142.8376 61.7465 142.9176L61.7465 142.9176L61.1165 142.9876C 61.28984 142.2409 61.30984 142.1676 61.5765 140.6476C 60.8165 141.2876 60.11983 141.8376 59.6265 142.1576C 58.6665 142.7843 58.6565 142.7809 58.2965 143.0476L58.2965 143.0476L57.9765 142.4276C 58.44317 142.1743 58.4865 142.1443 59.0465 141.8376C 59.1265 140.9309 59.12317 140.9343 59.1765 140.2676C 58.9365 140.4276 58.8565 140.4609 58.6565 140.5676C 58.4165 140.6876 57.56317 141.1176 57.4965 141.1576C 56.5765 141.5576 56.57317 141.5609 56.3065 141.7076zM60.2565 144.2376L60.2565 146.6976C 60.2565 147.1243 60.26984 147.3943 60.2965 147.6876C 60.02983 147.6476 59.7665 147.6476 59.3665 147.6476L59.3665 147.6476L57.4765 147.6476C 56.9565 147.6476 56.76317 147.6509 56.4965 147.6776C 56.5365 147.4109 56.5365 147.1276 56.5365 146.7276L56.5365 146.7276L56.5365 144.3276C 56.5365 143.9676 56.5165 143.6776 56.4765 143.3976L56.4765 143.3976L57.1765 143.3976C 57.14983 143.6376 57.1265 143.9276 57.1265 144.3276L57.1265 144.3276L57.1265 147.0176L57.1265 147.0176L59.6765 147.0176L59.6765 147.0176L59.6765 144.5176C 59.6765 144.1309 59.6765 143.8509 59.6365 143.5576C 59.8765 143.5976 60.12984 143.6076 60.5965 143.6076L60.5965 143.6076L63.9865 143.6076C 64.71983 143.6076 64.8265 143.8809 64.8265 145.8276C 64.8265 148.1343 64.7565 148.2143 62.4365 148.4276C 62.38317 148.1876 62.28317 147.9576 62.1365 147.7576C 63.20317 147.7176 63.7665 147.6376 63.9665 147.4776C 64.1665 147.3176 64.2165 146.9209 64.2165 145.7076C 64.2165 144.4143 64.1665 144.2376 63.8465 144.2376zM62.9865 143.0576C 63.2265 142.3643 63.4565 141.4509 63.6165 140.5576C 63.6965 140.1043 63.7565 139.6309 63.7565 139.4576C 63.7565 139.4309 63.7565 139.4143 63.7565 139.3876L63.7565 139.3876L64.4765 139.5376C 64.4365 139.6576 64.42317 139.6909 64.3565 140.0376C 64.1565 141.1309 63.9165 142.0776 63.6365 143.0376z" stroke="none" fill="#323232" fill-rule="evenodd" /><path id="2" transform="matrix(1 0 0 -1 0 612)" d="M57.1065 152.6876L56.8465 152.6876C 56.59317 152.6876 56.3765 152.6976 56.1365 152.7376L56.1365 152.7376L56.1365 152.0176C 56.3765 152.0576 56.6065 152.0776 56.8465 152.0776L56.8465 152.0776L57.1065 152.0776L57.1065 152.0776L57.1065 150.5876C 57.1065 150.0943 57.0865 149.7476 57.0465 149.4676L57.0465 149.4676L57.7165 149.4676C 57.6765 149.7476 57.6665 150.0543 57.6665 150.5876L57.6665 150.5876L57.6665 152.0776L57.6665 152.0776L57.9765 152.0776C 58.22984 152.0776 58.4365 152.0643 58.6365 152.0376L58.6365 152.0376L58.6365 152.7276C 58.4365 152.6876 58.25983 152.6876 57.9665 152.6876L57.9665 152.6876L57.6665 152.6876L57.6665 152.6876L57.6665 154.9976L57.6665 154.9976L57.9765 154.9976C 58.24317 154.9976 58.42317 154.9843 58.6365 154.9576L58.6365 154.9576L58.6365 155.6476C 58.4365 155.6076 58.2565 155.6076 57.9765 155.6076L57.9765 155.6076L57.6665 155.6076L57.6665 155.6076L57.6665 157.1476C 57.6665 157.6676 57.6765 157.9709 57.7165 158.2776L57.7165 158.2776L57.0465 158.2776C 57.0865 157.9709 57.1065 157.6276 57.1065 157.1476L57.1065 157.1476L57.1065 155.6076L57.1065 155.6076L56.8465 155.6076C 56.6065 155.6076 56.36317 155.6176 56.1365 155.6576L56.1365 155.6576L56.1365 154.9376C 56.3765 154.9776 56.6065 154.9976 56.8465 154.9976L56.8465 154.9976L57.1065 154.9976zM59.9865 157.1776C 59.9865 157.6043 60.0065 157.9443 60.0465 158.2776L60.0465 158.2776L59.3565 158.2776C 59.3965 157.9576 59.4165 157.6176 59.4165 157.1776L59.4165 157.1776L59.4165 153.5176C 59.2565 153.5976 59.1865 153.6276 59.0265 153.7076C 58.69317 153.8676 58.65984 153.8943 58.4865 153.9876L58.4865 153.9876L58.3365 153.2476C 58.6965 153.1676 58.9765 153.0743 59.4165 152.8476L59.4165 152.8476L59.4165 150.6376C 59.4165 150.1843 59.3965 149.8243 59.3565 149.5176L59.3565 149.5176L60.0465 149.5176C 60.0065 149.8376 59.9865 150.1976 59.9865 150.6376L59.9865 150.6376L59.9865 152.5076C 61.1465 151.7209 61.86317 150.9009 62.6365 149.4476C 62.8765 149.6876 62.8765 149.6876 63.0765 149.8076C 63.10317 149.8076 63.1365 149.8276 63.1765 149.8676C 62.58984 150.7609 62.4365 150.9576 61.9165 151.5576L61.9165 151.5576L64.06651 151.5576C 64.47984 151.5576 64.75317 151.5376 65.0065 151.4976L65.0065 151.4976L65.0065 152.1976L65.0065 152.1976L64.4465 152.1976L64.4465 152.1976L64.4465 156.4776L64.4465 156.4776L65.0165 156.4776L65.0165 156.4776L65.0165 157.1876C 64.68317 157.1476 64.39317 157.1276 64.0865 157.1276L64.0865 157.1276L62.2065 157.1276C 61.8465 157.1276 61.5765 157.1376 61.2565 157.1776C 61.2965 156.9243 61.3065 156.7176 61.3065 156.2376L61.3065 156.2376L61.3065 152.1876C 60.9065 152.5476 60.61317 152.7876 59.9865 153.1876zM61.8665 152.1976L61.8665 156.4776L61.8665 156.4776L63.8765 156.4776L63.8765 156.4776L63.8765 152.1976z" stroke="none" fill="#323232" fill-rule="evenodd" /><path id="3" transform="matrix(1 0 0 -1 0 612)" d="M57.9865 164.6176L57.9865 162.8776C 57.9865 162.4776 57.9865 162.1909 57.9465 161.9776C 58.19984 162.0043 58.4765 162.0176 58.8365 162.0176L58.8365 162.0176L61.0165 162.0176C 61.52317 162.0176 61.8165 162.0076 62.1365 161.9676L62.1365 161.9676L62.1365 162.6476L62.1365 162.6476L61.5865 162.6476L61.5865 162.6476L61.5865 164.6176L61.5865 164.6176L63.7665 164.6176C 64.29984 164.6176 64.62984 164.5876 64.9765 164.5476L64.9765 164.5476L64.9765 165.3276C 64.6165 165.2743 64.3265 165.2576 63.7665 165.2576L63.7665 165.2576L61.5865 165.2576L61.5865 165.2576L61.5865 167.3976L61.5865 167.3976L62.1365 167.3976L62.1365 167.3976L62.1365 168.0976C 61.80317 168.0576 61.49317 168.0376 61.0265 168.0376L61.0265 168.0376L58.8765 168.0376C 58.4365 168.0376 58.1865 168.0376 57.9465 168.0776C 57.9865 167.8643 57.9865 167.5776 57.9865 167.1376L57.9865 167.1376L57.9865 165.2576L57.9865 165.2576L57.2165 165.2576C 56.68317 165.2576 56.39983 165.2743 56.0665 165.3276L56.0665 165.3276L56.0665 164.5476C 56.3865 164.5876 56.69984 164.6176 57.2065 164.6176zM60.9965 164.6176L60.9965 162.6476L60.9965 162.6476L58.5765 162.6476L58.5765 162.6476L58.5765 164.6176zM60.9965 165.2576L58.5765 165.2576L58.5765 165.2576L58.5765 167.3976L58.5765 167.3976L60.9965 167.3976zM56.7965 159.6176C 57.4365 160.2443 57.8465 160.5609 58.6865 161.0676L58.6865 161.0676L58.2365 161.5976C 57.50317 161.1043 57.07983 160.7809 56.3865 160.1276zM60.6865 161.1276C 61.8465 160.7276 62.7665 160.2876 63.6065 159.7276C 63.85984 159.5543 63.97984 159.4576 64.0865 159.3376L64.0865 159.3376L64.5965 159.9476C 64.4365 160.0143 64.38317 160.0376 63.9965 160.2776C 63.10317 160.7976 62.37317 161.1476 61.1865 161.6276z" stroke="none" fill="#323232" fill-rule="evenodd" /></g><path id="4" transform="matrix(1 0 0 -1 0 612)" d="M69.449 56.693L814.961 56.693L814.961 555.591L69.449 555.591z" stroke="none" fill="#DBDBDE" fill-rule="nonzero" /><g clip-path="url(#3)"><g transform="matrix(0.4998321 0 0 0.4998975 68.83015 56.40942)"><g transform="matrix(1 0 0 1 0 0)"><image x="0" y="0" xlink:href="img_06.png" width="1494" height="998" /></g></g></g><path id="14" transform="matrix(1 0 0 -1 0 612)" d="M79.303 528.731L217.768 528.731L217.768 546.306L79.303 546.306z" stroke="none" fill="#FFFEFE" fill-rule="nonzero" /><path id="21" transform="matrix(1 0 0 -1 0 612)" d="M79.303 286.318L240.071 286.318L240.071 302.476L79.303 302.476z" stroke="none" fill="#FFFEFE" fill-rule="nonzero" /><path id="169" transform="matrix(1 0 0 -1 0 612)" d="M62.0748 417.3657L56.39267 417.3657L56.39267 417.3657L56.39267 415.2431L56.39267 415.2431L55.63242 415.2431L55.63242 415.2431L55.63242 420.3496L55.63242 420.3496L56.39267 420.3496L56.39267 420.3496L56.39267 418.2182L56.39267 418.2182L62.0748 418.2182z" stroke="none" fill="#333332" fill-rule="evenodd" /><path id="170" transform="matrix(1 0 0 -1 0 612)" d="M62.0748 421.1245L55.63242 421.1245L55.63242 421.1245L55.63242 421.9155L55.63242 421.9155L57.94394 421.9155C 57.5162 422.2846 57.30234 422.7504 57.30234 423.3129C 57.30234 423.6586 57.37045 423.9589 57.50668 424.2138C 57.64291 424.4687 57.83115 424.6511 58.07138 424.7609C 58.31161 424.8708 58.66025 424.9257 59.11728 424.9257L59.11728 424.9257L62.0748 424.9257L62.0748 424.9257L62.0748 424.1347L62.0748 424.1347L59.11728 424.1347C 58.32626 424.1347 57.98349 423.7773 57.98349 423.1503C 57.98349 422.916 58.04428 422.6955 58.16586 422.489C 58.28745 422.2824 58.45224 422.1352 58.66025 422.0473C 58.86826 421.9594 59.15536 421.9155 59.52158 421.9155L59.52158 421.9155L62.0748 421.9155z" stroke="none" fill="#333332" fill-rule="evenodd" /><path id="171" transform="matrix(1 0 0 -1 0 612)" d="M60.57187 429.3233L60.67294 430.1407C 61.62802 429.8828 62.18027 429.1724 62.18027 428.0884C 62.18027 426.7232 61.29843 425.8648 59.78085 425.8648C 58.21054 425.8648 57.30234 426.7554 57.30234 428.0445C 57.30234 429.2925 58.1915 430.167 59.73251 430.167C 59.77939 430.167 59.8497 430.1656 59.94345 430.1626L59.94345 430.1626L59.94345 426.6822C 60.96884 426.7408 61.52988 427.3135 61.52988 428.0928C 61.52988 428.6729 61.23984 429.083 60.57187 429.3233zM59.29306 426.7261L59.29306 429.3321C 58.90048 429.2969 58.60605 429.1973 58.40976 429.0332C 58.10507 428.7813 57.95273 428.4546 57.95273 428.0533C 57.95273 427.3267 58.47861 426.7788 59.29306 426.7261z" stroke="none" fill="#333332" fill-rule="evenodd" /><path id="173" transform="matrix(1 0 0 -1 0 612)" d="M62.0748 434.8605L55.63242 433.1511L55.63242 433.1511L55.63242 434.0256L55.63242 434.0256L59.85556 435.0056C 60.29794 435.111 60.7374 435.2018 61.17392 435.278C 60.48544 435.4421 60.08847 435.5388 59.983 435.5681L59.983 435.5681L55.63242 436.7941L55.63242 436.7941L55.63242 437.8224L55.63242 437.8224L58.89316 438.7453C 59.70175 438.9767 60.46201 439.1437 61.17392 439.2463C 60.76669 439.3283 60.29941 439.4352 59.77206 439.5671L59.77206 439.5671L55.63242 440.5778L55.63242 440.5778L55.63242 441.4348L55.63242 441.4348L62.0748 439.6682L62.0748 439.6682L62.0748 438.8464L62.0748 438.8464L57.16611 437.4885C 56.75595 437.3742 56.504 437.3068 56.41025 437.2863C 56.70615 437.2189 56.9581 437.1559 57.16611 437.0974L57.16611 437.0974L62.0748 435.7307z" stroke="none" fill="#333332" fill-rule="evenodd" /><path id="174" transform="matrix(1 0 0 -1 0 612)" d="M59.7413 441.674C 58.87704 441.674 58.23691 441.9142 57.82089 442.3947C 57.47519 442.7961 57.30234 443.2853 57.30234 443.8625C 57.30234 445.1457 58.19296 446.0466 59.67538 446.0466C 60.27597 446.0466 60.74838 445.9565 61.09262 445.7763C 61.43686 445.5961 61.70419 445.3339 61.89462 444.9897C 62.08505 444.6454 62.18027 444.2697 62.18027 443.8625C 62.18027 442.5558 61.31747 441.674 59.7413 441.674zM59.7413 442.487C 60.93661 442.487 61.52988 443.0715 61.52988 443.8625C 61.52988 444.6476 60.93954 445.2336 59.71494 445.2336C 58.56064 445.2336 57.95712 444.6418 57.95712 443.8625C 57.95712 443.0715 58.54599 442.487 59.7413 442.487z" stroke="none" fill="#333332" fill-rule="evenodd" /><path id="175" transform="matrix(1 0 0 -1 0 612)" d="M62.0748 446.9724L57.40781 446.9724L57.40781 446.9724L57.40781 447.6844L57.40781 447.6844L58.07138 447.6844C 57.55869 448.0271 57.30234 448.5222 57.30234 449.1697C 57.30234 449.451 57.35287 449.7095 57.45395 449.9453C 57.55502 450.1812 57.68759 450.3577 57.85165 450.4749C 58.01572 450.5921 58.21054 450.6741 58.43613 450.721C 58.58261 450.7503 58.83896 450.7649 59.20517 450.7649L59.20517 450.7649L62.0748 450.7649L62.0748 450.7649L62.0748 449.9739L62.0748 449.9739L59.23593 449.9739C 58.91367 449.9739 58.6727 449.9431 58.51303 449.8816C 58.35336 449.8201 58.22592 449.711 58.13071 449.5542C 58.03549 449.3975 57.98788 449.2137 57.98788 449.0027C 57.98788 448.3289 58.33066 447.7635 59.52597 447.7635L59.52597 447.7635L62.0748 447.7635z" stroke="none" fill="#333332" fill-rule="evenodd" /><path id="176" transform="matrix(1 0 0 -1 0 612)" d="M62.0748 455.0043L61.48593 455.0043C 61.94882 454.7084 62.18027 454.2733 62.18027 453.6991C 62.18027 453.327 62.07773 452.985 61.87265 452.673C 61.66757 452.361 61.3812 452.1193 61.01352 451.9479C 60.64584 451.7765 60.22324 451.6908 59.7457 451.6908C 59.27988 451.6908 58.85727 451.7684 58.47787 451.9237C 58.09848 452.079 57.80771 452.3119 57.60556 452.6224C 57.40341 452.933 57.30234 453.2802 57.30234 453.6639C 57.30234 454.2264 57.56308 454.6761 57.94394 454.9515L57.94394 454.9515L55.63242 454.9515L55.63242 454.9515L55.63242 455.7382L55.63242 455.7382L62.0748 455.7382zM59.7457 452.5038C 60.94101 452.5038 61.52988 453.0883 61.52988 453.7738C 61.52988 454.4652 60.97177 455.0175 59.81161 455.0175C 58.53427 455.0175 57.95712 454.4594 57.95712 453.7386C 57.95712 453.0355 58.50937 452.5038 59.7457 452.5038z" stroke="none" fill="#333332" fill-rule="evenodd" /><path id="177" transform="matrix(1 0 0 -1 0 612)" d="M60.57187 460.1753L60.67294 460.9926C 61.62802 460.7348 62.18027 460.0244 62.18027 458.9404C 62.18027 457.5752 61.29843 456.7168 59.78085 456.7168C 58.21054 456.7168 57.30234 457.6074 57.30234 458.8965C 57.30234 460.1445 58.1915 461.019 59.73251 461.019C 59.77939 461.019 59.8497 461.0175 59.94345 461.0146L59.94345 461.0146L59.94345 457.5341C 60.96884 457.5927 61.52988 458.1655 61.52988 458.9448C 61.52988 459.5249 61.23984 459.935 60.57187 460.1753zM59.29306 457.5781L59.29306 460.1841C 58.90048 460.1489 58.60605 460.0493 58.40976 459.8852C 58.10507 459.6333 57.95273 459.3066 57.95273 458.9052C 57.95273 458.1787 58.47861 457.6308 59.29306 457.5781z" stroke="none" fill="#333332" fill-rule="evenodd" /><path id="178" transform="matrix(1 0 0 -1 0 612)" d="M62.0748 461.9756L57.40781 461.9756L57.40781 461.9756L57.40781 462.6876L57.40781 462.6876L58.11533 462.6876C 57.45322 463.0508 57.30234 463.3292 57.30234 463.6983C 57.30234 463.9649 57.3873 464.2359 57.55722 464.5113L57.55722 464.5113L58.29111 464.2388C 58.17685 464.0455 58.11972 463.8521 58.11972 463.6588C 58.11972 463.313 58.33945 463.0157 58.70859 462.8985C 58.98984 462.8106 59.29745 462.7667 59.63144 462.7667L59.63144 462.7667L62.0748 462.7667z" stroke="none" fill="#333332" fill-rule="evenodd" /><path id="180" transform="matrix(1 0 0 -1 0 612)" d="M58.9371 467.3253C 56.79843 467.3253 55.51816 468.5938 55.51816 470.4102C 55.51816 471.0049 55.66025 471.5411 55.94443 472.0186C 56.22861 472.4962 56.62485 472.8602 57.13315 473.1107C 57.64145 473.3611 58.21786 473.4864 58.8624 473.4864C 59.51572 473.4864 60.10019 473.3546 60.61581 473.0909C 61.13144 472.8272 61.52182 472.4537 61.78696 471.9703C 62.05209 471.4869 62.18466 470.9654 62.18466 470.4058C 62.18466 469.7994 62.03818 469.2574 61.74521 468.7798C 61.45224 468.3023 61.05234 467.9405 60.5455 467.6944C 60.03867 467.4483 59.50253 467.3253 58.9371 467.3253zM58.95029 468.2042C 60.50302 468.2042 61.45517 469.1417 61.45517 470.4014C 61.45517 471.6846 60.5162 472.6075 58.858 472.6075C 58.33359 472.6075 57.87582 472.5189 57.48471 472.3416C 57.0936 472.1644 56.79037 471.9051 56.57504 471.5638C 56.35971 471.2225 56.25204 470.8394 56.25204 470.4146C 56.25204 469.2076 57.01083 468.2042 58.95029 468.2042z" stroke="none" fill="#333332" fill-rule="evenodd" /><path id="181" transform="matrix(1 0 0 -1 0 612)" d="M62.0748 474.4854L57.40781 474.4854L57.40781 474.4854L57.40781 475.1974L57.40781 475.1974L58.07138 475.1974C 57.55869 475.5401 57.30234 476.0352 57.30234 476.6827C 57.30234 476.964 57.35287 477.2225 57.45395 477.4583C 57.55502 477.6942 57.68759 477.8707 57.85165 477.9879C 58.01572 478.1051 58.21054 478.1871 58.43613 478.234C 58.58261 478.2633 58.83896 478.2779 59.20517 478.2779L59.20517 478.2779L62.0748 478.2779L62.0748 478.2779L62.0748 477.4869L62.0748 477.4869L59.23593 477.4869C 58.91367 477.4869 58.6727 477.4561 58.51303 477.3946C 58.35336 477.3331 58.22592 477.224 58.13071 477.0672C 58.03549 476.9105 57.98788 476.7267 57.98788 476.5157C 57.98788 475.8419 58.33066 475.2765 59.52597 475.2765L59.52597 475.2765L62.0748 475.2765z" stroke="none" fill="#333332" fill-rule="evenodd" /><path id="182" transform="matrix(1 0 0 -1 0 612)" d="M60.57187 482.6843L60.67294 483.5016C 61.62802 483.2438 62.18027 482.5334 62.18027 481.4494C 62.18027 480.0842 61.29843 479.2258 59.78085 479.2258C 58.21054 479.2258 57.30234 480.1164 57.30234 481.4055C 57.30234 482.6535 58.1915 483.528 59.73251 483.528C 59.77939 483.528 59.8497 483.5266 59.94345 483.5236L59.94345 483.5236L59.94345 480.0432C 60.96884 480.1017 61.52988 480.6745 61.52988 481.4538C 61.52988 482.0339 61.23984 482.444 60.57187 482.6843zM59.29306 480.0871L59.29306 482.6931C 58.90048 482.6579 58.60605 482.5583 58.40976 482.3942C 58.10507 482.1423 57.95273 481.8156 57.95273 481.4142C 57.95273 480.6877 58.47861 480.1398 59.29306 480.0871z" stroke="none" fill="#333332" fill-rule="evenodd" /><path id="183" transform="matrix(1 0 0 -1 0 612)" d="M60.68173 484.177L60.55869 484.9593C 61.18564 485.0471 61.52988 485.4471 61.52988 486.1678C 61.52988 486.8943 61.18564 487.24 60.7872 487.24C 60.60849 487.24 60.46786 487.1624 60.36533 487.0071C 60.29501 486.8987 60.20566 486.6292 60.09726 486.1985C 59.95078 485.6184 59.82407 485.2163 59.71713 484.9922C 59.6102 484.7681 59.46225 484.5982 59.27328 484.4825C 59.08432 484.3667 58.87558 484.3089 58.64706 484.3089C 58.23105 484.3089 57.86191 484.5125 57.62753 484.8406C 57.44589 485.0867 57.30234 485.5408 57.30234 486.0271C 57.30234 486.3933 57.35507 486.7149 57.46054 486.9917C 57.56601 487.2686 57.70883 487.4729 57.88901 487.6048C 58.06918 487.7366 58.31015 487.8274 58.61191 487.8772L58.61191 487.8772L58.71738 487.1038C 58.23691 487.0335 57.95273 486.6995 57.95273 486.0843C 57.95273 485.3577 58.23251 485.0735 58.55478 485.0735C 58.65732 485.0735 58.7496 485.1057 58.83163 485.1702C 58.9166 485.2346 58.98691 485.3357 59.04257 485.4734C 59.07187 485.5525 59.13925 485.7854 59.24472 486.1721C 59.39413 486.7317 59.51645 487.1221 59.61166 487.3433C 59.70688 487.5645 59.84531 487.7381 60.02695 487.864C 60.20859 487.99 60.43417 488.053 60.7037 488.053C 60.96738 488.053 61.21567 487.9761 61.44858 487.8223C 61.68149 487.6685 61.86166 487.4466 61.98911 487.1565C 62.11655 486.8665 62.18027 486.5384 62.18027 486.1721C 62.18027 484.9593 61.67197 484.3528 60.68173 484.177z" stroke="none" fill="#333332" fill-rule="evenodd" /><g clip-path="url(#4)"><g transform="matrix(0.4996002 0 0 0.4993671 511.937 234.4135)"><g transform="matrix(1 0 0 1 0 0)"><image x="0" y="0" xlink:href="img_07.png" width="581" height="236" /></g></g></g></g></g></svg>