<svg xmlns="http://www.w3.org/2000/svg" xmlns:xlink="http://www.w3.org/1999/xlink" id="body_6" preserveAspectRatio="xMinYMin meet" viewBox="0 0 1144 816"><defs><clipPath id="1"><path id="" clip-rule="evenodd" transform="matrix(1 0 0 1 0 0)" d="M0 612L0 -0.28302L0 -0.28302L858.898 -0.28302L858.898 -0.28302L858.898 612L858.898 612L0 612z" /></clipPath><clipPath id="2"><path id="" clip-rule="evenodd" transform="matrix(1 0 0 1 0 0)" d="M0 -0.28302L858.898 -0.28302L858.898 -0.28302L858.898 612L858.898 612L0 612z" /></clipPath><clipPath id="3"><path id="" clip-rule="evenodd" transform="matrix(1 0 0 1 0 0)" d="M0 555.307L748.953 555.307L748.953 555.307L748.953 56.409L748.953 56.409L0 56.409z" /></clipPath><clipPath id="4"><path id="" clip-rule="evenodd" transform="matrix(1 0 0 1 0 0)" d="M0 612L858.898 612L858.898 612L858.898 -0.28302L858.898 -0.28302L0 -0.28302z" /></clipPath></defs><g transform="matrix(1.333333 0 0 1.333333 0 0)"><g clip-path="url(#1)"><g clip-path="url(#2)"><path id="1" transform="matrix(1 0 0 -1 0 612)" d="M802.6706 188.9572C 802.1506 189.1172 801.2673 189.4705 800.6806 189.7372C 799.7873 190.1639 799.5806 190.3072 799.4606 190.5872L799.4606 190.5872L798.8806 190.4372C 798.9739 189.9172 798.9806 189.8839 799.0206 189.5372C 799.1006 188.6839 799.0973 188.6839 799.1106 188.5372C 798.1506 189.2172 797.8339 189.4672 797.4206 189.8272C 797.1939 190.0272 797.1306 190.1305 797.0506 190.3572L797.0506 190.3572L796.3906 190.1772C 796.4706 189.8439 796.5106 189.6772 796.5506 189.4372C 796.8706 187.6105 796.9473 187.1772 796.9606 187.0972L796.9606 187.0972L797.5906 187.0272C 797.4173 187.7739 797.3973 187.8472 797.1306 189.3672C 797.8906 188.7272 798.5873 188.1772 799.0806 187.8572C 800.0406 187.2305 800.0506 187.2339 800.4106 186.9672L800.4106 186.9672L800.7306 187.5872C 800.2639 187.8405 800.2206 187.8705 799.6606 188.1772C 799.5806 189.0839 799.5839 189.0805 799.5306 189.7472C 799.7706 189.5872 799.8506 189.5539 800.0506 189.4472C 800.2906 189.3272 801.1439 188.8972 801.2106 188.8572C 802.1306 188.4572 802.1339 188.4539 802.4006 188.3072zM798.4506 185.7772L798.4506 183.3172C 798.4506 182.8905 798.4373 182.6205 798.4106 182.3272C 798.6772 182.3672 798.9406 182.3672 799.3406 182.3672L799.3406 182.3672L801.2306 182.3672C 801.7506 182.3672 801.9439 182.3639 802.2106 182.3372C 802.1706 182.6039 802.1706 182.8872 802.1706 183.2872L802.1706 183.2872L802.1706 185.6872C 802.1706 186.0472 802.1906 186.3372 802.2306 186.6172L802.2306 186.6172L801.5306 186.6172C 801.5573 186.3772 801.5806 186.0872 801.5806 185.6872L801.5806 185.6872L801.5806 182.9972L801.5806 182.9972L799.0306 182.9972L799.0306 182.9972L799.0306 185.4972C 799.0306 185.8839 799.0306 186.1639 799.0706 186.4572C 798.8306 186.4172 798.5773 186.4072 798.1106 186.4072L798.1106 186.4072L794.7206 186.4072C 793.9872 186.4072 793.8806 186.1339 793.8806 184.1872C 793.8806 181.8805 793.9506 181.8005 796.2706 181.5872C 796.3239 181.8272 796.424 182.0572 796.5706 182.2572C 795.504 182.2972 794.9406 182.3772 794.7406 182.5372C 794.5406 182.6972 794.4906 183.0939 794.4906 184.3072C 794.4906 185.6005 794.5406 185.7772 794.8606 185.7772zM795.7206 186.9572C 795.4806 187.6505 795.2506 188.5639 795.0906 189.4572C 795.0106 189.9105 794.9506 190.3839 794.9506 190.5572C 794.9506 190.5839 794.9506 190.6005 794.9506 190.6272L794.9506 190.6272L794.2306 190.4772C 794.2706 190.3572 794.2839 190.3239 794.3506 189.9772C 794.5506 188.8839 794.7906 187.9372 795.0706 186.9772z" stroke="none" fill="#323232" fill-rule="evenodd" /><path id="2" transform="matrix(1 0 0 -1 0 612)" d="M801.6006 177.3272L801.8606 177.3272C 802.114 177.3272 802.3306 177.3172 802.5706 177.2772L802.5706 177.2772L802.5706 177.9972C 802.3306 177.9572 802.1006 177.9372 801.8606 177.9372L801.8606 177.9372L801.6006 177.9372L801.6006 177.9372L801.6006 179.4272C 801.6006 179.9205 801.6206 180.2672 801.6606 180.5472L801.6606 180.5472L800.9906 180.5472C 801.0306 180.2672 801.0406 179.9605 801.0406 179.4272L801.0406 179.4272L801.0406 177.9372L801.0406 177.9372L800.7306 177.9372C 800.4773 177.9372 800.2706 177.9505 800.0706 177.9772L800.0706 177.9772L800.0706 177.2872C 800.2706 177.3272 800.4473 177.3272 800.7406 177.3272L800.7406 177.3272L801.0406 177.3272L801.0406 177.3272L801.0406 175.0172L801.0406 175.0172L800.7306 175.0172C 800.4639 175.0172 800.2839 175.0305 800.0706 175.0572L800.0706 175.0572L800.0706 174.3672C 800.2706 174.4072 800.4506 174.4072 800.7306 174.4072L800.7306 174.4072L801.0406 174.4072L801.0406 174.4072L801.0406 172.8672C 801.0406 172.3472 801.0306 172.0439 800.9906 171.7372L800.9906 171.7372L801.6606 171.7372C 801.6206 172.0439 801.6006 172.3872 801.6006 172.8672L801.6006 172.8672L801.6006 174.4072L801.6006 174.4072L801.8606 174.4072C 802.1006 174.4072 802.3439 174.3972 802.5706 174.3572L802.5706 174.3572L802.5706 175.0772C 802.3306 175.0372 802.1006 175.0172 801.8606 175.0172L801.8606 175.0172L801.6006 175.0172zM798.7206 172.8372C 798.7206 172.4105 798.7006 172.0705 798.6606 171.7372L798.6606 171.7372L799.3506 171.7372C 799.3106 172.0572 799.2906 172.3972 799.2906 172.8372L799.2906 172.8372L799.2906 176.4972C 799.4506 176.4172 799.5206 176.3872 799.6806 176.3072C 800.0139 176.1472 800.0472 176.1205 800.2206 176.0272L800.2206 176.0272L800.3706 176.7672C 800.0106 176.8472 799.7306 176.9405 799.2906 177.1672L799.2906 177.1672L799.2906 179.3772C 799.2906 179.8305 799.3106 180.1905 799.3506 180.4972L799.3506 180.4972L798.6606 180.4972C 798.7006 180.1772 798.7206 179.8172 798.7206 179.3772L798.7206 179.3772L798.7206 177.5072C 797.5606 178.2939 796.8439 179.1139 796.0706 180.5672C 795.8306 180.3272 795.8306 180.3272 795.6306 180.2072C 795.6039 180.2072 795.5706 180.1872 795.5306 180.1472C 796.1172 179.2539 796.2706 179.0572 796.7906 178.4572L796.7906 178.4572L794.6406 178.4572C 794.2273 178.4572 793.9539 178.4772 793.7006 178.5172L793.7006 178.5172L793.7006 177.8172L793.7006 177.8172L794.2606 177.8172L794.2606 177.8172L794.2606 173.5372L794.2606 173.5372L793.6906 173.5372L793.6906 173.5372L793.6906 172.8272C 794.0239 172.8672 794.314 172.8872 794.6206 172.8872L794.6206 172.8872L796.5006 172.8872C 796.8606 172.8872 797.1306 172.8772 797.4506 172.8372C 797.4106 173.0905 797.4006 173.2972 797.4006 173.7772L797.4006 173.7772L797.4006 177.8272C 797.8006 177.4672 798.0939 177.2272 798.7206 176.8272zM796.8406 177.8172L796.8406 173.5372L796.8406 173.5372L794.8306 173.5372L794.8306 173.5372L794.8306 177.8172z" stroke="none" fill="#323232" fill-rule="evenodd" /><path id="3" transform="matrix(1 0 0 -1 0 612)" d="M800.7206 165.3972L800.7206 167.1372C 800.7206 167.5372 800.7206 167.8239 800.7606 168.0372C 800.5073 168.0105 800.2306 167.9972 799.8706 167.9972L799.8706 167.9972L797.6906 167.9972C 797.184 167.9972 796.8906 168.0072 796.5706 168.0472L796.5706 168.0472L796.5706 167.3672L796.5706 167.3672L797.1206 167.3672L797.1206 167.3672L797.1206 165.3972L797.1206 165.3972L794.9406 165.3972C 794.4073 165.3972 794.0773 165.4272 793.7306 165.4672L793.7306 165.4672L793.7306 164.6872C 794.0906 164.7405 794.3806 164.7572 794.9406 164.7572L794.9406 164.7572L797.1206 164.7572L797.1206 164.7572L797.1206 162.6172L797.1206 162.6172L796.5706 162.6172L796.5706 162.6172L796.5706 161.9172C 796.9039 161.9572 797.2139 161.9772 797.6806 161.9772L797.6806 161.9772L799.8306 161.9772C 800.2706 161.9772 800.5206 161.9772 800.7606 161.9372C 800.7206 162.1505 800.7206 162.4372 800.7206 162.8772L800.7206 162.8772L800.7206 164.7572L800.7206 164.7572L801.4906 164.7572C 802.0239 164.7572 802.3073 164.7405 802.6406 164.6872L802.6406 164.6872L802.6406 165.4672C 802.3206 165.4272 802.0073 165.3972 801.5006 165.3972zM797.7106 165.3972L797.7106 167.3672L797.7106 167.3672L800.1306 167.3672L800.1306 167.3672L800.1306 165.3972zM797.7106 164.7572L800.1306 164.7572L800.1306 164.7572L800.1306 162.6172L800.1306 162.6172L797.7106 162.6172zM801.9106 170.3972C 801.2706 169.7705 800.8606 169.4539 800.0206 168.9472L800.0206 168.9472L800.4706 168.4172C 801.2039 168.9105 801.6273 169.2339 802.3206 169.8872zM798.0206 168.8872C 796.8606 169.2872 795.9406 169.7272 795.1006 170.2872C 794.8473 170.4605 794.7273 170.5572 794.6206 170.6772L794.6206 170.6772L794.1106 170.0672C 794.2706 170.0005 794.3239 169.9772 794.7106 169.7372C 795.6039 169.2172 796.3339 168.8672 797.5206 168.3872z" stroke="none" fill="#323232" fill-rule="evenodd" /></g><path id="4" transform="matrix(1 0 0 -1 0 612)" d="M0 56.693L748.953 56.693L748.953 555.591L0 555.591z" stroke="none" fill="#DBDCDE" fill-rule="nonzero" /><g clip-path="url(#3)"><g transform="matrix(0.5534626 0 0 0.5537155 -1.077743 56.40942)"><g transform="matrix(1 0 0 1 0 0)"><image x="0" y="0" xlink:href="img_16.png" width="1357" height="901" /></g></g></g><g clip-path="url(#4)"></g><path id="283" transform="matrix(1 0 0 -1 0 612)" d="M797.5481 555.1863L797.6184 554.3821C 797.2961 554.344 797.0317 554.2554 796.8252 554.1162C 796.6187 553.9771 796.4517 553.761 796.3242 553.468C 796.1968 553.175 796.1331 552.8455 796.1331 552.4792C 796.1331 552.1541 796.1814 551.8669 796.2781 551.6179C 796.3748 551.3689 796.5073 551.1836 796.6758 551.062C 796.8442 550.9404 797.0281 550.8796 797.2273 550.8796C 797.6316 550.8796 797.9319 551.0964 798.137 551.6355C 798.2717 551.9812 798.6013 553.5515 798.8533 554.0261C 799.1755 554.6414 799.6633 554.9402 800.2551 554.9402C 800.5803 554.9402 800.8843 554.8479 801.167 554.6633C 801.4497 554.4788 801.6643 554.2092 801.8108 553.8547C 801.9573 553.5002 802.0305 553.1062 802.0305 552.6726C 802.0305 552.1951 801.9536 551.7739 801.7998 551.4092C 801.646 551.0444 801.4197 550.7639 801.1208 550.5676C 800.822 550.3713 800.4836 550.2659 800.1057 550.2512L800.1057 550.2512L800.0442 551.0686C 800.8586 551.1565 801.2791 551.6472 801.2791 552.6375C 801.2791 553.6687 800.8455 554.1184 800.3123 554.1184C 800.0808 554.1184 799.8904 554.0349 799.741 553.8679C 799.4421 553.5398 799.1052 551.6721 798.8708 551.1565C 798.5251 550.4065 797.989 550.0579 797.2976 550.0579C 796.9548 550.0579 796.6318 550.156 796.3286 550.3523C 796.0254 550.5486 795.7896 550.8306 795.6211 551.1982C 795.4526 551.5659 795.3684 551.9797 795.3684 552.4397C 795.3684 553.0227 795.4534 553.5112 795.6233 553.9053C 795.7932 554.2993 796.0488 554.6084 796.3901 554.8325C 796.7314 555.0566 797.1174 555.1746 797.5481 555.1863z" stroke="none" fill="#323131" fill-rule="evenodd" /><path id="284" transform="matrix(1 0 0 -1 0 612)" d="M796.1858 547.2673L795.4871 547.153C 795.4402 547.3757 795.4167 547.5749 795.4167 547.7507C 795.4167 548.0378 795.4622 548.2604 795.553 548.4186C 795.6438 548.5768 795.7632 548.6882 795.9111 548.7526C 796.0591 548.8171 796.3704 548.8493 796.845 548.8493L796.845 548.8493L799.53 548.8493L799.53 548.8493L799.53 549.4294L799.53 549.4294L800.1453 549.4294L800.1453 549.4294L800.1453 548.8493L800.1453 548.8493L801.301 548.8493L801.301 548.8493L801.7756 548.0627L801.7756 548.0627L800.1453 548.0627L800.1453 548.0627L800.1453 547.2673L800.1453 547.2673L799.53 547.2673L799.53 547.2673L799.53 548.0627L799.53 548.0627L796.801 548.0627C 796.5754 548.0627 796.4304 548.0488 796.366 548.0209C 796.3015 547.9931 796.2502 547.9477 796.2122 547.8847C 796.1741 547.8217 796.155 547.7316 796.155 547.6144C 796.155 547.5266 796.1653 547.4108 796.1858 547.2673z" stroke="none" fill="#323131" fill-rule="evenodd" /><path id="285" transform="matrix(1 0 0 -1 0 612)" d="M796.054 543.4469C 795.5559 544.0328 795.3728 544.5441 795.3728 545.1652C 795.3728 546.1906 795.9294 546.7604 796.7087 546.7604C 796.9373 546.7604 797.146 546.7084 797.335 546.6044C 797.5239 546.5004 797.6755 546.3641 797.7898 546.1957C 797.9041 546.0272 797.9905 545.8375 798.0491 545.6266C 798.0901 545.4713 798.1296 545.2369 798.1677 544.9235C 798.2439 544.2848 798.3347 543.8146 798.4402 543.5128C 798.5486 543.5099 798.6174 543.5084 798.6467 543.5084C 798.969 543.5084 799.196 543.5831 799.3279 543.7325C 799.5066 543.9347 799.5959 544.235 799.5959 544.6334C 799.5959 545.3776 799.3704 545.6808 798.7083 545.8507L798.7083 545.8507L798.8137 546.6241C 799.1448 546.5538 799.4121 546.4381 799.6157 546.277C 799.8193 546.1158 799.9761 545.8829 800.0859 545.5782C 800.1958 545.2736 800.2507 544.9205 800.2507 544.5192C 800.2507 544.1207 800.2039 543.797 800.1101 543.548C 800.0164 543.299 799.8984 543.1158 799.7563 542.9987C 799.6143 542.8815 799.4348 542.7994 799.218 542.7526C 799.0833 542.7262 798.8401 542.713 798.4885 542.713L798.4885 542.713L797.4338 542.713C 795.9631 542.713 795.8357 542.6617 795.4783 542.4625L795.4783 542.4625L795.4783 543.2887C 795.6423 543.3707 795.8342 543.4235 796.054 543.4469zM797.8206 543.5128C 797.7034 543.7999 797.6038 544.2306 797.5217 544.8048C 797.4749 545.13 797.4221 545.36 797.3635 545.4948C 797.3049 545.6295 797.2192 545.7335 797.1064 545.8068C 796.9937 545.88 796.8684 545.9166 796.7307 545.9166C 796.3088 545.9166 795.9924 545.5914 795.9924 544.9762C 795.9924 544.3668 796.2766 543.8629 796.7395 543.6403C 796.9182 543.5553 797.1819 543.5128 797.5305 543.5128z" stroke="none" fill="#323131" fill-rule="evenodd" /><path id="286" transform="matrix(1 0 0 -1 0 612)" d="M795.4783 541.4971L800.1453 541.4971L800.1453 541.4971L800.1453 540.7852L800.1453 540.7852L799.4377 540.7852C 800.0999 540.4219 800.2507 540.1436 800.2507 539.7745C 800.2507 539.5079 800.1658 539.2369 799.9958 538.9615L799.9958 538.9615L799.262 539.2339C 799.3762 539.4273 799.4333 539.6207 799.4333 539.814C 799.4333 540.1597 799.2136 540.4571 798.8445 540.5743C 798.5632 540.6622 798.2556 540.7061 797.9216 540.7061L797.9216 540.7061L795.4783 540.7061z" stroke="none" fill="#323131" fill-rule="evenodd" /><path id="287" transform="matrix(1 0 0 -1 0 612)" d="M795.4783 538.5001L800.1453 538.5001L800.1453 538.5001L800.1453 537.7882L800.1453 537.7882L799.4377 537.7882C 800.0999 537.4249 800.2507 537.1466 800.2507 536.7775C 800.2507 536.5109 800.1658 536.2399 799.9958 535.9645L799.9958 535.9645L799.262 536.2369C 799.3762 536.4303 799.4333 536.6237 799.4333 536.817C 799.4333 537.1627 799.2136 537.4601 798.8445 537.5773C 798.5632 537.6652 798.2556 537.7091 797.9216 537.7091L797.9216 537.7091L795.4783 537.7091z" stroke="none" fill="#323131" fill-rule="evenodd" /><path id="288" transform="matrix(1 0 0 -1 0 612)" d="M793.6809 535.5295L794.4236 535.6174C 794.3767 535.4445 794.3533 535.2936 794.3533 535.1647C 794.3533 534.8132 794.4763 534.6183 794.6873 534.4836C 794.7664 534.4338 794.9626 534.3532 795.2761 534.2419C 795.3201 534.2272 795.3845 534.2038 795.4695 534.1716L795.4695 534.1716L800.1453 535.9426L800.1453 535.9426L800.1453 535.09L800.1453 535.09L797.4426 534.1188C 797.0999 533.9929 796.7395 533.8801 796.3616 533.7805C 796.7249 533.6896 797.0793 533.5812 797.425 533.4553L797.425 533.4553L800.1453 532.4577L800.1453 532.4577L800.1453 531.6667L800.1453 531.6667L795.3992 533.4421C 794.8865 533.6325 794.5334 533.7805 794.3401 533.8859C 793.8186 534.1672 793.5842 534.5158 793.5842 535.0197C 793.5842 535.1721 793.6165 535.342 793.6809 535.5295z" stroke="none" fill="#323131" fill-rule="evenodd" /><path id="290" transform="matrix(1 0 0 -1 0 612)" d="M796.8713 528.8087L796.9944 528.0265C 796.3674 527.9386 796.0232 527.5387 796.0232 526.818C 796.0232 526.0914 796.3674 525.7457 796.7659 525.7457C 796.9446 525.7457 797.0852 525.8234 797.1877 525.9786C 797.2581 526.087 797.3474 526.3566 797.4558 526.7872C 797.6023 527.3673 797.729 527.7694 797.8359 527.9935C 797.9429 528.2177 798.0908 528.3876 798.2798 528.5033C 798.4688 528.619 798.6775 528.6769 798.906 528.6769C 799.322 528.6769 799.6912 528.4733 799.9255 528.1451C 800.1072 527.899 800.2507 527.4449 800.2507 526.9586C 800.2507 526.5924 800.198 526.2709 800.0925 525.994C 799.9871 525.7172 799.8442 525.5128 799.6641 525.381C 799.4839 525.2491 799.2429 525.1583 798.9412 525.1085L798.9412 525.1085L798.8357 525.882C 799.3162 525.9523 799.6003 526.2863 799.6003 526.9015C 799.6003 527.6281 799.3206 527.9122 798.9983 527.9122C 798.8958 527.9122 798.8035 527.88 798.7214 527.8156C 798.6365 527.7511 798.5662 527.65 798.5105 527.5123C 798.4812 527.4332 798.4138 527.2003 798.3083 526.8136C 798.1589 526.254 798.0366 525.8636 797.9414 525.6425C 797.8462 525.4213 797.7078 525.2477 797.5261 525.1217C 797.3445 524.9957 797.1189 524.9327 796.8494 524.9327C 796.5857 524.9327 796.3374 525.0096 796.1045 525.1635C 795.8716 525.3173 795.6914 525.5392 795.564 525.8292C 795.4365 526.1193 795.3728 526.4474 795.3728 526.8136C 795.3728 528.0265 795.8811 528.6329 796.8713 528.8087z" stroke="none" fill="#323131" fill-rule="evenodd" /><path id="291" transform="matrix(1 0 0 -1 0 612)" d="M795.4783 523.9879L801.9207 523.9879L801.9207 523.9879L801.9207 523.1969L801.9207 523.1969L798.2468 523.1969L798.2468 523.1969L800.1453 521.3248L800.1453 521.3248L800.1453 520.3009L800.1453 520.3009L798.4138 522.0851L798.4138 522.0851L795.4783 520.1207L795.4783 520.1207L795.4783 521.0963L795.4783 521.0963L797.8645 522.6388L797.8645 522.6388L797.3284 523.1969L797.3284 523.1969L795.4783 523.1969z" stroke="none" fill="#323131" fill-rule="evenodd" /><path id="292" transform="matrix(1 0 0 -1 0 612)" d="M793.6809 519.5275L794.4236 519.6154C 794.3767 519.4425 794.3533 519.2916 794.3533 519.1627C 794.3533 518.8112 794.4763 518.6163 794.6873 518.4816C 794.7664 518.4318 794.9626 518.3512 795.2761 518.2399C 795.3201 518.2252 795.3845 518.2018 795.4695 518.1696L795.4695 518.1696L800.1453 519.9406L800.1453 519.9406L800.1453 519.088L800.1453 519.088L797.4426 518.1168C 797.0999 517.9908 796.7395 517.8781 796.3616 517.7784C 796.7249 517.6876 797.0793 517.5792 797.425 517.4532L797.425 517.4532L800.1453 516.4557L800.1453 516.4557L800.1453 515.6647L800.1453 515.6647L795.3992 517.4401C 794.8865 517.6305 794.5334 517.7784 794.3401 517.8839C 793.8186 518.1652 793.5842 518.5138 793.5842 519.0177C 793.5842 519.17 793.6165 519.34 793.6809 519.5275z" stroke="none" fill="#323131" fill-rule="evenodd" /><path id="294" transform="matrix(1 0 0 -1 0 612)" d="M796.054 509.4449C 795.5559 510.0308 795.3728 510.5421 795.3728 511.1632C 795.3728 512.1885 795.9294 512.7584 796.7087 512.7584C 796.9373 512.7584 797.146 512.7064 797.335 512.6024C 797.5239 512.4984 797.6755 512.3621 797.7898 512.1937C 797.9041 512.0252 797.9905 511.8355 798.0491 511.6246C 798.0901 511.4693 798.1296 511.2349 798.1677 510.9215C 798.2439 510.2828 798.3347 509.8126 798.4402 509.5108C 798.5486 509.5079 798.6174 509.5064 798.6467 509.5064C 798.969 509.5064 799.196 509.5811 799.3279 509.7306C 799.5066 509.9327 799.5959 510.233 799.5959 510.6314C 799.5959 511.3755 799.3704 511.6788 798.7083 511.8487L798.7083 511.8487L798.8137 512.6221C 799.1448 512.5518 799.4121 512.4361 799.6157 512.275C 799.8193 512.1138 799.9761 511.8809 800.0859 511.5763C 800.1958 511.2716 800.2507 510.9185 800.2507 510.5172C 800.2507 510.1187 800.2039 509.795 800.1101 509.546C 800.0164 509.2969 799.8984 509.1139 799.7563 508.9967C 799.6143 508.8795 799.4348 508.7975 799.218 508.7506C 799.0833 508.7242 798.8401 508.711 798.4885 508.711L798.4885 508.711L797.4338 508.711C 795.9631 508.711 795.8357 508.6597 795.4783 508.4605L795.4783 508.4605L795.4783 509.2867C 795.6423 509.3687 795.8342 509.4215 796.054 509.4449zM797.8206 509.5108C 797.7034 509.7979 797.6038 510.2286 797.5217 510.8028C 797.4749 511.128 797.4221 511.358 797.3635 511.4928C 797.3049 511.6275 797.2192 511.7315 797.1064 511.8048C 796.9937 511.878 796.8684 511.9146 796.7307 511.9146C 796.3088 511.9146 795.9924 511.5894 795.9924 510.9742C 795.9924 510.3648 796.2766 509.8609 796.7395 509.6383C 796.9182 509.5533 797.1819 509.5108 797.5305 509.5108z" stroke="none" fill="#323131" fill-rule="evenodd" /><path id="295" transform="matrix(1 0 0 -1 0 612)" d="M795.4783 507.2974L799.53 507.2974L799.53 507.2974L799.53 507.9961L799.53 507.9961L800.1453 507.9961L800.1453 507.9961L800.1453 507.2974L800.1453 507.2974L800.6418 507.2974C 800.9553 507.2974 801.1882 507.2695 801.3406 507.2139C 801.7507 507.0615 802.0305 506.6968 802.0305 506.0054C 802.0305 505.7827 802.0042 505.5366 801.9514 505.2671L801.9514 505.2671L801.2615 505.3857C 801.2908 505.5498 801.3054 505.7051 801.3054 505.8516C 801.3054 506.332 801.1384 506.5107 800.5759 506.5107L800.5759 506.5107L800.1453 506.5107L800.1453 506.5107L800.1453 505.6011L800.1453 505.6011L799.53 505.6011L799.53 505.6011L799.53 506.5107L799.53 506.5107L795.4783 506.5107z" stroke="none" fill="#323131" fill-rule="evenodd" /><path id="296" transform="matrix(1 0 0 -1 0 612)" d="M796.1858 503.2573L795.4871 503.143C 795.4402 503.3657 795.4167 503.5649 795.4167 503.7407C 795.4167 504.0278 795.4622 504.2504 795.553 504.4086C 795.6438 504.5668 795.7632 504.6782 795.9111 504.7426C 796.0591 504.8071 796.3704 504.8393 796.845 504.8393L796.845 504.8393L799.53 504.8393L799.53 504.8393L799.53 505.4194L799.53 505.4194L800.1453 505.4194L800.1453 505.4194L800.1453 504.8393L800.1453 504.8393L801.301 504.8393L801.301 504.8393L801.7756 504.0527L801.7756 504.0527L800.1453 504.0527L800.1453 504.0527L800.1453 503.2573L800.1453 503.2573L799.53 503.2573L799.53 503.2573L799.53 504.0527L799.53 504.0527L796.801 504.0527C 796.5754 504.0527 796.4304 504.0388 796.366 504.0109C 796.3015 503.9831 796.2502 503.9377 796.2122 503.8747C 796.1741 503.8117 796.155 503.7216 796.155 503.6044C 796.155 503.5165 796.1653 503.4008 796.1858 503.2573z" stroke="none" fill="#323131" fill-rule="evenodd" /><path id="297" transform="matrix(1 0 0 -1 0 612)" d="M796.9812 499.2875L796.8801 498.4701C 795.925 498.7279 795.3728 499.4384 795.3728 500.5223C 795.3728 501.8876 796.2546 502.746 797.7722 502.746C 799.3425 502.746 800.2507 501.8553 800.2507 500.5663C 800.2507 499.3182 799.3616 498.4437 797.8206 498.4437C 797.7737 498.4437 797.7034 498.4452 797.6096 498.4481L797.6096 498.4481L797.6096 501.9286C 796.5842 501.87 796.0232 501.2972 796.0232 500.5179C 796.0232 499.9379 796.3132 499.5277 796.9812 499.2875zM798.26 501.8846L798.26 499.2787C 798.6526 499.3138 798.947 499.4135 799.1433 499.5775C 799.448 499.8295 799.6003 500.1561 799.6003 500.5575C 799.6003 501.2841 799.0745 501.8319 798.26 501.8846z" stroke="none" fill="#323131" fill-rule="evenodd" /><path id="298" transform="matrix(1 0 0 -1 0 612)" d="M795.4783 497.4871L800.1453 497.4871L800.1453 497.4871L800.1453 496.7752L800.1453 496.7752L799.4377 496.7752C 800.0999 496.4119 800.2507 496.1336 800.2507 495.7645C 800.2507 495.4978 800.1658 495.2269 799.9958 494.9515L799.9958 494.9515L799.262 495.2239C 799.3762 495.4173 799.4333 495.6107 799.4333 495.804C 799.4333 496.1497 799.2136 496.4471 798.8445 496.5643C 798.5632 496.6522 798.2556 496.6961 797.9216 496.6961L797.9216 496.6961L795.4783 496.6961z" stroke="none" fill="#323131" fill-rule="evenodd" /><path id="300" transform="matrix(1 0 0 -1 0 612)" d="M796.054 488.9339C 795.5559 489.5198 795.3728 490.0311 795.3728 490.6522C 795.3728 491.6776 795.9294 492.2474 796.7087 492.2474C 796.9373 492.2474 797.146 492.1954 797.335 492.0914C 797.5239 491.9874 797.6755 491.8511 797.7898 491.6827C 797.9041 491.5142 797.9905 491.3245 798.0491 491.1136C 798.0901 490.9583 798.1296 490.7239 798.1677 490.4105C 798.2439 489.7718 798.3347 489.3016 798.4402 488.9998C 798.5486 488.9969 798.6174 488.9954 798.6467 488.9954C 798.969 488.9954 799.196 489.0701 799.3279 489.2195C 799.5066 489.4217 799.5959 489.722 799.5959 490.1204C 799.5959 490.8646 799.3704 491.1678 798.7083 491.3377L798.7083 491.3377L798.8137 492.1111C 799.1448 492.0408 799.4121 491.9251 799.6157 491.764C 799.8193 491.6028 799.9761 491.3699 800.0859 491.0652C 800.1958 490.7606 800.2507 490.4075 800.2507 490.0062C 800.2507 489.6077 800.2039 489.284 800.1101 489.035C 800.0164 488.7859 799.8984 488.6028 799.7563 488.4857C 799.6143 488.3685 799.4348 488.2864 799.218 488.2396C 799.0833 488.2132 798.8401 488.2 798.4885 488.2L798.4885 488.2L797.4338 488.2C 795.9631 488.2 795.8357 488.1487 795.4783 487.9495L795.4783 487.9495L795.4783 488.7757C 795.6423 488.8577 795.8342 488.9105 796.054 488.9339zM797.8206 488.9998C 797.7034 489.2869 797.6038 489.7176 797.5217 490.2918C 797.4749 490.617 797.4221 490.847 797.3635 490.9818C 797.3049 491.1165 797.2192 491.2205 797.1064 491.2938C 796.9937 491.367 796.8684 491.4036 796.7307 491.4036C 796.3088 491.4036 795.9924 491.0784 795.9924 490.4632C 795.9924 489.8538 796.2766 489.3499 796.7395 489.1273C 796.9182 489.0423 797.1819 488.9998 797.5305 488.9998z" stroke="none" fill="#323131" fill-rule="evenodd" /><path id="302" transform="matrix(1 0 0 -1 0 612)" d="M795.4783 484.4821L800.1453 484.4821L800.1453 484.4821L800.1453 483.7702L800.1453 483.7702L799.4377 483.7702C 800.0999 483.4069 800.2507 483.1286 800.2507 482.7595C 800.2507 482.4929 800.1658 482.2219 799.9958 481.9465L799.9958 481.9465L799.262 482.2189C 799.3762 482.4123 799.4333 482.6057 799.4333 482.799C 799.4333 483.1447 799.2136 483.4421 798.8445 483.5593C 798.5632 483.6472 798.2556 483.6911 797.9216 483.6911L797.9216 483.6911L795.4783 483.6911z" stroke="none" fill="#323131" fill-rule="evenodd" /><path id="303" transform="matrix(1 0 0 -1 0 612)" d="M796.054 478.4309C 795.5559 479.0168 795.3728 479.5281 795.3728 480.1492C 795.3728 481.1746 795.9294 481.7444 796.7087 481.7444C 796.9373 481.7444 797.146 481.6924 797.335 481.5884C 797.5239 481.4844 797.6755 481.3481 797.7898 481.1797C 797.9041 481.0112 797.9905 480.8215 798.0491 480.6106C 798.0901 480.4553 798.1296 480.2209 798.1677 479.9075C 798.2439 479.2688 798.3347 478.7986 798.4402 478.4968C 798.5486 478.4939 798.6174 478.4924 798.6467 478.4924C 798.969 478.4924 799.196 478.5671 799.3279 478.7166C 799.5066 478.9187 799.5959 479.219 799.5959 479.6174C 799.5959 480.3616 799.3704 480.6648 798.7083 480.8347L798.7083 480.8347L798.8137 481.6082C 799.1448 481.5378 799.4121 481.4221 799.6157 481.261C 799.8193 481.0999 799.9761 480.8669 800.0859 480.5623C 800.1958 480.2576 800.2507 479.9045 800.2507 479.5032C 800.2507 479.1047 800.2039 478.781 800.1101 478.532C 800.0164 478.283 799.8984 478.0999 799.7563 477.9827C 799.6143 477.8655 799.4348 477.7834 799.218 477.7366C 799.0833 477.7102 798.8401 477.697 798.4885 477.697L798.4885 477.697L797.4338 477.697C 795.9631 477.697 795.8357 477.6458 795.4783 477.4465L795.4783 477.4465L795.4783 478.2727C 795.6423 478.3547 795.8342 478.4075 796.054 478.4309zM797.8206 478.4968C 797.7034 478.7839 797.6038 479.2146 797.5217 479.7888C 797.4749 480.114 797.4221 480.344 797.3635 480.4788C 797.3049 480.6135 797.2192 480.7175 797.1064 480.7908C 796.9937 480.864 796.8684 480.9006 796.7307 480.9006C 796.3088 480.9006 795.9924 480.5754 795.9924 479.9602C 795.9924 479.3508 796.2766 478.8469 796.7395 478.6243C 796.9182 478.5393 797.1819 478.4968 797.5305 478.4968z" stroke="none" fill="#323131" fill-rule="evenodd" /><path id="304" transform="matrix(1 0 0 -1 0 612)" d="M801.011 476.4679L801.9207 476.4679L801.9207 476.4679L801.9207 475.6769L801.9207 475.6769L801.011 475.6769zM795.4783 476.4679L800.1453 476.4679L800.1453 476.4679L800.1453 475.6769L800.1453 475.6769L795.4783 475.6769z" stroke="none" fill="#323131" fill-rule="evenodd" /><path id="305" transform="matrix(1 0 0 -1 0 612)" d="M795.4783 474.4743L800.1453 474.4743L800.1453 474.4743L800.1453 473.7624L800.1453 473.7624L799.4817 473.7624C 799.9944 473.4196 800.2507 472.9245 800.2507 472.277C 800.2507 471.9958 800.2002 471.7372 800.0991 471.5014C 799.998 471.2656 799.8655 471.0891 799.7014 470.9719C 799.5374 470.8547 799.3425 470.7726 799.1169 470.7258C 798.9705 470.6965 798.7141 470.6818 798.3479 470.6818L798.3479 470.6818L795.4783 470.6818L795.4783 470.6818L795.4783 471.4728L795.4783 471.4728L798.3171 471.4728C 798.6394 471.4728 798.8804 471.5036 799.04 471.5651C 799.1997 471.6266 799.3271 471.7358 799.4224 471.8925C 799.5176 472.0493 799.5652 472.2331 799.5652 472.444C 799.5652 473.1179 799.2224 473.6833 798.0271 473.6833L798.0271 473.6833L795.4783 473.6833z" stroke="none" fill="#323131" fill-rule="evenodd" /><path id="306" transform="matrix(1 0 0 -1 0 612)" d="M793.6809 469.5055L794.4236 469.5934C 794.3767 469.4205 794.3533 469.2696 794.3533 469.1407C 794.3533 468.7892 794.4763 468.5943 794.6873 468.4596C 794.7664 468.4098 794.9626 468.3292 795.2761 468.2179C 795.3201 468.2032 795.3845 468.1798 795.4695 468.1476L795.4695 468.1476L800.1453 469.9185L800.1453 469.9185L800.1453 469.066L800.1453 469.066L797.4426 468.0948C 797.0999 467.9688 796.7395 467.856 796.3616 467.7564C 796.7249 467.6656 797.0793 467.5572 797.425 467.4312L797.425 467.4312L800.1453 466.4337L800.1453 466.4337L800.1453 465.6427L800.1453 465.6427L795.3992 467.4181C 794.8865 467.6085 794.5334 467.7564 794.3401 467.8619C 793.8186 468.1432 793.5842 468.4918 793.5842 468.9957C 793.5842 469.148 793.6165 469.318 793.6809 469.5055z" stroke="none" fill="#323131" fill-rule="evenodd" /><path id="308" transform="matrix(1 0 0 -1 0 612)" d="M795.4783 462.4683L800.1453 462.4683L800.1453 462.4683L800.1453 461.7564L800.1453 461.7564L799.4817 461.7564C 799.9944 461.4136 800.2507 460.9185 800.2507 460.2711C 800.2507 459.9898 800.2002 459.7313 800.0991 459.4954C 799.998 459.2596 799.8655 459.0831 799.7014 458.9659C 799.5374 458.8487 799.3425 458.7667 799.1169 458.7198C 798.9705 458.6905 798.7141 458.6758 798.3479 458.6758L798.3479 458.6758L795.4783 458.6758L795.4783 458.6758L795.4783 459.4669L795.4783 459.4669L798.3171 459.4669C 798.6394 459.4669 798.8804 459.4976 799.04 459.5591C 799.1997 459.6207 799.3271 459.7298 799.4224 459.8865C 799.5176 460.0433 799.5652 460.2271 799.5652 460.438C 799.5652 461.1119 799.2224 461.6773 798.0271 461.6773L798.0271 461.6773L795.4783 461.6773z" stroke="none" fill="#323131" fill-rule="evenodd" /><path id="309" transform="matrix(1 0 0 -1 0 612)" d="M801.011 457.4599L801.9207 457.4599L801.9207 457.4599L801.9207 456.6689L801.9207 456.6689L801.011 456.6689zM795.4783 457.4599L800.1453 457.4599L800.1453 457.4599L800.1453 456.6689L800.1453 456.6689L795.4783 456.6689z" stroke="none" fill="#323131" fill-rule="evenodd" /><path id="310" transform="matrix(1 0 0 -1 0 612)" d="M795.0916 455.6113L794.9773 454.8423C 794.74 454.8101 794.5671 454.7207 794.4587 454.5742C 794.3123 454.3779 794.239 454.1099 794.239 453.77C 794.239 453.0376 794.5466 452.6582 795.074 452.5176C 795.2351 452.4766 795.5735 452.4575 796.0891 452.4604C 795.6819 452.8062 795.4783 453.2368 795.4783 453.7524C 795.4783 455.0356 796.5432 455.7695 797.8381 455.7695C 798.2834 455.7695 798.6943 455.689 799.0708 455.5278C 799.4473 455.3667 799.738 455.1331 799.9431 454.8269C 800.1482 454.5208 800.2507 454.1611 800.2507 453.748C 800.2507 453.1973 800.0281 452.7432 799.5828 452.3857L799.5828 452.3857L800.1453 452.3857L800.1453 452.3857L800.1453 451.6563L800.1453 451.6563L796.1111 451.6563C 795.3845 451.6563 794.8696 451.7302 794.5664 451.8782C 794.2632 452.0261 794.0237 452.2605 793.8479 452.5813C 793.6721 452.9021 793.5842 453.2969 793.5842 453.7656C 793.5842 454.8789 794.0837 455.6348 795.0916 455.6113zM797.8953 454.9565C 796.6707 454.9565 796.1331 454.4102 796.1331 453.6777C 796.1331 452.9512 796.6736 452.3945 797.8689 452.3945C 799.0115 452.3945 799.5959 452.9761 799.5959 453.6909C 799.5959 454.394 799.0203 454.9565 797.8953 454.9565z" stroke="none" fill="#323131" fill-rule="evenodd" /><path id="311" transform="matrix(1 0 0 -1 0 612)" d="M795.4783 450.4623L801.9207 450.4623L801.9207 450.4623L801.9207 449.6713L801.9207 449.6713L799.6091 449.6713C 800.0369 449.3022 800.2507 448.8363 800.2507 448.2738C 800.2507 447.9281 800.1826 447.6278 800.0464 447.373C 799.9102 447.1181 799.7219 446.9357 799.4817 446.8258C 799.2415 446.716 798.8928 446.661 798.4358 446.661L798.4358 446.661L795.4783 446.661L795.4783 446.661L795.4783 447.4521L795.4783 447.4521L798.4358 447.4521C 799.2268 447.4521 799.5696 447.8095 799.5696 448.4364C 799.5696 448.6708 799.5088 448.8913 799.3872 449.0978C 799.2656 449.3044 799.1008 449.4516 798.8928 449.5395C 798.6848 449.6273 798.3977 449.6713 798.0315 449.6713L798.0315 449.6713L795.4783 449.6713z" stroke="none" fill="#323131" fill-rule="evenodd" /><path id="312" transform="matrix(1 0 0 -1 0 612)" d="M796.1858 443.7313L795.4871 443.617C 795.4402 443.8397 795.4167 444.0389 795.4167 444.2147C 795.4167 444.5018 795.4622 444.7244 795.553 444.8826C 795.6438 445.0408 795.7632 445.1522 795.9111 445.2166C 796.0591 445.2811 796.3704 445.3133 796.845 445.3133L796.845 445.3133L799.53 445.3133L799.53 445.3133L799.53 445.8934L799.53 445.8934L800.1453 445.8934L800.1453 445.8934L800.1453 445.3133L800.1453 445.3133L801.301 445.3133L801.301 445.3133L801.7756 444.5267L801.7756 444.5267L800.1453 444.5267L800.1453 444.5267L800.1453 443.7313L800.1453 443.7313L799.53 443.7313L799.53 443.7313L799.53 444.5267L799.53 444.5267L796.801 444.5267C 796.5754 444.5267 796.4304 444.5128 796.366 444.4849C 796.3015 444.4571 796.2502 444.4117 796.2122 444.3487C 796.1741 444.2857 796.155 444.1956 796.155 444.0784C 796.155 443.9905 796.1653 443.8748 796.1858 443.7313z" stroke="none" fill="#323131" fill-rule="evenodd" /></g></g></svg>