<svg xmlns="http://www.w3.org/2000/svg" xmlns:xlink="http://www.w3.org/1999/xlink" id="body_9" preserveAspectRatio="xMinYMin meet" viewBox="0 0 1144 816"><defs><clipPath id="1"><path id="" clip-rule="evenodd" transform="matrix(1 0 0 1 0 0)" d="M0 612L0 -0.28302L0 -0.28302L858.898 -0.28302L858.898 -0.28302L858.898 612L858.898 612L0 612z" /></clipPath><clipPath id="2"><path id="" clip-rule="evenodd" transform="matrix(1 0 0 1 0 0)" d="M0 -0.28302L858.898 -0.28302L858.898 -0.28302L858.898 612L858.898 612L0 612z" /></clipPath><clipPath id="3"><path id="" clip-rule="evenodd" transform="matrix(1 0 0 1 0 0)" d="M78.683 535.465L802.205 535.465L802.205 535.465L802.205 76.25195L802.205 76.25195L78.683 76.25195z" /></clipPath></defs><g transform="matrix(1.333333 0 0 1.333333 0 0)"><g clip-path="url(#1)"><g clip-path="url(#2)"><path id="1" transform="matrix(1 0 0 -1 0 612)" d="M56.0365 141.0576C 56.5565 140.8976 57.43983 140.5443 58.0265 140.2776C 58.91983 139.8509 59.1265 139.7076 59.2465 139.4276L59.2465 139.4276L59.8265 139.5776C 59.73317 140.0976 59.7265 140.1309 59.6865 140.4776C 59.6065 141.3309 59.60984 141.3309 59.5965 141.4776C 60.5565 140.7976 60.87317 140.5476 61.2865 140.1876C 61.51317 139.9876 61.5765 139.8843 61.6565 139.6576L61.6565 139.6576L62.3165 139.8376C 62.2365 140.1709 62.1965 140.3376 62.1565 140.5776C 61.8365 142.4043 61.75983 142.8376 61.7465 142.9176L61.7465 142.9176L61.1165 142.9876C 61.28984 142.2409 61.30984 142.1676 61.5765 140.6476C 60.8165 141.2876 60.11983 141.8376 59.6265 142.1576C 58.6665 142.7843 58.6565 142.7809 58.2965 143.0476L58.2965 143.0476L57.9765 142.4276C 58.44317 142.1743 58.4865 142.1443 59.0465 141.8376C 59.1265 140.9309 59.12317 140.9343 59.1765 140.2676C 58.9365 140.4276 58.8565 140.4609 58.6565 140.5676C 58.4165 140.6876 57.56317 141.1176 57.4965 141.1576C 56.5765 141.5576 56.57317 141.5609 56.3065 141.7076zM60.2565 144.2376L60.2565 146.6976C 60.2565 147.1243 60.26984 147.3943 60.2965 147.6876C 60.02983 147.6476 59.7665 147.6476 59.3665 147.6476L59.3665 147.6476L57.4765 147.6476C 56.9565 147.6476 56.76317 147.6509 56.4965 147.6776C 56.5365 147.4109 56.5365 147.1276 56.5365 146.7276L56.5365 146.7276L56.5365 144.3276C 56.5365 143.9676 56.5165 143.6776 56.4765 143.3976L56.4765 143.3976L57.1765 143.3976C 57.14983 143.6376 57.1265 143.9276 57.1265 144.3276L57.1265 144.3276L57.1265 147.0176L57.1265 147.0176L59.6765 147.0176L59.6765 147.0176L59.6765 144.5176C 59.6765 144.1309 59.6765 143.8509 59.6365 143.5576C 59.8765 143.5976 60.12984 143.6076 60.5965 143.6076L60.5965 143.6076L63.9865 143.6076C 64.71983 143.6076 64.8265 143.8809 64.8265 145.8276C 64.8265 148.1343 64.7565 148.2143 62.4365 148.4276C 62.38317 148.1876 62.28317 147.9576 62.1365 147.7576C 63.20317 147.7176 63.7665 147.6376 63.9665 147.4776C 64.1665 147.3176 64.2165 146.9209 64.2165 145.7076C 64.2165 144.4143 64.1665 144.2376 63.8465 144.2376zM62.9865 143.0576C 63.2265 142.3643 63.4565 141.4509 63.6165 140.5576C 63.6965 140.1043 63.7565 139.6309 63.7565 139.4576C 63.7565 139.4309 63.7565 139.4143 63.7565 139.3876L63.7565 139.3876L64.4765 139.5376C 64.4365 139.6576 64.42317 139.6909 64.3565 140.0376C 64.1565 141.1309 63.9165 142.0776 63.6365 143.0376z" stroke="none" fill="#323232" fill-rule="evenodd" /><path id="2" transform="matrix(1 0 0 -1 0 612)" d="M57.1065 152.6876L56.8465 152.6876C 56.59317 152.6876 56.3765 152.6976 56.1365 152.7376L56.1365 152.7376L56.1365 152.0176C 56.3765 152.0576 56.6065 152.0776 56.8465 152.0776L56.8465 152.0776L57.1065 152.0776L57.1065 152.0776L57.1065 150.5876C 57.1065 150.0943 57.0865 149.7476 57.0465 149.4676L57.0465 149.4676L57.7165 149.4676C 57.6765 149.7476 57.6665 150.0543 57.6665 150.5876L57.6665 150.5876L57.6665 152.0776L57.6665 152.0776L57.9765 152.0776C 58.22984 152.0776 58.4365 152.0643 58.6365 152.0376L58.6365 152.0376L58.6365 152.7276C 58.4365 152.6876 58.25983 152.6876 57.9665 152.6876L57.9665 152.6876L57.6665 152.6876L57.6665 152.6876L57.6665 154.9976L57.6665 154.9976L57.9765 154.9976C 58.24317 154.9976 58.42317 154.9843 58.6365 154.9576L58.6365 154.9576L58.6365 155.6476C 58.4365 155.6076 58.2565 155.6076 57.9765 155.6076L57.9765 155.6076L57.6665 155.6076L57.6665 155.6076L57.6665 157.1476C 57.6665 157.6676 57.6765 157.9709 57.7165 158.2776L57.7165 158.2776L57.0465 158.2776C 57.0865 157.9709 57.1065 157.6276 57.1065 157.1476L57.1065 157.1476L57.1065 155.6076L57.1065 155.6076L56.8465 155.6076C 56.6065 155.6076 56.36317 155.6176 56.1365 155.6576L56.1365 155.6576L56.1365 154.9376C 56.3765 154.9776 56.6065 154.9976 56.8465 154.9976L56.8465 154.9976L57.1065 154.9976zM59.9865 157.1776C 59.9865 157.6043 60.0065 157.9443 60.0465 158.2776L60.0465 158.2776L59.3565 158.2776C 59.3965 157.9576 59.4165 157.6176 59.4165 157.1776L59.4165 157.1776L59.4165 153.5176C 59.2565 153.5976 59.1865 153.6276 59.0265 153.7076C 58.69317 153.8676 58.65984 153.8943 58.4865 153.9876L58.4865 153.9876L58.3365 153.2476C 58.6965 153.1676 58.9765 153.0743 59.4165 152.8476L59.4165 152.8476L59.4165 150.6376C 59.4165 150.1843 59.3965 149.8243 59.3565 149.5176L59.3565 149.5176L60.0465 149.5176C 60.0065 149.8376 59.9865 150.1976 59.9865 150.6376L59.9865 150.6376L59.9865 152.5076C 61.1465 151.7209 61.86317 150.9009 62.6365 149.4476C 62.8765 149.6876 62.8765 149.6876 63.0765 149.8076C 63.10317 149.8076 63.1365 149.8276 63.1765 149.8676C 62.58984 150.7609 62.4365 150.9576 61.9165 151.5576L61.9165 151.5576L64.06651 151.5576C 64.47984 151.5576 64.75317 151.5376 65.0065 151.4976L65.0065 151.4976L65.0065 152.1976L65.0065 152.1976L64.4465 152.1976L64.4465 152.1976L64.4465 156.4776L64.4465 156.4776L65.0165 156.4776L65.0165 156.4776L65.0165 157.1876C 64.68317 157.1476 64.39317 157.1276 64.0865 157.1276L64.0865 157.1276L62.2065 157.1276C 61.8465 157.1276 61.5765 157.1376 61.2565 157.1776C 61.2965 156.9243 61.3065 156.7176 61.3065 156.2376L61.3065 156.2376L61.3065 152.1876C 60.9065 152.5476 60.61317 152.7876 59.9865 153.1876zM61.8665 152.1976L61.8665 156.4776L61.8665 156.4776L63.8765 156.4776L63.8765 156.4776L63.8765 152.1976z" stroke="none" fill="#323232" fill-rule="evenodd" /><path id="3" transform="matrix(1 0 0 -1 0 612)" d="M57.9865 164.6176L57.9865 162.8776C 57.9865 162.4776 57.9865 162.1909 57.9465 161.9776C 58.19984 162.0043 58.4765 162.0176 58.8365 162.0176L58.8365 162.0176L61.0165 162.0176C 61.52317 162.0176 61.8165 162.0076 62.1365 161.9676L62.1365 161.9676L62.1365 162.6476L62.1365 162.6476L61.5865 162.6476L61.5865 162.6476L61.5865 164.6176L61.5865 164.6176L63.7665 164.6176C 64.29984 164.6176 64.62984 164.5876 64.9765 164.5476L64.9765 164.5476L64.9765 165.3276C 64.6165 165.2743 64.3265 165.2576 63.7665 165.2576L63.7665 165.2576L61.5865 165.2576L61.5865 165.2576L61.5865 167.3976L61.5865 167.3976L62.1365 167.3976L62.1365 167.3976L62.1365 168.0976C 61.80317 168.0576 61.49317 168.0376 61.0265 168.0376L61.0265 168.0376L58.8765 168.0376C 58.4365 168.0376 58.1865 168.0376 57.9465 168.0776C 57.9865 167.8643 57.9865 167.5776 57.9865 167.1376L57.9865 167.1376L57.9865 165.2576L57.9865 165.2576L57.2165 165.2576C 56.68317 165.2576 56.39983 165.2743 56.0665 165.3276L56.0665 165.3276L56.0665 164.5476C 56.3865 164.5876 56.69984 164.6176 57.2065 164.6176zM60.9965 164.6176L60.9965 162.6476L60.9965 162.6476L58.5765 162.6476L58.5765 162.6476L58.5765 164.6176zM60.9965 165.2576L58.5765 165.2576L58.5765 165.2576L58.5765 167.3976L58.5765 167.3976L60.9965 167.3976zM56.7965 159.6176C 57.4365 160.2443 57.8465 160.5609 58.6865 161.0676L58.6865 161.0676L58.2365 161.5976C 57.50317 161.1043 57.07983 160.7809 56.3865 160.1276zM60.6865 161.1276C 61.8465 160.7276 62.7665 160.2876 63.6065 159.7276C 63.85984 159.5543 63.97984 159.4576 64.0865 159.3376L64.0865 159.3376L64.5965 159.9476C 64.4365 160.0143 64.38317 160.0376 63.9965 160.2776C 63.10317 160.7976 62.37317 161.1476 61.1865 161.6276z" stroke="none" fill="#323232" fill-rule="evenodd" /></g><path id="4" transform="matrix(1 0 0 -1 0 612)" d="M78.683 76.535L802.204 76.535L802.204 535.748L78.683 535.748z" stroke="none" fill="#DBDCDE" fill-rule="nonzero" /><g clip-path="url(#3)"><g transform="matrix(0.553574 0 0 0.5531892 78.68347 75.17847)"><g transform="matrix(1 0 0 1 0 0)"><image x="0" y="0" xlink:href="img_23.png" width="1307" height="834" /></g></g></g><path id="6" transform="matrix(1 0 0 -1 0 612)" d="M56.2229 499.1488L56.9229 499.1488L56.9229 499.1488L56.9229 503.2488L56.9229 503.2488L58.1329 503.2488L58.1329 503.2488L58.1329 499.6388L58.1329 499.6388L65.0029 499.6388L65.0029 499.6388L65.0029 500.3388L65.0029 500.3388L58.8229 500.3388L58.8229 500.3388L58.8229 503.2488L58.8229 503.2488L64.8529 503.2488L64.8529 503.2488L64.8529 503.9488L64.8529 503.9488L58.8229 503.9488L58.8229 503.9488L58.8229 506.8188L58.8229 506.8188L63.8329 506.8188C 64.1129 506.8188 64.2729 506.6754 64.2729 506.4088L64.2729 506.4088L64.2429 505.2888L64.2429 505.2888L64.9329 505.4688L64.9329 505.4688L64.9329 506.6388C 64.9329 507.2121 64.60623 507.5188 63.9929 507.5188L63.9929 507.5188L58.1329 507.5188L58.1329 507.5188L58.1329 503.9488L58.1329 503.9488L56.9229 503.9488L56.9229 503.9488L56.9229 508.0488L56.9229 508.0488L56.2229 508.0488L56.2229 508.0488L56.2229 499.1488zM59.6529 501.1988L60.1929 500.8388C 60.4329 501.3988 60.77623 501.9421 61.2029 502.4888L61.2029 502.4888L60.6429 502.8588C 60.25623 502.3521 59.9329 501.7988 59.6529 501.1988zM61.6629 501.1188L62.1929 500.7688C 62.45957 501.3288 62.8229 501.8721 63.2629 502.4188L63.2629 502.4188L62.7029 502.7888C 62.3029 502.2821 61.9429 501.7188 61.6629 501.1188zM59.6629 504.7188L60.1929 504.3588C 60.4729 504.9188 60.83957 505.4821 61.2929 506.0288L61.2929 506.0288L60.7229 506.3888C 60.3229 505.8821 59.96957 505.3188 59.6629 504.7188zM61.7529 504.7188L62.2829 504.3588C 62.5629 504.9188 62.9229 505.4621 63.4029 506.0088L63.4029 506.0088L62.8329 506.3788C 62.41957 505.8721 62.05957 505.3188 61.7529 504.7188z" stroke="none" fill="#000000" fill-rule="evenodd" /><path id="7" transform="matrix(1 0 0 -1 0 612)" d="M59.3329 510.8788L59.3329 518.0788L59.3329 518.0788L58.6329 518.0788L58.6329 518.0788L58.6329 510.8788L58.6329 510.8788L57.2329 510.8788C 57.17957 513.3188 56.9529 515.5188 56.5529 517.4788L56.5529 517.4788L55.9029 517.1188C 56.3429 515.0521 56.56623 512.7421 56.5929 510.1688L56.5929 510.1688L59.5929 510.1688C 61.6329 510.1021 63.2329 509.7088 64.3929 508.9888L64.3929 508.9888L64.9429 509.5188C 63.6229 510.3588 61.8329 510.8121 59.5929 510.8788L59.5929 510.8788L59.3329 510.8788zM60.7329 517.2888L60.7329 511.7988L60.7329 511.7988L64.9729 511.7988L64.9729 511.7988L64.9729 512.5188L64.9729 512.5188L64.5029 512.5188L64.5029 512.5188L64.5029 516.5688L64.5029 516.5688L64.9729 516.5688L64.9729 516.5688L64.9729 517.2888L64.9729 517.2888L60.7329 517.2888zM63.8029 512.5188L61.4229 512.5188L61.4229 512.5188L61.4229 516.5688L61.4229 516.5688L63.8029 516.5688L63.8029 516.5688L63.8029 512.5188z" stroke="none" fill="#000000" fill-rule="evenodd" /><path id="8" transform="matrix(1 0 0 -1 0 612)" d="M57.5329 522.6388L57.5329 521.0288C 57.03957 521.2288 56.4929 521.3788 55.8929 521.4988L55.8929 521.4988L55.7929 520.7788C 56.3929 520.6854 56.9729 520.5488 57.5329 520.3488L57.5329 520.3488L57.5329 519.4188L57.5329 519.4188L64.6429 519.4188L64.6429 519.4188L64.6429 520.1188L64.6429 520.1188L63.7829 520.1188L63.7829 520.1188L63.7829 521.9388L63.7829 521.9388L64.3529 521.9388L64.3529 521.9388L64.3529 522.6388L64.3529 522.6388L57.5329 522.6388zM63.1129 520.1188L60.9229 520.1188L60.9229 520.1188L60.9229 521.9388L60.9229 521.9388L63.1129 521.9388L63.1129 521.9388L63.1129 520.1188zM60.2729 520.1188L58.2129 520.1188L58.2129 520.1188L58.2129 521.9388L58.2129 521.9388L60.2729 521.9388L60.2729 521.9388L60.2729 520.1188zM59.8529 524.3788L60.2129 523.7988C 61.03957 524.4788 61.77957 525.0355 62.4329 525.4488L62.4329 525.4488L62.0329 526.0188C 61.41957 525.6321 60.6929 525.0988 59.8529 524.3788zM57.5429 527.8088L57.5429 524.6188C 57.0229 524.7921 56.4729 524.9388 55.8729 525.0588L55.8729 525.0588L55.7829 524.3488C 57.20957 524.0821 58.40957 523.6121 59.3829 522.9188L59.3829 522.9188L59.9529 523.3488C 59.44624 523.7355 58.8829 524.0688 58.2429 524.3488L58.2429 524.3488L58.2429 527.0988C 61.1229 527.0721 62.8529 527.0321 63.4129 526.9788C 63.9329 526.8988 64.1829 526.6254 64.1829 526.1588C 64.1829 525.8388 64.16624 525.4821 64.1529 525.0688L64.1529 525.0688L64.8129 525.2388C 64.82623 525.7188 64.8529 526.0588 64.8529 526.2588C 64.8529 527.0988 64.4629 527.5521 63.7029 527.6588C 62.92957 527.7521 60.8629 527.8088 57.5429 527.8088z" stroke="none" fill="#000000" fill-rule="evenodd" /><path id="9" transform="matrix(1 0 0 -1 0 612)" d="M56.8629 529.2188L57.5529 529.2188L57.5529 529.2188L57.5529 537.9988L57.5529 537.9988L56.8629 537.9988L56.8629 537.9988L56.8629 534.1088C 56.44957 533.9488 56.05957 533.7721 55.7129 533.5988L55.7129 533.5988L55.8329 532.8088C 56.1529 532.9955 56.48957 533.1688 56.8629 533.3288L56.8629 533.3288L56.8629 529.2188zM61.0929 530.3388L65.0229 530.3388L65.0229 530.3388L65.0229 531.0788L65.0229 531.0788L59.9529 531.0788C 59.33957 531.3988 58.6529 531.6588 57.8929 531.8588L57.8929 531.8588L57.8029 531.1088C 59.22957 530.7488 60.43957 530.0588 61.4129 529.0188L61.4129 529.0188L62.0329 529.4888C 61.7529 529.7821 61.43957 530.0588 61.0929 530.3388zM59.9529 534.5788L60.4029 534.1188C 60.82957 534.7054 61.2429 535.2088 61.6429 535.6088C 61.94957 535.3821 62.22623 535.1288 62.4929 534.8488C 61.9329 534.2355 61.26957 533.7321 60.4829 533.3588C 60.1629 533.5988 59.8129 533.8088 59.4129 534.0088L59.4129 534.0088L59.4129 536.6288C 60.02623 536.4688 60.59957 536.2455 61.1329 535.9388C 60.7329 535.5521 60.3529 535.0988 59.9529 534.5788zM57.8229 533.8288C 59.2229 533.4421 60.34957 532.7088 61.1629 531.6288L61.1629 531.6288L61.7429 532.0988C 61.5429 532.3788 61.30957 532.6354 61.0429 532.8888C 61.7629 533.2621 62.4029 533.7355 62.9629 534.3088C 63.4829 533.6288 63.92957 532.8088 64.3029 531.8488L64.3029 531.8488L64.9929 532.2188C 64.5929 533.2455 64.08624 534.1321 63.4729 534.8788C 64.1129 535.6521 64.61623 536.5888 65.0029 537.7088L65.0029 537.7088L64.3429 538.1588C 64.0229 537.1055 63.5729 536.1921 62.9729 535.4188C 61.99957 536.3788 60.7929 537.0154 59.3529 537.3488L59.3529 537.3488L58.7329 537.3488L58.7329 537.3488L58.7329 534.2988C 58.47957 534.3788 58.2229 534.4688 57.9429 534.5488L57.9429 534.5488L57.8229 533.8288z" stroke="none" fill="#000000" fill-rule="evenodd" /><path id="10" transform="matrix(1 0 0 -1 0 612)" d="M60.9029 540.1788L61.5829 540.1788L61.5829 540.1788L61.5829 543.2288L61.5829 543.2288L63.9529 543.2288L63.9529 543.2288L63.9529 539.3388L63.9529 539.3388L64.6429 539.3388L64.6429 539.3388L64.6429 547.8688L64.6429 547.8688L63.9529 547.8688L63.9529 547.8688L63.9529 543.9588L63.9529 543.9588L61.5829 543.9588L61.5829 543.9588L61.5829 547.0288L61.5829 547.0288L60.9029 547.0288L60.9029 547.0288L60.9029 540.1788zM58.0929 544.5288L58.6629 544.1488C 59.1029 545.1088 59.7029 546.0688 60.4629 546.9888L60.4629 546.9888L59.8529 547.3988C 59.1729 546.5321 58.5729 545.5688 58.0929 544.5288zM58.1629 542.4388C 58.8429 541.7054 59.3829 540.7888 59.7829 539.6688L59.7829 539.6688L60.4429 539.9788C 59.97623 541.1388 59.38957 542.1021 58.6829 542.8888L58.6829 542.8888L58.1629 542.4388zM55.7429 543.6388L55.8629 542.8588C 56.1429 543.0054 56.45957 543.1454 56.7929 543.2788L56.7929 543.2788L56.7929 539.3588L56.7929 539.3588L58.7929 539.3588L58.7929 539.3588L58.7929 540.0888L58.7929 540.0888L57.4629 540.0888L57.4629 540.0888L57.4629 547.1188L57.4629 547.1188L58.8029 547.1188L58.8029 547.1188L58.8029 547.8488L58.8029 547.8488L56.7929 547.8488L56.7929 547.8488L56.7929 544.0188C 56.40623 543.8988 56.0629 543.7588 55.7429 543.6388z" stroke="none" fill="#000000" fill-rule="evenodd" /></g></g></svg>