<svg xmlns="http://www.w3.org/2000/svg" xmlns:xlink="http://www.w3.org/1999/xlink" id="body_1" preserveAspectRatio="xMinYMin meet" viewBox="0 0 1144 816"><defs><clipPath id="1"><path id="" clip-rule="evenodd" transform="matrix(1 0 0 1 0 0)" d="M0 612L0 -0.28302L0 -0.28302L858.898 -0.28302L858.898 -0.28302L858.898 612L858.898 612L0 612z" /></clipPath><clipPath id="2"><path id="" clip-rule="evenodd" transform="matrix(1 0 0 1 0 0)" d="M0 -0.28302L858.898 -0.28302L858.898 -0.28302L858.898 612L858.898 612L0 612z" /></clipPath><clipPath id="3"><path id="" clip-rule="evenodd" transform="matrix(1 0 0 1 0 0)" d="M185.118 555.307L858.898 555.307L858.898 555.307L858.898 56.409L858.898 56.409L185.118 56.409z" /></clipPath></defs><g transform="matrix(1.333333 0 0 1.333333 0 0)"><g clip-path="url(#1)"><g clip-path="url(#2)"><path id="1" transform="matrix(1 0 0 -1 0 612)" d="M56.0365 141.0577C 56.5565 140.8977 57.43983 140.5444 58.0265 140.2777C 58.91983 139.851 59.1265 139.7077 59.2465 139.4277L59.2465 139.4277L59.8265 139.5777C 59.73317 140.0977 59.7265 140.131 59.6865 140.4777C 59.6065 141.331 59.60984 141.331 59.5965 141.4777C 60.5565 140.7977 60.87317 140.5477 61.2865 140.1877C 61.51317 139.9877 61.5765 139.8844 61.6565 139.6577L61.6565 139.6577L62.3165 139.8377C 62.2365 140.171 62.1965 140.3377 62.1565 140.5777C 61.8365 142.4044 61.75983 142.8377 61.7465 142.9177L61.7465 142.9177L61.1165 142.9877C 61.28984 142.241 61.30984 142.1677 61.5765 140.6477C 60.8165 141.2877 60.11983 141.8377 59.6265 142.1577C 58.6665 142.7844 58.6565 142.781 58.2965 143.0477L58.2965 143.0477L57.9765 142.4277C 58.44317 142.1744 58.4865 142.1444 59.0465 141.8377C 59.1265 140.931 59.12317 140.9344 59.1765 140.2677C 58.9365 140.4277 58.8565 140.461 58.6565 140.5677C 58.4165 140.6877 57.56317 141.1177 57.4965 141.1577C 56.5765 141.5577 56.57317 141.561 56.3065 141.7077zM60.2565 144.2377L60.2565 146.6977C 60.2565 147.1244 60.26984 147.3944 60.2965 147.6877C 60.02983 147.6477 59.7665 147.6477 59.3665 147.6477L59.3665 147.6477L57.4765 147.6477C 56.9565 147.6477 56.76317 147.651 56.4965 147.6777C 56.5365 147.411 56.5365 147.1277 56.5365 146.7277L56.5365 146.7277L56.5365 144.3277C 56.5365 143.9677 56.5165 143.6777 56.4765 143.3977L56.4765 143.3977L57.1765 143.3977C 57.14983 143.6377 57.1265 143.9277 57.1265 144.3277L57.1265 144.3277L57.1265 147.0177L57.1265 147.0177L59.6765 147.0177L59.6765 147.0177L59.6765 144.5177C 59.6765 144.131 59.6765 143.851 59.6365 143.5577C 59.8765 143.5977 60.12984 143.6077 60.5965 143.6077L60.5965 143.6077L63.9865 143.6077C 64.71983 143.6077 64.8265 143.881 64.8265 145.8277C 64.8265 148.1344 64.7565 148.2144 62.4365 148.4277C 62.38317 148.1877 62.28317 147.9577 62.1365 147.7577C 63.20317 147.7177 63.7665 147.6377 63.9665 147.4777C 64.1665 147.3177 64.2165 146.921 64.2165 145.7077C 64.2165 144.4144 64.1665 144.2377 63.8465 144.2377zM62.9865 143.0577C 63.2265 142.3644 63.4565 141.451 63.6165 140.5577C 63.6965 140.1044 63.7565 139.631 63.7565 139.4577C 63.7565 139.431 63.7565 139.4144 63.7565 139.3877L63.7565 139.3877L64.4765 139.5377C 64.4365 139.6577 64.42317 139.691 64.3565 140.0377C 64.1565 141.131 63.9165 142.0777 63.6365 143.0377z" stroke="none" fill="#333332" fill-rule="evenodd" /><path id="2" transform="matrix(1 0 0 -1 0 612)" d="M57.1065 152.6877L56.8465 152.6877C 56.59317 152.6877 56.3765 152.6977 56.1365 152.7377L56.1365 152.7377L56.1365 152.0177C 56.3765 152.0577 56.6065 152.0777 56.8465 152.0777L56.8465 152.0777L57.1065 152.0777L57.1065 152.0777L57.1065 150.5877C 57.1065 150.0944 57.0865 149.7477 57.0465 149.4677L57.0465 149.4677L57.7165 149.4677C 57.6765 149.7477 57.6665 150.0544 57.6665 150.5877L57.6665 150.5877L57.6665 152.0777L57.6665 152.0777L57.9765 152.0777C 58.22984 152.0777 58.4365 152.0644 58.6365 152.0377L58.6365 152.0377L58.6365 152.7277C 58.4365 152.6877 58.25983 152.6877 57.9665 152.6877L57.9665 152.6877L57.6665 152.6877L57.6665 152.6877L57.6665 154.9977L57.6665 154.9977L57.9765 154.9977C 58.24317 154.9977 58.42317 154.9844 58.6365 154.9577L58.6365 154.9577L58.6365 155.6477C 58.4365 155.6077 58.2565 155.6077 57.9765 155.6077L57.9765 155.6077L57.6665 155.6077L57.6665 155.6077L57.6665 157.1477C 57.6665 157.6677 57.6765 157.971 57.7165 158.2777L57.7165 158.2777L57.0465 158.2777C 57.0865 157.971 57.1065 157.6277 57.1065 157.1477L57.1065 157.1477L57.1065 155.6077L57.1065 155.6077L56.8465 155.6077C 56.6065 155.6077 56.36317 155.6177 56.1365 155.6577L56.1365 155.6577L56.1365 154.9377C 56.3765 154.9777 56.6065 154.9977 56.8465 154.9977L56.8465 154.9977L57.1065 154.9977zM59.9865 157.1777C 59.9865 157.6044 60.0065 157.9444 60.0465 158.2777L60.0465 158.2777L59.3565 158.2777C 59.3965 157.9577 59.4165 157.6177 59.4165 157.1777L59.4165 157.1777L59.4165 153.5177C 59.2565 153.5977 59.1865 153.6277 59.0265 153.7077C 58.69317 153.8677 58.65984 153.8944 58.4865 153.9877L58.4865 153.9877L58.3365 153.2477C 58.6965 153.1677 58.9765 153.0744 59.4165 152.8477L59.4165 152.8477L59.4165 150.6377C 59.4165 150.1844 59.3965 149.8244 59.3565 149.5177L59.3565 149.5177L60.0465 149.5177C 60.0065 149.8377 59.9865 150.1977 59.9865 150.6377L59.9865 150.6377L59.9865 152.5077C 61.1465 151.721 61.86317 150.901 62.6365 149.4477C 62.8765 149.6877 62.8765 149.6877 63.0765 149.8077C 63.10317 149.8077 63.1365 149.8277 63.1765 149.8677C 62.58984 150.761 62.4365 150.9577 61.9165 151.5577L61.9165 151.5577L64.06651 151.5577C 64.47984 151.5577 64.75317 151.5377 65.0065 151.4977L65.0065 151.4977L65.0065 152.1977L65.0065 152.1977L64.4465 152.1977L64.4465 152.1977L64.4465 156.4777L64.4465 156.4777L65.0165 156.4777L65.0165 156.4777L65.0165 157.1877C 64.68317 157.1477 64.39317 157.1277 64.0865 157.1277L64.0865 157.1277L62.2065 157.1277C 61.8465 157.1277 61.5765 157.1377 61.2565 157.1777C 61.2965 156.9244 61.3065 156.7177 61.3065 156.2377L61.3065 156.2377L61.3065 152.1877C 60.9065 152.5477 60.61317 152.7877 59.9865 153.1877zM61.8665 152.1977L61.8665 156.4777L61.8665 156.4777L63.8765 156.4777L63.8765 156.4777L63.8765 152.1977z" stroke="none" fill="#333332" fill-rule="evenodd" /><path id="3" transform="matrix(1 0 0 -1 0 612)" d="M57.9865 164.6177L57.9865 162.8777C 57.9865 162.4777 57.9865 162.191 57.9465 161.9777C 58.19984 162.0044 58.4765 162.0177 58.8365 162.0177L58.8365 162.0177L61.0165 162.0177C 61.52317 162.0177 61.8165 162.0077 62.1365 161.9677L62.1365 161.9677L62.1365 162.6477L62.1365 162.6477L61.5865 162.6477L61.5865 162.6477L61.5865 164.6177L61.5865 164.6177L63.7665 164.6177C 64.29984 164.6177 64.62984 164.5877 64.9765 164.5477L64.9765 164.5477L64.9765 165.3277C 64.6165 165.2744 64.3265 165.2577 63.7665 165.2577L63.7665 165.2577L61.5865 165.2577L61.5865 165.2577L61.5865 167.3977L61.5865 167.3977L62.1365 167.3977L62.1365 167.3977L62.1365 168.0977C 61.80317 168.0577 61.49317 168.0377 61.0265 168.0377L61.0265 168.0377L58.8765 168.0377C 58.4365 168.0377 58.1865 168.0377 57.9465 168.0777C 57.9865 167.8644 57.9865 167.5777 57.9865 167.1377L57.9865 167.1377L57.9865 165.2577L57.9865 165.2577L57.2165 165.2577C 56.68317 165.2577 56.39983 165.2744 56.0665 165.3277L56.0665 165.3277L56.0665 164.5477C 56.3865 164.5877 56.69984 164.6177 57.2065 164.6177zM60.9965 164.6177L60.9965 162.6477L60.9965 162.6477L58.5765 162.6477L58.5765 162.6477L58.5765 164.6177zM60.9965 165.2577L58.5765 165.2577L58.5765 165.2577L58.5765 167.3977L58.5765 167.3977L60.9965 167.3977zM56.7965 159.6177C 57.4365 160.2444 57.8465 160.561 58.6865 161.0677L58.6865 161.0677L58.2365 161.5977C 57.50317 161.1044 57.07983 160.781 56.3865 160.1277zM60.6865 161.1277C 61.8465 160.7277 62.7665 160.2877 63.6065 159.7277C 63.85984 159.5544 63.97984 159.4577 64.0865 159.3377L64.0865 159.3377L64.5965 159.9477C 64.4365 160.0144 64.38317 160.0377 63.9965 160.2777C 63.10317 160.7977 62.37317 161.1477 61.1865 161.6277z" stroke="none" fill="#333332" fill-rule="evenodd" /></g><path id="4" transform="matrix(1 0 0 -1 0 612)" d="M185.118 56.693L858.898 56.693L858.898 555.591L185.118 555.591z" stroke="none" fill="#DCDDDE" fill-rule="nonzero" /><g clip-path="url(#3)"><g transform="matrix(0.7018537 0 0 0.7018537 185.1181 55.29626)"><g transform="matrix(1 0 0 1 0 0)"><image x="0" y="0" xlink:href="img_01.png" width="962" height="714" /></g></g></g><path id="6" transform="matrix(1 0 0 -1 0 612)" d="M56.2229 498.664L56.9229 498.664L56.9229 498.664L56.9229 502.764L56.9229 502.764L58.1329 502.764L58.1329 502.764L58.1329 499.154L58.1329 499.154L65.0029 499.154L65.0029 499.154L65.0029 499.854L65.0029 499.854L58.8229 499.854L58.8229 499.854L58.8229 502.764L58.8229 502.764L64.8529 502.764L64.8529 502.764L64.8529 503.464L64.8529 503.464L58.8229 503.464L58.8229 503.464L58.8229 506.334L58.8229 506.334L63.8329 506.334C 64.1129 506.334 64.2729 506.1907 64.2729 505.924L64.2729 505.924L64.2429 504.804L64.2429 504.804L64.9329 504.984L64.9329 504.984L64.9329 506.154C 64.9329 506.7274 64.60623 507.034 63.9929 507.034L63.9929 507.034L58.1329 507.034L58.1329 507.034L58.1329 503.464L58.1329 503.464L56.9229 503.464L56.9229 503.464L56.9229 507.564L56.9229 507.564L56.2229 507.564L56.2229 507.564L56.2229 498.664zM59.6529 500.714L60.1929 500.354C 60.4329 500.914 60.77623 501.4573 61.2029 502.004L61.2029 502.004L60.6429 502.374C 60.25623 501.8673 59.9329 501.314 59.6529 500.714zM61.6629 500.634L62.1929 500.284C 62.45957 500.844 62.8229 501.3874 63.2629 501.934L63.2629 501.934L62.7029 502.304C 62.3029 501.7973 61.9429 501.234 61.6629 500.634zM59.6629 504.234L60.1929 503.874C 60.4729 504.434 60.83957 504.9973 61.2929 505.544L61.2929 505.544L60.7229 505.904C 60.3229 505.3973 59.96957 504.834 59.6629 504.234zM61.7529 504.234L62.2829 503.874C 62.5629 504.434 62.9229 504.9774 63.4029 505.524L63.4029 505.524L62.8329 505.894C 62.41957 505.3874 62.05957 504.834 61.7529 504.234z" stroke="none" fill="#000000" fill-rule="evenodd" /><path id="7" transform="matrix(1 0 0 -1 0 612)" d="M59.3329 510.394L59.3329 517.594L59.3329 517.594L58.6329 517.594L58.6329 517.594L58.6329 510.394L58.6329 510.394L57.2329 510.394C 57.17957 512.834 56.9529 515.034 56.5529 516.994L56.5529 516.994L55.9029 516.634C 56.3429 514.5673 56.56623 512.2573 56.5929 509.684L56.5929 509.684L59.5929 509.684C 61.6329 509.6173 63.2329 509.224 64.3929 508.504L64.3929 508.504L64.9429 509.034C 63.6229 509.874 61.8329 510.3274 59.5929 510.394L59.5929 510.394L59.3329 510.394zM60.7329 516.804L60.7329 511.314L60.7329 511.314L64.9729 511.314L64.9729 511.314L64.9729 512.034L64.9729 512.034L64.5029 512.034L64.5029 512.034L64.5029 516.084L64.5029 516.084L64.9729 516.084L64.9729 516.084L64.9729 516.804L64.9729 516.804L60.7329 516.804zM63.8029 512.034L61.4229 512.034L61.4229 512.034L61.4229 516.084L61.4229 516.084L63.8029 516.084L63.8029 516.084L63.8029 512.034z" stroke="none" fill="#000000" fill-rule="evenodd" /><path id="8" transform="matrix(1 0 0 -1 0 612)" d="M57.5329 522.154L57.5329 520.544C 57.03957 520.744 56.4929 520.894 55.8929 521.014L55.8929 521.014L55.7929 520.294C 56.3929 520.2007 56.9729 520.064 57.5329 519.864L57.5329 519.864L57.5329 518.934L57.5329 518.934L64.6429 518.934L64.6429 518.934L64.6429 519.634L64.6429 519.634L63.7829 519.634L63.7829 519.634L63.7829 521.454L63.7829 521.454L64.3529 521.454L64.3529 521.454L64.3529 522.154L64.3529 522.154L57.5329 522.154zM63.1129 519.634L60.9229 519.634L60.9229 519.634L60.9229 521.454L60.9229 521.454L63.1129 521.454L63.1129 521.454L63.1129 519.634zM60.2729 519.634L58.2129 519.634L58.2129 519.634L58.2129 521.454L58.2129 521.454L60.2729 521.454L60.2729 521.454L60.2729 519.634zM59.8529 523.894L60.2129 523.314C 61.03957 523.994 61.77957 524.5507 62.4329 524.964L62.4329 524.964L62.0329 525.534C 61.41957 525.1473 60.6929 524.614 59.8529 523.894zM57.5429 527.324L57.5429 524.134C 57.0229 524.3074 56.4729 524.454 55.8729 524.574L55.8729 524.574L55.7829 523.864C 57.20957 523.5974 58.40957 523.1273 59.3829 522.434L59.3829 522.434L59.9529 522.864C 59.44624 523.2507 58.8829 523.584 58.2429 523.864L58.2429 523.864L58.2429 526.614C 61.1229 526.5873 62.8529 526.5474 63.4129 526.494C 63.9329 526.414 64.1829 526.1407 64.1829 525.674C 64.1829 525.354 64.16624 524.9974 64.1529 524.584L64.1529 524.584L64.8129 524.754C 64.82623 525.234 64.8529 525.574 64.8529 525.774C 64.8529 526.614 64.4629 527.0673 63.7029 527.174C 62.92957 527.2673 60.8629 527.324 57.5429 527.324z" stroke="none" fill="#000000" fill-rule="evenodd" /><path id="9" transform="matrix(1 0 0 -1 0 612)" d="M56.8629 528.734L57.5529 528.734L57.5529 528.734L57.5529 537.514L57.5529 537.514L56.8629 537.514L56.8629 537.514L56.8629 533.624C 56.44957 533.464 56.05957 533.2874 55.7129 533.114L55.7129 533.114L55.8329 532.324C 56.1529 532.5107 56.48957 532.684 56.8629 532.844L56.8629 532.844L56.8629 528.734zM61.0929 529.854L65.0229 529.854L65.0229 529.854L65.0229 530.594L65.0229 530.594L59.9529 530.594C 59.33957 530.914 58.6529 531.174 57.8929 531.374L57.8929 531.374L57.8029 530.624C 59.22957 530.264 60.43957 529.574 61.4129 528.534L61.4129 528.534L62.0329 529.004C 61.7529 529.2974 61.43957 529.574 61.0929 529.854zM59.9529 534.094L60.4029 533.634C 60.82957 534.2207 61.2429 534.724 61.6429 535.124C 61.94957 534.8973 62.22623 534.644 62.4929 534.364C 61.9329 533.7507 61.26957 533.2473 60.4829 532.874C 60.1629 533.114 59.8129 533.324 59.4129 533.524L59.4129 533.524L59.4129 536.144C 60.02623 535.984 60.59957 535.7607 61.1329 535.454C 60.7329 535.0673 60.3529 534.614 59.9529 534.094zM57.8229 533.344C 59.2229 532.9573 60.34957 532.224 61.1629 531.144L61.1629 531.144L61.7429 531.614C 61.5429 531.894 61.30957 532.1507 61.0429 532.404C 61.7629 532.7773 62.4029 533.2507 62.9629 533.824C 63.4829 533.144 63.92957 532.324 64.3029 531.364L64.3029 531.364L64.9929 531.734C 64.5929 532.7607 64.08624 533.6473 63.4729 534.394C 64.1129 535.1674 64.61623 536.104 65.0029 537.224L65.0029 537.224L64.3429 537.674C 64.0229 536.6207 63.5729 535.7073 62.9729 534.934C 61.99957 535.894 60.7929 536.5307 59.3529 536.864L59.3529 536.864L58.7329 536.864L58.7329 536.864L58.7329 533.814C 58.47957 533.894 58.2229 533.984 57.9429 534.064L57.9429 534.064L57.8229 533.344z" stroke="none" fill="#000000" fill-rule="evenodd" /><path id="10" transform="matrix(1 0 0 -1 0 612)" d="M60.9029 539.694L61.5829 539.694L61.5829 539.694L61.5829 542.744L61.5829 542.744L63.9529 542.744L63.9529 542.744L63.9529 538.854L63.9529 538.854L64.6429 538.854L64.6429 538.854L64.6429 547.384L64.6429 547.384L63.9529 547.384L63.9529 547.384L63.9529 543.474L63.9529 543.474L61.5829 543.474L61.5829 543.474L61.5829 546.544L61.5829 546.544L60.9029 546.544L60.9029 546.544L60.9029 539.694zM58.0929 544.044L58.6629 543.664C 59.1029 544.624 59.7029 545.584 60.4629 546.504L60.4629 546.504L59.8529 546.914C 59.1729 546.0474 58.5729 545.084 58.0929 544.044zM58.1629 541.954C 58.8429 541.2207 59.3829 540.304 59.7829 539.184L59.7829 539.184L60.4429 539.494C 59.97623 540.654 59.38957 541.6174 58.6829 542.404L58.6829 542.404L58.1629 541.954zM55.7429 543.154L55.8629 542.374C 56.1429 542.5207 56.45957 542.6607 56.7929 542.794L56.7929 542.794L56.7929 538.874L56.7929 538.874L58.7929 538.874L58.7929 538.874L58.7929 539.604L58.7929 539.604L57.4629 539.604L57.4629 539.604L57.4629 546.634L57.4629 546.634L58.8029 546.634L58.8029 546.634L58.8029 547.364L58.8029 547.364L56.7929 547.364L56.7929 547.364L56.7929 543.534C 56.40623 543.414 56.0629 543.274 55.7429 543.154z" stroke="none" fill="#000000" fill-rule="evenodd" /></g></g></svg>