<svg xmlns="http://www.w3.org/2000/svg" xmlns:xlink="http://www.w3.org/1999/xlink" id="body_8" preserveAspectRatio="xMinYMin meet" viewBox="0 0 1144 816"><defs><clipPath id="1"><path id="" clip-rule="evenodd" transform="matrix(1 0 0 1 0 0)" d="M0 612L0 -0.28302L0 -0.28302L858.898 -0.28302L858.898 -0.28302L858.898 612L858.898 612L0 612z" /></clipPath><clipPath id="2"><path id="" clip-rule="evenodd" transform="matrix(1 0 0 1 0 0)" d="M0 -0.28302L858.898 -0.28302L858.898 -0.28302L858.898 612L858.898 612L0 612z" /></clipPath><clipPath id="3"><path id="" clip-rule="evenodd" transform="matrix(1 0 0 1 0 0)" d="M0 555.977L688.811 555.977L688.811 555.977L688.811 57.07898L688.811 57.07898L0 57.07898z" /></clipPath><clipPath id="4"><path id="" clip-rule="evenodd" transform="matrix(1 0 0 1 0 0)" d="M0 612L858.898 612L858.898 612L858.898 -0.28302L858.898 -0.28302L0 -0.28302z" /></clipPath></defs><g transform="matrix(1.333333 0 0 1.333333 0 0)"><g clip-path="url(#1)"><g clip-path="url(#2)"><path id="1" transform="matrix(1 0 0 -1 0 612)" d="M802.6706 188.9571C 802.1506 189.1171 801.2673 189.4704 800.6806 189.7371C 799.7873 190.1638 799.5806 190.3071 799.4606 190.5871L799.4606 190.5871L798.8806 190.4371C 798.9739 189.9171 798.9806 189.8838 799.0206 189.5371C 799.1006 188.6838 799.0973 188.6838 799.1106 188.5371C 798.1506 189.2171 797.8339 189.4671 797.4206 189.8271C 797.1939 190.0271 797.1306 190.1304 797.0506 190.3571L797.0506 190.3571L796.3906 190.1771C 796.4706 189.8438 796.5106 189.6771 796.5506 189.4371C 796.8706 187.6104 796.9473 187.1771 796.9606 187.0971L796.9606 187.0971L797.5906 187.0271C 797.4173 187.7738 797.3973 187.8471 797.1306 189.3671C 797.8906 188.7271 798.5873 188.1771 799.0806 187.8571C 800.0406 187.2304 800.0506 187.2338 800.4106 186.9671L800.4106 186.9671L800.7306 187.5871C 800.2639 187.8404 800.2206 187.8704 799.6606 188.1771C 799.5806 189.0838 799.5839 189.0804 799.5306 189.7471C 799.7706 189.5871 799.8506 189.5538 800.0506 189.4471C 800.2906 189.3271 801.1439 188.8971 801.2106 188.8571C 802.1306 188.4571 802.1339 188.4538 802.4006 188.3071zM798.4506 185.7771L798.4506 183.3171C 798.4506 182.8904 798.4373 182.6204 798.4106 182.3271C 798.6772 182.3671 798.9406 182.3671 799.3406 182.3671L799.3406 182.3671L801.2306 182.3671C 801.7506 182.3671 801.9439 182.3638 802.2106 182.3371C 802.1706 182.6038 802.1706 182.8871 802.1706 183.2871L802.1706 183.2871L802.1706 185.6871C 802.1706 186.0471 802.1906 186.3371 802.2306 186.6171L802.2306 186.6171L801.5306 186.6171C 801.5573 186.3771 801.5806 186.0871 801.5806 185.6871L801.5806 185.6871L801.5806 182.9971L801.5806 182.9971L799.0306 182.9971L799.0306 182.9971L799.0306 185.4971C 799.0306 185.8838 799.0306 186.1638 799.0706 186.4571C 798.8306 186.4171 798.5773 186.4071 798.1106 186.4071L798.1106 186.4071L794.7206 186.4071C 793.9872 186.4071 793.8806 186.1338 793.8806 184.1871C 793.8806 181.8804 793.9506 181.8004 796.2706 181.5871C 796.3239 181.8271 796.424 182.0571 796.5706 182.2571C 795.504 182.2971 794.9406 182.3771 794.7406 182.5371C 794.5406 182.6971 794.4906 183.0938 794.4906 184.3071C 794.4906 185.6004 794.5406 185.7771 794.8606 185.7771zM795.7206 186.9571C 795.4806 187.6504 795.2506 188.5638 795.0906 189.4571C 795.0106 189.9104 794.9506 190.3838 794.9506 190.5571C 794.9506 190.5838 794.9506 190.6004 794.9506 190.6271L794.9506 190.6271L794.2306 190.4771C 794.2706 190.3571 794.2839 190.3238 794.3506 189.9771C 794.5506 188.8838 794.7906 187.9371 795.0706 186.9771z" stroke="none" fill="#333332" fill-rule="evenodd" /><path id="2" transform="matrix(1 0 0 -1 0 612)" d="M801.6006 177.3271L801.8606 177.3271C 802.114 177.3271 802.3306 177.3171 802.5706 177.2771L802.5706 177.2771L802.5706 177.9971C 802.3306 177.9571 802.1006 177.9371 801.8606 177.9371L801.8606 177.9371L801.6006 177.9371L801.6006 177.9371L801.6006 179.4271C 801.6006 179.9204 801.6206 180.2671 801.6606 180.5471L801.6606 180.5471L800.9906 180.5471C 801.0306 180.2671 801.0406 179.9604 801.0406 179.4271L801.0406 179.4271L801.0406 177.9371L801.0406 177.9371L800.7306 177.9371C 800.4773 177.9371 800.2706 177.9504 800.0706 177.9771L800.0706 177.9771L800.0706 177.2871C 800.2706 177.3271 800.4473 177.3271 800.7406 177.3271L800.7406 177.3271L801.0406 177.3271L801.0406 177.3271L801.0406 175.0171L801.0406 175.0171L800.7306 175.0171C 800.4639 175.0171 800.2839 175.0304 800.0706 175.0571L800.0706 175.0571L800.0706 174.3671C 800.2706 174.4071 800.4506 174.4071 800.7306 174.4071L800.7306 174.4071L801.0406 174.4071L801.0406 174.4071L801.0406 172.8671C 801.0406 172.3471 801.0306 172.0438 800.9906 171.7371L800.9906 171.7371L801.6606 171.7371C 801.6206 172.0438 801.6006 172.3871 801.6006 172.8671L801.6006 172.8671L801.6006 174.4071L801.6006 174.4071L801.8606 174.4071C 802.1006 174.4071 802.3439 174.3971 802.5706 174.3571L802.5706 174.3571L802.5706 175.0771C 802.3306 175.0371 802.1006 175.0171 801.8606 175.0171L801.8606 175.0171L801.6006 175.0171zM798.7206 172.8371C 798.7206 172.4104 798.7006 172.0704 798.6606 171.7371L798.6606 171.7371L799.3506 171.7371C 799.3106 172.0571 799.2906 172.3971 799.2906 172.8371L799.2906 172.8371L799.2906 176.4971C 799.4506 176.4171 799.5206 176.3871 799.6806 176.3071C 800.0139 176.1471 800.0472 176.1204 800.2206 176.0271L800.2206 176.0271L800.3706 176.7671C 800.0106 176.8471 799.7306 176.9404 799.2906 177.1671L799.2906 177.1671L799.2906 179.3771C 799.2906 179.8304 799.3106 180.1904 799.3506 180.4971L799.3506 180.4971L798.6606 180.4971C 798.7006 180.1771 798.7206 179.8171 798.7206 179.3771L798.7206 179.3771L798.7206 177.5071C 797.5606 178.2938 796.8439 179.1138 796.0706 180.5671C 795.8306 180.3271 795.8306 180.3271 795.6306 180.2071C 795.6039 180.2071 795.5706 180.1871 795.5306 180.1471C 796.1172 179.2538 796.2706 179.0571 796.7906 178.4571L796.7906 178.4571L794.6406 178.4571C 794.2273 178.4571 793.9539 178.4771 793.7006 178.5171L793.7006 178.5171L793.7006 177.8171L793.7006 177.8171L794.2606 177.8171L794.2606 177.8171L794.2606 173.5371L794.2606 173.5371L793.6906 173.5371L793.6906 173.5371L793.6906 172.8271C 794.0239 172.8671 794.314 172.8871 794.6206 172.8871L794.6206 172.8871L796.5006 172.8871C 796.8606 172.8871 797.1306 172.8771 797.4506 172.8371C 797.4106 173.0904 797.4006 173.2971 797.4006 173.7771L797.4006 173.7771L797.4006 177.8271C 797.8006 177.4671 798.0939 177.2271 798.7206 176.8271zM796.8406 177.8171L796.8406 173.5371L796.8406 173.5371L794.8306 173.5371L794.8306 173.5371L794.8306 177.8171z" stroke="none" fill="#333332" fill-rule="evenodd" /><path id="3" transform="matrix(1 0 0 -1 0 612)" d="M800.7206 165.3971L800.7206 167.1371C 800.7206 167.5371 800.7206 167.8238 800.7606 168.0371C 800.5073 168.0104 800.2306 167.9971 799.8706 167.9971L799.8706 167.9971L797.6906 167.9971C 797.184 167.9971 796.8906 168.0071 796.5706 168.0471L796.5706 168.0471L796.5706 167.3671L796.5706 167.3671L797.1206 167.3671L797.1206 167.3671L797.1206 165.3971L797.1206 165.3971L794.9406 165.3971C 794.4073 165.3971 794.0773 165.4271 793.7306 165.4671L793.7306 165.4671L793.7306 164.6871C 794.0906 164.7404 794.3806 164.7571 794.9406 164.7571L794.9406 164.7571L797.1206 164.7571L797.1206 164.7571L797.1206 162.6171L797.1206 162.6171L796.5706 162.6171L796.5706 162.6171L796.5706 161.9171C 796.9039 161.9571 797.2139 161.9771 797.6806 161.9771L797.6806 161.9771L799.8306 161.9771C 800.2706 161.9771 800.5206 161.9771 800.7606 161.9371C 800.7206 162.1504 800.7206 162.4371 800.7206 162.8771L800.7206 162.8771L800.7206 164.7571L800.7206 164.7571L801.4906 164.7571C 802.0239 164.7571 802.3073 164.7404 802.6406 164.6871L802.6406 164.6871L802.6406 165.4671C 802.3206 165.4271 802.0073 165.3971 801.5006 165.3971zM797.7106 165.3971L797.7106 167.3671L797.7106 167.3671L800.1306 167.3671L800.1306 167.3671L800.1306 165.3971zM797.7106 164.7571L800.1306 164.7571L800.1306 164.7571L800.1306 162.6171L800.1306 162.6171L797.7106 162.6171zM801.9106 170.3971C 801.2706 169.7704 800.8606 169.4538 800.0206 168.9471L800.0206 168.9471L800.4706 168.4171C 801.2039 168.9104 801.6273 169.2338 802.3206 169.8871zM798.0206 168.8871C 796.8606 169.2871 795.9406 169.7271 795.1006 170.2871C 794.8473 170.4604 794.7273 170.5571 794.6206 170.6771L794.6206 170.6771L794.1106 170.0671C 794.2706 170.0004 794.3239 169.9771 794.7106 169.7371C 795.6039 169.2171 796.3339 168.8671 797.5206 168.3871z" stroke="none" fill="#333332" fill-rule="evenodd" /></g><path id="4" transform="matrix(1 0 0 -1 0 612)" d="M0 56.023L688.811 56.023L688.811 554.921L0 554.921z" stroke="none" fill="#DCDDDE" fill-rule="nonzero" /><g clip-path="url(#3)"><g transform="matrix(0.5535983 0 0 0.5537155 -1.061627 57.07886)"><g transform="matrix(1 0 0 1 0 0)"><image x="0" y="0" xlink:href="img_21.png" width="1248" height="901" /></g></g></g><path id="6" transform="matrix(1 0 0 -1 0 612)" d="M802.6747 555.0406L801.9747 555.0406L801.9747 555.0406L801.9747 550.9406L801.9747 550.9406L800.7647 550.9406L800.7647 550.9406L800.7647 554.5506L800.7647 554.5506L793.8947 554.5506L793.8947 554.5506L793.8947 553.8506L793.8947 553.8506L800.0747 553.8506L800.0747 553.8506L800.0747 550.9406L800.0747 550.9406L794.0447 550.9406L794.0447 550.9406L794.0447 550.2406L794.0447 550.2406L800.0747 550.2406L800.0747 550.2406L800.0747 547.3706L800.0747 547.3706L795.0647 547.3706C 794.7847 547.3706 794.6247 547.5139 794.6247 547.7806L794.6247 547.7806L794.6547 548.9006L794.6547 548.9006L793.9647 548.7206L793.9647 548.7206L793.9647 547.5506C 793.9647 546.9772 794.2913 546.6706 794.9047 546.6706L794.9047 546.6706L800.7647 546.6706L800.7647 546.6706L800.7647 550.2406L800.7647 550.2406L801.9747 550.2406L801.9747 550.2406L801.9747 546.1406L801.9747 546.1406L802.6747 546.1406L802.6747 546.1406L802.6747 555.0406zM799.2447 552.9906L798.7047 553.3506C 798.4647 552.7906 798.1213 552.2473 797.6947 551.7006L797.6947 551.7006L798.2547 551.3306C 798.6414 551.8372 798.9647 552.3906 799.2447 552.9906zM797.2347 553.0706L796.7047 553.4206C 796.438 552.8606 796.0747 552.3173 795.6347 551.7706L795.6347 551.7706L796.1947 551.4006C 796.5947 551.9072 796.9547 552.4706 797.2347 553.0706zM799.2347 549.4706L798.7047 549.8306C 798.4247 549.2706 798.058 548.7072 797.6047 548.1606L797.6047 548.1606L798.1747 547.8006C 798.5747 548.3073 798.928 548.8706 799.2347 549.4706zM797.1447 549.4706L796.6147 549.8306C 796.3347 549.2706 795.9747 548.7272 795.4947 548.1806L795.4947 548.1806L796.0647 547.8105C 796.478 548.3173 796.838 548.8706 797.1447 549.4706z" stroke="none" fill="#000000" fill-rule="evenodd" /><path id="7" transform="matrix(1 0 0 -1 0 612)" d="M799.5647 543.3105L799.5647 536.1106L799.5647 536.1106L800.2647 536.1106L800.2647 536.1106L800.2647 543.3105L800.2647 543.3105L801.6647 543.3105C 801.718 540.8706 801.9447 538.6706 802.3447 536.7106L802.3447 536.7106L802.9947 537.0706C 802.5547 539.1373 802.3314 541.4473 802.3047 544.0206L802.3047 544.0206L799.3047 544.0206C 797.2647 544.0872 795.6647 544.4806 794.5047 545.2006L794.5047 545.2006L793.9547 544.6706C 795.2747 543.8306 797.0647 543.3773 799.3047 543.3105L799.3047 543.3105L799.5647 543.3105zM798.1647 536.9006L798.1647 542.3906L798.1647 542.3906L793.9247 542.3906L793.9247 542.3906L793.9247 541.6706L793.9247 541.6706L794.3947 541.6706L794.3947 541.6706L794.3947 537.6206L794.3947 537.6206L793.9247 537.6206L793.9247 537.6206L793.9247 536.9006L793.9247 536.9006L798.1647 536.9006zM795.0947 541.6706L797.4747 541.6706L797.4747 541.6706L797.4747 537.6206L797.4747 537.6206L795.0947 537.6206L795.0947 537.6206L795.0947 541.6706z" stroke="none" fill="#000000" fill-rule="evenodd" /><path id="8" transform="matrix(1 0 0 -1 0 612)" d="M801.3647 531.5506L801.3647 533.1606C 801.858 532.9606 802.4047 532.8105 803.0047 532.6906L803.0047 532.6906L803.1047 533.4106C 802.5047 533.5039 801.9247 533.6406 801.3647 533.8406L801.3647 533.8406L801.3647 534.7706L801.3647 534.7706L794.2547 534.7706L794.2547 534.7706L794.2547 534.0706L794.2547 534.0706L795.1147 534.0706L795.1147 534.0706L795.1147 532.2505L795.1147 532.2505L794.5447 532.2505L794.5447 532.2505L794.5447 531.5506L794.5447 531.5506L801.3647 531.5506zM795.7847 534.0706L797.9747 534.0706L797.9747 534.0706L797.9747 532.2505L797.9747 532.2505L795.7847 532.2505L795.7847 532.2505L795.7847 534.0706zM798.6247 534.0706L800.6847 534.0706L800.6847 534.0706L800.6847 532.2505L800.6847 532.2505L798.6247 532.2505L798.6247 532.2505L798.6247 534.0706zM799.0447 529.8105L798.6847 530.3906C 797.858 529.7106 797.118 529.1539 796.4647 528.7406L796.4647 528.7406L796.8647 528.1706C 797.478 528.5573 798.2047 529.0906 799.0447 529.8105zM801.3547 526.3806L801.3547 529.5706C 801.8747 529.3972 802.4247 529.2505 803.0247 529.1306L803.0247 529.1306L803.1147 529.8406C 801.688 530.1072 800.488 530.5773 799.5147 531.2706L799.5147 531.2706L798.9447 530.8406C 799.4514 530.4539 800.0147 530.1206 800.6547 529.8406L800.6547 529.8406L800.6547 527.0906C 797.7747 527.1172 796.0447 527.1572 795.4847 527.2106C 794.9647 527.2906 794.7147 527.5639 794.7147 528.0306C 794.7147 528.3506 794.7313 528.7072 794.7447 529.1206L794.7447 529.1206L794.0847 528.9506C 794.0714 528.4706 794.0447 528.1306 794.0447 527.9306C 794.0447 527.0906 794.4347 526.6373 795.1947 526.5306C 795.968 526.4373 798.0347 526.3806 801.3547 526.3806z" stroke="none" fill="#000000" fill-rule="evenodd" /><path id="9" transform="matrix(1 0 0 -1 0 612)" d="M802.0347 524.9706L801.3447 524.9706L801.3447 524.9706L801.3447 516.1906L801.3447 516.1906L802.0347 516.1906L802.0347 516.1906L802.0347 520.0806C 802.448 520.2406 802.838 520.4172 803.1847 520.5906L803.1847 520.5906L803.0647 521.3806C 802.7447 521.1939 802.408 521.0206 802.0347 520.8606L802.0347 520.8606L802.0347 524.9706zM797.8047 523.8506L793.8747 523.8506L793.8747 523.8506L793.8747 523.1106L793.8747 523.1106L798.9447 523.1106C 799.558 522.7906 800.2447 522.5306 801.0047 522.3306L801.0047 522.3306L801.0947 523.0806C 799.668 523.4406 798.458 524.1306 797.4847 525.1706L797.4847 525.1706L796.8647 524.7006C 797.1447 524.4072 797.458 524.1306 797.8047 523.8506zM798.9447 519.6106L798.4947 520.0706C 798.068 519.4839 797.6547 518.9806 797.2547 518.5806C 796.948 518.8073 796.6713 519.0605 796.4047 519.3406C 796.9647 519.9539 797.628 520.4573 798.4147 520.8306C 798.7347 520.5906 799.0847 520.3806 799.4847 520.1806L799.4847 520.1806L799.4847 517.5605C 798.8713 517.7206 798.298 517.9439 797.7647 518.2505C 798.1647 518.6373 798.5447 519.0906 798.9447 519.6106zM801.0747 520.3606C 799.6747 520.7473 798.548 521.4806 797.7347 522.5605L797.7347 522.5605L797.1547 522.0906C 797.3547 521.8105 797.588 521.5539 797.8547 521.3006C 797.1347 520.9272 796.4947 520.4539 795.9347 519.8806C 795.4147 520.5605 794.968 521.3806 794.5947 522.3406L794.5947 522.3406L793.9047 521.9706C 794.3047 520.9439 794.8113 520.0573 795.4247 519.3105C 794.7847 518.5372 794.2814 517.6006 793.8947 516.4806L793.8947 516.4806L794.5547 516.0306C 794.8747 517.0839 795.3247 517.9973 795.9247 518.7706C 796.898 517.8105 798.1047 517.1739 799.5447 516.8406L799.5447 516.8406L800.1647 516.8406L800.1647 516.8406L800.1647 519.8906C 800.418 519.8105 800.6747 519.7206 800.9547 519.6406L800.9547 519.6406L801.0747 520.3606z" stroke="none" fill="#000000" fill-rule="evenodd" /><path id="10" transform="matrix(1 0 0 -1 0 612)" d="M797.9947 514.0106L797.3147 514.0106L797.3147 514.0106L797.3147 510.9606L797.3147 510.9606L794.9447 510.9606L794.9447 510.9606L794.9447 514.8506L794.9447 514.8506L794.2547 514.8506L794.2547 514.8506L794.2547 506.3206L794.2547 506.3206L794.9447 506.3206L794.9447 506.3206L794.9447 510.2306L794.9447 510.2306L797.3147 510.2306L797.3147 510.2306L797.3147 507.1606L797.3147 507.1606L797.9947 507.1606L797.9947 507.1606L797.9947 514.0106zM800.8047 509.6606L800.2347 510.0406C 799.7947 509.0806 799.1947 508.1206 798.4347 507.2006L798.4347 507.2006L799.0447 506.7906C 799.7247 507.6572 800.3247 508.6206 800.8047 509.6606zM800.7347 511.7506C 800.0547 512.4839 799.5147 513.4006 799.1147 514.5206L799.1147 514.5206L798.4547 514.2106C 798.9213 513.0506 799.508 512.0872 800.2147 511.3006L800.2147 511.3006L800.7347 511.7506zM803.1547 510.5506L803.0347 511.3306C 802.7547 511.1839 802.438 511.0439 802.1047 510.9106L802.1047 510.9106L802.1047 514.8306L802.1047 514.8306L800.1047 514.8306L800.1047 514.8306L800.1047 514.1006L800.1047 514.1006L801.4347 514.1006L801.4347 514.1006L801.4347 507.0706L801.4347 507.0706L800.0947 507.0706L800.0947 507.0706L800.0947 506.3406L800.0947 506.3406L802.1047 506.3406L802.1047 506.3406L802.1047 510.1706C 802.4913 510.2906 802.8347 510.4306 803.1547 510.5506z" stroke="none" fill="#000000" fill-rule="evenodd" /><g clip-path="url(#4)"></g></g></g></svg>