<svg xmlns="http://www.w3.org/2000/svg" xmlns:xlink="http://www.w3.org/1999/xlink" id="body_7" preserveAspectRatio="xMinYMin meet" viewBox="0 0 1144 816"><defs><clipPath id="1"><path id="" clip-rule="evenodd" transform="matrix(1 0 0 1 0 0)" d="M0 612L0 -0.28302L0 -0.28302L858.898 -0.28302L858.898 -0.28302L858.898 612L858.898 612L0 612z" /></clipPath><clipPath id="2"><path id="" clip-rule="evenodd" transform="matrix(1 0 0 1 0 0)" d="M0 -0.28302L858.898 -0.28302L858.898 -0.28302L858.898 612L858.898 612L0 612z" /></clipPath><clipPath id="3"><path id="" clip-rule="evenodd" transform="matrix(1 0 0 1 0 0)" d="M171.803 555.977L858.8979 555.977L858.8979 555.977L858.8979 57.07898L858.8979 57.07898L171.803 57.07898z" /></clipPath><clipPath id="4"><path id="" clip-rule="evenodd" transform="matrix(1 0 0 1 0 0)" d="M0 612L858.898 612L858.898 612L858.898 -0.28302L858.898 -0.28302L0 -0.28302z" /></clipPath><clipPath id="5"><path id="" clip-rule="evenodd" transform="matrix(1 0 0 1 0 0)" d="M182.784 217.059L284.854 217.059L284.854 217.059L284.854 124.658L284.854 124.658L182.784 124.658z" /></clipPath></defs><g transform="matrix(1.333333 0 0 1.333333 0 0)"><g clip-path="url(#1)"><g clip-path="url(#2)"><path id="1" transform="matrix(1 0 0 -1 0 612)" d="M56.0365 141.0576C 56.5565 140.8976 57.43983 140.5443 58.0265 140.2776C 58.91983 139.8509 59.1265 139.7076 59.2465 139.4276L59.2465 139.4276L59.8265 139.5776C 59.73317 140.0976 59.7265 140.1309 59.6865 140.4776C 59.6065 141.3309 59.60984 141.3309 59.5965 141.4776C 60.5565 140.7976 60.87317 140.5476 61.2865 140.1876C 61.51317 139.9876 61.5765 139.8843 61.6565 139.6576L61.6565 139.6576L62.3165 139.8376C 62.2365 140.1709 62.1965 140.3376 62.1565 140.5776C 61.8365 142.4043 61.75983 142.8376 61.7465 142.9176L61.7465 142.9176L61.1165 142.9876C 61.28984 142.2409 61.30984 142.1676 61.5765 140.6476C 60.8165 141.2876 60.11983 141.8376 59.6265 142.1576C 58.6665 142.7843 58.6565 142.7809 58.2965 143.0476L58.2965 143.0476L57.9765 142.4276C 58.44317 142.1743 58.4865 142.1443 59.0465 141.8376C 59.1265 140.9309 59.12317 140.9343 59.1765 140.2676C 58.9365 140.4276 58.8565 140.4609 58.6565 140.5676C 58.4165 140.6876 57.56317 141.1176 57.4965 141.1576C 56.5765 141.5576 56.57317 141.5609 56.3065 141.7076zM60.2565 144.2376L60.2565 146.6976C 60.2565 147.1243 60.26984 147.3943 60.2965 147.6876C 60.02983 147.6476 59.7665 147.6476 59.3665 147.6476L59.3665 147.6476L57.4765 147.6476C 56.9565 147.6476 56.76317 147.6509 56.4965 147.6776C 56.5365 147.4109 56.5365 147.1276 56.5365 146.7276L56.5365 146.7276L56.5365 144.3276C 56.5365 143.9676 56.5165 143.6776 56.4765 143.3976L56.4765 143.3976L57.1765 143.3976C 57.14983 143.6376 57.1265 143.9276 57.1265 144.3276L57.1265 144.3276L57.1265 147.0176L57.1265 147.0176L59.6765 147.0176L59.6765 147.0176L59.6765 144.5176C 59.6765 144.1309 59.6765 143.8509 59.6365 143.5576C 59.8765 143.5976 60.12984 143.6076 60.5965 143.6076L60.5965 143.6076L63.9865 143.6076C 64.71983 143.6076 64.8265 143.8809 64.8265 145.8276C 64.8265 148.1343 64.7565 148.2143 62.4365 148.4276C 62.38317 148.1876 62.28317 147.9576 62.1365 147.7576C 63.20317 147.7176 63.7665 147.6376 63.9665 147.4776C 64.1665 147.3176 64.2165 146.9209 64.2165 145.7076C 64.2165 144.4143 64.1665 144.2376 63.8465 144.2376zM62.9865 143.0576C 63.2265 142.3643 63.4565 141.4509 63.6165 140.5576C 63.6965 140.1043 63.7565 139.6309 63.7565 139.4576C 63.7565 139.4309 63.7565 139.4143 63.7565 139.3876L63.7565 139.3876L64.4765 139.5376C 64.4365 139.6576 64.42317 139.6909 64.3565 140.0376C 64.1565 141.1309 63.9165 142.0776 63.6365 143.0376z" stroke="none" fill="#323131" fill-rule="evenodd" /><path id="2" transform="matrix(1 0 0 -1 0 612)" d="M57.1065 152.6876L56.8465 152.6876C 56.59317 152.6876 56.3765 152.6976 56.1365 152.7376L56.1365 152.7376L56.1365 152.0176C 56.3765 152.0576 56.6065 152.0776 56.8465 152.0776L56.8465 152.0776L57.1065 152.0776L57.1065 152.0776L57.1065 150.5876C 57.1065 150.0943 57.0865 149.7476 57.0465 149.4676L57.0465 149.4676L57.7165 149.4676C 57.6765 149.7476 57.6665 150.0543 57.6665 150.5876L57.6665 150.5876L57.6665 152.0776L57.6665 152.0776L57.9765 152.0776C 58.22984 152.0776 58.4365 152.0643 58.6365 152.0376L58.6365 152.0376L58.6365 152.7276C 58.4365 152.6876 58.25983 152.6876 57.9665 152.6876L57.9665 152.6876L57.6665 152.6876L57.6665 152.6876L57.6665 154.9976L57.6665 154.9976L57.9765 154.9976C 58.24317 154.9976 58.42317 154.9843 58.6365 154.9576L58.6365 154.9576L58.6365 155.6476C 58.4365 155.6076 58.2565 155.6076 57.9765 155.6076L57.9765 155.6076L57.6665 155.6076L57.6665 155.6076L57.6665 157.1476C 57.6665 157.6676 57.6765 157.9709 57.7165 158.2776L57.7165 158.2776L57.0465 158.2776C 57.0865 157.9709 57.1065 157.6276 57.1065 157.1476L57.1065 157.1476L57.1065 155.6076L57.1065 155.6076L56.8465 155.6076C 56.6065 155.6076 56.36317 155.6176 56.1365 155.6576L56.1365 155.6576L56.1365 154.9376C 56.3765 154.9776 56.6065 154.9976 56.8465 154.9976L56.8465 154.9976L57.1065 154.9976zM59.9865 157.1776C 59.9865 157.6043 60.0065 157.9443 60.0465 158.2776L60.0465 158.2776L59.3565 158.2776C 59.3965 157.9576 59.4165 157.6176 59.4165 157.1776L59.4165 157.1776L59.4165 153.5176C 59.2565 153.5976 59.1865 153.6276 59.0265 153.7076C 58.69317 153.8676 58.65984 153.8943 58.4865 153.9876L58.4865 153.9876L58.3365 153.2476C 58.6965 153.1676 58.9765 153.0743 59.4165 152.8476L59.4165 152.8476L59.4165 150.6376C 59.4165 150.1843 59.3965 149.8243 59.3565 149.5176L59.3565 149.5176L60.0465 149.5176C 60.0065 149.8376 59.9865 150.1976 59.9865 150.6376L59.9865 150.6376L59.9865 152.5076C 61.1465 151.7209 61.86317 150.9009 62.6365 149.4476C 62.8765 149.6876 62.8765 149.6876 63.0765 149.8076C 63.10317 149.8076 63.1365 149.8276 63.1765 149.8676C 62.58984 150.7609 62.4365 150.9576 61.9165 151.5576L61.9165 151.5576L64.06651 151.5576C 64.47984 151.5576 64.75317 151.5376 65.0065 151.4976L65.0065 151.4976L65.0065 152.1976L65.0065 152.1976L64.4465 152.1976L64.4465 152.1976L64.4465 156.4776L64.4465 156.4776L65.0165 156.4776L65.0165 156.4776L65.0165 157.1876C 64.68317 157.1476 64.39317 157.1276 64.0865 157.1276L64.0865 157.1276L62.2065 157.1276C 61.8465 157.1276 61.5765 157.1376 61.2565 157.1776C 61.2965 156.9243 61.3065 156.7176 61.3065 156.2376L61.3065 156.2376L61.3065 152.1876C 60.9065 152.5476 60.61317 152.7876 59.9865 153.1876zM61.8665 152.1976L61.8665 156.4776L61.8665 156.4776L63.8765 156.4776L63.8765 156.4776L63.8765 152.1976z" stroke="none" fill="#323131" fill-rule="evenodd" /><path id="3" transform="matrix(1 0 0 -1 0 612)" d="M57.9865 164.6176L57.9865 162.8776C 57.9865 162.4776 57.9865 162.1909 57.9465 161.9776C 58.19984 162.0043 58.4765 162.0176 58.8365 162.0176L58.8365 162.0176L61.0165 162.0176C 61.52317 162.0176 61.8165 162.0076 62.1365 161.9676L62.1365 161.9676L62.1365 162.6476L62.1365 162.6476L61.5865 162.6476L61.5865 162.6476L61.5865 164.6176L61.5865 164.6176L63.7665 164.6176C 64.29984 164.6176 64.62984 164.5876 64.9765 164.5476L64.9765 164.5476L64.9765 165.3276C 64.6165 165.2743 64.3265 165.2576 63.7665 165.2576L63.7665 165.2576L61.5865 165.2576L61.5865 165.2576L61.5865 167.3976L61.5865 167.3976L62.1365 167.3976L62.1365 167.3976L62.1365 168.0976C 61.80317 168.0576 61.49317 168.0376 61.0265 168.0376L61.0265 168.0376L58.8765 168.0376C 58.4365 168.0376 58.1865 168.0376 57.9465 168.0776C 57.9865 167.8643 57.9865 167.5776 57.9865 167.1376L57.9865 167.1376L57.9865 165.2576L57.9865 165.2576L57.2165 165.2576C 56.68317 165.2576 56.39983 165.2743 56.0665 165.3276L56.0665 165.3276L56.0665 164.5476C 56.3865 164.5876 56.69984 164.6176 57.2065 164.6176zM60.9965 164.6176L60.9965 162.6476L60.9965 162.6476L58.5765 162.6476L58.5765 162.6476L58.5765 164.6176zM60.9965 165.2576L58.5765 165.2576L58.5765 165.2576L58.5765 167.3976L58.5765 167.3976L60.9965 167.3976zM56.7965 159.6176C 57.4365 160.2443 57.8465 160.5609 58.6865 161.0676L58.6865 161.0676L58.2365 161.5976C 57.50317 161.1043 57.07983 160.7809 56.3865 160.1276zM60.6865 161.1276C 61.8465 160.7276 62.7665 160.2876 63.6065 159.7276C 63.85984 159.5543 63.97984 159.4576 64.0865 159.3376L64.0865 159.3376L64.5965 159.9476C 64.4365 160.0143 64.38317 160.0376 63.9965 160.2776C 63.10317 160.7976 62.37317 161.1476 61.1865 161.6276z" stroke="none" fill="#323131" fill-rule="evenodd" /></g><path id="4" transform="matrix(1 0 0 -1 0 612)" d="M171.803 56.023L858.8979 56.023L858.8979 554.921L171.803 554.921z" stroke="none" fill="#DCDDDE" fill-rule="nonzero" /><g clip-path="url(#3)"><g transform="matrix(0.5535616 0 0 0.5537155 170.7852 57.07886)"><g transform="matrix(1 0 0 1 0 0)"><image x="0" y="0" xlink:href="img_18.png" width="1245" height="901" /></g></g></g><path id="6" transform="matrix(1 0 0 -1 0 612)" d="M56.2229 501.6917L56.9229 501.6917L56.9229 501.6917L56.9229 505.7917L56.9229 505.7917L58.1329 505.7917L58.1329 505.7917L58.1329 502.1817L58.1329 502.1817L65.0029 502.1817L65.0029 502.1817L65.0029 502.8817L65.0029 502.8817L58.8229 502.8817L58.8229 502.8817L58.8229 505.7917L58.8229 505.7917L64.8529 505.7917L64.8529 505.7917L64.8529 506.4917L64.8529 506.4917L58.8229 506.4917L58.8229 506.4917L58.8229 509.3617L58.8229 509.3617L63.8329 509.3617C 64.1129 509.3617 64.2729 509.2184 64.2729 508.9517L64.2729 508.9517L64.2429 507.8317L64.2429 507.8317L64.9329 508.0117L64.9329 508.0117L64.9329 509.1817C 64.9329 509.755 64.60623 510.0617 63.9929 510.0617L63.9929 510.0617L58.1329 510.0617L58.1329 510.0617L58.1329 506.4917L58.1329 506.4917L56.9229 506.4917L56.9229 506.4917L56.9229 510.5917L56.9229 510.5917L56.2229 510.5917L56.2229 510.5917L56.2229 501.6917zM59.6529 503.7417L60.1929 503.3817C 60.4329 503.9417 60.77623 504.485 61.2029 505.0317L61.2029 505.0317L60.6429 505.4017C 60.25623 504.895 59.9329 504.3417 59.6529 503.7417zM61.6629 503.6617L62.1929 503.3117C 62.45957 503.8717 62.8229 504.415 63.2629 504.9617L63.2629 504.9617L62.7029 505.3317C 62.3029 504.825 61.9429 504.2617 61.6629 503.6617zM59.6629 507.2617L60.1929 506.9017C 60.4729 507.4617 60.83957 508.025 61.2929 508.5717L61.2929 508.5717L60.7229 508.9317C 60.3229 508.425 59.96957 507.8617 59.6629 507.2617zM61.7529 507.2617L62.2829 506.9017C 62.5629 507.4617 62.9229 508.005 63.4029 508.5517L63.4029 508.5517L62.8329 508.9217C 62.41957 508.415 62.05957 507.8617 61.7529 507.2617z" stroke="none" fill="#000000" fill-rule="evenodd" /><path id="7" transform="matrix(1 0 0 -1 0 612)" d="M59.3329 513.4217L59.3329 520.6217L59.3329 520.6217L58.6329 520.6217L58.6329 520.6217L58.6329 513.4217L58.6329 513.4217L57.2329 513.4217C 57.17957 515.8617 56.9529 518.0617 56.5529 520.0217L56.5529 520.0217L55.9029 519.6617C 56.3429 517.595 56.56623 515.285 56.5929 512.7117L56.5929 512.7117L59.5929 512.7117C 61.6329 512.645 63.2329 512.2517 64.3929 511.5317L64.3929 511.5317L64.9429 512.0617C 63.6229 512.9017 61.8329 513.355 59.5929 513.4217L59.5929 513.4217L59.3329 513.4217zM60.7329 519.8317L60.7329 514.3417L60.7329 514.3417L64.9729 514.3417L64.9729 514.3417L64.9729 515.0617L64.9729 515.0617L64.5029 515.0617L64.5029 515.0617L64.5029 519.1117L64.5029 519.1117L64.9729 519.1117L64.9729 519.1117L64.9729 519.8317L64.9729 519.8317L60.7329 519.8317zM63.8029 515.0617L61.4229 515.0617L61.4229 515.0617L61.4229 519.1117L61.4229 519.1117L63.8029 519.1117L63.8029 519.1117L63.8029 515.0617z" stroke="none" fill="#000000" fill-rule="evenodd" /><path id="8" transform="matrix(1 0 0 -1 0 612)" d="M57.5329 525.1817L57.5329 523.5717C 57.03957 523.7717 56.4929 523.9217 55.8929 524.0417L55.8929 524.0417L55.7929 523.3217C 56.3929 523.2283 56.9729 523.0917 57.5329 522.8917L57.5329 522.8917L57.5329 521.9617L57.5329 521.9617L64.6429 521.9617L64.6429 521.9617L64.6429 522.6617L64.6429 522.6617L63.7829 522.6617L63.7829 522.6617L63.7829 524.4817L63.7829 524.4817L64.3529 524.4817L64.3529 524.4817L64.3529 525.1817L64.3529 525.1817L57.5329 525.1817zM63.1129 522.6617L60.9229 522.6617L60.9229 522.6617L60.9229 524.4817L60.9229 524.4817L63.1129 524.4817L63.1129 524.4817L63.1129 522.6617zM60.2729 522.6617L58.2129 522.6617L58.2129 522.6617L58.2129 524.4817L58.2129 524.4817L60.2729 524.4817L60.2729 524.4817L60.2729 522.6617zM59.8529 526.9217L60.2129 526.3417C 61.03957 527.0217 61.77957 527.5784 62.4329 527.9917L62.4329 527.9917L62.0329 528.5617C 61.41957 528.175 60.6929 527.6417 59.8529 526.9217zM57.5429 530.3517L57.5429 527.1617C 57.0229 527.335 56.4729 527.4817 55.8729 527.6017L55.8729 527.6017L55.7829 526.8917C 57.20957 526.625 58.40957 526.155 59.3829 525.4617L59.3829 525.4617L59.9529 525.8917C 59.44624 526.2784 58.8829 526.6117 58.2429 526.8917L58.2429 526.8917L58.2429 529.6417C 61.1229 529.6151 62.8529 529.575 63.4129 529.5217C 63.9329 529.4417 64.1829 529.1683 64.1829 528.7017C 64.1829 528.3817 64.16624 528.025 64.1529 527.6117L64.1529 527.6117L64.8129 527.7817C 64.82623 528.2617 64.8529 528.6017 64.8529 528.8017C 64.8529 529.6417 64.4629 530.095 63.7029 530.2017C 62.92957 530.295 60.8629 530.3517 57.5429 530.3517z" stroke="none" fill="#000000" fill-rule="evenodd" /><path id="9" transform="matrix(1 0 0 -1 0 612)" d="M56.8629 531.7617L57.5529 531.7617L57.5529 531.7617L57.5529 540.5417L57.5529 540.5417L56.8629 540.5417L56.8629 540.5417L56.8629 536.6517C 56.44957 536.4917 56.05957 536.315 55.7129 536.1417L55.7129 536.1417L55.8329 535.3517C 56.1529 535.5383 56.48957 535.7117 56.8629 535.8717L56.8629 535.8717L56.8629 531.7617zM61.0929 532.8817L65.0229 532.8817L65.0229 532.8817L65.0229 533.6217L65.0229 533.6217L59.9529 533.6217C 59.33957 533.9417 58.6529 534.2017 57.8929 534.4017L57.8929 534.4017L57.8029 533.6517C 59.22957 533.2917 60.43957 532.6017 61.4129 531.5617L61.4129 531.5617L62.0329 532.0317C 61.7529 532.325 61.43957 532.6017 61.0929 532.8817zM59.9529 537.1217L60.4029 536.6617C 60.82957 537.2484 61.2429 537.7517 61.6429 538.1517C 61.94957 537.925 62.22623 537.6717 62.4929 537.3917C 61.9329 536.7784 61.26957 536.275 60.4829 535.9017C 60.1629 536.1417 59.8129 536.3517 59.4129 536.5517L59.4129 536.5517L59.4129 539.1717C 60.02623 539.0117 60.59957 538.7883 61.1329 538.4817C 60.7329 538.095 60.3529 537.6417 59.9529 537.1217zM57.8229 536.3717C 59.2229 535.985 60.34957 535.2517 61.1629 534.1717L61.1629 534.1717L61.7429 534.6417C 61.5429 534.9217 61.30957 535.1783 61.0429 535.4317C 61.7629 535.8051 62.4029 536.2784 62.9629 536.8517C 63.4829 536.1717 63.92957 535.3517 64.3029 534.3917L64.3029 534.3917L64.9929 534.7617C 64.5929 535.7883 64.08624 536.675 63.4729 537.4217C 64.1129 538.195 64.61623 539.1317 65.0029 540.2517L65.0029 540.2517L64.3429 540.7017C 64.0229 539.6484 63.5729 538.735 62.9729 537.9617C 61.99957 538.9217 60.7929 539.5583 59.3529 539.8917L59.3529 539.8917L58.7329 539.8917L58.7329 539.8917L58.7329 536.8417C 58.47957 536.9217 58.2229 537.0117 57.9429 537.0917L57.9429 537.0917L57.8229 536.3717z" stroke="none" fill="#000000" fill-rule="evenodd" /><path id="10" transform="matrix(1 0 0 -1 0 612)" d="M60.9029 542.7217L61.5829 542.7217L61.5829 542.7217L61.5829 545.7717L61.5829 545.7717L63.9529 545.7717L63.9529 545.7717L63.9529 541.8817L63.9529 541.8817L64.6429 541.8817L64.6429 541.8817L64.6429 550.4117L64.6429 550.4117L63.9529 550.4117L63.9529 550.4117L63.9529 546.5017L63.9529 546.5017L61.5829 546.5017L61.5829 546.5017L61.5829 549.5717L61.5829 549.5717L60.9029 549.5717L60.9029 549.5717L60.9029 542.7217zM58.0929 547.0717L58.6629 546.6917C 59.1029 547.6517 59.7029 548.6117 60.4629 549.5317L60.4629 549.5317L59.8529 549.9417C 59.1729 549.075 58.5729 548.1117 58.0929 547.0717zM58.1629 544.9817C 58.8429 544.2484 59.3829 543.3317 59.7829 542.2117L59.7829 542.2117L60.4429 542.5217C 59.97623 543.6817 59.38957 544.645 58.6829 545.4317L58.6829 545.4317L58.1629 544.9817zM55.7429 546.1817L55.8629 545.4017C 56.1429 545.5483 56.45957 545.6884 56.7929 545.8217L56.7929 545.8217L56.7929 541.9017L56.7929 541.9017L58.7929 541.9017L58.7929 541.9017L58.7929 542.6317L58.7929 542.6317L57.4629 542.6317L57.4629 542.6317L57.4629 549.6617L57.4629 549.6617L58.8029 549.6617L58.8029 549.6617L58.8029 550.3917L58.8029 550.3917L56.7929 550.3917L56.7929 550.3917L56.7929 546.5617C 56.40623 546.4417 56.0629 546.3017 55.7429 546.1817z" stroke="none" fill="#000000" fill-rule="evenodd" /><g clip-path="url(#4)"></g><path id="265" transform="matrix(1 0 0 -1 0 612)" d="M177.445 394.941L290.193 394.941L290.193 487.342L177.445 487.342z" stroke="none" fill="#FFFEFE" fill-rule="nonzero" /><g clip-path="url(#5)"><g transform="matrix(0.551728 0 0 0.5533028 182.7841 124.6577)"><g transform="matrix(1 0 0 1 0 0)"><image x="0" y="0" xlink:href="img_19.png" width="185" height="167" /></g></g></g><path id="267" transform="matrix(1 0 0 -1 0 612)" d="M177.445 394.941L290.193 394.941L290.193 394.941L290.193 487.342L290.193 487.342L177.445 487.342z" stroke="#FFFEFE" stroke-width="1" fill="none" /></g></g></svg>