<svg xmlns="http://www.w3.org/2000/svg" xmlns:xlink="http://www.w3.org/1999/xlink" id="body_12" preserveAspectRatio="xMinYMin meet" viewBox="0 0 1144 816"><defs><clipPath id="1"><path id="" clip-rule="evenodd" transform="matrix(1 0 0 1 0 0)" d="M0 612L0 -0.28302L0 -0.28302L858.898 -0.28302L858.898 -0.28302L858.898 612L858.898 612L0 612z" /></clipPath><clipPath id="2"><path id="" clip-rule="evenodd" transform="matrix(1 0 0 1 0 0)" d="M0 -0.28302L858.898 -0.28302L858.898 -0.28302L858.898 612L858.898 612L0 612z" /></clipPath><clipPath id="3"><path id="" clip-rule="evenodd" transform="matrix(1 0 0 1 0 0)" d="M519.914 312.697L787.33 312.697L787.33 312.697L787.33 493.919L787.33 493.919L519.914 493.919z" /></clipPath></defs><g transform="matrix(1.333333 0 0 1.333333 0 0)"><g clip-path="url(#1)"><g clip-path="url(#2)"><path id="1" transform="matrix(1 0 0 -1 0 612)" d="M802.6706 188.9571C 802.1506 189.1171 801.2673 189.4704 800.6806 189.7371C 799.7873 190.1638 799.5806 190.3071 799.4606 190.5871L799.4606 190.5871L798.8806 190.4371C 798.9739 189.9171 798.9806 189.8838 799.0206 189.5371C 799.1006 188.6838 799.0973 188.6838 799.1106 188.5371C 798.1506 189.2171 797.8339 189.4671 797.4206 189.8271C 797.1939 190.0271 797.1306 190.1304 797.0506 190.3571L797.0506 190.3571L796.3906 190.1771C 796.4706 189.8438 796.5106 189.6771 796.5506 189.4371C 796.8706 187.6104 796.9473 187.1771 796.9606 187.0971L796.9606 187.0971L797.5906 187.0271C 797.4173 187.7738 797.3973 187.8471 797.1306 189.3671C 797.8906 188.7271 798.5873 188.1771 799.0806 187.8571C 800.0406 187.2304 800.0506 187.2338 800.4106 186.9671L800.4106 186.9671L800.7306 187.5871C 800.2639 187.8404 800.2206 187.8704 799.6606 188.1771C 799.5806 189.0838 799.5839 189.0804 799.5306 189.7471C 799.7706 189.5871 799.8506 189.5538 800.0506 189.4471C 800.2906 189.3271 801.1439 188.8971 801.2106 188.8571C 802.1306 188.4571 802.1339 188.4538 802.4006 188.3071zM798.4506 185.7771L798.4506 183.3171C 798.4506 182.8904 798.4373 182.6204 798.4106 182.3271C 798.6772 182.3671 798.9406 182.3671 799.3406 182.3671L799.3406 182.3671L801.2306 182.3671C 801.7506 182.3671 801.9439 182.3638 802.2106 182.3371C 802.1706 182.6038 802.1706 182.8871 802.1706 183.2871L802.1706 183.2871L802.1706 185.6871C 802.1706 186.0471 802.1906 186.3371 802.2306 186.6171L802.2306 186.6171L801.5306 186.6171C 801.5573 186.3771 801.5806 186.0871 801.5806 185.6871L801.5806 185.6871L801.5806 182.9971L801.5806 182.9971L799.0306 182.9971L799.0306 182.9971L799.0306 185.4971C 799.0306 185.8838 799.0306 186.1638 799.0706 186.4571C 798.8306 186.4171 798.5773 186.4071 798.1106 186.4071L798.1106 186.4071L794.7206 186.4071C 793.9872 186.4071 793.8806 186.1338 793.8806 184.1871C 793.8806 181.8804 793.9506 181.8004 796.2706 181.5871C 796.3239 181.8271 796.424 182.0571 796.5706 182.2571C 795.504 182.2971 794.9406 182.3771 794.7406 182.5371C 794.5406 182.6971 794.4906 183.0938 794.4906 184.3071C 794.4906 185.6004 794.5406 185.7771 794.8606 185.7771zM795.7206 186.9571C 795.4806 187.6504 795.2506 188.5638 795.0906 189.4571C 795.0106 189.9104 794.9506 190.3838 794.9506 190.5571C 794.9506 190.5838 794.9506 190.6004 794.9506 190.6271L794.9506 190.6271L794.2306 190.4771C 794.2706 190.3571 794.2839 190.3238 794.3506 189.9771C 794.5506 188.8838 794.7906 187.9371 795.0706 186.9771z" stroke="none" fill="#323232" fill-rule="evenodd" /><path id="2" transform="matrix(1 0 0 -1 0 612)" d="M801.6006 177.3271L801.8606 177.3271C 802.114 177.3271 802.3306 177.3171 802.5706 177.2771L802.5706 177.2771L802.5706 177.9971C 802.3306 177.9571 802.1006 177.9371 801.8606 177.9371L801.8606 177.9371L801.6006 177.9371L801.6006 177.9371L801.6006 179.4271C 801.6006 179.9204 801.6206 180.2671 801.6606 180.5471L801.6606 180.5471L800.9906 180.5471C 801.0306 180.2671 801.0406 179.9604 801.0406 179.4271L801.0406 179.4271L801.0406 177.9371L801.0406 177.9371L800.7306 177.9371C 800.4773 177.9371 800.2706 177.9504 800.0706 177.9771L800.0706 177.9771L800.0706 177.2871C 800.2706 177.3271 800.4473 177.3271 800.7406 177.3271L800.7406 177.3271L801.0406 177.3271L801.0406 177.3271L801.0406 175.0171L801.0406 175.0171L800.7306 175.0171C 800.4639 175.0171 800.2839 175.0304 800.0706 175.0571L800.0706 175.0571L800.0706 174.3671C 800.2706 174.4071 800.4506 174.4071 800.7306 174.4071L800.7306 174.4071L801.0406 174.4071L801.0406 174.4071L801.0406 172.8671C 801.0406 172.3471 801.0306 172.0438 800.9906 171.7371L800.9906 171.7371L801.6606 171.7371C 801.6206 172.0438 801.6006 172.3871 801.6006 172.8671L801.6006 172.8671L801.6006 174.4071L801.6006 174.4071L801.8606 174.4071C 802.1006 174.4071 802.3439 174.3971 802.5706 174.3571L802.5706 174.3571L802.5706 175.0771C 802.3306 175.0371 802.1006 175.0171 801.8606 175.0171L801.8606 175.0171L801.6006 175.0171zM798.7206 172.8371C 798.7206 172.4104 798.7006 172.0704 798.6606 171.7371L798.6606 171.7371L799.3506 171.7371C 799.3106 172.0571 799.2906 172.3971 799.2906 172.8371L799.2906 172.8371L799.2906 176.4971C 799.4506 176.4171 799.5206 176.3871 799.6806 176.3071C 800.0139 176.1471 800.0472 176.1204 800.2206 176.0271L800.2206 176.0271L800.3706 176.7671C 800.0106 176.8471 799.7306 176.9404 799.2906 177.1671L799.2906 177.1671L799.2906 179.3771C 799.2906 179.8304 799.3106 180.1904 799.3506 180.4971L799.3506 180.4971L798.6606 180.4971C 798.7006 180.1771 798.7206 179.8171 798.7206 179.3771L798.7206 179.3771L798.7206 177.5071C 797.5606 178.2938 796.8439 179.1138 796.0706 180.5671C 795.8306 180.3271 795.8306 180.3271 795.6306 180.2071C 795.6039 180.2071 795.5706 180.1871 795.5306 180.1471C 796.1172 179.2538 796.2706 179.0571 796.7906 178.4571L796.7906 178.4571L794.6406 178.4571C 794.2273 178.4571 793.9539 178.4771 793.7006 178.5171L793.7006 178.5171L793.7006 177.8171L793.7006 177.8171L794.2606 177.8171L794.2606 177.8171L794.2606 173.5371L794.2606 173.5371L793.6906 173.5371L793.6906 173.5371L793.6906 172.8271C 794.0239 172.8671 794.314 172.8871 794.6206 172.8871L794.6206 172.8871L796.5006 172.8871C 796.8606 172.8871 797.1306 172.8771 797.4506 172.8371C 797.4106 173.0904 797.4006 173.2971 797.4006 173.7771L797.4006 173.7771L797.4006 177.8271C 797.8006 177.4671 798.0939 177.2271 798.7206 176.8271zM796.8406 177.8171L796.8406 173.5371L796.8406 173.5371L794.8306 173.5371L794.8306 173.5371L794.8306 177.8171z" stroke="none" fill="#323232" fill-rule="evenodd" /><path id="3" transform="matrix(1 0 0 -1 0 612)" d="M800.7206 165.3971L800.7206 167.1371C 800.7206 167.5371 800.7206 167.8238 800.7606 168.0371C 800.5073 168.0104 800.2306 167.9971 799.8706 167.9971L799.8706 167.9971L797.6906 167.9971C 797.184 167.9971 796.8906 168.0071 796.5706 168.0471L796.5706 168.0471L796.5706 167.3671L796.5706 167.3671L797.1206 167.3671L797.1206 167.3671L797.1206 165.3971L797.1206 165.3971L794.9406 165.3971C 794.4073 165.3971 794.0773 165.4271 793.7306 165.4671L793.7306 165.4671L793.7306 164.6871C 794.0906 164.7404 794.3806 164.7571 794.9406 164.7571L794.9406 164.7571L797.1206 164.7571L797.1206 164.7571L797.1206 162.6171L797.1206 162.6171L796.5706 162.6171L796.5706 162.6171L796.5706 161.9171C 796.9039 161.9571 797.2139 161.9771 797.6806 161.9771L797.6806 161.9771L799.8306 161.9771C 800.2706 161.9771 800.5206 161.9771 800.7606 161.9371C 800.7206 162.1504 800.7206 162.4371 800.7206 162.8771L800.7206 162.8771L800.7206 164.7571L800.7206 164.7571L801.4906 164.7571C 802.0239 164.7571 802.3073 164.7404 802.6406 164.6871L802.6406 164.6871L802.6406 165.4671C 802.3206 165.4271 802.0073 165.3971 801.5006 165.3971zM797.7106 165.3971L797.7106 167.3671L797.7106 167.3671L800.1306 167.3671L800.1306 167.3671L800.1306 165.3971zM797.7106 164.7571L800.1306 164.7571L800.1306 164.7571L800.1306 162.6171L800.1306 162.6171L797.7106 162.6171zM801.9106 170.3971C 801.2706 169.7704 800.8606 169.4538 800.0206 168.9471L800.0206 168.9471L800.4706 168.4171C 801.2039 168.9104 801.6273 169.2338 802.3206 169.8871zM798.0206 168.8871C 796.8606 169.2871 795.9406 169.7271 795.1006 170.2871C 794.8473 170.4604 794.7273 170.5571 794.6206 170.6771L794.6206 170.6771L794.1106 170.0671C 794.2706 170.0004 794.3239 169.9771 794.7106 169.7371C 795.6039 169.2171 796.3339 168.8671 797.5206 168.3871z" stroke="none" fill="#323232" fill-rule="evenodd" /></g><path id="429" transform="matrix(1 0 0 -1 0 612)" d="M802.5005 555.0406L801.8005 555.0406L801.8005 555.0406L801.8005 550.9406L801.8005 550.9406L800.5905 550.9406L800.5905 550.9406L800.5905 554.5506L800.5905 554.5506L793.7205 554.5506L793.7205 554.5506L793.7205 553.8506L793.7205 553.8506L799.9005 553.8506L799.9005 553.8506L799.9005 550.9406L799.9005 550.9406L793.8705 550.9406L793.8705 550.9406L793.8705 550.2406L793.8705 550.2406L799.9005 550.2406L799.9005 550.2406L799.9005 547.3706L799.9005 547.3706L794.8905 547.3706C 794.6105 547.3706 794.4505 547.5139 794.4505 547.7806L794.4505 547.7806L794.4805 548.9006L794.4805 548.9006L793.7905 548.7206L793.7905 548.7206L793.7905 547.5506C 793.7905 546.9772 794.1171 546.6706 794.7305 546.6706L794.7305 546.6706L800.5905 546.6706L800.5905 546.6706L800.5905 550.2406L800.5905 550.2406L801.8005 550.2406L801.8005 550.2406L801.8005 546.1406L801.8005 546.1406L802.5005 546.1406L802.5005 546.1406L802.5005 555.0406zM799.0705 552.9906L798.5305 553.3506C 798.2905 552.7906 797.9471 552.2473 797.5205 551.7006L797.5205 551.7006L798.0805 551.3306C 798.4672 551.8372 798.7905 552.3906 799.0705 552.9906zM797.0605 553.0706L796.5305 553.4206C 796.2638 552.8606 795.9005 552.3173 795.4605 551.7706L795.4605 551.7706L796.0205 551.4006C 796.4205 551.9072 796.7805 552.4706 797.0605 553.0706zM799.0605 549.4706L798.5305 549.8306C 798.2505 549.2706 797.8839 548.7072 797.4305 548.1606L797.4305 548.1606L798.0005 547.8006C 798.4005 548.3073 798.7538 548.8706 799.0605 549.4706zM796.9705 549.4706L796.4405 549.8306C 796.1605 549.2706 795.8005 548.7272 795.3205 548.1806L795.3205 548.1806L795.8905 547.8105C 796.3038 548.3173 796.6638 548.8706 796.9705 549.4706z" stroke="none" fill="#000000" fill-rule="evenodd" /><path id="430" transform="matrix(1 0 0 -1 0 612)" d="M799.3905 543.3105L799.3905 536.1106L799.3905 536.1106L800.0905 536.1106L800.0905 536.1106L800.0905 543.3105L800.0905 543.3105L801.4905 543.3105C 801.5438 540.8706 801.7705 538.6706 802.1705 536.7106L802.1705 536.7106L802.8205 537.0706C 802.3805 539.1373 802.1572 541.4473 802.1305 544.0206L802.1305 544.0206L799.1305 544.0206C 797.0905 544.0872 795.4905 544.4806 794.3305 545.2006L794.3305 545.2006L793.7805 544.6706C 795.1005 543.8306 796.8905 543.3773 799.1305 543.3105L799.1305 543.3105L799.3905 543.3105zM797.9905 536.9006L797.9905 542.3906L797.9905 542.3906L793.7505 542.3906L793.7505 542.3906L793.7505 541.6706L793.7505 541.6706L794.2205 541.6706L794.2205 541.6706L794.2205 537.6206L794.2205 537.6206L793.7505 537.6206L793.7505 537.6206L793.7505 536.9006L793.7505 536.9006L797.9905 536.9006zM794.9205 541.6706L797.3005 541.6706L797.3005 541.6706L797.3005 537.6206L797.3005 537.6206L794.9205 537.6206L794.9205 537.6206L794.9205 541.6706z" stroke="none" fill="#000000" fill-rule="evenodd" /><path id="431" transform="matrix(1 0 0 -1 0 612)" d="M801.1905 531.5506L801.1905 533.1606C 801.6838 532.9606 802.2305 532.8105 802.8305 532.6906L802.8305 532.6906L802.9305 533.4106C 802.3305 533.5039 801.7505 533.6406 801.1905 533.8406L801.1905 533.8406L801.1905 534.7706L801.1905 534.7706L794.0805 534.7706L794.0805 534.7706L794.0805 534.0706L794.0805 534.0706L794.9405 534.0706L794.9405 534.0706L794.9405 532.2505L794.9405 532.2505L794.3705 532.2505L794.3705 532.2505L794.3705 531.5506L794.3705 531.5506L801.1905 531.5506zM795.6105 534.0706L797.8005 534.0706L797.8005 534.0706L797.8005 532.2505L797.8005 532.2505L795.6105 532.2505L795.6105 532.2505L795.6105 534.0706zM798.4505 534.0706L800.5105 534.0706L800.5105 534.0706L800.5105 532.2505L800.5105 532.2505L798.4505 532.2505L798.4505 532.2505L798.4505 534.0706zM798.8705 529.8105L798.5105 530.3906C 797.6838 529.7106 796.9438 529.1539 796.2905 528.7406L796.2905 528.7406L796.6905 528.1706C 797.3038 528.5573 798.0305 529.0906 798.8705 529.8105zM801.1805 526.3806L801.1805 529.5706C 801.7005 529.3972 802.2505 529.2505 802.8505 529.1306L802.8505 529.1306L802.9405 529.8406C 801.5138 530.1072 800.3138 530.5773 799.3405 531.2706L799.3405 531.2706L798.7705 530.8406C 799.2772 530.4539 799.8405 530.1206 800.4805 529.8406L800.4805 529.8406L800.4805 527.0906C 797.6005 527.1172 795.8705 527.1572 795.3105 527.2106C 794.7905 527.2906 794.5405 527.5639 794.5405 528.0306C 794.5405 528.3506 794.5571 528.7072 794.5705 529.1206L794.5705 529.1206L793.9105 528.9506C 793.8972 528.4706 793.8705 528.1306 793.8705 527.9306C 793.8705 527.0906 794.2605 526.6373 795.0205 526.5306C 795.7938 526.4373 797.8605 526.3806 801.1805 526.3806z" stroke="none" fill="#000000" fill-rule="evenodd" /><path id="432" transform="matrix(1 0 0 -1 0 612)" d="M801.8605 524.9706L801.1705 524.9706L801.1705 524.9706L801.1705 516.1906L801.1705 516.1906L801.8605 516.1906L801.8605 516.1906L801.8605 520.0806C 802.2738 520.2406 802.6638 520.4172 803.0105 520.5906L803.0105 520.5906L802.8905 521.3806C 802.5705 521.1939 802.2338 521.0206 801.8605 520.8606L801.8605 520.8606L801.8605 524.9706zM797.6305 523.8506L793.7005 523.8506L793.7005 523.8506L793.7005 523.1106L793.7005 523.1106L798.7705 523.1106C 799.3839 522.7906 800.0705 522.5306 800.8305 522.3306L800.8305 522.3306L800.9205 523.0806C 799.4938 523.4406 798.2838 524.1306 797.3105 525.1706L797.3105 525.1706L796.6905 524.7006C 796.9705 524.4072 797.2838 524.1306 797.6305 523.8506zM798.7705 519.6106L798.3205 520.0706C 797.8938 519.4839 797.4805 518.9806 797.0805 518.5806C 796.7738 518.8073 796.4971 519.0605 796.2305 519.3406C 796.7905 519.9539 797.4538 520.4573 798.2405 520.8306C 798.5605 520.5906 798.9105 520.3806 799.3105 520.1806L799.3105 520.1806L799.3105 517.5605C 798.6971 517.7206 798.1238 517.9439 797.5905 518.2505C 797.9905 518.6373 798.3705 519.0906 798.7705 519.6106zM800.9005 520.3606C 799.5005 520.7473 798.3738 521.4806 797.5605 522.5605L797.5605 522.5605L796.9805 522.0906C 797.1805 521.8105 797.4138 521.5539 797.6805 521.3006C 796.9605 520.9272 796.3205 520.4539 795.7605 519.8806C 795.2405 520.5605 794.7938 521.3806 794.4205 522.3406L794.4205 522.3406L793.7305 521.9706C 794.1305 520.9439 794.6371 520.0573 795.2505 519.3105C 794.6105 518.5372 794.1072 517.6006 793.7205 516.4806L793.7205 516.4806L794.3805 516.0306C 794.7005 517.0839 795.1505 517.9973 795.7505 518.7706C 796.7238 517.8105 797.9305 517.1739 799.3705 516.8406L799.3705 516.8406L799.9905 516.8406L799.9905 516.8406L799.9905 519.8906C 800.2438 519.8105 800.5005 519.7206 800.7805 519.6406L800.7805 519.6406L800.9005 520.3606z" stroke="none" fill="#000000" fill-rule="evenodd" /><path id="433" transform="matrix(1 0 0 -1 0 612)" d="M797.8205 514.0106L797.1405 514.0106L797.1405 514.0106L797.1405 510.9606L797.1405 510.9606L794.7705 510.9606L794.7705 510.9606L794.7705 514.8506L794.7705 514.8506L794.0805 514.8506L794.0805 514.8506L794.0805 506.3206L794.0805 506.3206L794.7705 506.3206L794.7705 506.3206L794.7705 510.2306L794.7705 510.2306L797.1405 510.2306L797.1405 510.2306L797.1405 507.1606L797.1405 507.1606L797.8205 507.1606L797.8205 507.1606L797.8205 514.0106zM800.6305 509.6606L800.0605 510.0406C 799.6205 509.0806 799.0205 508.1206 798.2605 507.2006L798.2605 507.2006L798.8705 506.7906C 799.5505 507.6572 800.1505 508.6206 800.6305 509.6606zM800.5605 511.7506C 799.8805 512.4839 799.3405 513.4006 798.9405 514.5206L798.9405 514.5206L798.2805 514.2106C 798.7471 513.0506 799.3338 512.0872 800.0405 511.3006L800.0405 511.3006L800.5605 511.7506zM802.9805 510.5506L802.8605 511.3306C 802.5805 511.1839 802.2638 511.0439 801.9305 510.9106L801.9305 510.9106L801.9305 514.8306L801.9305 514.8306L799.9305 514.8306L799.9305 514.8306L799.9305 514.1006L799.9305 514.1006L801.2605 514.1006L801.2605 514.1006L801.2605 507.0706L801.2605 507.0706L799.9205 507.0706L799.9205 507.0706L799.9205 506.3406L799.9205 506.3406L801.9305 506.3406L801.9305 506.3406L801.9305 510.1706C 802.3171 510.2906 802.6605 510.4306 802.9805 510.5506z" stroke="none" fill="#000000" fill-rule="evenodd" /><g clip-path="url(#3)"><g transform="matrix(0.9505755 0 0 0.9438645 519.9148 312.6969)"><g transform="matrix(1 0 0 1 0 0)"><image x="0" y="0" xlink:href="img_30.png" width="283" height="192" /></g></g></g></g></g></svg>