<svg xmlns="http://www.w3.org/2000/svg" xmlns:xlink="http://www.w3.org/1999/xlink" id="body_5" preserveAspectRatio="xMinYMin meet" viewBox="0 0 1144 816"><defs><clipPath id="1"><path id="" clip-rule="evenodd" transform="matrix(1 0 0 1 0 0)" d="M0 612L0 -0.28302L0 -0.28302L858.898 -0.28302L858.898 -0.28302L858.898 612L858.898 612L0 612z" /></clipPath><clipPath id="2"><path id="" clip-rule="evenodd" transform="matrix(1 0 0 1 0 0)" d="M0 -0.28302L858.898 -0.28302L858.898 -0.28302L858.898 612L858.898 612L0 612z" /></clipPath><clipPath id="3"><path id="" clip-rule="evenodd" transform="matrix(1 0 0 1 0 0)" d="M231.945 555.307L858.898 555.307L858.898 555.307L858.898 56.409L858.898 56.409L231.945 56.409z" /></clipPath><clipPath id="4"><path id="" clip-rule="evenodd" transform="matrix(1 0 0 1 0 0)" d="M0 612L858.898 612L858.898 612L858.898 -0.28302L858.898 -0.28302L0 -0.28302z" /></clipPath><clipPath id="5"><path id="" clip-rule="evenodd" transform="matrix(1 0 0 1 0 0)" d="M343.885 268.725L425.45 268.725L425.45 268.725L425.45 170.362L425.45 170.362L343.885 170.362z" /></clipPath></defs><g transform="matrix(1.333333 0 0 1.333333 0 0)"><g clip-path="url(#1)"><g clip-path="url(#2)"><path id="1" transform="matrix(1 0 0 -1 0 612)" d="M56.0365 141.0577C 56.5565 140.8977 57.43983 140.5444 58.0265 140.2777C 58.91983 139.851 59.1265 139.7077 59.2465 139.4277L59.2465 139.4277L59.8265 139.5777C 59.73317 140.0977 59.7265 140.131 59.6865 140.4777C 59.6065 141.331 59.60984 141.331 59.5965 141.4777C 60.5565 140.7977 60.87317 140.5477 61.2865 140.1877C 61.51317 139.9877 61.5765 139.8844 61.6565 139.6577L61.6565 139.6577L62.3165 139.8377C 62.2365 140.171 62.1965 140.3377 62.1565 140.5777C 61.8365 142.4044 61.75983 142.8377 61.7465 142.9177L61.7465 142.9177L61.1165 142.9877C 61.28984 142.241 61.30984 142.1677 61.5765 140.6477C 60.8165 141.2877 60.11983 141.8377 59.6265 142.1577C 58.6665 142.7844 58.6565 142.781 58.2965 143.0477L58.2965 143.0477L57.9765 142.4277C 58.44317 142.1744 58.4865 142.1444 59.0465 141.8377C 59.1265 140.931 59.12317 140.9344 59.1765 140.2677C 58.9365 140.4277 58.8565 140.461 58.6565 140.5677C 58.4165 140.6877 57.56317 141.1177 57.4965 141.1577C 56.5765 141.5577 56.57317 141.561 56.3065 141.7077zM60.2565 144.2377L60.2565 146.6977C 60.2565 147.1244 60.26984 147.3944 60.2965 147.6877C 60.02983 147.6477 59.7665 147.6477 59.3665 147.6477L59.3665 147.6477L57.4765 147.6477C 56.9565 147.6477 56.76317 147.651 56.4965 147.6777C 56.5365 147.411 56.5365 147.1277 56.5365 146.7277L56.5365 146.7277L56.5365 144.3277C 56.5365 143.9677 56.5165 143.6777 56.4765 143.3977L56.4765 143.3977L57.1765 143.3977C 57.14983 143.6377 57.1265 143.9277 57.1265 144.3277L57.1265 144.3277L57.1265 147.0177L57.1265 147.0177L59.6765 147.0177L59.6765 147.0177L59.6765 144.5177C 59.6765 144.131 59.6765 143.851 59.6365 143.5577C 59.8765 143.5977 60.12984 143.6077 60.5965 143.6077L60.5965 143.6077L63.9865 143.6077C 64.71983 143.6077 64.8265 143.881 64.8265 145.8277C 64.8265 148.1344 64.7565 148.2144 62.4365 148.4277C 62.38317 148.1877 62.28317 147.9577 62.1365 147.7577C 63.20317 147.7177 63.7665 147.6377 63.9665 147.4777C 64.1665 147.3177 64.2165 146.921 64.2165 145.7077C 64.2165 144.4144 64.1665 144.2377 63.8465 144.2377zM62.9865 143.0577C 63.2265 142.3644 63.4565 141.451 63.6165 140.5577C 63.6965 140.1044 63.7565 139.631 63.7565 139.4577C 63.7565 139.431 63.7565 139.4144 63.7565 139.3877L63.7565 139.3877L64.4765 139.5377C 64.4365 139.6577 64.42317 139.691 64.3565 140.0377C 64.1565 141.131 63.9165 142.0777 63.6365 143.0377z" stroke="none" fill="#323232" fill-rule="evenodd" /><path id="2" transform="matrix(1 0 0 -1 0 612)" d="M57.1065 152.6877L56.8465 152.6877C 56.59317 152.6877 56.3765 152.6977 56.1365 152.7377L56.1365 152.7377L56.1365 152.0177C 56.3765 152.0577 56.6065 152.0777 56.8465 152.0777L56.8465 152.0777L57.1065 152.0777L57.1065 152.0777L57.1065 150.5877C 57.1065 150.0944 57.0865 149.7477 57.0465 149.4677L57.0465 149.4677L57.7165 149.4677C 57.6765 149.7477 57.6665 150.0544 57.6665 150.5877L57.6665 150.5877L57.6665 152.0777L57.6665 152.0777L57.9765 152.0777C 58.22984 152.0777 58.4365 152.0644 58.6365 152.0377L58.6365 152.0377L58.6365 152.7277C 58.4365 152.6877 58.25983 152.6877 57.9665 152.6877L57.9665 152.6877L57.6665 152.6877L57.6665 152.6877L57.6665 154.9977L57.6665 154.9977L57.9765 154.9977C 58.24317 154.9977 58.42317 154.9844 58.6365 154.9577L58.6365 154.9577L58.6365 155.6477C 58.4365 155.6077 58.2565 155.6077 57.9765 155.6077L57.9765 155.6077L57.6665 155.6077L57.6665 155.6077L57.6665 157.1477C 57.6665 157.6677 57.6765 157.971 57.7165 158.2777L57.7165 158.2777L57.0465 158.2777C 57.0865 157.971 57.1065 157.6277 57.1065 157.1477L57.1065 157.1477L57.1065 155.6077L57.1065 155.6077L56.8465 155.6077C 56.6065 155.6077 56.36317 155.6177 56.1365 155.6577L56.1365 155.6577L56.1365 154.9377C 56.3765 154.9777 56.6065 154.9977 56.8465 154.9977L56.8465 154.9977L57.1065 154.9977zM59.9865 157.1777C 59.9865 157.6044 60.0065 157.9444 60.0465 158.2777L60.0465 158.2777L59.3565 158.2777C 59.3965 157.9577 59.4165 157.6177 59.4165 157.1777L59.4165 157.1777L59.4165 153.5177C 59.2565 153.5977 59.1865 153.6277 59.0265 153.7077C 58.69317 153.8677 58.65984 153.8944 58.4865 153.9877L58.4865 153.9877L58.3365 153.2477C 58.6965 153.1677 58.9765 153.0744 59.4165 152.8477L59.4165 152.8477L59.4165 150.6377C 59.4165 150.1844 59.3965 149.8244 59.3565 149.5177L59.3565 149.5177L60.0465 149.5177C 60.0065 149.8377 59.9865 150.1977 59.9865 150.6377L59.9865 150.6377L59.9865 152.5077C 61.1465 151.721 61.86317 150.901 62.6365 149.4477C 62.8765 149.6877 62.8765 149.6877 63.0765 149.8077C 63.10317 149.8077 63.1365 149.8277 63.1765 149.8677C 62.58984 150.761 62.4365 150.9577 61.9165 151.5577L61.9165 151.5577L64.06651 151.5577C 64.47984 151.5577 64.75317 151.5377 65.0065 151.4977L65.0065 151.4977L65.0065 152.1977L65.0065 152.1977L64.4465 152.1977L64.4465 152.1977L64.4465 156.4777L64.4465 156.4777L65.0165 156.4777L65.0165 156.4777L65.0165 157.1877C 64.68317 157.1477 64.39317 157.1277 64.0865 157.1277L64.0865 157.1277L62.2065 157.1277C 61.8465 157.1277 61.5765 157.1377 61.2565 157.1777C 61.2965 156.9244 61.3065 156.7177 61.3065 156.2377L61.3065 156.2377L61.3065 152.1877C 60.9065 152.5477 60.61317 152.7877 59.9865 153.1877zM61.8665 152.1977L61.8665 156.4777L61.8665 156.4777L63.8765 156.4777L63.8765 156.4777L63.8765 152.1977z" stroke="none" fill="#323232" fill-rule="evenodd" /><path id="3" transform="matrix(1 0 0 -1 0 612)" d="M57.9865 164.6177L57.9865 162.8777C 57.9865 162.4777 57.9865 162.191 57.9465 161.9777C 58.19984 162.0044 58.4765 162.0177 58.8365 162.0177L58.8365 162.0177L61.0165 162.0177C 61.52317 162.0177 61.8165 162.0077 62.1365 161.9677L62.1365 161.9677L62.1365 162.6477L62.1365 162.6477L61.5865 162.6477L61.5865 162.6477L61.5865 164.6177L61.5865 164.6177L63.7665 164.6177C 64.29984 164.6177 64.62984 164.5877 64.9765 164.5477L64.9765 164.5477L64.9765 165.3277C 64.6165 165.2744 64.3265 165.2577 63.7665 165.2577L63.7665 165.2577L61.5865 165.2577L61.5865 165.2577L61.5865 167.3977L61.5865 167.3977L62.1365 167.3977L62.1365 167.3977L62.1365 168.0977C 61.80317 168.0577 61.49317 168.0377 61.0265 168.0377L61.0265 168.0377L58.8765 168.0377C 58.4365 168.0377 58.1865 168.0377 57.9465 168.0777C 57.9865 167.8644 57.9865 167.5777 57.9865 167.1377L57.9865 167.1377L57.9865 165.2577L57.9865 165.2577L57.2165 165.2577C 56.68317 165.2577 56.39983 165.2744 56.0665 165.3277L56.0665 165.3277L56.0665 164.5477C 56.3865 164.5877 56.69984 164.6177 57.2065 164.6177zM60.9965 164.6177L60.9965 162.6477L60.9965 162.6477L58.5765 162.6477L58.5765 162.6477L58.5765 164.6177zM60.9965 165.2577L58.5765 165.2577L58.5765 165.2577L58.5765 167.3977L58.5765 167.3977L60.9965 167.3977zM56.7965 159.6177C 57.4365 160.2444 57.8465 160.561 58.6865 161.0677L58.6865 161.0677L58.2365 161.5977C 57.50317 161.1044 57.07983 160.781 56.3865 160.1277zM60.6865 161.1277C 61.8465 160.7277 62.7665 160.2877 63.6065 159.7277C 63.85984 159.5544 63.97984 159.4577 64.0865 159.3377L64.0865 159.3377L64.5965 159.9477C 64.4365 160.0144 64.38317 160.0377 63.9965 160.2777C 63.10317 160.7977 62.37317 161.1477 61.1865 161.6277z" stroke="none" fill="#323232" fill-rule="evenodd" /></g><path id="4" transform="matrix(1 0 0 -1 0 612)" d="M56.2229 505.5271L56.9229 505.5271L56.9229 505.5271L56.9229 509.6271L56.9229 509.6271L58.1329 509.6271L58.1329 509.6271L58.1329 506.0171L58.1329 506.0171L65.0029 506.0171L65.0029 506.0171L65.0029 506.7171L65.0029 506.7171L58.8229 506.7171L58.8229 506.7171L58.8229 509.6271L58.8229 509.6271L64.8529 509.6271L64.8529 509.6271L64.8529 510.3271L64.8529 510.3271L58.8229 510.3271L58.8229 510.3271L58.8229 513.1971L58.8229 513.1971L63.8329 513.1971C 64.1129 513.1971 64.2729 513.0538 64.2729 512.7871L64.2729 512.7871L64.2429 511.6671L64.2429 511.6671L64.9329 511.8471L64.9329 511.8471L64.9329 513.0171C 64.9329 513.5905 64.60623 513.8971 63.9929 513.8971L63.9929 513.8971L58.1329 513.8971L58.1329 513.8971L58.1329 510.3271L58.1329 510.3271L56.9229 510.3271L56.9229 510.3271L56.9229 514.4271L56.9229 514.4271L56.2229 514.4271L56.2229 514.4271L56.2229 505.5271zM59.6529 507.5771L60.1929 507.2171C 60.4329 507.7771 60.77623 508.3204 61.2029 508.8671L61.2029 508.8671L60.6429 509.2371C 60.25623 508.7304 59.9329 508.1771 59.6529 507.5771zM61.6629 507.4971L62.1929 507.1471C 62.45957 507.7071 62.8229 508.2505 63.2629 508.7971L63.2629 508.7971L62.7029 509.1671C 62.3029 508.6604 61.9429 508.0971 61.6629 507.4971zM59.6629 511.0971L60.1929 510.7371C 60.4729 511.2971 60.83957 511.8604 61.2929 512.4071L61.2929 512.4071L60.7229 512.7671C 60.3229 512.2604 59.96957 511.6971 59.6629 511.0971zM61.7529 511.0971L62.2829 510.7371C 62.5629 511.2971 62.9229 511.8405 63.4029 512.3871L63.4029 512.3871L62.8329 512.7571C 62.41957 512.2504 62.05957 511.6971 61.7529 511.0971z" stroke="none" fill="#000000" fill-rule="evenodd" /><path id="5" transform="matrix(1 0 0 -1 0 612)" d="M59.3329 517.2571L59.3329 524.4571L59.3329 524.4571L58.6329 524.4571L58.6329 524.4571L58.6329 517.2571L58.6329 517.2571L57.2329 517.2571C 57.17957 519.6971 56.9529 521.8971 56.5529 523.8571L56.5529 523.8571L55.9029 523.4971C 56.3429 521.4304 56.56623 519.1204 56.5929 516.5471L56.5929 516.5471L59.5929 516.5471C 61.6329 516.4805 63.2329 516.0871 64.3929 515.3671L64.3929 515.3671L64.9429 515.8971C 63.6229 516.7371 61.8329 517.1904 59.5929 517.2571L59.5929 517.2571L59.3329 517.2571zM60.7329 523.6671L60.7329 518.1771L60.7329 518.1771L64.9729 518.1771L64.9729 518.1771L64.9729 518.8971L64.9729 518.8971L64.5029 518.8971L64.5029 518.8971L64.5029 522.9471L64.5029 522.9471L64.9729 522.9471L64.9729 522.9471L64.9729 523.6671L64.9729 523.6671L60.7329 523.6671zM63.8029 518.8971L61.4229 518.8971L61.4229 518.8971L61.4229 522.9471L61.4229 522.9471L63.8029 522.9471L63.8029 522.9471L63.8029 518.8971z" stroke="none" fill="#000000" fill-rule="evenodd" /><path id="6" transform="matrix(1 0 0 -1 0 612)" d="M57.5329 529.0171L57.5329 527.4071C 57.03957 527.6071 56.4929 527.7571 55.8929 527.8771L55.8929 527.8771L55.7929 527.1571C 56.3929 527.0638 56.9729 526.9271 57.5329 526.7271L57.5329 526.7271L57.5329 525.7971L57.5329 525.7971L64.6429 525.7971L64.6429 525.7971L64.6429 526.4971L64.6429 526.4971L63.7829 526.4971L63.7829 526.4971L63.7829 528.3171L63.7829 528.3171L64.3529 528.3171L64.3529 528.3171L64.3529 529.0171L64.3529 529.0171L57.5329 529.0171zM63.1129 526.4971L60.9229 526.4971L60.9229 526.4971L60.9229 528.3171L60.9229 528.3171L63.1129 528.3171L63.1129 528.3171L63.1129 526.4971zM60.2729 526.4971L58.2129 526.4971L58.2129 526.4971L58.2129 528.3171L58.2129 528.3171L60.2729 528.3171L60.2729 528.3171L60.2729 526.4971zM59.8529 530.7571L60.2129 530.1771C 61.03957 530.8571 61.77957 531.4138 62.4329 531.8271L62.4329 531.8271L62.0329 532.3971C 61.41957 532.0104 60.6929 531.4771 59.8529 530.7571zM57.5429 534.1871L57.5429 530.9971C 57.0229 531.1705 56.4729 531.3171 55.8729 531.4371L55.8729 531.4371L55.7829 530.7271C 57.20957 530.4604 58.40957 529.9904 59.3829 529.2971L59.3829 529.2971L59.9529 529.7271C 59.44624 530.1138 58.8829 530.4471 58.2429 530.7271L58.2429 530.7271L58.2429 533.4771C 61.1229 533.4504 62.8529 533.4105 63.4129 533.3571C 63.9329 533.2771 64.1829 533.0038 64.1829 532.5371C 64.1829 532.2171 64.16624 531.8605 64.1529 531.4471L64.1529 531.4471L64.8129 531.6171C 64.82623 532.0971 64.8529 532.4371 64.8529 532.6371C 64.8529 533.4771 64.4629 533.9304 63.7029 534.0371C 62.92957 534.1304 60.8629 534.1871 57.5429 534.1871z" stroke="none" fill="#000000" fill-rule="evenodd" /><path id="7" transform="matrix(1 0 0 -1 0 612)" d="M56.8629 535.5971L57.5529 535.5971L57.5529 535.5971L57.5529 544.3771L57.5529 544.3771L56.8629 544.3771L56.8629 544.3771L56.8629 540.4871C 56.44957 540.3271 56.05957 540.1505 55.7129 539.9771L55.7129 539.9771L55.8329 539.1871C 56.1529 539.3738 56.48957 539.5471 56.8629 539.7071L56.8629 539.7071L56.8629 535.5971zM61.0929 536.7171L65.0229 536.7171L65.0229 536.7171L65.0229 537.4571L65.0229 537.4571L59.9529 537.4571C 59.33957 537.7771 58.6529 538.0371 57.8929 538.2371L57.8929 538.2371L57.8029 537.4871C 59.22957 537.1271 60.43957 536.4371 61.4129 535.3971L61.4129 535.3971L62.0329 535.8671C 61.7529 536.1605 61.43957 536.4371 61.0929 536.7171zM59.9529 540.9571L60.4029 540.4971C 60.82957 541.0838 61.2429 541.5871 61.6429 541.9871C 61.94957 541.7604 62.22623 541.5071 62.4929 541.2271C 61.9329 540.6138 61.26957 540.1105 60.4829 539.7371C 60.1629 539.9771 59.8129 540.1871 59.4129 540.3871L59.4129 540.3871L59.4129 543.0071C 60.02623 542.8471 60.59957 542.6238 61.1329 542.3171C 60.7329 541.9304 60.3529 541.4771 59.9529 540.9571zM57.8229 540.2071C 59.2229 539.8204 60.34957 539.0871 61.1629 538.0071L61.1629 538.0071L61.7429 538.4771C 61.5429 538.7571 61.30957 539.0138 61.0429 539.2671C 61.7629 539.6404 62.4029 540.1138 62.9629 540.6871C 63.4829 540.0071 63.92957 539.1871 64.3029 538.2271L64.3029 538.2271L64.9929 538.5971C 64.5929 539.6238 64.08624 540.5104 63.4729 541.2571C 64.1129 542.0305 64.61623 542.9671 65.0029 544.0871L65.0029 544.0871L64.3429 544.5371C 64.0229 543.4838 63.5729 542.5704 62.9729 541.7971C 61.99957 542.7571 60.7929 543.3938 59.3529 543.7271L59.3529 543.7271L58.7329 543.7271L58.7329 543.7271L58.7329 540.6771C 58.47957 540.7571 58.2229 540.8471 57.9429 540.9271L57.9429 540.9271L57.8229 540.2071z" stroke="none" fill="#000000" fill-rule="evenodd" /><path id="8" transform="matrix(1 0 0 -1 0 612)" d="M60.9029 546.5571L61.5829 546.5571L61.5829 546.5571L61.5829 549.6071L61.5829 549.6071L63.9529 549.6071L63.9529 549.6071L63.9529 545.7171L63.9529 545.7171L64.6429 545.7171L64.6429 545.7171L64.6429 554.2471L64.6429 554.2471L63.9529 554.2471L63.9529 554.2471L63.9529 550.3371L63.9529 550.3371L61.5829 550.3371L61.5829 550.3371L61.5829 553.4071L61.5829 553.4071L60.9029 553.4071L60.9029 553.4071L60.9029 546.5571zM58.0929 550.9071L58.6629 550.5271C 59.1029 551.4871 59.7029 552.4471 60.4629 553.3671L60.4629 553.3671L59.8529 553.7771C 59.1729 552.9105 58.5729 551.9471 58.0929 550.9071zM58.1629 548.8171C 58.8429 548.0838 59.3829 547.1671 59.7829 546.0471L59.7829 546.0471L60.4429 546.3571C 59.97623 547.5171 59.38957 548.4805 58.6829 549.2671L58.6829 549.2671L58.1629 548.8171zM55.7429 550.0171L55.8629 549.2371C 56.1429 549.3838 56.45957 549.5238 56.7929 549.6571L56.7929 549.6571L56.7929 545.7371L56.7929 545.7371L58.7929 545.7371L58.7929 545.7371L58.7929 546.4671L58.7929 546.4671L57.4629 546.4671L57.4629 546.4671L57.4629 553.4971L57.4629 553.4971L58.8029 553.4971L58.8029 553.4971L58.8029 554.2271L58.8029 554.2271L56.7929 554.2271L56.7929 554.2271L56.7929 550.3971C 56.40623 550.2771 56.0629 550.1371 55.7429 550.0171z" stroke="none" fill="#000000" fill-rule="evenodd" /><path id="9" transform="matrix(1 0 0 -1 0 612)" d="M231.945 56.693L858.898 56.693L858.898 555.591L231.945 555.591z" stroke="none" fill="#DBDCDE" fill-rule="nonzero" /><g clip-path="url(#3)"><g transform="matrix(0.5537204 0 0 0.5537155 230.9269 56.40942)"><g transform="matrix(1 0 0 1 0 0)"><image x="0" y="0" xlink:href="img_13.png" width="1136" height="901" /></g></g></g><g clip-path="url(#4)"></g><g clip-path="url(#5)"><g transform="matrix(0.551748 0 0 0.5525967 343.286 170.3621)"><g transform="matrix(1 0 0 1 0 0)"><image x="0" y="0" xlink:href="img_14.png" width="150" height="178" /></g></g></g></g></g></svg>