<svg xmlns="http://www.w3.org/2000/svg" xmlns:xlink="http://www.w3.org/1999/xlink" id="body_3" preserveAspectRatio="xMinYMin meet" viewBox="0 0 1144 816"><defs><clipPath id="1"><path id="" clip-rule="evenodd" transform="matrix(1 0 0 1 0 0)" d="M0 612L0 -0.28302L0 -0.28302L858.898 -0.28302L858.898 -0.28302L858.898 612L858.898 612L0 612z" /></clipPath><clipPath id="2"><path id="" clip-rule="evenodd" transform="matrix(1 0 0 1 0 0)" d="M0 -0.28302L858.898 -0.28302L858.898 -0.28302L858.898 612L858.898 612L0 612z" /></clipPath><clipPath id="3"><path id="" clip-rule="evenodd" transform="matrix(1 0 0 1 0 0)" d="M0 -0.28302L858.898 -0.28302L858.898 -0.28302L858.898 612L858.898 612L0 612z" /></clipPath><clipPath id="4"><path id="" clip-rule="evenodd" transform="matrix(1 0 0 1 0 0)" d="M443.535 422.221L802.771 422.221L802.771 422.221L802.771 239.046L802.771 239.046L443.535 239.046z" /></clipPath></defs><g transform="matrix(1.333333 0 0 1.333333 0 0)"><g clip-path="url(#1)"><g clip-path="url(#2)"><path id="1" transform="matrix(1 0 0 -1 0 612)" d="M0 0L858.898 0L858.898 612.284L0 612.284z" stroke="none" fill="#534F4B" fill-rule="nonzero" /></g><g clip-path="url(#3)"><path id="4" transform="matrix(1 0 0 -1 0 612)" d="M56.0932 141.0577C 56.6132 140.8977 57.49654 140.5444 58.0832 140.2777C 58.97654 139.851 59.1832 139.7077 59.3032 139.4277L59.3032 139.4277L59.8832 139.5777C 59.78987 140.0977 59.7832 140.131 59.7432 140.4777C 59.6632 141.331 59.66654 141.331 59.6532 141.4777C 60.6132 140.7977 60.92987 140.5477 61.3432 140.1877C 61.56987 139.9877 61.63321 139.8844 61.7132 139.6577L61.7132 139.6577L62.3732 139.8377C 62.29321 140.171 62.2532 140.3377 62.2132 140.5777C 61.8932 142.4044 61.81654 142.8377 61.8032 142.9177L61.8032 142.9177L61.1732 142.9877C 61.34654 142.241 61.36654 142.1677 61.63321 140.6477C 60.8732 141.2877 60.17654 141.8377 59.6832 142.1577C 58.72321 142.7844 58.7132 142.781 58.3532 143.0477L58.3532 143.0477L58.0332 142.4277C 58.49987 142.1744 58.54321 142.1444 59.1032 141.8377C 59.1832 140.931 59.17987 140.9344 59.2332 140.2677C 58.9932 140.4277 58.9132 140.461 58.7132 140.5677C 58.47321 140.6877 57.61987 141.1177 57.5532 141.1577C 56.6332 141.5577 56.62987 141.561 56.3632 141.7077zM60.3132 144.2377L60.3132 146.6977C 60.3132 147.1244 60.32654 147.3944 60.3532 147.6877C 60.08654 147.6477 59.8232 147.6477 59.4232 147.6477L59.4232 147.6477L57.5332 147.6477C 57.0132 147.6477 56.81987 147.651 56.5532 147.6777C 56.5932 147.411 56.5932 147.1277 56.5932 146.7277L56.5932 146.7277L56.5932 144.3277C 56.5932 143.9677 56.5732 143.6777 56.5332 143.3977L56.5332 143.3977L57.2332 143.3977C 57.20654 143.6377 57.1832 143.9277 57.1832 144.3277L57.1832 144.3277L57.1832 147.0177L57.1832 147.0177L59.7332 147.0177L59.7332 147.0177L59.7332 144.5177C 59.7332 144.131 59.7332 143.851 59.6932 143.5577C 59.9332 143.5977 60.18654 143.6077 60.6532 143.6077L60.6532 143.6077L64.04321 143.6077C 64.77654 143.6077 64.8832 143.881 64.8832 145.8277C 64.8832 148.1344 64.8132 148.2144 62.4932 148.4277C 62.43987 148.1877 62.33987 147.9577 62.1932 147.7577C 63.25987 147.7177 63.8232 147.6377 64.0232 147.4777C 64.22321 147.3177 64.2732 146.921 64.2732 145.7077C 64.2732 144.4144 64.22321 144.2377 63.9032 144.2377zM63.04321 143.0577C 63.2832 142.3644 63.5132 141.451 63.6732 140.5577C 63.7532 140.1044 63.8132 139.631 63.8132 139.4577C 63.8132 139.431 63.8132 139.4144 63.8132 139.3877L63.8132 139.3877L64.5332 139.5377C 64.4932 139.6577 64.47987 139.691 64.4132 140.0377C 64.2132 141.131 63.97321 142.0777 63.6932 143.0377z" stroke="none" fill="#FFFEFE" fill-rule="evenodd" /><path id="5" transform="matrix(1 0 0 -1 0 612)" d="M57.1632 152.6877L56.9032 152.6877C 56.64987 152.6877 56.4332 152.6977 56.1932 152.7377L56.1932 152.7377L56.1932 152.0177C 56.4332 152.0577 56.6632 152.0777 56.9032 152.0777L56.9032 152.0777L57.1632 152.0777L57.1632 152.0777L57.1632 150.5877C 57.1632 150.0944 57.1432 149.7477 57.1032 149.4677L57.1032 149.4677L57.7732 149.4677C 57.7332 149.7477 57.72321 150.0544 57.72321 150.5877L57.72321 150.5877L57.72321 152.0777L57.72321 152.0777L58.0332 152.0777C 58.28654 152.0777 58.4932 152.0644 58.6932 152.0377L58.6932 152.0377L58.6932 152.7277C 58.4932 152.6877 58.31654 152.6877 58.0232 152.6877L58.0232 152.6877L57.72321 152.6877L57.72321 152.6877L57.72321 154.9977L57.72321 154.9977L58.0332 154.9977C 58.29987 154.9977 58.47987 154.9844 58.6932 154.9577L58.6932 154.9577L58.6932 155.6477C 58.4932 155.6077 58.3132 155.6077 58.0332 155.6077L58.0332 155.6077L57.72321 155.6077L57.72321 155.6077L57.72321 157.1477C 57.72321 157.6677 57.7332 157.971 57.7732 158.2777L57.7732 158.2777L57.1032 158.2777C 57.1432 157.971 57.1632 157.6277 57.1632 157.1477L57.1632 157.1477L57.1632 155.6077L57.1632 155.6077L56.9032 155.6077C 56.6632 155.6077 56.41987 155.6177 56.1932 155.6577L56.1932 155.6577L56.1932 154.9377C 56.4332 154.9777 56.6632 154.9977 56.9032 154.9977L56.9032 154.9977L57.1632 154.9977zM60.04321 157.1777C 60.04321 157.6044 60.0632 157.9444 60.1032 158.2777L60.1032 158.2777L59.4132 158.2777C 59.45321 157.9577 59.47321 157.6177 59.47321 157.1777L59.47321 157.1777L59.47321 153.5177C 59.3132 153.5977 59.2432 153.6277 59.0832 153.7077C 58.74987 153.8677 58.71654 153.8944 58.54321 153.9877L58.54321 153.9877L58.3932 153.2477C 58.7532 153.1677 59.0332 153.0744 59.47321 152.8477L59.47321 152.8477L59.47321 150.6377C 59.47321 150.1844 59.45321 149.8244 59.4132 149.5177L59.4132 149.5177L60.1032 149.5177C 60.0632 149.8377 60.04321 150.1977 60.04321 150.6377L60.04321 150.6377L60.04321 152.5077C 61.20321 151.721 61.91987 150.901 62.6932 149.4477C 62.9332 149.6877 62.9332 149.6877 63.13321 149.8077C 63.15987 149.8077 63.1932 149.8277 63.2332 149.8677C 62.64654 150.761 62.4932 150.9577 61.97321 151.5577L61.97321 151.5577L64.12321 151.5577C 64.53654 151.5577 64.80987 151.5377 65.0632 151.4977L65.0632 151.4977L65.0632 152.1977L65.0632 152.1977L64.5032 152.1977L64.5032 152.1977L64.5032 156.4777L64.5032 156.4777L65.0732 156.4777L65.0732 156.4777L65.0732 157.1877C 64.73987 157.1477 64.44987 157.1277 64.1432 157.1277L64.1432 157.1277L62.2632 157.1277C 61.9032 157.1277 61.63321 157.1377 61.3132 157.1777C 61.3532 156.9244 61.3632 156.7177 61.3632 156.2377L61.3632 156.2377L61.3632 152.1877C 60.9632 152.5477 60.66987 152.7877 60.04321 153.1877zM61.9232 152.1977L61.9232 156.4777L61.9232 156.4777L63.9332 156.4777L63.9332 156.4777L63.9332 152.1977z" stroke="none" fill="#FFFEFE" fill-rule="evenodd" /><path id="6" transform="matrix(1 0 0 -1 0 612)" d="M58.04321 164.6177L58.04321 162.8777C 58.04321 162.4777 58.04321 162.191 58.0032 161.9777C 58.25654 162.0044 58.5332 162.0177 58.8932 162.0177L58.8932 162.0177L61.0732 162.0177C 61.57987 162.0177 61.8732 162.0077 62.1932 161.9677L62.1932 161.9677L62.1932 162.6477L62.1932 162.6477L61.6432 162.6477L61.6432 162.6477L61.6432 164.6177L61.6432 164.6177L63.8232 164.6177C 64.35654 164.6177 64.68654 164.5877 65.0332 164.5477L65.0332 164.5477L65.0332 165.3277C 64.6732 165.2744 64.3832 165.2577 63.8232 165.2577L63.8232 165.2577L61.6432 165.2577L61.6432 165.2577L61.6432 167.3977L61.6432 167.3977L62.1932 167.3977L62.1932 167.3977L62.1932 168.0977C 61.85987 168.0577 61.54987 168.0377 61.0832 168.0377L61.0832 168.0377L58.9332 168.0377C 58.4932 168.0377 58.2432 168.0377 58.0032 168.0777C 58.04321 167.8644 58.04321 167.5777 58.04321 167.1377L58.04321 167.1377L58.04321 165.2577L58.04321 165.2577L57.2732 165.2577C 56.73987 165.2577 56.45654 165.2744 56.1232 165.3277L56.1232 165.3277L56.1232 164.5477C 56.4432 164.5877 56.75654 164.6177 57.2632 164.6177zM61.0532 164.6177L61.0532 162.6477L61.0532 162.6477L58.63321 162.6477L58.63321 162.6477L58.63321 164.6177zM61.0532 165.2577L58.63321 165.2577L58.63321 165.2577L58.63321 167.3977L58.63321 167.3977L61.0532 167.3977zM56.8532 159.6177C 57.4932 160.2444 57.90321 160.561 58.7432 161.0677L58.7432 161.0677L58.29321 161.5977C 57.55987 161.1044 57.13654 160.781 56.4432 160.1277zM60.7432 161.1277C 61.9032 160.7277 62.8232 160.2877 63.6632 159.7277C 63.91654 159.5544 64.03654 159.4577 64.1432 159.3377L64.1432 159.3377L64.65321 159.9477C 64.4932 160.0144 64.43987 160.0377 64.05321 160.2777C 63.15987 160.7977 62.42987 161.1477 61.2432 161.6277z" stroke="none" fill="#FFFEFE" fill-rule="evenodd" /></g><path id="7" transform="matrix(1 0 0 -1 0 612)" d="M443.535 372.82L802.771 372.82L802.771 555.995L443.535 555.995z" stroke="none" fill="#DBDCDE" fill-rule="nonzero" /><g transform="matrix(0.5535226 0 0 0.5535178 443.5354 57.00146)"><g transform="matrix(1 0 0 1 0 0)"><image x="0" y="0" xlink:href="img_05.png" width="649" height="329" /></g></g><path id="9" transform="matrix(1 0 0 -1 0 612)" d="M56.2229 504.9448L56.9229 504.9448L56.9229 504.9448L56.9229 509.0448L56.9229 509.0448L58.1329 509.0448L58.1329 509.0448L58.1329 505.4348L58.1329 505.4348L65.0029 505.4348L65.0029 505.4348L65.0029 506.1348L65.0029 506.1348L58.8229 506.1348L58.8229 506.1348L58.8229 509.0448L58.8229 509.0448L64.8529 509.0448L64.8529 509.0448L64.8529 509.7448L64.8529 509.7448L58.8229 509.7448L58.8229 509.7448L58.8229 512.6148L58.8229 512.6148L63.8329 512.6148C 64.1129 512.6148 64.2729 512.4715 64.2729 512.2048L64.2729 512.2048L64.2429 511.0848L64.2429 511.0848L64.9329 511.2648L64.9329 511.2648L64.9329 512.4348C 64.9329 513.0081 64.60623 513.3148 63.9929 513.3148L63.9929 513.3148L58.1329 513.3148L58.1329 513.3148L58.1329 509.7448L58.1329 509.7448L56.9229 509.7448L56.9229 509.7448L56.9229 513.8448L56.9229 513.8448L56.2229 513.8448L56.2229 513.8448L56.2229 504.9448zM59.6529 506.9948L60.1929 506.6348C 60.4329 507.1948 60.77623 507.7381 61.2029 508.2848L61.2029 508.2848L60.6429 508.6548C 60.25623 508.1481 59.9329 507.5948 59.6529 506.9948zM61.6629 506.9148L62.1929 506.5648C 62.45957 507.1248 62.8229 507.6682 63.2629 508.2148L63.2629 508.2148L62.7029 508.5848C 62.3029 508.0781 61.9429 507.5148 61.6629 506.9148zM59.6629 510.5148L60.1929 510.1548C 60.4729 510.7148 60.83957 511.2781 61.2929 511.8248L61.2929 511.8248L60.7229 512.1848C 60.3229 511.6781 59.96957 511.1148 59.6629 510.5148zM61.7529 510.5148L62.2829 510.1548C 62.5629 510.7148 62.9229 511.2581 63.4029 511.8048L63.4029 511.8048L62.8329 512.1748C 62.41957 511.6682 62.05957 511.1148 61.7529 510.5148z" stroke="none" fill="#FFFEFE" fill-rule="evenodd" /><path id="10" transform="matrix(1 0 0 -1 0 612)" d="M59.3329 516.6748L59.3329 523.8748L59.3329 523.8748L58.6329 523.8748L58.6329 523.8748L58.6329 516.6748L58.6329 516.6748L57.2329 516.6748C 57.17957 519.1148 56.9529 521.3148 56.5529 523.2748L56.5529 523.2748L55.9029 522.9148C 56.3429 520.8481 56.56623 518.5381 56.5929 515.9648L56.5929 515.9648L59.5929 515.9648C 61.6329 515.8981 63.2329 515.5048 64.3929 514.7848L64.3929 514.7848L64.9429 515.3148C 63.6229 516.1548 61.8329 516.6082 59.5929 516.6748L59.5929 516.6748L59.3329 516.6748zM60.7329 523.0848L60.7329 517.5948L60.7329 517.5948L64.9729 517.5948L64.9729 517.5948L64.9729 518.3148L64.9729 518.3148L64.5029 518.3148L64.5029 518.3148L64.5029 522.3648L64.5029 522.3648L64.9729 522.3648L64.9729 522.3648L64.9729 523.0848L64.9729 523.0848L60.7329 523.0848zM63.8029 518.3148L61.4229 518.3148L61.4229 518.3148L61.4229 522.3648L61.4229 522.3648L63.8029 522.3648L63.8029 522.3648L63.8029 518.3148z" stroke="none" fill="#FFFEFE" fill-rule="evenodd" /><path id="11" transform="matrix(1 0 0 -1 0 612)" d="M57.5329 528.4348L57.5329 526.8248C 57.03957 527.0248 56.4929 527.1748 55.8929 527.2948L55.8929 527.2948L55.7929 526.5748C 56.3929 526.4814 56.9729 526.3448 57.5329 526.1448L57.5329 526.1448L57.5329 525.2148L57.5329 525.2148L64.6429 525.2148L64.6429 525.2148L64.6429 525.9148L64.6429 525.9148L63.7829 525.9148L63.7829 525.9148L63.7829 527.7348L63.7829 527.7348L64.3529 527.7348L64.3529 527.7348L64.3529 528.4348L64.3529 528.4348L57.5329 528.4348zM63.1129 525.9148L60.9229 525.9148L60.9229 525.9148L60.9229 527.7348L60.9229 527.7348L63.1129 527.7348L63.1129 527.7348L63.1129 525.9148zM60.2729 525.9148L58.2129 525.9148L58.2129 525.9148L58.2129 527.7348L58.2129 527.7348L60.2729 527.7348L60.2729 527.7348L60.2729 525.9148zM59.8529 530.1748L60.2129 529.5948C 61.03957 530.2748 61.77957 530.8315 62.4329 531.2448L62.4329 531.2448L62.0329 531.8148C 61.41957 531.4282 60.6929 530.8948 59.8529 530.1748zM57.5429 533.6048L57.5429 530.4148C 57.0229 530.5881 56.4729 530.7348 55.8729 530.8548L55.8729 530.8548L55.7829 530.1448C 57.20957 529.8781 58.40957 529.4081 59.3829 528.7148L59.3829 528.7148L59.9529 529.1448C 59.44624 529.5315 58.8829 529.8648 58.2429 530.1448L58.2429 530.1448L58.2429 532.8948C 61.1229 532.8682 62.8529 532.8281 63.4129 532.7748C 63.9329 532.6948 64.1829 532.4214 64.1829 531.9548C 64.1829 531.6348 64.16624 531.2781 64.1529 530.8648L64.1529 530.8648L64.8129 531.0348C 64.82623 531.5148 64.8529 531.8548 64.8529 532.0548C 64.8529 532.8948 64.4629 533.3481 63.7029 533.4548C 62.92957 533.5482 60.8629 533.6048 57.5429 533.6048z" stroke="none" fill="#FFFEFE" fill-rule="evenodd" /><path id="12" transform="matrix(1 0 0 -1 0 612)" d="M56.8629 535.0148L57.5529 535.0148L57.5529 535.0148L57.5529 543.7948L57.5529 543.7948L56.8629 543.7948L56.8629 543.7948L56.8629 539.9048C 56.44957 539.7448 56.05957 539.5681 55.7129 539.3948L55.7129 539.3948L55.8329 538.6048C 56.1529 538.7915 56.48957 538.9648 56.8629 539.1248L56.8629 539.1248L56.8629 535.0148zM61.0929 536.1348L65.0229 536.1348L65.0229 536.1348L65.0229 536.8748L65.0229 536.8748L59.9529 536.8748C 59.33957 537.1948 58.6529 537.4548 57.8929 537.6548L57.8929 537.6548L57.8029 536.9048C 59.22957 536.5448 60.43957 535.8548 61.4129 534.8148L61.4129 534.8148L62.0329 535.2848C 61.7529 535.5781 61.43957 535.8548 61.0929 536.1348zM59.9529 540.3748L60.4029 539.9148C 60.82957 540.5015 61.2429 541.0048 61.6429 541.4048C 61.94957 541.1782 62.22623 540.9248 62.4929 540.6448C 61.9329 540.0315 61.26957 539.5281 60.4829 539.1548C 60.1629 539.3948 59.8129 539.6048 59.4129 539.8048L59.4129 539.8048L59.4129 542.4248C 60.02623 542.2648 60.59957 542.0415 61.1329 541.7348C 60.7329 541.3481 60.3529 540.8948 59.9529 540.3748zM57.8229 539.6248C 59.2229 539.2382 60.34957 538.5048 61.1629 537.4248L61.1629 537.4248L61.7429 537.8948C 61.5429 538.1748 61.30957 538.4315 61.0429 538.6848C 61.7629 539.0582 62.4029 539.5315 62.9629 540.1048C 63.4829 539.4248 63.92957 538.6048 64.3029 537.6448L64.3029 537.6448L64.9929 538.0148C 64.5929 539.0415 64.08624 539.9282 63.4729 540.6748C 64.1129 541.4481 64.61623 542.3848 65.0029 543.5048L65.0029 543.5048L64.3429 543.9548C 64.0229 542.9015 63.5729 541.9882 62.9729 541.2148C 61.99957 542.1748 60.7929 542.8115 59.3529 543.1448L59.3529 543.1448L58.7329 543.1448L58.7329 543.1448L58.7329 540.0948C 58.47957 540.1748 58.2229 540.2648 57.9429 540.3448L57.9429 540.3448L57.8229 539.6248z" stroke="none" fill="#FFFEFE" fill-rule="evenodd" /><path id="13" transform="matrix(1 0 0 -1 0 612)" d="M60.9029 545.9748L61.5829 545.9748L61.5829 545.9748L61.5829 549.0248L61.5829 549.0248L63.9529 549.0248L63.9529 549.0248L63.9529 545.1348L63.9529 545.1348L64.6429 545.1348L64.6429 545.1348L64.6429 553.6648L64.6429 553.6648L63.9529 553.6648L63.9529 553.6648L63.9529 549.7548L63.9529 549.7548L61.5829 549.7548L61.5829 549.7548L61.5829 552.8248L61.5829 552.8248L60.9029 552.8248L60.9029 552.8248L60.9029 545.9748zM58.0929 550.3248L58.6629 549.9448C 59.1029 550.9048 59.7029 551.8648 60.4629 552.7848L60.4629 552.7848L59.8529 553.1948C 59.1729 552.3281 58.5729 551.3648 58.0929 550.3248zM58.1629 548.2348C 58.8429 547.5015 59.3829 546.5848 59.7829 545.4648L59.7829 545.4648L60.4429 545.7748C 59.97623 546.9348 59.38957 547.8981 58.6829 548.6848L58.6829 548.6848L58.1629 548.2348zM55.7429 549.4348L55.8629 548.6548C 56.1429 548.8015 56.45957 548.9415 56.7929 549.0748L56.7929 549.0748L56.7929 545.1548L56.7929 545.1548L58.7929 545.1548L58.7929 545.1548L58.7929 545.8848L58.7929 545.8848L57.4629 545.8848L57.4629 545.8848L57.4629 552.9148L57.4629 552.9148L58.8029 552.9148L58.8029 552.9148L58.8029 553.6448L58.8029 553.6448L56.7929 553.6448L56.7929 553.6448L56.7929 549.8148C 56.40623 549.6948 56.0629 549.5548 55.7429 549.4348z" stroke="none" fill="#FFFEFE" fill-rule="evenodd" /><path id="261" transform="matrix(1 0 0 -1 0 612)" d="M443.535 189.78L802.771 189.78L802.771 372.955L443.535 372.955z" stroke="none" fill="#DBDCDE" fill-rule="nonzero" /><g clip-path="url(#4)"><g transform="matrix(0.5535227 0 0 0.5522978 443.5354 239.0413)"><g transform="matrix(1 0 0 1 0 0)"><image x="0" y="0" xlink:href="img_06.png" width="649" height="332" /></g></g></g></g></g></svg>