<svg xmlns="http://www.w3.org/2000/svg" xmlns:xlink="http://www.w3.org/1999/xlink" id="body_2" preserveAspectRatio="xMinYMin meet" viewBox="0 0 1144 816"><defs><clipPath id="1"><path id="" clip-rule="evenodd" transform="matrix(1 0 0 1 0 0)" d="M0 612L0 -0.28302L0 -0.28302L858.898 -0.28302L858.898 -0.28302L858.898 612L858.898 612L0 612z" /></clipPath><clipPath id="2"><path id="" clip-rule="evenodd" transform="matrix(1 0 0 1 0 0)" d="M0 -0.28302L858.898 -0.28302L858.898 -0.28302L858.898 612L858.898 612L0 612z" /></clipPath><clipPath id="3"><path id="" clip-rule="evenodd" transform="matrix(1 0 0 1 0 0)" d="M0 555.307L673.78 555.307L673.78 555.307L673.78 56.409L673.78 56.409L0 56.409z" /></clipPath><clipPath id="4"><path id="" clip-rule="evenodd" transform="matrix(1 0 0 1 0 0)" d="M0 612L858.898 612L858.898 612L858.898 -0.28302L858.898 -0.28302L0 -0.28302z" /></clipPath><clipPath id="5"><path id="" clip-rule="evenodd" transform="matrix(1 0 0 1 0 0)" d="M294.528 131.614L615.071 131.614L615.071 131.614L615.071 474.263L615.071 474.263L294.528 474.263z" /></clipPath></defs><g transform="matrix(1.333333 0 0 1.333333 0 0)"><g clip-path="url(#1)"><g clip-path="url(#2)"><path id="1" transform="matrix(1 0 0 -1 0 612)" d="M802.6706 188.9572C 802.1506 189.1172 801.2673 189.4705 800.6806 189.7372C 799.7873 190.1639 799.5806 190.3072 799.4606 190.5872L799.4606 190.5872L798.8806 190.4372C 798.9739 189.9172 798.9806 189.8839 799.0206 189.5372C 799.1006 188.6839 799.0973 188.6839 799.1106 188.5372C 798.1506 189.2172 797.8339 189.4672 797.4206 189.8272C 797.1939 190.0272 797.1306 190.1305 797.0506 190.3572L797.0506 190.3572L796.3906 190.1772C 796.4706 189.8439 796.5106 189.6772 796.5506 189.4372C 796.8706 187.6105 796.9473 187.1772 796.9606 187.0972L796.9606 187.0972L797.5906 187.0272C 797.4173 187.7739 797.3973 187.8472 797.1306 189.3672C 797.8906 188.7272 798.5873 188.1772 799.0806 187.8572C 800.0406 187.2305 800.0506 187.2339 800.4106 186.9672L800.4106 186.9672L800.7306 187.5872C 800.2639 187.8405 800.2206 187.8705 799.6606 188.1772C 799.5806 189.0839 799.5839 189.0805 799.5306 189.7472C 799.7706 189.5872 799.8506 189.5539 800.0506 189.4472C 800.2906 189.3272 801.1439 188.8972 801.2106 188.8572C 802.1306 188.4572 802.1339 188.4539 802.4006 188.3072zM798.4506 185.7772L798.4506 183.3172C 798.4506 182.8905 798.4373 182.6205 798.4106 182.3272C 798.6772 182.3672 798.9406 182.3672 799.3406 182.3672L799.3406 182.3672L801.2306 182.3672C 801.7506 182.3672 801.9439 182.3639 802.2106 182.3372C 802.1706 182.6039 802.1706 182.8872 802.1706 183.2872L802.1706 183.2872L802.1706 185.6872C 802.1706 186.0472 802.1906 186.3372 802.2306 186.6172L802.2306 186.6172L801.5306 186.6172C 801.5573 186.3772 801.5806 186.0872 801.5806 185.6872L801.5806 185.6872L801.5806 182.9972L801.5806 182.9972L799.0306 182.9972L799.0306 182.9972L799.0306 185.4972C 799.0306 185.8839 799.0306 186.1639 799.0706 186.4572C 798.8306 186.4172 798.5773 186.4072 798.1106 186.4072L798.1106 186.4072L794.7206 186.4072C 793.9872 186.4072 793.8806 186.1339 793.8806 184.1872C 793.8806 181.8805 793.9506 181.8005 796.2706 181.5872C 796.3239 181.8272 796.424 182.0572 796.5706 182.2572C 795.504 182.2972 794.9406 182.3772 794.7406 182.5372C 794.5406 182.6972 794.4906 183.0939 794.4906 184.3072C 794.4906 185.6005 794.5406 185.7772 794.8606 185.7772zM795.7206 186.9572C 795.4806 187.6505 795.2506 188.5639 795.0906 189.4572C 795.0106 189.9105 794.9506 190.3839 794.9506 190.5572C 794.9506 190.5839 794.9506 190.6005 794.9506 190.6272L794.9506 190.6272L794.2306 190.4772C 794.2706 190.3572 794.2839 190.3239 794.3506 189.9772C 794.5506 188.8839 794.7906 187.9372 795.0706 186.9772z" stroke="none" fill="#323232" fill-rule="evenodd" /><path id="2" transform="matrix(1 0 0 -1 0 612)" d="M801.6006 177.3272L801.8606 177.3272C 802.114 177.3272 802.3306 177.3172 802.5706 177.2772L802.5706 177.2772L802.5706 177.9972C 802.3306 177.9572 802.1006 177.9372 801.8606 177.9372L801.8606 177.9372L801.6006 177.9372L801.6006 177.9372L801.6006 179.4272C 801.6006 179.9205 801.6206 180.2672 801.6606 180.5472L801.6606 180.5472L800.9906 180.5472C 801.0306 180.2672 801.0406 179.9605 801.0406 179.4272L801.0406 179.4272L801.0406 177.9372L801.0406 177.9372L800.7306 177.9372C 800.4773 177.9372 800.2706 177.9505 800.0706 177.9772L800.0706 177.9772L800.0706 177.2872C 800.2706 177.3272 800.4473 177.3272 800.7406 177.3272L800.7406 177.3272L801.0406 177.3272L801.0406 177.3272L801.0406 175.0172L801.0406 175.0172L800.7306 175.0172C 800.4639 175.0172 800.2839 175.0305 800.0706 175.0572L800.0706 175.0572L800.0706 174.3672C 800.2706 174.4072 800.4506 174.4072 800.7306 174.4072L800.7306 174.4072L801.0406 174.4072L801.0406 174.4072L801.0406 172.8672C 801.0406 172.3472 801.0306 172.0439 800.9906 171.7372L800.9906 171.7372L801.6606 171.7372C 801.6206 172.0439 801.6006 172.3872 801.6006 172.8672L801.6006 172.8672L801.6006 174.4072L801.6006 174.4072L801.8606 174.4072C 802.1006 174.4072 802.3439 174.3972 802.5706 174.3572L802.5706 174.3572L802.5706 175.0772C 802.3306 175.0372 802.1006 175.0172 801.8606 175.0172L801.8606 175.0172L801.6006 175.0172zM798.7206 172.8372C 798.7206 172.4105 798.7006 172.0705 798.6606 171.7372L798.6606 171.7372L799.3506 171.7372C 799.3106 172.0572 799.2906 172.3972 799.2906 172.8372L799.2906 172.8372L799.2906 176.4972C 799.4506 176.4172 799.5206 176.3872 799.6806 176.3072C 800.0139 176.1472 800.0472 176.1205 800.2206 176.0272L800.2206 176.0272L800.3706 176.7672C 800.0106 176.8472 799.7306 176.9405 799.2906 177.1672L799.2906 177.1672L799.2906 179.3772C 799.2906 179.8305 799.3106 180.1905 799.3506 180.4972L799.3506 180.4972L798.6606 180.4972C 798.7006 180.1772 798.7206 179.8172 798.7206 179.3772L798.7206 179.3772L798.7206 177.5072C 797.5606 178.2939 796.8439 179.1139 796.0706 180.5672C 795.8306 180.3272 795.8306 180.3272 795.6306 180.2072C 795.6039 180.2072 795.5706 180.1872 795.5306 180.1472C 796.1172 179.2539 796.2706 179.0572 796.7906 178.4572L796.7906 178.4572L794.6406 178.4572C 794.2273 178.4572 793.9539 178.4772 793.7006 178.5172L793.7006 178.5172L793.7006 177.8172L793.7006 177.8172L794.2606 177.8172L794.2606 177.8172L794.2606 173.5372L794.2606 173.5372L793.6906 173.5372L793.6906 173.5372L793.6906 172.8272C 794.0239 172.8672 794.314 172.8872 794.6206 172.8872L794.6206 172.8872L796.5006 172.8872C 796.8606 172.8872 797.1306 172.8772 797.4506 172.8372C 797.4106 173.0905 797.4006 173.2972 797.4006 173.7772L797.4006 173.7772L797.4006 177.8272C 797.8006 177.4672 798.0939 177.2272 798.7206 176.8272zM796.8406 177.8172L796.8406 173.5372L796.8406 173.5372L794.8306 173.5372L794.8306 173.5372L794.8306 177.8172z" stroke="none" fill="#323232" fill-rule="evenodd" /><path id="3" transform="matrix(1 0 0 -1 0 612)" d="M800.7206 165.3972L800.7206 167.1372C 800.7206 167.5372 800.7206 167.8239 800.7606 168.0372C 800.5073 168.0105 800.2306 167.9972 799.8706 167.9972L799.8706 167.9972L797.6906 167.9972C 797.184 167.9972 796.8906 168.0072 796.5706 168.0472L796.5706 168.0472L796.5706 167.3672L796.5706 167.3672L797.1206 167.3672L797.1206 167.3672L797.1206 165.3972L797.1206 165.3972L794.9406 165.3972C 794.4073 165.3972 794.0773 165.4272 793.7306 165.4672L793.7306 165.4672L793.7306 164.6872C 794.0906 164.7405 794.3806 164.7572 794.9406 164.7572L794.9406 164.7572L797.1206 164.7572L797.1206 164.7572L797.1206 162.6172L797.1206 162.6172L796.5706 162.6172L796.5706 162.6172L796.5706 161.9172C 796.9039 161.9572 797.2139 161.9772 797.6806 161.9772L797.6806 161.9772L799.8306 161.9772C 800.2706 161.9772 800.5206 161.9772 800.7606 161.9372C 800.7206 162.1505 800.7206 162.4372 800.7206 162.8772L800.7206 162.8772L800.7206 164.7572L800.7206 164.7572L801.4906 164.7572C 802.0239 164.7572 802.3073 164.7405 802.6406 164.6872L802.6406 164.6872L802.6406 165.4672C 802.3206 165.4272 802.0073 165.3972 801.5006 165.3972zM797.7106 165.3972L797.7106 167.3672L797.7106 167.3672L800.1306 167.3672L800.1306 167.3672L800.1306 165.3972zM797.7106 164.7572L800.1306 164.7572L800.1306 164.7572L800.1306 162.6172L800.1306 162.6172L797.7106 162.6172zM801.9106 170.3972C 801.2706 169.7705 800.8606 169.4539 800.0206 168.9472L800.0206 168.9472L800.4706 168.4172C 801.2039 168.9105 801.6273 169.2339 802.3206 169.8872zM798.0206 168.8872C 796.8606 169.2872 795.9406 169.7272 795.1006 170.2872C 794.8473 170.4605 794.7273 170.5572 794.6206 170.6772L794.6206 170.6772L794.1106 170.0672C 794.2706 170.0005 794.3239 169.9772 794.7106 169.7372C 795.6039 169.2172 796.3339 168.8672 797.5206 168.3872z" stroke="none" fill="#323232" fill-rule="evenodd" /></g><path id="4" transform="matrix(1 0 0 -1 0 612)" d="M0 56.693L673.78 56.693L673.78 555.591L0 555.591z" stroke="none" fill="#DBDCDE" fill-rule="nonzero" /><g clip-path="url(#3)"><g transform="matrix(0.7018537 0 0 0.7018537 -1.403704 55.29626)"><g transform="matrix(1 0 0 1 0 0)"><image x="0" y="0" xlink:href="img_03.png" width="962" height="714" /></g></g></g><path id="6" transform="matrix(1 0 0 -1 0 612)" d="M802.6747 555.0406L801.9747 555.0406L801.9747 555.0406L801.9747 550.9406L801.9747 550.9406L800.7647 550.9406L800.7647 550.9406L800.7647 554.5506L800.7647 554.5506L793.8947 554.5506L793.8947 554.5506L793.8947 553.8506L793.8947 553.8506L800.0747 553.8506L800.0747 553.8506L800.0747 550.9406L800.0747 550.9406L794.0447 550.9406L794.0447 550.9406L794.0447 550.2406L794.0447 550.2406L800.0747 550.2406L800.0747 550.2406L800.0747 547.3706L800.0747 547.3706L795.0647 547.3706C 794.7847 547.3706 794.6247 547.5139 794.6247 547.7806L794.6247 547.7806L794.6547 548.9006L794.6547 548.9006L793.9647 548.7206L793.9647 548.7206L793.9647 547.5506C 793.9647 546.9772 794.2913 546.6706 794.9047 546.6706L794.9047 546.6706L800.7647 546.6706L800.7647 546.6706L800.7647 550.2406L800.7647 550.2406L801.9747 550.2406L801.9747 550.2406L801.9747 546.1406L801.9747 546.1406L802.6747 546.1406L802.6747 546.1406L802.6747 555.0406zM799.2447 552.9906L798.7047 553.3506C 798.4647 552.7906 798.1213 552.2473 797.6947 551.7006L797.6947 551.7006L798.2547 551.3306C 798.6414 551.8372 798.9647 552.3906 799.2447 552.9906zM797.2347 553.0706L796.7047 553.4206C 796.438 552.8606 796.0747 552.3173 795.6347 551.7706L795.6347 551.7706L796.1947 551.4006C 796.5947 551.9072 796.9547 552.4706 797.2347 553.0706zM799.2347 549.4706L798.7047 549.8306C 798.4247 549.2706 798.058 548.7072 797.6047 548.1606L797.6047 548.1606L798.1747 547.8006C 798.5747 548.3073 798.928 548.8706 799.2347 549.4706zM797.1447 549.4706L796.6147 549.8306C 796.3347 549.2706 795.9747 548.7272 795.4947 548.1806L795.4947 548.1806L796.0647 547.8105C 796.478 548.3173 796.838 548.8706 797.1447 549.4706z" stroke="none" fill="#000000" fill-rule="evenodd" /><path id="7" transform="matrix(1 0 0 -1 0 612)" d="M799.5647 543.3105L799.5647 536.1106L799.5647 536.1106L800.2647 536.1106L800.2647 536.1106L800.2647 543.3105L800.2647 543.3105L801.6647 543.3105C 801.718 540.8706 801.9447 538.6706 802.3447 536.7106L802.3447 536.7106L802.9947 537.0706C 802.5547 539.1373 802.3314 541.4473 802.3047 544.0206L802.3047 544.0206L799.3047 544.0206C 797.2647 544.0872 795.6647 544.4806 794.5047 545.2006L794.5047 545.2006L793.9547 544.6706C 795.2747 543.8306 797.0647 543.3773 799.3047 543.3105L799.3047 543.3105L799.5647 543.3105zM798.1647 536.9006L798.1647 542.3906L798.1647 542.3906L793.9247 542.3906L793.9247 542.3906L793.9247 541.6706L793.9247 541.6706L794.3947 541.6706L794.3947 541.6706L794.3947 537.6206L794.3947 537.6206L793.9247 537.6206L793.9247 537.6206L793.9247 536.9006L793.9247 536.9006L798.1647 536.9006zM795.0947 541.6706L797.4747 541.6706L797.4747 541.6706L797.4747 537.6206L797.4747 537.6206L795.0947 537.6206L795.0947 537.6206L795.0947 541.6706z" stroke="none" fill="#000000" fill-rule="evenodd" /><path id="8" transform="matrix(1 0 0 -1 0 612)" d="M801.3647 531.5506L801.3647 533.1606C 801.858 532.9606 802.4047 532.8105 803.0047 532.6906L803.0047 532.6906L803.1047 533.4106C 802.5047 533.5039 801.9247 533.6406 801.3647 533.8406L801.3647 533.8406L801.3647 534.7706L801.3647 534.7706L794.2547 534.7706L794.2547 534.7706L794.2547 534.0706L794.2547 534.0706L795.1147 534.0706L795.1147 534.0706L795.1147 532.2505L795.1147 532.2505L794.5447 532.2505L794.5447 532.2505L794.5447 531.5506L794.5447 531.5506L801.3647 531.5506zM795.7847 534.0706L797.9747 534.0706L797.9747 534.0706L797.9747 532.2505L797.9747 532.2505L795.7847 532.2505L795.7847 532.2505L795.7847 534.0706zM798.6247 534.0706L800.6847 534.0706L800.6847 534.0706L800.6847 532.2505L800.6847 532.2505L798.6247 532.2505L798.6247 532.2505L798.6247 534.0706zM799.0447 529.8105L798.6847 530.3906C 797.858 529.7106 797.118 529.1539 796.4647 528.7406L796.4647 528.7406L796.8647 528.1706C 797.478 528.5573 798.2047 529.0906 799.0447 529.8105zM801.3547 526.3806L801.3547 529.5706C 801.8747 529.3972 802.4247 529.2505 803.0247 529.1306L803.0247 529.1306L803.1147 529.8406C 801.688 530.1072 800.488 530.5773 799.5147 531.2706L799.5147 531.2706L798.9447 530.8406C 799.4514 530.4539 800.0147 530.1206 800.6547 529.8406L800.6547 529.8406L800.6547 527.0906C 797.7747 527.1172 796.0447 527.1572 795.4847 527.2106C 794.9647 527.2906 794.7147 527.5639 794.7147 528.0306C 794.7147 528.3506 794.7313 528.7072 794.7447 529.1206L794.7447 529.1206L794.0847 528.9506C 794.0714 528.4706 794.0447 528.1306 794.0447 527.9306C 794.0447 527.0906 794.4347 526.6373 795.1947 526.5306C 795.968 526.4373 798.0347 526.3806 801.3547 526.3806z" stroke="none" fill="#000000" fill-rule="evenodd" /><path id="9" transform="matrix(1 0 0 -1 0 612)" d="M802.0347 524.9706L801.3447 524.9706L801.3447 524.9706L801.3447 516.1906L801.3447 516.1906L802.0347 516.1906L802.0347 516.1906L802.0347 520.0806C 802.448 520.2406 802.838 520.4172 803.1847 520.5906L803.1847 520.5906L803.0647 521.3806C 802.7447 521.1939 802.408 521.0206 802.0347 520.8606L802.0347 520.8606L802.0347 524.9706zM797.8047 523.8506L793.8747 523.8506L793.8747 523.8506L793.8747 523.1106L793.8747 523.1106L798.9447 523.1106C 799.558 522.7906 800.2447 522.5306 801.0047 522.3306L801.0047 522.3306L801.0947 523.0806C 799.668 523.4406 798.458 524.1306 797.4847 525.1706L797.4847 525.1706L796.8647 524.7006C 797.1447 524.4072 797.458 524.1306 797.8047 523.8506zM798.9447 519.6106L798.4947 520.0706C 798.068 519.4839 797.6547 518.9806 797.2547 518.5806C 796.948 518.8073 796.6713 519.0605 796.4047 519.3406C 796.9647 519.9539 797.628 520.4573 798.4147 520.8306C 798.7347 520.5906 799.0847 520.3806 799.4847 520.1806L799.4847 520.1806L799.4847 517.5605C 798.8713 517.7206 798.298 517.9439 797.7647 518.2505C 798.1647 518.6373 798.5447 519.0906 798.9447 519.6106zM801.0747 520.3606C 799.6747 520.7473 798.548 521.4806 797.7347 522.5605L797.7347 522.5605L797.1547 522.0906C 797.3547 521.8105 797.588 521.5539 797.8547 521.3006C 797.1347 520.9272 796.4947 520.4539 795.9347 519.8806C 795.4147 520.5605 794.968 521.3806 794.5947 522.3406L794.5947 522.3406L793.9047 521.9706C 794.3047 520.9439 794.8113 520.0573 795.4247 519.3105C 794.7847 518.5372 794.2814 517.6006 793.8947 516.4806L793.8947 516.4806L794.5547 516.0306C 794.8747 517.0839 795.3247 517.9973 795.9247 518.7706C 796.898 517.8105 798.1047 517.1739 799.5447 516.8406L799.5447 516.8406L800.1647 516.8406L800.1647 516.8406L800.1647 519.8906C 800.418 519.8105 800.6747 519.7206 800.9547 519.6406L800.9547 519.6406L801.0747 520.3606z" stroke="none" fill="#000000" fill-rule="evenodd" /><path id="10" transform="matrix(1 0 0 -1 0 612)" d="M797.9947 514.0106L797.3147 514.0106L797.3147 514.0106L797.3147 510.9606L797.3147 510.9606L794.9447 510.9606L794.9447 510.9606L794.9447 514.8506L794.9447 514.8506L794.2547 514.8506L794.2547 514.8506L794.2547 506.3206L794.2547 506.3206L794.9447 506.3206L794.9447 506.3206L794.9447 510.2306L794.9447 510.2306L797.3147 510.2306L797.3147 510.2306L797.3147 507.1606L797.3147 507.1606L797.9947 507.1606L797.9947 507.1606L797.9947 514.0106zM800.8047 509.6606L800.2347 510.0406C 799.7947 509.0806 799.1947 508.1206 798.4347 507.2006L798.4347 507.2006L799.0447 506.7906C 799.7247 507.6572 800.3247 508.6206 800.8047 509.6606zM800.7347 511.7506C 800.0547 512.4839 799.5147 513.4006 799.1147 514.5206L799.1147 514.5206L798.4547 514.2106C 798.9213 513.0506 799.508 512.0872 800.2147 511.3006L800.2147 511.3006L800.7347 511.7506zM803.1547 510.5506L803.0347 511.3306C 802.7547 511.1839 802.438 511.0439 802.1047 510.9106L802.1047 510.9106L802.1047 514.8306L802.1047 514.8306L800.1047 514.8306L800.1047 514.8306L800.1047 514.1006L800.1047 514.1006L801.4347 514.1006L801.4347 514.1006L801.4347 507.0706L801.4347 507.0706L800.0947 507.0706L800.0947 507.0706L800.0947 506.3406L800.0947 506.3406L802.1047 506.3406L802.1047 506.3406L802.1047 510.1706C 802.4913 510.2906 802.8347 510.4306 803.1547 510.5506z" stroke="none" fill="#000000" fill-rule="evenodd" /><g clip-path="url(#4)"><g><g clip-path="url(#5)"><path id="11" transform="matrix(1 0 0 -1 0 612)" d="M303.528 138.737L606.071 138.737L606.071 473.386L303.528 473.386z" stroke="none" fill="#FFFEFE" fill-rule="nonzero" /></g></g></g></g></g></svg>