<svg xmlns="http://www.w3.org/2000/svg" xmlns:xlink="http://www.w3.org/1999/xlink" id="body_4" preserveAspectRatio="xMinYMin meet" viewBox="0 0 1144 816"><defs><clipPath id="1"><path id="" clip-rule="evenodd" transform="matrix(1 0 0 1 0 0)" d="M0 612L0 -0.28302L0 -0.28302L858.898 -0.28302L858.898 -0.28302L858.898 612L858.898 612L0 612z" /></clipPath><clipPath id="2"><path id="" clip-rule="evenodd" transform="matrix(1 0 0 1 0 0)" d="M0 -0.28302L858.898 -0.28302L858.898 -0.28302L858.898 612L858.898 612L0 612z" /></clipPath><clipPath id="3"><path id="" clip-rule="evenodd" transform="matrix(1 0 0 1 0 0)" d="M56.693 56.40997L365.622 56.40997L365.622 56.40997L365.622 375.307L365.622 375.307L56.693 375.307z" /></clipPath><clipPath id="4"><path id="" clip-rule="evenodd" transform="matrix(1 0 0 1 0 0)" d="M382.019 555.307L778.677 555.307L778.677 555.307L778.677 304.858L778.677 304.858L382.019 304.858z" /></clipPath><clipPath id="5"><path id="" clip-rule="evenodd" transform="matrix(1 0 0 1 0 0)" d="M382.019 218.268L549.701 218.268L549.701 218.268L549.701 56.409L549.701 56.409L382.019 56.409z" /></clipPath></defs><g transform="matrix(1.333333 0 0 1.333333 0 0)"><g clip-path="url(#1)"><g clip-path="url(#2)"><path id="1" transform="matrix(1 0 0 -1 0 612)" d="M65.2581 139.6838L58.0999 139.6838L58.0999 139.6838L58.0999 142.8577C 58.0999 143.4957 58.16419 143.9807 58.29277 144.3127C 58.42135 144.6448 58.6484 144.9101 58.97392 145.1086C 59.29944 145.3072 59.65915 145.4065 60.05302 145.4065C 61.06865 145.4065 61.81247 144.7636 62.00127 143.3899C 62.12171 143.6405 62.24052 143.831 62.35771 143.9612C 62.61162 144.2379 62.929 144.4999 63.30986 144.7473L63.30986 144.7473L65.2581 145.9924L65.2581 145.9924L65.2581 144.801L65.2581 144.801L63.76884 143.8538C 63.33916 143.5771 63.01038 143.3492 62.78252 143.1702C 62.55465 142.9911 62.39515 142.8308 62.304 142.6892C 62.21286 142.5476 62.14938 142.4036 62.11357 142.2571C 62.09079 142.1497 62.07939 141.9739 62.07939 141.7297L62.07939 141.7297L62.07939 140.6311L62.07939 140.6311L65.2581 140.6311zM61.25908 140.6311L61.25908 142.6672C 61.25908 143.1002 61.21432 143.4387 61.1248 143.6829C 61.03528 143.927 60.89206 144.1125 60.69511 144.2395C 60.49817 144.3665 60.28415 144.4299 60.05302 144.4299C 59.37594 144.4299 58.89091 143.9579 58.89091 142.8967L58.89091 142.8967L58.89091 140.6311z" stroke="none" fill="#353332" fill-rule="evenodd" /><path id="2" transform="matrix(1 0 0 -1 0 612)" d="M65.2581 150.1753L64.49638 150.1753C 65.08232 149.7717 65.37529 149.2232 65.37529 148.5298C 65.37529 148.2238 65.3167 147.9382 65.19951 147.6729C 65.08232 147.4076 64.93502 147.2106 64.75761 147.0821C 64.58021 146.9535 64.36292 146.8631 64.10576 146.8111C 63.93323 146.7753 63.65979 146.7574 63.28545 146.7574L63.28545 146.7574L60.07256 146.7574L60.07256 146.7574L60.07256 147.6363L60.07256 147.6363L62.94853 147.6363C 63.40752 147.6363 63.71676 147.6542 63.87627 147.69C 64.33851 147.8006 64.61845 148.1783 64.61845 148.7056C 64.61845 148.9693 64.55091 149.2167 64.41582 149.4478C 64.28072 149.6789 64.09681 149.8425 63.86406 149.9385C 63.63131 150.0345 63.29358 150.0826 62.85088 150.0826L62.85088 150.0826L60.07256 150.0826L60.07256 150.0826L60.07256 150.9615L60.07256 150.9615L65.2581 150.9615z" stroke="none" fill="#353332" fill-rule="evenodd" /><path id="3" transform="matrix(1 0 0 -1 0 612)" d="M62.66533 152.0097C 61.70504 152.0097 60.99378 152.2767 60.53154 152.8105C 60.14743 153.2565 59.95537 153.8001 59.95537 154.4414C 59.95537 155.8672 60.94495 156.8681 62.59209 156.8681C 63.2594 156.8681 63.78431 156.768 64.16679 156.5678C 64.54928 156.3676 64.84632 156.0763 65.05791 155.6938C 65.26949 155.3113 65.37529 154.8938 65.37529 154.4414C 65.37529 152.9895 64.41663 152.0097 62.66533 152.0097zM62.66533 152.9131C 63.99345 152.9131 64.65263 153.5625 64.65263 154.4414C 64.65263 155.3138 63.99671 155.9648 62.63603 155.9648C 61.35348 155.9648 60.68291 155.3073 60.68291 154.4414C 60.68291 153.5625 61.3372 152.9131 62.66533 152.9131z" stroke="none" fill="#353332" fill-rule="evenodd" /><path id="4" transform="matrix(1 0 0 -1 0 612)" d="M63.35869 161.2807L63.47099 162.1449C 64.6624 161.9561 65.37529 161.1195 65.37529 159.9867C 65.37529 158.5675 64.41663 157.6283 62.68486 157.6283C 62.12497 157.6283 61.63506 157.7211 61.21513 157.9066C 60.79521 158.0922 60.48027 158.3746 60.27031 158.7538C 60.06035 159.1331 59.95537 159.5457 59.95537 159.9916C 59.95537 161.1179 60.54782 161.8601 61.59599 162.0619L61.59599 162.0619L61.72783 161.2074C 61.03122 161.0447 60.67802 160.6117 60.67802 160.0258C 60.67802 159.1404 61.28675 158.5316 62.66045 158.5316C 64.05367 158.5316 64.65263 159.1176 64.65263 159.977C 64.65263 160.6671 64.23759 161.157 63.35869 161.2807z" stroke="none" fill="#353332" fill-rule="evenodd" /><path id="5" transform="matrix(1 0 0 -1 0 612)" d="M65.2581 162.8969L58.0999 162.8969L58.0999 162.8969L58.0999 163.7758L58.0999 163.7758L60.66826 163.7758C 60.193 164.1859 59.95537 164.7035 59.95537 165.3285C 59.95537 165.7126 60.03105 166.0463 60.18242 166.3295C 60.33379 166.6127 60.54293 166.8153 60.80986 166.9374C 61.07679 167.0595 61.46416 167.1205 61.97197 167.1205L61.97197 167.1205L65.2581 167.1205L65.2581 167.1205L65.2581 166.2416L65.2581 166.2416L61.97197 166.2416C 61.09306 166.2416 60.7122 165.8445 60.7122 165.1479C 60.7122 164.8875 60.77975 164.6425 60.91484 164.413C 61.04993 164.1835 61.23304 164.0199 61.46416 163.9223C 61.69528 163.8246 62.01429 163.7758 62.42119 163.7758L62.42119 163.7758L65.2581 163.7758z" stroke="none" fill="#353332" fill-rule="evenodd" /><path id="6" transform="matrix(1 0 0 -1 0 612)" d="M62.66533 168.1297C 61.70504 168.1297 60.99378 168.3967 60.53154 168.9305C 60.14743 169.3765 59.95537 169.9201 59.95537 170.5614C 59.95537 171.9872 60.94495 172.9881 62.59209 172.9881C 63.2594 172.9881 63.78431 172.888 64.16679 172.6878C 64.54928 172.4876 64.84632 172.1963 65.05791 171.8138C 65.26949 171.4313 65.37529 171.0139 65.37529 170.5614C 65.37529 169.1096 64.41663 168.1297 62.66533 168.1297zM62.66533 169.0331C 63.99345 169.0331 64.65263 169.6825 64.65263 170.5614C 64.65263 171.4338 63.99671 172.0848 62.63603 172.0848C 61.35348 172.0848 60.68291 171.4273 60.68291 170.5614C 60.68291 169.6825 61.3372 169.0331 62.66533 169.0331z" stroke="none" fill="#353332" fill-rule="evenodd" /><path id="7" transform="matrix(1 0 0 -1 0 612)" d="M65.2581 174.0169L60.07256 174.0169L60.07256 174.0169L60.07256 174.8079L60.07256 174.8079L60.80986 174.8079C 60.2402 175.1888 59.95537 175.7389 59.95537 176.4583C 59.95537 176.7708 60.01152 177.0581 60.12383 177.3201C 60.23613 177.5822 60.38343 177.7783 60.56572 177.9085C 60.74801 178.0387 60.96448 178.1298 61.21513 178.1819C 61.3779 178.2145 61.66272 178.2307 62.06963 178.2307L62.06963 178.2307L65.2581 178.2307L65.2581 178.2307L65.2581 177.3518L65.2581 177.3518L62.10381 177.3518C 61.74573 177.3518 61.47799 177.3177 61.30058 177.2493C 61.12317 177.1809 60.98157 177.0597 60.87578 176.8855C 60.76999 176.7114 60.71709 176.5071 60.71709 176.2727C 60.71709 175.524 61.09795 174.8958 62.42607 174.8958L62.42607 174.8958L65.2581 174.8958z" stroke="none" fill="#353332" fill-rule="evenodd" /><path id="8" transform="matrix(1 0 0 -1 0 612)" d="M65.68779 179.4157L65.81474 180.2702C 66.07841 180.306 66.27047 180.4053 66.39091 180.5681C 66.55367 180.7862 66.63506 181.084 66.63506 181.4616C 66.63506 182.2755 66.29326 182.697 65.70732 182.8532C 65.52828 182.8988 65.15231 182.92 64.57939 182.9167C 65.03187 182.5326 65.2581 182.0541 65.2581 181.4812C 65.2581 180.0554 64.07484 179.24 62.63603 179.24C 62.14124 179.24 61.6847 179.3295 61.2664 179.5085C 60.84811 179.6876 60.52503 179.9472 60.29716 180.2873C 60.0693 180.6275 59.95537 181.0271 59.95537 181.4861C 59.95537 182.098 60.20276 182.6026 60.69756 182.9997L60.69756 182.9997L60.07256 182.9997L60.07256 182.9997L60.07256 183.8103L60.07256 183.8103L64.55498 183.8103C 65.36227 183.8103 65.93437 183.7281 66.27129 183.5637C 66.6082 183.3993 66.87431 183.1389 67.06963 182.7824C 67.26494 182.426 67.36259 181.9874 67.36259 181.4665C 67.36259 180.2296 66.80758 179.3897 65.68779 179.4157zM62.57256 180.1433C 63.93323 180.1433 64.53056 180.7504 64.53056 181.5642C 64.53056 182.3715 63.92998 182.99 62.60185 182.99C 61.33232 182.99 60.68291 182.3438 60.68291 181.5495C 60.68291 180.7683 61.32256 180.1433 62.57256 180.1433z" stroke="none" fill="#353332" fill-rule="evenodd" /></g><path id="9" transform="matrix(1 0 0 -1 0 612)" d="M56.835 94.535L74.41 94.535L74.41 94.535L74.41 207.637L74.41 207.637L56.835 207.637z" stroke="#FFFEFE" stroke-width="0.283" fill="#FFFEFE" fill-rule="nonzero" /><path id="10" transform="matrix(1 0 0 -1 0 612)" d="M699.78 111.142L745.079 111.142L745.079 610.04L699.78 610.04z" stroke="none" fill="#FFFEFE" fill-rule="nonzero" /><path id="640" transform="matrix(1 0 0 -1 0 612)" d="M56.693 236.693L366.551 236.693L366.551 555.59L56.693 555.59z" stroke="none" fill="#E6E6E6" fill-rule="nonzero" /><g clip-path="url(#3)"><g transform="matrix(0.2398512 0 0 0.239953 56.69299 56.40942)"><g transform="matrix(1 0 0 1 0 0)"><image x="0" y="0" xlink:href="img_10.png" width="1288" height="1329" /></g></g></g><path id="642" transform="matrix(1 0 0 -1 0 612)" d="M790.1906 551.9607L799.0295 551.9607L799.0295 551.9607L799.0295 555.2625L799.0295 555.2625L800.2121 555.2625L800.2121 555.2625L800.2121 547.3191L800.2121 547.3191L799.0295 547.3191L799.0295 547.3191L799.0295 550.6345L799.0295 550.6345L790.1906 550.6345z" stroke="none" fill="#353231" fill-rule="evenodd" /><path id="643" transform="matrix(1 0 0 -1 0 612)" d="M790.1906 546.1137L800.2121 546.1137L800.2121 546.1137L800.2121 544.8832L800.2121 544.8832L796.6164 544.8832C 797.2817 544.309 797.6144 543.5844 797.6144 542.7094C 797.6144 542.1717 797.5085 541.7045 797.2966 541.308C 797.0847 540.9116 796.7919 540.6279 796.4182 540.457C 796.0444 540.2861 795.5021 540.2006 794.7912 540.2006L794.7912 540.2006L790.1906 540.2006L790.1906 540.2006L790.1906 541.4311L790.1906 541.4311L794.7912 541.4311C 796.0217 541.4311 796.5549 541.9871 796.5549 542.9623C 796.5549 543.327 796.4603 543.6699 796.2712 543.9911C 796.082 544.3124 795.8257 544.5414 795.5021 544.6782C 795.1786 544.8149 794.7319 544.8832 794.1623 544.8832L794.1623 544.8832L790.1906 544.8832z" stroke="none" fill="#353231" fill-rule="evenodd" /><path id="644" transform="matrix(1 0 0 -1 0 612)" d="M792.5285 533.36L792.3713 532.0885C 790.8856 532.4896 790.0266 533.5947 790.0266 535.2809C 790.0266 537.4046 791.3983 538.7399 793.759 538.7399C 796.2017 538.7399 797.6144 537.3545 797.6144 535.3492C 797.6144 533.4078 796.2313 532.0475 793.8342 532.0475C 793.7612 532.0475 793.6519 532.0498 793.506 532.0543L793.506 532.0543L793.506 537.4684C 791.911 537.3773 791.0383 536.4863 791.0383 535.274C 791.0383 534.3717 791.4894 533.7337 792.5285 533.36zM794.5178 537.4L794.5178 533.3463C 795.1284 533.401 795.5864 533.556 795.8918 533.8112C 796.3657 534.2031 796.6027 534.7112 796.6027 535.3356C 796.6027 536.4658 795.7847 537.318 794.5178 537.4z" stroke="none" fill="#353231" fill-rule="evenodd" /><path id="646" transform="matrix(1 0 0 -1 0 612)" d="M790.1906 526.3598L796.4933 526.3598L796.4933 526.3598L796.4933 527.4467L796.4933 527.4467L797.4504 527.4467L797.4504 527.4467L797.4504 526.3598L797.4504 526.3598L798.2228 526.3598C 798.7104 526.3598 799.0728 526.3165 799.3098 526.2299C 799.9478 525.9929 800.383 525.4255 800.383 524.35C 800.383 524.0037 800.342 523.6208 800.2599 523.2016L800.2599 523.2016L799.1867 523.3862C 799.2323 523.6414 799.2551 523.8829 799.2551 524.1108C 799.2551 524.8582 798.9953 525.1362 798.1203 525.1362L798.1203 525.1362L797.4504 525.1362L797.4504 525.1362L797.4504 523.7211L797.4504 523.7211L796.4933 523.7211L796.4933 523.7211L796.4933 525.1362L796.4933 525.1362L790.1906 525.1362z" stroke="none" fill="#353231" fill-rule="evenodd" /><path id="647" transform="matrix(1 0 0 -1 0 612)" d="M791.0861 518.0244C 790.3114 518.9359 790.0266 519.7311 790.0266 520.6973C 790.0266 522.2923 790.8925 523.1787 792.1047 523.1787C 792.4601 523.1787 792.7849 523.0978 793.0788 522.936C 793.3727 522.7742 793.6086 522.5623 793.7863 522.3003C 793.9641 522.0383 794.0985 521.7432 794.1896 521.415C 794.2534 521.1735 794.3149 520.8089 794.3742 520.3213C 794.4927 519.3278 794.634 518.5964 794.798 518.127C 794.9667 518.1224 795.0737 518.1201 795.1193 518.1201C 795.6206 518.1201 795.9738 518.2363 796.1789 518.4688C 796.4569 518.7832 796.5959 519.2503 796.5959 519.8701C 796.5959 521.0276 796.245 521.4993 795.215 521.7637L795.215 521.7637L795.3791 522.9668C 795.894 522.8574 796.3099 522.6774 796.6266 522.4268C 796.9434 522.1761 797.1872 521.8138 797.3581 521.3398C 797.529 520.8659 797.6144 520.3167 797.6144 519.6924C 797.6144 519.0726 797.5415 518.569 797.3957 518.1816C 797.2499 517.7943 797.0664 517.5095 796.8454 517.3271C 796.6244 517.1448 796.3452 517.0173 796.008 516.9443C 795.7983 516.9033 795.4201 516.8828 794.8732 516.8828L794.8732 516.8828L793.2326 516.8828C 790.9448 516.8828 790.7466 516.803 790.1906 516.4932L790.1906 516.4932L790.1906 517.7783C 790.4458 517.9059 790.7443 517.988 791.0861 518.0244zM793.8342 518.127C 793.6519 518.5735 793.4969 519.2435 793.3693 520.1367C 793.2964 520.6426 793.2144 521.0003 793.1232 521.21C 793.0321 521.4196 792.8988 521.5814 792.7233 521.6953C 792.5479 521.8093 792.353 521.8662 792.1389 521.8662C 791.4826 521.8662 790.9904 521.3604 790.9904 520.4033C 790.9904 519.4554 791.4325 518.6716 792.1525 518.3252C 792.4305 518.1931 792.8407 518.127 793.383 518.127z" stroke="none" fill="#353231" fill-rule="evenodd" /><path id="648" transform="matrix(1 0 0 -1 0 612)" d="M798.7971 514.9709L800.2121 514.9709L800.2121 514.9709L800.2121 513.7404L800.2121 513.7404L798.7971 513.7404zM790.1906 514.9709L797.4504 514.9709L797.4504 514.9709L797.4504 513.7404L797.4504 513.7404L790.1906 513.7404z" stroke="none" fill="#353231" fill-rule="evenodd" /><path id="649" transform="matrix(1 0 0 -1 0 612)" d="M790.1906 511.8834L797.4504 511.8834L797.4504 511.8834L797.4504 510.776L797.4504 510.776L796.3498 510.776C 797.3798 510.2109 797.6144 509.7779 797.6144 509.2037C 797.6144 508.789 797.4823 508.3674 797.218 507.9391L797.218 507.9391L796.0764 508.3629C 796.2541 508.6637 796.343 508.9644 796.343 509.2652C 796.343 509.803 796.0012 510.2656 795.4269 510.4478C 794.9894 510.5846 794.5109 510.6529 793.9914 510.6529L793.9914 510.6529L790.1906 510.6529z" stroke="none" fill="#353231" fill-rule="evenodd" /><path id="650" transform="matrix(1 0 0 -1 0 612)" d="M787.3947 507.2624L788.55 507.3991C 788.4771 507.1302 788.4406 506.8955 788.4406 506.695C 788.4406 506.1482 788.632 505.8451 788.9601 505.6355C 789.0832 505.558 789.3885 505.4326 789.8762 505.2595C 789.9445 505.2367 790.0448 505.2002 790.1769 505.1501L790.1769 505.1501L797.4504 507.905L797.4504 507.905L797.4504 506.5788L797.4504 506.5788L793.2463 505.0681C 792.7131 504.8721 792.1525 504.6967 791.5646 504.5417C 792.1298 504.4004 792.6812 504.2318 793.2189 504.0359L793.2189 504.0359L797.4504 502.4841L797.4504 502.4841L797.4504 501.2536L797.4504 501.2536L790.0676 504.0154C 789.27 504.3116 788.7209 504.5417 788.4201 504.7058C 787.6089 505.1433 787.2443 505.6856 787.2443 506.4695C 787.2443 506.7064 787.2944 506.9707 787.3947 507.2624z" stroke="none" fill="#353231" fill-rule="evenodd" /><path id="652" transform="matrix(1 0 0 -1 0 612)" d="M793.8205 496.7737C 795.1649 496.7737 796.1606 496.4 796.8078 495.6526C 797.3456 495.0283 797.6144 494.2672 797.6144 493.3694C 797.6144 491.3734 796.229 489.972 793.923 489.972C 792.9888 489.972 792.2539 490.1121 791.7184 490.3924C 791.183 490.6727 790.7671 491.0805 790.4709 491.616C 790.1747 492.1515 790.0266 492.736 790.0266 493.3694C 790.0266 495.402 791.3687 496.7737 793.8205 496.7737zM793.8205 495.5091C 791.9611 495.5091 791.0383 494.5999 791.0383 493.3694C 791.0383 492.1481 791.9565 491.2366 793.8615 491.2366C 795.6571 491.2366 796.5959 492.1572 796.5959 493.3694C 796.5959 494.5999 795.6799 495.5091 793.8205 495.5091z" stroke="none" fill="#353231" fill-rule="evenodd" /><path id="653" transform="matrix(1 0 0 -1 0 612)" d="M790.1906 488.2378L796.4933 488.2378L796.4933 488.2378L796.4933 489.3247L796.4933 489.3247L797.4504 489.3247L797.4504 489.3247L797.4504 488.2378L797.4504 488.2378L798.2228 488.2378C 798.7104 488.2378 799.0728 488.1945 799.3098 488.1079C 799.9478 487.8709 800.383 487.3035 800.383 486.228C 800.383 485.8817 800.342 485.4988 800.2599 485.0796L800.2599 485.0796L799.1867 485.2642C 799.2323 485.5193 799.2551 485.7609 799.2551 485.9888C 799.2551 486.7361 798.9953 487.0142 798.1203 487.0142L798.1203 487.0142L797.4504 487.0142L797.4504 487.0142L797.4504 485.5991L797.4504 485.5991L796.4933 485.5991L796.4933 485.5991L796.4933 487.0142L796.4933 487.0142L790.1906 487.0142z" stroke="none" fill="#353231" fill-rule="evenodd" /><path id="655" transform="matrix(1 0 0 -1 0 612)" d="M790.1906 478.7311L797.4504 481.4928L797.4504 481.4928L797.4504 480.194L797.4504 480.194L793.1027 478.6354C 792.6333 478.4668 792.1457 478.3119 791.6398 478.1706C 792.0226 478.0612 792.4829 477.9085 793.0207 477.7126L793.0207 477.7126L797.4504 476.0993L797.4504 476.0993L797.4504 474.8346L797.4504 474.8346L790.1906 477.5827z" stroke="none" fill="#353231" fill-rule="evenodd" /><path id="656" transform="matrix(1 0 0 -1 0 612)" d="M791.0861 469.0104C 790.3114 469.9219 790.0266 470.7171 790.0266 471.6833C 790.0266 473.2783 790.8925 474.1647 792.1047 474.1647C 792.4601 474.1647 792.7849 474.0838 793.0788 473.922C 793.3727 473.7603 793.6086 473.5483 793.7863 473.2863C 793.9641 473.0243 794.0985 472.7292 794.1896 472.401C 794.2534 472.1595 794.3149 471.7949 794.3742 471.3073C 794.4927 470.3138 794.634 469.5824 794.798 469.1129C 794.9667 469.1084 795.0737 469.1061 795.1193 469.1061C 795.6206 469.1061 795.9738 469.2223 796.1789 469.4547C 796.4569 469.7692 796.5959 470.2363 796.5959 470.8561C 796.5959 472.0137 796.245 472.4854 795.215 472.7497L795.215 472.7497L795.3791 473.9528C 795.894 473.8434 796.3099 473.6634 796.6266 473.4128C 796.9434 473.1621 797.1872 472.7998 797.3581 472.3258C 797.529 471.8519 797.6144 471.3027 797.6144 470.6784C 797.6144 470.0586 797.5415 469.555 797.3957 469.1676C 797.2499 468.7803 797.0664 468.4955 796.8454 468.3131C 796.6244 468.1309 796.3452 468.0033 796.008 467.9303C 795.7983 467.8893 795.4201 467.8688 794.8732 467.8688L794.8732 467.8688L793.2326 467.8688C 790.9448 467.8688 790.7466 467.7891 790.1906 467.4792L790.1906 467.4792L790.1906 468.7643C 790.4458 468.8919 790.7443 468.974 791.0861 469.0104zM793.8342 469.1129C 793.6519 469.5596 793.4969 470.2295 793.3693 471.1227C 793.2964 471.6286 793.2144 471.9863 793.1232 472.196C 793.0321 472.4056 792.8988 472.5674 792.7233 472.6813C 792.5479 472.7953 792.353 472.8522 792.1389 472.8522C 791.4826 472.8522 790.9904 472.3463 790.9904 471.3893C 790.9904 470.4414 791.4325 469.6576 792.1525 469.3112C 792.4305 469.179 792.8407 469.1129 793.383 469.1129z" stroke="none" fill="#353231" fill-rule="evenodd" /><path id="657" transform="matrix(1 0 0 -1 0 612)" d="M790.1906 465.9911L800.2121 465.9911L800.2121 465.9911L800.2121 464.7606L800.2121 464.7606L790.1906 464.7606z" stroke="none" fill="#353231" fill-rule="evenodd" /><path id="658" transform="matrix(1 0 0 -1 0 612)" d="M790.1906 462.8831L800.2121 462.8831L800.2121 462.8831L800.2121 461.6526L800.2121 461.6526L790.1906 461.6526z" stroke="none" fill="#353231" fill-rule="evenodd" /><path id="659" transform="matrix(1 0 0 -1 0 612)" d="M792.5285 454.778L792.3713 453.5065C 790.8856 453.9076 790.0266 455.0127 790.0266 456.6989C 790.0266 458.8226 791.3983 460.1579 793.759 460.1579C 796.2017 460.1579 797.6144 458.7725 797.6144 456.7672C 797.6144 454.8258 796.2313 453.4655 793.8342 453.4655C 793.7612 453.4655 793.6519 453.4678 793.506 453.4723L793.506 453.4723L793.506 458.8864C 791.911 458.7953 791.0383 457.9043 791.0383 456.692C 791.0383 455.7897 791.4894 455.1517 792.5285 454.778zM794.5178 458.818L794.5178 454.7643C 795.1284 454.819 795.5864 454.974 795.8918 455.2292C 796.3657 455.6211 796.6027 456.1292 796.6027 456.7536C 796.6027 457.8838 795.7847 458.736 794.5178 458.818z" stroke="none" fill="#353231" fill-rule="evenodd" /><path id="660" transform="matrix(1 0 0 -1 0 612)" d="M787.3947 452.0184L788.55 452.1551C 788.4771 451.8863 788.4406 451.6516 788.4406 451.451C 788.4406 450.9041 788.632 450.6011 788.9601 450.3914C 789.0832 450.314 789.3885 450.1887 789.8762 450.0155C 789.9445 449.9927 790.0448 449.9562 790.1769 449.9061L790.1769 449.9061L797.4504 452.661L797.4504 452.661L797.4504 451.3348L797.4504 451.3348L793.2463 449.8241C 792.7131 449.6281 792.1525 449.4527 791.5646 449.2977C 792.1298 449.1564 792.6812 448.9878 793.2189 448.7918L793.2189 448.7918L797.4504 447.2401L797.4504 447.2401L797.4504 446.0096L797.4504 446.0096L790.0676 448.7713C 789.27 449.0676 788.7209 449.2977 788.4201 449.4618C 787.6089 449.8993 787.2443 450.4416 787.2443 451.2254C 787.2443 451.4624 787.2944 451.7267 787.3947 452.0184z" stroke="none" fill="#353231" fill-rule="evenodd" /><g clip-path="url(#4)"><g transform="matrix(0.2399622 0 0 0.2399343 382.0196 303.6833)"><g transform="matrix(1 0 0 1 0 0)"><image x="0" y="0" xlink:href="img_11.png" width="1653" height="1053" /></g></g></g><g clip-path="url(#5)"><g transform="matrix(0.239751 0 0 0.23979 380.9884 56.40942)"><g transform="matrix(1 0 0 1 0 0)"><image x="0" y="0" xlink:href="img_12.png" width="708" height="675" /></g></g></g><path id="1451" transform="matrix(1 0 0 -1 0 612)" d="M792.2537 108.1264L799.4119 108.1264L799.4119 108.1264L799.4119 104.9525C 799.4119 104.3145 799.3477 103.8295 799.2191 103.4975C 799.0905 103.1654 798.8634 102.9001 798.5379 102.7016C 798.2124 102.503 797.8527 102.4037 797.4588 102.4037C 796.4432 102.4037 795.6993 103.0466 795.5106 104.4203C 795.3901 104.1697 795.2713 103.9792 795.1541 103.849C 794.9002 103.5723 794.5828 103.3103 794.202 103.0629L794.202 103.0629L792.2537 101.8178L792.2537 101.8178L792.2537 103.0092L792.2537 103.0092L793.743 103.9564C 794.1727 104.2331 794.5015 104.461 794.7293 104.64C 794.9572 104.8191 795.1167 104.9794 795.2078 105.121C 795.299 105.2626 795.3624 105.4066 795.3983 105.5531C 795.421 105.6605 795.4324 105.8363 795.4324 106.0805L795.4324 106.0805L795.4324 107.1791L795.4324 107.1791L792.2537 107.1791zM796.2527 107.1791L796.2527 105.143C 796.2527 104.71 796.2975 104.3715 796.387 104.1273C 796.4766 103.8832 796.6198 103.6977 796.8167 103.5707C 797.0137 103.4437 797.2277 103.3803 797.4588 103.3803C 798.1359 103.3803 798.6209 103.8523 798.6209 104.9135L798.6209 104.9135L798.6209 107.1791z" stroke="none" fill="#353332" fill-rule="evenodd" /><path id="1452" transform="matrix(1 0 0 -1 0 612)" d="M792.2537 97.63488L793.0154 97.63488C 792.4295 98.03853 792.1365 98.58703 792.1365 99.28039C 792.1365 99.58638 792.1951 99.87202 792.3123 100.1373C 792.4295 100.4026 792.5768 100.5996 792.7542 100.7281C 792.9316 100.8567 793.1489 100.9471 793.4061 100.9991C 793.5786 101.0349 793.8521 101.0528 794.2264 101.0528L794.2264 101.0528L797.4393 101.0528L797.4393 101.0528L797.4393 100.1739L797.4393 100.1739L794.5633 100.1739C 794.1043 100.1739 793.795 100.156 793.6356 100.1202C 793.1733 100.0096 792.8934 99.63195 792.8934 99.10461C 792.8934 98.84093 792.9609 98.59354 793.096 98.36242C 793.2311 98.1313 793.415 97.96773 793.6478 97.8717C 793.8805 97.77567 794.2183 97.72765 794.6609 97.72765L794.6609 97.72765L797.4393 97.72765L797.4393 97.72765L797.4393 96.84875L797.4393 96.84875L792.2537 96.84875z" stroke="none" fill="#353332" fill-rule="evenodd" /><path id="1453" transform="matrix(1 0 0 -1 0 612)" d="M794.8465 95.80047C 795.8068 95.80047 796.5181 95.53354 796.9803 94.99969C 797.3644 94.55373 797.5565 94.0101 797.5565 93.36883C 797.5565 91.94305 796.5669 90.94207 794.9197 90.94207C 794.2524 90.94207 793.7275 91.04217 793.345 91.24236C 792.9625 91.44256 792.6655 91.7339 792.4539 92.11639C 792.2423 92.49887 792.1365 92.91635 792.1365 93.36883C 792.1365 94.82065 793.0952 95.80047 794.8465 95.80047zM794.8465 94.89715C 793.5184 94.89715 792.8592 94.24773 792.8592 93.36883C 792.8592 92.49643 793.5151 91.84539 794.8758 91.84539C 796.1583 91.84539 796.8289 92.50294 796.8289 93.36883C 796.8289 94.24773 796.1746 94.89715 794.8465 94.89715z" stroke="none" fill="#353332" fill-rule="evenodd" /><path id="1454" transform="matrix(1 0 0 -1 0 612)" d="M794.1531 86.52953L794.0408 85.66527C 792.8494 85.85407 792.1365 86.69066 792.1365 87.82347C 792.1365 89.24274 793.0952 90.18187 794.827 90.18187C 795.3868 90.18187 795.8768 90.0891 796.2967 89.90355C 796.7166 89.718 797.0316 89.43562 797.2415 89.05638C 797.4515 88.67715 797.5565 88.26456 797.5565 87.81859C 797.5565 86.69229 796.964 85.9501 795.9158 85.74828L795.9158 85.74828L795.784 86.60277C 796.4806 86.76553 796.8338 87.19847 796.8338 87.78441C 796.8338 88.66983 796.2251 89.27855 794.8514 89.27855C 793.4581 89.27855 792.8592 88.69261 792.8592 87.83324C 792.8592 87.14314 793.2742 86.65323 794.1531 86.52953z" stroke="none" fill="#353332" fill-rule="evenodd" /><path id="1455" transform="matrix(1 0 0 -1 0 612)" d="M792.2537 84.91331L799.4119 84.91331L799.4119 84.91331L799.4119 84.03441L799.4119 84.03441L796.8436 84.03441C 797.3188 83.62425 797.5565 83.10667 797.5565 82.48167C 797.5565 82.09756 797.4808 81.7639 797.3294 81.4807C 797.178 81.19749 796.9689 80.99486 796.702 80.87279C 796.4351 80.75072 796.0477 80.68968 795.5399 80.68968L795.5399 80.68968L792.2537 80.68968L792.2537 80.68968L792.2537 81.56859L792.2537 81.56859L795.5399 81.56859C 796.4188 81.56859 796.7996 81.96573 796.7996 82.66234C 796.7996 82.92276 796.7321 83.16771 796.597 83.3972C 796.4619 83.62669 796.2788 83.79027 796.0477 83.88792C 795.8165 83.98558 795.4976 84.03441 795.0906 84.03441L795.0906 84.03441L792.2537 84.03441z" stroke="none" fill="#353332" fill-rule="evenodd" /><path id="1456" transform="matrix(1 0 0 -1 0 612)" d="M794.8465 79.68047C 795.8068 79.68047 796.5181 79.41354 796.9803 78.87968C 797.3644 78.43372 797.5565 77.89011 797.5565 77.24883C 797.5565 75.82304 796.5669 74.82207 794.9197 74.82207C 794.2524 74.82207 793.7275 74.92216 793.345 75.12236C 792.9625 75.32256 792.6655 75.61389 792.4539 75.99638C 792.2423 76.37888 792.1365 76.79636 792.1365 77.24883C 792.1365 78.70065 793.0952 79.68047 794.8465 79.68047zM794.8465 78.77715C 793.5184 78.77715 792.8592 78.12773 792.8592 77.24883C 792.8592 76.37643 793.5151 75.72539 794.8758 75.72539C 796.1583 75.72539 796.8289 76.38293 796.8289 77.24883C 796.8289 78.12773 796.1746 78.77715 794.8465 78.77715z" stroke="none" fill="#353332" fill-rule="evenodd" /><path id="1457" transform="matrix(1 0 0 -1 0 612)" d="M792.2537 73.79332L797.4393 73.79332L797.4393 73.79332L797.4393 73.0023L797.4393 73.0023L796.702 73.0023C 797.2716 72.62144 797.5565 72.07131 797.5565 71.35191C 797.5565 71.03941 797.5003 70.75214 797.388 70.4901C 797.2757 70.22805 797.1284 70.03192 796.9461 69.90172C 796.7638 69.77151 796.5474 69.68036 796.2967 69.62828C 796.1339 69.59573 795.8491 69.57945 795.4422 69.57945L795.4422 69.57945L792.2537 69.57945L792.2537 69.57945L792.2537 70.45836L792.2537 70.45836L795.408 70.45836C 795.7661 70.45836 796.0338 70.49254 796.2112 70.5609C 796.3887 70.62926 796.5303 70.75051 796.636 70.92467C 796.7418 71.09882 796.7947 71.30309 796.7947 71.53746C 796.7947 72.28616 796.4139 72.91441 795.0858 72.91441L795.0858 72.91441L792.2537 72.91441z" stroke="none" fill="#353332" fill-rule="evenodd" /><path id="1458" transform="matrix(1 0 0 -1 0 612)" d="M791.824 68.39445L791.6971 67.53996C 791.4334 67.50415 791.2413 67.40487 791.1209 67.24211C 790.9581 67.02401 790.8768 66.72616 790.8768 66.34856C 790.8768 65.53475 791.2186 65.1132 791.8045 64.95695C 791.9835 64.91138 792.3595 64.89022 792.9324 64.89348C 792.48 65.27759 792.2537 65.7561 792.2537 66.32903C 792.2537 67.75481 793.437 68.57024 794.8758 68.57024C 795.3706 68.57024 795.8271 68.48071 796.2454 68.30168C 796.6637 68.12264 796.9868 67.86304 797.2147 67.52287C 797.4425 67.1827 797.5565 66.78313 797.5565 66.32414C 797.5565 65.71216 797.3091 65.2076 796.8143 64.81047L796.8143 64.81047L797.4393 64.81047L797.4393 64.81047L797.4393 63.99992L797.4393 63.99992L792.9568 63.99992C 792.1495 63.99992 791.5775 64.08212 791.2405 64.24651C 790.9036 64.41089 790.6375 64.67131 790.4422 65.02776C 790.2469 65.3842 790.1492 65.82284 790.1492 66.34367C 790.1492 67.58065 790.7042 68.42049 791.824 68.39445zM794.9393 67.66692C 793.5786 67.66692 792.9813 67.05981 792.9813 66.24602C 792.9813 65.43872 793.5818 64.82024 794.91 64.82024C 796.1795 64.82024 796.8289 65.46639 796.8289 66.26067C 796.8289 67.04192 796.1893 67.66692 794.9393 67.66692z" stroke="none" fill="#353332" fill-rule="evenodd" /></g></g></svg>