<svg xmlns="http://www.w3.org/2000/svg" xmlns:xlink="http://www.w3.org/1999/xlink" id="body_5" preserveAspectRatio="xMinYMin meet" viewBox="0 0 1144 816"><defs><clipPath id="1"><path id="" clip-rule="evenodd" transform="matrix(1 0 0 1 0 0)" d="M0 612L0 -0.28302L0 -0.28302L858.898 -0.28302L858.898 -0.28302L858.898 612L858.898 612L0 612z" /></clipPath><clipPath id="2"><path id="" clip-rule="evenodd" transform="matrix(1 0 0 1 0 0)" d="M0 -0.28302L858.898 -0.28302L858.898 -0.28302L858.898 612L858.898 612L0 612z" /></clipPath><clipPath id="3"><path id="" clip-rule="evenodd" transform="matrix(1 0 0 1 0 0)" d="M330.763 417.378L571.266 417.378L571.266 417.378L571.266 96.099L571.266 96.099L330.763 96.099z" /></clipPath><clipPath id="4"><path id="" clip-rule="evenodd" transform="matrix(1 0 0 1 0 0)" d="M78.683 281.315L319.187 281.315L319.187 281.315L319.187 415.266L319.187 415.266L78.683 415.266z" /></clipPath><clipPath id="5"><path id="" clip-rule="evenodd" transform="matrix(1 0 0 1 0 0)" d="M78.683 530.487L318.187 530.487L318.187 530.487L318.187 415.266L318.187 415.266L78.683 415.266z" /></clipPath><clipPath id="6"><path id="" clip-rule="evenodd" transform="matrix(1 0 0 1 0 0)" d="M78.758 95.92902L198.435 95.92902L198.435 95.92902L198.435 281.315L198.435 281.315L78.758 281.315z" /></clipPath><clipPath id="7"><path id="" clip-rule="evenodd" transform="matrix(1 0 0 1 0 0)" d="M330.763 530.41L571.266 530.41L571.266 530.41L571.266 416.879L571.266 416.879L330.763 416.879z" /></clipPath><clipPath id="8"><path id="" clip-rule="evenodd" transform="matrix(1 0 0 1 0 0)" d="M583.267 251.551L803.928 251.551L803.928 251.551L803.928 95.92902L803.928 95.92902L583.267 95.92902z" /></clipPath><clipPath id="9"><path id="" clip-rule="evenodd" transform="matrix(1 0 0 1 0 0)" d="M583.267 416.527L803.928 416.527L803.928 416.527L803.928 251.551L803.928 251.551L583.267 251.551z" /></clipPath><clipPath id="10"><path id="" clip-rule="evenodd" transform="matrix(1 0 0 1 0 0)" d="M583.267 530.41L803.928 530.41L803.928 530.41L803.928 416.528L803.928 416.528L583.267 416.528z" /></clipPath><clipPath id="11"><path id="" clip-rule="evenodd" transform="matrix(1 0 0 1 0 0)" d="M198.436 281.315L318.113 281.315L318.113 281.315L318.113 95.92902L318.113 95.92902L198.436 95.92902z" /></clipPath></defs><g transform="matrix(1.333333 0 0 1.333333 0 0)"><g clip-path="url(#1)"><g clip-path="url(#2)"><path id="1" transform="matrix(1 0 0 -1 0 612)" d="M65.2581 139.6838L58.0999 139.6838L58.0999 139.6838L58.0999 142.8577C 58.0999 143.4957 58.16419 143.9807 58.29277 144.3127C 58.42135 144.6448 58.6484 144.9101 58.97392 145.1086C 59.29944 145.3072 59.65915 145.4065 60.05302 145.4065C 61.06865 145.4065 61.81247 144.7636 62.00127 143.3899C 62.12171 143.6405 62.24052 143.831 62.35771 143.9612C 62.61162 144.2379 62.929 144.4999 63.30986 144.7473L63.30986 144.7473L65.2581 145.9924L65.2581 145.9924L65.2581 144.801L65.2581 144.801L63.76884 143.8538C 63.33916 143.5771 63.01038 143.3492 62.78252 143.1702C 62.55465 142.9911 62.39515 142.8308 62.304 142.6892C 62.21286 142.5476 62.14938 142.4036 62.11357 142.2571C 62.09079 142.1497 62.07939 141.9739 62.07939 141.7297L62.07939 141.7297L62.07939 140.6311L62.07939 140.6311L65.2581 140.6311zM61.25908 140.6311L61.25908 142.6672C 61.25908 143.1002 61.21432 143.4387 61.1248 143.6829C 61.03528 143.927 60.89206 144.1125 60.69511 144.2395C 60.49817 144.3665 60.28415 144.4299 60.05302 144.4299C 59.37594 144.4299 58.89091 143.9579 58.89091 142.8967L58.89091 142.8967L58.89091 140.6311z" stroke="none" fill="#353332" fill-rule="evenodd" /><path id="2" transform="matrix(1 0 0 -1 0 612)" d="M65.2581 150.1753L64.49638 150.1753C 65.08232 149.7717 65.37529 149.2232 65.37529 148.5298C 65.37529 148.2238 65.3167 147.9382 65.19951 147.6729C 65.08232 147.4076 64.93502 147.2106 64.75761 147.0821C 64.58021 146.9535 64.36292 146.8631 64.10576 146.8111C 63.93323 146.7753 63.65979 146.7574 63.28545 146.7574L63.28545 146.7574L60.07256 146.7574L60.07256 146.7574L60.07256 147.6363L60.07256 147.6363L62.94853 147.6363C 63.40752 147.6363 63.71676 147.6542 63.87627 147.69C 64.33851 147.8006 64.61845 148.1783 64.61845 148.7056C 64.61845 148.9693 64.55091 149.2167 64.41582 149.4478C 64.28072 149.6789 64.09681 149.8425 63.86406 149.9385C 63.63131 150.0345 63.29358 150.0826 62.85088 150.0826L62.85088 150.0826L60.07256 150.0826L60.07256 150.0826L60.07256 150.9615L60.07256 150.9615L65.2581 150.9615z" stroke="none" fill="#353332" fill-rule="evenodd" /><path id="3" transform="matrix(1 0 0 -1 0 612)" d="M62.66533 152.0097C 61.70504 152.0097 60.99378 152.2767 60.53154 152.8105C 60.14743 153.2565 59.95537 153.8001 59.95537 154.4414C 59.95537 155.8672 60.94495 156.8681 62.59209 156.8681C 63.2594 156.8681 63.78431 156.768 64.16679 156.5678C 64.54928 156.3676 64.84632 156.0763 65.05791 155.6938C 65.26949 155.3113 65.37529 154.8938 65.37529 154.4414C 65.37529 152.9895 64.41663 152.0097 62.66533 152.0097zM62.66533 152.9131C 63.99345 152.9131 64.65263 153.5625 64.65263 154.4414C 64.65263 155.3138 63.99671 155.9648 62.63603 155.9648C 61.35348 155.9648 60.68291 155.3073 60.68291 154.4414C 60.68291 153.5625 61.3372 152.9131 62.66533 152.9131z" stroke="none" fill="#353332" fill-rule="evenodd" /><path id="4" transform="matrix(1 0 0 -1 0 612)" d="M63.35869 161.2807L63.47099 162.1449C 64.6624 161.9561 65.37529 161.1195 65.37529 159.9867C 65.37529 158.5675 64.41663 157.6283 62.68486 157.6283C 62.12497 157.6283 61.63506 157.7211 61.21513 157.9066C 60.79521 158.0922 60.48027 158.3746 60.27031 158.7538C 60.06035 159.1331 59.95537 159.5457 59.95537 159.9916C 59.95537 161.1179 60.54782 161.8601 61.59599 162.0619L61.59599 162.0619L61.72783 161.2074C 61.03122 161.0447 60.67802 160.6117 60.67802 160.0258C 60.67802 159.1404 61.28675 158.5316 62.66045 158.5316C 64.05367 158.5316 64.65263 159.1176 64.65263 159.977C 64.65263 160.6671 64.23759 161.157 63.35869 161.2807z" stroke="none" fill="#353332" fill-rule="evenodd" /><path id="5" transform="matrix(1 0 0 -1 0 612)" d="M65.2581 162.8969L58.0999 162.8969L58.0999 162.8969L58.0999 163.7758L58.0999 163.7758L60.66826 163.7758C 60.193 164.1859 59.95537 164.7035 59.95537 165.3285C 59.95537 165.7126 60.03105 166.0463 60.18242 166.3295C 60.33379 166.6127 60.54293 166.8153 60.80986 166.9374C 61.07679 167.0595 61.46416 167.1205 61.97197 167.1205L61.97197 167.1205L65.2581 167.1205L65.2581 167.1205L65.2581 166.2416L65.2581 166.2416L61.97197 166.2416C 61.09306 166.2416 60.7122 165.8445 60.7122 165.1479C 60.7122 164.8875 60.77975 164.6425 60.91484 164.413C 61.04993 164.1835 61.23304 164.0199 61.46416 163.9223C 61.69528 163.8246 62.01429 163.7758 62.42119 163.7758L62.42119 163.7758L65.2581 163.7758z" stroke="none" fill="#353332" fill-rule="evenodd" /><path id="6" transform="matrix(1 0 0 -1 0 612)" d="M62.66533 168.1297C 61.70504 168.1297 60.99378 168.3967 60.53154 168.9305C 60.14743 169.3765 59.95537 169.9201 59.95537 170.5614C 59.95537 171.9872 60.94495 172.9881 62.59209 172.9881C 63.2594 172.9881 63.78431 172.888 64.16679 172.6878C 64.54928 172.4876 64.84632 172.1963 65.05791 171.8138C 65.26949 171.4313 65.37529 171.0139 65.37529 170.5614C 65.37529 169.1096 64.41663 168.1297 62.66533 168.1297zM62.66533 169.0331C 63.99345 169.0331 64.65263 169.6825 64.65263 170.5614C 64.65263 171.4338 63.99671 172.0848 62.63603 172.0848C 61.35348 172.0848 60.68291 171.4273 60.68291 170.5614C 60.68291 169.6825 61.3372 169.0331 62.66533 169.0331z" stroke="none" fill="#353332" fill-rule="evenodd" /><path id="7" transform="matrix(1 0 0 -1 0 612)" d="M65.2581 174.0169L60.07256 174.0169L60.07256 174.0169L60.07256 174.8079L60.07256 174.8079L60.80986 174.8079C 60.2402 175.1888 59.95537 175.7389 59.95537 176.4583C 59.95537 176.7708 60.01152 177.0581 60.12383 177.3201C 60.23613 177.5822 60.38343 177.7783 60.56572 177.9085C 60.74801 178.0387 60.96448 178.1298 61.21513 178.1819C 61.3779 178.2145 61.66272 178.2307 62.06963 178.2307L62.06963 178.2307L65.2581 178.2307L65.2581 178.2307L65.2581 177.3518L65.2581 177.3518L62.10381 177.3518C 61.74573 177.3518 61.47799 177.3177 61.30058 177.2493C 61.12317 177.1809 60.98157 177.0597 60.87578 176.8855C 60.76999 176.7114 60.71709 176.5071 60.71709 176.2727C 60.71709 175.524 61.09795 174.8958 62.42607 174.8958L62.42607 174.8958L65.2581 174.8958z" stroke="none" fill="#353332" fill-rule="evenodd" /><path id="8" transform="matrix(1 0 0 -1 0 612)" d="M65.68779 179.4157L65.81474 180.2702C 66.07841 180.306 66.27047 180.4053 66.39091 180.5681C 66.55367 180.7862 66.63506 181.084 66.63506 181.4616C 66.63506 182.2755 66.29326 182.697 65.70732 182.8532C 65.52828 182.8988 65.15231 182.92 64.57939 182.9167C 65.03187 182.5326 65.2581 182.0541 65.2581 181.4812C 65.2581 180.0554 64.07484 179.24 62.63603 179.24C 62.14124 179.24 61.6847 179.3295 61.2664 179.5085C 60.84811 179.6876 60.52503 179.9472 60.29716 180.2873C 60.0693 180.6275 59.95537 181.0271 59.95537 181.4861C 59.95537 182.098 60.20276 182.6026 60.69756 182.9997L60.69756 182.9997L60.07256 182.9997L60.07256 182.9997L60.07256 183.8103L60.07256 183.8103L64.55498 183.8103C 65.36227 183.8103 65.93437 183.7281 66.27129 183.5637C 66.6082 183.3993 66.87431 183.1389 67.06963 182.7824C 67.26494 182.426 67.36259 181.9874 67.36259 181.4665C 67.36259 180.2296 66.80758 179.3897 65.68779 179.4157zM62.57256 180.1433C 63.93323 180.1433 64.53056 180.7504 64.53056 181.5642C 64.53056 182.3715 63.92998 182.99 62.60185 182.99C 61.33232 182.99 60.68291 182.3438 60.68291 181.5495C 60.68291 180.7683 61.32256 180.1433 62.57256 180.1433z" stroke="none" fill="#353332" fill-rule="evenodd" /></g><path id="9" transform="matrix(1 0 0 -1 0 612)" d="M66.3827 405.0012L57.54383 405.0012L57.54383 405.0012L57.54383 401.6994L57.54383 401.6994L56.36121 401.6994L56.36121 401.6994L56.36121 409.6428L56.36121 409.6428L57.54383 409.6428L57.54383 409.6428L57.54383 406.3274L57.54383 406.3274L66.3827 406.3274z" stroke="none" fill="#353332" fill-rule="evenodd" /><path id="10" transform="matrix(1 0 0 -1 0 612)" d="M66.3827 410.8481L56.36121 410.8481L56.36121 410.8481L56.36121 412.0786L56.36121 412.0786L59.95692 412.0786C 59.29155 412.6528 58.95887 413.3774 58.95887 414.2524C 58.95887 414.7902 59.06483 415.2573 59.27674 415.6538C 59.48866 416.0503 59.78146 416.334 60.15516 416.5049C 60.52886 416.6758 61.07117 416.7612 61.78211 416.7612L61.78211 416.7612L66.3827 416.7612L66.3827 416.7612L66.3827 415.5308L66.3827 415.5308L61.78211 415.5308C 60.55164 415.5308 60.01844 414.9748 60.01844 413.9995C 60.01844 413.6349 60.113 413.292 60.30213 412.9707C 60.49126 412.6494 60.74761 412.4204 61.07117 412.2837C 61.39474 412.147 61.84136 412.0786 62.41102 412.0786L62.41102 412.0786L66.3827 412.0786z" stroke="none" fill="#353332" fill-rule="evenodd" /><path id="11" transform="matrix(1 0 0 -1 0 612)" d="M64.04481 423.6019L64.20203 424.8734C 65.68771 424.4723 66.54676 423.3672 66.54676 421.681C 66.54676 419.5573 65.17502 418.222 62.81434 418.222C 60.37163 418.222 58.95887 419.6074 58.95887 421.6126C 58.95887 423.554 60.34201 424.9144 62.73914 424.9144C 62.81206 424.9144 62.92144 424.9121 63.06727 424.9076L63.06727 424.9076L63.06727 419.4935C 64.66232 419.5846 65.53504 420.4756 65.53504 421.6878C 65.53504 422.5902 65.08387 423.2282 64.04481 423.6019zM62.05555 419.5619L62.05555 423.6156C 61.44487 423.5609 60.98687 423.4059 60.68153 423.1507C 60.20757 422.7588 59.97059 422.2506 59.97059 421.6263C 59.97059 420.4961 60.78862 419.6439 62.05555 419.5619z" stroke="none" fill="#353332" fill-rule="evenodd" /><path id="13" transform="matrix(1 0 0 -1 0 612)" d="M66.3827 430.6021L60.07996 430.6021L60.07996 430.6021L60.07996 429.5152L60.07996 429.5152L59.12293 429.5152L59.12293 429.5152L59.12293 430.6021L59.12293 430.6021L58.35047 430.6021C 57.86284 430.6021 57.50053 430.6454 57.26356 430.732C 56.62553 430.969 56.19032 431.5363 56.19032 432.6119C 56.19032 432.9582 56.23133 433.341 56.31336 433.7603L56.31336 433.7603L57.3866 433.5757C 57.34103 433.3205 57.31824 433.079 57.31824 432.8511C 57.31824 432.1037 57.57801 431.8257 58.45301 431.8257L58.45301 431.8257L59.12293 431.8257L59.12293 431.8257L59.12293 433.2408L59.12293 433.2408L60.07996 433.2408L60.07996 433.2408L60.07996 431.8257L60.07996 431.8257L66.3827 431.8257z" stroke="none" fill="#353332" fill-rule="evenodd" /><path id="14" transform="matrix(1 0 0 -1 0 612)" d="M65.48719 438.9375C 66.26193 438.026 66.54676 437.2308 66.54676 436.2646C 66.54676 434.6696 65.68088 433.7832 64.46864 433.7832C 64.11317 433.7832 63.78846 433.8641 63.49451 434.0258C 63.20057 434.1876 62.96473 434.3995 62.78699 434.6616C 62.60926 434.9236 62.47482 435.2187 62.38367 435.5468C 62.31987 435.7884 62.25835 436.153 62.1991 436.6406C 62.08062 437.6341 61.93934 438.3655 61.77528 438.8349C 61.60666 438.8395 61.49956 438.8418 61.45399 438.8418C 60.95269 438.8418 60.59949 438.7256 60.39442 438.4931C 60.11642 438.1787 59.97742 437.7115 59.97742 437.0918C 59.97742 435.9342 60.32833 435.4625 61.35828 435.1982L61.35828 435.1982L61.19422 433.9951C 60.67925 434.1045 60.26339 434.2845 59.94666 434.5351C 59.62993 434.7858 59.38612 435.1481 59.21522 435.622C 59.04432 436.096 58.95887 436.6451 58.95887 437.2695C 58.95887 437.8893 59.03179 438.3929 59.17762 438.7802C 59.32345 439.1676 59.50689 439.4525 59.72791 439.6347C 59.94894 439.817 60.22808 439.9446 60.56532 440.0175C 60.77495 440.0586 61.15321 440.0791 61.70008 440.0791L61.70008 440.0791L63.34071 440.0791C 65.62846 440.0791 65.82671 440.1588 66.3827 440.4687L66.3827 440.4687L66.3827 439.1836C 66.12749 439.056 65.82899 438.9739 65.48719 438.9375zM62.73914 438.8349C 62.92144 438.3883 63.07638 437.7184 63.20399 436.8252C 63.27691 436.3193 63.35894 435.9615 63.45008 435.7519C 63.54123 435.5423 63.67453 435.3805 63.84998 435.2666C 64.02544 435.1526 64.22026 435.0957 64.43446 435.0957C 65.09071 435.0957 65.58289 435.6015 65.58289 436.5586C 65.58289 437.5065 65.14084 438.2903 64.42078 438.6367C 64.14279 438.7689 63.73263 438.8349 63.19032 438.8349z" stroke="none" fill="#353332" fill-rule="evenodd" /><path id="15" transform="matrix(1 0 0 -1 0 612)" d="M57.77625 441.991L56.36121 441.991L56.36121 441.991L56.36121 443.2215L56.36121 443.2215L57.77625 443.2215zM66.3827 441.991L59.12293 441.991L59.12293 441.991L59.12293 443.2215L59.12293 443.2215L66.3827 443.2215z" stroke="none" fill="#353332" fill-rule="evenodd" /><path id="16" transform="matrix(1 0 0 -1 0 612)" d="M66.3827 445.0785L59.12293 445.0785L59.12293 445.0785L59.12293 446.1859L59.12293 446.1859L60.22352 446.1859C 59.19357 446.751 58.95887 447.184 58.95887 447.7582C 58.95887 448.1729 59.09103 448.5944 59.35535 449.0228L59.35535 449.0228L60.49696 448.599C 60.31922 448.2982 60.23035 447.9974 60.23035 447.6967C 60.23035 447.1589 60.57215 446.6963 61.14637 446.514C 61.58387 446.3773 62.06239 446.309 62.58192 446.309L62.58192 446.309L66.3827 446.309z" stroke="none" fill="#353332" fill-rule="evenodd" /><path id="17" transform="matrix(1 0 0 -1 0 612)" d="M69.1786 449.6995L68.02332 449.5627C 68.09624 449.8316 68.1327 450.0663 68.1327 450.2668C 68.1327 450.8137 67.94129 451.1168 67.61317 451.3264C 67.49012 451.4039 67.18478 451.5292 66.69715 451.7024C 66.62879 451.7252 66.52853 451.7617 66.39637 451.8118L66.39637 451.8118L59.12293 449.0569L59.12293 449.0569L59.12293 450.3831L59.12293 450.3831L63.32703 451.8938C 63.86024 452.0898 64.42078 452.2652 65.00867 452.4202C 64.44357 452.5615 63.89214 452.7301 63.35438 452.926L63.35438 452.926L59.12293 454.4778L59.12293 454.4778L59.12293 455.7083L59.12293 455.7083L66.50574 452.9465C 67.30327 452.6503 67.85242 452.4202 68.15321 452.2561C 68.9644 451.8186 69.32899 451.2763 69.32899 450.4924C 69.32899 450.2555 69.27885 449.9911 69.1786 449.6995z" stroke="none" fill="#353332" fill-rule="evenodd" /><path id="19" transform="matrix(1 0 0 -1 0 612)" d="M62.75282 460.1882C 61.40841 460.1882 60.41265 460.5619 59.76551 461.3093C 59.22775 461.9336 58.95887 462.6947 58.95887 463.5925C 58.95887 465.5886 60.34429 466.9899 62.65028 466.9899C 63.58452 466.9899 64.31938 466.8498 64.85487 466.5695C 65.39035 466.2892 65.8062 465.8813 66.10242 465.3459C 66.39865 464.8104 66.54676 464.2259 66.54676 463.5925C 66.54676 461.5599 65.20464 460.1882 62.75282 460.1882zM62.75282 461.4528C 64.61219 461.4528 65.53504 462.362 65.53504 463.5925C 65.53504 464.8138 64.61674 465.7253 62.7118 465.7253C 60.91623 465.7253 59.97742 464.8047 59.97742 463.5925C 59.97742 462.362 60.89344 461.4528 62.75282 461.4528z" stroke="none" fill="#353332" fill-rule="evenodd" /><path id="20" transform="matrix(1 0 0 -1 0 612)" d="M66.3827 468.7241L60.07996 468.7241L60.07996 468.7241L60.07996 467.6372L60.07996 467.6372L59.12293 467.6372L59.12293 467.6372L59.12293 468.7241L59.12293 468.7241L58.35047 468.7241C 57.86284 468.7241 57.50053 468.7674 57.26356 468.854C 56.62553 469.091 56.19032 469.6584 56.19032 470.7339C 56.19032 471.0802 56.23133 471.463 56.31336 471.8823L56.31336 471.8823L57.3866 471.6978C 57.34103 471.4425 57.31824 471.201 57.31824 470.9731C 57.31824 470.2257 57.57801 469.9478 58.45301 469.9478L58.45301 469.9478L59.12293 469.9478L59.12293 469.9478L59.12293 471.3628L59.12293 471.3628L60.07996 471.3628L60.07996 471.3628L60.07996 469.9478L60.07996 469.9478L66.3827 469.9478z" stroke="none" fill="#353332" fill-rule="evenodd" /><path id="22" transform="matrix(1 0 0 -1 0 612)" d="M66.3827 478.2308L59.12293 475.4691L59.12293 475.4691L59.12293 476.7679L59.12293 476.7679L63.47059 478.3265C 63.93999 478.4951 64.42762 478.65 64.93348 478.7913C 64.55067 478.9007 64.09038 479.0533 63.55262 479.2493L63.55262 479.2493L59.12293 480.8626L59.12293 480.8626L59.12293 482.1273L59.12293 482.1273L66.3827 479.3792z" stroke="none" fill="#353332" fill-rule="evenodd" /><path id="23" transform="matrix(1 0 0 -1 0 612)" d="M65.48719 487.9515C 66.26193 487.04 66.54676 486.2448 66.54676 485.2786C 66.54676 483.6836 65.68088 482.7972 64.46864 482.7972C 64.11317 482.7972 63.78846 482.8781 63.49451 483.0399C 63.20057 483.2016 62.96473 483.4135 62.78699 483.6756C 62.60926 483.9376 62.47482 484.2327 62.38367 484.5609C 62.31987 484.8024 62.25835 485.167 62.1991 485.6546C 62.08062 486.6481 61.93934 487.3795 61.77528 487.8489C 61.60666 487.8535 61.49956 487.8558 61.45399 487.8558C 60.95269 487.8558 60.59949 487.7396 60.39442 487.5071C 60.11642 487.1927 59.97742 486.7256 59.97742 486.1058C 59.97742 484.9482 60.32833 484.4765 61.35828 484.2122L61.35828 484.2122L61.19422 483.0091C 60.67925 483.1185 60.26339 483.2985 59.94666 483.5491C 59.62993 483.7998 59.38612 484.1621 59.21522 484.636C 59.04432 485.11 58.95887 485.6591 58.95887 486.2835C 58.95887 486.9033 59.03179 487.4069 59.17762 487.7943C 59.32345 488.1816 59.50689 488.4664 59.72791 488.6487C 59.94894 488.831 60.22808 488.9586 60.56532 489.0316C 60.77495 489.0726 61.15321 489.0931 61.70008 489.0931L61.70008 489.0931L63.34071 489.0931C 65.62846 489.0931 65.82671 489.1728 66.3827 489.4827L66.3827 489.4827L66.3827 488.1976C 66.12749 488.0699 65.82899 487.9879 65.48719 487.9515zM62.73914 487.8489C 62.92144 487.4023 63.07638 486.7324 63.20399 485.8392C 63.27691 485.3333 63.35894 484.9756 63.45008 484.7659C 63.54123 484.5563 63.67453 484.3945 63.84998 484.2806C 64.02544 484.1666 64.22026 484.1097 64.43446 484.1097C 65.09071 484.1097 65.58289 484.6155 65.58289 485.5726C 65.58289 486.5205 65.14084 487.3043 64.42078 487.6507C 64.14279 487.7828 63.73263 487.8489 63.19032 487.8489z" stroke="none" fill="#353332" fill-rule="evenodd" /><path id="24" transform="matrix(1 0 0 -1 0 612)" d="M66.3827 490.9708L56.36121 490.9708L56.36121 490.9708L56.36121 492.2013L56.36121 492.2013L66.3827 492.2013z" stroke="none" fill="#353332" fill-rule="evenodd" /><path id="25" transform="matrix(1 0 0 -1 0 612)" d="M66.3827 494.0788L56.36121 494.0788L56.36121 494.0788L56.36121 495.3093L56.36121 495.3093L66.3827 495.3093z" stroke="none" fill="#353332" fill-rule="evenodd" /><path id="26" transform="matrix(1 0 0 -1 0 612)" d="M64.04481 502.1839L64.20203 503.4554C 65.68771 503.0543 66.54676 501.9492 66.54676 500.263C 66.54676 498.1393 65.17502 496.804 62.81434 496.804C 60.37163 496.804 58.95887 498.1894 58.95887 500.1946C 58.95887 502.136 60.34201 503.4964 62.73914 503.4964C 62.81206 503.4964 62.92144 503.4941 63.06727 503.4896L63.06727 503.4896L63.06727 498.0755C 64.66232 498.1666 65.53504 499.0576 65.53504 500.2698C 65.53504 501.1722 65.08387 501.8102 64.04481 502.1839zM62.05555 498.1439L62.05555 502.1976C 61.44487 502.1429 60.98687 501.9879 60.68153 501.7327C 60.20757 501.3408 59.97059 500.8326 59.97059 500.2083C 59.97059 499.0781 60.78862 498.2259 62.05555 498.1439z" stroke="none" fill="#353332" fill-rule="evenodd" /><path id="27" transform="matrix(1 0 0 -1 0 612)" d="M69.1786 504.9435L68.02332 504.8068C 68.09624 505.0756 68.1327 505.3103 68.1327 505.5109C 68.1327 506.0577 67.94129 506.3608 67.61317 506.5704C 67.49012 506.6479 67.18478 506.7732 66.69715 506.9464C 66.62879 506.9692 66.52853 507.0056 66.39637 507.0558L66.39637 507.0558L59.12293 504.3009L59.12293 504.3009L59.12293 505.6271L59.12293 505.6271L63.32703 507.1378C 63.86024 507.3338 64.42078 507.5092 65.00867 507.6642C 64.44357 507.8055 63.89214 507.9741 63.35438 508.17L63.35438 508.17L59.12293 509.7218L59.12293 509.7218L59.12293 510.9523L59.12293 510.9523L66.50574 508.1906C 67.30327 507.8943 67.85242 507.6642 68.15321 507.5001C 68.9644 507.0626 69.32899 506.5203 69.32899 505.7365C 69.32899 505.4995 69.27885 505.2351 69.1786 504.9435z" stroke="none" fill="#353332" fill-rule="evenodd" /><g clip-path="url(#3)"><g transform="matrix(0.2398687 0 0 0.239971 330.7622 96.09839)"><g transform="matrix(1 0 0 1 0 0)"><image x="0" y="0" xlink:href="img_14.png" width="1007" height="1343" /></g></g></g><g clip-path="url(#4)"><g transform="matrix(0.2398831 0 0 0.2398427 78.68346 280.287)"><g transform="matrix(1 0 0 1 0 0)"><image x="0" y="0" xlink:href="img_15.png" width="1007" height="567" /></g></g></g><g clip-path="url(#5)"><g transform="matrix(0.2399839 0 0 0.2397896 78.68346 414.2482)"><g transform="matrix(1 0 0 1 0 0)"><image x="0" y="0" xlink:href="img_16.png" width="998" height="489" /></g></g></g><g clip-path="url(#6)"><g transform="matrix(0.2399704 0 0 0.2398264 78.75827 95.9292)"><g transform="matrix(1 0 0 1 0 0)"><image x="0" y="0" xlink:href="img_17.png" width="503" height="773" /></g></g></g><g clip-path="url(#7)"><g transform="matrix(0.2397846 0 0 0.2398387 330.7622 415.8427)"><g transform="matrix(1 0 0 1 0 0)"><image x="0" y="0" xlink:href="img_18.png" width="1003" height="482" /></g></g></g><g clip-path="url(#8)"><g transform="matrix(0.2398493 0 0 0.2396855 583.2662 94.88385)"><g transform="matrix(1 0 0 1 0 0)"><image x="0" y="0" xlink:href="img_19.png" width="920" height="658" /></g></g></g><g clip-path="url(#9)"><g transform="matrix(0.2398494 0 0 0.2398494 583.2662 251.5513)"><g transform="matrix(1 0 0 1 0 0)"><image x="0" y="0" xlink:href="img_20.png" width="920" height="690" /></g></g></g><g clip-path="url(#10)"><g transform="matrix(0.2398494 0 0 0.2399854 583.2662 415.4971)"><g transform="matrix(1 0 0 1 0 0)"><image x="0" y="0" xlink:href="img_21.png" width="920" height="483" /></g></g></g><g clip-path="url(#11)"><g transform="matrix(0.2399957 0 0 0.2398264 197.4351 95.9292)"><g transform="matrix(1 0 0 1 0 0)"><image x="0" y="0" xlink:href="img_22.png" width="507" height="773" /></g></g></g></g></g></svg>