<svg xmlns="http://www.w3.org/2000/svg" xmlns:xlink="http://www.w3.org/1999/xlink" id="body_1" preserveAspectRatio="xMinYMin meet" viewBox="0 0 1144 816"><defs><clipPath id="1"><path id="" clip-rule="evenodd" transform="matrix(1 0 0 1 0 0)" d="M0 612L0 -0.28302L0 -0.28302L858.898 -0.28302L858.898 -0.28302L858.898 612L858.898 612L0 612z" /></clipPath><clipPath id="2"><path id="" clip-rule="evenodd" transform="matrix(1 0 0 1 0 0)" d="M0 -0.28302L858.898 -0.28302L858.898 -0.28302L858.898 612L858.898 612L0 612z" /></clipPath><clipPath id="3"><path id="" clip-rule="evenodd" transform="matrix(1 0 0 1 0 0)" d="M0 612L858.897 612L858.897 612L858.897 -0.2839966L858.897 -0.2839966L0 -0.2839966z" /></clipPath></defs><g transform="matrix(1.333333 0 0 1.333333 0 0)"><g clip-path="url(#1)"><g clip-path="url(#2)"><path id="1" transform="matrix(1 0 0 -1 0 612)" d="M65.2581 139.6838L58.0999 139.6838L58.0999 139.6838L58.0999 142.8577C 58.0999 143.4957 58.16419 143.9807 58.29277 144.3127C 58.42135 144.6448 58.6484 144.9101 58.97392 145.1086C 59.29944 145.3072 59.65915 145.4065 60.05302 145.4065C 61.06865 145.4065 61.81247 144.7636 62.00127 143.3899C 62.12171 143.6405 62.24052 143.831 62.35771 143.9612C 62.61162 144.2379 62.929 144.4999 63.30986 144.7473L63.30986 144.7473L65.2581 145.9924L65.2581 145.9924L65.2581 144.801L65.2581 144.801L63.76884 143.8538C 63.33916 143.5771 63.01038 143.3492 62.78252 143.1702C 62.55465 142.9911 62.39515 142.8308 62.304 142.6892C 62.21286 142.5476 62.14938 142.4036 62.11357 142.2571C 62.09079 142.1497 62.07939 141.9739 62.07939 141.7297L62.07939 141.7297L62.07939 140.6311L62.07939 140.6311L65.2581 140.6311zM61.25908 140.6311L61.25908 142.6672C 61.25908 143.1002 61.21432 143.4387 61.1248 143.6829C 61.03528 143.927 60.89206 144.1125 60.69511 144.2395C 60.49817 144.3665 60.28415 144.4299 60.05302 144.4299C 59.37594 144.4299 58.89091 143.9579 58.89091 142.8967L58.89091 142.8967L58.89091 140.6311z" stroke="none" fill="#353332" fill-rule="evenodd" /><path id="2" transform="matrix(1 0 0 -1 0 612)" d="M65.2581 150.1753L64.49638 150.1753C 65.08232 149.7717 65.37529 149.2232 65.37529 148.5298C 65.37529 148.2238 65.3167 147.9382 65.19951 147.6729C 65.08232 147.4076 64.93502 147.2106 64.75761 147.0821C 64.58021 146.9535 64.36292 146.8631 64.10576 146.8111C 63.93323 146.7753 63.65979 146.7574 63.28545 146.7574L63.28545 146.7574L60.07256 146.7574L60.07256 146.7574L60.07256 147.6363L60.07256 147.6363L62.94853 147.6363C 63.40752 147.6363 63.71676 147.6542 63.87627 147.69C 64.33851 147.8006 64.61845 148.1783 64.61845 148.7056C 64.61845 148.9693 64.55091 149.2167 64.41582 149.4478C 64.28072 149.6789 64.09681 149.8425 63.86406 149.9385C 63.63131 150.0345 63.29358 150.0826 62.85088 150.0826L62.85088 150.0826L60.07256 150.0826L60.07256 150.0826L60.07256 150.9615L60.07256 150.9615L65.2581 150.9615z" stroke="none" fill="#353332" fill-rule="evenodd" /><path id="3" transform="matrix(1 0 0 -1 0 612)" d="M62.66533 152.0097C 61.70504 152.0097 60.99378 152.2767 60.53154 152.8105C 60.14743 153.2565 59.95537 153.8001 59.95537 154.4414C 59.95537 155.8672 60.94495 156.8681 62.59209 156.8681C 63.2594 156.8681 63.78431 156.768 64.16679 156.5678C 64.54928 156.3676 64.84632 156.0763 65.05791 155.6938C 65.26949 155.3113 65.37529 154.8938 65.37529 154.4414C 65.37529 152.9895 64.41663 152.0097 62.66533 152.0097zM62.66533 152.9131C 63.99345 152.9131 64.65263 153.5625 64.65263 154.4414C 64.65263 155.3138 63.99671 155.9648 62.63603 155.9648C 61.35348 155.9648 60.68291 155.3073 60.68291 154.4414C 60.68291 153.5625 61.3372 152.9131 62.66533 152.9131z" stroke="none" fill="#353332" fill-rule="evenodd" /><path id="4" transform="matrix(1 0 0 -1 0 612)" d="M63.35869 161.2807L63.47099 162.1449C 64.6624 161.9561 65.37529 161.1195 65.37529 159.9867C 65.37529 158.5675 64.41663 157.6283 62.68486 157.6283C 62.12497 157.6283 61.63506 157.7211 61.21513 157.9066C 60.79521 158.0922 60.48027 158.3746 60.27031 158.7538C 60.06035 159.1331 59.95537 159.5457 59.95537 159.9916C 59.95537 161.1179 60.54782 161.8601 61.59599 162.0619L61.59599 162.0619L61.72783 161.2074C 61.03122 161.0447 60.67802 160.6117 60.67802 160.0258C 60.67802 159.1404 61.28675 158.5316 62.66045 158.5316C 64.05367 158.5316 64.65263 159.1176 64.65263 159.977C 64.65263 160.6671 64.23759 161.157 63.35869 161.2807z" stroke="none" fill="#353332" fill-rule="evenodd" /><path id="5" transform="matrix(1 0 0 -1 0 612)" d="M65.2581 162.8969L58.0999 162.8969L58.0999 162.8969L58.0999 163.7758L58.0999 163.7758L60.66826 163.7758C 60.193 164.1859 59.95537 164.7035 59.95537 165.3285C 59.95537 165.7126 60.03105 166.0463 60.18242 166.3295C 60.33379 166.6127 60.54293 166.8153 60.80986 166.9374C 61.07679 167.0595 61.46416 167.1205 61.97197 167.1205L61.97197 167.1205L65.2581 167.1205L65.2581 167.1205L65.2581 166.2416L65.2581 166.2416L61.97197 166.2416C 61.09306 166.2416 60.7122 165.8445 60.7122 165.1479C 60.7122 164.8875 60.77975 164.6425 60.91484 164.413C 61.04993 164.1835 61.23304 164.0199 61.46416 163.9223C 61.69528 163.8246 62.01429 163.7758 62.42119 163.7758L62.42119 163.7758L65.2581 163.7758z" stroke="none" fill="#353332" fill-rule="evenodd" /><path id="6" transform="matrix(1 0 0 -1 0 612)" d="M62.66533 168.1297C 61.70504 168.1297 60.99378 168.3967 60.53154 168.9305C 60.14743 169.3765 59.95537 169.9201 59.95537 170.5614C 59.95537 171.9872 60.94495 172.9881 62.59209 172.9881C 63.2594 172.9881 63.78431 172.888 64.16679 172.6878C 64.54928 172.4876 64.84632 172.1963 65.05791 171.8138C 65.26949 171.4313 65.37529 171.0139 65.37529 170.5614C 65.37529 169.1096 64.41663 168.1297 62.66533 168.1297zM62.66533 169.0331C 63.99345 169.0331 64.65263 169.6825 64.65263 170.5614C 64.65263 171.4338 63.99671 172.0848 62.63603 172.0848C 61.35348 172.0848 60.68291 171.4273 60.68291 170.5614C 60.68291 169.6825 61.3372 169.0331 62.66533 169.0331z" stroke="none" fill="#353332" fill-rule="evenodd" /><path id="7" transform="matrix(1 0 0 -1 0 612)" d="M65.2581 174.0169L60.07256 174.0169L60.07256 174.0169L60.07256 174.8079L60.07256 174.8079L60.80986 174.8079C 60.2402 175.1888 59.95537 175.7389 59.95537 176.4583C 59.95537 176.7708 60.01152 177.0581 60.12383 177.3201C 60.23613 177.5822 60.38343 177.7783 60.56572 177.9085C 60.74801 178.0387 60.96448 178.1298 61.21513 178.1819C 61.3779 178.2145 61.66272 178.2307 62.06963 178.2307L62.06963 178.2307L65.2581 178.2307L65.2581 178.2307L65.2581 177.3518L65.2581 177.3518L62.10381 177.3518C 61.74573 177.3518 61.47799 177.3177 61.30058 177.2493C 61.12317 177.1809 60.98157 177.0597 60.87578 176.8855C 60.76999 176.7114 60.71709 176.5071 60.71709 176.2727C 60.71709 175.524 61.09795 174.8958 62.42607 174.8958L62.42607 174.8958L65.2581 174.8958z" stroke="none" fill="#353332" fill-rule="evenodd" /><path id="8" transform="matrix(1 0 0 -1 0 612)" d="M65.68779 179.4157L65.81474 180.2702C 66.07841 180.306 66.27047 180.4053 66.39091 180.5681C 66.55367 180.7862 66.63506 181.084 66.63506 181.4616C 66.63506 182.2755 66.29326 182.697 65.70732 182.8532C 65.52828 182.8988 65.15231 182.92 64.57939 182.9167C 65.03187 182.5326 65.2581 182.0541 65.2581 181.4812C 65.2581 180.0554 64.07484 179.24 62.63603 179.24C 62.14124 179.24 61.6847 179.3295 61.2664 179.5085C 60.84811 179.6876 60.52503 179.9472 60.29716 180.2873C 60.0693 180.6275 59.95537 181.0271 59.95537 181.4861C 59.95537 182.098 60.20276 182.6026 60.69756 182.9997L60.69756 182.9997L60.07256 182.9997L60.07256 182.9997L60.07256 183.8103L60.07256 183.8103L64.55498 183.8103C 65.36227 183.8103 65.93437 183.7281 66.27129 183.5637C 66.6082 183.3993 66.87431 183.1389 67.06963 182.7824C 67.26494 182.426 67.36259 181.9874 67.36259 181.4665C 67.36259 180.2296 66.80758 179.3897 65.68779 179.4157zM62.57256 180.1433C 63.93323 180.1433 64.53056 180.7504 64.53056 181.5642C 64.53056 182.3715 63.92998 182.99 62.60185 182.99C 61.33232 182.99 60.68291 182.3438 60.68291 181.5495C 60.68291 180.7683 61.32256 180.1433 62.57256 180.1433z" stroke="none" fill="#353332" fill-rule="evenodd" /></g><g clip-path="url(#3)"><g transform="matrix(0.2399978 0 0 0.2399562 -0.0002441 -1.493774)"><g transform="matrix(1 0 0 1 0 0)"><image x="0" y="0" xlink:href="img_01.png" width="3583" height="2561" /></g></g></g><path id="10" transform="matrix(1 0 0 -1 0 612)" d="M68.7071 447.4014L59.86823 447.4014L59.86823 447.4014L59.86823 444.0996L59.86823 444.0996L58.68562 444.0996L58.68562 444.0996L58.68562 452.043L58.68562 452.043L59.86823 452.043L59.86823 452.043L59.86823 448.7276L59.86823 448.7276L68.7071 448.7276z" stroke="none" fill="#353332" fill-rule="evenodd" /><path id="11" transform="matrix(1 0 0 -1 0 612)" d="M68.7071 453.2484L58.68562 453.2484L58.68562 453.2484L58.68562 454.4788L58.68562 454.4788L62.28132 454.4788C 61.61596 455.053 61.28327 455.7776 61.28327 456.6526C 61.28327 457.1904 61.38923 457.6575 61.60114 458.054C 61.81306 458.4505 62.10586 458.7342 62.47956 458.9051C 62.85326 459.076 63.39558 459.1614 64.10651 459.1614L64.10651 459.1614L68.7071 459.1614L68.7071 459.1614L68.7071 457.931L68.7071 457.931L64.10651 457.931C 62.87605 457.931 62.34284 457.375 62.34284 456.3997C 62.34284 456.0352 62.4374 455.6922 62.62653 455.3709C 62.81566 455.0496 63.07201 454.8206 63.39558 454.6839C 63.71914 454.5472 64.16576 454.4788 64.73542 454.4788L64.73542 454.4788L68.7071 454.4788z" stroke="none" fill="#353332" fill-rule="evenodd" /><path id="12" transform="matrix(1 0 0 -1 0 612)" d="M66.36921 466.0021L66.52644 467.2736C 68.01212 466.8725 68.87116 465.7674 68.87116 464.0812C 68.87116 461.9575 67.49942 460.6222 65.13874 460.6222C 62.69603 460.6222 61.28327 462.0076 61.28327 464.0128C 61.28327 465.9543 62.66641 467.3146 65.06355 467.3146C 65.13646 467.3146 65.24583 467.3123 65.39167 467.3078L65.39167 467.3078L65.39167 461.8937C 66.98672 461.9848 67.85944 462.8758 67.85944 464.088C 67.85944 464.9904 67.40827 465.6284 66.36921 466.0021zM64.37995 461.9621L64.37995 466.0158C 63.76928 465.9611 63.31127 465.8061 63.00593 465.5509C 62.53197 465.159 62.29499 464.6508 62.29499 464.0265C 62.29499 462.8963 63.11303 462.0441 64.37995 461.9621z" stroke="none" fill="#353332" fill-rule="evenodd" /><path id="14" transform="matrix(1 0 0 -1 0 612)" d="M68.7071 473.0023L62.40437 473.0023L62.40437 473.0023L62.40437 471.9154L62.40437 471.9154L61.44733 471.9154L61.44733 471.9154L61.44733 473.0023L61.44733 473.0023L60.67487 473.0023C 60.18724 473.0023 59.82494 473.0456 59.58796 473.1322C 58.94994 473.3692 58.51472 473.9366 58.51472 475.0121C 58.51472 475.3584 58.55573 475.7412 58.63776 476.1605L58.63776 476.1605L59.71101 475.976C 59.66544 475.7207 59.64265 475.4792 59.64265 475.2513C 59.64265 474.5039 59.90241 474.226 60.77741 474.226L60.77741 474.226L61.44733 474.226L61.44733 474.226L61.44733 475.641L61.44733 475.641L62.40437 475.641L62.40437 475.641L62.40437 474.226L62.40437 474.226L68.7071 474.226z" stroke="none" fill="#353332" fill-rule="evenodd" /><path id="15" transform="matrix(1 0 0 -1 0 612)" d="M67.81159 481.3377C 68.58633 480.4262 68.87116 479.631 68.87116 478.6648C 68.87116 477.0698 68.00528 476.1834 66.79304 476.1834C 66.43757 476.1834 66.11286 476.2643 65.81892 476.4261C 65.52497 476.5878 65.28913 476.7997 65.1114 477.0618C 64.93366 477.3239 64.79922 477.6189 64.70808 477.9471C 64.64427 478.1886 64.58275 478.5532 64.52351 479.0408C 64.40501 480.0343 64.26374 480.7657 64.09968 481.2351C 63.93106 481.2397 63.82396 481.242 63.77839 481.242C 63.27709 481.242 62.9239 481.1258 62.71882 480.8933C 62.44082 480.5789 62.30183 480.1118 62.30183 479.492C 62.30183 478.3344 62.65274 477.8627 63.68269 477.5984L63.68269 477.5984L63.51862 476.3953C 63.00365 476.5047 62.5878 476.6847 62.27106 476.9353C 61.95433 477.186 61.71052 477.5483 61.53962 478.0222C 61.36872 478.4962 61.28327 479.0453 61.28327 479.6697C 61.28327 480.2895 61.35619 480.7931 61.50202 481.1805C 61.64785 481.5678 61.83129 481.8527 62.05231 482.0349C 62.27334 482.2172 62.55248 482.3448 62.88972 482.4178C 63.09935 482.4588 63.47761 482.4793 64.02448 482.4793L64.02448 482.4793L65.66511 482.4793C 67.95287 482.4793 68.15111 482.559 68.7071 482.8689L68.7071 482.8689L68.7071 481.5838C 68.45189 481.4562 68.15339 481.3741 67.81159 481.3377zM65.06355 481.2351C 65.24583 480.7885 65.40079 480.1186 65.52839 479.2254C 65.6013 478.7195 65.68333 478.3618 65.77448 478.1521C 65.86563 477.9425 65.99893 477.7807 66.17439 477.6668C 66.34984 477.5529 66.54466 477.4959 66.75886 477.4959C 67.41511 477.4959 67.9073 478.0017 67.9073 478.9588C 67.9073 479.9067 67.46524 480.6906 66.74519 481.0369C 66.46719 481.1691 66.05704 481.2351 65.51472 481.2351z" stroke="none" fill="#353332" fill-rule="evenodd" /><path id="16" transform="matrix(1 0 0 -1 0 612)" d="M60.10065 484.3912L58.68562 484.3912L58.68562 484.3912L58.68562 485.6217L58.68562 485.6217L60.10065 485.6217zM68.7071 484.3912L61.44733 484.3912L61.44733 484.3912L61.44733 485.6217L61.44733 485.6217L68.7071 485.6217z" stroke="none" fill="#353332" fill-rule="evenodd" /><path id="17" transform="matrix(1 0 0 -1 0 612)" d="M68.7071 487.4787L61.44733 487.4787L61.44733 487.4787L61.44733 488.5861L61.44733 488.5861L62.54792 488.5861C 61.51797 489.1512 61.28327 489.5842 61.28327 490.1584C 61.28327 490.5731 61.41543 490.9946 61.67976 491.423L61.67976 491.423L62.82136 490.9992C 62.64362 490.6984 62.55476 490.3976 62.55476 490.0969C 62.55476 489.5591 62.89655 489.0965 63.47077 488.9142C 63.90827 488.7775 64.38679 488.7092 64.90632 488.7092L64.90632 488.7092L68.7071 488.7092z" stroke="none" fill="#353332" fill-rule="evenodd" /><path id="18" transform="matrix(1 0 0 -1 0 612)" d="M71.503 492.0997L70.34772 491.963C 70.42064 492.2318 70.4571 492.4666 70.4571 492.6671C 70.4571 493.2139 70.26569 493.517 69.93757 493.7266C 69.81452 493.8041 69.50919 493.9294 69.02155 494.1026C 68.95319 494.1254 68.85294 494.1619 68.72077 494.212L68.72077 494.212L61.44733 491.4571L61.44733 491.4571L61.44733 492.7833L61.44733 492.7833L65.65144 494.294C 66.18464 494.49 66.74519 494.6654 67.33308 494.8204C 66.76797 494.9617 66.21654 495.1303 65.67878 495.3262L65.67878 495.3262L61.44733 496.878L61.44733 496.878L61.44733 498.1085L61.44733 498.1085L68.83015 495.3467C 69.62767 495.0505 70.17683 494.8204 70.47761 494.6563C 71.2888 494.2188 71.65339 493.6765 71.65339 492.8926C 71.65339 492.6557 71.60326 492.3914 71.503 492.0997z" stroke="none" fill="#353332" fill-rule="evenodd" /><path id="20" transform="matrix(1 0 0 -1 0 612)" d="M65.07722 502.5884C 63.73281 502.5884 62.73705 502.9621 62.08991 503.7095C 61.55215 504.3338 61.28327 505.0949 61.28327 505.9927C 61.28327 507.9888 62.66869 509.3901 64.97468 509.3901C 65.90892 509.3901 66.64378 509.25 67.17927 508.9697C 67.71475 508.6895 68.1306 508.2816 68.42683 507.7461C 68.72305 507.2106 68.87116 506.6261 68.87116 505.9927C 68.87116 503.9601 67.52904 502.5884 65.07722 502.5884zM65.07722 503.853C 66.93659 503.853 67.85944 504.7622 67.85944 505.9927C 67.85944 507.214 66.94115 508.1255 65.0362 508.1255C 63.24063 508.1255 62.30183 507.2049 62.30183 505.9927C 62.30183 504.7622 63.21784 503.853 65.07722 503.853z" stroke="none" fill="#353332" fill-rule="evenodd" /><path id="21" transform="matrix(1 0 0 -1 0 612)" d="M68.7071 511.1243L62.40437 511.1243L62.40437 511.1243L62.40437 510.0374L62.40437 510.0374L61.44733 510.0374L61.44733 510.0374L61.44733 511.1243L61.44733 511.1243L60.67487 511.1243C 60.18724 511.1243 59.82494 511.1676 59.58796 511.2542C 58.94994 511.4912 58.51472 512.0585 58.51472 513.1341C 58.51472 513.4804 58.55573 513.8632 58.63776 514.2825L58.63776 514.2825L59.71101 514.098C 59.66544 513.8427 59.64265 513.6012 59.64265 513.3734C 59.64265 512.6259 59.90241 512.348 60.77741 512.348L60.77741 512.348L61.44733 512.348L61.44733 512.348L61.44733 513.763L61.44733 513.763L62.40437 513.763L62.40437 513.763L62.40437 512.348L62.40437 512.348L68.7071 512.348z" stroke="none" fill="#353332" fill-rule="evenodd" /><path id="23" transform="matrix(1 0 0 -1 0 612)" d="M68.7071 520.631L61.44733 517.8693L61.44733 517.8693L61.44733 519.1681L61.44733 519.1681L65.79499 520.7267C 66.26439 520.8953 66.75202 521.0502 67.25788 521.1915C 66.87507 521.3009 66.41478 521.4536 65.87702 521.6495L65.87702 521.6495L61.44733 523.2628L61.44733 523.2628L61.44733 524.5275L61.44733 524.5275L68.7071 521.7794z" stroke="none" fill="#353332" fill-rule="evenodd" /><path id="24" transform="matrix(1 0 0 -1 0 612)" d="M67.81159 530.3517C 68.58633 529.4402 68.87116 528.645 68.87116 527.6788C 68.87116 526.0837 68.00528 525.1974 66.79304 525.1974C 66.43757 525.1974 66.11286 525.2783 65.81892 525.4401C 65.52497 525.6018 65.28913 525.8137 65.1114 526.0758C 64.93366 526.3378 64.79922 526.6329 64.70808 526.9611C 64.64427 527.2026 64.58275 527.5671 64.52351 528.0548C 64.40501 529.0483 64.26374 529.7797 64.09968 530.2491C 63.93106 530.2537 63.82396 530.256 63.77839 530.256C 63.27709 530.256 62.9239 530.1398 62.71882 529.9073C 62.44082 529.5929 62.30183 529.1257 62.30183 528.506C 62.30183 527.3484 62.65274 526.8767 63.68269 526.6124L63.68269 526.6124L63.51862 525.4093C 63.00365 525.5187 62.5878 525.6987 62.27106 525.9493C 61.95433 526.2 61.71052 526.5623 61.53962 527.0363C 61.36872 527.5102 61.28327 528.0593 61.28327 528.6837C 61.28327 529.3035 61.35619 529.8071 61.50202 530.1945C 61.64785 530.5818 61.83129 530.8666 62.05231 531.049C 62.27334 531.2312 62.55248 531.3588 62.88972 531.4318C 63.09935 531.4728 63.47761 531.4933 64.02448 531.4933L64.02448 531.4933L65.66511 531.4933C 67.95287 531.4933 68.15111 531.573 68.7071 531.8829L68.7071 531.8829L68.7071 530.5978C 68.45189 530.4702 68.15339 530.3881 67.81159 530.3517zM65.06355 530.2491C 65.24583 529.8025 65.40079 529.1326 65.52839 528.2394C 65.6013 527.7335 65.68333 527.3757 65.77448 527.1661C 65.86563 526.9565 65.99893 526.7947 66.17439 526.6808C 66.34984 526.5668 66.54466 526.5099 66.75886 526.5099C 67.41511 526.5099 67.9073 527.0157 67.9073 527.9728C 67.9073 528.9207 67.46524 529.7045 66.74519 530.0509C 66.46719 530.183 66.05704 530.2491 65.51472 530.2491z" stroke="none" fill="#353332" fill-rule="evenodd" /><path id="25" transform="matrix(1 0 0 -1 0 612)" d="M68.7071 533.371L58.68562 533.371L58.68562 533.371L58.68562 534.6015L58.68562 534.6015L68.7071 534.6015z" stroke="none" fill="#353332" fill-rule="evenodd" /><path id="26" transform="matrix(1 0 0 -1 0 612)" d="M68.7071 536.479L58.68562 536.479L58.68562 536.479L58.68562 537.7095L58.68562 537.7095L68.7071 537.7095z" stroke="none" fill="#353332" fill-rule="evenodd" /><path id="27" transform="matrix(1 0 0 -1 0 612)" d="M66.36921 544.5841L66.52644 545.8556C 68.01212 545.4545 68.87116 544.3494 68.87116 542.6632C 68.87116 540.5395 67.49942 539.2042 65.13874 539.2042C 62.69603 539.2042 61.28327 540.5896 61.28327 542.5948C 61.28327 544.5363 62.66641 545.8966 65.06355 545.8966C 65.13646 545.8966 65.24583 545.8943 65.39167 545.8898L65.39167 545.8898L65.39167 540.4757C 66.98672 540.5668 67.85944 541.4578 67.85944 542.67C 67.85944 543.5724 67.40827 544.2104 66.36921 544.5841zM64.37995 540.5441L64.37995 544.5978C 63.76928 544.5431 63.31127 544.3881 63.00593 544.1329C 62.53197 543.741 62.29499 543.2328 62.29499 542.6085C 62.29499 541.4783 63.11303 540.6261 64.37995 540.5441z" stroke="none" fill="#353332" fill-rule="evenodd" /><path id="28" transform="matrix(1 0 0 -1 0 612)" d="M71.503 547.3437L70.34772 547.207C 70.42064 547.4758 70.4571 547.7106 70.4571 547.9111C 70.4571 548.4579 70.26569 548.761 69.93757 548.9706C 69.81452 549.0481 69.50919 549.1735 69.02155 549.3466C 68.95319 549.3694 68.85294 549.4059 68.72077 549.456L68.72077 549.456L61.44733 546.7011L61.44733 546.7011L61.44733 548.0273L61.44733 548.0273L65.65144 549.538C 66.18464 549.734 66.74519 549.9094 67.33308 550.0644C 66.76797 550.2057 66.21654 550.3743 65.67878 550.5703L65.67878 550.5703L61.44733 552.122L61.44733 552.122L61.44733 553.3525L61.44733 553.3525L68.83015 550.5908C 69.62767 550.2946 70.17683 550.0644 70.47761 549.9003C 71.2888 549.4628 71.65339 548.9205 71.65339 548.1367C 71.65339 547.8997 71.60326 547.6354 71.503 547.3437z" stroke="none" fill="#353332" fill-rule="evenodd" /></g></g></svg>