<svg xmlns="http://www.w3.org/2000/svg" xmlns:xlink="http://www.w3.org/1999/xlink" id="body_3" preserveAspectRatio="xMinYMin meet" viewBox="0 0 1144 816"><defs><clipPath id="1"><path id="" clip-rule="evenodd" transform="matrix(1 0 0 1 0 0)" d="M0 612L0 -0.28302L0 -0.28302L858.898 -0.28302L858.898 -0.28302L858.898 612L858.898 612L0 612z" /></clipPath><clipPath id="2"><path id="" clip-rule="evenodd" transform="matrix(1 0 0 1 0 0)" d="M0 -0.28302L858.898 -0.28302L858.898 -0.28302L858.898 612L858.898 612L0 612z" /></clipPath><clipPath id="3"><path id="" clip-rule="evenodd" transform="matrix(1 0 0 1 0 0)" d="M0 -0.28302L858.898 -0.28302L858.898 -0.28302L858.898 612L858.898 612L0 612z" /></clipPath><clipPath id="4"><path id="" clip-rule="evenodd" transform="matrix(1 0 0 1 0 0)" d="M84.803 92.651L432.424 92.651L432.424 92.651L432.424 538.069L432.424 538.069L84.803 538.069z" /></clipPath><clipPath id="5"><path id="" clip-rule="evenodd" transform="matrix(1 0 0 1 0 0)" d="M442.205 538.069L802.205 538.069L802.205 538.069L802.205 294.805L802.205 294.805L442.205 294.805z" /></clipPath></defs><g transform="matrix(1.333333 0 0 1.333333 0 0)"><g clip-path="url(#1)"><g clip-path="url(#2)"><path id="1" transform="matrix(1 0 0 -1 0 612)" d="M0 0L858.898 0L858.898 612.284L0 612.284z" stroke="none" fill="#58524A" fill-rule="nonzero" /></g><g clip-path="url(#3)"><path id="3" transform="matrix(1 0 0 -1 0 612)" d="M65.3148 139.6838L58.15659 139.6838L58.15659 139.6838L58.15659 142.8577C 58.15659 143.4957 58.22088 143.9807 58.34946 144.3127C 58.47805 144.6448 58.7051 144.9101 59.03062 145.1086C 59.35614 145.3072 59.71584 145.4065 60.10972 145.4065C 61.12534 145.4065 61.86916 144.7636 62.05796 143.3899C 62.1784 143.6405 62.29722 143.831 62.41441 143.9612C 62.66831 144.2379 62.98569 144.4999 63.36655 144.7473L63.36655 144.7473L65.3148 145.9924L65.3148 145.9924L65.3148 144.801L65.3148 144.801L63.82554 143.8538C 63.39585 143.5771 63.06707 143.3492 62.83921 143.1702C 62.61135 142.9911 62.45184 142.8308 62.36069 142.6892C 62.26955 142.5476 62.20607 142.4036 62.17027 142.2571C 62.14748 142.1497 62.13609 141.9739 62.13609 141.7297L62.13609 141.7297L62.13609 140.6311L62.13609 140.6311L65.3148 140.6311zM61.31577 140.6311L61.31577 142.6672C 61.31577 143.1002 61.27102 143.4387 61.1815 143.6829C 61.09198 143.927 60.94875 144.1125 60.75181 144.2395C 60.55487 144.3665 60.34084 144.4299 60.10972 144.4299C 59.43264 144.4299 58.94761 143.9579 58.94761 142.8967L58.94761 142.8967L58.94761 140.6311z" stroke="none" fill="#FFFEFE" fill-rule="evenodd" /><path id="4" transform="matrix(1 0 0 -1 0 612)" d="M65.3148 150.1753L64.55308 150.1753C 65.13902 149.7717 65.43198 149.2232 65.43198 148.5298C 65.43198 148.2238 65.37339 147.9382 65.2562 147.6729C 65.13902 147.4076 64.99171 147.2106 64.81431 147.0821C 64.6369 146.9535 64.41962 146.8631 64.16245 146.8111C 63.98993 146.7753 63.71649 146.7574 63.34214 146.7574L63.34214 146.7574L60.12925 146.7574L60.12925 146.7574L60.12925 147.6363L60.12925 147.6363L63.00523 147.6363C 63.46421 147.6363 63.77346 147.6542 63.93296 147.69C 64.3952 147.8006 64.67515 148.1783 64.67515 148.7056C 64.67515 148.9693 64.6076 149.2167 64.47251 149.4478C 64.33742 149.6789 64.1535 149.8425 63.92075 149.9385C 63.68801 150.0345 63.35028 150.0826 62.90757 150.0826L62.90757 150.0826L60.12925 150.0826L60.12925 150.0826L60.12925 150.9615L60.12925 150.9615L65.3148 150.9615z" stroke="none" fill="#FFFEFE" fill-rule="evenodd" /><path id="5" transform="matrix(1 0 0 -1 0 612)" d="M62.72202 152.0097C 61.76174 152.0097 61.05047 152.2767 60.58823 152.8105C 60.20412 153.2565 60.01206 153.8001 60.01206 154.4414C 60.01206 155.8672 61.00164 156.8681 62.64878 156.8681C 63.3161 156.8681 63.841 156.768 64.22349 156.5678C 64.60597 156.3676 64.90302 156.0763 65.1146 155.6938C 65.32619 155.3113 65.43198 154.8938 65.43198 154.4414C 65.43198 152.9895 64.47333 152.0097 62.72202 152.0097zM62.72202 152.9131C 64.05015 152.9131 64.70933 153.5625 64.70933 154.4414C 64.70933 155.3138 64.05341 155.9648 62.69273 155.9648C 61.41018 155.9648 60.7396 155.3073 60.7396 154.4414C 60.7396 153.5625 61.3939 152.9131 62.72202 152.9131z" stroke="none" fill="#FFFEFE" fill-rule="evenodd" /><path id="6" transform="matrix(1 0 0 -1 0 612)" d="M63.41538 161.2807L63.52769 162.1449C 64.71909 161.9561 65.43198 161.1195 65.43198 159.9867C 65.43198 158.5675 64.47333 157.6283 62.74155 157.6283C 62.18166 157.6283 61.69175 157.7211 61.27183 157.9066C 60.85191 158.0922 60.53696 158.3746 60.327 158.7538C 60.11704 159.1331 60.01206 159.5457 60.01206 159.9916C 60.01206 161.1179 60.60451 161.8601 61.65269 162.0619L61.65269 162.0619L61.78452 161.2074C 61.08791 161.0447 60.73472 160.6117 60.73472 160.0258C 60.73472 159.1404 61.34344 158.5316 62.71714 158.5316C 64.11037 158.5316 64.70933 159.1176 64.70933 159.977C 64.70933 160.6671 64.29429 161.157 63.41538 161.2807z" stroke="none" fill="#FFFEFE" fill-rule="evenodd" /><path id="7" transform="matrix(1 0 0 -1 0 612)" d="M65.3148 162.8969L58.15659 162.8969L58.15659 162.8969L58.15659 163.7758L58.15659 163.7758L60.72495 163.7758C 60.24969 164.1859 60.01206 164.7035 60.01206 165.3285C 60.01206 165.7126 60.08775 166.0463 60.23911 166.3295C 60.39048 166.6127 60.59963 166.8153 60.86655 166.9374C 61.13348 167.0595 61.52085 167.1205 62.02866 167.1205L62.02866 167.1205L65.3148 167.1205L65.3148 167.1205L65.3148 166.2416L65.3148 166.2416L62.02866 166.2416C 61.14976 166.2416 60.7689 165.8445 60.7689 165.1479C 60.7689 164.8875 60.83644 164.6425 60.97153 164.413C 61.10662 164.1835 61.28973 164.0199 61.52085 163.9223C 61.75197 163.8246 62.07098 163.7758 62.47788 163.7758L62.47788 163.7758L65.3148 163.7758z" stroke="none" fill="#FFFEFE" fill-rule="evenodd" /><path id="8" transform="matrix(1 0 0 -1 0 612)" d="M62.72202 168.1297C 61.76174 168.1297 61.05047 168.3967 60.58823 168.9305C 60.20412 169.3765 60.01206 169.9201 60.01206 170.5614C 60.01206 171.9872 61.00164 172.9881 62.64878 172.9881C 63.3161 172.9881 63.841 172.888 64.22349 172.6878C 64.60597 172.4876 64.90302 172.1963 65.1146 171.8138C 65.32619 171.4313 65.43198 171.0139 65.43198 170.5614C 65.43198 169.1096 64.47333 168.1297 62.72202 168.1297zM62.72202 169.0331C 64.05015 169.0331 64.70933 169.6825 64.70933 170.5614C 64.70933 171.4338 64.05341 172.0848 62.69273 172.0848C 61.41018 172.0848 60.7396 171.4273 60.7396 170.5614C 60.7396 169.6825 61.3939 169.0331 62.72202 169.0331z" stroke="none" fill="#FFFEFE" fill-rule="evenodd" /><path id="9" transform="matrix(1 0 0 -1 0 612)" d="M65.3148 174.0169L60.12925 174.0169L60.12925 174.0169L60.12925 174.8079L60.12925 174.8079L60.86655 174.8079C 60.29689 175.1888 60.01206 175.7389 60.01206 176.4583C 60.01206 176.7708 60.06821 177.0581 60.18052 177.3201C 60.29282 177.5822 60.44012 177.7783 60.62241 177.9085C 60.80471 178.0387 61.02118 178.1298 61.27183 178.1819C 61.43459 178.2145 61.71942 178.2307 62.12632 178.2307L62.12632 178.2307L65.3148 178.2307L65.3148 178.2307L65.3148 177.3518L65.3148 177.3518L62.1605 177.3518C 61.80243 177.3518 61.53469 177.3177 61.35728 177.2493C 61.17987 177.1809 61.03827 177.0597 60.93247 176.8855C 60.82668 176.7114 60.77378 176.5071 60.77378 176.2727C 60.77378 175.524 61.15464 174.8958 62.48277 174.8958L62.48277 174.8958L65.3148 174.8958z" stroke="none" fill="#FFFEFE" fill-rule="evenodd" /><path id="10" transform="matrix(1 0 0 -1 0 612)" d="M65.74448 179.4157L65.87144 180.2702C 66.13511 180.306 66.32716 180.4053 66.44761 180.5681C 66.61037 180.7862 66.69175 181.084 66.69175 181.4616C 66.69175 182.2755 66.34995 182.697 65.76402 182.8532C 65.58498 182.8988 65.209 182.92 64.63609 182.9167C 65.08856 182.5326 65.3148 182.0541 65.3148 181.4812C 65.3148 180.0554 64.13153 179.24 62.69273 179.24C 62.19793 179.24 61.74139 179.3295 61.3231 179.5085C 60.9048 179.6876 60.58172 179.9472 60.35386 180.2873C 60.126 180.6275 60.01206 181.0271 60.01206 181.4861C 60.01206 182.098 60.25946 182.6026 60.75425 182.9997L60.75425 182.9997L60.12925 182.9997L60.12925 182.9997L60.12925 183.8103L60.12925 183.8103L64.61167 183.8103C 65.41896 183.8103 65.99107 183.7281 66.32798 183.5637C 66.66489 183.3993 66.93101 183.1389 67.12632 182.7824C 67.32163 182.426 67.41929 181.9874 67.41929 181.4665C 67.41929 180.2296 66.86427 179.3897 65.74448 179.4157zM62.62925 180.1433C 63.98993 180.1433 64.58726 180.7504 64.58726 181.5642C 64.58726 182.3715 63.98667 182.99 62.65855 182.99C 61.38902 182.99 60.7396 182.3438 60.7396 181.5495C 60.7396 180.7683 61.37925 180.1433 62.62925 180.1433z" stroke="none" fill="#FFFEFE" fill-rule="evenodd" /></g><g clip-path="url(#4)"><g transform="matrix(0.3874316 0 0 0.3584839 83.53896 91.39795)"><g transform="matrix(1 0 0 1 0 0)"><image x="0" y="0" xlink:href="img_07.png" width="904" height="1246" /></g></g></g><path id="12" transform="matrix(1 0 0 -1 0 612)" d="M68.7474 401.6751L59.90853 401.6751L59.90853 401.6751L59.90853 398.3733L59.90853 398.3733L58.72591 398.3733L58.72591 398.3733L58.72591 406.3167L58.72591 406.3167L59.90853 406.3167L59.90853 406.3167L59.90853 403.0013L59.90853 403.0013L68.7474 403.0013z" stroke="none" fill="#FFFEFE" fill-rule="evenodd" /><path id="13" transform="matrix(1 0 0 -1 0 612)" d="M68.7474 407.522L58.72591 407.522L58.72591 407.522L58.72591 408.7525L58.72591 408.7525L62.32162 408.7525C 61.65625 409.3267 61.32357 410.0513 61.32357 410.9263C 61.32357 411.4641 61.42953 411.9312 61.64144 412.3277C 61.85336 412.7242 62.14616 413.0079 62.51986 413.1788C 62.89356 413.3497 63.43587 413.4351 64.14681 413.4351L64.14681 413.4351L68.7474 413.4351L68.7474 413.4351L68.7474 412.2047L68.7474 412.2047L64.14681 412.2047C 62.91634 412.2047 62.38314 411.6487 62.38314 410.6734C 62.38314 410.3088 62.4777 409.9659 62.66683 409.6446C 62.85596 409.3233 63.11231 409.0943 63.43587 408.9576C 63.75944 408.8209 64.20605 408.7525 64.77572 408.7525L64.77572 408.7525L68.7474 408.7525z" stroke="none" fill="#FFFEFE" fill-rule="evenodd" /><path id="14" transform="matrix(1 0 0 -1 0 612)" d="M66.40951 420.2758L66.56673 421.5473C 68.05241 421.1462 68.91146 420.0411 68.91146 418.3549C 68.91146 416.2312 67.53972 414.8959 65.17904 414.8959C 62.73633 414.8959 61.32357 416.2813 61.32357 418.2865C 61.32357 420.2279 62.70671 421.5883 65.10384 421.5883C 65.17676 421.5883 65.28613 421.586 65.43197 421.5815L65.43197 421.5815L65.43197 416.1674C 67.02702 416.2585 67.89974 417.1495 67.89974 418.3617C 67.89974 419.2641 67.44857 419.9021 66.40951 420.2758zM64.42025 416.2357L64.42025 420.2895C 63.80957 420.2348 63.35157 420.0798 63.04623 419.8246C 62.57227 419.4327 62.33529 418.9245 62.33529 418.3002C 62.33529 417.17 63.15332 416.3178 64.42025 416.2357z" stroke="none" fill="#FFFEFE" fill-rule="evenodd" /><path id="16" transform="matrix(1 0 0 -1 0 612)" d="M68.7474 427.276L62.44466 427.276L62.44466 427.276L62.44466 426.1891L62.44466 426.1891L61.48763 426.1891L61.48763 426.1891L61.48763 427.276L61.48763 427.276L60.71517 427.276C 60.22754 427.276 59.86523 427.3193 59.62826 427.4059C 58.99023 427.6429 58.55502 428.2102 58.55502 429.2858C 58.55502 429.6321 58.59603 430.0149 58.67806 430.4342L58.67806 430.4342L59.7513 430.2496C 59.70573 429.9944 59.68295 429.7529 59.68295 429.525C 59.68295 428.7776 59.94271 428.4996 60.81771 428.4996L60.81771 428.4996L61.48763 428.4996L61.48763 428.4996L61.48763 429.9147L61.48763 429.9147L62.44466 429.9147L62.44466 429.9147L62.44466 428.4996L62.44466 428.4996L68.7474 428.4996z" stroke="none" fill="#FFFEFE" fill-rule="evenodd" /><path id="17" transform="matrix(1 0 0 -1 0 612)" d="M67.85189 435.6114C 68.62663 434.6999 68.91146 433.9047 68.91146 432.9385C 68.91146 431.3434 68.04558 430.4571 66.83334 430.4571C 66.47787 430.4571 66.15316 430.538 65.85921 430.6997C 65.56527 430.8615 65.32943 431.0734 65.1517 431.3355C 64.97396 431.5975 64.83952 431.8926 64.74837 432.2207C 64.68457 432.4623 64.62305 432.8268 64.5638 433.3145C 64.44531 434.308 64.30404 435.0394 64.13998 435.5088C 63.97136 435.5134 63.86426 435.5157 63.81869 435.5157C 63.31739 435.5157 62.9642 435.3994 62.75912 435.167C 62.48112 434.8526 62.34212 434.3854 62.34212 433.7657C 62.34212 432.6081 62.69304 432.1364 63.72298 431.8721L63.72298 431.8721L63.55892 430.669C 63.04395 430.7784 62.62809 430.9584 62.31136 431.209C 61.99463 431.4597 61.75082 431.822 61.57992 432.2959C 61.40902 432.7699 61.32357 433.319 61.32357 433.9434C 61.32357 434.5632 61.39649 435.0668 61.54232 435.4541C 61.68815 435.8415 61.87159 436.1263 62.09261 436.3086C 62.31364 436.4909 62.59278 436.6185 62.93002 436.6914C 63.13965 436.7325 63.51791 436.753 64.06478 436.753L64.06478 436.753L65.70541 436.753C 67.99316 436.753 68.19141 436.8327 68.7474 437.1426L68.7474 437.1426L68.7474 435.8575C 68.49219 435.7299 68.19369 435.6478 67.85189 435.6114zM65.10384 435.5088C 65.28613 435.0622 65.44109 434.3923 65.56869 433.4991C 65.6416 432.9932 65.72363 432.6354 65.81478 432.4258C 65.90593 432.2162 66.03923 432.0544 66.21468 431.9405C 66.39014 431.8265 66.58496 431.7696 66.79916 431.7696C 67.45541 431.7696 67.94759 432.2754 67.94759 433.2325C 67.94759 434.1804 67.50554 434.9642 66.78548 435.3106C 66.50749 435.4427 66.09734 435.5088 65.55502 435.5088z" stroke="none" fill="#FFFEFE" fill-rule="evenodd" /><path id="18" transform="matrix(1 0 0 -1 0 612)" d="M60.14095 438.6649L58.72591 438.6649L58.72591 438.6649L58.72591 439.8954L58.72591 439.8954L60.14095 439.8954zM68.7474 438.6649L61.48763 438.6649L61.48763 438.6649L61.48763 439.8954L61.48763 439.8954L68.7474 439.8954z" stroke="none" fill="#FFFEFE" fill-rule="evenodd" /><path id="19" transform="matrix(1 0 0 -1 0 612)" d="M68.7474 441.7524L61.48763 441.7524L61.48763 441.7524L61.48763 442.8598L61.48763 442.8598L62.58822 442.8598C 61.55827 443.4249 61.32357 443.8578 61.32357 444.4321C 61.32357 444.8468 61.45573 445.2683 61.72005 445.6967L61.72005 445.6967L62.86166 445.2729C 62.68392 444.9721 62.59505 444.6713 62.59505 444.3705C 62.59505 443.8328 62.93685 443.3702 63.51107 443.1879C 63.94857 443.0512 64.42709 442.9828 64.94662 442.9828L64.94662 442.9828L68.7474 442.9828z" stroke="none" fill="#FFFEFE" fill-rule="evenodd" /><path id="20" transform="matrix(1 0 0 -1 0 612)" d="M71.5433 446.3734L70.38802 446.2366C 70.46094 446.5055 70.4974 446.7402 70.4974 446.9407C 70.4974 447.4876 70.30599 447.7907 69.97787 448.0003C 69.85482 448.0778 69.54948 448.2031 69.06185 448.3763C 68.99349 448.3991 68.89323 448.4355 68.76107 448.4857L68.76107 448.4857L61.48763 445.7308L61.48763 445.7308L61.48763 447.0569L61.48763 447.0569L65.69173 448.5677C 66.22494 448.7637 66.78548 448.9391 67.37337 449.0941C 66.80827 449.2354 66.25684 449.404 65.71908 449.5999L65.71908 449.5999L61.48763 451.1517L61.48763 451.1517L61.48763 452.3821L61.48763 452.3821L68.87045 449.6204C 69.66797 449.3242 70.21712 449.0941 70.51791 448.93C 71.3291 448.4925 71.69369 447.9502 71.69369 447.1663C 71.69369 446.9294 71.64355 446.665 71.5433 446.3734z" stroke="none" fill="#FFFEFE" fill-rule="evenodd" /><path id="22" transform="matrix(1 0 0 -1 0 612)" d="M65.11752 456.8621C 63.77311 456.8621 62.77735 457.2357 62.13021 457.9832C 61.59245 458.6075 61.32357 459.3686 61.32357 460.2664C 61.32357 462.2625 62.70899 463.6638 65.01498 463.6638C 65.94922 463.6638 66.68408 463.5237 67.21957 463.2434C 67.75505 462.9631 68.1709 462.5552 68.46712 462.0198C 68.76335 461.4843 68.91146 460.8998 68.91146 460.2664C 68.91146 458.2338 67.56934 456.8621 65.11752 456.8621zM65.11752 458.1267C 66.97689 458.1267 67.89974 459.0359 67.89974 460.2664C 67.89974 461.4877 66.98145 462.3992 65.0765 462.3992C 63.28093 462.3992 62.34212 461.4786 62.34212 460.2664C 62.34212 459.0359 63.25814 458.1267 65.11752 458.1267z" stroke="none" fill="#FFFEFE" fill-rule="evenodd" /><path id="23" transform="matrix(1 0 0 -1 0 612)" d="M68.7474 465.398L62.44466 465.398L62.44466 465.398L62.44466 464.3111L62.44466 464.3111L61.48763 464.3111L61.48763 464.3111L61.48763 465.398L61.48763 465.398L60.71517 465.398C 60.22754 465.398 59.86523 465.4413 59.62826 465.5279C 58.99023 465.7649 58.55502 466.3322 58.55502 467.4078C 58.55502 467.7541 58.59603 468.1369 58.67806 468.5562L58.67806 468.5562L59.7513 468.3716C 59.70573 468.1164 59.68295 467.8749 59.68295 467.647C 59.68295 466.8996 59.94271 466.6216 60.81771 466.6216L60.81771 466.6216L61.48763 466.6216L61.48763 466.6216L61.48763 468.0367L61.48763 468.0367L62.44466 468.0367L62.44466 468.0367L62.44466 466.6216L62.44466 466.6216L68.7474 466.6216z" stroke="none" fill="#FFFEFE" fill-rule="evenodd" /><path id="25" transform="matrix(1 0 0 -1 0 612)" d="M68.7474 474.9047L61.48763 472.1429L61.48763 472.1429L61.48763 473.4418L61.48763 473.4418L65.83529 475.0004C 66.30469 475.169 66.79232 475.3239 67.29818 475.4652C 66.91537 475.5746 66.45508 475.7272 65.91732 475.9232L65.91732 475.9232L61.48763 477.5365L61.48763 477.5365L61.48763 478.8011L61.48763 478.8011L68.7474 476.0531z" stroke="none" fill="#FFFEFE" fill-rule="evenodd" /><path id="26" transform="matrix(1 0 0 -1 0 612)" d="M67.85189 484.6254C 68.62663 483.7139 68.91146 482.9186 68.91146 481.9525C 68.91146 480.3575 68.04558 479.4711 66.83334 479.4711C 66.47787 479.4711 66.15316 479.5519 65.85921 479.7137C 65.56527 479.8755 65.32943 480.0874 65.1517 480.3495C 64.97396 480.6115 64.83952 480.9066 64.74837 481.2347C 64.68457 481.4763 64.62305 481.8409 64.5638 482.3285C 64.44531 483.322 64.30404 484.0534 64.13998 484.5228C 63.97136 484.5274 63.86426 484.5297 63.81869 484.5297C 63.31739 484.5297 62.9642 484.4135 62.75912 484.181C 62.48112 483.8666 62.34212 483.3994 62.34212 482.7797C 62.34212 481.6221 62.69304 481.1504 63.72298 480.8861L63.72298 480.8861L63.55892 479.683C 63.04395 479.7924 62.62809 479.9724 62.31136 480.223C 61.99463 480.4737 61.75082 480.836 61.57992 481.3099C 61.40902 481.7839 61.32357 482.333 61.32357 482.9574C 61.32357 483.5772 61.39649 484.0807 61.54232 484.4681C 61.68815 484.8555 61.87159 485.1403 62.09261 485.3226C 62.31364 485.5049 62.59278 485.6325 62.93002 485.7054C 63.13965 485.7465 63.51791 485.767 64.06478 485.767L64.06478 485.767L65.70541 485.767C 67.99316 485.767 68.19141 485.8467 68.7474 486.1566L68.7474 486.1566L68.7474 484.8715C 68.49219 484.7438 68.19369 484.6618 67.85189 484.6254zM65.10384 484.5228C 65.28613 484.0762 65.44109 483.4063 65.56869 482.5131C 65.6416 482.0072 65.72363 481.6494 65.81478 481.4398C 65.90593 481.2302 66.03923 481.0684 66.21468 480.9545C 66.39014 480.8405 66.58496 480.7836 66.79916 480.7836C 67.45541 480.7836 67.94759 481.2894 67.94759 482.2465C 67.94759 483.1944 67.50554 483.9782 66.78548 484.3246C 66.50749 484.4567 66.09734 484.5228 65.55502 484.5228z" stroke="none" fill="#FFFEFE" fill-rule="evenodd" /><path id="27" transform="matrix(1 0 0 -1 0 612)" d="M68.7474 487.6447L58.72591 487.6447L58.72591 487.6447L58.72591 488.8752L58.72591 488.8752L68.7474 488.8752z" stroke="none" fill="#FFFEFE" fill-rule="evenodd" /><path id="28" transform="matrix(1 0 0 -1 0 612)" d="M68.7474 490.7527L58.72591 490.7527L58.72591 490.7527L58.72591 491.9832L58.72591 491.9832L68.7474 491.9832z" stroke="none" fill="#FFFEFE" fill-rule="evenodd" /><path id="29" transform="matrix(1 0 0 -1 0 612)" d="M66.40951 498.8578L66.56673 500.1293C 68.05241 499.7282 68.91146 498.6231 68.91146 496.9369C 68.91146 494.8132 67.53972 493.4779 65.17904 493.4779C 62.73633 493.4779 61.32357 494.8633 61.32357 496.8685C 61.32357 498.8099 62.70671 500.1703 65.10384 500.1703C 65.17676 500.1703 65.28613 500.168 65.43197 500.1635L65.43197 500.1635L65.43197 494.7494C 67.02702 494.8405 67.89974 495.7315 67.89974 496.9437C 67.89974 497.8461 67.44857 498.4841 66.40951 498.8578zM64.42025 494.8177L64.42025 498.8715C 63.80957 498.8168 63.35157 498.6618 63.04623 498.4066C 62.57227 498.0147 62.33529 497.5065 62.33529 496.8822C 62.33529 495.752 63.15332 494.8998 64.42025 494.8177z" stroke="none" fill="#FFFEFE" fill-rule="evenodd" /><path id="30" transform="matrix(1 0 0 -1 0 612)" d="M71.5433 501.6174L70.38802 501.4807C 70.46094 501.7495 70.4974 501.9842 70.4974 502.1848C 70.4974 502.7316 70.30599 503.0347 69.97787 503.2443C 69.85482 503.3218 69.54948 503.4471 69.06185 503.6203C 68.99349 503.6431 68.89323 503.6795 68.76107 503.7297L68.76107 503.7297L61.48763 500.9748L61.48763 500.9748L61.48763 502.301L61.48763 502.301L65.69173 503.8117C 66.22494 504.0077 66.78548 504.1831 67.37337 504.3381C 66.80827 504.4793 66.25684 504.6479 65.71908 504.8439L65.71908 504.8439L61.48763 506.3957L61.48763 506.3957L61.48763 507.6262L61.48763 507.6262L68.87045 504.8644C 69.66797 504.5682 70.21712 504.3381 70.51791 504.174C 71.3291 503.7365 71.69369 503.1942 71.69369 502.4103C 71.69369 502.1733 71.64355 501.909 71.5433 501.6174z" stroke="none" fill="#FFFEFE" fill-rule="evenodd" /><g clip-path="url(#5)"><g transform="matrix(0.2399278 0 0 0.2399326 441.1133 294.8049)"><g transform="matrix(1 0 0 1 0 0)"><image x="0" y="0" xlink:href="img_08.png" width="1505" height="1015" /></g></g></g></g></g></svg>