<svg xmlns="http://www.w3.org/2000/svg" xmlns:xlink="http://www.w3.org/1999/xlink" id="body_2" preserveAspectRatio="xMinYMin meet" viewBox="0 0 1144 816"><defs><clipPath id="1"><path id="" clip-rule="evenodd" transform="matrix(1 0 0 1 0 0)" d="M0 612L0 -0.28302L0 -0.28302L858.898 -0.28302L858.898 -0.28302L858.898 612L858.898 612L0 612z" /></clipPath><clipPath id="2"><path id="" clip-rule="evenodd" transform="matrix(1 0 0 1 0 0)" d="M0 -0.28302L858.898 -0.28302L858.898 -0.28302L858.898 612L858.898 612L0 612z" /></clipPath><clipPath id="3"><path id="" clip-rule="evenodd" transform="matrix(1 0 0 1 0 0)" d="M247.872 555.307L609.026 555.307L609.026 555.307L609.026 298.582L609.026 298.582L247.872 298.582z" /></clipPath><clipPath id="4"><path id="" clip-rule="evenodd" transform="matrix(1 0 0 1 0 0)" d="M56.693 317.858L241.278 317.858L241.278 317.858L241.278 56.409L241.278 56.409L56.693 56.409z" /></clipPath><clipPath id="5"><path id="" clip-rule="evenodd" transform="matrix(1 0 0 1 0 0)" d="M248.872 243.535L610.025 243.535L610.025 243.535L610.025 116.543L610.025 116.543L248.872 116.543z" /></clipPath></defs><g transform="matrix(1.333333 0 0 1.333333 0 0)"><g clip-path="url(#1)"><g clip-path="url(#2)"><path id="1" transform="matrix(1 0 0 -1 0 612)" d="M65.2581 139.6838L58.0999 139.6838L58.0999 139.6838L58.0999 142.8577C 58.0999 143.4957 58.16419 143.9807 58.29277 144.3127C 58.42135 144.6448 58.6484 144.9101 58.97392 145.1086C 59.29944 145.3072 59.65915 145.4065 60.05302 145.4065C 61.06865 145.4065 61.81247 144.7636 62.00127 143.3899C 62.12171 143.6405 62.24052 143.831 62.35771 143.9612C 62.61162 144.2379 62.929 144.4999 63.30986 144.7473L63.30986 144.7473L65.2581 145.9924L65.2581 145.9924L65.2581 144.801L65.2581 144.801L63.76884 143.8538C 63.33916 143.5771 63.01038 143.3492 62.78252 143.1702C 62.55465 142.9911 62.39515 142.8308 62.304 142.6892C 62.21286 142.5476 62.14938 142.4036 62.11357 142.2571C 62.09079 142.1497 62.07939 141.9739 62.07939 141.7297L62.07939 141.7297L62.07939 140.6311L62.07939 140.6311L65.2581 140.6311zM61.25908 140.6311L61.25908 142.6672C 61.25908 143.1002 61.21432 143.4387 61.1248 143.6829C 61.03528 143.927 60.89206 144.1125 60.69511 144.2395C 60.49817 144.3665 60.28415 144.4299 60.05302 144.4299C 59.37594 144.4299 58.89091 143.9579 58.89091 142.8967L58.89091 142.8967L58.89091 140.6311z" stroke="none" fill="#353332" fill-rule="evenodd" /><path id="2" transform="matrix(1 0 0 -1 0 612)" d="M65.2581 150.1753L64.49638 150.1753C 65.08232 149.7717 65.37529 149.2232 65.37529 148.5298C 65.37529 148.2238 65.3167 147.9382 65.19951 147.6729C 65.08232 147.4076 64.93502 147.2106 64.75761 147.0821C 64.58021 146.9535 64.36292 146.8631 64.10576 146.8111C 63.93323 146.7753 63.65979 146.7574 63.28545 146.7574L63.28545 146.7574L60.07256 146.7574L60.07256 146.7574L60.07256 147.6363L60.07256 147.6363L62.94853 147.6363C 63.40752 147.6363 63.71676 147.6542 63.87627 147.69C 64.33851 147.8006 64.61845 148.1783 64.61845 148.7056C 64.61845 148.9693 64.55091 149.2167 64.41582 149.4478C 64.28072 149.6789 64.09681 149.8425 63.86406 149.9385C 63.63131 150.0345 63.29358 150.0826 62.85088 150.0826L62.85088 150.0826L60.07256 150.0826L60.07256 150.0826L60.07256 150.9615L60.07256 150.9615L65.2581 150.9615z" stroke="none" fill="#353332" fill-rule="evenodd" /><path id="3" transform="matrix(1 0 0 -1 0 612)" d="M62.66533 152.0097C 61.70504 152.0097 60.99378 152.2767 60.53154 152.8105C 60.14743 153.2565 59.95537 153.8001 59.95537 154.4414C 59.95537 155.8672 60.94495 156.8681 62.59209 156.8681C 63.2594 156.8681 63.78431 156.768 64.16679 156.5678C 64.54928 156.3676 64.84632 156.0763 65.05791 155.6938C 65.26949 155.3113 65.37529 154.8938 65.37529 154.4414C 65.37529 152.9895 64.41663 152.0097 62.66533 152.0097zM62.66533 152.9131C 63.99345 152.9131 64.65263 153.5625 64.65263 154.4414C 64.65263 155.3138 63.99671 155.9648 62.63603 155.9648C 61.35348 155.9648 60.68291 155.3073 60.68291 154.4414C 60.68291 153.5625 61.3372 152.9131 62.66533 152.9131z" stroke="none" fill="#353332" fill-rule="evenodd" /><path id="4" transform="matrix(1 0 0 -1 0 612)" d="M63.35869 161.2807L63.47099 162.1449C 64.6624 161.9561 65.37529 161.1195 65.37529 159.9867C 65.37529 158.5675 64.41663 157.6283 62.68486 157.6283C 62.12497 157.6283 61.63506 157.7211 61.21513 157.9066C 60.79521 158.0922 60.48027 158.3746 60.27031 158.7538C 60.06035 159.1331 59.95537 159.5457 59.95537 159.9916C 59.95537 161.1179 60.54782 161.8601 61.59599 162.0619L61.59599 162.0619L61.72783 161.2074C 61.03122 161.0447 60.67802 160.6117 60.67802 160.0258C 60.67802 159.1404 61.28675 158.5316 62.66045 158.5316C 64.05367 158.5316 64.65263 159.1176 64.65263 159.977C 64.65263 160.6671 64.23759 161.157 63.35869 161.2807z" stroke="none" fill="#353332" fill-rule="evenodd" /><path id="5" transform="matrix(1 0 0 -1 0 612)" d="M65.2581 162.8969L58.0999 162.8969L58.0999 162.8969L58.0999 163.7758L58.0999 163.7758L60.66826 163.7758C 60.193 164.1859 59.95537 164.7035 59.95537 165.3285C 59.95537 165.7126 60.03105 166.0463 60.18242 166.3295C 60.33379 166.6127 60.54293 166.8153 60.80986 166.9374C 61.07679 167.0595 61.46416 167.1205 61.97197 167.1205L61.97197 167.1205L65.2581 167.1205L65.2581 167.1205L65.2581 166.2416L65.2581 166.2416L61.97197 166.2416C 61.09306 166.2416 60.7122 165.8445 60.7122 165.1479C 60.7122 164.8875 60.77975 164.6425 60.91484 164.413C 61.04993 164.1835 61.23304 164.0199 61.46416 163.9223C 61.69528 163.8246 62.01429 163.7758 62.42119 163.7758L62.42119 163.7758L65.2581 163.7758z" stroke="none" fill="#353332" fill-rule="evenodd" /><path id="6" transform="matrix(1 0 0 -1 0 612)" d="M62.66533 168.1297C 61.70504 168.1297 60.99378 168.3967 60.53154 168.9305C 60.14743 169.3765 59.95537 169.9201 59.95537 170.5614C 59.95537 171.9872 60.94495 172.9881 62.59209 172.9881C 63.2594 172.9881 63.78431 172.888 64.16679 172.6878C 64.54928 172.4876 64.84632 172.1963 65.05791 171.8138C 65.26949 171.4313 65.37529 171.0139 65.37529 170.5614C 65.37529 169.1096 64.41663 168.1297 62.66533 168.1297zM62.66533 169.0331C 63.99345 169.0331 64.65263 169.6825 64.65263 170.5614C 64.65263 171.4338 63.99671 172.0848 62.63603 172.0848C 61.35348 172.0848 60.68291 171.4273 60.68291 170.5614C 60.68291 169.6825 61.3372 169.0331 62.66533 169.0331z" stroke="none" fill="#353332" fill-rule="evenodd" /><path id="7" transform="matrix(1 0 0 -1 0 612)" d="M65.2581 174.0169L60.07256 174.0169L60.07256 174.0169L60.07256 174.8079L60.07256 174.8079L60.80986 174.8079C 60.2402 175.1888 59.95537 175.7389 59.95537 176.4583C 59.95537 176.7708 60.01152 177.0581 60.12383 177.3201C 60.23613 177.5822 60.38343 177.7783 60.56572 177.9085C 60.74801 178.0387 60.96448 178.1298 61.21513 178.1819C 61.3779 178.2145 61.66272 178.2307 62.06963 178.2307L62.06963 178.2307L65.2581 178.2307L65.2581 178.2307L65.2581 177.3518L65.2581 177.3518L62.10381 177.3518C 61.74573 177.3518 61.47799 177.3177 61.30058 177.2493C 61.12317 177.1809 60.98157 177.0597 60.87578 176.8855C 60.76999 176.7114 60.71709 176.5071 60.71709 176.2727C 60.71709 175.524 61.09795 174.8958 62.42607 174.8958L62.42607 174.8958L65.2581 174.8958z" stroke="none" fill="#353332" fill-rule="evenodd" /><path id="8" transform="matrix(1 0 0 -1 0 612)" d="M65.68779 179.4157L65.81474 180.2702C 66.07841 180.306 66.27047 180.4053 66.39091 180.5681C 66.55367 180.7862 66.63506 181.084 66.63506 181.4616C 66.63506 182.2755 66.29326 182.697 65.70732 182.8532C 65.52828 182.8988 65.15231 182.92 64.57939 182.9167C 65.03187 182.5326 65.2581 182.0541 65.2581 181.4812C 65.2581 180.0554 64.07484 179.24 62.63603 179.24C 62.14124 179.24 61.6847 179.3295 61.2664 179.5085C 60.84811 179.6876 60.52503 179.9472 60.29716 180.2873C 60.0693 180.6275 59.95537 181.0271 59.95537 181.4861C 59.95537 182.098 60.20276 182.6026 60.69756 182.9997L60.69756 182.9997L60.07256 182.9997L60.07256 182.9997L60.07256 183.8103L60.07256 183.8103L64.55498 183.8103C 65.36227 183.8103 65.93437 183.7281 66.27129 183.5637C 66.6082 183.3993 66.87431 183.1389 67.06963 182.7824C 67.26494 182.426 67.36259 181.9874 67.36259 181.4665C 67.36259 180.2296 66.80758 179.3897 65.68779 179.4157zM62.57256 180.1433C 63.93323 180.1433 64.53056 180.7504 64.53056 181.5642C 64.53056 182.3715 63.92998 182.99 62.60185 182.99C 61.33232 182.99 60.68291 182.3438 60.68291 181.5495C 60.68291 180.7683 61.32256 180.1433 62.57256 180.1433z" stroke="none" fill="#353332" fill-rule="evenodd" /></g><path id="9" transform="matrix(1 0 0 -1 0 612)" d="M57.333 123.449L74.908 123.449L74.908 123.449L74.908 236.551L74.908 236.551L57.333 236.551z" stroke="#FFFEFE" stroke-width="0.283" fill="#FFFEFE" fill-rule="nonzero" /><path id="10" transform="matrix(1 0 0 -1 0 612)" d="M700.657 56.693L745.956 56.693L745.956 555.591L700.657 555.591z" stroke="none" fill="#FFFEFE" fill-rule="nonzero" /><g clip-path="url(#3)"><g transform="matrix(0.2399691 0 0 0.2399969 247.872 297.4167)"><g transform="matrix(1 0 0 1 0 0)"><image x="0" y="0" xlink:href="img_03.png" width="1505" height="1079" /></g></g></g><path id="33" transform="matrix(1 0 0 -1 0 612)" d="M56.693 294.1418L241.278 294.1418L241.278 555.5908L56.693 555.5908" stroke="none" fill="#E5E6E6" fill-rule="nonzero" /><g clip-path="url(#4)"><g transform="matrix(0.2397294 0 0 0.2398613 55.67222 56.40942)"><g transform="matrix(1 0 0 1 0 0)"><image x="0" y="0" xlink:href="img_04.png" width="779" height="1090" /></g></g></g><path id="629" transform="matrix(1 0 0 -1 0 612)" d="M610.026 368.465L248.873 368.465L248.873 495.457L610.026 495.457z" stroke="none" fill="#E5E6E6" fill-rule="nonzero" /><g clip-path="url(#5)"><g transform="matrix(0.2399691 0 0 0.2395658 248.8721 115.5056)"><g transform="matrix(1 0 0 1 0 0)"><image x="0" y="0" xlink:href="img_05.png" width="1505" height="539" /></g></g></g><path id="856" transform="matrix(1 0 0 -1 0 612)" d="M790.0164 551.0014L798.8553 551.0014L798.8553 551.0014L798.8553 554.3032L798.8553 554.3032L800.0379 554.3032L800.0379 554.3032L800.0379 546.3598L800.0379 546.3598L798.8553 546.3598L798.8553 546.3598L798.8553 549.6752L798.8553 549.6752L790.0164 549.6752z" stroke="none" fill="#353231" fill-rule="evenodd" /><path id="857" transform="matrix(1 0 0 -1 0 612)" d="M790.0164 545.1544L800.0379 545.1544L800.0379 545.1544L800.0379 543.924L800.0379 543.924L796.4422 543.924C 797.1075 543.3497 797.4402 542.6251 797.4402 541.7501C 797.4402 541.2124 797.3343 540.7452 797.1224 540.3488C 796.9105 539.9523 796.6177 539.6686 796.244 539.4977C 795.8702 539.3268 795.3279 539.2413 794.617 539.2413L794.617 539.2413L790.0164 539.2413L790.0164 539.2413L790.0164 540.4718L790.0164 540.4718L794.617 540.4718C 795.8475 540.4718 796.3807 541.0278 796.3807 542.0031C 796.3807 542.3677 796.2861 542.7106 796.097 543.0319C 795.9078 543.3531 795.6515 543.5822 795.3279 543.7189C 795.0044 543.8556 794.5577 543.924 793.9881 543.924L793.9881 543.924L790.0164 543.924z" stroke="none" fill="#353231" fill-rule="evenodd" /><path id="858" transform="matrix(1 0 0 -1 0 612)" d="M792.3543 532.4007L792.1971 531.1292C 790.7114 531.5303 789.8524 532.6354 789.8524 534.3216C 789.8524 536.4453 791.2241 537.7806 793.5848 537.7806C 796.0275 537.7806 797.4402 536.3952 797.4402 534.39C 797.4402 532.4485 796.0571 531.0882 793.66 531.0882C 793.587 531.0882 793.4777 531.0905 793.3318 531.095L793.3318 531.095L793.3318 536.5091C 791.7368 536.418 790.8641 535.527 790.8641 534.3148C 790.8641 533.4124 791.3152 532.7744 792.3543 532.4007zM794.3436 536.4407L794.3436 532.387C 794.9542 532.4417 795.4122 532.5967 795.7176 532.8519C 796.1915 533.2438 796.4285 533.752 796.4285 534.3763C 796.4285 535.5065 795.6105 536.3587 794.3436 536.4407z" stroke="none" fill="#353231" fill-rule="evenodd" /><path id="860" transform="matrix(1 0 0 -1 0 612)" d="M790.0164 525.4005L796.3192 525.4005L796.3192 525.4005L796.3192 526.4874L796.3192 526.4874L797.2762 526.4874L797.2762 526.4874L797.2762 525.4005L797.2762 525.4005L798.0486 525.4005C 798.5363 525.4005 798.8986 525.3572 799.1356 525.2706C 799.7736 525.0336 800.2088 524.4662 800.2088 523.3907C 800.2088 523.0444 800.1678 522.6616 800.0858 522.2423L800.0858 522.2423L799.0125 522.4269C 799.0581 522.6821 799.0809 522.9236 799.0809 523.1515C 799.0809 523.8989 798.8211 524.1769 797.9461 524.1769L797.9461 524.1769L797.2762 524.1769L797.2762 524.1769L797.2762 522.7618L797.2762 522.7618L796.3192 522.7618L796.3192 522.7618L796.3192 524.1769L796.3192 524.1769L790.0164 524.1769z" stroke="none" fill="#353231" fill-rule="evenodd" /><path id="861" transform="matrix(1 0 0 -1 0 612)" d="M790.9119 517.0651C 790.1372 517.9766 789.8524 518.7719 789.8524 519.738C 789.8524 521.333 790.7183 522.2194 791.9305 522.2194C 792.2859 522.2194 792.6107 522.1385 792.9046 521.9767C 793.1985 521.8149 793.4344 521.603 793.6121 521.341C 793.7899 521.079 793.9243 520.7839 794.0154 520.4557C 794.0792 520.2142 794.1407 519.8496 794.2 519.362C 794.3185 518.3685 794.4598 517.6371 794.6238 517.1677C 794.7925 517.1631 794.8995 517.1608 794.9451 517.1608C 795.4464 517.1608 795.7996 517.277 796.0047 517.5095C 796.2827 517.8239 796.4217 518.291 796.4217 518.9108C 796.4217 520.0684 796.0708 520.54 795.0408 520.8044L795.0408 520.8044L795.2049 522.0075C 795.7198 521.8981 796.1357 521.7181 796.4525 521.4675C 796.7692 521.2168 797.013 520.8545 797.1839 520.3806C 797.3548 519.9066 797.4402 519.3574 797.4402 518.7331C 797.4402 518.1133 797.3673 517.6097 797.2215 517.2224C 797.0757 516.835 796.8922 516.5502 796.6712 516.3679C 796.4502 516.1855 796.171 516.058 795.8338 515.985C 795.6241 515.944 795.2459 515.9235 794.699 515.9235L794.699 515.9235L793.0584 515.9235C 790.7706 515.9235 790.5724 515.8438 790.0164 515.5339L790.0164 515.5339L790.0164 516.819C 790.2716 516.9467 790.5701 517.0287 790.9119 517.0651zM793.66 517.1677C 793.4777 517.6143 793.3228 518.2842 793.1951 519.1774C 793.1222 519.6833 793.0402 520.041 792.949 520.2507C 792.8579 520.4603 792.7246 520.6221 792.5491 520.736C 792.3737 520.85 792.1788 520.9069 791.9647 520.9069C 791.3084 520.9069 790.8162 520.4011 790.8162 519.444C 790.8162 518.4961 791.2583 517.7123 791.9783 517.3659C 792.2563 517.2338 792.6665 517.1677 793.2088 517.1677z" stroke="none" fill="#353231" fill-rule="evenodd" /><path id="862" transform="matrix(1 0 0 -1 0 612)" d="M798.6229 514.0116L800.0379 514.0116L800.0379 514.0116L800.0379 512.7811L800.0379 512.7811L798.6229 512.7811zM790.0164 514.0116L797.2762 514.0116L797.2762 514.0116L797.2762 512.7811L797.2762 512.7811L790.0164 512.7811z" stroke="none" fill="#353231" fill-rule="evenodd" /><path id="863" transform="matrix(1 0 0 -1 0 612)" d="M790.0164 510.9241L797.2762 510.9241L797.2762 510.9241L797.2762 509.8167L797.2762 509.8167L796.1756 509.8167C 797.2056 509.2516 797.4402 508.8186 797.4402 508.2444C 797.4402 507.8297 797.3081 507.4081 797.0438 506.9798L797.0438 506.9798L795.9022 507.4036C 796.0799 507.7044 796.1688 508.0052 796.1688 508.3059C 796.1688 508.8437 795.827 509.3063 795.2527 509.4886C 794.8152 509.6253 794.3367 509.6936 793.8172 509.6936L793.8172 509.6936L790.0164 509.6936z" stroke="none" fill="#353231" fill-rule="evenodd" /><path id="864" transform="matrix(1 0 0 -1 0 612)" d="M787.2205 506.3031L788.3758 506.4398C 788.3029 506.171 788.2664 505.9362 788.2664 505.7357C 788.2664 505.1889 788.4578 504.8858 788.7859 504.6762C 788.909 504.5987 789.2144 504.4734 789.702 504.3002C 789.7703 504.2774 789.8706 504.2409 790.0027 504.1908L790.0027 504.1908L797.2762 506.9457L797.2762 506.9457L797.2762 505.6195L797.2762 505.6195L793.0721 504.1088C 792.5389 503.9128 791.9783 503.7374 791.3904 503.5824C 791.9556 503.4411 792.507 503.2725 793.0447 503.0766L793.0447 503.0766L797.2762 501.5248L797.2762 501.5248L797.2762 500.2943L797.2762 500.2943L789.8934 503.0561C 789.0958 503.3523 788.5467 503.5824 788.2459 503.7465C 787.4347 504.184 787.0701 504.7263 787.0701 505.5102C 787.0701 505.7471 787.1202 506.0114 787.2205 506.3031z" stroke="none" fill="#353231" fill-rule="evenodd" /><path id="866" transform="matrix(1 0 0 -1 0 612)" d="M793.6463 495.8145C 794.9907 495.8145 795.9865 495.4407 796.6336 494.6934C 797.1714 494.069 797.4402 493.3079 797.4402 492.4102C 797.4402 490.4141 796.0548 489.0127 793.7488 489.0127C 792.8146 489.0127 792.0797 489.1528 791.5443 489.4331C 791.0088 489.7134 790.5929 490.1212 790.2967 490.6567C 790.0005 491.1922 789.8524 491.7767 789.8524 492.4102C 789.8524 494.4427 791.1945 495.8145 793.6463 495.8145zM793.6463 494.5498C 791.7869 494.5498 790.8641 493.6406 790.8641 492.4102C 790.8641 491.1888 791.7823 490.2773 793.6873 490.2773C 795.4829 490.2773 796.4217 491.1979 796.4217 492.4102C 796.4217 493.6406 795.5057 494.5498 793.6463 494.5498z" stroke="none" fill="#353231" fill-rule="evenodd" /><path id="867" transform="matrix(1 0 0 -1 0 612)" d="M790.0164 487.2785L796.3192 487.2785L796.3192 487.2785L796.3192 488.3654L796.3192 488.3654L797.2762 488.3654L797.2762 488.3654L797.2762 487.2785L797.2762 487.2785L798.0486 487.2785C 798.5363 487.2785 798.8986 487.2352 799.1356 487.1486C 799.7736 486.9116 800.2088 486.3442 800.2088 485.2687C 800.2088 484.9224 800.1678 484.5396 800.0858 484.1203L800.0858 484.1203L799.0125 484.3049C 799.0581 484.5601 799.0809 484.8016 799.0809 485.0295C 799.0809 485.7769 798.8211 486.0549 797.9461 486.0549L797.9461 486.0549L797.2762 486.0549L797.2762 486.0549L797.2762 484.6398L797.2762 484.6398L796.3192 484.6398L796.3192 484.6398L796.3192 486.0549L796.3192 486.0549L790.0164 486.0549z" stroke="none" fill="#353231" fill-rule="evenodd" /><path id="869" transform="matrix(1 0 0 -1 0 612)" d="M790.0164 477.7718L797.2762 480.5335L797.2762 480.5335L797.2762 479.2347L797.2762 479.2347L792.9285 477.6761C 792.4591 477.5075 791.9715 477.3526 791.4656 477.2113C 791.8484 477.1019 792.3087 476.9492 792.8465 476.7533L792.8465 476.7533L797.2762 475.14L797.2762 475.14L797.2762 473.8753L797.2762 473.8753L790.0164 476.6234z" stroke="none" fill="#353231" fill-rule="evenodd" /><path id="870" transform="matrix(1 0 0 -1 0 612)" d="M790.9119 468.0511C 790.1372 468.9626 789.8524 469.7578 789.8524 470.724C 789.8524 472.319 790.7183 473.2054 791.9305 473.2054C 792.2859 473.2054 792.6107 473.1245 792.9046 472.9627C 793.1985 472.801 793.4344 472.5891 793.6121 472.327C 793.7899 472.065 793.9243 471.7699 794.0154 471.4417C 794.0792 471.2002 794.1407 470.8356 794.2 470.348C 794.3185 469.3545 794.4598 468.6231 794.6238 468.1537C 794.7925 468.1491 794.8995 468.1468 794.9451 468.1468C 795.4464 468.1468 795.7996 468.263 796.0047 468.4955C 796.2827 468.8099 796.4217 469.277 796.4217 469.8968C 796.4217 471.0544 796.0708 471.5261 795.0408 471.7904L795.0408 471.7904L795.2049 472.9935C 795.7198 472.8841 796.1357 472.7041 796.4525 472.4535C 796.7692 472.2028 797.013 471.8405 797.1839 471.3665C 797.3548 470.8926 797.4402 470.3434 797.4402 469.7191C 797.4402 469.0993 797.3673 468.5957 797.2215 468.2083C 797.0757 467.821 796.8922 467.5362 796.6712 467.3539C 796.4502 467.1716 796.171 467.044 795.8338 466.971C 795.6241 466.93 795.2459 466.9095 794.699 466.9095L794.699 466.9095L793.0584 466.9095C 790.7706 466.9095 790.5724 466.8298 790.0164 466.5199L790.0164 466.5199L790.0164 467.805C 790.2716 467.9326 790.5701 468.0147 790.9119 468.0511zM793.66 468.1537C 793.4777 468.6003 793.3228 469.2702 793.1951 470.1634C 793.1222 470.6693 793.0402 471.027 792.949 471.2367C 792.8579 471.4463 792.7246 471.6081 792.5491 471.722C 792.3737 471.836 792.1788 471.8929 791.9647 471.8929C 791.3084 471.8929 790.8162 471.3871 790.8162 470.43C 790.8162 469.4821 791.2583 468.6983 791.9783 468.3519C 792.2563 468.2198 792.6665 468.1537 793.2088 468.1537z" stroke="none" fill="#353231" fill-rule="evenodd" /><path id="871" transform="matrix(1 0 0 -1 0 612)" d="M790.0164 465.0318L800.0379 465.0318L800.0379 465.0318L800.0379 463.8013L800.0379 463.8013L790.0164 463.8013z" stroke="none" fill="#353231" fill-rule="evenodd" /><path id="872" transform="matrix(1 0 0 -1 0 612)" d="M790.0164 461.9238L800.0379 461.9238L800.0379 461.9238L800.0379 460.6933L800.0379 460.6933L790.0164 460.6933z" stroke="none" fill="#353231" fill-rule="evenodd" /><path id="873" transform="matrix(1 0 0 -1 0 612)" d="M792.3543 453.8187L792.1971 452.5472C 790.7114 452.9483 789.8524 454.0534 789.8524 455.7396C 789.8524 457.8633 791.2241 459.1986 793.5848 459.1986C 796.0275 459.1986 797.4402 457.8132 797.4402 455.808C 797.4402 453.8665 796.0571 452.5062 793.66 452.5062C 793.587 452.5062 793.4777 452.5085 793.3318 452.513L793.3318 452.513L793.3318 457.9271C 791.7368 457.836 790.8641 456.945 790.8641 455.7328C 790.8641 454.8304 791.3152 454.1924 792.3543 453.8187zM794.3436 457.8587L794.3436 453.805C 794.9542 453.8597 795.4122 454.0147 795.7176 454.2699C 796.1915 454.6618 796.4285 455.17 796.4285 455.7943C 796.4285 456.9245 795.6105 457.7767 794.3436 457.8587z" stroke="none" fill="#353231" fill-rule="evenodd" /><path id="874" transform="matrix(1 0 0 -1 0 612)" d="M787.2205 451.0591L788.3758 451.1958C 788.3029 450.927 788.2664 450.6923 788.2664 450.4917C 788.2664 449.9449 788.4578 449.6418 788.7859 449.4322C 788.909 449.3547 789.2144 449.2294 789.702 449.0562C 789.7703 449.0334 789.8706 448.9969 790.0027 448.9468L790.0027 448.9468L797.2762 451.7017L797.2762 451.7017L797.2762 450.3755L797.2762 450.3755L793.0721 448.8648C 792.5389 448.6688 791.9783 448.4934 791.3904 448.3384C 791.9556 448.1971 792.507 448.0285 793.0447 447.8326L793.0447 447.8326L797.2762 446.2808L797.2762 446.2808L797.2762 445.0503L797.2762 445.0503L789.8934 447.812C 789.0958 448.1083 788.5467 448.3384 788.2459 448.5025C 787.4347 448.94 787.0701 449.4823 787.0701 450.2661C 787.0701 450.5031 787.1202 450.7675 787.2205 451.0591z" stroke="none" fill="#353231" fill-rule="evenodd" /><path id="1946" transform="matrix(1 0 0 -1 0 612)" d="M792.765 108.1264L799.9232 108.1264L799.9232 108.1264L799.9232 104.9525C 799.9232 104.3145 799.8589 103.8295 799.7303 103.4975C 799.6017 103.1654 799.3747 102.9001 799.0492 102.7016C 798.7237 102.503 798.364 102.4037 797.9701 102.4037C 796.9545 102.4037 796.2106 103.0466 796.0219 104.4203C 795.9014 104.1697 795.7826 103.9792 795.6654 103.849C 795.4115 103.5723 795.0941 103.3103 794.7133 103.0629L794.7133 103.0629L792.765 101.8178L792.765 101.8178L792.765 103.0092L792.765 103.0092L794.2543 103.9564C 794.684 104.2331 795.0128 104.461 795.2406 104.64C 795.4684 104.8191 795.628 104.9794 795.7191 105.121C 795.8102 105.2626 795.8737 105.4066 795.9095 105.5531C 795.9323 105.6605 795.9437 105.8363 795.9437 106.0805L795.9437 106.0805L795.9437 107.1791L795.9437 107.1791L792.765 107.1791zM796.764 107.1791L796.764 105.143C 796.764 104.71 796.8088 104.3715 796.8983 104.1273C 796.9879 103.8832 797.131 103.6977 797.328 103.5707C 797.525 103.4437 797.739 103.3803 797.9701 103.3803C 798.6472 103.3803 799.1322 103.8523 799.1322 104.9135L799.1322 104.9135L799.1322 107.1791z" stroke="none" fill="#353231" fill-rule="evenodd" /><path id="1947" transform="matrix(1 0 0 -1 0 612)" d="M792.765 97.63488L793.5267 97.63488C 792.9408 98.03853 792.6478 98.58703 792.6478 99.28039C 792.6478 99.58638 792.7064 99.87202 792.8236 100.1373C 792.9408 100.4026 793.0881 100.5996 793.2655 100.7281C 793.4429 100.8567 793.6602 100.9471 793.9174 100.9991C 794.0899 101.0349 794.3633 101.0528 794.7377 101.0528L794.7377 101.0528L797.9506 101.0528L797.9506 101.0528L797.9506 100.1739L797.9506 100.1739L795.0746 100.1739C 794.6156 100.1739 794.3063 100.156 794.1469 100.1202C 793.6846 100.0096 793.4047 99.63195 793.4047 99.10461C 793.4047 98.84093 793.4722 98.59354 793.6073 98.36242C 793.7424 98.1313 793.9263 97.96773 794.1591 97.8717C 794.3918 97.77567 794.7296 97.72765 795.1722 97.72765L795.1722 97.72765L797.9506 97.72765L797.9506 97.72765L797.9506 96.84875L797.9506 96.84875L792.765 96.84875z" stroke="none" fill="#353231" fill-rule="evenodd" /><path id="1948" transform="matrix(1 0 0 -1 0 612)" d="M795.3578 95.80047C 796.3181 95.80047 797.0294 95.53354 797.4916 94.99969C 797.8757 94.55373 798.0677 94.0101 798.0677 93.36883C 798.0677 91.94305 797.0782 90.94207 795.431 90.94207C 794.7637 90.94207 794.2388 91.04217 793.8563 91.24236C 793.4738 91.44256 793.1768 91.7339 792.9652 92.11639C 792.7536 92.49887 792.6478 92.91635 792.6478 93.36883C 792.6478 94.82065 793.6065 95.80047 795.3578 95.80047zM795.3578 94.89715C 794.0297 94.89715 793.3705 94.24773 793.3705 93.36883C 793.3705 92.49643 794.0264 91.84539 795.3871 91.84539C 796.6696 91.84539 797.3402 92.50294 797.3402 93.36883C 797.3402 94.24773 796.6859 94.89715 795.3578 94.89715z" stroke="none" fill="#353231" fill-rule="evenodd" /><path id="1949" transform="matrix(1 0 0 -1 0 612)" d="M794.6644 86.52953L794.5521 85.66527C 793.3607 85.85407 792.6478 86.69066 792.6478 87.82347C 792.6478 89.24274 793.6065 90.18187 795.3383 90.18187C 795.8981 90.18187 796.3881 90.0891 796.808 89.90355C 797.2279 89.718 797.5428 89.43562 797.7528 89.05638C 797.9628 88.67715 798.0677 88.26456 798.0677 87.81859C 798.0677 86.69229 797.4753 85.9501 796.4271 85.74828L796.4271 85.74828L796.2953 86.60277C 796.9919 86.76553 797.3451 87.19847 797.3451 87.78441C 797.3451 88.66983 796.7364 89.27855 795.3627 89.27855C 793.9694 89.27855 793.3705 88.69261 793.3705 87.83324C 793.3705 87.14314 793.7855 86.65323 794.6644 86.52953z" stroke="none" fill="#353231" fill-rule="evenodd" /><path id="1950" transform="matrix(1 0 0 -1 0 612)" d="M792.765 84.91331L799.9232 84.91331L799.9232 84.91331L799.9232 84.03441L799.9232 84.03441L797.3549 84.03441C 797.8301 83.62425 798.0677 83.10667 798.0677 82.48167C 798.0677 82.09756 797.9921 81.7639 797.8407 81.4807C 797.6893 81.19749 797.4802 80.99486 797.2133 80.87279C 796.9464 80.75072 796.559 80.68968 796.0511 80.68968L796.0511 80.68968L792.765 80.68968L792.765 80.68968L792.765 81.56859L792.765 81.56859L796.0511 81.56859C 796.9301 81.56859 797.3109 81.96573 797.3109 82.66234C 797.3109 82.92276 797.2433 83.16771 797.1083 83.3972C 796.9732 83.62669 796.7901 83.79027 796.559 83.88792C 796.3278 83.98558 796.0089 84.03441 795.6019 84.03441L795.6019 84.03441L792.765 84.03441z" stroke="none" fill="#353231" fill-rule="evenodd" /><path id="1951" transform="matrix(1 0 0 -1 0 612)" d="M795.3578 79.68047C 796.3181 79.68047 797.0294 79.41354 797.4916 78.87968C 797.8757 78.43372 798.0677 77.89011 798.0677 77.24883C 798.0677 75.82304 797.0782 74.82207 795.431 74.82207C 794.7637 74.82207 794.2388 74.92216 793.8563 75.12236C 793.4738 75.32256 793.1768 75.61389 792.9652 75.99638C 792.7536 76.37888 792.6478 76.79636 792.6478 77.24883C 792.6478 78.70065 793.6065 79.68047 795.3578 79.68047zM795.3578 78.77715C 794.0297 78.77715 793.3705 78.12773 793.3705 77.24883C 793.3705 76.37643 794.0264 75.72539 795.3871 75.72539C 796.6696 75.72539 797.3402 76.38293 797.3402 77.24883C 797.3402 78.12773 796.6859 78.77715 795.3578 78.77715z" stroke="none" fill="#353231" fill-rule="evenodd" /><path id="1952" transform="matrix(1 0 0 -1 0 612)" d="M792.765 73.79332L797.9506 73.79332L797.9506 73.79332L797.9506 73.0023L797.9506 73.0023L797.2133 73.0023C 797.7829 72.62144 798.0677 72.07131 798.0677 71.35191C 798.0677 71.03941 798.0116 70.75214 797.8993 70.4901C 797.787 70.22805 797.6397 70.03192 797.4574 69.90172C 797.2751 69.77151 797.0587 69.68036 796.808 69.62828C 796.6452 69.59573 796.3604 69.57945 795.9535 69.57945L795.9535 69.57945L792.765 69.57945L792.765 69.57945L792.765 70.45836L792.765 70.45836L795.9193 70.45836C 796.2774 70.45836 796.5451 70.49254 796.7225 70.5609C 796.9 70.62926 797.0416 70.75051 797.1473 70.92467C 797.2531 71.09882 797.306 71.30309 797.306 71.53746C 797.306 72.28616 796.9252 72.91441 795.597 72.91441L795.597 72.91441L792.765 72.91441z" stroke="none" fill="#353231" fill-rule="evenodd" /><path id="1953" transform="matrix(1 0 0 -1 0 612)" d="M792.3353 68.39445L792.2084 67.53996C 791.9447 67.50415 791.7526 67.40487 791.6322 67.24211C 791.4694 67.02401 791.3881 66.72616 791.3881 66.34856C 791.3881 65.53475 791.7299 65.1132 792.3158 64.95695C 792.4948 64.91138 792.8708 64.89022 793.4437 64.89348C 792.9913 65.27759 792.765 65.7561 792.765 66.32903C 792.765 67.75481 793.9483 68.57024 795.3871 68.57024C 795.8819 68.57024 796.3384 68.48071 796.7567 68.30168C 797.175 68.12264 797.4981 67.86304 797.726 67.52287C 797.9538 67.1827 798.0677 66.78313 798.0677 66.32414C 798.0677 65.71216 797.8204 65.2076 797.3256 64.81047L797.3256 64.81047L797.9506 64.81047L797.9506 64.81047L797.9506 63.99992L797.9506 63.99992L793.4681 63.99992C 792.6608 63.99992 792.0887 64.08212 791.7518 64.24651C 791.4149 64.41089 791.1488 64.67131 790.9535 65.02776C 790.7582 65.3842 790.6605 65.82284 790.6605 66.34367C 790.6605 67.58065 791.2155 68.42049 792.3353 68.39445zM795.4506 67.66692C 794.0899 67.66692 793.4926 67.05981 793.4926 66.24602C 793.4926 65.43872 794.0931 64.82024 795.4213 64.82024C 796.6908 64.82024 797.3402 65.46639 797.3402 66.26067C 797.3402 67.04192 796.7006 67.66692 795.4506 67.66692z" stroke="none" fill="#353231" fill-rule="evenodd" /></g></g></svg>