<svg xmlns="http://www.w3.org/2000/svg" xmlns:xlink="http://www.w3.org/1999/xlink" id="body_6" preserveAspectRatio="xMinYMin meet" viewBox="0 0 1144 816"><defs><clipPath id="1"><path id="" clip-rule="evenodd" transform="matrix(1 0 0 1 0 0)" d="M0 612L0 -0.28302L0 -0.28302L858.898 -0.28302L858.898 -0.28302L858.898 612L858.898 612L0 612z" /></clipPath><clipPath id="2"><path id="" clip-rule="evenodd" transform="matrix(1 0 0 1 0 0)" d="M0 -0.28302L858.898 -0.28302L858.898 -0.28302L858.898 612L858.898 612L0 612z" /></clipPath><clipPath id="3"><path id="" clip-rule="evenodd" transform="matrix(1 0 0 1 0 0)" d="M57.175 110.917L244.555 110.917L244.555 110.917L244.555 430.254L244.555 430.254L57.175 430.254z" /></clipPath><clipPath id="4"><path id="" clip-rule="evenodd" transform="matrix(1 0 0 1 0 0)" d="M502.041 303.82L785.331 303.82L785.331 303.82L785.331 110.917L785.331 110.917L502.041 110.917z" /></clipPath><clipPath id="5"><path id="" clip-rule="evenodd" transform="matrix(1 0 0 1 0 0)" d="M502.041 310.092L785.331 310.092L785.331 310.092L785.331 502.995L785.331 502.995L502.041 502.995z" /></clipPath><clipPath id="6"><path id="" clip-rule="evenodd" transform="matrix(1 0 0 1 0 0)" d="M57.175 502.995L493.525 502.995L493.525 502.995L493.525 435.871L493.525 435.871L57.175 435.871z" /></clipPath></defs><g transform="matrix(1.333333 0 0 1.333333 0 0)"><g clip-path="url(#1)"><g clip-path="url(#2)"><path id="1" transform="matrix(1 0 0 -1 0 612)" d="M65.2581 139.6838L58.0999 139.6838L58.0999 139.6838L58.0999 142.8577C 58.0999 143.4957 58.16419 143.9807 58.29277 144.3127C 58.42135 144.6448 58.6484 144.9101 58.97392 145.1086C 59.29944 145.3072 59.65915 145.4065 60.05302 145.4065C 61.06865 145.4065 61.81247 144.7636 62.00127 143.3899C 62.12171 143.6405 62.24052 143.831 62.35771 143.9612C 62.61162 144.2379 62.929 144.4999 63.30986 144.7473L63.30986 144.7473L65.2581 145.9924L65.2581 145.9924L65.2581 144.801L65.2581 144.801L63.76884 143.8538C 63.33916 143.5771 63.01038 143.3492 62.78252 143.1702C 62.55465 142.9911 62.39515 142.8308 62.304 142.6892C 62.21286 142.5476 62.14938 142.4036 62.11357 142.2571C 62.09079 142.1497 62.07939 141.9739 62.07939 141.7297L62.07939 141.7297L62.07939 140.6311L62.07939 140.6311L65.2581 140.6311zM61.25908 140.6311L61.25908 142.6672C 61.25908 143.1002 61.21432 143.4387 61.1248 143.6829C 61.03528 143.927 60.89206 144.1125 60.69511 144.2395C 60.49817 144.3665 60.28415 144.4299 60.05302 144.4299C 59.37594 144.4299 58.89091 143.9579 58.89091 142.8967L58.89091 142.8967L58.89091 140.6311z" stroke="none" fill="#353332" fill-rule="evenodd" /><path id="2" transform="matrix(1 0 0 -1 0 612)" d="M65.2581 150.1753L64.49638 150.1753C 65.08232 149.7717 65.37529 149.2232 65.37529 148.5298C 65.37529 148.2238 65.3167 147.9382 65.19951 147.6729C 65.08232 147.4076 64.93502 147.2106 64.75761 147.0821C 64.58021 146.9535 64.36292 146.8631 64.10576 146.8111C 63.93323 146.7753 63.65979 146.7574 63.28545 146.7574L63.28545 146.7574L60.07256 146.7574L60.07256 146.7574L60.07256 147.6363L60.07256 147.6363L62.94853 147.6363C 63.40752 147.6363 63.71676 147.6542 63.87627 147.69C 64.33851 147.8006 64.61845 148.1783 64.61845 148.7056C 64.61845 148.9693 64.55091 149.2167 64.41582 149.4478C 64.28072 149.6789 64.09681 149.8425 63.86406 149.9385C 63.63131 150.0345 63.29358 150.0826 62.85088 150.0826L62.85088 150.0826L60.07256 150.0826L60.07256 150.0826L60.07256 150.9615L60.07256 150.9615L65.2581 150.9615z" stroke="none" fill="#353332" fill-rule="evenodd" /><path id="3" transform="matrix(1 0 0 -1 0 612)" d="M62.66533 152.0097C 61.70504 152.0097 60.99378 152.2767 60.53154 152.8105C 60.14743 153.2565 59.95537 153.8001 59.95537 154.4414C 59.95537 155.8672 60.94495 156.8681 62.59209 156.8681C 63.2594 156.8681 63.78431 156.768 64.16679 156.5678C 64.54928 156.3676 64.84632 156.0763 65.05791 155.6938C 65.26949 155.3113 65.37529 154.8938 65.37529 154.4414C 65.37529 152.9895 64.41663 152.0097 62.66533 152.0097zM62.66533 152.9131C 63.99345 152.9131 64.65263 153.5625 64.65263 154.4414C 64.65263 155.3138 63.99671 155.9648 62.63603 155.9648C 61.35348 155.9648 60.68291 155.3073 60.68291 154.4414C 60.68291 153.5625 61.3372 152.9131 62.66533 152.9131z" stroke="none" fill="#353332" fill-rule="evenodd" /><path id="4" transform="matrix(1 0 0 -1 0 612)" d="M63.35869 161.2807L63.47099 162.1449C 64.6624 161.9561 65.37529 161.1195 65.37529 159.9867C 65.37529 158.5675 64.41663 157.6283 62.68486 157.6283C 62.12497 157.6283 61.63506 157.7211 61.21513 157.9066C 60.79521 158.0922 60.48027 158.3746 60.27031 158.7538C 60.06035 159.1331 59.95537 159.5457 59.95537 159.9916C 59.95537 161.1179 60.54782 161.8601 61.59599 162.0619L61.59599 162.0619L61.72783 161.2074C 61.03122 161.0447 60.67802 160.6117 60.67802 160.0258C 60.67802 159.1404 61.28675 158.5316 62.66045 158.5316C 64.05367 158.5316 64.65263 159.1176 64.65263 159.977C 64.65263 160.6671 64.23759 161.157 63.35869 161.2807z" stroke="none" fill="#353332" fill-rule="evenodd" /><path id="5" transform="matrix(1 0 0 -1 0 612)" d="M65.2581 162.8969L58.0999 162.8969L58.0999 162.8969L58.0999 163.7758L58.0999 163.7758L60.66826 163.7758C 60.193 164.1859 59.95537 164.7035 59.95537 165.3285C 59.95537 165.7126 60.03105 166.0463 60.18242 166.3295C 60.33379 166.6127 60.54293 166.8153 60.80986 166.9374C 61.07679 167.0595 61.46416 167.1205 61.97197 167.1205L61.97197 167.1205L65.2581 167.1205L65.2581 167.1205L65.2581 166.2416L65.2581 166.2416L61.97197 166.2416C 61.09306 166.2416 60.7122 165.8445 60.7122 165.1479C 60.7122 164.8875 60.77975 164.6425 60.91484 164.413C 61.04993 164.1835 61.23304 164.0199 61.46416 163.9223C 61.69528 163.8246 62.01429 163.7758 62.42119 163.7758L62.42119 163.7758L65.2581 163.7758z" stroke="none" fill="#353332" fill-rule="evenodd" /><path id="6" transform="matrix(1 0 0 -1 0 612)" d="M62.66533 168.1297C 61.70504 168.1297 60.99378 168.3967 60.53154 168.9305C 60.14743 169.3765 59.95537 169.9201 59.95537 170.5614C 59.95537 171.9872 60.94495 172.9881 62.59209 172.9881C 63.2594 172.9881 63.78431 172.888 64.16679 172.6878C 64.54928 172.4876 64.84632 172.1963 65.05791 171.8138C 65.26949 171.4313 65.37529 171.0139 65.37529 170.5614C 65.37529 169.1096 64.41663 168.1297 62.66533 168.1297zM62.66533 169.0331C 63.99345 169.0331 64.65263 169.6825 64.65263 170.5614C 64.65263 171.4338 63.99671 172.0848 62.63603 172.0848C 61.35348 172.0848 60.68291 171.4273 60.68291 170.5614C 60.68291 169.6825 61.3372 169.0331 62.66533 169.0331z" stroke="none" fill="#353332" fill-rule="evenodd" /><path id="7" transform="matrix(1 0 0 -1 0 612)" d="M65.2581 174.0169L60.07256 174.0169L60.07256 174.0169L60.07256 174.8079L60.07256 174.8079L60.80986 174.8079C 60.2402 175.1888 59.95537 175.7389 59.95537 176.4583C 59.95537 176.7708 60.01152 177.0581 60.12383 177.3201C 60.23613 177.5822 60.38343 177.7783 60.56572 177.9085C 60.74801 178.0387 60.96448 178.1298 61.21513 178.1819C 61.3779 178.2145 61.66272 178.2307 62.06963 178.2307L62.06963 178.2307L65.2581 178.2307L65.2581 178.2307L65.2581 177.3518L65.2581 177.3518L62.10381 177.3518C 61.74573 177.3518 61.47799 177.3177 61.30058 177.2493C 61.12317 177.1809 60.98157 177.0597 60.87578 176.8855C 60.76999 176.7114 60.71709 176.5071 60.71709 176.2727C 60.71709 175.524 61.09795 174.8958 62.42607 174.8958L62.42607 174.8958L65.2581 174.8958z" stroke="none" fill="#353332" fill-rule="evenodd" /><path id="8" transform="matrix(1 0 0 -1 0 612)" d="M65.68779 179.4157L65.81474 180.2702C 66.07841 180.306 66.27047 180.4053 66.39091 180.5681C 66.55367 180.7862 66.63506 181.084 66.63506 181.4616C 66.63506 182.2755 66.29326 182.697 65.70732 182.8532C 65.52828 182.8988 65.15231 182.92 64.57939 182.9167C 65.03187 182.5326 65.2581 182.0541 65.2581 181.4812C 65.2581 180.0554 64.07484 179.24 62.63603 179.24C 62.14124 179.24 61.6847 179.3295 61.2664 179.5085C 60.84811 179.6876 60.52503 179.9472 60.29716 180.2873C 60.0693 180.6275 59.95537 181.0271 59.95537 181.4861C 59.95537 182.098 60.20276 182.6026 60.69756 182.9997L60.69756 182.9997L60.07256 182.9997L60.07256 182.9997L60.07256 183.8103L60.07256 183.8103L64.55498 183.8103C 65.36227 183.8103 65.93437 183.7281 66.27129 183.5637C 66.6082 183.3993 66.87431 183.1389 67.06963 182.7824C 67.26494 182.426 67.36259 181.9874 67.36259 181.4665C 67.36259 180.2296 66.80758 179.3897 65.68779 179.4157zM62.57256 180.1433C 63.93323 180.1433 64.53056 180.7504 64.53056 181.5642C 64.53056 182.3715 63.92998 182.99 62.60185 182.99C 61.33232 182.99 60.68291 182.3438 60.68291 181.5495C 60.68291 180.7683 61.32256 180.1433 62.57256 180.1433z" stroke="none" fill="#353332" fill-rule="evenodd" /></g><path id="9" transform="matrix(1 0 0 -1 0 612)" d="M708.972 64.043L754.271 64.043L754.271 562.941L708.972 562.941z" stroke="none" fill="#FFFEFE" fill-rule="nonzero" /><path id="10" transform="matrix(1 0 0 -1 0 612)" d="M790.1906 512.4408L799.0295 512.4408L799.0295 512.4408L799.0295 515.7426L799.0295 515.7426L800.2121 515.7426L800.2121 515.7426L800.2121 507.7992L800.2121 507.7992L799.0295 507.7992L799.0295 507.7992L799.0295 511.1146L799.0295 511.1146L790.1906 511.1146z" stroke="none" fill="#353231" fill-rule="evenodd" /><path id="11" transform="matrix(1 0 0 -1 0 612)" d="M790.1906 506.5938L800.2121 506.5938L800.2121 506.5938L800.2121 505.3634L800.2121 505.3634L796.6164 505.3634C 797.2817 504.7892 797.6144 504.0645 797.6144 503.1895C 797.6144 502.6518 797.5085 502.1847 797.2966 501.7881C 797.0847 501.3917 796.7919 501.108 796.4182 500.9371C 796.0444 500.7662 795.5021 500.6807 794.7912 500.6807L794.7912 500.6807L790.1906 500.6807L790.1906 500.6807L790.1906 501.9112L790.1906 501.9112L794.7912 501.9112C 796.0217 501.9112 796.5549 502.4672 796.5549 503.4425C 796.5549 503.807 796.4603 504.15 796.2712 504.4713C 796.082 504.7926 795.8257 505.0216 795.5021 505.1583C 795.1786 505.295 794.7319 505.3634 794.1623 505.3634L794.1623 505.3634L790.1906 505.3634z" stroke="none" fill="#353231" fill-rule="evenodd" /><path id="12" transform="matrix(1 0 0 -1 0 612)" d="M792.5285 493.8401L792.3713 492.5686C 790.8856 492.9697 790.0266 494.0748 790.0266 495.761C 790.0266 497.8847 791.3983 499.22 793.759 499.22C 796.2017 499.22 797.6144 497.8346 797.6144 495.8293C 797.6144 493.8879 796.2313 492.5276 793.8342 492.5276C 793.7612 492.5276 793.6519 492.5299 793.506 492.5344L793.506 492.5344L793.506 497.9485C 791.911 497.8574 791.0383 496.9664 791.0383 495.7542C 791.0383 494.8518 791.4894 494.2138 792.5285 493.8401zM794.5178 497.8801L794.5178 493.8264C 795.1284 493.8811 795.5864 494.0361 795.8918 494.2913C 796.3657 494.6832 796.6027 495.1913 796.6027 495.8157C 796.6027 496.9459 795.7847 497.7981 794.5178 497.8801z" stroke="none" fill="#353231" fill-rule="evenodd" /><path id="14" transform="matrix(1 0 0 -1 0 612)" d="M790.1906 486.8399L796.4933 486.8399L796.4933 486.8399L796.4933 487.9268L796.4933 487.9268L797.4504 487.9268L797.4504 487.9268L797.4504 486.8399L797.4504 486.8399L798.2228 486.8399C 798.7104 486.8399 799.0728 486.7966 799.3098 486.71C 799.9478 486.473 800.383 485.9056 800.383 484.8301C 800.383 484.4838 800.342 484.101 800.2599 483.6817L800.2599 483.6817L799.1867 483.8662C 799.2323 484.1215 799.2551 484.363 799.2551 484.5909C 799.2551 485.3383 798.9953 485.6162 798.1203 485.6162L798.1203 485.6162L797.4504 485.6162L797.4504 485.6162L797.4504 484.2012L797.4504 484.2012L796.4933 484.2012L796.4933 484.2012L796.4933 485.6162L796.4933 485.6162L790.1906 485.6162z" stroke="none" fill="#353231" fill-rule="evenodd" /><path id="15" transform="matrix(1 0 0 -1 0 612)" d="M791.0861 478.5045C 790.3114 479.416 790.0266 480.2112 790.0266 481.1774C 790.0266 482.7724 790.8925 483.6588 792.1047 483.6588C 792.4601 483.6588 792.7849 483.5779 793.0788 483.4161C 793.3727 483.2544 793.6086 483.0424 793.7863 482.7804C 793.9641 482.5184 794.0985 482.2233 794.1896 481.8951C 794.2534 481.6536 794.3149 481.289 794.3742 480.8014C 794.4927 479.8079 794.634 479.0765 794.798 478.6071C 794.9667 478.6025 795.0737 478.6002 795.1193 478.6002C 795.6206 478.6002 795.9738 478.7164 796.1789 478.9489C 796.4569 479.2633 796.5959 479.7304 796.5959 480.3502C 796.5959 481.5078 796.245 481.9795 795.215 482.2438L795.215 482.2438L795.3791 483.4469C 795.894 483.3375 796.3099 483.1575 796.6266 482.9069C 796.9434 482.6562 797.1872 482.2939 797.3581 481.8199C 797.529 481.346 797.6144 480.7968 797.6144 480.1725C 797.6144 479.5527 797.5415 479.0491 797.3957 478.6617C 797.2499 478.2744 797.0664 477.9896 796.8454 477.8073C 796.6244 477.625 796.3452 477.4974 796.008 477.4244C 795.7983 477.3834 795.4201 477.3629 794.8732 477.3629L794.8732 477.3629L793.2326 477.3629C 790.9448 477.3629 790.7466 477.2832 790.1906 476.9733L790.1906 476.9733L790.1906 478.2584C 790.4458 478.386 790.7443 478.4681 791.0861 478.5045zM793.8342 478.6071C 793.6519 479.0537 793.4969 479.7236 793.3693 480.6168C 793.2964 481.1227 793.2144 481.4804 793.1232 481.6901C 793.0321 481.8997 792.8988 482.0615 792.7233 482.1754C 792.5479 482.2894 792.353 482.3463 792.1389 482.3463C 791.4826 482.3463 790.9904 481.8405 790.9904 480.8834C 790.9904 479.9355 791.4325 479.1517 792.1525 478.8053C 792.4305 478.6732 792.8407 478.6071 793.383 478.6071z" stroke="none" fill="#353231" fill-rule="evenodd" /><path id="16" transform="matrix(1 0 0 -1 0 612)" d="M798.7971 475.451L800.2121 475.451L800.2121 475.451L800.2121 474.2205L800.2121 474.2205L798.7971 474.2205zM790.1906 475.451L797.4504 475.451L797.4504 475.451L797.4504 474.2205L797.4504 474.2205L790.1906 474.2205z" stroke="none" fill="#353231" fill-rule="evenodd" /><path id="17" transform="matrix(1 0 0 -1 0 612)" d="M790.1906 472.3635L797.4504 472.3635L797.4504 472.3635L797.4504 471.2561L797.4504 471.2561L796.3498 471.2561C 797.3798 470.691 797.6144 470.258 797.6144 469.6838C 797.6144 469.2691 797.4823 468.8475 797.218 468.4192L797.218 468.4192L796.0764 468.843C 796.2541 469.1438 796.343 469.4445 796.343 469.7453C 796.343 470.2831 796.0012 470.7457 795.4269 470.9279C 794.9894 471.0647 794.5109 471.133 793.9914 471.133L793.9914 471.133L790.1906 471.133z" stroke="none" fill="#353231" fill-rule="evenodd" /><path id="18" transform="matrix(1 0 0 -1 0 612)" d="M787.3947 467.7425L788.55 467.8792C 788.4771 467.6104 788.4406 467.3756 788.4406 467.1751C 788.4406 466.6283 788.632 466.3252 788.9601 466.1156C 789.0832 466.0381 789.3885 465.9128 789.8762 465.7396C 789.9445 465.7168 790.0448 465.6803 790.1769 465.6302L790.1769 465.6302L797.4504 468.3851L797.4504 468.3851L797.4504 467.0589L797.4504 467.0589L793.2463 465.5482C 792.7131 465.3522 792.1525 465.1768 791.5646 465.0218C 792.1298 464.8805 792.6812 464.7119 793.2189 464.516L793.2189 464.516L797.4504 462.9642L797.4504 462.9642L797.4504 461.7337L797.4504 461.7337L790.0676 464.4955C 789.27 464.7917 788.7209 465.0218 788.4201 465.1859C 787.6089 465.6234 787.2443 466.1657 787.2443 466.9496C 787.2443 467.1865 787.2944 467.4508 787.3947 467.7425z" stroke="none" fill="#353231" fill-rule="evenodd" /><path id="20" transform="matrix(1 0 0 -1 0 612)" d="M793.8205 457.2538C 795.1649 457.2538 796.1606 456.8801 796.8078 456.1328C 797.3456 455.5084 797.6144 454.7473 797.6144 453.8495C 797.6144 451.8535 796.229 450.4521 793.923 450.4521C 792.9888 450.4521 792.2539 450.5922 791.7184 450.8725C 791.183 451.1528 790.7671 451.5606 790.4709 452.0961C 790.1747 452.6316 790.0266 453.2161 790.0266 453.8495C 790.0266 455.8821 791.3687 457.2538 793.8205 457.2538zM793.8205 455.9892C 791.9611 455.9892 791.0383 455.08 791.0383 453.8495C 791.0383 452.6282 791.9565 451.7167 793.8615 451.7167C 795.6571 451.7167 796.5959 452.6373 796.5959 453.8495C 796.5959 455.08 795.6799 455.9892 793.8205 455.9892z" stroke="none" fill="#353231" fill-rule="evenodd" /><path id="21" transform="matrix(1 0 0 -1 0 612)" d="M790.1906 448.7179L796.4933 448.7179L796.4933 448.7179L796.4933 449.8048L796.4933 449.8048L797.4504 449.8048L797.4504 449.8048L797.4504 448.7179L797.4504 448.7179L798.2228 448.7179C 798.7104 448.7179 799.0728 448.6746 799.3098 448.588C 799.9478 448.351 800.383 447.7836 800.383 446.7081C 800.383 446.3618 800.342 445.9789 800.2599 445.5597L800.2599 445.5597L799.1867 445.7443C 799.2323 445.9995 799.2551 446.241 799.2551 446.4689C 799.2551 447.2162 798.9953 447.4943 798.1203 447.4943L798.1203 447.4943L797.4504 447.4943L797.4504 447.4943L797.4504 446.0792L797.4504 446.0792L796.4933 446.0792L796.4933 446.0792L796.4933 447.4943L796.4933 447.4943L790.1906 447.4943z" stroke="none" fill="#353231" fill-rule="evenodd" /><path id="23" transform="matrix(1 0 0 -1 0 612)" d="M790.1906 439.2112L797.4504 441.9729L797.4504 441.9729L797.4504 440.6741L797.4504 440.6741L793.1027 439.1155C 792.6333 438.9469 792.1457 438.792 791.6398 438.6507C 792.0226 438.5413 792.4829 438.3886 793.0207 438.1927L793.0207 438.1927L797.4504 436.5794L797.4504 436.5794L797.4504 435.3147L797.4504 435.3147L790.1906 438.0628z" stroke="none" fill="#353231" fill-rule="evenodd" /><path id="24" transform="matrix(1 0 0 -1 0 612)" d="M791.0861 429.4905C 790.3114 430.402 790.0266 431.1972 790.0266 432.1634C 790.0266 433.7584 790.8925 434.6448 792.1047 434.6448C 792.4601 434.6448 792.7849 434.5639 793.0788 434.4021C 793.3727 434.2404 793.6086 434.0284 793.7863 433.7664C 793.9641 433.5044 794.0985 433.2093 794.1896 432.8811C 794.2534 432.6396 794.3149 432.275 794.3742 431.7874C 794.4927 430.7939 794.634 430.0625 794.798 429.593C 794.9667 429.5885 795.0737 429.5862 795.1193 429.5862C 795.6206 429.5862 795.9738 429.7024 796.1789 429.9348C 796.4569 430.2493 796.5959 430.7164 796.5959 431.3362C 796.5959 432.4938 796.245 432.9655 795.215 433.2298L795.215 433.2298L795.3791 434.4329C 795.894 434.3235 796.3099 434.1435 796.6266 433.8929C 796.9434 433.6422 797.1872 433.2799 797.3581 432.8059C 797.529 432.332 797.6144 431.7828 797.6144 431.1585C 797.6144 430.5387 797.5415 430.0351 797.3957 429.6477C 797.2499 429.2604 797.0664 428.9756 796.8454 428.7932C 796.6244 428.611 796.3452 428.4834 796.008 428.4104C 795.7983 428.3694 795.4201 428.3489 794.8732 428.3489L794.8732 428.3489L793.2326 428.3489C 790.9448 428.3489 790.7466 428.2692 790.1906 427.9593L790.1906 427.9593L790.1906 429.2444C 790.4458 429.372 790.7443 429.4541 791.0861 429.4905zM793.8342 429.593C 793.6519 430.0397 793.4969 430.7096 793.3693 431.6028C 793.2964 432.1087 793.2144 432.4664 793.1232 432.6761C 793.0321 432.8857 792.8988 433.0475 792.7233 433.1614C 792.5479 433.2754 792.353 433.3323 792.1389 433.3323C 791.4826 433.3323 790.9904 432.8264 790.9904 431.8694C 790.9904 430.9215 791.4325 430.1377 792.1525 429.7913C 792.4305 429.6591 792.8407 429.593 793.383 429.593z" stroke="none" fill="#353231" fill-rule="evenodd" /><path id="25" transform="matrix(1 0 0 -1 0 612)" d="M790.1906 426.4712L800.2121 426.4712L800.2121 426.4712L800.2121 425.2407L800.2121 425.2407L790.1906 425.2407z" stroke="none" fill="#353231" fill-rule="evenodd" /><path id="26" transform="matrix(1 0 0 -1 0 612)" d="M790.1906 423.3632L800.2121 423.3632L800.2121 423.3632L800.2121 422.1327L800.2121 422.1327L790.1906 422.1327z" stroke="none" fill="#353231" fill-rule="evenodd" /><path id="27" transform="matrix(1 0 0 -1 0 612)" d="M792.5285 415.2581L792.3713 413.9866C 790.8856 414.3877 790.0266 415.4928 790.0266 417.179C 790.0266 419.3027 791.3983 420.638 793.759 420.638C 796.2017 420.638 797.6144 419.2526 797.6144 417.2473C 797.6144 415.3059 796.2313 413.9456 793.8342 413.9456C 793.7612 413.9456 793.6519 413.9479 793.506 413.9524L793.506 413.9524L793.506 419.3665C 791.911 419.2754 791.0383 418.3844 791.0383 417.1721C 791.0383 416.2698 791.4894 415.6318 792.5285 415.2581zM794.5178 419.2981L794.5178 415.2444C 795.1284 415.2991 795.5864 415.4541 795.8918 415.7093C 796.3657 416.1012 796.6027 416.6093 796.6027 417.2337C 796.6027 418.3639 795.7847 419.2161 794.5178 419.2981z" stroke="none" fill="#353231" fill-rule="evenodd" /><path id="28" transform="matrix(1 0 0 -1 0 612)" d="M787.3947 412.4985L788.55 412.6352C 788.4771 412.3664 788.4406 412.1317 788.4406 411.9311C 788.4406 411.3842 788.632 411.0812 788.9601 410.8716C 789.0832 410.7941 789.3885 410.6688 789.8762 410.4956C 789.9445 410.4728 790.0448 410.4363 790.1769 410.3862L790.1769 410.3862L797.4504 413.1411L797.4504 413.1411L797.4504 411.8149L797.4504 411.8149L793.2463 410.3042C 792.7131 410.1082 792.1525 409.9328 791.5646 409.7778C 792.1298 409.6365 792.6812 409.4679 793.2189 409.2719L793.2189 409.2719L797.4504 407.7202L797.4504 407.7202L797.4504 406.4897L797.4504 406.4897L790.0676 409.2514C 789.27 409.5477 788.7209 409.7778 788.4201 409.9419C 787.6089 410.3794 787.2443 410.9217 787.2443 411.7055C 787.2443 411.9425 787.2944 412.2068 787.3947 412.4985z" stroke="none" fill="#353231" fill-rule="evenodd" /><path id="29" transform="matrix(1 0 0 -1 0 612)" d="M57.175 181.745L244.654 181.745L244.654 501.082L57.175 501.082z" stroke="none" fill="#E5E6E6" fill-rule="nonzero" /><g clip-path="url(#3)"><g transform="matrix(0.2396994 0 0 0.2399228 56.15184 110.9172)"><g transform="matrix(1 0 0 1 0 0)"><image x="0" y="0" xlink:href="img_24.png" width="786" height="1331" /></g></g></g><g transform="matrix(0.2399923 0 0 0.2398717 254.9727 111.551)"><g transform="matrix(1 0 0 1 0 0)"><image x="0" y="0" xlink:href="img_25.png" width="994" height="1326" /></g></g><g clip-path="url(#4)"><g transform="matrix(0.2398733 0 0 0.239816 502.0403 109.8835)"><g transform="matrix(1 0 0 1 0 0)"><image x="0" y="0" xlink:href="img_26.png" width="1181" height="813" /></g></g></g><g clip-path="url(#5)"><g transform="matrix(0.2398733 0 0 0.2398248 502.0403 308.9658)"><g transform="matrix(1 0 0 1 0 0)"><image x="0" y="0" xlink:href="img_27.png" width="1181" height="812" /></g></g></g><g clip-path="url(#6)"><g transform="matrix(0.2399686 0 0 0.2394503 56.10432 434.8284)"><g transform="matrix(1 0 0 1 0 0)"><image x="0" y="0" xlink:href="img_28.png" width="1827" height="289" /></g></g></g><path id="35" transform="matrix(1 0 0 -1 0 612)" d="M792.765 130.0766L799.9232 130.0766L799.9232 130.0766L799.9232 126.9027C 799.9232 126.2647 799.8589 125.7797 799.7303 125.4477C 799.6017 125.1156 799.3747 124.8503 799.0492 124.6518C 798.7237 124.4532 798.364 124.3539 797.9701 124.3539C 796.9545 124.3539 796.2106 124.9968 796.0219 126.3705C 795.9014 126.1199 795.7826 125.9294 795.6654 125.7992C 795.4115 125.5225 795.0941 125.2605 794.7133 125.0131L794.7133 125.0131L792.765 123.768L792.765 123.768L792.765 124.9594L792.765 124.9594L794.2543 125.9066C 794.684 126.1833 795.0128 126.4112 795.2406 126.5902C 795.4684 126.7693 795.628 126.9296 795.7191 127.0712C 795.8102 127.2128 795.8737 127.3568 795.9095 127.5033C 795.9323 127.6107 795.9437 127.7865 795.9437 128.0307L795.9437 128.0307L795.9437 129.1293L795.9437 129.1293L792.765 129.1293zM796.764 129.1293L796.764 127.0932C 796.764 126.6602 796.8088 126.3217 796.8983 126.0775C 796.9879 125.8334 797.131 125.6479 797.328 125.5209C 797.525 125.394 797.739 125.3305 797.9701 125.3305C 798.6472 125.3305 799.1322 125.8025 799.1322 126.8637L799.1322 126.8637L799.1322 129.1293z" stroke="none" fill="#353332" fill-rule="evenodd" /><path id="36" transform="matrix(1 0 0 -1 0 612)" d="M792.765 119.5851L793.5267 119.5851C 792.9408 119.9887 792.6478 120.5372 792.6478 121.2306C 792.6478 121.5366 792.7064 121.8222 792.8236 122.0875C 792.9408 122.3528 793.0881 122.5498 793.2655 122.6783C 793.4429 122.8069 793.6602 122.8973 793.9174 122.9493C 794.0899 122.9852 794.3633 123.0031 794.7377 123.0031L794.7377 123.0031L797.9506 123.0031L797.9506 123.0031L797.9506 122.1241L797.9506 122.1241L795.0746 122.1241C 794.6156 122.1241 794.3063 122.1062 794.1469 122.0704C 793.6846 121.9598 793.4047 121.5822 793.4047 121.0548C 793.4047 120.7911 793.4722 120.5437 793.6073 120.3126C 793.7424 120.0815 793.9263 119.9179 794.1591 119.8219C 794.3918 119.7259 794.7296 119.6779 795.1722 119.6779L795.1722 119.6779L797.9506 119.6779L797.9506 119.6779L797.9506 118.799L797.9506 118.799L792.765 118.799z" stroke="none" fill="#353332" fill-rule="evenodd" /><path id="37" transform="matrix(1 0 0 -1 0 612)" d="M795.3578 117.7507C 796.3181 117.7507 797.0294 117.4837 797.4916 116.9499C 797.8757 116.5039 798.0677 115.9603 798.0677 115.319C 798.0677 113.8932 797.0782 112.8923 795.431 112.8923C 794.7637 112.8923 794.2388 112.9924 793.8563 113.1926C 793.4738 113.3928 793.1768 113.6841 792.9652 114.0666C 792.7536 114.4491 792.6478 114.8666 792.6478 115.319C 792.6478 116.7709 793.6065 117.7507 795.3578 117.7507zM795.3578 116.8474C 794.0297 116.8474 793.3705 116.1979 793.3705 115.319C 793.3705 114.4466 794.0264 113.7956 795.3871 113.7956C 796.6696 113.7956 797.3402 114.4531 797.3402 115.319C 797.3402 116.1979 796.6859 116.8474 795.3578 116.8474z" stroke="none" fill="#353332" fill-rule="evenodd" /><path id="38" transform="matrix(1 0 0 -1 0 612)" d="M794.6644 108.4797L794.5521 107.6155C 793.3607 107.8043 792.6478 108.6409 792.6478 109.7737C 792.6478 111.1929 793.6065 112.1321 795.3383 112.1321C 795.8981 112.1321 796.3881 112.0393 796.808 111.8538C 797.2279 111.6682 797.5428 111.3858 797.7528 111.0066C 797.9628 110.6274 798.0677 110.2148 798.0677 109.7688C 798.0677 108.6425 797.4753 107.9003 796.4271 107.6985L796.4271 107.6985L796.2953 108.553C 796.9919 108.7157 797.3451 109.1487 797.3451 109.7346C 797.3451 110.62 796.7364 111.2288 795.3627 111.2288C 793.9694 111.2288 793.3705 110.6428 793.3705 109.7834C 793.3705 109.0933 793.7855 108.6034 794.6644 108.4797z" stroke="none" fill="#353332" fill-rule="evenodd" /><path id="39" transform="matrix(1 0 0 -1 0 612)" d="M792.765 106.8635L799.9232 106.8635L799.9232 106.8635L799.9232 105.9846L799.9232 105.9846L797.3549 105.9846C 797.8301 105.5745 798.0677 105.0569 798.0677 104.4319C 798.0677 104.0478 797.9921 103.7141 797.8407 103.4309C 797.6893 103.1477 797.4802 102.9451 797.2133 102.823C 796.9464 102.7009 796.559 102.6399 796.0511 102.6399L796.0511 102.6399L792.765 102.6399L792.765 102.6399L792.765 103.5188L792.765 103.5188L796.0511 103.5188C 796.9301 103.5188 797.3109 103.9159 797.3109 104.6125C 797.3109 104.873 797.2433 105.1179 797.1083 105.3474C 796.9732 105.5769 796.7901 105.7405 796.559 105.8381C 796.3278 105.9358 796.0089 105.9846 795.6019 105.9846L795.6019 105.9846L792.765 105.9846z" stroke="none" fill="#353332" fill-rule="evenodd" /><path id="40" transform="matrix(1 0 0 -1 0 612)" d="M795.3578 101.6307C 796.3181 101.6307 797.0294 101.3637 797.4916 100.8299C 797.8757 100.3839 798.0677 99.8403 798.0677 99.19903C 798.0677 97.77325 797.0782 96.77227 795.431 96.77227C 794.7637 96.77227 794.2388 96.87237 793.8563 97.07256C 793.4738 97.27276 793.1768 97.5641 792.9652 97.94659C 792.7536 98.32907 792.6478 98.74655 792.6478 99.19903C 792.6478 100.6508 793.6065 101.6307 795.3578 101.6307zM795.3578 100.7273C 794.0297 100.7273 793.3705 100.0779 793.3705 99.19903C 793.3705 98.32663 794.0264 97.67559 795.3871 97.67559C 796.6696 97.67559 797.3402 98.33315 797.3402 99.19903C 797.3402 100.0779 796.6859 100.7273 795.3578 100.7273z" stroke="none" fill="#353332" fill-rule="evenodd" /><path id="41" transform="matrix(1 0 0 -1 0 612)" d="M792.765 95.74352L797.9506 95.74352L797.9506 95.74352L797.9506 94.95251L797.9506 94.95251L797.2133 94.95251C 797.7829 94.57165 798.0677 94.02151 798.0677 93.30212C 798.0677 92.98962 798.0116 92.70235 797.8993 92.4403C 797.787 92.17825 797.6397 91.98213 797.4574 91.85192C 797.2751 91.72171 797.0587 91.63057 796.808 91.57848C 796.6452 91.54593 796.3604 91.52966 795.9535 91.52966L795.9535 91.52966L792.765 91.52966L792.765 91.52966L792.765 92.40856L792.765 92.40856L795.9193 92.40856C 796.2774 92.40856 796.5451 92.44274 796.7225 92.5111C 796.9 92.57946 797.0416 92.70071 797.1473 92.87487C 797.2531 93.04903 797.306 93.25329 797.306 93.48766C 797.306 94.23636 796.9252 94.86462 795.597 94.86462L795.597 94.86462L792.765 94.86462z" stroke="none" fill="#353332" fill-rule="evenodd" /><path id="42" transform="matrix(1 0 0 -1 0 612)" d="M792.3353 90.34466L792.2084 89.49017C 791.9447 89.45436 791.7526 89.35507 791.6322 89.19231C 791.4694 88.97421 791.3881 88.67636 791.3881 88.29876C 791.3881 87.48495 791.7299 87.06341 792.3158 86.90716C 792.4948 86.86159 792.8708 86.84042 793.4437 86.84368C 792.9913 87.2278 792.765 87.70631 792.765 88.27923C 792.765 89.70501 793.9483 90.52044 795.3871 90.52044C 795.8819 90.52044 796.3384 90.43092 796.7567 90.25188C 797.175 90.07285 797.4981 89.81325 797.726 89.47308C 797.9538 89.1329 798.0677 88.73333 798.0677 88.27435C 798.0677 87.66237 797.8204 87.15781 797.3256 86.76067L797.3256 86.76067L797.9506 86.76067L797.9506 86.76067L797.9506 85.95013L797.9506 85.95013L793.4681 85.95013C 792.6608 85.95013 792.0887 86.03232 791.7518 86.19671C 791.4149 86.3611 791.1488 86.62151 790.9535 86.97796C 790.7582 87.3344 790.6605 87.77304 790.6605 88.29388C 790.6605 89.53085 791.2155 90.3707 792.3353 90.34466zM795.4506 89.61712C 794.0899 89.61712 793.4926 89.01003 793.4926 88.19622C 793.4926 87.38893 794.0931 86.77044 795.4213 86.77044C 796.6908 86.77044 797.3402 87.4166 797.3402 88.21087C 797.3402 88.99212 796.7006 89.61712 795.4506 89.61712z" stroke="none" fill="#353332" fill-rule="evenodd" /></g></g></svg>