<svg xmlns="http://www.w3.org/2000/svg" xmlns:xlink="http://www.w3.org/1999/xlink" id="body_6" preserveAspectRatio="xMinYMin meet" viewBox="0 0 1144 816"><defs><clipPath id="1"><path id="" clip-rule="evenodd" transform="matrix(1 0 0 1 0 0)" d="M0 612L0 -0.28302L0 -0.28302L858.898 -0.28302L858.898 -0.28302L858.898 612L858.898 612L0 612z" /></clipPath><clipPath id="2"><path id="" clip-rule="evenodd" transform="matrix(1 0 0 1 0 0)" d="M0 -0.28302L858.898 -0.28302L858.898 -0.28302L858.898 612L858.898 612L0 612z" /></clipPath></defs><g transform="matrix(1.333333 0 0 1.333333 0 0)"><g clip-path="url(#1)"><g clip-path="url(#2)"><path id="1" transform="matrix(1 0 0 -1 0 612)" d="M802.6706 188.9571C 802.1506 189.1171 801.2673 189.4704 800.6806 189.7371C 799.7873 190.1638 799.5806 190.3071 799.4606 190.5871L799.4606 190.5871L798.8806 190.4371C 798.9739 189.9171 798.9806 189.8838 799.0206 189.5371C 799.1006 188.6838 799.0973 188.6838 799.1106 188.5371C 798.1506 189.2171 797.8339 189.4671 797.4206 189.8271C 797.1939 190.0271 797.1306 190.1304 797.0506 190.3571L797.0506 190.3571L796.3906 190.1771C 796.4706 189.8438 796.5106 189.6771 796.5506 189.4371C 796.8706 187.6104 796.9473 187.1771 796.9606 187.0971L796.9606 187.0971L797.5906 187.0271C 797.4173 187.7738 797.3973 187.8471 797.1306 189.3671C 797.8906 188.7271 798.5873 188.1771 799.0806 187.8571C 800.0406 187.2304 800.0506 187.2338 800.4106 186.9671L800.4106 186.9671L800.7306 187.5871C 800.2639 187.8404 800.2206 187.8704 799.6606 188.1771C 799.5806 189.0838 799.5839 189.0804 799.5306 189.7471C 799.7706 189.5871 799.8506 189.5538 800.0506 189.4471C 800.2906 189.3271 801.1439 188.8971 801.2106 188.8571C 802.1306 188.4571 802.1339 188.4538 802.4006 188.3071zM798.4506 185.7771L798.4506 183.3171C 798.4506 182.8904 798.4373 182.6204 798.4106 182.3271C 798.6772 182.3671 798.9406 182.3671 799.3406 182.3671L799.3406 182.3671L801.2306 182.3671C 801.7506 182.3671 801.9439 182.3638 802.2106 182.3371C 802.1706 182.6038 802.1706 182.8871 802.1706 183.2871L802.1706 183.2871L802.1706 185.6871C 802.1706 186.0471 802.1906 186.3371 802.2306 186.6171L802.2306 186.6171L801.5306 186.6171C 801.5573 186.3771 801.5806 186.0871 801.5806 185.6871L801.5806 185.6871L801.5806 182.9971L801.5806 182.9971L799.0306 182.9971L799.0306 182.9971L799.0306 185.4971C 799.0306 185.8838 799.0306 186.1638 799.0706 186.4571C 798.8306 186.4171 798.5773 186.4071 798.1106 186.4071L798.1106 186.4071L794.7206 186.4071C 793.9872 186.4071 793.8806 186.1338 793.8806 184.1871C 793.8806 181.8804 793.9506 181.8004 796.2706 181.5871C 796.3239 181.8271 796.424 182.0571 796.5706 182.2571C 795.504 182.2971 794.9406 182.3771 794.7406 182.5371C 794.5406 182.6971 794.4906 183.0938 794.4906 184.3071C 794.4906 185.6004 794.5406 185.7771 794.8606 185.7771zM795.7206 186.9571C 795.4806 187.6504 795.2506 188.5638 795.0906 189.4571C 795.0106 189.9104 794.9506 190.3838 794.9506 190.5571C 794.9506 190.5838 794.9506 190.6004 794.9506 190.6271L794.9506 190.6271L794.2306 190.4771C 794.2706 190.3571 794.2839 190.3238 794.3506 189.9771C 794.5506 188.8838 794.7906 187.9371 795.0706 186.9771z" stroke="none" fill="#333332" fill-rule="evenodd" /><path id="2" transform="matrix(1 0 0 -1 0 612)" d="M801.6006 177.3271L801.8606 177.3271C 802.114 177.3271 802.3306 177.3171 802.5706 177.2771L802.5706 177.2771L802.5706 177.9971C 802.3306 177.9571 802.1006 177.9371 801.8606 177.9371L801.8606 177.9371L801.6006 177.9371L801.6006 177.9371L801.6006 179.4271C 801.6006 179.9204 801.6206 180.2671 801.6606 180.5471L801.6606 180.5471L800.9906 180.5471C 801.0306 180.2671 801.0406 179.9604 801.0406 179.4271L801.0406 179.4271L801.0406 177.9371L801.0406 177.9371L800.7306 177.9371C 800.4773 177.9371 800.2706 177.9504 800.0706 177.9771L800.0706 177.9771L800.0706 177.2871C 800.2706 177.3271 800.4473 177.3271 800.7406 177.3271L800.7406 177.3271L801.0406 177.3271L801.0406 177.3271L801.0406 175.0171L801.0406 175.0171L800.7306 175.0171C 800.4639 175.0171 800.2839 175.0304 800.0706 175.0571L800.0706 175.0571L800.0706 174.3671C 800.2706 174.4071 800.4506 174.4071 800.7306 174.4071L800.7306 174.4071L801.0406 174.4071L801.0406 174.4071L801.0406 172.8671C 801.0406 172.3471 801.0306 172.0438 800.9906 171.7371L800.9906 171.7371L801.6606 171.7371C 801.6206 172.0438 801.6006 172.3871 801.6006 172.8671L801.6006 172.8671L801.6006 174.4071L801.6006 174.4071L801.8606 174.4071C 802.1006 174.4071 802.3439 174.3971 802.5706 174.3571L802.5706 174.3571L802.5706 175.0771C 802.3306 175.0371 802.1006 175.0171 801.8606 175.0171L801.8606 175.0171L801.6006 175.0171zM798.7206 172.8371C 798.7206 172.4104 798.7006 172.0704 798.6606 171.7371L798.6606 171.7371L799.3506 171.7371C 799.3106 172.0571 799.2906 172.3971 799.2906 172.8371L799.2906 172.8371L799.2906 176.4971C 799.4506 176.4171 799.5206 176.3871 799.6806 176.3071C 800.0139 176.1471 800.0472 176.1204 800.2206 176.0271L800.2206 176.0271L800.3706 176.7671C 800.0106 176.8471 799.7306 176.9404 799.2906 177.1671L799.2906 177.1671L799.2906 179.3771C 799.2906 179.8304 799.3106 180.1904 799.3506 180.4971L799.3506 180.4971L798.6606 180.4971C 798.7006 180.1771 798.7206 179.8171 798.7206 179.3771L798.7206 179.3771L798.7206 177.5071C 797.5606 178.2938 796.8439 179.1138 796.0706 180.5671C 795.8306 180.3271 795.8306 180.3271 795.6306 180.2071C 795.6039 180.2071 795.5706 180.1871 795.5306 180.1471C 796.1172 179.2538 796.2706 179.0571 796.7906 178.4571L796.7906 178.4571L794.6406 178.4571C 794.2273 178.4571 793.9539 178.4771 793.7006 178.5171L793.7006 178.5171L793.7006 177.8171L793.7006 177.8171L794.2606 177.8171L794.2606 177.8171L794.2606 173.5371L794.2606 173.5371L793.6906 173.5371L793.6906 173.5371L793.6906 172.8271C 794.0239 172.8671 794.314 172.8871 794.6206 172.8871L794.6206 172.8871L796.5006 172.8871C 796.8606 172.8871 797.1306 172.8771 797.4506 172.8371C 797.4106 173.0904 797.4006 173.2971 797.4006 173.7771L797.4006 173.7771L797.4006 177.8271C 797.8006 177.4671 798.0939 177.2271 798.7206 176.8271zM796.8406 177.8171L796.8406 173.5371L796.8406 173.5371L794.8306 173.5371L794.8306 173.5371L794.8306 177.8171z" stroke="none" fill="#333332" fill-rule="evenodd" /><path id="3" transform="matrix(1 0 0 -1 0 612)" d="M800.7206 165.3971L800.7206 167.1371C 800.7206 167.5371 800.7206 167.8238 800.7606 168.0371C 800.5073 168.0104 800.2306 167.9971 799.8706 167.9971L799.8706 167.9971L797.6906 167.9971C 797.184 167.9971 796.8906 168.0071 796.5706 168.0471L796.5706 168.0471L796.5706 167.3671L796.5706 167.3671L797.1206 167.3671L797.1206 167.3671L797.1206 165.3971L797.1206 165.3971L794.9406 165.3971C 794.4073 165.3971 794.0773 165.4271 793.7306 165.4671L793.7306 165.4671L793.7306 164.6871C 794.0906 164.7404 794.3806 164.7571 794.9406 164.7571L794.9406 164.7571L797.1206 164.7571L797.1206 164.7571L797.1206 162.6171L797.1206 162.6171L796.5706 162.6171L796.5706 162.6171L796.5706 161.9171C 796.9039 161.9571 797.2139 161.9771 797.6806 161.9771L797.6806 161.9771L799.8306 161.9771C 800.2706 161.9771 800.5206 161.9771 800.7606 161.9371C 800.7206 162.1504 800.7206 162.4371 800.7206 162.8771L800.7206 162.8771L800.7206 164.7571L800.7206 164.7571L801.4906 164.7571C 802.0239 164.7571 802.3073 164.7404 802.6406 164.6871L802.6406 164.6871L802.6406 165.4671C 802.3206 165.4271 802.0073 165.3971 801.5006 165.3971zM797.7106 165.3971L797.7106 167.3671L797.7106 167.3671L800.1306 167.3671L800.1306 167.3671L800.1306 165.3971zM797.7106 164.7571L800.1306 164.7571L800.1306 164.7571L800.1306 162.6171L800.1306 162.6171L797.7106 162.6171zM801.9106 170.3971C 801.2706 169.7704 800.8606 169.4538 800.0206 168.9471L800.0206 168.9471L800.4706 168.4171C 801.2039 168.9104 801.6273 169.2338 802.3206 169.8871zM798.0206 168.8871C 796.8606 169.2871 795.9406 169.7271 795.1006 170.2871C 794.8473 170.4604 794.7273 170.5571 794.6206 170.6771L794.6206 170.6771L794.1106 170.0671C 794.2706 170.0004 794.3239 169.9771 794.7106 169.7371C 795.6039 169.2171 796.3339 168.8671 797.5206 168.3871z" stroke="none" fill="#333332" fill-rule="evenodd" /></g><g transform="matrix(0.5141461 0 0 0.5141885 56.69291 56.73438)"><g transform="matrix(1 0 0 1 0 0)"><image x="0" y="0" xlink:href="img_11.png" width="1450" height="969" /></g></g><path id="5" transform="matrix(1 0 0 -1 0 612)" d="M795.6525 512.7216L801.3347 512.7216L801.3347 512.7216L801.3347 514.8442L801.3347 514.8442L802.0949 514.8442L802.0949 514.8442L802.0949 509.7377L802.0949 509.7377L801.3347 509.7377L801.3347 509.7377L801.3347 511.8691L801.3347 511.8691L795.6525 511.8691z" stroke="none" fill="#323232" fill-rule="evenodd" /><path id="6" transform="matrix(1 0 0 -1 0 612)" d="M795.6525 508.5965L800.3195 510.0247L800.3195 510.0247L800.3195 509.2074L800.3195 509.2074L797.6257 508.4647L797.6257 508.4647L796.6237 508.1878C 796.6735 508.1761 796.9943 508.0956 797.5861 507.9461L797.5861 507.9461L800.3195 507.2035L800.3195 507.2035L800.3195 506.3905L800.3195 506.3905L797.6125 505.6917L797.6125 505.6917L796.7204 505.4588L796.7204 505.4588L797.6213 505.1908L797.6213 505.1908L800.3195 504.391L800.3195 504.391L800.3195 503.6219L800.3195 503.6219L795.6525 505.0809L795.6525 505.0809L795.6525 505.9027L795.6525 505.9027L798.4474 506.6454L798.4474 506.6454L799.2429 506.8255L799.2429 506.8255L795.6525 507.7704z" stroke="none" fill="#323232" fill-rule="evenodd" /><path id="7" transform="matrix(1 0 0 -1 0 612)" d="M797.986 503.2543C 798.8503 503.2543 799.4904 503.0141 799.9064 502.5336C 800.2521 502.1322 800.425 501.643 800.425 501.0658C 800.425 499.7826 799.5344 498.8817 798.0519 498.8817C 797.4514 498.8817 796.9789 498.9718 796.6347 499.152C 796.2905 499.3322 796.0231 499.5944 795.8327 499.9386C 795.6423 500.2829 795.5471 500.6586 795.5471 501.0658C 795.5471 502.3725 796.4099 503.2543 797.986 503.2543zM797.986 502.4413C 796.7907 502.4413 796.1974 501.8568 796.1974 501.0658C 796.1974 500.2807 796.7878 499.6947 798.0124 499.6947C 799.1667 499.6947 799.7702 500.2865 799.7702 501.0658C 799.7702 501.8568 799.1813 502.4413 797.986 502.4413z" stroke="none" fill="#323232" fill-rule="evenodd" /><path id="9" transform="matrix(1 0 0 -1 0 612)" d="M795.6525 495.3879L802.0949 495.3879L802.0949 495.3879L802.0949 492.9709C 802.0949 492.4788 802.0297 492.084 801.8994 491.7866C 801.769 491.4893 801.5683 491.2563 801.2973 491.0879C 801.0263 490.9194 800.7429 490.8352 800.447 490.8352C 799.8962 490.8352 799.3791 491.1326 799.0803 491.7361C 798.8517 490.9568 798.2702 490.5232 797.5202 490.5232C 797.2184 490.5232 796.9379 490.5869 796.6786 490.7144C 796.4194 490.8418 796.2194 490.9993 796.0788 491.1868C 795.9382 491.3743 795.832 491.6094 795.7602 491.8921C 795.6884 492.1748 795.6525 492.5212 795.6525 492.9314zM799.3879 494.5354L799.3879 493.1423C 799.3879 492.7644 799.4128 492.4934 799.4626 492.3293C 799.5915 491.8958 799.8947 491.6746 800.3459 491.6746C 800.5598 491.6746 800.748 491.7258 800.9106 491.8284C 801.0732 491.9309 801.1845 492.0774 801.2446 492.2678C 801.3046 492.4583 801.3347 492.7849 801.3347 493.2478L801.3347 493.2478L801.3347 494.5354zM796.4128 494.5354L796.4128 492.9314C 796.4128 492.656 796.423 492.4626 796.4435 492.3513C 796.4787 492.155 796.5373 491.991 796.6193 491.8591C 796.7014 491.7273 796.8207 491.6189 796.9775 491.5339C 797.1342 491.449 797.3151 491.4065 797.5202 491.4065C 797.7604 491.4065 797.9692 491.468 798.1464 491.5911C 798.3237 491.7141 798.4482 491.8848 798.52 492.103C 798.5917 492.3213 798.6276 492.6355 798.6276 493.0457L798.6276 493.0457L798.6276 494.5354z" stroke="none" fill="#323232" fill-rule="evenodd" /><path id="10" transform="matrix(1 0 0 -1 0 612)" d="M795.6525 489.4597L800.3195 489.4597L800.3195 489.4597L800.3195 488.7477L800.3195 488.7477L799.612 488.7477C 800.2741 488.3845 800.425 488.1061 800.425 487.737C 800.425 487.4704 800.34 487.1994 800.1701 486.924L800.1701 486.924L799.4362 487.1965C 799.5505 487.3898 799.6076 487.5832 799.6076 487.7766C 799.6076 488.1223 799.3879 488.4196 799.0187 488.5368C 798.7375 488.6247 798.4299 488.6686 798.0959 488.6686L798.0959 488.6686L795.6525 488.6686z" stroke="none" fill="#323232" fill-rule="evenodd" /><path id="11" transform="matrix(1 0 0 -1 0 612)" d="M797.986 486.7483C 798.8503 486.7483 799.4904 486.5081 799.9064 486.0276C 800.2521 485.6262 800.425 485.137 800.425 484.5598C 800.425 483.2766 799.5344 482.3757 798.0519 482.3757C 797.4514 482.3757 796.9789 482.4658 796.6347 482.646C 796.2905 482.8262 796.0231 483.0884 795.8327 483.4326C 795.6423 483.7769 795.5471 484.1526 795.5471 484.5598C 795.5471 485.8665 796.4099 486.7483 797.986 486.7483zM797.986 485.9353C 796.7907 485.9353 796.1974 485.3508 796.1974 484.5598C 796.1974 483.7747 796.7878 483.1887 798.0124 483.1887C 799.1667 483.1887 799.7702 483.7805 799.7702 484.5598C 799.7702 485.3508 799.1813 485.9353 797.986 485.9353z" stroke="none" fill="#323232" fill-rule="evenodd" /><path id="12" transform="matrix(1 0 0 -1 0 612)" d="M796.36 479.7228L795.6613 479.6086C 795.6144 479.8312 795.591 480.0304 795.591 480.2062C 795.591 480.4933 795.6364 480.716 795.7272 480.8742C 795.8181 481.0324 795.9374 481.1437 796.0854 481.2082C 796.2333 481.2726 796.5446 481.3048 797.0192 481.3048L797.0192 481.3048L799.7043 481.3048L799.7043 481.3048L799.7043 481.8849L799.7043 481.8849L800.3195 481.8849L800.3195 481.8849L800.3195 481.3048L800.3195 481.3048L801.4753 481.3048L801.4753 481.3048L801.9499 480.5182L801.9499 480.5182L800.3195 480.5182L800.3195 480.5182L800.3195 479.7228L800.3195 479.7228L799.7043 479.7228L799.7043 479.7228L799.7043 480.5182L799.7043 480.5182L796.9753 480.5182C 796.7497 480.5182 796.6047 480.5043 796.5402 480.4765C 796.4758 480.4486 796.4245 480.4032 796.3864 480.3402C 796.3483 480.2773 796.3293 480.1872 796.3293 480.07C 796.3293 479.9821 796.3395 479.8664 796.36 479.7228z" stroke="none" fill="#323232" fill-rule="evenodd" /><path id="13" transform="matrix(1 0 0 -1 0 612)" d="M795.6525 478.9478L802.0949 478.9478L802.0949 478.9478L802.0949 478.1568L802.0949 478.1568L799.7834 478.1568C 800.2111 477.7877 800.425 477.3219 800.425 476.7594C 800.425 476.4137 800.3569 476.1134 800.2206 475.8585C 800.0844 475.6036 799.8962 475.4212 799.6559 475.3114C 799.4157 475.2015 799.0671 475.1466 798.61 475.1466L798.61 475.1466L795.6525 475.1466L795.6525 475.1466L795.6525 475.9376L795.6525 475.9376L798.61 475.9376C 799.4011 475.9376 799.7438 476.295 799.7438 476.922C 799.7438 477.1563 799.683 477.3768 799.5615 477.5833C 799.4399 477.7899 799.2751 477.9371 799.0671 478.025C 798.8591 478.1129 798.572 478.1568 798.2057 478.1568L798.2057 478.1568L795.6525 478.1568z" stroke="none" fill="#323232" fill-rule="evenodd" /><path id="14" transform="matrix(1 0 0 -1 0 612)" d="M797.1555 470.749L797.0544 469.9316C 796.0993 470.1895 795.5471 470.8999 795.5471 471.9839C 795.5471 473.3491 796.4289 474.2075 797.9465 474.2075C 799.5168 474.2075 800.425 473.3169 800.425 472.0278C 800.425 470.7798 799.5358 469.9053 797.9948 469.9053C 797.9479 469.9053 797.8776 469.9067 797.7839 469.9097L797.7839 469.9097L797.7839 473.3901C 796.7585 473.3315 796.1974 472.7588 796.1974 471.9795C 796.1974 471.3994 796.4875 470.9893 797.1555 470.749zM798.4343 473.3462L798.4343 470.7402C 798.8268 470.7754 799.1213 470.875 799.3176 471.0391C 799.6223 471.291 799.7746 471.6177 799.7746 472.019C 799.7746 472.7456 799.2487 473.2935 798.4343 473.3462z" stroke="none" fill="#323232" fill-rule="evenodd" /><path id="15" transform="matrix(1 0 0 -1 0 612)" d="M795.6525 468.9486L800.3195 468.9486L800.3195 468.9486L800.3195 468.2367L800.3195 468.2367L799.612 468.2367C 800.2741 467.8734 800.425 467.5951 800.425 467.226C 800.425 466.9594 800.34 466.6884 800.1701 466.413L800.1701 466.413L799.4362 466.6855C 799.5505 466.8788 799.6076 467.0722 799.6076 467.2655C 799.6076 467.6112 799.3879 467.9086 799.0187 468.0258C 798.7375 468.1137 798.4299 468.1576 798.0959 468.1576L798.0959 468.1576L795.6525 468.1576z" stroke="none" fill="#323232" fill-rule="evenodd" /><path id="16" transform="matrix(1 0 0 -1 0 612)" d="M797.0456 466.2593L797.1686 465.4771C 796.5417 465.3892 796.1974 464.9893 796.1974 464.2686C 796.1974 463.542 796.5417 463.1963 796.9401 463.1963C 797.1188 463.1963 797.2595 463.2739 797.362 463.4292C 797.4323 463.5376 797.5217 463.8071 797.6301 464.2378C 797.7766 464.8179 797.9033 465.22 798.0102 465.4441C 798.1171 465.6682 798.2651 465.8381 798.454 465.9539C 798.643 466.0695 798.8517 466.1274 799.0803 466.1274C 799.4963 466.1274 799.8654 465.9238 800.0998 465.5957C 800.2814 465.3496 800.425 464.8955 800.425 464.4092C 800.425 464.043 800.3723 463.7214 800.2668 463.4446C 800.1613 463.1677 800.0185 462.9634 799.8383 462.8315C 799.6581 462.6997 799.4172 462.6089 799.1154 462.5591L799.1154 462.5591L799.0099 463.3325C 799.4904 463.4028 799.7746 463.7368 799.7746 464.3521C 799.7746 465.0786 799.4948 465.3628 799.1725 465.3628C 799.07 465.3628 798.9777 465.3306 798.8957 465.2661C 798.8107 465.2016 798.7404 465.1006 798.6848 464.9629C 798.6555 464.8838 798.5881 464.6509 798.4826 464.2642C 798.3332 463.7046 798.2109 463.3142 798.1157 463.093C 798.0204 462.8718 797.882 462.6982 797.7004 462.5723C 797.5187 462.4463 797.2932 462.3833 797.0236 462.3833C 796.7599 462.3833 796.5117 462.4602 796.2787 462.614C 796.0458 462.7678 795.8657 462.9897 795.7382 463.2798C 795.6108 463.5698 795.5471 463.8979 795.5471 464.2642C 795.5471 465.4771 796.0554 466.0835 797.0456 466.2593z" stroke="none" fill="#323232" fill-rule="evenodd" /></g></g></svg>