<svg xmlns="http://www.w3.org/2000/svg" xmlns:xlink="http://www.w3.org/1999/xlink" id="body_8" preserveAspectRatio="xMinYMin meet" viewBox="0 0 1144 816"><defs><clipPath id="1"><path id="" clip-rule="evenodd" transform="matrix(1 0 0 1 0 0)" d="M0 612L0 -0.28302L0 -0.28302L858.898 -0.28302L858.898 -0.28302L858.898 612L858.898 612L0 612z" /></clipPath><clipPath id="2"><path id="" clip-rule="evenodd" transform="matrix(1 0 0 1 0 0)" d="M0 -0.28302L858.898 -0.28302L858.898 -0.28302L858.898 612L858.898 612L0 612z" /></clipPath><clipPath id="3"><path id="" clip-rule="evenodd" transform="matrix(1 0 0 1 0 0)" d="M429.448 305.697L802.205 305.697L802.205 305.697L802.205 56.57202L802.205 56.57202L429.448 56.57202z" /></clipPath><clipPath id="4"><path id="" clip-rule="evenodd" transform="matrix(1 0 0 1 0 0)" d="M429.448 555.307L802.205 555.307L802.205 555.307L802.205 305.858L802.205 305.858L429.448 305.858z" /></clipPath></defs><g transform="matrix(1.333333 0 0 1.333333 0 0)"><g clip-path="url(#1)"><g clip-path="url(#2)"><path id="1" transform="matrix(1 0 0 -1 0 612)" d="M802.6706 188.9571C 802.1506 189.1171 801.2673 189.4704 800.6806 189.7371C 799.7873 190.1638 799.5806 190.3071 799.4606 190.5871L799.4606 190.5871L798.8806 190.4371C 798.9739 189.9171 798.9806 189.8838 799.0206 189.5371C 799.1006 188.6838 799.0973 188.6838 799.1106 188.5371C 798.1506 189.2171 797.8339 189.4671 797.4206 189.8271C 797.1939 190.0271 797.1306 190.1304 797.0506 190.3571L797.0506 190.3571L796.3906 190.1771C 796.4706 189.8438 796.5106 189.6771 796.5506 189.4371C 796.8706 187.6104 796.9473 187.1771 796.9606 187.0971L796.9606 187.0971L797.5906 187.0271C 797.4173 187.7738 797.3973 187.8471 797.1306 189.3671C 797.8906 188.7271 798.5873 188.1771 799.0806 187.8571C 800.0406 187.2304 800.0506 187.2338 800.4106 186.9671L800.4106 186.9671L800.7306 187.5871C 800.2639 187.8404 800.2206 187.8704 799.6606 188.1771C 799.5806 189.0838 799.5839 189.0804 799.5306 189.7471C 799.7706 189.5871 799.8506 189.5538 800.0506 189.4471C 800.2906 189.3271 801.1439 188.8971 801.2106 188.8571C 802.1306 188.4571 802.1339 188.4538 802.4006 188.3071zM798.4506 185.7771L798.4506 183.3171C 798.4506 182.8904 798.4373 182.6204 798.4106 182.3271C 798.6772 182.3671 798.9406 182.3671 799.3406 182.3671L799.3406 182.3671L801.2306 182.3671C 801.7506 182.3671 801.9439 182.3638 802.2106 182.3371C 802.1706 182.6038 802.1706 182.8871 802.1706 183.2871L802.1706 183.2871L802.1706 185.6871C 802.1706 186.0471 802.1906 186.3371 802.2306 186.6171L802.2306 186.6171L801.5306 186.6171C 801.5573 186.3771 801.5806 186.0871 801.5806 185.6871L801.5806 185.6871L801.5806 182.9971L801.5806 182.9971L799.0306 182.9971L799.0306 182.9971L799.0306 185.4971C 799.0306 185.8838 799.0306 186.1638 799.0706 186.4571C 798.8306 186.4171 798.5773 186.4071 798.1106 186.4071L798.1106 186.4071L794.7206 186.4071C 793.9872 186.4071 793.8806 186.1338 793.8806 184.1871C 793.8806 181.8804 793.9506 181.8004 796.2706 181.5871C 796.3239 181.8271 796.424 182.0571 796.5706 182.2571C 795.504 182.2971 794.9406 182.3771 794.7406 182.5371C 794.5406 182.6971 794.4906 183.0938 794.4906 184.3071C 794.4906 185.6004 794.5406 185.7771 794.8606 185.7771zM795.7206 186.9571C 795.4806 187.6504 795.2506 188.5638 795.0906 189.4571C 795.0106 189.9104 794.9506 190.3838 794.9506 190.5571C 794.9506 190.5838 794.9506 190.6004 794.9506 190.6271L794.9506 190.6271L794.2306 190.4771C 794.2706 190.3571 794.2839 190.3238 794.3506 189.9771C 794.5506 188.8838 794.7906 187.9371 795.0706 186.9771z" stroke="none" fill="#323232" fill-rule="evenodd" /><path id="2" transform="matrix(1 0 0 -1 0 612)" d="M801.6006 177.3271L801.8606 177.3271C 802.114 177.3271 802.3306 177.3171 802.5706 177.2771L802.5706 177.2771L802.5706 177.9971C 802.3306 177.9571 802.1006 177.9371 801.8606 177.9371L801.8606 177.9371L801.6006 177.9371L801.6006 177.9371L801.6006 179.4271C 801.6006 179.9204 801.6206 180.2671 801.6606 180.5471L801.6606 180.5471L800.9906 180.5471C 801.0306 180.2671 801.0406 179.9604 801.0406 179.4271L801.0406 179.4271L801.0406 177.9371L801.0406 177.9371L800.7306 177.9371C 800.4773 177.9371 800.2706 177.9504 800.0706 177.9771L800.0706 177.9771L800.0706 177.2871C 800.2706 177.3271 800.4473 177.3271 800.7406 177.3271L800.7406 177.3271L801.0406 177.3271L801.0406 177.3271L801.0406 175.0171L801.0406 175.0171L800.7306 175.0171C 800.4639 175.0171 800.2839 175.0304 800.0706 175.0571L800.0706 175.0571L800.0706 174.3671C 800.2706 174.4071 800.4506 174.4071 800.7306 174.4071L800.7306 174.4071L801.0406 174.4071L801.0406 174.4071L801.0406 172.8671C 801.0406 172.3471 801.0306 172.0438 800.9906 171.7371L800.9906 171.7371L801.6606 171.7371C 801.6206 172.0438 801.6006 172.3871 801.6006 172.8671L801.6006 172.8671L801.6006 174.4071L801.6006 174.4071L801.8606 174.4071C 802.1006 174.4071 802.3439 174.3971 802.5706 174.3571L802.5706 174.3571L802.5706 175.0771C 802.3306 175.0371 802.1006 175.0171 801.8606 175.0171L801.8606 175.0171L801.6006 175.0171zM798.7206 172.8371C 798.7206 172.4104 798.7006 172.0704 798.6606 171.7371L798.6606 171.7371L799.3506 171.7371C 799.3106 172.0571 799.2906 172.3971 799.2906 172.8371L799.2906 172.8371L799.2906 176.4971C 799.4506 176.4171 799.5206 176.3871 799.6806 176.3071C 800.0139 176.1471 800.0472 176.1204 800.2206 176.0271L800.2206 176.0271L800.3706 176.7671C 800.0106 176.8471 799.7306 176.9404 799.2906 177.1671L799.2906 177.1671L799.2906 179.3771C 799.2906 179.8304 799.3106 180.1904 799.3506 180.4971L799.3506 180.4971L798.6606 180.4971C 798.7006 180.1771 798.7206 179.8171 798.7206 179.3771L798.7206 179.3771L798.7206 177.5071C 797.5606 178.2938 796.8439 179.1138 796.0706 180.5671C 795.8306 180.3271 795.8306 180.3271 795.6306 180.2071C 795.6039 180.2071 795.5706 180.1871 795.5306 180.1471C 796.1172 179.2538 796.2706 179.0571 796.7906 178.4571L796.7906 178.4571L794.6406 178.4571C 794.2273 178.4571 793.9539 178.4771 793.7006 178.5171L793.7006 178.5171L793.7006 177.8171L793.7006 177.8171L794.2606 177.8171L794.2606 177.8171L794.2606 173.5371L794.2606 173.5371L793.6906 173.5371L793.6906 173.5371L793.6906 172.8271C 794.0239 172.8671 794.314 172.8871 794.6206 172.8871L794.6206 172.8871L796.5006 172.8871C 796.8606 172.8871 797.1306 172.8771 797.4506 172.8371C 797.4106 173.0904 797.4006 173.2971 797.4006 173.7771L797.4006 173.7771L797.4006 177.8271C 797.8006 177.4671 798.0939 177.2271 798.7206 176.8271zM796.8406 177.8171L796.8406 173.5371L796.8406 173.5371L794.8306 173.5371L794.8306 173.5371L794.8306 177.8171z" stroke="none" fill="#323232" fill-rule="evenodd" /><path id="3" transform="matrix(1 0 0 -1 0 612)" d="M800.7206 165.3971L800.7206 167.1371C 800.7206 167.5371 800.7206 167.8238 800.7606 168.0371C 800.5073 168.0104 800.2306 167.9971 799.8706 167.9971L799.8706 167.9971L797.6906 167.9971C 797.184 167.9971 796.8906 168.0071 796.5706 168.0471L796.5706 168.0471L796.5706 167.3671L796.5706 167.3671L797.1206 167.3671L797.1206 167.3671L797.1206 165.3971L797.1206 165.3971L794.9406 165.3971C 794.4073 165.3971 794.0773 165.4271 793.7306 165.4671L793.7306 165.4671L793.7306 164.6871C 794.0906 164.7404 794.3806 164.7571 794.9406 164.7571L794.9406 164.7571L797.1206 164.7571L797.1206 164.7571L797.1206 162.6171L797.1206 162.6171L796.5706 162.6171L796.5706 162.6171L796.5706 161.9171C 796.9039 161.9571 797.2139 161.9771 797.6806 161.9771L797.6806 161.9771L799.8306 161.9771C 800.2706 161.9771 800.5206 161.9771 800.7606 161.9371C 800.7206 162.1504 800.7206 162.4371 800.7206 162.8771L800.7206 162.8771L800.7206 164.7571L800.7206 164.7571L801.4906 164.7571C 802.0239 164.7571 802.3073 164.7404 802.6406 164.6871L802.6406 164.6871L802.6406 165.4671C 802.3206 165.4271 802.0073 165.3971 801.5006 165.3971zM797.7106 165.3971L797.7106 167.3671L797.7106 167.3671L800.1306 167.3671L800.1306 167.3671L800.1306 165.3971zM797.7106 164.7571L800.1306 164.7571L800.1306 164.7571L800.1306 162.6171L800.1306 162.6171L797.7106 162.6171zM801.9106 170.3971C 801.2706 169.7704 800.8606 169.4538 800.0206 168.9471L800.0206 168.9471L800.4706 168.4171C 801.2039 168.9104 801.6273 169.2338 802.3206 169.8871zM798.0206 168.8871C 796.8606 169.2871 795.9406 169.7271 795.1006 170.2871C 794.8473 170.4604 794.7273 170.5571 794.6206 170.6771L794.6206 170.6771L794.1106 170.0671C 794.2706 170.0004 794.3239 169.9771 794.7106 169.7371C 795.6039 169.2171 796.3339 168.8671 797.5206 168.3871z" stroke="none" fill="#323232" fill-rule="evenodd" /></g><g transform="matrix(0.5141461 0 0 0.5136584 56.69293 56.57227)"><g transform="matrix(1 0 0 1 0 0)"><image x="0" y="0" xlink:href="img_15.png" width="725" height="485" /></g></g><g transform="matrix(0.5141461 0 0 0.5136584 56.69293 306.0205)"><g transform="matrix(1 0 0 1 0 0)"><image x="0" y="0" xlink:href="img_16.png" width="725" height="485" /></g></g><g clip-path="url(#3)"><g transform="matrix(0.5141461 0 0 0.5136584 429.4489 56.57227)"><g transform="matrix(1 0 0 1 0 0)"><image x="0" y="0" xlink:href="img_17.png" width="725" height="485" /></g></g></g><g clip-path="url(#4)"><g transform="matrix(0.5141067 0 0 0.5132692 429.2061 305.8584)"><g transform="matrix(1 0 0 1 0 0)"><image x="0" y="0" xlink:href="img_18.png" width="726" height="486" /></g></g></g><path id="8" transform="matrix(1 0 0 -1 0 612)" d="M795.6525 511.4861L801.3347 511.4861L801.3347 511.4861L801.3347 513.6086L801.3347 513.6086L802.0949 513.6086L802.0949 513.6086L802.0949 508.5022L802.0949 508.5022L801.3347 508.5022L801.3347 508.5022L801.3347 510.6335L801.3347 510.6335L795.6525 510.6335z" stroke="none" fill="#323131" fill-rule="evenodd" /><path id="9" transform="matrix(1 0 0 -1 0 612)" d="M795.6525 507.361L800.3195 508.7892L800.3195 508.7892L800.3195 507.9718L800.3195 507.9718L797.6257 507.2292L797.6257 507.2292L796.6237 506.9523C 796.6735 506.9406 796.9943 506.86 797.5861 506.7106L797.5861 506.7106L800.3195 505.9679L800.3195 505.9679L800.3195 505.1549L800.3195 505.1549L797.6125 504.4562L797.6125 504.4562L796.7204 504.2233L796.7204 504.2233L797.6213 503.9552L797.6213 503.9552L800.3195 503.1554L800.3195 503.1554L800.3195 502.3864L800.3195 502.3864L795.6525 503.8454L795.6525 503.8454L795.6525 504.6671L795.6525 504.6671L798.4474 505.4098L798.4474 505.4098L799.2429 505.59L799.2429 505.59L795.6525 506.5348z" stroke="none" fill="#323131" fill-rule="evenodd" /><path id="10" transform="matrix(1 0 0 -1 0 612)" d="M797.986 502.0188C 798.8503 502.0188 799.4904 501.7785 799.9064 501.2981C 800.2521 500.8967 800.425 500.4074 800.425 499.8303C 800.425 498.5471 799.5344 497.6462 798.0519 497.6462C 797.4514 497.6462 796.9789 497.7363 796.6347 497.9165C 796.2905 498.0966 796.0231 498.3589 795.8327 498.7031C 795.6423 499.0473 795.5471 499.4231 795.5471 499.8303C 795.5471 501.1369 796.4099 502.0188 797.986 502.0188zM797.986 501.2058C 796.7907 501.2058 796.1974 500.6213 796.1974 499.8303C 796.1974 499.0451 796.7878 498.4592 798.0124 498.4592C 799.1667 498.4592 799.7702 499.051 799.7702 499.8303C 799.7702 500.6213 799.1813 501.2058 797.986 501.2058z" stroke="none" fill="#323131" fill-rule="evenodd" /><path id="12" transform="matrix(1 0 0 -1 0 612)" d="M795.6525 494.1524L802.0949 494.1524L802.0949 494.1524L802.0949 491.7354C 802.0949 491.2432 802.0297 490.8484 801.8994 490.5511C 801.769 490.2537 801.5683 490.0208 801.2973 489.8524C 801.0263 489.6839 800.7429 489.5997 800.447 489.5997C 799.8962 489.5997 799.3791 489.897 799.0803 490.5005C 798.8517 489.7213 798.2702 489.2877 797.5202 489.2877C 797.2184 489.2877 796.9379 489.3514 796.6786 489.4788C 796.4194 489.6063 796.2194 489.7637 796.0788 489.9512C 795.9382 490.1387 795.832 490.3738 795.7602 490.6566C 795.6884 490.9393 795.6525 491.2857 795.6525 491.6959zM799.3879 493.2999L799.3879 491.9068C 799.3879 491.5289 799.4128 491.2579 799.4626 491.0938C 799.5915 490.6602 799.8947 490.439 800.3459 490.439C 800.5598 490.439 800.748 490.4903 800.9106 490.5928C 801.0732 490.6954 801.1845 490.8419 801.2446 491.0323C 801.3046 491.2227 801.3347 491.5494 801.3347 492.0123L801.3347 492.0123L801.3347 493.2999zM796.4128 493.2999L796.4128 491.6959C 796.4128 491.4205 796.423 491.2271 796.4435 491.1158C 796.4787 490.9195 796.5373 490.7554 796.6193 490.6236C 796.7014 490.4918 796.8207 490.3834 796.9775 490.2984C 797.1342 490.2134 797.3151 490.171 797.5202 490.171C 797.7604 490.171 797.9692 490.2325 798.1464 490.3555C 798.3237 490.4786 798.4482 490.6492 798.52 490.8675C 798.5917 491.0858 798.6276 491.4 798.6276 491.8101L798.6276 491.8101L798.6276 493.2999z" stroke="none" fill="#323131" fill-rule="evenodd" /><path id="13" transform="matrix(1 0 0 -1 0 612)" d="M795.6525 488.2241L800.3195 488.2241L800.3195 488.2241L800.3195 487.5122L800.3195 487.5122L799.612 487.5122C 800.2741 487.1489 800.425 486.8706 800.425 486.5015C 800.425 486.2349 800.34 485.9639 800.1701 485.6885L800.1701 485.6885L799.4362 485.9609C 799.5505 486.1543 799.6076 486.3477 799.6076 486.541C 799.6076 486.8867 799.3879 487.1841 799.0187 487.3013C 798.7375 487.3892 798.4299 487.4331 798.0959 487.4331L798.0959 487.4331L795.6525 487.4331z" stroke="none" fill="#323131" fill-rule="evenodd" /><path id="14" transform="matrix(1 0 0 -1 0 612)" d="M797.986 485.5128C 798.8503 485.5128 799.4904 485.2725 799.9064 484.7921C 800.2521 484.3907 800.425 483.9014 800.425 483.3243C 800.425 482.0411 799.5344 481.1402 798.0519 481.1402C 797.4514 481.1402 796.9789 481.2303 796.6347 481.4105C 796.2905 481.5906 796.0231 481.8528 795.8327 482.1971C 795.6423 482.5413 795.5471 482.9171 795.5471 483.3243C 795.5471 484.6309 796.4099 485.5128 797.986 485.5128zM797.986 484.6998C 796.7907 484.6998 796.1974 484.1153 796.1974 483.3243C 796.1974 482.5391 796.7878 481.9532 798.0124 481.9532C 799.1667 481.9532 799.7702 482.545 799.7702 483.3243C 799.7702 484.1153 799.1813 484.6998 797.986 484.6998z" stroke="none" fill="#323131" fill-rule="evenodd" /><path id="15" transform="matrix(1 0 0 -1 0 612)" d="M796.36 478.4873L795.6613 478.373C 795.6144 478.5957 795.591 478.7949 795.591 478.9707C 795.591 479.2578 795.6364 479.4804 795.7272 479.6386C 795.8181 479.7968 795.9374 479.9082 796.0854 479.9726C 796.2333 480.0371 796.5446 480.0693 797.0192 480.0693L797.0192 480.0693L799.7043 480.0693L799.7043 480.0693L799.7043 480.6494L799.7043 480.6494L800.3195 480.6494L800.3195 480.6494L800.3195 480.0693L800.3195 480.0693L801.4753 480.0693L801.4753 480.0693L801.9499 479.2827L801.9499 479.2827L800.3195 479.2827L800.3195 479.2827L800.3195 478.4873L800.3195 478.4873L799.7043 478.4873L799.7043 478.4873L799.7043 479.2827L799.7043 479.2827L796.9753 479.2827C 796.7497 479.2827 796.6047 479.2688 796.5402 479.2409C 796.4758 479.2131 796.4245 479.1677 796.3864 479.1047C 796.3483 479.0417 796.3293 478.9516 796.3293 478.8344C 796.3293 478.7466 796.3395 478.6308 796.36 478.4873z" stroke="none" fill="#323131" fill-rule="evenodd" /><path id="16" transform="matrix(1 0 0 -1 0 612)" d="M795.6525 477.7123L802.0949 477.7123L802.0949 477.7123L802.0949 476.9213L802.0949 476.9213L799.7834 476.9213C 800.2111 476.5522 800.425 476.0863 800.425 475.5238C 800.425 475.1781 800.3569 474.8778 800.2206 474.623C 800.0844 474.3681 799.8962 474.1857 799.6559 474.0758C 799.4157 473.966 799.0671 473.911 798.61 473.911L798.61 473.911L795.6525 473.911L795.6525 473.911L795.6525 474.7021L795.6525 474.7021L798.61 474.7021C 799.4011 474.7021 799.7438 475.0595 799.7438 475.6864C 799.7438 475.9208 799.683 476.1413 799.5615 476.3478C 799.4399 476.5544 799.2751 476.7016 799.0671 476.7895C 798.8591 476.8773 798.572 476.9213 798.2057 476.9213L798.2057 476.9213L795.6525 476.9213z" stroke="none" fill="#323131" fill-rule="evenodd" /><path id="17" transform="matrix(1 0 0 -1 0 612)" d="M797.1555 469.5135L797.0544 468.6961C 796.0993 468.9539 795.5471 469.6644 795.5471 470.7484C 795.5471 472.1136 796.4289 472.972 797.9465 472.972C 799.5168 472.972 800.425 472.0814 800.425 470.7923C 800.425 469.5443 799.5358 468.6697 797.9948 468.6697C 797.9479 468.6697 797.8776 468.6712 797.7839 468.6741L797.7839 468.6741L797.7839 472.1546C 796.7585 472.096 796.1974 471.5233 796.1974 470.744C 796.1974 470.1639 796.4875 469.7537 797.1555 469.5135zM798.4343 472.1107L798.4343 469.5047C 798.8268 469.5399 799.1213 469.6395 799.3176 469.8035C 799.6223 470.0555 799.7746 470.3821 799.7746 470.7835C 799.7746 471.5101 799.2487 472.0579 798.4343 472.1107z" stroke="none" fill="#323131" fill-rule="evenodd" /><path id="18" transform="matrix(1 0 0 -1 0 612)" d="M795.6525 467.7131L800.3195 467.7131L800.3195 467.7131L800.3195 467.0012L800.3195 467.0012L799.612 467.0012C 800.2741 466.6379 800.425 466.3596 800.425 465.9904C 800.425 465.7238 800.34 465.4529 800.1701 465.1775L800.1701 465.1775L799.4362 465.4499C 799.5505 465.6433 799.6076 465.8366 799.6076 466.03C 799.6076 466.3757 799.3879 466.6731 799.0187 466.7903C 798.7375 466.8781 798.4299 466.9221 798.0959 466.9221L798.0959 466.9221L795.6525 466.9221z" stroke="none" fill="#323131" fill-rule="evenodd" /><path id="19" transform="matrix(1 0 0 -1 0 612)" d="M797.0456 465.0237L797.1686 464.2415C 796.5417 464.1536 796.1974 463.7537 796.1974 463.033C 796.1974 462.3065 796.5417 461.9608 796.9401 461.9608C 797.1188 461.9608 797.2595 462.0384 797.362 462.1937C 797.4323 462.3021 797.5217 462.5716 797.6301 463.0023C 797.7766 463.5823 797.9033 463.9844 798.0102 464.2086C 798.1171 464.4327 798.2651 464.6026 798.454 464.7183C 798.643 464.834 798.8517 464.8919 799.0803 464.8919C 799.4963 464.8919 799.8654 464.6883 800.0998 464.3602C 800.2814 464.1141 800.425 463.66 800.425 463.1736C 800.425 462.8074 800.3723 462.4859 800.2668 462.209C 800.1613 461.9322 800.0185 461.7278 799.8383 461.596C 799.6581 461.4642 799.4172 461.3733 799.1154 461.3235L799.1154 461.3235L799.0099 462.097C 799.4904 462.1673 799.7746 462.5013 799.7746 463.1165C 799.7746 463.843 799.4948 464.1273 799.1725 464.1273C 799.07 464.1273 798.9777 464.095 798.8957 464.0306C 798.8107 463.9661 798.7404 463.865 798.6848 463.7274C 798.6555 463.6483 798.5881 463.4153 798.4826 463.0286C 798.3332 462.4691 798.2109 462.0786 798.1157 461.8575C 798.0204 461.6363 797.882 461.4627 797.7004 461.3367C 797.5187 461.2107 797.2932 461.1478 797.0236 461.1478C 796.7599 461.1478 796.5117 461.2247 796.2787 461.3785C 796.0458 461.5323 795.8657 461.7542 795.7382 462.0443C 795.6108 462.3343 795.5471 462.6624 795.5471 463.0286C 795.5471 464.2415 796.0554 464.848 797.0456 465.0237z" stroke="none" fill="#323131" fill-rule="evenodd" /></g></g></svg>