<svg xmlns="http://www.w3.org/2000/svg" xmlns:xlink="http://www.w3.org/1999/xlink" id="body_7" preserveAspectRatio="xMinYMin meet" viewBox="0 0 1144 816"><defs><clipPath id="1"><path id="" clip-rule="evenodd" transform="matrix(1 0 0 1 0 0)" d="M0 612L0 -0.28302L0 -0.28302L858.898 -0.28302L858.898 -0.28302L858.898 612L858.898 612L0 612z" /></clipPath><clipPath id="2"><path id="" clip-rule="evenodd" transform="matrix(1 0 0 1 0 0)" d="M0 -0.28302L858.898 -0.28302L858.898 -0.28302L858.898 612L858.898 612L0 612z" /></clipPath></defs><g transform="matrix(1.333333 0 0 1.333333 0 0)"><g clip-path="url(#1)"><g clip-path="url(#2)"><path id="1" transform="matrix(1 0 0 -1 0 612)" d="M56.0365 141.0576C 56.5565 140.8976 57.43983 140.5443 58.0265 140.2776C 58.91983 139.8509 59.1265 139.7076 59.2465 139.4276L59.2465 139.4276L59.8265 139.5776C 59.73317 140.0976 59.7265 140.1309 59.6865 140.4776C 59.6065 141.3309 59.60984 141.3309 59.5965 141.4776C 60.5565 140.7976 60.87317 140.5476 61.2865 140.1876C 61.51317 139.9876 61.5765 139.8843 61.6565 139.6576L61.6565 139.6576L62.3165 139.8376C 62.2365 140.1709 62.1965 140.3376 62.1565 140.5776C 61.8365 142.4043 61.75983 142.8376 61.7465 142.9176L61.7465 142.9176L61.1165 142.9876C 61.28984 142.2409 61.30984 142.1676 61.5765 140.6476C 60.8165 141.2876 60.11983 141.8376 59.6265 142.1576C 58.6665 142.7843 58.6565 142.7809 58.2965 143.0476L58.2965 143.0476L57.9765 142.4276C 58.44317 142.1743 58.4865 142.1443 59.0465 141.8376C 59.1265 140.9309 59.12317 140.9343 59.1765 140.2676C 58.9365 140.4276 58.8565 140.4609 58.6565 140.5676C 58.4165 140.6876 57.56317 141.1176 57.4965 141.1576C 56.5765 141.5576 56.57317 141.5609 56.3065 141.7076zM60.2565 144.2376L60.2565 146.6976C 60.2565 147.1243 60.26984 147.3943 60.2965 147.6876C 60.02983 147.6476 59.7665 147.6476 59.3665 147.6476L59.3665 147.6476L57.4765 147.6476C 56.9565 147.6476 56.76317 147.6509 56.4965 147.6776C 56.5365 147.4109 56.5365 147.1276 56.5365 146.7276L56.5365 146.7276L56.5365 144.3276C 56.5365 143.9676 56.5165 143.6776 56.4765 143.3976L56.4765 143.3976L57.1765 143.3976C 57.14983 143.6376 57.1265 143.9276 57.1265 144.3276L57.1265 144.3276L57.1265 147.0176L57.1265 147.0176L59.6765 147.0176L59.6765 147.0176L59.6765 144.5176C 59.6765 144.1309 59.6765 143.8509 59.6365 143.5576C 59.8765 143.5976 60.12984 143.6076 60.5965 143.6076L60.5965 143.6076L63.9865 143.6076C 64.71983 143.6076 64.8265 143.8809 64.8265 145.8276C 64.8265 148.1343 64.7565 148.2143 62.4365 148.4276C 62.38317 148.1876 62.28317 147.9576 62.1365 147.7576C 63.20317 147.7176 63.7665 147.6376 63.9665 147.4776C 64.1665 147.3176 64.2165 146.9209 64.2165 145.7076C 64.2165 144.4143 64.1665 144.2376 63.8465 144.2376zM62.9865 143.0576C 63.2265 142.3643 63.4565 141.4509 63.6165 140.5576C 63.6965 140.1043 63.7565 139.6309 63.7565 139.4576C 63.7565 139.4309 63.7565 139.4143 63.7565 139.3876L63.7565 139.3876L64.4765 139.5376C 64.4365 139.6576 64.42317 139.6909 64.3565 140.0376C 64.1565 141.1309 63.9165 142.0776 63.6365 143.0376z" stroke="none" fill="#323232" fill-rule="evenodd" /><path id="2" transform="matrix(1 0 0 -1 0 612)" d="M57.1065 152.6876L56.8465 152.6876C 56.59317 152.6876 56.3765 152.6976 56.1365 152.7376L56.1365 152.7376L56.1365 152.0176C 56.3765 152.0576 56.6065 152.0776 56.8465 152.0776L56.8465 152.0776L57.1065 152.0776L57.1065 152.0776L57.1065 150.5876C 57.1065 150.0943 57.0865 149.7476 57.0465 149.4676L57.0465 149.4676L57.7165 149.4676C 57.6765 149.7476 57.6665 150.0543 57.6665 150.5876L57.6665 150.5876L57.6665 152.0776L57.6665 152.0776L57.9765 152.0776C 58.22984 152.0776 58.4365 152.0643 58.6365 152.0376L58.6365 152.0376L58.6365 152.7276C 58.4365 152.6876 58.25983 152.6876 57.9665 152.6876L57.9665 152.6876L57.6665 152.6876L57.6665 152.6876L57.6665 154.9976L57.6665 154.9976L57.9765 154.9976C 58.24317 154.9976 58.42317 154.9843 58.6365 154.9576L58.6365 154.9576L58.6365 155.6476C 58.4365 155.6076 58.2565 155.6076 57.9765 155.6076L57.9765 155.6076L57.6665 155.6076L57.6665 155.6076L57.6665 157.1476C 57.6665 157.6676 57.6765 157.9709 57.7165 158.2776L57.7165 158.2776L57.0465 158.2776C 57.0865 157.9709 57.1065 157.6276 57.1065 157.1476L57.1065 157.1476L57.1065 155.6076L57.1065 155.6076L56.8465 155.6076C 56.6065 155.6076 56.36317 155.6176 56.1365 155.6576L56.1365 155.6576L56.1365 154.9376C 56.3765 154.9776 56.6065 154.9976 56.8465 154.9976L56.8465 154.9976L57.1065 154.9976zM59.9865 157.1776C 59.9865 157.6043 60.0065 157.9443 60.0465 158.2776L60.0465 158.2776L59.3565 158.2776C 59.3965 157.9576 59.4165 157.6176 59.4165 157.1776L59.4165 157.1776L59.4165 153.5176C 59.2565 153.5976 59.1865 153.6276 59.0265 153.7076C 58.69317 153.8676 58.65984 153.8943 58.4865 153.9876L58.4865 153.9876L58.3365 153.2476C 58.6965 153.1676 58.9765 153.0743 59.4165 152.8476L59.4165 152.8476L59.4165 150.6376C 59.4165 150.1843 59.3965 149.8243 59.3565 149.5176L59.3565 149.5176L60.0465 149.5176C 60.0065 149.8376 59.9865 150.1976 59.9865 150.6376L59.9865 150.6376L59.9865 152.5076C 61.1465 151.7209 61.86317 150.9009 62.6365 149.4476C 62.8765 149.6876 62.8765 149.6876 63.0765 149.8076C 63.10317 149.8076 63.1365 149.8276 63.1765 149.8676C 62.58984 150.7609 62.4365 150.9576 61.9165 151.5576L61.9165 151.5576L64.06651 151.5576C 64.47984 151.5576 64.75317 151.5376 65.0065 151.4976L65.0065 151.4976L65.0065 152.1976L65.0065 152.1976L64.4465 152.1976L64.4465 152.1976L64.4465 156.4776L64.4465 156.4776L65.0165 156.4776L65.0165 156.4776L65.0165 157.1876C 64.68317 157.1476 64.39317 157.1276 64.0865 157.1276L64.0865 157.1276L62.2065 157.1276C 61.8465 157.1276 61.5765 157.1376 61.2565 157.1776C 61.2965 156.9243 61.3065 156.7176 61.3065 156.2376L61.3065 156.2376L61.3065 152.1876C 60.9065 152.5476 60.61317 152.7876 59.9865 153.1876zM61.8665 152.1976L61.8665 156.4776L61.8665 156.4776L63.8765 156.4776L63.8765 156.4776L63.8765 152.1976z" stroke="none" fill="#323232" fill-rule="evenodd" /><path id="3" transform="matrix(1 0 0 -1 0 612)" d="M57.9865 164.6176L57.9865 162.8776C 57.9865 162.4776 57.9865 162.1909 57.9465 161.9776C 58.19984 162.0043 58.4765 162.0176 58.8365 162.0176L58.8365 162.0176L61.0165 162.0176C 61.52317 162.0176 61.8165 162.0076 62.1365 161.9676L62.1365 161.9676L62.1365 162.6476L62.1365 162.6476L61.5865 162.6476L61.5865 162.6476L61.5865 164.6176L61.5865 164.6176L63.7665 164.6176C 64.29984 164.6176 64.62984 164.5876 64.9765 164.5476L64.9765 164.5476L64.9765 165.3276C 64.6165 165.2743 64.3265 165.2576 63.7665 165.2576L63.7665 165.2576L61.5865 165.2576L61.5865 165.2576L61.5865 167.3976L61.5865 167.3976L62.1365 167.3976L62.1365 167.3976L62.1365 168.0976C 61.80317 168.0576 61.49317 168.0376 61.0265 168.0376L61.0265 168.0376L58.8765 168.0376C 58.4365 168.0376 58.1865 168.0376 57.9465 168.0776C 57.9865 167.8643 57.9865 167.5776 57.9865 167.1376L57.9865 167.1376L57.9865 165.2576L57.9865 165.2576L57.2165 165.2576C 56.68317 165.2576 56.39983 165.2743 56.0665 165.3276L56.0665 165.3276L56.0665 164.5476C 56.3865 164.5876 56.69984 164.6176 57.2065 164.6176zM60.9965 164.6176L60.9965 162.6476L60.9965 162.6476L58.5765 162.6476L58.5765 162.6476L58.5765 164.6176zM60.9965 165.2576L58.5765 165.2576L58.5765 165.2576L58.5765 167.3976L58.5765 167.3976L60.9965 167.3976zM56.7965 159.6176C 57.4365 160.2443 57.8465 160.5609 58.6865 161.0676L58.6865 161.0676L58.2365 161.5976C 57.50317 161.1043 57.07983 160.7809 56.3865 160.1276zM60.6865 161.1276C 61.8465 160.7276 62.7665 160.2876 63.6065 159.7276C 63.85984 159.5543 63.97984 159.4576 64.0865 159.3376L64.0865 159.3376L64.5965 159.9476C 64.4365 160.0143 64.38317 160.0376 63.9965 160.2776C 63.10317 160.7976 62.37317 161.1476 61.1865 161.6276z" stroke="none" fill="#323232" fill-rule="evenodd" /></g><g transform="matrix(0.5141461 0 0 0.5141885 56.69291 56.73438)"><g transform="matrix(1 0 0 1 0 0)"><image x="0" y="0" xlink:href="img_13.png" width="1450" height="969" /></g></g><path id="5" transform="matrix(1 0 0 -1 0 612)" d="M63.2452 464.3807L57.56307 464.3807L57.56307 464.3807L57.56307 462.2581L57.56307 462.2581L56.80282 462.2581L56.80282 462.2581L56.80282 467.3646L56.80282 467.3646L57.56307 467.3646L57.56307 467.3646L57.56307 465.2332L57.56307 465.2332L63.2452 465.2332z" stroke="none" fill="#323232" fill-rule="evenodd" /><path id="6" transform="matrix(1 0 0 -1 0 612)" d="M63.2452 468.5058L58.57821 467.0776L58.57821 467.0776L58.57821 467.895L58.57821 467.895L61.27206 468.6376L61.27206 468.6376L62.27401 468.9145C 62.22421 468.9262 61.9034 469.0068 61.31161 469.1562L61.31161 469.1562L58.57821 469.8989L58.57821 469.8989L58.57821 470.7119L58.57821 470.7119L61.28524 471.4106L61.28524 471.4106L62.17733 471.6435L62.17733 471.6435L61.27645 471.9116L61.27645 471.9116L58.57821 472.7114L58.57821 472.7114L58.57821 473.4804L58.57821 473.4804L63.2452 472.0214L63.2452 472.0214L63.2452 471.1996L63.2452 471.1996L60.45028 470.457L60.45028 470.457L59.65487 470.2768L59.65487 470.2768L63.2452 469.332z" stroke="none" fill="#323232" fill-rule="evenodd" /><path id="7" transform="matrix(1 0 0 -1 0 612)" d="M60.91171 473.848C 60.04745 473.848 59.40731 474.0883 58.99129 474.5687C 58.64559 474.9701 58.47274 475.4594 58.47274 476.0365C 58.47274 477.3197 59.36337 478.2206 60.84579 478.2206C 61.44637 478.2206 61.91879 478.1305 62.26302 477.9503C 62.60726 477.7701 62.8746 477.5079 63.06503 477.1637C 63.25546 476.8195 63.35067 476.4437 63.35067 476.0365C 63.35067 474.7299 62.48788 473.848 60.91171 473.848zM60.91171 474.661C 62.10702 474.661 62.70028 475.2455 62.70028 476.0365C 62.70028 476.8217 62.10995 477.4076 60.88534 477.4076C 59.73104 477.4076 59.12753 476.8158 59.12753 476.0365C 59.12753 475.2455 59.71639 474.661 60.91171 474.661z" stroke="none" fill="#323232" fill-rule="evenodd" /><path id="9" transform="matrix(1 0 0 -1 0 612)" d="M63.2452 481.7144L56.80282 481.7144L56.80282 481.7144L56.80282 484.1314C 56.80282 484.6236 56.868 485.0183 56.99837 485.3157C 57.12875 485.6131 57.32943 485.846 57.60043 486.0144C 57.87142 486.1829 58.15487 486.2671 58.45077 486.2671C 59.00155 486.2671 59.51864 485.9698 59.81747 485.3662C 60.04598 486.1455 60.62753 486.5791 61.37753 486.5791C 61.67928 486.5791 61.9598 486.5154 62.21908 486.388C 62.47836 486.2605 62.67831 486.1031 62.81893 485.9156C 62.95956 485.7281 63.06576 485.493 63.13754 485.2102C 63.20931 484.9275 63.2452 484.5811 63.2452 484.1709zM59.50985 482.5669L59.50985 483.96C 59.50985 484.3379 59.48495 484.6089 59.43514 484.773C 59.30624 485.2066 59.00301 485.4278 58.55184 485.4278C 58.33797 485.4278 58.14974 485.3765 57.98714 485.274C 57.82455 485.1714 57.71322 485.0249 57.65316 484.8345C 57.5931 484.6441 57.56307 484.3174 57.56307 483.8545L57.56307 483.8545L57.56307 482.5669zM62.48495 482.5669L62.48495 484.1709C 62.48495 484.4463 62.47469 484.6397 62.45419 484.751C 62.41903 484.9473 62.36044 485.1114 62.2784 485.2432C 62.19637 485.375 62.07699 485.4834 61.92025 485.5684C 61.76351 485.6534 61.5826 485.6958 61.37753 485.6958C 61.13729 485.6958 60.92855 485.6343 60.7513 485.5113C 60.57406 485.3882 60.44955 485.2176 60.37777 484.9993C 60.30599 484.781 60.2701 484.4668 60.2701 484.0567L60.2701 484.0567L60.2701 482.5669z" stroke="none" fill="#323232" fill-rule="evenodd" /><path id="10" transform="matrix(1 0 0 -1 0 612)" d="M63.2452 487.6427L58.57821 487.6427L58.57821 487.6427L58.57821 488.3546L58.57821 488.3546L59.28573 488.3546C 58.62362 488.7179 58.47274 488.9962 58.47274 489.3653C 58.47274 489.6319 58.5577 489.9029 58.72762 490.1783L58.72762 490.1783L59.46151 489.9059C 59.34725 489.7125 59.29012 489.5191 59.29012 489.3258C 59.29012 488.9801 59.50985 488.6827 59.87899 488.5655C 60.16024 488.4776 60.46786 488.4337 60.80184 488.4337L60.80184 488.4337L63.2452 488.4337z" stroke="none" fill="#323232" fill-rule="evenodd" /><path id="11" transform="matrix(1 0 0 -1 0 612)" d="M60.91171 490.354C 60.04745 490.354 59.40731 490.5943 58.99129 491.0747C 58.64559 491.4761 58.47274 491.9654 58.47274 492.5425C 58.47274 493.8257 59.36337 494.7266 60.84579 494.7266C 61.44637 494.7266 61.91879 494.6365 62.26302 494.4563C 62.60726 494.2762 62.8746 494.0139 63.06503 493.6697C 63.25546 493.3255 63.35067 492.9497 63.35067 492.5425C 63.35067 491.2359 62.48788 490.354 60.91171 490.354zM60.91171 491.167C 62.10702 491.167 62.70028 491.7515 62.70028 492.5425C 62.70028 493.3277 62.10995 493.9136 60.88534 493.9136C 59.73104 493.9136 59.12753 493.3218 59.12753 492.5425C 59.12753 491.7515 59.71639 491.167 60.91171 491.167z" stroke="none" fill="#323232" fill-rule="evenodd" /><path id="12" transform="matrix(1 0 0 -1 0 612)" d="M62.53768 497.3795L63.23641 497.4938C 63.28329 497.2711 63.30672 497.0719 63.30672 496.8961C 63.30672 496.609 63.26131 496.3864 63.17049 496.2281C 63.07967 496.0699 62.96029 495.9586 62.81234 495.8942C 62.66439 495.8297 62.35311 495.7975 61.8785 495.7975L61.8785 495.7975L59.19344 495.7975L59.19344 495.7975L59.19344 495.2174L59.19344 495.2174L58.57821 495.2174L58.57821 495.2174L58.57821 495.7975L58.57821 495.7975L57.42245 495.7975L57.42245 495.7975L56.94784 496.5841L56.94784 496.5841L58.57821 496.5841L58.57821 496.5841L58.57821 497.3795L58.57821 497.3795L59.19344 497.3795L59.19344 497.3795L59.19344 496.5841L59.19344 496.5841L61.92245 496.5841C 62.14803 496.5841 62.29305 496.598 62.35751 496.6259C 62.42196 496.6537 62.47323 496.6991 62.51131 496.7621C 62.5494 496.8251 62.56844 496.9152 62.56844 497.0323C 62.56844 497.1202 62.55819 497.236 62.53768 497.3795z" stroke="none" fill="#323232" fill-rule="evenodd" /><path id="13" transform="matrix(1 0 0 -1 0 612)" d="M63.2452 498.1545L56.80282 498.1545L56.80282 498.1545L56.80282 498.9455L56.80282 498.9455L59.11434 498.9455C 58.68661 499.3146 58.47274 499.7805 58.47274 500.343C 58.47274 500.6887 58.54086 500.989 58.67709 501.2438C 58.81332 501.4987 59.00155 501.6811 59.24178 501.791C 59.48202 501.9008 59.83065 501.9557 60.28768 501.9557L60.28768 501.9557L63.2452 501.9557L63.2452 501.9557L63.2452 501.1647L63.2452 501.1647L60.28768 501.1647C 59.49667 501.1647 59.15389 500.8073 59.15389 500.1804C 59.15389 499.946 59.21468 499.7255 59.33627 499.519C 59.45785 499.3124 59.62264 499.1652 59.83065 499.0773C 60.03866 498.9894 60.32577 498.9455 60.69198 498.9455L60.69198 498.9455L63.2452 498.9455z" stroke="none" fill="#323232" fill-rule="evenodd" /><path id="14" transform="matrix(1 0 0 -1 0 612)" d="M61.74227 506.3533L61.84335 507.1707C 62.79842 506.9129 63.35067 506.2024 63.35067 505.1184C 63.35067 503.7532 62.46883 502.8948 60.95126 502.8948C 59.38094 502.8948 58.47274 503.7854 58.47274 505.0745C 58.47274 506.3225 59.3619 507.1971 60.90292 507.1971C 60.94979 507.1971 61.0201 507.1956 61.11385 507.1927L61.11385 507.1927L61.11385 503.7122C 62.13924 503.7708 62.70028 504.3435 62.70028 505.1228C 62.70028 505.7029 62.41024 506.1131 61.74227 506.3533zM60.46346 503.7561L60.46346 506.3621C 60.07088 506.3269 59.77645 506.2273 59.58016 506.0633C 59.27547 505.8113 59.12313 505.4846 59.12313 505.0833C 59.12313 504.3567 59.64901 503.8089 60.46346 503.7561z" stroke="none" fill="#323232" fill-rule="evenodd" /><path id="15" transform="matrix(1 0 0 -1 0 612)" d="M63.2452 508.1537L58.57821 508.1537L58.57821 508.1537L58.57821 508.8656L58.57821 508.8656L59.28573 508.8656C 58.62362 509.2289 58.47274 509.5072 58.47274 509.8763C 58.47274 510.1429 58.5577 510.4139 58.72762 510.6893L58.72762 510.6893L59.46151 510.4169C 59.34725 510.2235 59.29012 510.0302 59.29012 509.8368C 59.29012 509.4911 59.50985 509.1937 59.87899 509.0765C 60.16024 508.9886 60.46786 508.9447 60.80184 508.9447L60.80184 508.9447L63.2452 508.9447z" stroke="none" fill="#323232" fill-rule="evenodd" /><path id="16" transform="matrix(1 0 0 -1 0 612)" d="M61.85213 510.8431L61.72909 511.6253C 62.35604 511.7132 62.70028 512.1131 62.70028 512.8338C 62.70028 513.5604 62.35604 513.9061 61.9576 513.9061C 61.77889 513.9061 61.63827 513.8284 61.53573 513.6732C 61.46542 513.5648 61.37606 513.2952 61.26766 512.8646C 61.12118 512.2845 60.99447 511.8824 60.88754 511.6583C 60.7806 511.4341 60.63265 511.2642 60.44369 511.1485C 60.25472 511.0328 60.04598 510.9749 59.81747 510.9749C 59.40145 510.9749 59.03231 511.1785 58.79794 511.5067C 58.61629 511.7527 58.47274 512.2068 58.47274 512.6932C 58.47274 513.0594 58.52547 513.3809 58.63094 513.6578C 58.73641 513.9346 58.87923 514.139 59.05941 514.2708C 59.23959 514.4026 59.48055 514.4935 59.78231 514.5433L59.78231 514.5433L59.88778 513.7698C 59.40731 513.6995 59.12313 513.3655 59.12313 512.7503C 59.12313 512.0237 59.40292 511.7396 59.72518 511.7396C 59.82772 511.7396 59.92001 511.7718 60.00204 511.8362C 60.087 511.9007 60.15731 512.0018 60.21297 512.1395C 60.24227 512.2186 60.30965 512.4515 60.41512 512.8382C 60.56454 513.3978 60.68685 513.7881 60.78207 514.0093C 60.87728 514.2305 61.01571 514.4041 61.19735 514.5301C 61.37899 514.6561 61.60458 514.7191 61.87411 514.7191C 62.13778 514.7191 62.38607 514.6422 62.61898 514.4883C 62.85189 514.3345 63.03207 514.1126 63.15951 513.8226C 63.28695 513.5325 63.35067 513.2044 63.35067 512.8382C 63.35067 511.6253 62.84237 511.0189 61.85213 510.8431z" stroke="none" fill="#323232" fill-rule="evenodd" /></g></g></svg>