<svg xmlns="http://www.w3.org/2000/svg" xmlns:xlink="http://www.w3.org/1999/xlink" id="body_3" preserveAspectRatio="xMinYMin meet" viewBox="0 0 1144 816"><defs><clipPath id="1"><path id="" clip-rule="evenodd" transform="matrix(1 0 0 1 0 0)" d="M0 612L0 -0.28302L0 -0.28302L858.898 -0.28302L858.898 -0.28302L858.898 612L858.898 612L0 612z" /></clipPath><clipPath id="2"><path id="" clip-rule="evenodd" transform="matrix(1 0 0 1 0 0)" d="M0 -0.28302L858.898 -0.28302L858.898 -0.28302L858.898 612L858.898 612L0 612z" /></clipPath><clipPath id="3"><path id="" clip-rule="evenodd" transform="matrix(1 0 0 1 0 0)" d="M55.693 555.307L801.204 555.307L801.204 555.307L801.204 56.409L801.204 56.409L55.693 56.409z" /></clipPath></defs><g transform="matrix(1.333333 0 0 1.333333 0 0)"><g clip-path="url(#1)"><g clip-path="url(#2)"><path id="1" transform="matrix(1 0 0 -1 0 612)" d="M56.0365 141.0576C 56.5565 140.8976 57.43983 140.5443 58.0265 140.2776C 58.91983 139.8509 59.1265 139.7076 59.2465 139.4276L59.2465 139.4276L59.8265 139.5776C 59.73317 140.0976 59.7265 140.1309 59.6865 140.4776C 59.6065 141.3309 59.60984 141.3309 59.5965 141.4776C 60.5565 140.7976 60.87317 140.5476 61.2865 140.1876C 61.51317 139.9876 61.5765 139.8843 61.6565 139.6576L61.6565 139.6576L62.3165 139.8376C 62.2365 140.1709 62.1965 140.3376 62.1565 140.5776C 61.8365 142.4043 61.75983 142.8376 61.7465 142.9176L61.7465 142.9176L61.1165 142.9876C 61.28984 142.2409 61.30984 142.1676 61.5765 140.6476C 60.8165 141.2876 60.11983 141.8376 59.6265 142.1576C 58.6665 142.7843 58.6565 142.7809 58.2965 143.0476L58.2965 143.0476L57.9765 142.4276C 58.44317 142.1743 58.4865 142.1443 59.0465 141.8376C 59.1265 140.9309 59.12317 140.9343 59.1765 140.2676C 58.9365 140.4276 58.8565 140.4609 58.6565 140.5676C 58.4165 140.6876 57.56317 141.1176 57.4965 141.1576C 56.5765 141.5576 56.57317 141.5609 56.3065 141.7076zM60.2565 144.2376L60.2565 146.6976C 60.2565 147.1243 60.26984 147.3943 60.2965 147.6876C 60.02983 147.6476 59.7665 147.6476 59.3665 147.6476L59.3665 147.6476L57.4765 147.6476C 56.9565 147.6476 56.76317 147.6509 56.4965 147.6776C 56.5365 147.4109 56.5365 147.1276 56.5365 146.7276L56.5365 146.7276L56.5365 144.3276C 56.5365 143.9676 56.5165 143.6776 56.4765 143.3976L56.4765 143.3976L57.1765 143.3976C 57.14983 143.6376 57.1265 143.9276 57.1265 144.3276L57.1265 144.3276L57.1265 147.0176L57.1265 147.0176L59.6765 147.0176L59.6765 147.0176L59.6765 144.5176C 59.6765 144.1309 59.6765 143.8509 59.6365 143.5576C 59.8765 143.5976 60.12984 143.6076 60.5965 143.6076L60.5965 143.6076L63.9865 143.6076C 64.71983 143.6076 64.8265 143.8809 64.8265 145.8276C 64.8265 148.1343 64.7565 148.2143 62.4365 148.4276C 62.38317 148.1876 62.28317 147.9576 62.1365 147.7576C 63.20317 147.7176 63.7665 147.6376 63.9665 147.4776C 64.1665 147.3176 64.2165 146.9209 64.2165 145.7076C 64.2165 144.4143 64.1665 144.2376 63.8465 144.2376zM62.9865 143.0576C 63.2265 142.3643 63.4565 141.4509 63.6165 140.5576C 63.6965 140.1043 63.7565 139.6309 63.7565 139.4576C 63.7565 139.4309 63.7565 139.4143 63.7565 139.3876L63.7565 139.3876L64.4765 139.5376C 64.4365 139.6576 64.42317 139.6909 64.3565 140.0376C 64.1565 141.1309 63.9165 142.0776 63.6365 143.0376z" stroke="none" fill="#323232" fill-rule="evenodd" /><path id="2" transform="matrix(1 0 0 -1 0 612)" d="M57.1065 152.6876L56.8465 152.6876C 56.59317 152.6876 56.3765 152.6976 56.1365 152.7376L56.1365 152.7376L56.1365 152.0176C 56.3765 152.0576 56.6065 152.0776 56.8465 152.0776L56.8465 152.0776L57.1065 152.0776L57.1065 152.0776L57.1065 150.5876C 57.1065 150.0943 57.0865 149.7476 57.0465 149.4676L57.0465 149.4676L57.7165 149.4676C 57.6765 149.7476 57.6665 150.0543 57.6665 150.5876L57.6665 150.5876L57.6665 152.0776L57.6665 152.0776L57.9765 152.0776C 58.22984 152.0776 58.4365 152.0643 58.6365 152.0376L58.6365 152.0376L58.6365 152.7276C 58.4365 152.6876 58.25983 152.6876 57.9665 152.6876L57.9665 152.6876L57.6665 152.6876L57.6665 152.6876L57.6665 154.9976L57.6665 154.9976L57.9765 154.9976C 58.24317 154.9976 58.42317 154.9843 58.6365 154.9576L58.6365 154.9576L58.6365 155.6476C 58.4365 155.6076 58.2565 155.6076 57.9765 155.6076L57.9765 155.6076L57.6665 155.6076L57.6665 155.6076L57.6665 157.1476C 57.6665 157.6676 57.6765 157.9709 57.7165 158.2776L57.7165 158.2776L57.0465 158.2776C 57.0865 157.9709 57.1065 157.6276 57.1065 157.1476L57.1065 157.1476L57.1065 155.6076L57.1065 155.6076L56.8465 155.6076C 56.6065 155.6076 56.36317 155.6176 56.1365 155.6576L56.1365 155.6576L56.1365 154.9376C 56.3765 154.9776 56.6065 154.9976 56.8465 154.9976L56.8465 154.9976L57.1065 154.9976zM59.9865 157.1776C 59.9865 157.6043 60.0065 157.9443 60.0465 158.2776L60.0465 158.2776L59.3565 158.2776C 59.3965 157.9576 59.4165 157.6176 59.4165 157.1776L59.4165 157.1776L59.4165 153.5176C 59.2565 153.5976 59.1865 153.6276 59.0265 153.7076C 58.69317 153.8676 58.65984 153.8943 58.4865 153.9876L58.4865 153.9876L58.3365 153.2476C 58.6965 153.1676 58.9765 153.0743 59.4165 152.8476L59.4165 152.8476L59.4165 150.6376C 59.4165 150.1843 59.3965 149.8243 59.3565 149.5176L59.3565 149.5176L60.0465 149.5176C 60.0065 149.8376 59.9865 150.1976 59.9865 150.6376L59.9865 150.6376L59.9865 152.5076C 61.1465 151.7209 61.86317 150.9009 62.6365 149.4476C 62.8765 149.6876 62.8765 149.6876 63.0765 149.8076C 63.10317 149.8076 63.1365 149.8276 63.1765 149.8676C 62.58984 150.7609 62.4365 150.9576 61.9165 151.5576L61.9165 151.5576L64.06651 151.5576C 64.47984 151.5576 64.75317 151.5376 65.0065 151.4976L65.0065 151.4976L65.0065 152.1976L65.0065 152.1976L64.4465 152.1976L64.4465 152.1976L64.4465 156.4776L64.4465 156.4776L65.0165 156.4776L65.0165 156.4776L65.0165 157.1876C 64.68317 157.1476 64.39317 157.1276 64.0865 157.1276L64.0865 157.1276L62.2065 157.1276C 61.8465 157.1276 61.5765 157.1376 61.2565 157.1776C 61.2965 156.9243 61.3065 156.7176 61.3065 156.2376L61.3065 156.2376L61.3065 152.1876C 60.9065 152.5476 60.61317 152.7876 59.9865 153.1876zM61.8665 152.1976L61.8665 156.4776L61.8665 156.4776L63.8765 156.4776L63.8765 156.4776L63.8765 152.1976z" stroke="none" fill="#323232" fill-rule="evenodd" /><path id="3" transform="matrix(1 0 0 -1 0 612)" d="M57.9865 164.6176L57.9865 162.8776C 57.9865 162.4776 57.9865 162.1909 57.9465 161.9776C 58.19984 162.0043 58.4765 162.0176 58.8365 162.0176L58.8365 162.0176L61.0165 162.0176C 61.52317 162.0176 61.8165 162.0076 62.1365 161.9676L62.1365 161.9676L62.1365 162.6476L62.1365 162.6476L61.5865 162.6476L61.5865 162.6476L61.5865 164.6176L61.5865 164.6176L63.7665 164.6176C 64.29984 164.6176 64.62984 164.5876 64.9765 164.5476L64.9765 164.5476L64.9765 165.3276C 64.6165 165.2743 64.3265 165.2576 63.7665 165.2576L63.7665 165.2576L61.5865 165.2576L61.5865 165.2576L61.5865 167.3976L61.5865 167.3976L62.1365 167.3976L62.1365 167.3976L62.1365 168.0976C 61.80317 168.0576 61.49317 168.0376 61.0265 168.0376L61.0265 168.0376L58.8765 168.0376C 58.4365 168.0376 58.1865 168.0376 57.9465 168.0776C 57.9865 167.8643 57.9865 167.5776 57.9865 167.1376L57.9865 167.1376L57.9865 165.2576L57.9865 165.2576L57.2165 165.2576C 56.68317 165.2576 56.39983 165.2743 56.0665 165.3276L56.0665 165.3276L56.0665 164.5476C 56.3865 164.5876 56.69984 164.6176 57.2065 164.6176zM60.9965 164.6176L60.9965 162.6476L60.9965 162.6476L58.5765 162.6476L58.5765 162.6476L58.5765 164.6176zM60.9965 165.2576L58.5765 165.2576L58.5765 165.2576L58.5765 167.3976L58.5765 167.3976L60.9965 167.3976zM56.7965 159.6176C 57.4365 160.2443 57.8465 160.5609 58.6865 161.0676L58.6865 161.0676L58.2365 161.5976C 57.50317 161.1043 57.07983 160.7809 56.3865 160.1276zM60.6865 161.1276C 61.8465 160.7276 62.7665 160.2876 63.6065 159.7276C 63.85984 159.5543 63.97984 159.4576 64.0865 159.3376L64.0865 159.3376L64.5965 159.9476C 64.4365 160.0143 64.38317 160.0376 63.9965 160.2776C 63.10317 160.7976 62.37317 161.1476 61.1865 161.6276z" stroke="none" fill="#323232" fill-rule="evenodd" /></g><g clip-path="url(#3)"><g transform="matrix(0.5142255 0 0 0.5137978 54.55866 56.40918)"><g transform="matrix(1 0 0 1 0 0)"><image x="0" y="0" xlink:href="img_05.png" width="1454" height="971" /></g></g></g><path id="5" transform="matrix(1 0 0 -1 0 612)" d="M55.693 385.303L248.949 385.303L248.949 484.933L55.693 484.933z" stroke="none" fill="#FFFEFE" fill-rule="nonzero" /><path id="6" transform="matrix(1 0 0 -1 0 612)" d="M55.693 506.354L310.197 506.354L310.197 556.236L55.693 556.236z" stroke="none" fill="#FFFEFE" fill-rule="nonzero" /></g></g></svg>