<svg xmlns="http://www.w3.org/2000/svg" xmlns:xlink="http://www.w3.org/1999/xlink" id="body_4" preserveAspectRatio="xMinYMin meet" viewBox="0 0 1144 816"><defs><clipPath id="1"><path id="" clip-rule="evenodd" transform="matrix(1 0 0 1 0 0)" d="M0 612L0 -0.28302L0 -0.28302L858.898 -0.28302L858.898 -0.28302L858.898 612L858.898 612L0 612z" /></clipPath><clipPath id="2"><path id="" clip-rule="evenodd" transform="matrix(1 0 0 1 0 0)" d="M0 -0.28302L858.898 -0.28302L858.898 -0.28302L858.898 612L858.898 612L0 612z" /></clipPath></defs><g transform="matrix(1.333333 0 0 1.333333 0 0)"><g clip-path="url(#1)"><g clip-path="url(#2)"><path id="1" transform="matrix(1 0 0 -1 0 612)" d="M802.6706 188.9571C 802.1506 189.1171 801.2673 189.4704 800.6806 189.7371C 799.7873 190.1638 799.5806 190.3071 799.4606 190.5871L799.4606 190.5871L798.8806 190.4371C 798.9739 189.9171 798.9806 189.8838 799.0206 189.5371C 799.1006 188.6838 799.0973 188.6838 799.1106 188.5371C 798.1506 189.2171 797.8339 189.4671 797.4206 189.8271C 797.1939 190.0271 797.1306 190.1304 797.0506 190.3571L797.0506 190.3571L796.3906 190.1771C 796.4706 189.8438 796.5106 189.6771 796.5506 189.4371C 796.8706 187.6104 796.9473 187.1771 796.9606 187.0971L796.9606 187.0971L797.5906 187.0271C 797.4173 187.7738 797.3973 187.8471 797.1306 189.3671C 797.8906 188.7271 798.5873 188.1771 799.0806 187.8571C 800.0406 187.2304 800.0506 187.2338 800.4106 186.9671L800.4106 186.9671L800.7306 187.5871C 800.2639 187.8404 800.2206 187.8704 799.6606 188.1771C 799.5806 189.0838 799.5839 189.0804 799.5306 189.7471C 799.7706 189.5871 799.8506 189.5538 800.0506 189.4471C 800.2906 189.3271 801.1439 188.8971 801.2106 188.8571C 802.1306 188.4571 802.1339 188.4538 802.4006 188.3071zM798.4506 185.7771L798.4506 183.3171C 798.4506 182.8904 798.4373 182.6204 798.4106 182.3271C 798.6772 182.3671 798.9406 182.3671 799.3406 182.3671L799.3406 182.3671L801.2306 182.3671C 801.7506 182.3671 801.9439 182.3638 802.2106 182.3371C 802.1706 182.6038 802.1706 182.8871 802.1706 183.2871L802.1706 183.2871L802.1706 185.6871C 802.1706 186.0471 802.1906 186.3371 802.2306 186.6171L802.2306 186.6171L801.5306 186.6171C 801.5573 186.3771 801.5806 186.0871 801.5806 185.6871L801.5806 185.6871L801.5806 182.9971L801.5806 182.9971L799.0306 182.9971L799.0306 182.9971L799.0306 185.4971C 799.0306 185.8838 799.0306 186.1638 799.0706 186.4571C 798.8306 186.4171 798.5773 186.4071 798.1106 186.4071L798.1106 186.4071L794.7206 186.4071C 793.9872 186.4071 793.8806 186.1338 793.8806 184.1871C 793.8806 181.8804 793.9506 181.8004 796.2706 181.5871C 796.3239 181.8271 796.424 182.0571 796.5706 182.2571C 795.504 182.2971 794.9406 182.3771 794.7406 182.5371C 794.5406 182.6971 794.4906 183.0938 794.4906 184.3071C 794.4906 185.6004 794.5406 185.7771 794.8606 185.7771zM795.7206 186.9571C 795.4806 187.6504 795.2506 188.5638 795.0906 189.4571C 795.0106 189.9104 794.9506 190.3838 794.9506 190.5571C 794.9506 190.5838 794.9506 190.6004 794.9506 190.6271L794.9506 190.6271L794.2306 190.4771C 794.2706 190.3571 794.2839 190.3238 794.3506 189.9771C 794.5506 188.8838 794.7906 187.9371 795.0706 186.9771z" stroke="none" fill="#323131" fill-rule="evenodd" /><path id="2" transform="matrix(1 0 0 -1 0 612)" d="M801.6006 177.3271L801.8606 177.3271C 802.114 177.3271 802.3306 177.3171 802.5706 177.2771L802.5706 177.2771L802.5706 177.9971C 802.3306 177.9571 802.1006 177.9371 801.8606 177.9371L801.8606 177.9371L801.6006 177.9371L801.6006 177.9371L801.6006 179.4271C 801.6006 179.9204 801.6206 180.2671 801.6606 180.5471L801.6606 180.5471L800.9906 180.5471C 801.0306 180.2671 801.0406 179.9604 801.0406 179.4271L801.0406 179.4271L801.0406 177.9371L801.0406 177.9371L800.7306 177.9371C 800.4773 177.9371 800.2706 177.9504 800.0706 177.9771L800.0706 177.9771L800.0706 177.2871C 800.2706 177.3271 800.4473 177.3271 800.7406 177.3271L800.7406 177.3271L801.0406 177.3271L801.0406 177.3271L801.0406 175.0171L801.0406 175.0171L800.7306 175.0171C 800.4639 175.0171 800.2839 175.0304 800.0706 175.0571L800.0706 175.0571L800.0706 174.3671C 800.2706 174.4071 800.4506 174.4071 800.7306 174.4071L800.7306 174.4071L801.0406 174.4071L801.0406 174.4071L801.0406 172.8671C 801.0406 172.3471 801.0306 172.0438 800.9906 171.7371L800.9906 171.7371L801.6606 171.7371C 801.6206 172.0438 801.6006 172.3871 801.6006 172.8671L801.6006 172.8671L801.6006 174.4071L801.6006 174.4071L801.8606 174.4071C 802.1006 174.4071 802.3439 174.3971 802.5706 174.3571L802.5706 174.3571L802.5706 175.0771C 802.3306 175.0371 802.1006 175.0171 801.8606 175.0171L801.8606 175.0171L801.6006 175.0171zM798.7206 172.8371C 798.7206 172.4104 798.7006 172.0704 798.6606 171.7371L798.6606 171.7371L799.3506 171.7371C 799.3106 172.0571 799.2906 172.3971 799.2906 172.8371L799.2906 172.8371L799.2906 176.4971C 799.4506 176.4171 799.5206 176.3871 799.6806 176.3071C 800.0139 176.1471 800.0472 176.1204 800.2206 176.0271L800.2206 176.0271L800.3706 176.7671C 800.0106 176.8471 799.7306 176.9404 799.2906 177.1671L799.2906 177.1671L799.2906 179.3771C 799.2906 179.8304 799.3106 180.1904 799.3506 180.4971L799.3506 180.4971L798.6606 180.4971C 798.7006 180.1771 798.7206 179.8171 798.7206 179.3771L798.7206 179.3771L798.7206 177.5071C 797.5606 178.2938 796.8439 179.1138 796.0706 180.5671C 795.8306 180.3271 795.8306 180.3271 795.6306 180.2071C 795.6039 180.2071 795.5706 180.1871 795.5306 180.1471C 796.1172 179.2538 796.2706 179.0571 796.7906 178.4571L796.7906 178.4571L794.6406 178.4571C 794.2273 178.4571 793.9539 178.4771 793.7006 178.5171L793.7006 178.5171L793.7006 177.8171L793.7006 177.8171L794.2606 177.8171L794.2606 177.8171L794.2606 173.5371L794.2606 173.5371L793.6906 173.5371L793.6906 173.5371L793.6906 172.8271C 794.0239 172.8671 794.314 172.8871 794.6206 172.8871L794.6206 172.8871L796.5006 172.8871C 796.8606 172.8871 797.1306 172.8771 797.4506 172.8371C 797.4106 173.0904 797.4006 173.2971 797.4006 173.7771L797.4006 173.7771L797.4006 177.8271C 797.8006 177.4671 798.0939 177.2271 798.7206 176.8271zM796.8406 177.8171L796.8406 173.5371L796.8406 173.5371L794.8306 173.5371L794.8306 173.5371L794.8306 177.8171z" stroke="none" fill="#323131" fill-rule="evenodd" /><path id="3" transform="matrix(1 0 0 -1 0 612)" d="M800.7206 165.3971L800.7206 167.1371C 800.7206 167.5371 800.7206 167.8238 800.7606 168.0371C 800.5073 168.0104 800.2306 167.9971 799.8706 167.9971L799.8706 167.9971L797.6906 167.9971C 797.184 167.9971 796.8906 168.0071 796.5706 168.0471L796.5706 168.0471L796.5706 167.3671L796.5706 167.3671L797.1206 167.3671L797.1206 167.3671L797.1206 165.3971L797.1206 165.3971L794.9406 165.3971C 794.4073 165.3971 794.0773 165.4271 793.7306 165.4671L793.7306 165.4671L793.7306 164.6871C 794.0906 164.7404 794.3806 164.7571 794.9406 164.7571L794.9406 164.7571L797.1206 164.7571L797.1206 164.7571L797.1206 162.6171L797.1206 162.6171L796.5706 162.6171L796.5706 162.6171L796.5706 161.9171C 796.9039 161.9571 797.2139 161.9771 797.6806 161.9771L797.6806 161.9771L799.8306 161.9771C 800.2706 161.9771 800.5206 161.9771 800.7606 161.9371C 800.7206 162.1504 800.7206 162.4371 800.7206 162.8771L800.7206 162.8771L800.7206 164.7571L800.7206 164.7571L801.4906 164.7571C 802.0239 164.7571 802.3073 164.7404 802.6406 164.6871L802.6406 164.6871L802.6406 165.4671C 802.3206 165.4271 802.0073 165.3971 801.5006 165.3971zM797.7106 165.3971L797.7106 167.3671L797.7106 167.3671L800.1306 167.3671L800.1306 167.3671L800.1306 165.3971zM797.7106 164.7571L800.1306 164.7571L800.1306 164.7571L800.1306 162.6171L800.1306 162.6171L797.7106 162.6171zM801.9106 170.3971C 801.2706 169.7704 800.8606 169.4538 800.0206 168.9471L800.0206 168.9471L800.4706 168.4171C 801.2039 168.9104 801.6273 169.2338 802.3206 169.8871zM798.0206 168.8871C 796.8606 169.2871 795.9406 169.7271 795.1006 170.2871C 794.8473 170.4604 794.7273 170.5571 794.6206 170.6771L794.6206 170.6771L794.1106 170.0671C 794.2706 170.0004 794.3239 169.9771 794.7106 169.7371C 795.6039 169.2171 796.3339 168.8671 797.5206 168.3871z" stroke="none" fill="#323131" fill-rule="evenodd" /></g><g transform="matrix(0.5141461 0 0 0.5141885 56.69291 56.73438)"><g transform="matrix(1 0 0 1 0 0)"><image x="0" y="0" xlink:href="img_07.png" width="1450" height="969" /></g></g><path id="9" transform="matrix(1 0 0 -1 0 612)" d="M795.6525 515.5563L801.3347 515.5563L801.3347 515.5563L801.3347 517.6788L801.3347 517.6788L802.0949 517.6788L802.0949 517.6788L802.0949 512.5724L802.0949 512.5724L801.3347 512.5724L801.3347 512.5724L801.3347 514.7037L801.3347 514.7037L795.6525 514.7037z" stroke="none" fill="#323131" fill-rule="evenodd" /><path id="10" transform="matrix(1 0 0 -1 0 612)" d="M795.6525 511.4312L800.3195 512.8594L800.3195 512.8594L800.3195 512.042L800.3195 512.042L797.6257 511.2993L797.6257 511.2993L796.6237 511.0225C 796.6735 511.0107 796.9943 510.9302 797.5861 510.7808L797.5861 510.7808L800.3195 510.0381L800.3195 510.0381L800.3195 509.2251L800.3195 509.2251L797.6125 508.5264L797.6125 508.5264L796.7204 508.2935L796.7204 508.2935L797.6213 508.0254L797.6213 508.0254L800.3195 507.2256L800.3195 507.2256L800.3195 506.4565L800.3195 506.4565L795.6525 507.9155L795.6525 507.9155L795.6525 508.7373L795.6525 508.7373L798.4474 509.48L798.4474 509.48L799.2429 509.6602L799.2429 509.6602L795.6525 510.605z" stroke="none" fill="#323131" fill-rule="evenodd" /><path id="11" transform="matrix(1 0 0 -1 0 612)" d="M797.986 506.0889C 798.8503 506.0889 799.4904 505.8487 799.9064 505.3682C 800.2521 504.9669 800.425 504.4776 800.425 503.9005C 800.425 502.6172 799.5344 501.7164 798.0519 501.7164C 797.4514 501.7164 796.9789 501.8065 796.6347 501.9866C 796.2905 502.1668 796.0231 502.429 795.8327 502.7733C 795.6423 503.1175 795.5471 503.4932 795.5471 503.9005C 795.5471 505.2071 796.4099 506.0889 797.986 506.0889zM797.986 505.2759C 796.7907 505.2759 796.1974 504.6915 796.1974 503.9005C 796.1974 503.1153 796.7878 502.5294 798.0124 502.5294C 799.1667 502.5294 799.7702 503.1212 799.7702 503.9005C 799.7702 504.6915 799.1813 505.2759 797.986 505.2759z" stroke="none" fill="#323131" fill-rule="evenodd" /><path id="13" transform="matrix(1 0 0 -1 0 612)" d="M795.6525 498.2226L802.0949 498.2226L802.0949 498.2226L802.0949 495.8056C 802.0949 495.3134 802.0297 494.9186 801.8994 494.6212C 801.769 494.3239 801.5683 494.091 801.2973 493.9225C 801.0263 493.7541 800.7429 493.6698 800.447 493.6698C 799.8962 493.6698 799.3791 493.9672 799.0803 494.5707C 798.8517 493.7914 798.2702 493.3578 797.5202 493.3578C 797.2184 493.3578 796.9379 493.4215 796.6786 493.549C 796.4194 493.6764 796.2194 493.8339 796.0788 494.0214C 795.9382 494.2089 795.832 494.444 795.7602 494.7267C 795.6884 495.0094 795.6525 495.3559 795.6525 495.766zM799.3879 497.37L799.3879 495.977C 799.3879 495.599 799.4128 495.328 799.4626 495.164C 799.5915 494.7304 799.8947 494.5092 800.3459 494.5092C 800.5598 494.5092 800.748 494.5605 800.9106 494.663C 801.0732 494.7655 801.1845 494.912 801.2446 495.1024C 801.3046 495.2929 801.3347 495.6195 801.3347 496.0824L801.3347 496.0824L801.3347 497.37zM796.4128 497.37L796.4128 495.766C 796.4128 495.4906 796.423 495.2973 796.4435 495.1859C 796.4787 494.9897 796.5373 494.8256 796.6193 494.6938C 796.7014 494.5619 796.8207 494.4535 796.9775 494.3686C 797.1342 494.2836 797.3151 494.2411 797.5202 494.2411C 797.7604 494.2411 797.9692 494.3026 798.1464 494.4257C 798.3237 494.5487 798.4482 494.7194 798.52 494.9377C 798.5917 495.1559 798.6276 495.4701 798.6276 495.8803L798.6276 495.8803L798.6276 497.37z" stroke="none" fill="#323131" fill-rule="evenodd" /><path id="14" transform="matrix(1 0 0 -1 0 612)" d="M795.6525 492.2943L800.3195 492.2943L800.3195 492.2943L800.3195 491.5824L800.3195 491.5824L799.612 491.5824C 800.2741 491.2191 800.425 490.9408 800.425 490.5716C 800.425 490.305 800.34 490.034 800.1701 489.7586L800.1701 489.7586L799.4362 490.0311C 799.5505 490.2245 799.6076 490.4178 799.6076 490.6112C 799.6076 490.9569 799.3879 491.2542 799.0187 491.3714C 798.7375 491.4593 798.4299 491.5033 798.0959 491.5033L798.0959 491.5033L795.6525 491.5033z" stroke="none" fill="#323131" fill-rule="evenodd" /><path id="15" transform="matrix(1 0 0 -1 0 612)" d="M797.986 489.5829C 798.8503 489.5829 799.4904 489.3427 799.9064 488.8622C 800.2521 488.4608 800.425 487.9716 800.425 487.3944C 800.425 486.1112 799.5344 485.2104 798.0519 485.2104C 797.4514 485.2104 796.9789 485.3004 796.6347 485.4806C 796.2905 485.6608 796.0231 485.923 795.8327 486.2672C 795.6423 486.6115 795.5471 486.9872 795.5471 487.3944C 795.5471 488.7011 796.4099 489.5829 797.986 489.5829zM797.986 488.7699C 796.7907 488.7699 796.1974 488.1855 796.1974 487.3944C 796.1974 486.6093 796.7878 486.0233 798.0124 486.0233C 799.1667 486.0233 799.7702 486.6151 799.7702 487.3944C 799.7702 488.1855 799.1813 488.7699 797.986 488.7699z" stroke="none" fill="#323131" fill-rule="evenodd" /><path id="16" transform="matrix(1 0 0 -1 0 612)" d="M796.36 482.5574L795.6613 482.4432C 795.6144 482.6658 795.591 482.8651 795.591 483.0408C 795.591 483.3279 795.6364 483.5506 795.7272 483.7088C 795.8181 483.867 795.9374 483.9783 796.0854 484.0428C 796.2333 484.1072 796.5446 484.1395 797.0192 484.1395L797.0192 484.1395L799.7043 484.1395L799.7043 484.1395L799.7043 484.7195L799.7043 484.7195L800.3195 484.7195L800.3195 484.7195L800.3195 484.1395L800.3195 484.1395L801.4753 484.1395L801.4753 484.1395L801.9499 483.3528L801.9499 483.3528L800.3195 483.3528L800.3195 483.3528L800.3195 482.5574L800.3195 482.5574L799.7043 482.5574L799.7043 482.5574L799.7043 483.3528L799.7043 483.3528L796.9753 483.3528C 796.7497 483.3528 796.6047 483.3389 796.5402 483.3111C 796.4758 483.2833 796.4245 483.2379 796.3864 483.1749C 796.3483 483.1119 796.3293 483.0218 796.3293 482.9046C 796.3293 482.8167 796.3395 482.701 796.36 482.5574z" stroke="none" fill="#323131" fill-rule="evenodd" /><path id="17" transform="matrix(1 0 0 -1 0 612)" d="M795.6525 481.7825L802.0949 481.7825L802.0949 481.7825L802.0949 480.9915L802.0949 480.9915L799.7834 480.9915C 800.2111 480.6223 800.425 480.1565 800.425 479.594C 800.425 479.2483 800.3569 478.948 800.2206 478.6931C 800.0844 478.4382 799.8962 478.2559 799.6559 478.146C 799.4157 478.0361 799.0671 477.9812 798.61 477.9812L798.61 477.9812L795.6525 477.9812L795.6525 477.9812L795.6525 478.7722L795.6525 478.7722L798.61 478.7722C 799.4011 478.7722 799.7438 479.1296 799.7438 479.7566C 799.7438 479.991 799.683 480.2114 799.5615 480.418C 799.4399 480.6245 799.2751 480.7717 799.0671 480.8596C 798.8591 480.9475 798.572 480.9915 798.2057 480.9915L798.2057 480.9915L795.6525 480.9915z" stroke="none" fill="#323131" fill-rule="evenodd" /><path id="18" transform="matrix(1 0 0 -1 0 612)" d="M797.1555 473.5836L797.0544 472.7663C 796.0993 473.0241 795.5471 473.7345 795.5471 474.8185C 795.5471 476.1837 796.4289 477.0421 797.9465 477.0421C 799.5168 477.0421 800.425 476.1515 800.425 474.8625C 800.425 473.6144 799.5358 472.7399 797.9948 472.7399C 797.9479 472.7399 797.8776 472.7414 797.7839 472.7443L797.7839 472.7443L797.7839 476.2248C 796.7585 476.1662 796.1974 475.5934 796.1974 474.8141C 796.1974 474.234 796.4875 473.8239 797.1555 473.5836zM798.4343 476.1808L798.4343 473.5749C 798.8268 473.61 799.1213 473.7096 799.3176 473.8737C 799.6223 474.1256 799.7746 474.4523 799.7746 474.8537C 799.7746 475.5802 799.2487 476.1281 798.4343 476.1808z" stroke="none" fill="#323131" fill-rule="evenodd" /><path id="19" transform="matrix(1 0 0 -1 0 612)" d="M795.6525 471.7833L800.3195 471.7833L800.3195 471.7833L800.3195 471.0714L800.3195 471.0714L799.612 471.0714C 800.2741 470.7081 800.425 470.4297 800.425 470.0606C 800.425 469.794 800.34 469.523 800.1701 469.2476L800.1701 469.2476L799.4362 469.5201C 799.5505 469.7134 799.6076 469.9068 799.6076 470.1002C 799.6076 470.4459 799.3879 470.7432 799.0187 470.8604C 798.7375 470.9483 798.4299 470.9922 798.0959 470.9922L798.0959 470.9922L795.6525 470.9922z" stroke="none" fill="#323131" fill-rule="evenodd" /><path id="20" transform="matrix(1 0 0 -1 0 612)" d="M797.0456 469.0939L797.1686 468.3116C 796.5417 468.2238 796.1974 467.8239 796.1974 467.1031C 796.1974 466.3766 796.5417 466.0309 796.9401 466.0309C 797.1188 466.0309 797.2595 466.1085 797.362 466.2638C 797.4323 466.3722 797.5217 466.6417 797.6301 467.0724C 797.7766 467.6525 797.9033 468.0546 798.0102 468.2787C 798.1171 468.5028 798.2651 468.6727 798.454 468.7885C 798.643 468.9042 798.8517 468.962 799.0803 468.962C 799.4963 468.962 799.8654 468.7584 800.0998 468.4303C 800.2814 468.1842 800.425 467.7301 800.425 467.2438C 800.425 466.8776 800.3723 466.556 800.2668 466.2792C 800.1613 466.0023 800.0185 465.798 799.8383 465.6661C 799.6581 465.5343 799.4172 465.4435 799.1154 465.3937L799.1154 465.3937L799.0099 466.1671C 799.4904 466.2374 799.7746 466.5714 799.7746 467.1866C 799.7746 467.9132 799.4948 468.1974 799.1725 468.1974C 799.07 468.1974 798.9777 468.1652 798.8957 468.1007C 798.8107 468.0363 798.7404 467.9352 798.6848 467.7975C 798.6555 467.7184 798.5881 467.4855 798.4826 467.0988C 798.3332 466.5392 798.2109 466.1488 798.1157 465.9276C 798.0204 465.7064 797.882 465.5328 797.7004 465.4069C 797.5187 465.2809 797.2932 465.2179 797.0236 465.2179C 796.7599 465.2179 796.5117 465.2948 796.2787 465.4486C 796.0458 465.6024 795.8657 465.8243 795.7382 466.1144C 795.6108 466.4044 795.5471 466.7325 795.5471 467.0988C 795.5471 468.3116 796.0554 468.9181 797.0456 469.0939z" stroke="none" fill="#323131" fill-rule="evenodd" /></g></g></svg>