<svg xmlns="http://www.w3.org/2000/svg" xmlns:xlink="http://www.w3.org/1999/xlink" id="body_5" preserveAspectRatio="xMinYMin meet" viewBox="0 0 1144 816"><defs><clipPath id="1"><path id="" clip-rule="evenodd" transform="matrix(1 0 0 1 0 0)" d="M0 612L0 -0.28302L0 -0.28302L858.898 -0.28302L858.898 -0.28302L858.898 612L858.898 612L0 612z" /></clipPath><clipPath id="2"><path id="" clip-rule="evenodd" transform="matrix(1 0 0 1 0 0)" d="M0 -0.28302L858.898 -0.28302L858.898 -0.28302L858.898 612L858.898 612L0 612z" /></clipPath></defs><g transform="matrix(1.333333 0 0 1.333333 0 0)"><g clip-path="url(#1)"><g clip-path="url(#2)"><path id="1" transform="matrix(1 0 0 -1 0 612)" d="M56.0365 141.0576C 56.5565 140.8976 57.43983 140.5443 58.0265 140.2776C 58.91983 139.8509 59.1265 139.7076 59.2465 139.4276L59.2465 139.4276L59.8265 139.5776C 59.73317 140.0976 59.7265 140.1309 59.6865 140.4776C 59.6065 141.3309 59.60984 141.3309 59.5965 141.4776C 60.5565 140.7976 60.87317 140.5476 61.2865 140.1876C 61.51317 139.9876 61.5765 139.8843 61.6565 139.6576L61.6565 139.6576L62.3165 139.8376C 62.2365 140.1709 62.1965 140.3376 62.1565 140.5776C 61.8365 142.4043 61.75983 142.8376 61.7465 142.9176L61.7465 142.9176L61.1165 142.9876C 61.28984 142.2409 61.30984 142.1676 61.5765 140.6476C 60.8165 141.2876 60.11983 141.8376 59.6265 142.1576C 58.6665 142.7843 58.6565 142.7809 58.2965 143.0476L58.2965 143.0476L57.9765 142.4276C 58.44317 142.1743 58.4865 142.1443 59.0465 141.8376C 59.1265 140.9309 59.12317 140.9343 59.1765 140.2676C 58.9365 140.4276 58.8565 140.4609 58.6565 140.5676C 58.4165 140.6876 57.56317 141.1176 57.4965 141.1576C 56.5765 141.5576 56.57317 141.5609 56.3065 141.7076zM60.2565 144.2376L60.2565 146.6976C 60.2565 147.1243 60.26984 147.3943 60.2965 147.6876C 60.02983 147.6476 59.7665 147.6476 59.3665 147.6476L59.3665 147.6476L57.4765 147.6476C 56.9565 147.6476 56.76317 147.6509 56.4965 147.6776C 56.5365 147.4109 56.5365 147.1276 56.5365 146.7276L56.5365 146.7276L56.5365 144.3276C 56.5365 143.9676 56.5165 143.6776 56.4765 143.3976L56.4765 143.3976L57.1765 143.3976C 57.14983 143.6376 57.1265 143.9276 57.1265 144.3276L57.1265 144.3276L57.1265 147.0176L57.1265 147.0176L59.6765 147.0176L59.6765 147.0176L59.6765 144.5176C 59.6765 144.1309 59.6765 143.8509 59.6365 143.5576C 59.8765 143.5976 60.12984 143.6076 60.5965 143.6076L60.5965 143.6076L63.9865 143.6076C 64.71983 143.6076 64.8265 143.8809 64.8265 145.8276C 64.8265 148.1343 64.7565 148.2143 62.4365 148.4276C 62.38317 148.1876 62.28317 147.9576 62.1365 147.7576C 63.20317 147.7176 63.7665 147.6376 63.9665 147.4776C 64.1665 147.3176 64.2165 146.9209 64.2165 145.7076C 64.2165 144.4143 64.1665 144.2376 63.8465 144.2376zM62.9865 143.0576C 63.2265 142.3643 63.4565 141.4509 63.6165 140.5576C 63.6965 140.1043 63.7565 139.6309 63.7565 139.4576C 63.7565 139.4309 63.7565 139.4143 63.7565 139.3876L63.7565 139.3876L64.4765 139.5376C 64.4365 139.6576 64.42317 139.6909 64.3565 140.0376C 64.1565 141.1309 63.9165 142.0776 63.6365 143.0376z" stroke="none" fill="#323131" fill-rule="evenodd" /><path id="2" transform="matrix(1 0 0 -1 0 612)" d="M57.1065 152.6876L56.8465 152.6876C 56.59317 152.6876 56.3765 152.6976 56.1365 152.7376L56.1365 152.7376L56.1365 152.0176C 56.3765 152.0576 56.6065 152.0776 56.8465 152.0776L56.8465 152.0776L57.1065 152.0776L57.1065 152.0776L57.1065 150.5876C 57.1065 150.0943 57.0865 149.7476 57.0465 149.4676L57.0465 149.4676L57.7165 149.4676C 57.6765 149.7476 57.6665 150.0543 57.6665 150.5876L57.6665 150.5876L57.6665 152.0776L57.6665 152.0776L57.9765 152.0776C 58.22984 152.0776 58.4365 152.0643 58.6365 152.0376L58.6365 152.0376L58.6365 152.7276C 58.4365 152.6876 58.25983 152.6876 57.9665 152.6876L57.9665 152.6876L57.6665 152.6876L57.6665 152.6876L57.6665 154.9976L57.6665 154.9976L57.9765 154.9976C 58.24317 154.9976 58.42317 154.9843 58.6365 154.9576L58.6365 154.9576L58.6365 155.6476C 58.4365 155.6076 58.2565 155.6076 57.9765 155.6076L57.9765 155.6076L57.6665 155.6076L57.6665 155.6076L57.6665 157.1476C 57.6665 157.6676 57.6765 157.9709 57.7165 158.2776L57.7165 158.2776L57.0465 158.2776C 57.0865 157.9709 57.1065 157.6276 57.1065 157.1476L57.1065 157.1476L57.1065 155.6076L57.1065 155.6076L56.8465 155.6076C 56.6065 155.6076 56.36317 155.6176 56.1365 155.6576L56.1365 155.6576L56.1365 154.9376C 56.3765 154.9776 56.6065 154.9976 56.8465 154.9976L56.8465 154.9976L57.1065 154.9976zM59.9865 157.1776C 59.9865 157.6043 60.0065 157.9443 60.0465 158.2776L60.0465 158.2776L59.3565 158.2776C 59.3965 157.9576 59.4165 157.6176 59.4165 157.1776L59.4165 157.1776L59.4165 153.5176C 59.2565 153.5976 59.1865 153.6276 59.0265 153.7076C 58.69317 153.8676 58.65984 153.8943 58.4865 153.9876L58.4865 153.9876L58.3365 153.2476C 58.6965 153.1676 58.9765 153.0743 59.4165 152.8476L59.4165 152.8476L59.4165 150.6376C 59.4165 150.1843 59.3965 149.8243 59.3565 149.5176L59.3565 149.5176L60.0465 149.5176C 60.0065 149.8376 59.9865 150.1976 59.9865 150.6376L59.9865 150.6376L59.9865 152.5076C 61.1465 151.7209 61.86317 150.9009 62.6365 149.4476C 62.8765 149.6876 62.8765 149.6876 63.0765 149.8076C 63.10317 149.8076 63.1365 149.8276 63.1765 149.8676C 62.58984 150.7609 62.4365 150.9576 61.9165 151.5576L61.9165 151.5576L64.06651 151.5576C 64.47984 151.5576 64.75317 151.5376 65.0065 151.4976L65.0065 151.4976L65.0065 152.1976L65.0065 152.1976L64.4465 152.1976L64.4465 152.1976L64.4465 156.4776L64.4465 156.4776L65.0165 156.4776L65.0165 156.4776L65.0165 157.1876C 64.68317 157.1476 64.39317 157.1276 64.0865 157.1276L64.0865 157.1276L62.2065 157.1276C 61.8465 157.1276 61.5765 157.1376 61.2565 157.1776C 61.2965 156.9243 61.3065 156.7176 61.3065 156.2376L61.3065 156.2376L61.3065 152.1876C 60.9065 152.5476 60.61317 152.7876 59.9865 153.1876zM61.8665 152.1976L61.8665 156.4776L61.8665 156.4776L63.8765 156.4776L63.8765 156.4776L63.8765 152.1976z" stroke="none" fill="#323131" fill-rule="evenodd" /><path id="3" transform="matrix(1 0 0 -1 0 612)" d="M57.9865 164.6176L57.9865 162.8776C 57.9865 162.4776 57.9865 162.1909 57.9465 161.9776C 58.19984 162.0043 58.4765 162.0176 58.8365 162.0176L58.8365 162.0176L61.0165 162.0176C 61.52317 162.0176 61.8165 162.0076 62.1365 161.9676L62.1365 161.9676L62.1365 162.6476L62.1365 162.6476L61.5865 162.6476L61.5865 162.6476L61.5865 164.6176L61.5865 164.6176L63.7665 164.6176C 64.29984 164.6176 64.62984 164.5876 64.9765 164.5476L64.9765 164.5476L64.9765 165.3276C 64.6165 165.2743 64.3265 165.2576 63.7665 165.2576L63.7665 165.2576L61.5865 165.2576L61.5865 165.2576L61.5865 167.3976L61.5865 167.3976L62.1365 167.3976L62.1365 167.3976L62.1365 168.0976C 61.80317 168.0576 61.49317 168.0376 61.0265 168.0376L61.0265 168.0376L58.8765 168.0376C 58.4365 168.0376 58.1865 168.0376 57.9465 168.0776C 57.9865 167.8643 57.9865 167.5776 57.9865 167.1376L57.9865 167.1376L57.9865 165.2576L57.9865 165.2576L57.2165 165.2576C 56.68317 165.2576 56.39983 165.2743 56.0665 165.3276L56.0665 165.3276L56.0665 164.5476C 56.3865 164.5876 56.69984 164.6176 57.2065 164.6176zM60.9965 164.6176L60.9965 162.6476L60.9965 162.6476L58.5765 162.6476L58.5765 162.6476L58.5765 164.6176zM60.9965 165.2576L58.5765 165.2576L58.5765 165.2576L58.5765 167.3976L58.5765 167.3976L60.9965 167.3976zM56.7965 159.6176C 57.4365 160.2443 57.8465 160.5609 58.6865 161.0676L58.6865 161.0676L58.2365 161.5976C 57.50317 161.1043 57.07983 160.7809 56.3865 160.1276zM60.6865 161.1276C 61.8465 160.7276 62.7665 160.2876 63.6065 159.7276C 63.85984 159.5543 63.97984 159.4576 64.0865 159.3376L64.0865 159.3376L64.5965 159.9476C 64.4365 160.0143 64.38317 160.0376 63.9965 160.2776C 63.10317 160.7976 62.37317 161.1476 61.1865 161.6276z" stroke="none" fill="#323131" fill-rule="evenodd" /></g><g transform="matrix(0.5141461 0 0 0.5141885 56.69291 56.73438)"><g transform="matrix(1 0 0 1 0 0)"><image x="0" y="0" xlink:href="img_09.png" width="1450" height="969" /></g></g><path id="5" transform="matrix(1 0 0 -1 0 612)" d="M63.2452 468.035L57.56307 468.035L57.56307 468.035L57.56307 465.9124L57.56307 465.9124L56.80282 465.9124L56.80282 465.9124L56.80282 471.0189L56.80282 471.0189L57.56307 471.0189L57.56307 471.0189L57.56307 468.8875L57.56307 468.8875L63.2452 468.8875z" stroke="none" fill="#333332" fill-rule="evenodd" /><path id="6" transform="matrix(1 0 0 -1 0 612)" d="M63.2452 472.1601L58.57821 470.7319L58.57821 470.7319L58.57821 471.5493L58.57821 471.5493L61.27206 472.2919L61.27206 472.2919L62.27401 472.5688C 62.22421 472.5805 61.9034 472.6611 61.31161 472.8105L61.31161 472.8105L58.57821 473.5532L58.57821 473.5532L58.57821 474.3661L58.57821 474.3661L61.28524 475.0649L61.28524 475.0649L62.17733 475.2978L62.17733 475.2978L61.27645 475.5659L61.27645 475.5659L58.57821 476.3657L58.57821 476.3657L58.57821 477.1347L58.57821 477.1347L63.2452 475.6757L63.2452 475.6757L63.2452 474.8539L63.2452 474.8539L60.45028 474.1113L60.45028 474.1113L59.65487 473.9311L59.65487 473.9311L63.2452 472.9863z" stroke="none" fill="#333332" fill-rule="evenodd" /><path id="7" transform="matrix(1 0 0 -1 0 612)" d="M60.91171 477.5023C 60.04745 477.5023 59.40731 477.7426 58.99129 478.223C 58.64559 478.6244 58.47274 479.1136 58.47274 479.6908C 58.47274 480.974 59.36337 481.8749 60.84579 481.8749C 61.44637 481.8749 61.91879 481.7848 62.26302 481.6046C 62.60726 481.4244 62.8746 481.1622 63.06503 480.818C 63.25546 480.4738 63.35067 480.098 63.35067 479.6908C 63.35067 478.3842 62.48788 477.5023 60.91171 477.5023zM60.91171 478.3153C 62.10702 478.3153 62.70028 478.8998 62.70028 479.6908C 62.70028 480.476 62.10995 481.0619 60.88534 481.0619C 59.73104 481.0619 59.12753 480.4701 59.12753 479.6908C 59.12753 478.8998 59.71639 478.3153 60.91171 478.3153z" stroke="none" fill="#333332" fill-rule="evenodd" /><path id="9" transform="matrix(1 0 0 -1 0 612)" d="M63.2452 485.3687L56.80282 485.3687L56.80282 485.3687L56.80282 487.7857C 56.80282 488.2779 56.868 488.6726 56.99837 488.97C 57.12875 489.2674 57.32943 489.5003 57.60043 489.6687C 57.87142 489.8372 58.15487 489.9214 58.45077 489.9214C 59.00155 489.9214 59.51864 489.6241 59.81747 489.0205C 60.04598 489.7998 60.62753 490.2334 61.37753 490.2334C 61.67928 490.2334 61.9598 490.1697 62.21908 490.0423C 62.47836 489.9148 62.67831 489.7574 62.81893 489.5699C 62.95956 489.3824 63.06576 489.1472 63.13754 488.8645C 63.20931 488.5818 63.2452 488.2354 63.2452 487.8252zM59.50985 486.2212L59.50985 487.6143C 59.50985 487.9922 59.48495 488.2632 59.43514 488.4273C 59.30624 488.8609 59.00301 489.0821 58.55184 489.0821C 58.33797 489.0821 58.14974 489.0308 57.98714 488.9283C 57.82455 488.8257 57.71322 488.6792 57.65316 488.4888C 57.5931 488.2984 57.56307 487.9717 57.56307 487.5088L57.56307 487.5088L57.56307 486.2212zM62.48495 486.2212L62.48495 487.8252C 62.48495 488.1006 62.47469 488.294 62.45419 488.4053C 62.41903 488.6016 62.36044 488.7657 62.2784 488.8975C 62.19637 489.0293 62.07699 489.1377 61.92025 489.2227C 61.76351 489.3076 61.5826 489.3501 61.37753 489.3501C 61.13729 489.3501 60.92855 489.2886 60.7513 489.1656C 60.57406 489.0425 60.44955 488.8719 60.37777 488.6536C 60.30599 488.4353 60.2701 488.1211 60.2701 487.711L60.2701 487.711L60.2701 486.2212z" stroke="none" fill="#333332" fill-rule="evenodd" /><path id="10" transform="matrix(1 0 0 -1 0 612)" d="M63.2452 491.297L58.57821 491.297L58.57821 491.297L58.57821 492.0089L58.57821 492.0089L59.28573 492.0089C 58.62362 492.3722 58.47274 492.6505 58.47274 493.0196C 58.47274 493.2862 58.5577 493.5572 58.72762 493.8326L58.72762 493.8326L59.46151 493.5602C 59.34725 493.3668 59.29012 493.1734 59.29012 492.9801C 59.29012 492.6344 59.50985 492.337 59.87899 492.2198C 60.16024 492.1319 60.46786 492.088 60.80184 492.088L60.80184 492.088L63.2452 492.088z" stroke="none" fill="#333332" fill-rule="evenodd" /><path id="11" transform="matrix(1 0 0 -1 0 612)" d="M60.91171 494.0083C 60.04745 494.0083 59.40731 494.2486 58.99129 494.729C 58.64559 495.1304 58.47274 495.6197 58.47274 496.1968C 58.47274 497.48 59.36337 498.3809 60.84579 498.3809C 61.44637 498.3809 61.91879 498.2908 62.26302 498.1106C 62.60726 497.9305 62.8746 497.6682 63.06503 497.324C 63.25546 496.9798 63.35067 496.604 63.35067 496.1968C 63.35067 494.8902 62.48788 494.0083 60.91171 494.0083zM60.91171 494.8213C 62.10702 494.8213 62.70028 495.4058 62.70028 496.1968C 62.70028 496.982 62.10995 497.5679 60.88534 497.5679C 59.73104 497.5679 59.12753 496.9761 59.12753 496.1968C 59.12753 495.4058 59.71639 494.8213 60.91171 494.8213z" stroke="none" fill="#333332" fill-rule="evenodd" /><path id="12" transform="matrix(1 0 0 -1 0 612)" d="M62.53768 501.0338L63.23641 501.1481C 63.28329 500.9254 63.30672 500.7262 63.30672 500.5504C 63.30672 500.2633 63.26131 500.0406 63.17049 499.8824C 63.07967 499.7242 62.96029 499.6129 62.81234 499.5485C 62.66439 499.484 62.35311 499.4518 61.8785 499.4518L61.8785 499.4518L59.19344 499.4518L59.19344 499.4518L59.19344 498.8717L59.19344 498.8717L58.57821 498.8717L58.57821 498.8717L58.57821 499.4518L58.57821 499.4518L57.42245 499.4518L57.42245 499.4518L56.94784 500.2384L56.94784 500.2384L58.57821 500.2384L58.57821 500.2384L58.57821 501.0338L58.57821 501.0338L59.19344 501.0338L59.19344 501.0338L59.19344 500.2384L59.19344 500.2384L61.92245 500.2384C 62.14803 500.2384 62.29305 500.2523 62.35751 500.2802C 62.42196 500.308 62.47323 500.3534 62.51131 500.4164C 62.5494 500.4794 62.56844 500.5695 62.56844 500.6866C 62.56844 500.7745 62.55819 500.8903 62.53768 501.0338z" stroke="none" fill="#333332" fill-rule="evenodd" /><path id="13" transform="matrix(1 0 0 -1 0 612)" d="M63.2452 501.8088L56.80282 501.8088L56.80282 501.8088L56.80282 502.5998L56.80282 502.5998L59.11434 502.5998C 58.68661 502.9689 58.47274 503.4348 58.47274 503.9973C 58.47274 504.343 58.54086 504.6432 58.67709 504.8981C 58.81332 505.153 59.00155 505.3354 59.24178 505.4453C 59.48202 505.5551 59.83065 505.61 60.28768 505.61L60.28768 505.61L63.2452 505.61L63.2452 505.61L63.2452 504.819L63.2452 504.819L60.28768 504.819C 59.49667 504.819 59.15389 504.4616 59.15389 503.8347C 59.15389 503.6003 59.21468 503.3798 59.33627 503.1733C 59.45785 502.9667 59.62264 502.8195 59.83065 502.7316C 60.03866 502.6437 60.32577 502.5998 60.69198 502.5998L60.69198 502.5998L63.2452 502.5998z" stroke="none" fill="#333332" fill-rule="evenodd" /><path id="14" transform="matrix(1 0 0 -1 0 612)" d="M61.74227 510.0076L61.84335 510.825C 62.79842 510.5672 63.35067 509.8567 63.35067 508.7727C 63.35067 507.4075 62.46883 506.5491 60.95126 506.5491C 59.38094 506.5491 58.47274 507.4397 58.47274 508.7288C 58.47274 509.9768 59.3619 510.8513 60.90292 510.8513C 60.94979 510.8513 61.0201 510.8499 61.11385 510.847L61.11385 510.847L61.11385 507.3665C 62.13924 507.4251 62.70028 507.9978 62.70028 508.7771C 62.70028 509.3572 62.41024 509.7674 61.74227 510.0076zM60.46346 507.4104L60.46346 510.0164C 60.07088 509.9812 59.77645 509.8816 59.58016 509.7176C 59.27547 509.4656 59.12313 509.1389 59.12313 508.7376C 59.12313 508.011 59.64901 507.4632 60.46346 507.4104z" stroke="none" fill="#333332" fill-rule="evenodd" /><path id="15" transform="matrix(1 0 0 -1 0 612)" d="M63.2452 511.808L58.57821 511.808L58.57821 511.808L58.57821 512.5199L58.57821 512.5199L59.28573 512.5199C 58.62362 512.8832 58.47274 513.1615 58.47274 513.5306C 58.47274 513.7972 58.5577 514.0682 58.72762 514.3436L58.72762 514.3436L59.46151 514.0712C 59.34725 513.8778 59.29012 513.6844 59.29012 513.4911C 59.29012 513.1454 59.50985 512.848 59.87899 512.7308C 60.16024 512.6429 60.46786 512.599 60.80184 512.599L60.80184 512.599L63.2452 512.599z" stroke="none" fill="#333332" fill-rule="evenodd" /><path id="16" transform="matrix(1 0 0 -1 0 612)" d="M61.85213 514.4974L61.72909 515.2796C 62.35604 515.3675 62.70028 515.7674 62.70028 516.4881C 62.70028 517.2147 62.35604 517.5604 61.9576 517.5604C 61.77889 517.5604 61.63827 517.4827 61.53573 517.3275C 61.46542 517.2191 61.37606 516.9495 61.26766 516.5189C 61.12118 515.9388 60.99447 515.5367 60.88754 515.3126C 60.7806 515.0884 60.63265 514.9185 60.44369 514.8028C 60.25472 514.6871 60.04598 514.6292 59.81747 514.6292C 59.40145 514.6292 59.03231 514.8328 58.79794 515.1609C 58.61629 515.407 58.47274 515.8611 58.47274 516.3475C 58.47274 516.7137 58.52547 517.0352 58.63094 517.3121C 58.73641 517.5889 58.87923 517.7933 59.05941 517.9251C 59.23959 518.0569 59.48055 518.1478 59.78231 518.1976L59.78231 518.1976L59.88778 517.4241C 59.40731 517.3538 59.12313 517.0198 59.12313 516.4046C 59.12313 515.678 59.40292 515.3939 59.72518 515.3939C 59.82772 515.3939 59.92001 515.4261 60.00204 515.4905C 60.087 515.555 60.15731 515.6561 60.21297 515.7938C 60.24227 515.8729 60.30965 516.1058 60.41512 516.4925C 60.56454 517.0521 60.68685 517.4424 60.78207 517.6636C 60.87728 517.8848 61.01571 518.0584 61.19735 518.1844C 61.37899 518.3104 61.60458 518.3734 61.87411 518.3734C 62.13778 518.3734 62.38607 518.2964 62.61898 518.1426C 62.85189 517.9888 63.03207 517.7669 63.15951 517.4769C 63.28695 517.1868 63.35067 516.8587 63.35067 516.4925C 63.35067 515.2796 62.84237 514.6732 61.85213 514.4974z" stroke="none" fill="#333332" fill-rule="evenodd" /></g></g></svg>