<svg xmlns="http://www.w3.org/2000/svg" xmlns:xlink="http://www.w3.org/1999/xlink" id="body_3" preserveAspectRatio="xMinYMin meet" viewBox="0 0 1144 816"><defs><clipPath id="1"><path id="" clip-rule="evenodd" transform="matrix(1 0 0 1 0 0)" d="M0 612L0 -0.28302L0 -0.28302L858.898 -0.28302L858.898 -0.28302L858.898 612L858.898 612L0 612z" /></clipPath><clipPath id="2"><path id="" clip-rule="evenodd" transform="matrix(1 0 0 1 0 0)" d="M0 -0.28302L858.898 -0.28302L858.898 -0.28302L858.898 612L858.898 612L0 612z" /></clipPath><clipPath id="3"><path id="" clip-rule="evenodd" transform="matrix(1 0 0 1 0 0)" d="M0 -0.28302L858.898 -0.28302L858.898 -0.28302L858.898 612L858.898 612L0 612z" /></clipPath><clipPath id="4"><path id="" clip-rule="evenodd" transform="matrix(1 0 0 1 0 0)" d="M126.839 521.266L441.555 521.266L441.555 521.266L441.555 125.168L441.555 125.168L126.839 125.168z" /></clipPath><clipPath id="5"><path id="" clip-rule="evenodd" transform="matrix(1 0 0 1 0 0)" d="M453.154 521.266L776.693 521.266L776.693 521.266L776.693 305.008L776.693 305.008L453.154 305.008z" /></clipPath></defs><g transform="matrix(1.333333 0 0 1.333333 0 0)"><g clip-path="url(#1)"><g clip-path="url(#2)"><path id="1" transform="matrix(1 0 0 -1 0 612)" d="M0 0L858.898 0L858.898 612.284L0 612.284z" stroke="none" fill="#534F4B" fill-rule="nonzero" /></g><g clip-path="url(#3)"><path id="4" transform="matrix(1 0 0 -1 0 612)" d="M56.0932 141.0577C 56.6132 140.8977 57.49654 140.5444 58.0832 140.2777C 58.97654 139.851 59.1832 139.7077 59.3032 139.4277L59.3032 139.4277L59.8832 139.5777C 59.78987 140.0977 59.7832 140.131 59.7432 140.4777C 59.6632 141.331 59.66654 141.331 59.6532 141.4777C 60.6132 140.7977 60.92987 140.5477 61.3432 140.1877C 61.56987 139.9877 61.63321 139.8844 61.7132 139.6577L61.7132 139.6577L62.3732 139.8377C 62.29321 140.171 62.2532 140.3377 62.2132 140.5777C 61.8932 142.4044 61.81654 142.8377 61.8032 142.9177L61.8032 142.9177L61.1732 142.9877C 61.34654 142.241 61.36654 142.1677 61.63321 140.6477C 60.8732 141.2877 60.17654 141.8377 59.6832 142.1577C 58.72321 142.7844 58.7132 142.781 58.3532 143.0477L58.3532 143.0477L58.0332 142.4277C 58.49987 142.1744 58.54321 142.1444 59.1032 141.8377C 59.1832 140.931 59.17987 140.9344 59.2332 140.2677C 58.9932 140.4277 58.9132 140.461 58.7132 140.5677C 58.47321 140.6877 57.61987 141.1177 57.5532 141.1577C 56.6332 141.5577 56.62987 141.561 56.3632 141.7077zM60.3132 144.2377L60.3132 146.6977C 60.3132 147.1244 60.32654 147.3944 60.3532 147.6877C 60.08654 147.6477 59.8232 147.6477 59.4232 147.6477L59.4232 147.6477L57.5332 147.6477C 57.0132 147.6477 56.81987 147.651 56.5532 147.6777C 56.5932 147.411 56.5932 147.1277 56.5932 146.7277L56.5932 146.7277L56.5932 144.3277C 56.5932 143.9677 56.5732 143.6777 56.5332 143.3977L56.5332 143.3977L57.2332 143.3977C 57.20654 143.6377 57.1832 143.9277 57.1832 144.3277L57.1832 144.3277L57.1832 147.0177L57.1832 147.0177L59.7332 147.0177L59.7332 147.0177L59.7332 144.5177C 59.7332 144.131 59.7332 143.851 59.6932 143.5577C 59.9332 143.5977 60.18654 143.6077 60.6532 143.6077L60.6532 143.6077L64.04321 143.6077C 64.77654 143.6077 64.8832 143.881 64.8832 145.8277C 64.8832 148.1344 64.8132 148.2144 62.4932 148.4277C 62.43987 148.1877 62.33987 147.9577 62.1932 147.7577C 63.25987 147.7177 63.8232 147.6377 64.0232 147.4777C 64.22321 147.3177 64.2732 146.921 64.2732 145.7077C 64.2732 144.4144 64.22321 144.2377 63.9032 144.2377zM63.04321 143.0577C 63.2832 142.3644 63.5132 141.451 63.6732 140.5577C 63.7532 140.1044 63.8132 139.631 63.8132 139.4577C 63.8132 139.431 63.8132 139.4144 63.8132 139.3877L63.8132 139.3877L64.5332 139.5377C 64.4932 139.6577 64.47987 139.691 64.4132 140.0377C 64.2132 141.131 63.97321 142.0777 63.6932 143.0377z" stroke="none" fill="#FFFEFE" fill-rule="evenodd" /><path id="5" transform="matrix(1 0 0 -1 0 612)" d="M57.1632 152.6877L56.9032 152.6877C 56.64987 152.6877 56.4332 152.6977 56.1932 152.7377L56.1932 152.7377L56.1932 152.0177C 56.4332 152.0577 56.6632 152.0777 56.9032 152.0777L56.9032 152.0777L57.1632 152.0777L57.1632 152.0777L57.1632 150.5877C 57.1632 150.0944 57.1432 149.7477 57.1032 149.4677L57.1032 149.4677L57.7732 149.4677C 57.7332 149.7477 57.72321 150.0544 57.72321 150.5877L57.72321 150.5877L57.72321 152.0777L57.72321 152.0777L58.0332 152.0777C 58.28654 152.0777 58.4932 152.0644 58.6932 152.0377L58.6932 152.0377L58.6932 152.7277C 58.4932 152.6877 58.31654 152.6877 58.0232 152.6877L58.0232 152.6877L57.72321 152.6877L57.72321 152.6877L57.72321 154.9977L57.72321 154.9977L58.0332 154.9977C 58.29987 154.9977 58.47987 154.9844 58.6932 154.9577L58.6932 154.9577L58.6932 155.6477C 58.4932 155.6077 58.3132 155.6077 58.0332 155.6077L58.0332 155.6077L57.72321 155.6077L57.72321 155.6077L57.72321 157.1477C 57.72321 157.6677 57.7332 157.971 57.7732 158.2777L57.7732 158.2777L57.1032 158.2777C 57.1432 157.971 57.1632 157.6277 57.1632 157.1477L57.1632 157.1477L57.1632 155.6077L57.1632 155.6077L56.9032 155.6077C 56.6632 155.6077 56.41987 155.6177 56.1932 155.6577L56.1932 155.6577L56.1932 154.9377C 56.4332 154.9777 56.6632 154.9977 56.9032 154.9977L56.9032 154.9977L57.1632 154.9977zM60.04321 157.1777C 60.04321 157.6044 60.0632 157.9444 60.1032 158.2777L60.1032 158.2777L59.4132 158.2777C 59.45321 157.9577 59.47321 157.6177 59.47321 157.1777L59.47321 157.1777L59.47321 153.5177C 59.3132 153.5977 59.2432 153.6277 59.0832 153.7077C 58.74987 153.8677 58.71654 153.8944 58.54321 153.9877L58.54321 153.9877L58.3932 153.2477C 58.7532 153.1677 59.0332 153.0744 59.47321 152.8477L59.47321 152.8477L59.47321 150.6377C 59.47321 150.1844 59.45321 149.8244 59.4132 149.5177L59.4132 149.5177L60.1032 149.5177C 60.0632 149.8377 60.04321 150.1977 60.04321 150.6377L60.04321 150.6377L60.04321 152.5077C 61.20321 151.721 61.91987 150.901 62.6932 149.4477C 62.9332 149.6877 62.9332 149.6877 63.13321 149.8077C 63.15987 149.8077 63.1932 149.8277 63.2332 149.8677C 62.64654 150.761 62.4932 150.9577 61.97321 151.5577L61.97321 151.5577L64.12321 151.5577C 64.53654 151.5577 64.80987 151.5377 65.0632 151.4977L65.0632 151.4977L65.0632 152.1977L65.0632 152.1977L64.5032 152.1977L64.5032 152.1977L64.5032 156.4777L64.5032 156.4777L65.0732 156.4777L65.0732 156.4777L65.0732 157.1877C 64.73987 157.1477 64.44987 157.1277 64.1432 157.1277L64.1432 157.1277L62.2632 157.1277C 61.9032 157.1277 61.63321 157.1377 61.3132 157.1777C 61.3532 156.9244 61.3632 156.7177 61.3632 156.2377L61.3632 156.2377L61.3632 152.1877C 60.9632 152.5477 60.66987 152.7877 60.04321 153.1877zM61.9232 152.1977L61.9232 156.4777L61.9232 156.4777L63.9332 156.4777L63.9332 156.4777L63.9332 152.1977z" stroke="none" fill="#FFFEFE" fill-rule="evenodd" /><path id="6" transform="matrix(1 0 0 -1 0 612)" d="M58.04321 164.6177L58.04321 162.8777C 58.04321 162.4777 58.04321 162.191 58.0032 161.9777C 58.25654 162.0044 58.5332 162.0177 58.8932 162.0177L58.8932 162.0177L61.0732 162.0177C 61.57987 162.0177 61.8732 162.0077 62.1932 161.9677L62.1932 161.9677L62.1932 162.6477L62.1932 162.6477L61.6432 162.6477L61.6432 162.6477L61.6432 164.6177L61.6432 164.6177L63.8232 164.6177C 64.35654 164.6177 64.68654 164.5877 65.0332 164.5477L65.0332 164.5477L65.0332 165.3277C 64.6732 165.2744 64.3832 165.2577 63.8232 165.2577L63.8232 165.2577L61.6432 165.2577L61.6432 165.2577L61.6432 167.3977L61.6432 167.3977L62.1932 167.3977L62.1932 167.3977L62.1932 168.0977C 61.85987 168.0577 61.54987 168.0377 61.0832 168.0377L61.0832 168.0377L58.9332 168.0377C 58.4932 168.0377 58.2432 168.0377 58.0032 168.0777C 58.04321 167.8644 58.04321 167.5777 58.04321 167.1377L58.04321 167.1377L58.04321 165.2577L58.04321 165.2577L57.2732 165.2577C 56.73987 165.2577 56.45654 165.2744 56.1232 165.3277L56.1232 165.3277L56.1232 164.5477C 56.4432 164.5877 56.75654 164.6177 57.2632 164.6177zM61.0532 164.6177L61.0532 162.6477L61.0532 162.6477L58.63321 162.6477L58.63321 162.6477L58.63321 164.6177zM61.0532 165.2577L58.63321 165.2577L58.63321 165.2577L58.63321 167.3977L58.63321 167.3977L61.0532 167.3977zM56.8532 159.6177C 57.4932 160.2444 57.90321 160.561 58.7432 161.0677L58.7432 161.0677L58.29321 161.5977C 57.55987 161.1044 57.13654 160.781 56.4432 160.1277zM60.7432 161.1277C 61.9032 160.7277 62.8232 160.2877 63.6632 159.7277C 63.91654 159.5544 64.03654 159.4577 64.1432 159.3377L64.1432 159.3377L64.65321 159.9477C 64.4932 160.0144 64.43987 160.0377 64.05321 160.2777C 63.15987 160.7977 62.42987 161.1477 61.2432 161.6277z" stroke="none" fill="#FFFEFE" fill-rule="evenodd" /></g><g clip-path="url(#4)"><g transform="matrix(0.5142428 0 0 0.5137456 126.8386 125.1685)"><g transform="matrix(1 0 0 1 0 0)"><image x="0" y="0" xlink:href="img_07.png" width="612" height="771" /></g></g></g><path id="8" transform="matrix(1 0 0 -1 0 612)" d="M63.7949 450.5909L63.7949 444.8009L63.7949 444.8009L67.8549 444.8009L67.8549 444.8009L67.8549 445.5009L67.8549 445.5009L67.4149 445.5009L67.4149 445.5009L67.4149 449.8909L67.4149 449.8909L67.8549 449.8909L67.8549 449.8909L67.8549 450.5909L67.8549 450.5909L63.7949 450.5909zM66.7449 445.5009L64.4649 445.5009L64.4649 445.5009L64.4649 449.8909L64.4649 449.8909L66.7449 449.8909L66.7449 449.8909L66.7449 445.5009zM58.9049 448.8309L59.3749 448.3409C 60.18824 449.5676 60.9549 450.5342 61.6749 451.2409L61.6749 451.2409L61.1549 451.7509C 60.40824 450.9509 59.6649 449.9909 58.9049 448.8309zM58.9149 446.3309C 59.70157 445.5709 60.3849 444.6309 60.9849 443.5109L60.9849 443.5109L61.5549 443.9509C 60.94157 445.0976 60.2049 446.0642 59.3649 446.8509L59.3649 446.8509L58.9149 446.3309zM60.7749 447.5109C 61.9349 446.4709 62.8849 445.0209 63.6049 443.1409L63.6049 443.1409L64.2149 443.5409C 63.5749 445.2209 62.67157 446.6042 61.4849 447.7109C 62.5649 448.6042 63.48157 449.9909 64.2149 451.8309L64.2149 451.8309L63.6049 452.2309C 62.79157 450.1909 61.8549 448.7509 60.7749 447.9109L60.7749 447.9109L60.7749 447.5109z" stroke="none" fill="#FFFEFE" fill-rule="evenodd" /><path id="9" transform="matrix(1 0 0 -1 0 612)" d="M62.9649 457.6009L62.9649 459.0109L62.9649 459.0109L64.3349 459.0109L64.3349 459.0109L64.3349 457.6009L64.3349 457.6009L62.9649 457.6009zM62.9649 459.7209L62.9649 461.1709L62.9649 461.1709L64.3349 461.1709L64.3349 461.1709L64.3349 459.7209L64.3349 459.7209L62.9649 459.7209zM65.0249 461.1709L65.5649 461.1709L65.5649 461.1709L65.5649 461.8909L65.5649 461.8909L60.2449 461.8909L60.2449 461.8909L60.2449 459.7209L60.2449 459.7209L58.6949 459.7209L58.6949 459.7209L58.6949 459.0109L58.6949 459.0109L60.2449 459.0109L60.2449 459.0109L60.2449 456.8809L60.2449 456.8809L65.57491 456.8809L65.57491 456.8809L65.57491 457.6009L65.57491 457.6009L65.0249 457.6009L65.0249 457.6009L65.0249 459.0109L65.0249 459.0109L67.86491 459.0109L67.86491 459.0109L67.86491 459.7209L67.86491 459.7209L65.0249 459.7209L65.0249 459.7209L65.0249 461.1709zM62.3149 461.1709L62.3149 459.7209L62.3149 459.7209L60.9349 459.7209L60.9349 459.7209L60.9349 461.1709L60.9349 461.1709L62.3149 461.1709zM62.3149 459.0109L62.3149 457.6009L62.3149 457.6009L60.9349 457.6009L60.9349 457.6009L60.9349 459.0109L60.9349 459.0109L62.3149 459.0109zM63.7149 454.5609L67.8849 454.5609L67.8849 454.5609L67.8849 455.2709L67.8849 455.2709L63.6849 455.2709C 63.95157 455.5909 64.2449 455.9109 64.6049 456.2309L64.6049 456.2309L64.0149 456.6209C 63.6149 456.2076 63.25157 455.7509 62.9449 455.2709L62.9449 455.2709L62.8549 455.2709C 62.16157 455.7776 61.4549 456.1609 60.7349 456.4009L60.7349 456.4009L60.1249 456.4009L60.1249 456.4009L60.1249 455.1709L60.1249 455.1709L60.0149 455.4609C 59.60157 455.3275 59.15157 455.1542 58.64491 454.9409L58.64491 454.9409L58.8449 454.2609C 59.25824 454.4609 59.6849 454.6509 60.1249 454.8109L60.1249 454.8109L60.1249 453.3209L60.1249 453.3209L60.8149 453.3209L60.8149 453.3209L60.8149 455.6809C 61.90824 455.2409 63.03157 454.3809 64.1649 453.1009L64.1649 453.1009L64.9249 453.3209C 64.5249 453.7742 64.11491 454.1876 63.7149 454.5609z" stroke="none" fill="#FFFEFE" fill-rule="evenodd" /><g clip-path="url(#5)"><g transform="matrix(0.5135547 0 0 0.513189 453.1535 304.959)"><g transform="matrix(1 0 0 1 0 0)"><image x="0" y="0" xlink:href="img_08.png" width="630" height="422" /></g></g></g></g></g></svg>