<svg xmlns="http://www.w3.org/2000/svg" xmlns:xlink="http://www.w3.org/1999/xlink" id="body_1" preserveAspectRatio="xMinYMin meet" viewBox="0 0 1144 816"><defs><clipPath id="1"><path id="" clip-rule="evenodd" transform="matrix(1 0 0 1 0 0)" d="M0 612L0 -0.28302L0 -0.28302L858.898 -0.28302L858.898 -0.28302L858.898 612L858.898 612L0 612z" /></clipPath><clipPath id="2"><path id="" clip-rule="evenodd" transform="matrix(1 0 0 1 0 0)" d="M0 -0.28302L858.898 -0.28302L858.898 -0.28302L858.898 612L858.898 612L0 612z" /></clipPath><clipPath id="3"><path id="" clip-rule="evenodd" transform="matrix(1 0 0 1 0 0)" d="M92.789 611.013L802.205 611.013L802.205 611.013L802.205 0.7039795L802.205 0.7039795L92.789 0.7039795z" /></clipPath></defs><g transform="matrix(1.333333 0 0 1.333333 0 0)"><g clip-path="url(#1)"><g clip-path="url(#2)"><path id="1" transform="matrix(1 0 0 -1 0 612)" d="M56.0365 141.0577C 56.5565 140.8977 57.43983 140.5444 58.0265 140.2777C 58.91983 139.851 59.1265 139.7077 59.2465 139.4277L59.2465 139.4277L59.8265 139.5777C 59.73317 140.0977 59.7265 140.131 59.6865 140.4777C 59.6065 141.331 59.60984 141.331 59.5965 141.4777C 60.5565 140.7977 60.87317 140.5477 61.2865 140.1877C 61.51317 139.9877 61.5765 139.8844 61.6565 139.6577L61.6565 139.6577L62.3165 139.8377C 62.2365 140.171 62.1965 140.3377 62.1565 140.5777C 61.8365 142.4044 61.75983 142.8377 61.7465 142.9177L61.7465 142.9177L61.1165 142.9877C 61.28984 142.241 61.30984 142.1677 61.5765 140.6477C 60.8165 141.2877 60.11983 141.8377 59.6265 142.1577C 58.6665 142.7844 58.6565 142.781 58.2965 143.0477L58.2965 143.0477L57.9765 142.4277C 58.44317 142.1744 58.4865 142.1444 59.0465 141.8377C 59.1265 140.931 59.12317 140.9344 59.1765 140.2677C 58.9365 140.4277 58.8565 140.461 58.6565 140.5677C 58.4165 140.6877 57.56317 141.1177 57.4965 141.1577C 56.5765 141.5577 56.57317 141.561 56.3065 141.7077zM60.2565 144.2377L60.2565 146.6977C 60.2565 147.1244 60.26984 147.3944 60.2965 147.6877C 60.02983 147.6477 59.7665 147.6477 59.3665 147.6477L59.3665 147.6477L57.4765 147.6477C 56.9565 147.6477 56.76317 147.651 56.4965 147.6777C 56.5365 147.411 56.5365 147.1277 56.5365 146.7277L56.5365 146.7277L56.5365 144.3277C 56.5365 143.9677 56.5165 143.6777 56.4765 143.3977L56.4765 143.3977L57.1765 143.3977C 57.14983 143.6377 57.1265 143.9277 57.1265 144.3277L57.1265 144.3277L57.1265 147.0177L57.1265 147.0177L59.6765 147.0177L59.6765 147.0177L59.6765 144.5177C 59.6765 144.131 59.6765 143.851 59.6365 143.5577C 59.8765 143.5977 60.12984 143.6077 60.5965 143.6077L60.5965 143.6077L63.9865 143.6077C 64.71983 143.6077 64.8265 143.881 64.8265 145.8277C 64.8265 148.1344 64.7565 148.2144 62.4365 148.4277C 62.38317 148.1877 62.28317 147.9577 62.1365 147.7577C 63.20317 147.7177 63.7665 147.6377 63.9665 147.4777C 64.1665 147.3177 64.2165 146.921 64.2165 145.7077C 64.2165 144.4144 64.1665 144.2377 63.8465 144.2377zM62.9865 143.0577C 63.2265 142.3644 63.4565 141.451 63.6165 140.5577C 63.6965 140.1044 63.7565 139.631 63.7565 139.4577C 63.7565 139.431 63.7565 139.4144 63.7565 139.3877L63.7565 139.3877L64.4765 139.5377C 64.4365 139.6577 64.42317 139.691 64.3565 140.0377C 64.1565 141.131 63.9165 142.0777 63.6365 143.0377z" stroke="none" fill="#333332" fill-rule="evenodd" /><path id="2" transform="matrix(1 0 0 -1 0 612)" d="M57.1065 152.6877L56.8465 152.6877C 56.59317 152.6877 56.3765 152.6977 56.1365 152.7377L56.1365 152.7377L56.1365 152.0177C 56.3765 152.0577 56.6065 152.0777 56.8465 152.0777L56.8465 152.0777L57.1065 152.0777L57.1065 152.0777L57.1065 150.5877C 57.1065 150.0944 57.0865 149.7477 57.0465 149.4677L57.0465 149.4677L57.7165 149.4677C 57.6765 149.7477 57.6665 150.0544 57.6665 150.5877L57.6665 150.5877L57.6665 152.0777L57.6665 152.0777L57.9765 152.0777C 58.22984 152.0777 58.4365 152.0644 58.6365 152.0377L58.6365 152.0377L58.6365 152.7277C 58.4365 152.6877 58.25983 152.6877 57.9665 152.6877L57.9665 152.6877L57.6665 152.6877L57.6665 152.6877L57.6665 154.9977L57.6665 154.9977L57.9765 154.9977C 58.24317 154.9977 58.42317 154.9844 58.6365 154.9577L58.6365 154.9577L58.6365 155.6477C 58.4365 155.6077 58.2565 155.6077 57.9765 155.6077L57.9765 155.6077L57.6665 155.6077L57.6665 155.6077L57.6665 157.1477C 57.6665 157.6677 57.6765 157.971 57.7165 158.2777L57.7165 158.2777L57.0465 158.2777C 57.0865 157.971 57.1065 157.6277 57.1065 157.1477L57.1065 157.1477L57.1065 155.6077L57.1065 155.6077L56.8465 155.6077C 56.6065 155.6077 56.36317 155.6177 56.1365 155.6577L56.1365 155.6577L56.1365 154.9377C 56.3765 154.9777 56.6065 154.9977 56.8465 154.9977L56.8465 154.9977L57.1065 154.9977zM59.9865 157.1777C 59.9865 157.6044 60.0065 157.9444 60.0465 158.2777L60.0465 158.2777L59.3565 158.2777C 59.3965 157.9577 59.4165 157.6177 59.4165 157.1777L59.4165 157.1777L59.4165 153.5177C 59.2565 153.5977 59.1865 153.6277 59.0265 153.7077C 58.69317 153.8677 58.65984 153.8944 58.4865 153.9877L58.4865 153.9877L58.3365 153.2477C 58.6965 153.1677 58.9765 153.0744 59.4165 152.8477L59.4165 152.8477L59.4165 150.6377C 59.4165 150.1844 59.3965 149.8244 59.3565 149.5177L59.3565 149.5177L60.0465 149.5177C 60.0065 149.8377 59.9865 150.1977 59.9865 150.6377L59.9865 150.6377L59.9865 152.5077C 61.1465 151.721 61.86317 150.901 62.6365 149.4477C 62.8765 149.6877 62.8765 149.6877 63.0765 149.8077C 63.10317 149.8077 63.1365 149.8277 63.1765 149.8677C 62.58984 150.761 62.4365 150.9577 61.9165 151.5577L61.9165 151.5577L64.06651 151.5577C 64.47984 151.5577 64.75317 151.5377 65.0065 151.4977L65.0065 151.4977L65.0065 152.1977L65.0065 152.1977L64.4465 152.1977L64.4465 152.1977L64.4465 156.4777L64.4465 156.4777L65.0165 156.4777L65.0165 156.4777L65.0165 157.1877C 64.68317 157.1477 64.39317 157.1277 64.0865 157.1277L64.0865 157.1277L62.2065 157.1277C 61.8465 157.1277 61.5765 157.1377 61.2565 157.1777C 61.2965 156.9244 61.3065 156.7177 61.3065 156.2377L61.3065 156.2377L61.3065 152.1877C 60.9065 152.5477 60.61317 152.7877 59.9865 153.1877zM61.8665 152.1977L61.8665 156.4777L61.8665 156.4777L63.8765 156.4777L63.8765 156.4777L63.8765 152.1977z" stroke="none" fill="#333332" fill-rule="evenodd" /><path id="3" transform="matrix(1 0 0 -1 0 612)" d="M57.9865 164.6177L57.9865 162.8777C 57.9865 162.4777 57.9865 162.191 57.9465 161.9777C 58.19984 162.0044 58.4765 162.0177 58.8365 162.0177L58.8365 162.0177L61.0165 162.0177C 61.52317 162.0177 61.8165 162.0077 62.1365 161.9677L62.1365 161.9677L62.1365 162.6477L62.1365 162.6477L61.5865 162.6477L61.5865 162.6477L61.5865 164.6177L61.5865 164.6177L63.7665 164.6177C 64.29984 164.6177 64.62984 164.5877 64.9765 164.5477L64.9765 164.5477L64.9765 165.3277C 64.6165 165.2744 64.3265 165.2577 63.7665 165.2577L63.7665 165.2577L61.5865 165.2577L61.5865 165.2577L61.5865 167.3977L61.5865 167.3977L62.1365 167.3977L62.1365 167.3977L62.1365 168.0977C 61.80317 168.0577 61.49317 168.0377 61.0265 168.0377L61.0265 168.0377L58.8765 168.0377C 58.4365 168.0377 58.1865 168.0377 57.9465 168.0777C 57.9865 167.8644 57.9865 167.5777 57.9865 167.1377L57.9865 167.1377L57.9865 165.2577L57.9865 165.2577L57.2165 165.2577C 56.68317 165.2577 56.39983 165.2744 56.0665 165.3277L56.0665 165.3277L56.0665 164.5477C 56.3865 164.5877 56.69984 164.6177 57.2065 164.6177zM60.9965 164.6177L60.9965 162.6477L60.9965 162.6477L58.5765 162.6477L58.5765 162.6477L58.5765 164.6177zM60.9965 165.2577L58.5765 165.2577L58.5765 165.2577L58.5765 167.3977L58.5765 167.3977L60.9965 167.3977zM56.7965 159.6177C 57.4365 160.2444 57.8465 160.561 58.6865 161.0677L58.6865 161.0677L58.2365 161.5977C 57.50317 161.1044 57.07983 160.781 56.3865 160.1277zM60.6865 161.1277C 61.8465 160.7277 62.7665 160.2877 63.6065 159.7277C 63.85984 159.5544 63.97984 159.4577 64.0865 159.3377L64.0865 159.3377L64.5965 159.9477C 64.4365 160.0144 64.38317 160.0377 63.9965 160.2777C 63.10317 160.7977 62.37317 161.1477 61.1865 161.6277z" stroke="none" fill="#333332" fill-rule="evenodd" /></g><g clip-path="url(#3)"><g transform="matrix(0.5141922 0 0 0.5141603 92.78918 0.7041016)"><g transform="matrix(1 0 0 1 0 0)"><image x="0" y="0" xlink:href="img_01.png" width="1382" height="1187" /></g></g></g><path id="5" transform="matrix(1 0 0 -1 0 612)" d="M63.7785 478.004L63.7785 472.214L63.7785 472.214L67.8385 472.214L67.8385 472.214L67.8385 472.914L67.8385 472.914L67.3985 472.914L67.3985 472.914L67.3985 477.304L67.3985 477.304L67.8385 477.304L67.8385 477.304L67.8385 478.004L67.8385 478.004L63.7785 478.004zM66.7285 472.914L64.4485 472.914L64.4485 472.914L64.4485 477.304L64.4485 477.304L66.7285 477.304L66.7285 477.304L66.7285 472.914zM58.8885 476.244L59.3585 475.754C 60.17183 476.9807 60.9385 477.9473 61.6585 478.654L61.6585 478.654L61.1385 479.164C 60.39183 478.364 59.6485 477.404 58.8885 476.244zM58.8985 473.744C 59.68517 472.984 60.3685 472.044 60.9685 470.924L60.9685 470.924L61.5385 471.364C 60.92517 472.5107 60.1885 473.4773 59.3485 474.264L59.3485 474.264L58.8985 473.744zM60.7585 474.924C 61.9185 473.884 62.8685 472.434 63.5885 470.554L63.5885 470.554L64.1985 470.954C 63.5585 472.634 62.65517 474.0173 61.4685 475.124C 62.5485 476.0173 63.46517 477.404 64.1985 479.244L64.1985 479.244L63.5885 479.644C 62.77517 477.604 61.8385 476.164 60.7585 475.324L60.7585 475.324L60.7585 474.924z" stroke="none" fill="#323232" fill-rule="evenodd" /><path id="6" transform="matrix(1 0 0 -1 0 612)" d="M62.9485 485.014L62.9485 486.424L62.9485 486.424L64.3185 486.424L64.3185 486.424L64.3185 485.014L64.3185 485.014L62.9485 485.014zM62.9485 487.134L62.9485 488.584L62.9485 488.584L64.3185 488.584L64.3185 488.584L64.3185 487.134L64.3185 487.134L62.9485 487.134zM65.0085 488.584L65.5485 488.584L65.5485 488.584L65.5485 489.304L65.5485 489.304L60.2285 489.304L60.2285 489.304L60.2285 487.134L60.2285 487.134L58.6785 487.134L58.6785 487.134L58.6785 486.424L58.6785 486.424L60.2285 486.424L60.2285 486.424L60.2285 484.294L60.2285 484.294L65.5585 484.294L65.5585 484.294L65.5585 485.014L65.5585 485.014L65.0085 485.014L65.0085 485.014L65.0085 486.424L65.0085 486.424L67.8485 486.424L67.8485 486.424L67.8485 487.134L67.8485 487.134L65.0085 487.134L65.0085 487.134L65.0085 488.584zM62.2985 488.584L62.2985 487.134L62.2985 487.134L60.9185 487.134L60.9185 487.134L60.9185 488.584L60.9185 488.584L62.2985 488.584zM62.2985 486.424L62.2985 485.014L62.2985 485.014L60.9185 485.014L60.9185 485.014L60.9185 486.424L60.9185 486.424L62.2985 486.424zM63.6985 481.974L67.8685 481.974L67.8685 481.974L67.8685 482.684L67.8685 482.684L63.6685 482.684C 63.93517 483.004 64.2285 483.324 64.5885 483.644L64.5885 483.644L63.9985 484.034C 63.5985 483.6207 63.23516 483.164 62.9285 482.684L62.9285 482.684L62.8385 482.684C 62.14516 483.1907 61.4385 483.574 60.7185 483.814L60.7185 483.814L60.1085 483.814L60.1085 483.814L60.1085 482.584L60.1085 482.584L59.9985 482.874C 59.58517 482.7407 59.13517 482.5673 58.6285 482.354L58.6285 482.354L58.8285 481.674C 59.24183 481.874 59.6685 482.064 60.1085 482.224L60.1085 482.224L60.1085 480.734L60.1085 480.734L60.7985 480.734L60.7985 480.734L60.7985 483.094C 61.89183 482.654 63.01517 481.794 64.1485 480.514L64.1485 480.514L64.9085 480.734C 64.5085 481.1873 64.0985 481.6007 63.6985 481.974z" stroke="none" fill="#323232" fill-rule="evenodd" /></g></g></svg>