<svg xmlns="http://www.w3.org/2000/svg" xmlns:xlink="http://www.w3.org/1999/xlink" id="body_4" preserveAspectRatio="xMinYMin meet" viewBox="0 0 1144 816"><defs><clipPath id="1"><path id="" clip-rule="evenodd" transform="matrix(1 0 0 1 0 0)" d="M0 612L0 -0.28302L0 -0.28302L858.898 -0.28302L858.898 -0.28302L858.898 612L858.898 612L0 612z" /></clipPath><clipPath id="2"><path id="" clip-rule="evenodd" transform="matrix(1 0 0 1 0 0)" d="M0 -0.28302L858.898 -0.28302L858.898 -0.28302L858.898 612L858.898 612L0 612z" /></clipPath><clipPath id="3"><path id="" clip-rule="evenodd" transform="matrix(1 0 0 1 0 0)" d="M56.693 56.40997L365.622 56.40997L365.622 56.40997L365.622 375.307L365.622 375.307L56.693 375.307z" /></clipPath><clipPath id="4"><path id="" clip-rule="evenodd" transform="matrix(1 0 0 1 0 0)" d="M382.019 555.307L778.677 555.307L778.677 555.307L778.677 304.858L778.677 304.858L382.019 304.858z" /></clipPath><clipPath id="5"><path id="" clip-rule="evenodd" transform="matrix(1 0 0 1 0 0)" d="M382.019 218.268L549.701 218.268L549.701 218.268L549.701 56.409L549.701 56.409L382.019 56.409z" /></clipPath></defs><g transform="matrix(1.333333 0 0 1.333333 0 0)"><g clip-path="url(#1)"><g clip-path="url(#2)"><path id="1" transform="matrix(1 0 0 -1 0 612)" d="M802.6706 188.9572C 802.1506 189.1172 801.2673 189.4705 800.6806 189.7372C 799.7873 190.1639 799.5806 190.3072 799.4606 190.5872L799.4606 190.5872L798.8806 190.4372C 798.9739 189.9172 798.9806 189.8839 799.0206 189.5372C 799.1006 188.6839 799.0973 188.6839 799.1106 188.5372C 798.1506 189.2172 797.8339 189.4672 797.4206 189.8272C 797.1939 190.0272 797.1306 190.1305 797.0506 190.3572L797.0506 190.3572L796.3906 190.1772C 796.4706 189.8439 796.5106 189.6772 796.5506 189.4372C 796.8706 187.6105 796.9473 187.1772 796.9606 187.0972L796.9606 187.0972L797.5906 187.0272C 797.4173 187.7739 797.3973 187.8472 797.1306 189.3672C 797.8906 188.7272 798.5873 188.1772 799.0806 187.8572C 800.0406 187.2305 800.0506 187.2339 800.4106 186.9672L800.4106 186.9672L800.7306 187.5872C 800.2639 187.8405 800.2206 187.8705 799.6606 188.1772C 799.5806 189.0839 799.5839 189.0805 799.5306 189.7472C 799.7706 189.5872 799.8506 189.5539 800.0506 189.4472C 800.2906 189.3272 801.1439 188.8972 801.2106 188.8572C 802.1306 188.4572 802.1339 188.4539 802.4006 188.3072zM798.4506 185.7772L798.4506 183.3172C 798.4506 182.8905 798.4373 182.6205 798.4106 182.3272C 798.6772 182.3672 798.9406 182.3672 799.3406 182.3672L799.3406 182.3672L801.2306 182.3672C 801.7506 182.3672 801.9439 182.3639 802.2106 182.3372C 802.1706 182.6039 802.1706 182.8872 802.1706 183.2872L802.1706 183.2872L802.1706 185.6872C 802.1706 186.0472 802.1906 186.3372 802.2306 186.6172L802.2306 186.6172L801.5306 186.6172C 801.5573 186.3772 801.5806 186.0872 801.5806 185.6872L801.5806 185.6872L801.5806 182.9972L801.5806 182.9972L799.0306 182.9972L799.0306 182.9972L799.0306 185.4972C 799.0306 185.8839 799.0306 186.1639 799.0706 186.4572C 798.8306 186.4172 798.5773 186.4072 798.1106 186.4072L798.1106 186.4072L794.7206 186.4072C 793.9872 186.4072 793.8806 186.1339 793.8806 184.1872C 793.8806 181.8805 793.9506 181.8005 796.2706 181.5872C 796.3239 181.8272 796.424 182.0572 796.5706 182.2572C 795.504 182.2972 794.9406 182.3772 794.7406 182.5372C 794.5406 182.6972 794.4906 183.0939 794.4906 184.3072C 794.4906 185.6005 794.5406 185.7772 794.8606 185.7772zM795.7206 186.9572C 795.4806 187.6505 795.2506 188.5639 795.0906 189.4572C 795.0106 189.9105 794.9506 190.3839 794.9506 190.5572C 794.9506 190.5839 794.9506 190.6005 794.9506 190.6272L794.9506 190.6272L794.2306 190.4772C 794.2706 190.3572 794.2839 190.3239 794.3506 189.9772C 794.5506 188.8839 794.7906 187.9372 795.0706 186.9772z" stroke="none" fill="#323232" fill-rule="evenodd" /><path id="2" transform="matrix(1 0 0 -1 0 612)" d="M801.6006 177.3272L801.8606 177.3272C 802.114 177.3272 802.3306 177.3172 802.5706 177.2772L802.5706 177.2772L802.5706 177.9972C 802.3306 177.9572 802.1006 177.9372 801.8606 177.9372L801.8606 177.9372L801.6006 177.9372L801.6006 177.9372L801.6006 179.4272C 801.6006 179.9205 801.6206 180.2672 801.6606 180.5472L801.6606 180.5472L800.9906 180.5472C 801.0306 180.2672 801.0406 179.9605 801.0406 179.4272L801.0406 179.4272L801.0406 177.9372L801.0406 177.9372L800.7306 177.9372C 800.4773 177.9372 800.2706 177.9505 800.0706 177.9772L800.0706 177.9772L800.0706 177.2872C 800.2706 177.3272 800.4473 177.3272 800.7406 177.3272L800.7406 177.3272L801.0406 177.3272L801.0406 177.3272L801.0406 175.0172L801.0406 175.0172L800.7306 175.0172C 800.4639 175.0172 800.2839 175.0305 800.0706 175.0572L800.0706 175.0572L800.0706 174.3672C 800.2706 174.4072 800.4506 174.4072 800.7306 174.4072L800.7306 174.4072L801.0406 174.4072L801.0406 174.4072L801.0406 172.8672C 801.0406 172.3472 801.0306 172.0439 800.9906 171.7372L800.9906 171.7372L801.6606 171.7372C 801.6206 172.0439 801.6006 172.3872 801.6006 172.8672L801.6006 172.8672L801.6006 174.4072L801.6006 174.4072L801.8606 174.4072C 802.1006 174.4072 802.3439 174.3972 802.5706 174.3572L802.5706 174.3572L802.5706 175.0772C 802.3306 175.0372 802.1006 175.0172 801.8606 175.0172L801.8606 175.0172L801.6006 175.0172zM798.7206 172.8372C 798.7206 172.4105 798.7006 172.0705 798.6606 171.7372L798.6606 171.7372L799.3506 171.7372C 799.3106 172.0572 799.2906 172.3972 799.2906 172.8372L799.2906 172.8372L799.2906 176.4972C 799.4506 176.4172 799.5206 176.3872 799.6806 176.3072C 800.0139 176.1472 800.0472 176.1205 800.2206 176.0272L800.2206 176.0272L800.3706 176.7672C 800.0106 176.8472 799.7306 176.9405 799.2906 177.1672L799.2906 177.1672L799.2906 179.3772C 799.2906 179.8305 799.3106 180.1905 799.3506 180.4972L799.3506 180.4972L798.6606 180.4972C 798.7006 180.1772 798.7206 179.8172 798.7206 179.3772L798.7206 179.3772L798.7206 177.5072C 797.5606 178.2939 796.8439 179.1139 796.0706 180.5672C 795.8306 180.3272 795.8306 180.3272 795.6306 180.2072C 795.6039 180.2072 795.5706 180.1872 795.5306 180.1472C 796.1172 179.2539 796.2706 179.0572 796.7906 178.4572L796.7906 178.4572L794.6406 178.4572C 794.2273 178.4572 793.9539 178.4772 793.7006 178.5172L793.7006 178.5172L793.7006 177.8172L793.7006 177.8172L794.2606 177.8172L794.2606 177.8172L794.2606 173.5372L794.2606 173.5372L793.6906 173.5372L793.6906 173.5372L793.6906 172.8272C 794.0239 172.8672 794.314 172.8872 794.6206 172.8872L794.6206 172.8872L796.5006 172.8872C 796.8606 172.8872 797.1306 172.8772 797.4506 172.8372C 797.4106 173.0905 797.4006 173.2972 797.4006 173.7772L797.4006 173.7772L797.4006 177.8272C 797.8006 177.4672 798.0939 177.2272 798.7206 176.8272zM796.8406 177.8172L796.8406 173.5372L796.8406 173.5372L794.8306 173.5372L794.8306 173.5372L794.8306 177.8172z" stroke="none" fill="#323232" fill-rule="evenodd" /><path id="3" transform="matrix(1 0 0 -1 0 612)" d="M800.7206 165.3972L800.7206 167.1372C 800.7206 167.5372 800.7206 167.8239 800.7606 168.0372C 800.5073 168.0105 800.2306 167.9972 799.8706 167.9972L799.8706 167.9972L797.6906 167.9972C 797.184 167.9972 796.8906 168.0072 796.5706 168.0472L796.5706 168.0472L796.5706 167.3672L796.5706 167.3672L797.1206 167.3672L797.1206 167.3672L797.1206 165.3972L797.1206 165.3972L794.9406 165.3972C 794.4073 165.3972 794.0773 165.4272 793.7306 165.4672L793.7306 165.4672L793.7306 164.6872C 794.0906 164.7405 794.3806 164.7572 794.9406 164.7572L794.9406 164.7572L797.1206 164.7572L797.1206 164.7572L797.1206 162.6172L797.1206 162.6172L796.5706 162.6172L796.5706 162.6172L796.5706 161.9172C 796.9039 161.9572 797.2139 161.9772 797.6806 161.9772L797.6806 161.9772L799.8306 161.9772C 800.2706 161.9772 800.5206 161.9772 800.7606 161.9372C 800.7206 162.1505 800.7206 162.4372 800.7206 162.8772L800.7206 162.8772L800.7206 164.7572L800.7206 164.7572L801.4906 164.7572C 802.0239 164.7572 802.3073 164.7405 802.6406 164.6872L802.6406 164.6872L802.6406 165.4672C 802.3206 165.4272 802.0073 165.3972 801.5006 165.3972zM797.7106 165.3972L797.7106 167.3672L797.7106 167.3672L800.1306 167.3672L800.1306 167.3672L800.1306 165.3972zM797.7106 164.7572L800.1306 164.7572L800.1306 164.7572L800.1306 162.6172L800.1306 162.6172L797.7106 162.6172zM801.9106 170.3972C 801.2706 169.7705 800.8606 169.4539 800.0206 168.9472L800.0206 168.9472L800.4706 168.4172C 801.2039 168.9105 801.6273 169.2339 802.3206 169.8872zM798.0206 168.8872C 796.8606 169.2872 795.9406 169.7272 795.1006 170.2872C 794.8473 170.4605 794.7273 170.5572 794.6206 170.6772L794.6206 170.6772L794.1106 170.0672C 794.2706 170.0005 794.3239 169.9772 794.7106 169.7372C 795.6039 169.2172 796.3339 168.8672 797.5206 168.3872z" stroke="none" fill="#323232" fill-rule="evenodd" /></g><path id="4" transform="matrix(1 0 0 -1 0 612)" d="M699.78 111.142L745.079 111.142L745.079 610.04L699.78 610.04z" stroke="none" fill="#FFFEFE" fill-rule="nonzero" /><path id="211" transform="matrix(1 0 0 -1 0 612)" d="M56.693 236.693L366.551 236.693L366.551 555.59L56.693 555.59z" stroke="none" fill="#DBDCDE" fill-rule="nonzero" /><g clip-path="url(#3)"><g transform="matrix(0.5140238 0 0 0.5135227 56.69293 56.40942)"><g transform="matrix(1 0 0 1 0 0)"><image x="0" y="0" xlink:href="img_10.png" width="601" height="621" /></g></g></g><path id="214" transform="matrix(1 0 0 -1 0 612)" d="M795.1024 543.0287L795.1024 548.8187L795.1024 548.8187L791.0424 548.8187L791.0424 548.8187L791.0424 548.1187L791.0424 548.1187L791.4823 548.1187L791.4823 548.1187L791.4823 543.7287L791.4823 543.7287L791.0424 543.7287L791.0424 543.7287L791.0424 543.0287L791.0424 543.0287L795.1024 543.0287zM792.1523 548.1187L794.4323 548.1187L794.4323 548.1187L794.4323 543.7287L794.4323 543.7287L792.1523 543.7287L792.1523 543.7287L792.1523 548.1187zM799.9923 544.7887L799.5223 545.2787C 798.709 544.0521 797.9423 543.0854 797.2224 542.3787L797.2224 542.3787L797.7423 541.8687C 798.489 542.6687 799.2323 543.6287 799.9923 544.7887zM799.9823 547.2887C 799.1957 548.0487 798.5123 548.9887 797.9124 550.1087L797.9124 550.1087L797.3423 549.6687C 797.9557 548.522 798.6923 547.5554 799.5323 546.7687L799.5323 546.7687L799.9823 547.2887zM798.1223 546.1087C 796.9623 547.1487 796.0123 548.5987 795.2924 550.4787L795.2924 550.4787L794.6823 550.0787C 795.3223 548.3987 796.2256 547.0154 797.4124 545.9087C 796.3323 545.0154 795.4156 543.6287 794.6823 541.7887L794.6823 541.7887L795.2924 541.3887C 796.1057 543.4287 797.0424 544.8687 798.1223 545.7087L798.1223 545.7087L798.1223 546.1087z" stroke="none" fill="#323232" fill-rule="evenodd" /><path id="215" transform="matrix(1 0 0 -1 0 612)" d="M795.9323 536.0187L795.9323 534.6087L795.9323 534.6087L794.5623 534.6087L794.5623 534.6087L794.5623 536.0187L794.5623 536.0187L795.9323 536.0187zM795.9323 533.8987L795.9323 532.4487L795.9323 532.4487L794.5623 532.4487L794.5623 532.4487L794.5623 533.8987L794.5623 533.8987L795.9323 533.8987zM793.8723 532.4487L793.3323 532.4487L793.3323 532.4487L793.3323 531.7287L793.3323 531.7287L798.6523 531.7287L798.6523 531.7287L798.6523 533.8987L798.6523 533.8987L800.2023 533.8987L800.2023 533.8987L800.2023 534.6087L800.2023 534.6087L798.6523 534.6087L798.6523 534.6087L798.6523 536.7387L798.6523 536.7387L793.3223 536.7387L793.3223 536.7387L793.3223 536.0187L793.3223 536.0187L793.8723 536.0187L793.8723 536.0187L793.8723 534.6087L793.8723 534.6087L791.0323 534.6087L791.0323 534.6087L791.0323 533.8987L791.0323 533.8987L793.8723 533.8987L793.8723 533.8987L793.8723 532.4487zM796.5823 532.4487L796.5823 533.8987L796.5823 533.8987L797.9623 533.8987L797.9623 533.8987L797.9623 532.4487L797.9623 532.4487L796.5823 532.4487zM796.5823 534.6087L796.5823 536.0187L796.5823 536.0187L797.9623 536.0187L797.9623 536.0187L797.9623 534.6087L797.9623 534.6087L796.5823 534.6087zM795.1823 539.0587L791.0123 539.0587L791.0123 539.0587L791.0123 538.3487L791.0123 538.3487L795.2123 538.3487C 794.9457 538.0287 794.6523 537.7087 794.2924 537.3887L794.2924 537.3887L794.8823 536.9987C 795.2823 537.412 795.6457 537.8687 795.9523 538.3487L795.9523 538.3487L796.0424 538.3487C 796.7357 537.842 797.4423 537.4587 798.1624 537.2187L798.1624 537.2187L798.7723 537.2187L798.7723 537.2187L798.7723 538.4487L798.7723 538.4487L798.8823 538.1587C 799.2957 538.2921 799.7457 538.4654 800.2523 538.6787L800.2523 538.6787L800.0523 539.3587C 799.639 539.1587 799.2123 538.9687 798.7723 538.8087L798.7723 538.8087L798.7723 540.2987L798.7723 540.2987L798.0823 540.2987L798.0823 540.2987L798.0823 537.9387C 796.989 538.3787 795.8657 539.2387 794.7323 540.5187L794.7323 540.5187L793.9724 540.2987C 794.3723 539.8454 794.7823 539.4321 795.1823 539.0587z" stroke="none" fill="#323232" fill-rule="evenodd" /><g clip-path="url(#4)"><g transform="matrix(0.5138051 0 0 0.513518 382.0196 303.6833)"><g transform="matrix(1 0 0 1 0 0)"><image x="0" y="0" xlink:href="img_11.png" width="772" height="492" /></g></g></g><g clip-path="url(#5)"><g transform="matrix(0.5128208 0 0 0.5138358 380.9884 56.40942)"><g transform="matrix(1 0 0 1 0 0)"><image x="0" y="0" xlink:href="img_12.png" width="331" height="315" /></g></g></g></g></g></svg>