<svg xmlns="http://www.w3.org/2000/svg" xmlns:xlink="http://www.w3.org/1999/xlink" id="body_6" preserveAspectRatio="xMinYMin meet" viewBox="0 0 1144 816"><defs><clipPath id="1"><path id="" clip-rule="evenodd" transform="matrix(1 0 0 1 0 0)" d="M0 612L0 -0.28302L0 -0.28302L858.898 -0.28302L858.898 -0.28302L858.898 612L858.898 612L0 612z" /></clipPath><clipPath id="2"><path id="" clip-rule="evenodd" transform="matrix(1 0 0 1 0 0)" d="M0 -0.28302L858.898 -0.28302L858.898 -0.28302L858.898 612L858.898 612L0 612z" /></clipPath><clipPath id="3"><path id="" clip-rule="evenodd" transform="matrix(1 0 0 1 0 0)" d="M57.175 115.169L244.555 115.169L244.555 115.169L244.555 434.506L244.555 434.506L57.175 434.506z" /></clipPath><clipPath id="4"><path id="" clip-rule="evenodd" transform="matrix(1 0 0 1 0 0)" d="M502.041 308.072L785.331 308.072L785.331 308.072L785.331 115.17L785.331 115.17L502.041 115.17z" /></clipPath><clipPath id="5"><path id="" clip-rule="evenodd" transform="matrix(1 0 0 1 0 0)" d="M502.041 507.247L785.331 507.247L785.331 507.247L785.331 314.344L785.331 314.344L502.041 314.344z" /></clipPath><clipPath id="6"><path id="" clip-rule="evenodd" transform="matrix(1 0 0 1 0 0)" d="M57.175 507.247L493.525 507.247L493.525 507.247L493.525 440.122L493.525 440.122L57.175 440.122z" /></clipPath></defs><g transform="matrix(1.333333 0 0 1.333333 0 0)"><g clip-path="url(#1)"><g clip-path="url(#2)"><path id="1" transform="matrix(1 0 0 -1 0 612)" d="M802.6706 188.9572C 802.1506 189.1172 801.2673 189.4705 800.6806 189.7372C 799.7873 190.1639 799.5806 190.3072 799.4606 190.5872L799.4606 190.5872L798.8806 190.4372C 798.9739 189.9172 798.9806 189.8839 799.0206 189.5372C 799.1006 188.6839 799.0973 188.6839 799.1106 188.5372C 798.1506 189.2172 797.8339 189.4672 797.4206 189.8272C 797.1939 190.0272 797.1306 190.1305 797.0506 190.3572L797.0506 190.3572L796.3906 190.1772C 796.4706 189.8439 796.5106 189.6772 796.5506 189.4372C 796.8706 187.6105 796.9473 187.1772 796.9606 187.0972L796.9606 187.0972L797.5906 187.0272C 797.4173 187.7739 797.3973 187.8472 797.1306 189.3672C 797.8906 188.7272 798.5873 188.1772 799.0806 187.8572C 800.0406 187.2305 800.0506 187.2339 800.4106 186.9672L800.4106 186.9672L800.7306 187.5872C 800.2639 187.8405 800.2206 187.8705 799.6606 188.1772C 799.5806 189.0839 799.5839 189.0805 799.5306 189.7472C 799.7706 189.5872 799.8506 189.5539 800.0506 189.4472C 800.2906 189.3272 801.1439 188.8972 801.2106 188.8572C 802.1306 188.4572 802.1339 188.4539 802.4006 188.3072zM798.4506 185.7772L798.4506 183.3172C 798.4506 182.8905 798.4373 182.6205 798.4106 182.3272C 798.6772 182.3672 798.9406 182.3672 799.3406 182.3672L799.3406 182.3672L801.2306 182.3672C 801.7506 182.3672 801.9439 182.3639 802.2106 182.3372C 802.1706 182.6039 802.1706 182.8872 802.1706 183.2872L802.1706 183.2872L802.1706 185.6872C 802.1706 186.0472 802.1906 186.3372 802.2306 186.6172L802.2306 186.6172L801.5306 186.6172C 801.5573 186.3772 801.5806 186.0872 801.5806 185.6872L801.5806 185.6872L801.5806 182.9972L801.5806 182.9972L799.0306 182.9972L799.0306 182.9972L799.0306 185.4972C 799.0306 185.8839 799.0306 186.1639 799.0706 186.4572C 798.8306 186.4172 798.5773 186.4072 798.1106 186.4072L798.1106 186.4072L794.7206 186.4072C 793.9872 186.4072 793.8806 186.1339 793.8806 184.1872C 793.8806 181.8805 793.9506 181.8005 796.2706 181.5872C 796.3239 181.8272 796.424 182.0572 796.5706 182.2572C 795.504 182.2972 794.9406 182.3772 794.7406 182.5372C 794.5406 182.6972 794.4906 183.0939 794.4906 184.3072C 794.4906 185.6005 794.5406 185.7772 794.8606 185.7772zM795.7206 186.9572C 795.4806 187.6505 795.2506 188.5639 795.0906 189.4572C 795.0106 189.9105 794.9506 190.3839 794.9506 190.5572C 794.9506 190.5839 794.9506 190.6005 794.9506 190.6272L794.9506 190.6272L794.2306 190.4772C 794.2706 190.3572 794.2839 190.3239 794.3506 189.9772C 794.5506 188.8839 794.7906 187.9372 795.0706 186.9772z" stroke="none" fill="#323131" fill-rule="evenodd" /><path id="2" transform="matrix(1 0 0 -1 0 612)" d="M801.6006 177.3272L801.8606 177.3272C 802.114 177.3272 802.3306 177.3172 802.5706 177.2772L802.5706 177.2772L802.5706 177.9972C 802.3306 177.9572 802.1006 177.9372 801.8606 177.9372L801.8606 177.9372L801.6006 177.9372L801.6006 177.9372L801.6006 179.4272C 801.6006 179.9205 801.6206 180.2672 801.6606 180.5472L801.6606 180.5472L800.9906 180.5472C 801.0306 180.2672 801.0406 179.9605 801.0406 179.4272L801.0406 179.4272L801.0406 177.9372L801.0406 177.9372L800.7306 177.9372C 800.4773 177.9372 800.2706 177.9505 800.0706 177.9772L800.0706 177.9772L800.0706 177.2872C 800.2706 177.3272 800.4473 177.3272 800.7406 177.3272L800.7406 177.3272L801.0406 177.3272L801.0406 177.3272L801.0406 175.0172L801.0406 175.0172L800.7306 175.0172C 800.4639 175.0172 800.2839 175.0305 800.0706 175.0572L800.0706 175.0572L800.0706 174.3672C 800.2706 174.4072 800.4506 174.4072 800.7306 174.4072L800.7306 174.4072L801.0406 174.4072L801.0406 174.4072L801.0406 172.8672C 801.0406 172.3472 801.0306 172.0439 800.9906 171.7372L800.9906 171.7372L801.6606 171.7372C 801.6206 172.0439 801.6006 172.3872 801.6006 172.8672L801.6006 172.8672L801.6006 174.4072L801.6006 174.4072L801.8606 174.4072C 802.1006 174.4072 802.3439 174.3972 802.5706 174.3572L802.5706 174.3572L802.5706 175.0772C 802.3306 175.0372 802.1006 175.0172 801.8606 175.0172L801.8606 175.0172L801.6006 175.0172zM798.7206 172.8372C 798.7206 172.4105 798.7006 172.0705 798.6606 171.7372L798.6606 171.7372L799.3506 171.7372C 799.3106 172.0572 799.2906 172.3972 799.2906 172.8372L799.2906 172.8372L799.2906 176.4972C 799.4506 176.4172 799.5206 176.3872 799.6806 176.3072C 800.0139 176.1472 800.0472 176.1205 800.2206 176.0272L800.2206 176.0272L800.3706 176.7672C 800.0106 176.8472 799.7306 176.9405 799.2906 177.1672L799.2906 177.1672L799.2906 179.3772C 799.2906 179.8305 799.3106 180.1905 799.3506 180.4972L799.3506 180.4972L798.6606 180.4972C 798.7006 180.1772 798.7206 179.8172 798.7206 179.3772L798.7206 179.3772L798.7206 177.5072C 797.5606 178.2939 796.8439 179.1139 796.0706 180.5672C 795.8306 180.3272 795.8306 180.3272 795.6306 180.2072C 795.6039 180.2072 795.5706 180.1872 795.5306 180.1472C 796.1172 179.2539 796.2706 179.0572 796.7906 178.4572L796.7906 178.4572L794.6406 178.4572C 794.2273 178.4572 793.9539 178.4772 793.7006 178.5172L793.7006 178.5172L793.7006 177.8172L793.7006 177.8172L794.2606 177.8172L794.2606 177.8172L794.2606 173.5372L794.2606 173.5372L793.6906 173.5372L793.6906 173.5372L793.6906 172.8272C 794.0239 172.8672 794.314 172.8872 794.6206 172.8872L794.6206 172.8872L796.5006 172.8872C 796.8606 172.8872 797.1306 172.8772 797.4506 172.8372C 797.4106 173.0905 797.4006 173.2972 797.4006 173.7772L797.4006 173.7772L797.4006 177.8272C 797.8006 177.4672 798.0939 177.2272 798.7206 176.8272zM796.8406 177.8172L796.8406 173.5372L796.8406 173.5372L794.8306 173.5372L794.8306 173.5372L794.8306 177.8172z" stroke="none" fill="#323131" fill-rule="evenodd" /><path id="3" transform="matrix(1 0 0 -1 0 612)" d="M800.7206 165.3972L800.7206 167.1372C 800.7206 167.5372 800.7206 167.8239 800.7606 168.0372C 800.5073 168.0105 800.2306 167.9972 799.8706 167.9972L799.8706 167.9972L797.6906 167.9972C 797.184 167.9972 796.8906 168.0072 796.5706 168.0472L796.5706 168.0472L796.5706 167.3672L796.5706 167.3672L797.1206 167.3672L797.1206 167.3672L797.1206 165.3972L797.1206 165.3972L794.9406 165.3972C 794.4073 165.3972 794.0773 165.4272 793.7306 165.4672L793.7306 165.4672L793.7306 164.6872C 794.0906 164.7405 794.3806 164.7572 794.9406 164.7572L794.9406 164.7572L797.1206 164.7572L797.1206 164.7572L797.1206 162.6172L797.1206 162.6172L796.5706 162.6172L796.5706 162.6172L796.5706 161.9172C 796.9039 161.9572 797.2139 161.9772 797.6806 161.9772L797.6806 161.9772L799.8306 161.9772C 800.2706 161.9772 800.5206 161.9772 800.7606 161.9372C 800.7206 162.1505 800.7206 162.4372 800.7206 162.8772L800.7206 162.8772L800.7206 164.7572L800.7206 164.7572L801.4906 164.7572C 802.0239 164.7572 802.3073 164.7405 802.6406 164.6872L802.6406 164.6872L802.6406 165.4672C 802.3206 165.4272 802.0073 165.3972 801.5006 165.3972zM797.7106 165.3972L797.7106 167.3672L797.7106 167.3672L800.1306 167.3672L800.1306 167.3672L800.1306 165.3972zM797.7106 164.7572L800.1306 164.7572L800.1306 164.7572L800.1306 162.6172L800.1306 162.6172L797.7106 162.6172zM801.9106 170.3972C 801.2706 169.7705 800.8606 169.4539 800.0206 168.9472L800.0206 168.9472L800.4706 168.4172C 801.2039 168.9105 801.6273 169.2339 802.3206 169.8872zM798.0206 168.8872C 796.8606 169.2872 795.9406 169.7272 795.1006 170.2872C 794.8473 170.4605 794.7273 170.5572 794.6206 170.6772L794.6206 170.6772L794.1106 170.0672C 794.2706 170.0005 794.3239 169.9772 794.7106 169.7372C 795.6039 169.2172 796.3339 168.8672 797.5206 168.3872z" stroke="none" fill="#323131" fill-rule="evenodd" /></g><path id="4" transform="matrix(1 0 0 -1 0 612)" d="M708.972 64.043L754.271 64.043L754.271 562.941L708.972 562.941z" stroke="none" fill="#FFFEFE" fill-rule="nonzero" /><path id="6" transform="matrix(1 0 0 -1 0 612)" d="M795.1028 503.5088L795.1028 509.2988L795.1028 509.2988L791.0428 509.2988L791.0428 509.2988L791.0428 508.5988L791.0428 508.5988L791.4828 508.5988L791.4828 508.5988L791.4828 504.2088L791.4828 504.2088L791.0428 504.2088L791.0428 504.2088L791.0428 503.5088L791.0428 503.5088L795.1028 503.5088zM792.1528 508.5988L794.4328 508.5988L794.4328 508.5988L794.4328 504.2088L794.4328 504.2088L792.1528 504.2088L792.1528 504.2088L792.1528 508.5988zM799.9928 505.2688L799.5228 505.7588C 798.7095 504.5321 797.9428 503.5655 797.2228 502.8588L797.2228 502.8588L797.7428 502.3488C 798.4895 503.1488 799.2328 504.1088 799.9928 505.2688zM799.9828 507.7688C 799.1962 508.5288 798.5128 509.4688 797.9128 510.5888L797.9128 510.5888L797.3428 510.1488C 797.9562 509.0021 798.6928 508.0355 799.5328 507.2488L799.5328 507.2488L799.9828 507.7688zM798.1228 506.5888C 796.9628 507.6288 796.0128 509.0788 795.2928 510.9588L795.2928 510.9588L794.6828 510.5588C 795.3228 508.8788 796.2261 507.4955 797.4128 506.3888C 796.3328 505.4955 795.4161 504.1088 794.6828 502.2688L794.6828 502.2688L795.2928 501.8688C 796.1061 503.9088 797.0428 505.3488 798.1228 506.1888L798.1228 506.1888L798.1228 506.5888z" stroke="none" fill="#323131" fill-rule="evenodd" /><path id="7" transform="matrix(1 0 0 -1 0 612)" d="M795.9328 496.4988L795.9328 495.0888L795.9328 495.0888L794.5628 495.0888L794.5628 495.0888L794.5628 496.4988L794.5628 496.4988L795.9328 496.4988zM795.9328 494.3788L795.9328 492.9288L795.9328 492.9288L794.5628 492.9288L794.5628 492.9288L794.5628 494.3788L794.5628 494.3788L795.9328 494.3788zM793.8728 492.9288L793.3328 492.9288L793.3328 492.9288L793.3328 492.2088L793.3328 492.2088L798.6528 492.2088L798.6528 492.2088L798.6528 494.3788L798.6528 494.3788L800.2028 494.3788L800.2028 494.3788L800.2028 495.0888L800.2028 495.0888L798.6528 495.0888L798.6528 495.0888L798.6528 497.2188L798.6528 497.2188L793.3228 497.2188L793.3228 497.2188L793.3228 496.4988L793.3228 496.4988L793.8728 496.4988L793.8728 496.4988L793.8728 495.0888L793.8728 495.0888L791.0328 495.0888L791.0328 495.0888L791.0328 494.3788L791.0328 494.3788L793.8728 494.3788L793.8728 494.3788L793.8728 492.9288zM796.5828 492.9288L796.5828 494.3788L796.5828 494.3788L797.9628 494.3788L797.9628 494.3788L797.9628 492.9288L797.9628 492.9288L796.5828 492.9288zM796.5828 495.0888L796.5828 496.4988L796.5828 496.4988L797.9628 496.4988L797.9628 496.4988L797.9628 495.0888L797.9628 495.0888L796.5828 495.0888zM795.1828 499.5388L791.0128 499.5388L791.0128 499.5388L791.0128 498.8288L791.0128 498.8288L795.2128 498.8288C 794.9462 498.5088 794.6528 498.1888 794.2928 497.8688L794.2928 497.8688L794.8828 497.4788C 795.2828 497.8922 795.6462 498.3488 795.9528 498.8288L795.9528 498.8288L796.0428 498.8288C 796.7361 498.3221 797.4428 497.9388 798.1628 497.6988L798.1628 497.6988L798.7728 497.6988L798.7728 497.6988L798.7728 498.9288L798.7728 498.9288L798.8828 498.6388C 799.2961 498.7722 799.7462 498.9455 800.2528 499.1588L800.2528 499.1588L800.0528 499.8388C 799.6395 499.6388 799.2128 499.4488 798.7728 499.2888L798.7728 499.2888L798.7728 500.7788L798.7728 500.7788L798.0828 500.7788L798.0828 500.7788L798.0828 498.4188C 796.9895 498.8588 795.8661 499.7188 794.7328 500.9988L794.7328 500.9988L793.9728 500.7788C 794.3728 500.3255 794.7828 499.9121 795.1828 499.5388z" stroke="none" fill="#323131" fill-rule="evenodd" /><path id="8" transform="matrix(1 0 0 -1 0 612)" d="M57.175 177.494L244.654 177.494L244.654 496.831L57.175 496.831z" stroke="none" fill="#DBDBDE" fill-rule="nonzero" /><g clip-path="url(#3)"><g transform="matrix(0.5133617 0 0 0.5142306 56.15184 115.1692)"><g transform="matrix(1 0 0 1 0 0)"><image x="0" y="0" xlink:href="img_24.png" width="367" height="621" /></g></g></g><g transform="matrix(0.5141215 0 0 0.5138447 254.9727 115.803)"><g transform="matrix(1 0 0 1 0 0)"><image x="0" y="0" xlink:href="img_25.png" width="464" height="619" /></g></g><g clip-path="url(#4)"><g transform="matrix(0.5141386 0 0 0.5130801 502.0403 114.1355)"><g transform="matrix(1 0 0 1 0 0)"><image x="0" y="0" xlink:href="img_26.png" width="551" height="380" /></g></g></g><g clip-path="url(#5)"><g transform="matrix(0.5141386 0 0 0.5132125 502.0403 313.2851)"><g transform="matrix(1 0 0 1 0 0)"><image x="0" y="0" xlink:href="img_27.png" width="551" height="380" /></g></g></g><g clip-path="url(#6)"><g transform="matrix(0.5139772 0 0 0.5126009 56.10432 439.0803)"><g transform="matrix(1 0 0 1 0 0)"><image x="0" y="0" xlink:href="img_28.png" width="853" height="135" /></g></g></g></g></g></svg>