<svg xmlns="http://www.w3.org/2000/svg" xmlns:xlink="http://www.w3.org/1999/xlink" id="body_5" preserveAspectRatio="xMinYMin meet" viewBox="0 0 1144 816"><defs><clipPath id="1"><path id="" clip-rule="evenodd" transform="matrix(1 0 0 1 0 0)" d="M0 612L0 -0.28302L0 -0.28302L858.898 -0.28302L858.898 -0.28302L858.898 612L858.898 612L0 612z" /></clipPath><clipPath id="2"><path id="" clip-rule="evenodd" transform="matrix(1 0 0 1 0 0)" d="M0 -0.28302L858.898 -0.28302L858.898 -0.28302L858.898 612L858.898 612L0 612z" /></clipPath><clipPath id="3"><path id="" clip-rule="evenodd" transform="matrix(1 0 0 1 0 0)" d="M330.763 417.378L571.266 417.378L571.266 417.378L571.266 96.099L571.266 96.099L330.763 96.099z" /></clipPath><clipPath id="4"><path id="" clip-rule="evenodd" transform="matrix(1 0 0 1 0 0)" d="M78.683 281.315L319.187 281.315L319.187 281.315L319.187 415.266L319.187 415.266L78.683 415.266z" /></clipPath><clipPath id="5"><path id="" clip-rule="evenodd" transform="matrix(1 0 0 1 0 0)" d="M78.683 530.487L318.187 530.487L318.187 530.487L318.187 415.266L318.187 415.266L78.683 415.266z" /></clipPath><clipPath id="6"><path id="" clip-rule="evenodd" transform="matrix(1 0 0 1 0 0)" d="M78.758 95.92902L198.435 95.92902L198.435 95.92902L198.435 281.315L198.435 281.315L78.758 281.315z" /></clipPath><clipPath id="7"><path id="" clip-rule="evenodd" transform="matrix(1 0 0 1 0 0)" d="M330.763 530.41L571.266 530.41L571.266 530.41L571.266 416.879L571.266 416.879L330.763 416.879z" /></clipPath><clipPath id="8"><path id="" clip-rule="evenodd" transform="matrix(1 0 0 1 0 0)" d="M583.267 251.551L803.928 251.551L803.928 251.551L803.928 95.92902L803.928 95.92902L583.267 95.92902z" /></clipPath><clipPath id="9"><path id="" clip-rule="evenodd" transform="matrix(1 0 0 1 0 0)" d="M583.267 416.527L803.928 416.527L803.928 416.527L803.928 251.551L803.928 251.551L583.267 251.551z" /></clipPath><clipPath id="10"><path id="" clip-rule="evenodd" transform="matrix(1 0 0 1 0 0)" d="M583.267 530.41L803.928 530.41L803.928 530.41L803.928 416.528L803.928 416.528L583.267 416.528z" /></clipPath><clipPath id="11"><path id="" clip-rule="evenodd" transform="matrix(1 0 0 1 0 0)" d="M198.436 281.315L318.113 281.315L318.113 281.315L318.113 95.92902L318.113 95.92902L198.436 95.92902z" /></clipPath></defs><g transform="matrix(1.333333 0 0 1.333333 0 0)"><g clip-path="url(#1)"><g clip-path="url(#2)"><path id="1" transform="matrix(1 0 0 -1 0 612)" d="M56.0365 141.0577C 56.5565 140.8977 57.43983 140.5444 58.0265 140.2777C 58.91983 139.851 59.1265 139.7077 59.2465 139.4277L59.2465 139.4277L59.8265 139.5777C 59.73317 140.0977 59.7265 140.131 59.6865 140.4777C 59.6065 141.331 59.60984 141.331 59.5965 141.4777C 60.5565 140.7977 60.87317 140.5477 61.2865 140.1877C 61.51317 139.9877 61.5765 139.8844 61.6565 139.6577L61.6565 139.6577L62.3165 139.8377C 62.2365 140.171 62.1965 140.3377 62.1565 140.5777C 61.8365 142.4044 61.75983 142.8377 61.7465 142.9177L61.7465 142.9177L61.1165 142.9877C 61.28984 142.241 61.30984 142.1677 61.5765 140.6477C 60.8165 141.2877 60.11983 141.8377 59.6265 142.1577C 58.6665 142.7844 58.6565 142.781 58.2965 143.0477L58.2965 143.0477L57.9765 142.4277C 58.44317 142.1744 58.4865 142.1444 59.0465 141.8377C 59.1265 140.931 59.12317 140.9344 59.1765 140.2677C 58.9365 140.4277 58.8565 140.461 58.6565 140.5677C 58.4165 140.6877 57.56317 141.1177 57.4965 141.1577C 56.5765 141.5577 56.57317 141.561 56.3065 141.7077zM60.2565 144.2377L60.2565 146.6977C 60.2565 147.1244 60.26984 147.3944 60.2965 147.6877C 60.02983 147.6477 59.7665 147.6477 59.3665 147.6477L59.3665 147.6477L57.4765 147.6477C 56.9565 147.6477 56.76317 147.651 56.4965 147.6777C 56.5365 147.411 56.5365 147.1277 56.5365 146.7277L56.5365 146.7277L56.5365 144.3277C 56.5365 143.9677 56.5165 143.6777 56.4765 143.3977L56.4765 143.3977L57.1765 143.3977C 57.14983 143.6377 57.1265 143.9277 57.1265 144.3277L57.1265 144.3277L57.1265 147.0177L57.1265 147.0177L59.6765 147.0177L59.6765 147.0177L59.6765 144.5177C 59.6765 144.131 59.6765 143.851 59.6365 143.5577C 59.8765 143.5977 60.12984 143.6077 60.5965 143.6077L60.5965 143.6077L63.9865 143.6077C 64.71983 143.6077 64.8265 143.881 64.8265 145.8277C 64.8265 148.1344 64.7565 148.2144 62.4365 148.4277C 62.38317 148.1877 62.28317 147.9577 62.1365 147.7577C 63.20317 147.7177 63.7665 147.6377 63.9665 147.4777C 64.1665 147.3177 64.2165 146.921 64.2165 145.7077C 64.2165 144.4144 64.1665 144.2377 63.8465 144.2377zM62.9865 143.0577C 63.2265 142.3644 63.4565 141.451 63.6165 140.5577C 63.6965 140.1044 63.7565 139.631 63.7565 139.4577C 63.7565 139.431 63.7565 139.4144 63.7565 139.3877L63.7565 139.3877L64.4765 139.5377C 64.4365 139.6577 64.42317 139.691 64.3565 140.0377C 64.1565 141.131 63.9165 142.0777 63.6365 143.0377z" stroke="none" fill="#323232" fill-rule="evenodd" /><path id="2" transform="matrix(1 0 0 -1 0 612)" d="M57.1065 152.6877L56.8465 152.6877C 56.59317 152.6877 56.3765 152.6977 56.1365 152.7377L56.1365 152.7377L56.1365 152.0177C 56.3765 152.0577 56.6065 152.0777 56.8465 152.0777L56.8465 152.0777L57.1065 152.0777L57.1065 152.0777L57.1065 150.5877C 57.1065 150.0944 57.0865 149.7477 57.0465 149.4677L57.0465 149.4677L57.7165 149.4677C 57.6765 149.7477 57.6665 150.0544 57.6665 150.5877L57.6665 150.5877L57.6665 152.0777L57.6665 152.0777L57.9765 152.0777C 58.22984 152.0777 58.4365 152.0644 58.6365 152.0377L58.6365 152.0377L58.6365 152.7277C 58.4365 152.6877 58.25983 152.6877 57.9665 152.6877L57.9665 152.6877L57.6665 152.6877L57.6665 152.6877L57.6665 154.9977L57.6665 154.9977L57.9765 154.9977C 58.24317 154.9977 58.42317 154.9844 58.6365 154.9577L58.6365 154.9577L58.6365 155.6477C 58.4365 155.6077 58.2565 155.6077 57.9765 155.6077L57.9765 155.6077L57.6665 155.6077L57.6665 155.6077L57.6665 157.1477C 57.6665 157.6677 57.6765 157.971 57.7165 158.2777L57.7165 158.2777L57.0465 158.2777C 57.0865 157.971 57.1065 157.6277 57.1065 157.1477L57.1065 157.1477L57.1065 155.6077L57.1065 155.6077L56.8465 155.6077C 56.6065 155.6077 56.36317 155.6177 56.1365 155.6577L56.1365 155.6577L56.1365 154.9377C 56.3765 154.9777 56.6065 154.9977 56.8465 154.9977L56.8465 154.9977L57.1065 154.9977zM59.9865 157.1777C 59.9865 157.6044 60.0065 157.9444 60.0465 158.2777L60.0465 158.2777L59.3565 158.2777C 59.3965 157.9577 59.4165 157.6177 59.4165 157.1777L59.4165 157.1777L59.4165 153.5177C 59.2565 153.5977 59.1865 153.6277 59.0265 153.7077C 58.69317 153.8677 58.65984 153.8944 58.4865 153.9877L58.4865 153.9877L58.3365 153.2477C 58.6965 153.1677 58.9765 153.0744 59.4165 152.8477L59.4165 152.8477L59.4165 150.6377C 59.4165 150.1844 59.3965 149.8244 59.3565 149.5177L59.3565 149.5177L60.0465 149.5177C 60.0065 149.8377 59.9865 150.1977 59.9865 150.6377L59.9865 150.6377L59.9865 152.5077C 61.1465 151.721 61.86317 150.901 62.6365 149.4477C 62.8765 149.6877 62.8765 149.6877 63.0765 149.8077C 63.10317 149.8077 63.1365 149.8277 63.1765 149.8677C 62.58984 150.761 62.4365 150.9577 61.9165 151.5577L61.9165 151.5577L64.06651 151.5577C 64.47984 151.5577 64.75317 151.5377 65.0065 151.4977L65.0065 151.4977L65.0065 152.1977L65.0065 152.1977L64.4465 152.1977L64.4465 152.1977L64.4465 156.4777L64.4465 156.4777L65.0165 156.4777L65.0165 156.4777L65.0165 157.1877C 64.68317 157.1477 64.39317 157.1277 64.0865 157.1277L64.0865 157.1277L62.2065 157.1277C 61.8465 157.1277 61.5765 157.1377 61.2565 157.1777C 61.2965 156.9244 61.3065 156.7177 61.3065 156.2377L61.3065 156.2377L61.3065 152.1877C 60.9065 152.5477 60.61317 152.7877 59.9865 153.1877zM61.8665 152.1977L61.8665 156.4777L61.8665 156.4777L63.8765 156.4777L63.8765 156.4777L63.8765 152.1977z" stroke="none" fill="#323232" fill-rule="evenodd" /><path id="3" transform="matrix(1 0 0 -1 0 612)" d="M57.9865 164.6177L57.9865 162.8777C 57.9865 162.4777 57.9865 162.191 57.9465 161.9777C 58.19984 162.0044 58.4765 162.0177 58.8365 162.0177L58.8365 162.0177L61.0165 162.0177C 61.52317 162.0177 61.8165 162.0077 62.1365 161.9677L62.1365 161.9677L62.1365 162.6477L62.1365 162.6477L61.5865 162.6477L61.5865 162.6477L61.5865 164.6177L61.5865 164.6177L63.7665 164.6177C 64.29984 164.6177 64.62984 164.5877 64.9765 164.5477L64.9765 164.5477L64.9765 165.3277C 64.6165 165.2744 64.3265 165.2577 63.7665 165.2577L63.7665 165.2577L61.5865 165.2577L61.5865 165.2577L61.5865 167.3977L61.5865 167.3977L62.1365 167.3977L62.1365 167.3977L62.1365 168.0977C 61.80317 168.0577 61.49317 168.0377 61.0265 168.0377L61.0265 168.0377L58.8765 168.0377C 58.4365 168.0377 58.1865 168.0377 57.9465 168.0777C 57.9865 167.8644 57.9865 167.5777 57.9865 167.1377L57.9865 167.1377L57.9865 165.2577L57.9865 165.2577L57.2165 165.2577C 56.68317 165.2577 56.39983 165.2744 56.0665 165.3277L56.0665 165.3277L56.0665 164.5477C 56.3865 164.5877 56.69984 164.6177 57.2065 164.6177zM60.9965 164.6177L60.9965 162.6477L60.9965 162.6477L58.5765 162.6477L58.5765 162.6477L58.5765 164.6177zM60.9965 165.2577L58.5765 165.2577L58.5765 165.2577L58.5765 167.3977L58.5765 167.3977L60.9965 167.3977zM56.7965 159.6177C 57.4365 160.2444 57.8465 160.561 58.6865 161.0677L58.6865 161.0677L58.2365 161.5977C 57.50317 161.1044 57.07983 160.781 56.3865 160.1277zM60.6865 161.1277C 61.8465 160.7277 62.7665 160.2877 63.6065 159.7277C 63.85984 159.5544 63.97984 159.4577 64.0865 159.3377L64.0865 159.3377L64.5965 159.9477C 64.4365 160.0144 64.38317 160.0377 63.9965 160.2777C 63.10317 160.7977 62.37317 161.1477 61.1865 161.6277z" stroke="none" fill="#323232" fill-rule="evenodd" /></g><path id="5" transform="matrix(1 0 0 -1 0 612)" d="M62.2122 487.2784L62.2122 481.4884L62.2122 481.4884L66.2722 481.4884L66.2722 481.4884L66.2722 482.1884L66.2722 482.1884L65.8322 482.1884L65.8322 482.1884L65.8322 486.5784L65.8322 486.5784L66.2722 486.5784L66.2722 486.5784L66.2722 487.2784L66.2722 487.2784L62.2122 487.2784zM65.1622 482.1884L62.8822 482.1884L62.8822 482.1884L62.8822 486.5784L62.8822 486.5784L65.1622 486.5784L65.1622 486.5784L65.1622 482.1884zM57.3222 485.5184L57.7922 485.0284C 58.60553 486.2551 59.3722 487.2217 60.0922 487.9284L60.0922 487.9284L59.5722 488.4384C 58.82553 487.6384 58.0822 486.6784 57.3222 485.5184zM57.3322 483.0184C 58.11887 482.2584 58.8022 481.3184 59.4022 480.1984L59.4022 480.1984L59.9722 480.6384C 59.35887 481.7851 58.6222 482.7517 57.7822 483.5384L57.7822 483.5384L57.3322 483.0184zM59.1922 484.1984C 60.3522 483.1584 61.3022 481.7084 62.0222 479.8284L62.0222 479.8284L62.6322 480.2284C 61.9922 481.9084 61.08887 483.2917 59.9022 484.3984C 60.9822 485.2917 61.89887 486.6784 62.6322 488.5184L62.6322 488.5184L62.0222 488.9184C 61.20887 486.8784 60.2722 485.4384 59.1922 484.5984L59.1922 484.5984L59.1922 484.1984z" stroke="none" fill="#323232" fill-rule="evenodd" /><path id="6" transform="matrix(1 0 0 -1 0 612)" d="M61.3822 494.2884L61.3822 495.6984L61.3822 495.6984L62.7522 495.6984L62.7522 495.6984L62.7522 494.2884L62.7522 494.2884L61.3822 494.2884zM61.3822 496.4084L61.3822 497.8584L61.3822 497.8584L62.7522 497.8584L62.7522 497.8584L62.7522 496.4084L62.7522 496.4084L61.3822 496.4084zM63.4422 497.8584L63.9822 497.8584L63.9822 497.8584L63.9822 498.5784L63.9822 498.5784L58.6622 498.5784L58.6622 498.5784L58.6622 496.4084L58.6622 496.4084L57.1122 496.4084L57.1122 496.4084L57.1122 495.6984L57.1122 495.6984L58.6622 495.6984L58.6622 495.6984L58.6622 493.5684L58.6622 493.5684L63.9922 493.5684L63.9922 493.5684L63.9922 494.2884L63.9922 494.2884L63.4422 494.2884L63.4422 494.2884L63.4422 495.6984L63.4422 495.6984L66.2822 495.6984L66.2822 495.6984L66.2822 496.4084L66.2822 496.4084L63.4422 496.4084L63.4422 496.4084L63.4422 497.8584zM60.7322 497.8584L60.7322 496.4084L60.7322 496.4084L59.3522 496.4084L59.3522 496.4084L59.3522 497.8584L59.3522 497.8584L60.7322 497.8584zM60.7322 495.6984L60.7322 494.2884L60.7322 494.2884L59.3522 494.2884L59.3522 494.2884L59.3522 495.6984L59.3522 495.6984L60.7322 495.6984zM62.1322 491.2484L66.3022 491.2484L66.3022 491.2484L66.3022 491.9584L66.3022 491.9584L62.1022 491.9584C 62.36887 492.2784 62.6622 492.5984 63.0222 492.9184L63.0222 492.9184L62.4322 493.3084C 62.0322 492.8951 61.66887 492.4384 61.3622 491.9584L61.3622 491.9584L61.2722 491.9584C 60.57887 492.4651 59.8722 492.8484 59.1522 493.0884L59.1522 493.0884L58.5422 493.0884L58.5422 493.0884L58.5422 491.8584L58.5422 491.8584L58.4322 492.1484C 58.01887 492.015 57.56887 491.8417 57.0622 491.6284L57.0622 491.6284L57.2622 490.9484C 57.67553 491.1484 58.1022 491.3384 58.5422 491.4984L58.5422 491.4984L58.5422 490.0084L58.5422 490.0084L59.2322 490.0084L59.2322 490.0084L59.2322 492.3684C 60.32553 491.9284 61.44887 491.0684 62.5822 489.7884L62.5822 489.7884L63.3422 490.0084C 62.9422 490.4617 62.5322 490.8751 62.1322 491.2484z" stroke="none" fill="#323232" fill-rule="evenodd" /><g clip-path="url(#3)"><g transform="matrix(0.5139314 0 0 0.5140048 330.7622 96.09839)"><g transform="matrix(1 0 0 1 0 0)"><image x="0" y="0" xlink:href="img_14.png" width="470" height="627" /></g></g></g><g clip-path="url(#4)"><g transform="matrix(0.5139623 0 0 0.5131729 78.68346 280.287)"><g transform="matrix(1 0 0 1 0 0)"><image x="0" y="0" xlink:href="img_15.png" width="470" height="265" /></g></g></g><g clip-path="url(#5)"><g transform="matrix(0.513957 0 0 0.5142857 78.68346 414.2482)"><g transform="matrix(1 0 0 1 0 0)"><image x="0" y="0" xlink:href="img_16.png" width="466" height="228" /></g></g></g><g clip-path="url(#6)"><g transform="matrix(0.5136388 0 0 0.5135341 78.7583 95.9292)"><g transform="matrix(1 0 0 1 0 0)"><image x="0" y="0" xlink:href="img_17.png" width="235" height="361" /></g></g></g><g clip-path="url(#7)"><g transform="matrix(0.5138974 0 0 0.5137877 330.7622 415.8427)"><g transform="matrix(1 0 0 1 0 0)"><image x="0" y="0" xlink:href="img_18.png" width="468" height="225" /></g></g></g><g clip-path="url(#8)"><g transform="matrix(0.5131661 0 0 0.5137233 583.2662 94.88385)"><g transform="matrix(1 0 0 1 0 0)"><image x="0" y="0" xlink:href="img_19.png" width="430" height="307" /></g></g></g><g clip-path="url(#9)"><g transform="matrix(0.5131662 0 0 0.513963 583.2662 251.5513)"><g transform="matrix(1 0 0 1 0 0)"><image x="0" y="0" xlink:href="img_20.png" width="430" height="322" /></g></g></g><g clip-path="url(#10)"><g transform="matrix(0.5131662 0 0 0.5128891 583.2662 415.4971)"><g transform="matrix(1 0 0 1 0 0)"><image x="0" y="0" xlink:href="img_21.png" width="430" height="226" /></g></g></g><g clip-path="url(#11)"><g transform="matrix(0.5134085 0 0 0.5135341 197.4351 95.9292)"><g transform="matrix(1 0 0 1 0 0)"><image x="0" y="0" xlink:href="img_22.png" width="237" height="361" /></g></g></g></g></g></svg>