<svg xmlns="http://www.w3.org/2000/svg" xmlns:xlink="http://www.w3.org/1999/xlink" id="body_2" preserveAspectRatio="xMinYMin meet" viewBox="0 0 1144 816"><defs><clipPath id="1"><path id="" clip-rule="evenodd" transform="matrix(1 0 0 1 0 0)" d="M0 612L0 -0.28302L0 -0.28302L858.898 -0.28302L858.898 -0.28302L858.898 612L858.898 612L0 612z" /></clipPath><clipPath id="2"><path id="" clip-rule="evenodd" transform="matrix(1 0 0 1 0 0)" d="M0 -0.28302L858.898 -0.28302L858.898 -0.28302L858.898 612L858.898 612L0 612z" /></clipPath><clipPath id="3"><path id="" clip-rule="evenodd" transform="matrix(1 0 0 1 0 0)" d="M0 56.409L858.898 56.409L858.898 56.409L858.898 555.366L858.898 555.366L0 555.366z" /></clipPath><clipPath id="4"><path id="" clip-rule="evenodd" transform="matrix(1 0 0 1 0 0)" d="M0 612L858.898 612L858.898 612L858.898 -0.28302L858.898 -0.28302L0 -0.28302z" /></clipPath><clipPath id="5"><path id="" clip-rule="evenodd" transform="matrix(1 0 0 1 0 0)" d="M363.976 132.323L684.52 132.323L684.52 132.323L684.52 474.972L684.52 474.972L363.976 474.972z" /></clipPath></defs><g transform="matrix(1.333333 0 0 1.333333 0 0)"><g clip-path="url(#1)"><g clip-path="url(#2)"><path id="1" transform="matrix(1 0 0 -1 0 612)" d="M65.2581 139.6838L58.0999 139.6838L58.0999 139.6838L58.0999 142.8577C 58.0999 143.4957 58.16419 143.9807 58.29277 144.3127C 58.42135 144.6448 58.6484 144.9101 58.97392 145.1086C 59.29944 145.3072 59.65915 145.4065 60.05302 145.4065C 61.06865 145.4065 61.81247 144.7636 62.00127 143.3899C 62.12171 143.6405 62.24052 143.831 62.35771 143.9612C 62.61162 144.2379 62.929 144.4999 63.30986 144.7473L63.30986 144.7473L65.2581 145.9924L65.2581 145.9924L65.2581 144.801L65.2581 144.801L63.76884 143.8538C 63.33916 143.5771 63.01038 143.3492 62.78252 143.1702C 62.55465 142.9911 62.39515 142.8308 62.304 142.6892C 62.21286 142.5476 62.14938 142.4036 62.11357 142.2571C 62.09079 142.1497 62.07939 141.9739 62.07939 141.7297L62.07939 141.7297L62.07939 140.6311L62.07939 140.6311L65.2581 140.6311zM61.25908 140.6311L61.25908 142.6672C 61.25908 143.1002 61.21432 143.4387 61.1248 143.6829C 61.03528 143.927 60.89206 144.1125 60.69511 144.2395C 60.49817 144.3665 60.28415 144.4299 60.05302 144.4299C 59.37594 144.4299 58.89091 143.9579 58.89091 142.8967L58.89091 142.8967L58.89091 140.6311z" stroke="none" fill="#353231" fill-rule="evenodd" /><path id="2" transform="matrix(1 0 0 -1 0 612)" d="M65.2581 150.1753L64.49638 150.1753C 65.08232 149.7717 65.37529 149.2232 65.37529 148.5298C 65.37529 148.2238 65.3167 147.9382 65.19951 147.6729C 65.08232 147.4076 64.93502 147.2106 64.75761 147.0821C 64.58021 146.9535 64.36292 146.8631 64.10576 146.8111C 63.93323 146.7753 63.65979 146.7574 63.28545 146.7574L63.28545 146.7574L60.07256 146.7574L60.07256 146.7574L60.07256 147.6363L60.07256 147.6363L62.94853 147.6363C 63.40752 147.6363 63.71676 147.6542 63.87627 147.69C 64.33851 147.8006 64.61845 148.1783 64.61845 148.7056C 64.61845 148.9693 64.55091 149.2167 64.41582 149.4478C 64.28072 149.6789 64.09681 149.8425 63.86406 149.9385C 63.63131 150.0345 63.29358 150.0826 62.85088 150.0826L62.85088 150.0826L60.07256 150.0826L60.07256 150.0826L60.07256 150.9615L60.07256 150.9615L65.2581 150.9615z" stroke="none" fill="#353231" fill-rule="evenodd" /><path id="3" transform="matrix(1 0 0 -1 0 612)" d="M62.66533 152.0097C 61.70504 152.0097 60.99378 152.2767 60.53154 152.8105C 60.14743 153.2565 59.95537 153.8001 59.95537 154.4414C 59.95537 155.8672 60.94495 156.8681 62.59209 156.8681C 63.2594 156.8681 63.78431 156.768 64.16679 156.5678C 64.54928 156.3676 64.84632 156.0763 65.05791 155.6938C 65.26949 155.3113 65.37529 154.8938 65.37529 154.4414C 65.37529 152.9895 64.41663 152.0097 62.66533 152.0097zM62.66533 152.9131C 63.99345 152.9131 64.65263 153.5625 64.65263 154.4414C 64.65263 155.3138 63.99671 155.9648 62.63603 155.9648C 61.35348 155.9648 60.68291 155.3073 60.68291 154.4414C 60.68291 153.5625 61.3372 152.9131 62.66533 152.9131z" stroke="none" fill="#353231" fill-rule="evenodd" /><path id="4" transform="matrix(1 0 0 -1 0 612)" d="M63.35869 161.2807L63.47099 162.1449C 64.6624 161.9561 65.37529 161.1195 65.37529 159.9867C 65.37529 158.5675 64.41663 157.6283 62.68486 157.6283C 62.12497 157.6283 61.63506 157.7211 61.21513 157.9066C 60.79521 158.0922 60.48027 158.3746 60.27031 158.7538C 60.06035 159.1331 59.95537 159.5457 59.95537 159.9916C 59.95537 161.1179 60.54782 161.8601 61.59599 162.0619L61.59599 162.0619L61.72783 161.2074C 61.03122 161.0447 60.67802 160.6117 60.67802 160.0258C 60.67802 159.1404 61.28675 158.5316 62.66045 158.5316C 64.05367 158.5316 64.65263 159.1176 64.65263 159.977C 64.65263 160.6671 64.23759 161.157 63.35869 161.2807z" stroke="none" fill="#353231" fill-rule="evenodd" /><path id="5" transform="matrix(1 0 0 -1 0 612)" d="M65.2581 162.8969L58.0999 162.8969L58.0999 162.8969L58.0999 163.7758L58.0999 163.7758L60.66826 163.7758C 60.193 164.1859 59.95537 164.7035 59.95537 165.3285C 59.95537 165.7126 60.03105 166.0463 60.18242 166.3295C 60.33379 166.6127 60.54293 166.8153 60.80986 166.9374C 61.07679 167.0595 61.46416 167.1205 61.97197 167.1205L61.97197 167.1205L65.2581 167.1205L65.2581 167.1205L65.2581 166.2416L65.2581 166.2416L61.97197 166.2416C 61.09306 166.2416 60.7122 165.8445 60.7122 165.1479C 60.7122 164.8875 60.77975 164.6425 60.91484 164.413C 61.04993 164.1835 61.23304 164.0199 61.46416 163.9223C 61.69528 163.8246 62.01429 163.7758 62.42119 163.7758L62.42119 163.7758L65.2581 163.7758z" stroke="none" fill="#353231" fill-rule="evenodd" /><path id="6" transform="matrix(1 0 0 -1 0 612)" d="M62.66533 168.1297C 61.70504 168.1297 60.99378 168.3967 60.53154 168.9305C 60.14743 169.3765 59.95537 169.9201 59.95537 170.5614C 59.95537 171.9872 60.94495 172.9881 62.59209 172.9881C 63.2594 172.9881 63.78431 172.888 64.16679 172.6878C 64.54928 172.4876 64.84632 172.1963 65.05791 171.8138C 65.26949 171.4313 65.37529 171.0139 65.37529 170.5614C 65.37529 169.1096 64.41663 168.1297 62.66533 168.1297zM62.66533 169.0331C 63.99345 169.0331 64.65263 169.6825 64.65263 170.5614C 64.65263 171.4338 63.99671 172.0848 62.63603 172.0848C 61.35348 172.0848 60.68291 171.4273 60.68291 170.5614C 60.68291 169.6825 61.3372 169.0331 62.66533 169.0331z" stroke="none" fill="#353231" fill-rule="evenodd" /><path id="7" transform="matrix(1 0 0 -1 0 612)" d="M65.2581 174.0169L60.07256 174.0169L60.07256 174.0169L60.07256 174.8079L60.07256 174.8079L60.80986 174.8079C 60.2402 175.1888 59.95537 175.7389 59.95537 176.4583C 59.95537 176.7708 60.01152 177.0581 60.12383 177.3201C 60.23613 177.5822 60.38343 177.7783 60.56572 177.9085C 60.74801 178.0387 60.96448 178.1298 61.21513 178.1819C 61.3779 178.2145 61.66272 178.2307 62.06963 178.2307L62.06963 178.2307L65.2581 178.2307L65.2581 178.2307L65.2581 177.3518L65.2581 177.3518L62.10381 177.3518C 61.74573 177.3518 61.47799 177.3177 61.30058 177.2493C 61.12317 177.1809 60.98157 177.0597 60.87578 176.8855C 60.76999 176.7114 60.71709 176.5071 60.71709 176.2727C 60.71709 175.524 61.09795 174.8958 62.42607 174.8958L62.42607 174.8958L65.2581 174.8958z" stroke="none" fill="#353231" fill-rule="evenodd" /><path id="8" transform="matrix(1 0 0 -1 0 612)" d="M65.68779 179.4157L65.81474 180.2702C 66.07841 180.306 66.27047 180.4053 66.39091 180.5681C 66.55367 180.7862 66.63506 181.084 66.63506 181.4616C 66.63506 182.2755 66.29326 182.697 65.70732 182.8532C 65.52828 182.8988 65.15231 182.92 64.57939 182.9167C 65.03187 182.5326 65.2581 182.0541 65.2581 181.4812C 65.2581 180.0554 64.07484 179.24 62.63603 179.24C 62.14124 179.24 61.6847 179.3295 61.2664 179.5085C 60.84811 179.6876 60.52503 179.9472 60.29716 180.2873C 60.0693 180.6275 59.95537 181.0271 59.95537 181.4861C 59.95537 182.098 60.20276 182.6026 60.69756 182.9997L60.69756 182.9997L60.07256 182.9997L60.07256 182.9997L60.07256 183.8103L60.07256 183.8103L64.55498 183.8103C 65.36227 183.8103 65.93437 183.7281 66.27129 183.5637C 66.6082 183.3993 66.87431 183.1389 67.06963 182.7824C 67.26494 182.426 67.36259 181.9874 67.36259 181.4665C 67.36259 180.2296 66.80758 179.3897 65.68779 179.4157zM62.57256 180.1433C 63.93323 180.1433 64.53056 180.7504 64.53056 181.5642C 64.53056 182.3715 63.92998 182.99 62.60185 182.99C 61.33232 182.99 60.68291 182.3438 60.68291 181.5495C 60.68291 180.7683 61.32256 180.1433 62.57256 180.1433z" stroke="none" fill="#353231" fill-rule="evenodd" /></g><path id="9" transform="matrix(1 0 0 -1 0 612)" d="M0 56.551L858.898 56.551L858.898 555.59L0 555.59z" stroke="none" fill="#E5E6E6" fill-rule="nonzero" /><g clip-path="url(#3)"><g transform="matrix(0.7022228 0 0 0.7028379 -1.325235 54.94568)"><g transform="matrix(1 0 0 1 0 0)"><image x="0" y="0" xlink:href="img_03.png" width="1225" height="712" /></g></g></g><path id="11" transform="matrix(1 0 0 -1 0 612)" d="M796.5511 555.1863L796.6215 554.3821C 796.2992 554.344 796.0348 554.2554 795.8282 554.1162C 795.6217 553.9771 795.4547 553.761 795.3273 553.468C 795.1998 553.175 795.1361 552.8455 795.1361 552.4792C 795.1361 552.1541 795.1844 551.8669 795.2811 551.6179C 795.3778 551.3689 795.5104 551.1836 795.6788 551.062C 795.8473 550.9404 796.0311 550.8796 796.2303 550.8796C 796.6346 550.8796 796.9349 551.0964 797.14 551.6355C 797.2748 551.9812 797.6044 553.5515 797.8563 554.0261C 798.1786 554.6414 798.6664 554.9402 799.2582 554.9402C 799.5834 554.9402 799.8873 554.8479 800.17 554.6633C 800.4528 554.4788 800.6674 554.2092 800.8138 553.8547C 800.9603 553.5002 801.0336 553.1062 801.0336 552.6726C 801.0336 552.1951 800.9567 551.7739 800.8029 551.4092C 800.649 551.0444 800.4227 550.7639 800.1239 550.5676C 799.8251 550.3713 799.4867 550.2659 799.1088 550.2512L799.1088 550.2512L799.0472 551.0686C 799.8617 551.1565 800.2821 551.6472 800.2821 552.6375C 800.2821 553.6687 799.8485 554.1184 799.3153 554.1184C 799.0839 554.1184 798.8934 554.0349 798.744 553.8679C 798.4452 553.5398 798.1083 551.6721 797.8739 551.1565C 797.5282 550.4065 796.9921 550.0579 796.3007 550.0579C 795.9579 550.0579 795.6349 550.156 795.3317 550.3523C 795.0284 550.5486 794.7926 550.8306 794.6241 551.1982C 794.4557 551.5659 794.3715 551.9797 794.3715 552.4397C 794.3715 553.0227 794.4564 553.5112 794.6263 553.9053C 794.7963 554.2993 795.0519 554.6084 795.3932 554.8325C 795.7345 555.0566 796.1205 555.1746 796.5511 555.1863z" stroke="none" fill="#000000" fill-rule="evenodd" /><path id="12" transform="matrix(1 0 0 -1 0 612)" d="M795.1888 547.2673L794.4901 547.153C 794.4432 547.3757 794.4198 547.5749 794.4198 547.7507C 794.4198 548.0378 794.4652 548.2604 794.556 548.4186C 794.6469 548.5768 794.7662 548.6882 794.9142 548.7526C 795.0621 548.8171 795.3734 548.8493 795.848 548.8493L795.848 548.8493L798.5331 548.8493L798.5331 548.8493L798.5331 549.4294L798.5331 549.4294L799.1483 549.4294L799.1483 549.4294L799.1483 548.8493L799.1483 548.8493L800.3041 548.8493L800.3041 548.8493L800.7787 548.0627L800.7787 548.0627L799.1483 548.0627L799.1483 548.0627L799.1483 547.2673L799.1483 547.2673L798.5331 547.2673L798.5331 547.2673L798.5331 548.0627L798.5331 548.0627L795.8041 548.0627C 795.5785 548.0627 795.4335 548.0488 795.369 548.0209C 795.3046 547.9931 795.2533 547.9477 795.2152 547.8847C 795.1771 547.8217 795.1581 547.7316 795.1581 547.6144C 795.1581 547.5266 795.1683 547.4108 795.1888 547.2673z" stroke="none" fill="#000000" fill-rule="evenodd" /><path id="13" transform="matrix(1 0 0 -1 0 612)" d="M795.057 543.4469C 794.559 544.0328 794.3759 544.5441 794.3759 545.1652C 794.3759 546.1906 794.9325 546.7604 795.7118 546.7604C 795.9403 546.7604 796.149 546.7084 796.338 546.6044C 796.527 546.5004 796.6786 546.3641 796.7928 546.1957C 796.9071 546.0272 796.9935 545.8375 797.0521 545.6266C 797.0931 545.4713 797.1327 545.2369 797.1708 544.9235C 797.2469 544.2848 797.3378 543.8146 797.4432 543.5128C 797.5516 543.5099 797.6205 543.5084 797.6498 543.5084C 797.972 543.5084 798.1991 543.5831 798.3309 543.7325C 798.5096 543.9347 798.599 544.235 798.599 544.6334C 798.599 545.3776 798.3734 545.6808 797.7113 545.8507L797.7113 545.8507L797.8168 546.6241C 798.1478 546.5538 798.4152 546.4381 798.6188 546.277C 798.8224 546.1158 798.9791 545.8829 799.089 545.5782C 799.1989 545.2736 799.2538 544.9205 799.2538 544.5192C 799.2538 544.1207 799.2069 543.797 799.1132 543.548C 799.0194 543.299 798.9015 543.1158 798.7594 542.9987C 798.6173 542.8815 798.4379 542.7994 798.2211 542.7526C 798.0863 542.7262 797.8431 542.713 797.4916 542.713L797.4916 542.713L796.4369 542.713C 794.9662 542.713 794.8387 542.6617 794.4813 542.4625L794.4813 542.4625L794.4813 543.2887C 794.6454 543.3707 794.8373 543.4235 795.057 543.4469zM796.8236 543.5128C 796.7064 543.7999 796.6068 544.2306 796.5248 544.8048C 796.4779 545.13 796.4252 545.36 796.3666 545.4948C 796.308 545.6295 796.2223 545.7335 796.1095 545.8068C 795.9967 545.88 795.8715 545.9166 795.7338 545.9166C 795.3119 545.9166 794.9955 545.5914 794.9955 544.9762C 794.9955 544.3668 795.2797 543.8629 795.7426 543.6403C 795.9213 543.5553 796.1849 543.5128 796.5336 543.5128z" stroke="none" fill="#000000" fill-rule="evenodd" /><path id="14" transform="matrix(1 0 0 -1 0 612)" d="M794.4813 541.4971L799.1483 541.4971L799.1483 541.4971L799.1483 540.7852L799.1483 540.7852L798.4408 540.7852C 799.1029 540.4219 799.2538 540.1436 799.2538 539.7745C 799.2538 539.5079 799.1688 539.2369 798.9989 538.9615L798.9989 538.9615L798.265 539.2339C 798.3793 539.4273 798.4364 539.6207 798.4364 539.814C 798.4364 540.1597 798.2167 540.4571 797.8475 540.5743C 797.5663 540.6622 797.2587 540.7061 796.9247 540.7061L796.9247 540.7061L794.4813 540.7061z" stroke="none" fill="#000000" fill-rule="evenodd" /><path id="15" transform="matrix(1 0 0 -1 0 612)" d="M794.4813 538.5001L799.1483 538.5001L799.1483 538.5001L799.1483 537.7882L799.1483 537.7882L798.4408 537.7882C 799.1029 537.4249 799.2538 537.1466 799.2538 536.7775C 799.2538 536.5109 799.1688 536.2399 798.9989 535.9645L798.9989 535.9645L798.265 536.2369C 798.3793 536.4303 798.4364 536.6237 798.4364 536.817C 798.4364 537.1627 798.2167 537.4601 797.8475 537.5773C 797.5663 537.6652 797.2587 537.7091 796.9247 537.7091L796.9247 537.7091L794.4813 537.7091z" stroke="none" fill="#000000" fill-rule="evenodd" /><path id="16" transform="matrix(1 0 0 -1 0 612)" d="M792.684 535.5295L793.4266 535.6174C 793.3798 535.4445 793.3563 535.2936 793.3563 535.1647C 793.3563 534.8132 793.4794 534.6183 793.6903 534.4836C 793.7694 534.4338 793.9657 534.3532 794.2792 534.2419C 794.3231 534.2272 794.3876 534.2038 794.4725 534.1716L794.4725 534.1716L799.1483 535.9426L799.1483 535.9426L799.1483 535.09L799.1483 535.09L796.4457 534.1188C 796.1029 533.9929 795.7426 533.8801 795.3646 533.7805C 795.7279 533.6896 796.0824 533.5812 796.4281 533.4553L796.4281 533.4553L799.1483 532.4577L799.1483 532.4577L799.1483 531.6667L799.1483 531.6667L794.4022 533.4421C 793.8895 533.6325 793.5365 533.7805 793.3431 533.8859C 792.8217 534.1672 792.5873 534.5158 792.5873 535.0197C 792.5873 535.1721 792.6195 535.342 792.684 535.5295z" stroke="none" fill="#000000" fill-rule="evenodd" /><path id="18" transform="matrix(1 0 0 -1 0 612)" d="M795.8744 528.8087L795.9974 528.0265C 795.3705 527.9386 795.0262 527.5387 795.0262 526.818C 795.0262 526.0914 795.3705 525.7457 795.7689 525.7457C 795.9476 525.7457 796.0883 525.8234 796.1908 525.9786C 796.2611 526.087 796.3505 526.3566 796.4589 526.7872C 796.6053 527.3673 796.7321 527.7694 796.839 527.9935C 796.9459 528.2177 797.0939 528.3876 797.2828 528.5033C 797.4718 528.619 797.6805 528.6769 797.9091 528.6769C 798.3251 528.6769 798.6942 528.4733 798.9286 528.1451C 799.1102 527.899 799.2538 527.4449 799.2538 526.9586C 799.2538 526.5924 799.201 526.2709 799.0956 525.994C 798.9901 525.7172 798.8473 525.5128 798.6671 525.381C 798.4869 525.2491 798.246 525.1583 797.9442 525.1085L797.9442 525.1085L797.8387 525.882C 798.3192 525.9523 798.6034 526.2863 798.6034 526.9015C 798.6034 527.6281 798.3236 527.9122 798.0013 527.9122C 797.8988 527.9122 797.8065 527.88 797.7245 527.8156C 797.6395 527.7511 797.5692 527.65 797.5135 527.5123C 797.4843 527.4332 797.4169 527.2003 797.3114 526.8136C 797.162 526.254 797.0397 525.8636 796.9445 525.6425C 796.8492 525.4213 796.7108 525.2477 796.5292 525.1217C 796.3475 524.9957 796.1219 524.9327 795.8524 524.9327C 795.5887 524.9327 795.3405 525.0096 795.1075 525.1635C 794.8746 525.3173 794.6945 525.5392 794.567 525.8292C 794.4396 526.1193 794.3759 526.4474 794.3759 526.8136C 794.3759 528.0265 794.8842 528.6329 795.8744 528.8087z" stroke="none" fill="#000000" fill-rule="evenodd" /><path id="19" transform="matrix(1 0 0 -1 0 612)" d="M794.4813 523.9879L800.9237 523.9879L800.9237 523.9879L800.9237 523.1969L800.9237 523.1969L797.2499 523.1969L797.2499 523.1969L799.1483 521.3248L799.1483 521.3248L799.1483 520.3009L799.1483 520.3009L797.4169 522.0851L797.4169 522.0851L794.4813 520.1207L794.4813 520.1207L794.4813 521.0963L794.4813 521.0963L796.8676 522.6388L796.8676 522.6388L796.3314 523.1969L796.3314 523.1969L794.4813 523.1969z" stroke="none" fill="#000000" fill-rule="evenodd" /><path id="20" transform="matrix(1 0 0 -1 0 612)" d="M792.684 519.5275L793.4266 519.6154C 793.3798 519.4425 793.3563 519.2916 793.3563 519.1627C 793.3563 518.8112 793.4794 518.6163 793.6903 518.4816C 793.7694 518.4318 793.9657 518.3512 794.2792 518.2399C 794.3231 518.2252 794.3876 518.2018 794.4725 518.1696L794.4725 518.1696L799.1483 519.9406L799.1483 519.9406L799.1483 519.088L799.1483 519.088L796.4457 518.1168C 796.1029 517.9908 795.7426 517.8781 795.3646 517.7784C 795.7279 517.6876 796.0824 517.5792 796.4281 517.4532L796.4281 517.4532L799.1483 516.4557L799.1483 516.4557L799.1483 515.6647L799.1483 515.6647L794.4022 517.4401C 793.8895 517.6305 793.5365 517.7784 793.3431 517.8839C 792.8217 518.1652 792.5873 518.5138 792.5873 519.0177C 792.5873 519.17 792.6195 519.34 792.684 519.5275z" stroke="none" fill="#000000" fill-rule="evenodd" /><path id="22" transform="matrix(1 0 0 -1 0 612)" d="M795.057 509.4449C 794.559 510.0308 794.3759 510.5421 794.3759 511.1632C 794.3759 512.1885 794.9325 512.7584 795.7118 512.7584C 795.9403 512.7584 796.149 512.7064 796.338 512.6024C 796.527 512.4984 796.6786 512.3621 796.7928 512.1937C 796.9071 512.0252 796.9935 511.8355 797.0521 511.6246C 797.0931 511.4693 797.1327 511.2349 797.1708 510.9215C 797.2469 510.2828 797.3378 509.8126 797.4432 509.5108C 797.5516 509.5079 797.6205 509.5064 797.6498 509.5064C 797.972 509.5064 798.1991 509.5811 798.3309 509.7306C 798.5096 509.9327 798.599 510.233 798.599 510.6314C 798.599 511.3755 798.3734 511.6788 797.7113 511.8487L797.7113 511.8487L797.8168 512.6221C 798.1478 512.5518 798.4152 512.4361 798.6188 512.275C 798.8224 512.1138 798.9791 511.8809 799.089 511.5763C 799.1989 511.2716 799.2538 510.9185 799.2538 510.5172C 799.2538 510.1187 799.2069 509.795 799.1132 509.546C 799.0194 509.2969 798.9015 509.1139 798.7594 508.9967C 798.6173 508.8795 798.4379 508.7975 798.2211 508.7506C 798.0863 508.7242 797.8431 508.711 797.4916 508.711L797.4916 508.711L796.4369 508.711C 794.9662 508.711 794.8387 508.6597 794.4813 508.4605L794.4813 508.4605L794.4813 509.2867C 794.6454 509.3687 794.8373 509.4215 795.057 509.4449zM796.8236 509.5108C 796.7064 509.7979 796.6068 510.2286 796.5248 510.8028C 796.4779 511.128 796.4252 511.358 796.3666 511.4928C 796.308 511.6275 796.2223 511.7315 796.1095 511.8048C 795.9967 511.878 795.8715 511.9146 795.7338 511.9146C 795.3119 511.9146 794.9955 511.5894 794.9955 510.9742C 794.9955 510.3648 795.2797 509.8609 795.7426 509.6383C 795.9213 509.5533 796.1849 509.5108 796.5336 509.5108z" stroke="none" fill="#000000" fill-rule="evenodd" /><path id="23" transform="matrix(1 0 0 -1 0 612)" d="M794.4813 507.2974L798.5331 507.2974L798.5331 507.2974L798.5331 507.9961L798.5331 507.9961L799.1483 507.9961L799.1483 507.9961L799.1483 507.2974L799.1483 507.2974L799.6449 507.2974C 799.9584 507.2974 800.1913 507.2695 800.3436 507.2139C 800.7538 507.0615 801.0336 506.6968 801.0336 506.0054C 801.0336 505.7827 801.0072 505.5366 800.9545 505.2671L800.9545 505.2671L800.2645 505.3857C 800.2938 505.5498 800.3085 505.7051 800.3085 505.8516C 800.3085 506.332 800.1415 506.5107 799.579 506.5107L799.579 506.5107L799.1483 506.5107L799.1483 506.5107L799.1483 505.6011L799.1483 505.6011L798.5331 505.6011L798.5331 505.6011L798.5331 506.5107L798.5331 506.5107L794.4813 506.5107z" stroke="none" fill="#000000" fill-rule="evenodd" /><path id="24" transform="matrix(1 0 0 -1 0 612)" d="M795.1888 503.2573L794.4901 503.143C 794.4432 503.3657 794.4198 503.5649 794.4198 503.7407C 794.4198 504.0278 794.4652 504.2504 794.556 504.4086C 794.6469 504.5668 794.7662 504.6782 794.9142 504.7426C 795.0621 504.8071 795.3734 504.8393 795.848 504.8393L795.848 504.8393L798.5331 504.8393L798.5331 504.8393L798.5331 505.4194L798.5331 505.4194L799.1483 505.4194L799.1483 505.4194L799.1483 504.8393L799.1483 504.8393L800.3041 504.8393L800.3041 504.8393L800.7787 504.0527L800.7787 504.0527L799.1483 504.0527L799.1483 504.0527L799.1483 503.2573L799.1483 503.2573L798.5331 503.2573L798.5331 503.2573L798.5331 504.0527L798.5331 504.0527L795.8041 504.0527C 795.5785 504.0527 795.4335 504.0388 795.369 504.0109C 795.3046 503.9831 795.2533 503.9377 795.2152 503.8747C 795.1771 503.8117 795.1581 503.7216 795.1581 503.6044C 795.1581 503.5165 795.1683 503.4008 795.1888 503.2573z" stroke="none" fill="#000000" fill-rule="evenodd" /><path id="25" transform="matrix(1 0 0 -1 0 612)" d="M795.9843 499.2875L795.8832 498.4701C 794.9281 498.7279 794.3759 499.4384 794.3759 500.5223C 794.3759 501.8876 795.2577 502.746 796.7753 502.746C 798.3456 502.746 799.2538 501.8553 799.2538 500.5663C 799.2538 499.3182 798.3646 498.4437 796.8236 498.4437C 796.7767 498.4437 796.7064 498.4452 796.6127 498.4481L796.6127 498.4481L796.6127 501.9286C 795.5873 501.87 795.0262 501.2972 795.0262 500.5179C 795.0262 499.9379 795.3163 499.5277 795.9843 499.2875zM797.2631 501.8846L797.2631 499.2787C 797.6556 499.3138 797.9501 499.4135 798.1464 499.5775C 798.451 499.8295 798.6034 500.1561 798.6034 500.5575C 798.6034 501.2841 798.0775 501.8319 797.2631 501.8846z" stroke="none" fill="#000000" fill-rule="evenodd" /><path id="26" transform="matrix(1 0 0 -1 0 612)" d="M794.4813 497.4871L799.1483 497.4871L799.1483 497.4871L799.1483 496.7752L799.1483 496.7752L798.4408 496.7752C 799.1029 496.4119 799.2538 496.1336 799.2538 495.7645C 799.2538 495.4978 799.1688 495.2269 798.9989 494.9515L798.9989 494.9515L798.265 495.2239C 798.3793 495.4173 798.4364 495.6107 798.4364 495.804C 798.4364 496.1497 798.2167 496.4471 797.8475 496.5643C 797.5663 496.6522 797.2587 496.6961 796.9247 496.6961L796.9247 496.6961L794.4813 496.6961z" stroke="none" fill="#000000" fill-rule="evenodd" /><path id="28" transform="matrix(1 0 0 -1 0 612)" d="M795.057 488.9339C 794.559 489.5198 794.3759 490.0311 794.3759 490.6522C 794.3759 491.6776 794.9325 492.2474 795.7118 492.2474C 795.9403 492.2474 796.149 492.1954 796.338 492.0914C 796.527 491.9874 796.6786 491.8511 796.7928 491.6827C 796.9071 491.5142 796.9935 491.3245 797.0521 491.1136C 797.0931 490.9583 797.1327 490.7239 797.1708 490.4105C 797.2469 489.7718 797.3378 489.3016 797.4432 488.9998C 797.5516 488.9969 797.6205 488.9954 797.6498 488.9954C 797.972 488.9954 798.1991 489.0701 798.3309 489.2195C 798.5096 489.4217 798.599 489.722 798.599 490.1204C 798.599 490.8646 798.3734 491.1678 797.7113 491.3377L797.7113 491.3377L797.8168 492.1111C 798.1478 492.0408 798.4152 491.9251 798.6188 491.764C 798.8224 491.6028 798.9791 491.3699 799.089 491.0652C 799.1989 490.7606 799.2538 490.4075 799.2538 490.0062C 799.2538 489.6077 799.2069 489.284 799.1132 489.035C 799.0194 488.7859 798.9015 488.6028 798.7594 488.4857C 798.6173 488.3685 798.4379 488.2864 798.2211 488.2396C 798.0863 488.2132 797.8431 488.2 797.4916 488.2L797.4916 488.2L796.4369 488.2C 794.9662 488.2 794.8387 488.1487 794.4813 487.9495L794.4813 487.9495L794.4813 488.7757C 794.6454 488.8577 794.8373 488.9105 795.057 488.9339zM796.8236 488.9998C 796.7064 489.2869 796.6068 489.7176 796.5248 490.2918C 796.4779 490.617 796.4252 490.847 796.3666 490.9818C 796.308 491.1165 796.2223 491.2205 796.1095 491.2938C 795.9967 491.367 795.8715 491.4036 795.7338 491.4036C 795.3119 491.4036 794.9955 491.0784 794.9955 490.4632C 794.9955 489.8538 795.2797 489.3499 795.7426 489.1273C 795.9213 489.0423 796.1849 488.9998 796.5336 488.9998z" stroke="none" fill="#000000" fill-rule="evenodd" /><path id="30" transform="matrix(1 0 0 -1 0 612)" d="M794.4813 484.4821L799.1483 484.4821L799.1483 484.4821L799.1483 483.7702L799.1483 483.7702L798.4408 483.7702C 799.1029 483.4069 799.2538 483.1286 799.2538 482.7595C 799.2538 482.4929 799.1688 482.2219 798.9989 481.9465L798.9989 481.9465L798.265 482.2189C 798.3793 482.4123 798.4364 482.6057 798.4364 482.799C 798.4364 483.1447 798.2167 483.4421 797.8475 483.5593C 797.5663 483.6472 797.2587 483.6911 796.9247 483.6911L796.9247 483.6911L794.4813 483.6911z" stroke="none" fill="#000000" fill-rule="evenodd" /><path id="31" transform="matrix(1 0 0 -1 0 612)" d="M795.057 478.4309C 794.559 479.0168 794.3759 479.5281 794.3759 480.1492C 794.3759 481.1746 794.9325 481.7444 795.7118 481.7444C 795.9403 481.7444 796.149 481.6924 796.338 481.5884C 796.527 481.4844 796.6786 481.3481 796.7928 481.1797C 796.9071 481.0112 796.9935 480.8215 797.0521 480.6106C 797.0931 480.4553 797.1327 480.2209 797.1708 479.9075C 797.2469 479.2688 797.3378 478.7986 797.4432 478.4968C 797.5516 478.4939 797.6205 478.4924 797.6498 478.4924C 797.972 478.4924 798.1991 478.5671 798.3309 478.7166C 798.5096 478.9187 798.599 479.219 798.599 479.6174C 798.599 480.3616 798.3734 480.6648 797.7113 480.8347L797.7113 480.8347L797.8168 481.6082C 798.1478 481.5378 798.4152 481.4221 798.6188 481.261C 798.8224 481.0999 798.9791 480.8669 799.089 480.5623C 799.1989 480.2576 799.2538 479.9045 799.2538 479.5032C 799.2538 479.1047 799.2069 478.781 799.1132 478.532C 799.0194 478.283 798.9015 478.0999 798.7594 477.9827C 798.6173 477.8655 798.4379 477.7834 798.2211 477.7366C 798.0863 477.7102 797.8431 477.697 797.4916 477.697L797.4916 477.697L796.4369 477.697C 794.9662 477.697 794.8387 477.6458 794.4813 477.4465L794.4813 477.4465L794.4813 478.2727C 794.6454 478.3547 794.8373 478.4075 795.057 478.4309zM796.8236 478.4968C 796.7064 478.7839 796.6068 479.2146 796.5248 479.7888C 796.4779 480.114 796.4252 480.344 796.3666 480.4788C 796.308 480.6135 796.2223 480.7175 796.1095 480.7908C 795.9967 480.864 795.8715 480.9006 795.7338 480.9006C 795.3119 480.9006 794.9955 480.5754 794.9955 479.9602C 794.9955 479.3508 795.2797 478.8469 795.7426 478.6243C 795.9213 478.5393 796.1849 478.4968 796.5336 478.4968z" stroke="none" fill="#000000" fill-rule="evenodd" /><path id="32" transform="matrix(1 0 0 -1 0 612)" d="M800.014 476.4679L800.9237 476.4679L800.9237 476.4679L800.9237 475.6769L800.9237 475.6769L800.014 475.6769zM794.4813 476.4679L799.1483 476.4679L799.1483 476.4679L799.1483 475.6769L799.1483 475.6769L794.4813 475.6769z" stroke="none" fill="#000000" fill-rule="evenodd" /><path id="33" transform="matrix(1 0 0 -1 0 612)" d="M794.4813 474.4743L799.1483 474.4743L799.1483 474.4743L799.1483 473.7624L799.1483 473.7624L798.4847 473.7624C 798.9974 473.4196 799.2538 472.9245 799.2538 472.277C 799.2538 471.9958 799.2032 471.7372 799.1022 471.5014C 799.0011 471.2656 798.8685 471.0891 798.7045 470.9719C 798.5404 470.8547 798.3456 470.7726 798.12 470.7258C 797.9735 470.6965 797.7172 470.6818 797.351 470.6818L797.351 470.6818L794.4813 470.6818L794.4813 470.6818L794.4813 471.4728L794.4813 471.4728L797.3202 471.4728C 797.6425 471.4728 797.8834 471.5036 798.0431 471.5651C 798.2028 471.6266 798.3302 471.7358 798.4254 471.8925C 798.5206 472.0493 798.5682 472.2331 798.5682 472.444C 798.5682 473.1179 798.2255 473.6833 797.0302 473.6833L797.0302 473.6833L794.4813 473.6833z" stroke="none" fill="#000000" fill-rule="evenodd" /><path id="34" transform="matrix(1 0 0 -1 0 612)" d="M792.684 469.5055L793.4266 469.5934C 793.3798 469.4205 793.3563 469.2696 793.3563 469.1407C 793.3563 468.7892 793.4794 468.5943 793.6903 468.4596C 793.7694 468.4098 793.9657 468.3292 794.2792 468.2179C 794.3231 468.2032 794.3876 468.1798 794.4725 468.1476L794.4725 468.1476L799.1483 469.9185L799.1483 469.9185L799.1483 469.066L799.1483 469.066L796.4457 468.0948C 796.1029 467.9688 795.7426 467.856 795.3646 467.7564C 795.7279 467.6656 796.0824 467.5572 796.4281 467.4312L796.4281 467.4312L799.1483 466.4337L799.1483 466.4337L799.1483 465.6427L799.1483 465.6427L794.4022 467.4181C 793.8895 467.6085 793.5365 467.7564 793.3431 467.8619C 792.8217 468.1432 792.5873 468.4918 792.5873 468.9957C 792.5873 469.148 792.6195 469.318 792.684 469.5055z" stroke="none" fill="#000000" fill-rule="evenodd" /><path id="36" transform="matrix(1 0 0 -1 0 612)" d="M794.4813 462.4683L799.1483 462.4683L799.1483 462.4683L799.1483 461.7564L799.1483 461.7564L798.4847 461.7564C 798.9974 461.4136 799.2538 460.9185 799.2538 460.2711C 799.2538 459.9898 799.2032 459.7313 799.1022 459.4954C 799.0011 459.2596 798.8685 459.0831 798.7045 458.9659C 798.5404 458.8487 798.3456 458.7667 798.12 458.7198C 797.9735 458.6905 797.7172 458.6758 797.351 458.6758L797.351 458.6758L794.4813 458.6758L794.4813 458.6758L794.4813 459.4669L794.4813 459.4669L797.3202 459.4669C 797.6425 459.4669 797.8834 459.4976 798.0431 459.5591C 798.2028 459.6207 798.3302 459.7298 798.4254 459.8865C 798.5206 460.0433 798.5682 460.2271 798.5682 460.438C 798.5682 461.1119 798.2255 461.6773 797.0302 461.6773L797.0302 461.6773L794.4813 461.6773z" stroke="none" fill="#000000" fill-rule="evenodd" /><path id="37" transform="matrix(1 0 0 -1 0 612)" d="M800.014 457.4599L800.9237 457.4599L800.9237 457.4599L800.9237 456.6689L800.9237 456.6689L800.014 456.6689zM794.4813 457.4599L799.1483 457.4599L799.1483 457.4599L799.1483 456.6689L799.1483 456.6689L794.4813 456.6689z" stroke="none" fill="#000000" fill-rule="evenodd" /><path id="38" transform="matrix(1 0 0 -1 0 612)" d="M794.0946 455.6113L793.9803 454.8423C 793.743 454.8101 793.5702 454.7207 793.4618 454.5742C 793.3153 454.3779 793.2421 454.1099 793.2421 453.77C 793.2421 453.0376 793.5497 452.6582 794.077 452.5176C 794.2382 452.4766 794.5765 452.4575 795.0922 452.4604C 794.6849 452.8062 794.4813 453.2368 794.4813 453.7524C 794.4813 455.0356 795.5463 455.7695 796.8412 455.7695C 797.2865 455.7695 797.6974 455.689 798.0739 455.5278C 798.4503 455.3667 798.7411 455.1331 798.9462 454.8269C 799.1512 454.5208 799.2538 454.1611 799.2538 453.748C 799.2538 453.1973 799.0311 452.7432 798.5858 452.3857L798.5858 452.3857L799.1483 452.3857L799.1483 452.3857L799.1483 451.6563L799.1483 451.6563L795.1141 451.6563C 794.3876 451.6563 793.8727 451.7302 793.5695 451.8782C 793.2662 452.0261 793.0267 452.2605 792.851 452.5813C 792.6752 452.9021 792.5873 453.2969 792.5873 453.7656C 792.5873 454.8789 793.0868 455.6348 794.0946 455.6113zM796.8983 454.9565C 795.6737 454.9565 795.1361 454.4102 795.1361 453.6777C 795.1361 452.9512 795.6766 452.3945 796.8719 452.3945C 798.0145 452.3945 798.599 452.9761 798.599 453.6909C 798.599 454.394 798.0233 454.9565 796.8983 454.9565z" stroke="none" fill="#000000" fill-rule="evenodd" /><path id="39" transform="matrix(1 0 0 -1 0 612)" d="M794.4813 450.4623L800.9237 450.4623L800.9237 450.4623L800.9237 449.6713L800.9237 449.6713L798.6122 449.6713C 799.0399 449.3022 799.2538 448.8363 799.2538 448.2738C 799.2538 447.9281 799.1857 447.6278 799.0494 447.373C 798.9132 447.1181 798.725 446.9357 798.4847 446.8258C 798.2445 446.716 797.8959 446.661 797.4388 446.661L797.4388 446.661L794.4813 446.661L794.4813 446.661L794.4813 447.4521L794.4813 447.4521L797.4388 447.4521C 798.2299 447.4521 798.5726 447.8095 798.5726 448.4364C 798.5726 448.6708 798.5118 448.8913 798.3903 449.0978C 798.2687 449.3044 798.1039 449.4516 797.8959 449.5395C 797.6879 449.6273 797.4008 449.6713 797.0345 449.6713L797.0345 449.6713L794.4813 449.6713z" stroke="none" fill="#000000" fill-rule="evenodd" /><path id="40" transform="matrix(1 0 0 -1 0 612)" d="M795.1888 443.7313L794.4901 443.617C 794.4432 443.8397 794.4198 444.0389 794.4198 444.2147C 794.4198 444.5018 794.4652 444.7244 794.556 444.8826C 794.6469 445.0408 794.7662 445.1522 794.9142 445.2166C 795.0621 445.2811 795.3734 445.3133 795.848 445.3133L795.848 445.3133L798.5331 445.3133L798.5331 445.3133L798.5331 445.8934L798.5331 445.8934L799.1483 445.8934L799.1483 445.8934L799.1483 445.3133L799.1483 445.3133L800.3041 445.3133L800.3041 445.3133L800.7787 444.5267L800.7787 444.5267L799.1483 444.5267L799.1483 444.5267L799.1483 443.7313L799.1483 443.7313L798.5331 443.7313L798.5331 443.7313L798.5331 444.5267L798.5331 444.5267L795.8041 444.5267C 795.5785 444.5267 795.4335 444.5128 795.369 444.4849C 795.3046 444.4571 795.2533 444.4117 795.2152 444.3487C 795.1771 444.2857 795.1581 444.1956 795.1581 444.0784C 795.1581 443.9905 795.1683 443.8748 795.1888 443.7313z" stroke="none" fill="#000000" fill-rule="evenodd" /><g clip-path="url(#4)"><g><g clip-path="url(#5)"><path id="41" transform="matrix(1 0 0 -1 0 612)" d="M372.976 138.028L675.519 138.028L675.519 472.677L372.976 472.677z" stroke="none" fill="#FFFEFE" fill-rule="nonzero" /></g></g></g></g></g></svg>