<svg xmlns="http://www.w3.org/2000/svg" xmlns:xlink="http://www.w3.org/1999/xlink" id="body_1" preserveAspectRatio="xMinYMin meet" viewBox="0 0 1144 816"><defs><clipPath id="1"><path id="" clip-rule="evenodd" transform="matrix(1 0 0 1 0 0)" d="M0 612L0 -0.28302L0 -0.28302L858.898 -0.28302L858.898 -0.28302L858.898 612L858.898 612L0 612z" /></clipPath><clipPath id="2"><path id="" clip-rule="evenodd" transform="matrix(1 0 0 1 0 0)" d="M0 -0.28302L858.898 -0.28302L858.898 -0.28302L858.898 612L858.898 612L0 612z" /></clipPath><clipPath id="3"><path id="" clip-rule="evenodd" transform="matrix(1 0 0 1 0 0)" d="M0.378 555.307L858.898 555.307L858.898 555.307L858.898 56.409L858.898 56.409L0.378 56.409z" /></clipPath></defs><g transform="matrix(1.333333 0 0 1.333333 0 0)"><g clip-path="url(#1)"><g clip-path="url(#2)"><path id="1" transform="matrix(1 0 0 -1 0 612)" d="M65.2581 139.6838L58.0999 139.6838L58.0999 139.6838L58.0999 142.8577C 58.0999 143.4957 58.16419 143.9807 58.29277 144.3127C 58.42135 144.6448 58.6484 144.9101 58.97392 145.1086C 59.29944 145.3072 59.65915 145.4065 60.05302 145.4065C 61.06865 145.4065 61.81247 144.7636 62.00127 143.3899C 62.12171 143.6405 62.24052 143.831 62.35771 143.9612C 62.61162 144.2379 62.929 144.4999 63.30986 144.7473L63.30986 144.7473L65.2581 145.9924L65.2581 145.9924L65.2581 144.801L65.2581 144.801L63.76884 143.8538C 63.33916 143.5771 63.01038 143.3492 62.78252 143.1702C 62.55465 142.9911 62.39515 142.8308 62.304 142.6892C 62.21286 142.5476 62.14938 142.4036 62.11357 142.2571C 62.09079 142.1497 62.07939 141.9739 62.07939 141.7297L62.07939 141.7297L62.07939 140.6311L62.07939 140.6311L65.2581 140.6311zM61.25908 140.6311L61.25908 142.6672C 61.25908 143.1002 61.21432 143.4387 61.1248 143.6829C 61.03528 143.927 60.89206 144.1125 60.69511 144.2395C 60.49817 144.3665 60.28415 144.4299 60.05302 144.4299C 59.37594 144.4299 58.89091 143.9579 58.89091 142.8967L58.89091 142.8967L58.89091 140.6311z" stroke="none" fill="#353332" fill-rule="evenodd" /><path id="2" transform="matrix(1 0 0 -1 0 612)" d="M65.2581 150.1753L64.49638 150.1753C 65.08232 149.7717 65.37529 149.2232 65.37529 148.5298C 65.37529 148.2238 65.3167 147.9382 65.19951 147.6729C 65.08232 147.4076 64.93502 147.2106 64.75761 147.0821C 64.58021 146.9535 64.36292 146.8631 64.10576 146.8111C 63.93323 146.7753 63.65979 146.7574 63.28545 146.7574L63.28545 146.7574L60.07256 146.7574L60.07256 146.7574L60.07256 147.6363L60.07256 147.6363L62.94853 147.6363C 63.40752 147.6363 63.71676 147.6542 63.87627 147.69C 64.33851 147.8006 64.61845 148.1783 64.61845 148.7056C 64.61845 148.9693 64.55091 149.2167 64.41582 149.4478C 64.28072 149.6789 64.09681 149.8425 63.86406 149.9385C 63.63131 150.0345 63.29358 150.0826 62.85088 150.0826L62.85088 150.0826L60.07256 150.0826L60.07256 150.0826L60.07256 150.9615L60.07256 150.9615L65.2581 150.9615z" stroke="none" fill="#353332" fill-rule="evenodd" /><path id="3" transform="matrix(1 0 0 -1 0 612)" d="M62.66533 152.0097C 61.70504 152.0097 60.99378 152.2767 60.53154 152.8105C 60.14743 153.2565 59.95537 153.8001 59.95537 154.4414C 59.95537 155.8672 60.94495 156.8681 62.59209 156.8681C 63.2594 156.8681 63.78431 156.768 64.16679 156.5678C 64.54928 156.3676 64.84632 156.0763 65.05791 155.6938C 65.26949 155.3113 65.37529 154.8938 65.37529 154.4414C 65.37529 152.9895 64.41663 152.0097 62.66533 152.0097zM62.66533 152.9131C 63.99345 152.9131 64.65263 153.5625 64.65263 154.4414C 64.65263 155.3138 63.99671 155.9648 62.63603 155.9648C 61.35348 155.9648 60.68291 155.3073 60.68291 154.4414C 60.68291 153.5625 61.3372 152.9131 62.66533 152.9131z" stroke="none" fill="#353332" fill-rule="evenodd" /><path id="4" transform="matrix(1 0 0 -1 0 612)" d="M63.35869 161.2807L63.47099 162.1449C 64.6624 161.9561 65.37529 161.1195 65.37529 159.9867C 65.37529 158.5675 64.41663 157.6283 62.68486 157.6283C 62.12497 157.6283 61.63506 157.7211 61.21513 157.9066C 60.79521 158.0922 60.48027 158.3746 60.27031 158.7538C 60.06035 159.1331 59.95537 159.5457 59.95537 159.9916C 59.95537 161.1179 60.54782 161.8601 61.59599 162.0619L61.59599 162.0619L61.72783 161.2074C 61.03122 161.0447 60.67802 160.6117 60.67802 160.0258C 60.67802 159.1404 61.28675 158.5316 62.66045 158.5316C 64.05367 158.5316 64.65263 159.1176 64.65263 159.977C 64.65263 160.6671 64.23759 161.157 63.35869 161.2807z" stroke="none" fill="#353332" fill-rule="evenodd" /><path id="5" transform="matrix(1 0 0 -1 0 612)" d="M65.2581 162.8969L58.0999 162.8969L58.0999 162.8969L58.0999 163.7758L58.0999 163.7758L60.66826 163.7758C 60.193 164.1859 59.95537 164.7035 59.95537 165.3285C 59.95537 165.7126 60.03105 166.0463 60.18242 166.3295C 60.33379 166.6127 60.54293 166.8153 60.80986 166.9374C 61.07679 167.0595 61.46416 167.1205 61.97197 167.1205L61.97197 167.1205L65.2581 167.1205L65.2581 167.1205L65.2581 166.2416L65.2581 166.2416L61.97197 166.2416C 61.09306 166.2416 60.7122 165.8445 60.7122 165.1479C 60.7122 164.8875 60.77975 164.6425 60.91484 164.413C 61.04993 164.1835 61.23304 164.0199 61.46416 163.9223C 61.69528 163.8246 62.01429 163.7758 62.42119 163.7758L62.42119 163.7758L65.2581 163.7758z" stroke="none" fill="#353332" fill-rule="evenodd" /><path id="6" transform="matrix(1 0 0 -1 0 612)" d="M62.66533 168.1297C 61.70504 168.1297 60.99378 168.3967 60.53154 168.9305C 60.14743 169.3765 59.95537 169.9201 59.95537 170.5614C 59.95537 171.9872 60.94495 172.9881 62.59209 172.9881C 63.2594 172.9881 63.78431 172.888 64.16679 172.6878C 64.54928 172.4876 64.84632 172.1963 65.05791 171.8138C 65.26949 171.4313 65.37529 171.0139 65.37529 170.5614C 65.37529 169.1096 64.41663 168.1297 62.66533 168.1297zM62.66533 169.0331C 63.99345 169.0331 64.65263 169.6825 64.65263 170.5614C 64.65263 171.4338 63.99671 172.0848 62.63603 172.0848C 61.35348 172.0848 60.68291 171.4273 60.68291 170.5614C 60.68291 169.6825 61.3372 169.0331 62.66533 169.0331z" stroke="none" fill="#353332" fill-rule="evenodd" /><path id="7" transform="matrix(1 0 0 -1 0 612)" d="M65.2581 174.0169L60.07256 174.0169L60.07256 174.0169L60.07256 174.8079L60.07256 174.8079L60.80986 174.8079C 60.2402 175.1888 59.95537 175.7389 59.95537 176.4583C 59.95537 176.7708 60.01152 177.0581 60.12383 177.3201C 60.23613 177.5822 60.38343 177.7783 60.56572 177.9085C 60.74801 178.0387 60.96448 178.1298 61.21513 178.1819C 61.3779 178.2145 61.66272 178.2307 62.06963 178.2307L62.06963 178.2307L65.2581 178.2307L65.2581 178.2307L65.2581 177.3518L65.2581 177.3518L62.10381 177.3518C 61.74573 177.3518 61.47799 177.3177 61.30058 177.2493C 61.12317 177.1809 60.98157 177.0597 60.87578 176.8855C 60.76999 176.7114 60.71709 176.5071 60.71709 176.2727C 60.71709 175.524 61.09795 174.8958 62.42607 174.8958L62.42607 174.8958L65.2581 174.8958z" stroke="none" fill="#353332" fill-rule="evenodd" /><path id="8" transform="matrix(1 0 0 -1 0 612)" d="M65.68779 179.4157L65.81474 180.2702C 66.07841 180.306 66.27047 180.4053 66.39091 180.5681C 66.55367 180.7862 66.63506 181.084 66.63506 181.4616C 66.63506 182.2755 66.29326 182.697 65.70732 182.8532C 65.52828 182.8988 65.15231 182.92 64.57939 182.9167C 65.03187 182.5326 65.2581 182.0541 65.2581 181.4812C 65.2581 180.0554 64.07484 179.24 62.63603 179.24C 62.14124 179.24 61.6847 179.3295 61.2664 179.5085C 60.84811 179.6876 60.52503 179.9472 60.29716 180.2873C 60.0693 180.6275 59.95537 181.0271 59.95537 181.4861C 59.95537 182.098 60.20276 182.6026 60.69756 182.9997L60.69756 182.9997L60.07256 182.9997L60.07256 182.9997L60.07256 183.8103L60.07256 183.8103L64.55498 183.8103C 65.36227 183.8103 65.93437 183.7281 66.27129 183.5637C 66.6082 183.3993 66.87431 183.1389 67.06963 182.7824C 67.26494 182.426 67.36259 181.9874 67.36259 181.4665C 67.36259 180.2296 66.80758 179.3897 65.68779 179.4157zM62.57256 180.1433C 63.93323 180.1433 64.53056 180.7504 64.53056 181.5642C 64.53056 182.3715 63.92998 182.99 62.60185 182.99C 61.33232 182.99 60.68291 182.3438 60.68291 181.5495C 60.68291 180.7683 61.32256 180.1433 62.57256 180.1433z" stroke="none" fill="#353332" fill-rule="evenodd" /></g><path id="9" transform="matrix(1 0 0 -1 0 612)" d="M0 56.693L858.898 56.693L858.898 555.591L0 555.591z" stroke="none" fill="#E6E6E6" fill-rule="nonzero" /><g clip-path="url(#3)"><g transform="matrix(0.7018537 0 0 0.7018537 0.3779449 55.05652)"><g transform="matrix(1 0 0 1 0 0)"><image x="0" y="0" xlink:href="img_01.png" width="1225" height="713" /></g></g></g><path id="11" transform="matrix(1 0 0 -1 0 612)" d="M62.34647 462.5183L62.27616 463.3225C 62.59843 463.3606 62.86283 463.4492 63.06937 463.5884C 63.27592 463.7275 63.44291 463.9436 63.57035 464.2366C 63.69779 464.5295 63.76151 464.8591 63.76151 465.2253C 63.76151 465.5505 63.71317 465.8376 63.61649 466.0867C 63.51981 466.3357 63.38725 466.521 63.21879 466.6426C 63.05033 466.7642 62.86649 466.825 62.66727 466.825C 62.26298 466.825 61.96268 466.6082 61.75761 466.0691C 61.62284 465.7234 61.29325 464.1531 61.0413 463.6785C 60.71903 463.0632 60.23124 462.7644 59.63944 462.7644C 59.31425 462.7644 59.01029 462.8567 58.72758 463.0413C 58.44486 463.2258 58.23026 463.4954 58.08378 463.8499C 57.93729 464.2043 57.86405 464.5984 57.86405 465.032C 57.86405 465.5095 57.94096 465.9307 58.09476 466.2954C 58.24857 466.6602 58.47489 466.9407 58.77372 467.137C 59.07255 467.3333 59.41093 467.4387 59.78886 467.4534L59.78886 467.4534L59.85038 466.636C 59.03593 466.5481 58.61552 466.0574 58.61552 465.0671C 58.61552 464.0359 59.04911 463.5862 59.58231 463.5862C 59.81376 463.5862 60.00419 463.6697 60.1536 463.8367C 60.45243 464.1648 60.78934 466.0325 61.02372 466.5481C 61.36942 467.2981 61.90556 467.6467 62.59696 467.6467C 62.93974 467.6467 63.26273 467.5486 63.56596 467.3523C 63.86918 467.156 64.10502 466.874 64.27348 466.5063C 64.44193 466.1387 64.52616 465.7249 64.52616 465.2649C 64.52616 464.6819 64.4412 464.1934 64.27128 463.7993C 64.10136 463.4053 63.84574 463.0962 63.50443 462.8721C 63.16312 462.6479 62.77714 462.53 62.34647 462.5183z" stroke="none" fill="#353231" fill-rule="evenodd" /><path id="12" transform="matrix(1 0 0 -1 0 612)" d="M63.70878 470.4373L64.40751 470.5516C 64.45438 470.3289 64.47782 470.1297 64.47782 469.9539C 64.47782 469.6668 64.43241 469.4442 64.34159 469.2859C 64.25077 469.1277 64.13139 469.0164 63.98344 468.952C 63.83549 468.8875 63.52421 468.8553 63.0496 468.8553L63.0496 468.8553L60.36454 468.8553L60.36454 468.8553L60.36454 468.2752L60.36454 468.2752L59.74931 468.2752L59.74931 468.2752L59.74931 468.8553L59.74931 468.8553L58.59354 468.8553L58.59354 468.8553L58.11893 469.6419L58.11893 469.6419L59.74931 469.6419L59.74931 469.6419L59.74931 470.4373L59.74931 470.4373L60.36454 470.4373L60.36454 470.4373L60.36454 469.6419L60.36454 469.6419L63.09354 469.6419C 63.31913 469.6419 63.46415 469.6558 63.5286 469.6837C 63.59306 469.7115 63.64433 469.7569 63.68241 469.8199C 63.7205 469.8829 63.73954 469.973 63.73954 470.0901C 63.73954 470.178 63.72929 470.2938 63.70878 470.4373z" stroke="none" fill="#353231" fill-rule="evenodd" /><path id="13" transform="matrix(1 0 0 -1 0 612)" d="M63.84061 474.2577C 64.33866 473.6718 64.52177 473.1605 64.52177 472.5394C 64.52177 471.514 63.96513 470.9442 63.18583 470.9442C 62.95731 470.9442 62.74857 470.9962 62.55961 471.1002C 62.37064 471.2042 62.21903 471.3405 62.10477 471.5089C 61.99052 471.6774 61.90409 471.8671 61.8455 472.078C 61.80448 472.2333 61.76493 472.4677 61.72684 472.7811C 61.65067 473.4198 61.55985 473.89 61.45438 474.1918C 61.34599 474.1947 61.27714 474.1962 61.24784 474.1962C 60.92558 474.1962 60.69852 474.1215 60.56669 473.972C 60.38798 473.7699 60.29862 473.4696 60.29862 473.0712C 60.29862 472.327 60.52421 472.0238 61.18632 471.8539L61.18632 471.8539L61.08085 471.0804C 60.74979 471.1508 60.48246 471.2665 60.27885 471.4276C 60.07523 471.5887 59.9185 471.8217 59.80863 472.1263C 59.69877 472.431 59.64384 472.7841 59.64384 473.1854C 59.64384 473.5839 59.69071 473.9076 59.78446 474.1566C 59.87821 474.4056 59.99613 474.5887 60.13822 474.7059C 60.28031 474.8231 60.45975 474.9052 60.67655 474.952C 60.81132 474.9784 61.05448 474.9916 61.40604 474.9916L61.40604 474.9916L62.46073 474.9916C 63.93143 474.9916 64.05888 475.0428 64.4163 475.2421L64.4163 475.2421L64.4163 474.4159C 64.25224 474.3339 64.06034 474.2811 63.84061 474.2577zM62.07401 474.1918C 62.1912 473.9047 62.29081 473.474 62.37284 472.8998C 62.41972 472.5746 62.47245 472.3446 62.53104 472.2098C 62.58964 472.0751 62.67533 471.9711 62.78812 471.8978C 62.90092 471.8246 63.02616 471.788 63.16386 471.788C 63.58573 471.788 63.90214 472.1132 63.90214 472.7284C 63.90214 473.3378 63.61796 473.8417 63.15507 474.0643C 62.97636 474.1493 62.71268 474.1918 62.36405 474.1918z" stroke="none" fill="#353231" fill-rule="evenodd" /><path id="14" transform="matrix(1 0 0 -1 0 612)" d="M64.4163 476.2075L59.74931 476.2075L59.74931 476.2075L59.74931 476.9194L59.74931 476.9194L60.45683 476.9194C 59.79472 477.2827 59.64384 477.561 59.64384 477.9301C 59.64384 478.1967 59.7288 478.4677 59.89872 478.7431L59.89872 478.7431L60.63261 478.4707C 60.51835 478.2773 60.46122 478.084 60.46122 477.8906C 60.46122 477.5449 60.68095 477.2475 61.05009 477.1303C 61.33134 477.0424 61.63895 476.9985 61.97294 476.9985L61.97294 476.9985L64.4163 476.9985z" stroke="none" fill="#353231" fill-rule="evenodd" /><path id="15" transform="matrix(1 0 0 -1 0 612)" d="M64.4163 479.2045L59.74931 479.2045L59.74931 479.2045L59.74931 479.9164L59.74931 479.9164L60.45683 479.9164C 59.79472 480.2797 59.64384 480.558 59.64384 480.9272C 59.64384 481.1938 59.7288 481.4648 59.89872 481.7401L59.89872 481.7401L60.63261 481.4677C 60.51835 481.2743 60.46122 481.081 60.46122 480.8876C 60.46122 480.5419 60.68095 480.2445 61.05009 480.1273C 61.33134 480.0395 61.63895 479.9955 61.97294 479.9955L61.97294 479.9955L64.4163 479.9955z" stroke="none" fill="#353231" fill-rule="evenodd" /><path id="16" transform="matrix(1 0 0 -1 0 612)" d="M66.21366 482.1751L65.47099 482.0872C 65.51786 482.2601 65.5413 482.4109 65.5413 482.5399C 65.5413 482.8914 65.41825 483.0862 65.20731 483.221C 65.12821 483.2708 64.93192 483.3514 64.61845 483.4627C 64.5745 483.4774 64.51005 483.5008 64.42509 483.533L64.42509 483.533L59.74931 481.762L59.74931 481.762L59.74931 482.6146L59.74931 482.6146L62.45194 483.5858C 62.79472 483.7117 63.15507 483.8245 63.533 483.9241C 63.16972 484.015 62.81522 484.1234 62.46952 484.2493L62.46952 484.2493L59.74931 485.2469L59.74931 485.2469L59.74931 486.0379L59.74931 486.0379L64.4954 484.2625C 65.00809 484.0721 65.36112 483.9241 65.55448 483.8187C 66.07597 483.5374 66.31034 483.1888 66.31034 482.6849C 66.31034 482.5325 66.27811 482.3626 66.21366 482.1751z" stroke="none" fill="#353231" fill-rule="evenodd" /><path id="18" transform="matrix(1 0 0 -1 0 612)" d="M63.02323 488.8959L62.90018 489.6781C 63.52714 489.766 63.87138 490.1659 63.87138 490.8866C 63.87138 491.6132 63.52714 491.9589 63.1287 491.9589C 62.94999 491.9589 62.80936 491.8812 62.70683 491.726C 62.63651 491.6176 62.54716 491.348 62.43876 490.9174C 62.29227 490.3373 62.16557 489.9352 62.05863 489.7111C 61.9517 489.4869 61.80375 489.317 61.61478 489.2013C 61.42582 489.0856 61.21708 489.0277 60.98856 489.0277C 60.57255 489.0277 60.20341 489.2313 59.96903 489.5594C 59.78739 489.8055 59.64384 490.2596 59.64384 490.746C 59.64384 491.1122 59.69657 491.4337 59.80204 491.7106C 59.90751 491.9874 60.05033 492.1918 60.23051 492.3236C 60.41068 492.4554 60.65165 492.5463 60.95341 492.5961L60.95341 492.5961L61.05888 491.8226C 60.57841 491.7523 60.29423 491.4183 60.29423 490.8031C 60.29423 490.0765 60.57401 489.7924 60.89628 489.7924C 60.99882 489.7924 61.0911 489.8246 61.17313 489.889C 61.25809 489.9535 61.32841 490.0546 61.38407 490.1923C 61.41337 490.2714 61.48075 490.5043 61.58622 490.891C 61.73563 491.4506 61.85795 491.8409 61.95316 492.0621C 62.04838 492.2833 62.18681 492.4569 62.36845 492.5829C 62.55009 492.7089 62.77567 492.7719 63.0452 492.7719C 63.30888 492.7719 63.55717 492.6949 63.79008 492.5411C 64.02299 492.3873 64.20316 492.1654 64.3306 491.8754C 64.45805 491.5853 64.52177 491.2572 64.52177 490.891C 64.52177 489.6781 64.01347 489.0717 63.02323 488.8959z" stroke="none" fill="#353231" fill-rule="evenodd" /><path id="19" transform="matrix(1 0 0 -1 0 612)" d="M64.4163 493.7167L57.97392 493.7167L57.97392 493.7167L57.97392 494.5077L57.97392 494.5077L61.64774 494.5077L61.64774 494.5077L59.74931 496.3798L59.74931 496.3798L59.74931 497.4037L59.74931 497.4037L61.48075 495.6195L61.48075 495.6195L64.4163 497.5839L64.4163 497.5839L64.4163 496.6083L64.4163 496.6083L62.03007 495.0658L62.03007 495.0658L62.5662 494.5077L62.5662 494.5077L64.4163 494.5077z" stroke="none" fill="#353231" fill-rule="evenodd" /><path id="20" transform="matrix(1 0 0 -1 0 612)" d="M66.21366 498.1771L65.47099 498.0892C 65.51786 498.2621 65.5413 498.413 65.5413 498.5419C 65.5413 498.8934 65.41825 499.0883 65.20731 499.223C 65.12821 499.2728 64.93192 499.3534 64.61845 499.4647C 64.5745 499.4794 64.51005 499.5028 64.42509 499.535L64.42509 499.535L59.74931 497.764L59.74931 497.764L59.74931 498.6166L59.74931 498.6166L62.45194 499.5878C 62.79472 499.7137 63.15507 499.8265 63.533 499.9261C 63.16972 500.017 62.81522 500.1254 62.46952 500.2513L62.46952 500.2513L59.74931 501.2489L59.74931 501.2489L59.74931 502.0399L59.74931 502.0399L64.4954 500.2645C 65.00809 500.0741 65.36112 499.9261 65.55448 499.8207C 66.07597 499.5394 66.31034 499.1908 66.31034 498.6869C 66.31034 498.5345 66.27811 498.3646 66.21366 498.1771z" stroke="none" fill="#353231" fill-rule="evenodd" /><path id="22" transform="matrix(1 0 0 -1 0 612)" d="M63.84061 508.2597C 64.33866 507.6738 64.52177 507.1625 64.52177 506.5414C 64.52177 505.5161 63.96513 504.9462 63.18583 504.9462C 62.95731 504.9462 62.74857 504.9982 62.55961 505.1022C 62.37064 505.2062 62.21903 505.3425 62.10477 505.5109C 61.99052 505.6794 61.90409 505.869 61.8455 506.08C 61.80448 506.2353 61.76493 506.4697 61.72684 506.7831C 61.65067 507.4218 61.55985 507.892 61.45438 508.1938C 61.34599 508.1967 61.27714 508.1982 61.24784 508.1982C 60.92558 508.1982 60.69852 508.1234 60.56669 507.974C 60.38798 507.7719 60.29862 507.4716 60.29862 507.0732C 60.29862 506.329 60.52421 506.0258 61.18632 505.8559L61.18632 505.8559L61.08085 505.0824C 60.74979 505.1527 60.48246 505.2685 60.27885 505.4296C 60.07523 505.5908 59.9185 505.8237 59.80863 506.1283C 59.69877 506.433 59.64384 506.7861 59.64384 507.1874C 59.64384 507.5859 59.69071 507.9096 59.78446 508.1586C 59.87821 508.4077 59.99613 508.5907 60.13822 508.7079C 60.28031 508.8251 60.45975 508.9071 60.67655 508.954C 60.81132 508.9804 61.05448 508.9936 61.40604 508.9936L61.40604 508.9936L62.46073 508.9936C 63.93143 508.9936 64.05888 509.0449 64.4163 509.244L64.4163 509.244L64.4163 508.4179C 64.25224 508.3358 64.06034 508.2831 63.84061 508.2597zM62.07401 508.1938C 62.1912 507.9067 62.29081 507.476 62.37284 506.9018C 62.41972 506.5766 62.47245 506.3466 62.53104 506.2118C 62.58964 506.0771 62.67533 505.9731 62.78812 505.8998C 62.90092 505.8266 63.02616 505.7899 63.16386 505.7899C 63.58573 505.7899 63.90214 506.1151 63.90214 506.7304C 63.90214 507.3398 63.61796 507.8437 63.15507 508.0663C 62.97636 508.1513 62.71268 508.1938 62.36405 508.1938z" stroke="none" fill="#353231" fill-rule="evenodd" /><path id="23" transform="matrix(1 0 0 -1 0 612)" d="M64.4163 510.4072L60.36454 510.4072L60.36454 510.4072L60.36454 509.7085L60.36454 509.7085L59.74931 509.7085L59.74931 509.7085L59.74931 510.4072L59.74931 510.4072L59.25272 510.4072C 58.93925 510.4072 58.70634 510.4351 58.55399 510.4907C 58.14384 510.6431 57.86405 511.0078 57.86405 511.6992C 57.86405 511.9219 57.89042 512.168 57.94315 512.4375L57.94315 512.4375L58.63309 512.3188C 58.6038 512.1548 58.58915 511.9995 58.58915 511.853C 58.58915 511.3726 58.75614 511.1938 59.31864 511.1938L59.31864 511.1938L59.74931 511.1938L59.74931 511.1938L59.74931 512.1035L59.74931 512.1035L60.36454 512.1035L60.36454 512.1035L60.36454 511.1938L60.36454 511.1938L64.4163 511.1938z" stroke="none" fill="#353231" fill-rule="evenodd" /><path id="24" transform="matrix(1 0 0 -1 0 612)" d="M63.70878 514.4473L64.40751 514.5616C 64.45438 514.3389 64.47782 514.1397 64.47782 513.9639C 64.47782 513.6768 64.43241 513.4542 64.34159 513.296C 64.25077 513.1378 64.13139 513.0264 63.98344 512.962C 63.83549 512.8975 63.52421 512.8653 63.0496 512.8653L63.0496 512.8653L60.36454 512.8653L60.36454 512.8653L60.36454 512.2852L60.36454 512.2852L59.74931 512.2852L59.74931 512.2852L59.74931 512.8653L59.74931 512.8653L58.59354 512.8653L58.59354 512.8653L58.11893 513.6519L58.11893 513.6519L59.74931 513.6519L59.74931 513.6519L59.74931 514.4473L59.74931 514.4473L60.36454 514.4473L60.36454 514.4473L60.36454 513.6519L60.36454 513.6519L63.09354 513.6519C 63.31913 513.6519 63.46415 513.6658 63.5286 513.6937C 63.59306 513.7215 63.64433 513.7669 63.68241 513.8299C 63.7205 513.8929 63.73954 513.983 63.73954 514.1002C 63.73954 514.188 63.72929 514.3038 63.70878 514.4473z" stroke="none" fill="#353231" fill-rule="evenodd" /><path id="25" transform="matrix(1 0 0 -1 0 612)" d="M62.91337 518.4171L63.01444 519.2345C 63.96952 518.9767 64.52177 518.2662 64.52177 517.1823C 64.52177 515.817 63.63993 514.9586 62.12235 514.9586C 60.55204 514.9586 59.64384 515.8492 59.64384 517.1383C 59.64384 518.3864 60.533 519.2609 62.07401 519.2609C 62.12089 519.2609 62.1912 519.2594 62.28495 519.2565L62.28495 519.2565L62.28495 515.776C 63.31034 515.8346 63.87138 516.4073 63.87138 517.1866C 63.87138 517.7667 63.58134 518.1769 62.91337 518.4171zM61.63456 515.8199L61.63456 518.4259C 61.24198 518.3907 60.94755 518.2911 60.75126 518.1271C 60.44657 517.8751 60.29423 517.5485 60.29423 517.1471C 60.29423 516.4205 60.82011 515.8727 61.63456 515.8199z" stroke="none" fill="#353231" fill-rule="evenodd" /><path id="26" transform="matrix(1 0 0 -1 0 612)" d="M64.4163 520.2175L59.74931 520.2175L59.74931 520.2175L59.74931 520.9294L59.74931 520.9294L60.45683 520.9294C 59.79472 521.2927 59.64384 521.571 59.64384 521.9401C 59.64384 522.2067 59.7288 522.4777 59.89872 522.7531L59.89872 522.7531L60.63261 522.4807C 60.51835 522.2873 60.46122 522.0939 60.46122 521.9006C 60.46122 521.5549 60.68095 521.2575 61.05009 521.1403C 61.33134 521.0524 61.63895 521.0085 61.97294 521.0085L61.97294 521.0085L64.4163 521.0085z" stroke="none" fill="#353231" fill-rule="evenodd" /><path id="28" transform="matrix(1 0 0 -1 0 612)" d="M63.84061 528.7707C 64.33866 528.1848 64.52177 527.6735 64.52177 527.0524C 64.52177 526.027 63.96513 525.4572 63.18583 525.4572C 62.95731 525.4572 62.74857 525.5092 62.55961 525.6132C 62.37064 525.7172 62.21903 525.8535 62.10477 526.0219C 61.99052 526.1904 61.90409 526.3801 61.8455 526.591C 61.80448 526.7463 61.76493 526.9807 61.72684 527.2941C 61.65067 527.9328 61.55985 528.403 61.45438 528.7048C 61.34599 528.7077 61.27714 528.7092 61.24784 528.7092C 60.92558 528.7092 60.69852 528.6345 60.56669 528.485C 60.38798 528.2829 60.29862 527.9826 60.29862 527.5842C 60.29862 526.84 60.52421 526.5368 61.18632 526.3669L61.18632 526.3669L61.08085 525.5934C 60.74979 525.6638 60.48246 525.7795 60.27885 525.9406C 60.07523 526.1017 59.9185 526.3347 59.80863 526.6393C 59.69877 526.944 59.64384 527.2971 59.64384 527.6984C 59.64384 528.0969 59.69071 528.4206 59.78446 528.6696C 59.87821 528.9186 59.99613 529.1017 60.13822 529.2189C 60.28031 529.3361 60.45975 529.4182 60.67655 529.465C 60.81132 529.4914 61.05448 529.5046 61.40604 529.5046L61.40604 529.5046L62.46073 529.5046C 63.93143 529.5046 64.05888 529.5558 64.4163 529.7551L64.4163 529.7551L64.4163 528.9289C 64.25224 528.8469 64.06034 528.7941 63.84061 528.7707zM62.07401 528.7048C 62.1912 528.4177 62.29081 527.987 62.37284 527.4128C 62.41972 527.0876 62.47245 526.8576 62.53104 526.7228C 62.58964 526.5881 62.67533 526.4841 62.78812 526.4108C 62.90092 526.3376 63.02616 526.301 63.16386 526.301C 63.58573 526.301 63.90214 526.6262 63.90214 527.2414C 63.90214 527.8508 63.61796 528.3547 63.15507 528.5773C 62.97636 528.6623 62.71268 528.7048 62.36405 528.7048z" stroke="none" fill="#353231" fill-rule="evenodd" /><path id="30" transform="matrix(1 0 0 -1 0 612)" d="M64.4163 533.2225L59.74931 533.2225L59.74931 533.2225L59.74931 533.9344L59.74931 533.9344L60.45683 533.9344C 59.79472 534.2977 59.64384 534.576 59.64384 534.9451C 59.64384 535.2117 59.7288 535.4827 59.89872 535.7581L59.89872 535.7581L60.63261 535.4857C 60.51835 535.2923 60.46122 535.0989 60.46122 534.9056C 60.46122 534.5599 60.68095 534.2625 61.05009 534.1453C 61.33134 534.0574 61.63895 534.0135 61.97294 534.0135L61.97294 534.0135L64.4163 534.0135z" stroke="none" fill="#353231" fill-rule="evenodd" /><path id="31" transform="matrix(1 0 0 -1 0 612)" d="M63.84061 539.2737C 64.33866 538.6877 64.52177 538.1765 64.52177 537.5554C 64.52177 536.53 63.96513 535.9602 63.18583 535.9602C 62.95731 535.9602 62.74857 536.0122 62.55961 536.1162C 62.37064 536.2202 62.21903 536.3564 62.10477 536.5249C 61.99052 536.6934 61.90409 536.8831 61.8455 537.094C 61.80448 537.2493 61.76493 537.4836 61.72684 537.7971C 61.65067 538.4358 61.55985 538.906 61.45438 539.2078C 61.34599 539.2107 61.27714 539.2122 61.24784 539.2122C 60.92558 539.2122 60.69852 539.1375 60.56669 538.988C 60.38798 538.7859 60.29862 538.4856 60.29862 538.0872C 60.29862 537.343 60.52421 537.0398 61.18632 536.8699L61.18632 536.8699L61.08085 536.0964C 60.74979 536.1667 60.48246 536.2825 60.27885 536.4436C 60.07523 536.6047 59.9185 536.8376 59.80863 537.1423C 59.69877 537.447 59.64384 537.8 59.64384 538.2014C 59.64384 538.5999 59.69071 538.9236 59.78446 539.1726C 59.87821 539.4216 59.99613 539.6047 60.13822 539.7219C 60.28031 539.8391 60.45975 539.9211 60.67655 539.968C 60.81132 539.9944 61.05448 540.0076 61.40604 540.0076L61.40604 540.0076L62.46073 540.0076C 63.93143 540.0076 64.05888 540.0588 64.4163 540.2581L64.4163 540.2581L64.4163 539.4319C 64.25224 539.3499 64.06034 539.2971 63.84061 539.2737zM62.07401 539.2078C 62.1912 538.9207 62.29081 538.49 62.37284 537.9158C 62.41972 537.5906 62.47245 537.3606 62.53104 537.2258C 62.58964 537.0911 62.67533 536.9871 62.78812 536.9138C 62.90092 536.8406 63.02616 536.804 63.16386 536.804C 63.58573 536.804 63.90214 537.1292 63.90214 537.7444C 63.90214 538.3538 63.61796 538.8577 63.15507 539.0803C 62.97636 539.1653 62.71268 539.2078 62.36405 539.2078z" stroke="none" fill="#353231" fill-rule="evenodd" /><path id="32" transform="matrix(1 0 0 -1 0 612)" d="M58.88358 541.2367L57.97392 541.2367L57.97392 541.2367L57.97392 542.0277L57.97392 542.0277L58.88358 542.0277zM64.4163 541.2367L59.74931 541.2367L59.74931 541.2367L59.74931 542.0277L59.74931 542.0277L64.4163 542.0277z" stroke="none" fill="#353231" fill-rule="evenodd" /><path id="33" transform="matrix(1 0 0 -1 0 612)" d="M64.4163 543.2303L59.74931 543.2303L59.74931 543.2303L59.74931 543.9422L59.74931 543.9422L60.41288 543.9422C 59.90018 544.285 59.64384 544.7801 59.64384 545.4276C 59.64384 545.7088 59.69437 545.9673 59.79545 546.2032C 59.89652 546.439 60.02909 546.6155 60.19315 546.7327C 60.35722 546.8499 60.55204 546.9319 60.77763 546.9788C 60.92411 547.0081 61.18046 547.0228 61.54667 547.0228L61.54667 547.0228L64.4163 547.0228L64.4163 547.0228L64.4163 546.2318L64.4163 546.2318L61.57743 546.2318C 61.25517 546.2318 61.0142 546.201 60.85453 546.1395C 60.69486 546.0779 60.56742 545.9688 60.47221 545.8121C 60.37699 545.6553 60.32938 545.4715 60.32938 545.2606C 60.32938 544.5867 60.67216 544.0213 61.86747 544.0213L61.86747 544.0213L64.4163 544.0213z" stroke="none" fill="#353231" fill-rule="evenodd" /><path id="34" transform="matrix(1 0 0 -1 0 612)" d="M66.21366 548.1991L65.47099 548.1112C 65.51786 548.2841 65.5413 548.4349 65.5413 548.5638C 65.5413 548.9154 65.41825 549.1102 65.20731 549.245C 65.12821 549.2948 64.93192 549.3754 64.61845 549.4867C 64.5745 549.5013 64.51005 549.5248 64.42509 549.557L64.42509 549.557L59.74931 547.786L59.74931 547.786L59.74931 548.6385L59.74931 548.6385L62.45194 549.6097C 62.79472 549.7357 63.15507 549.8485 63.533 549.9481C 63.16972 550.0389 62.81522 550.1473 62.46952 550.2733L62.46952 550.2733L59.74931 551.2709L59.74931 551.2709L59.74931 552.0619L59.74931 552.0619L64.4954 550.2865C 65.00809 550.0961 65.36112 549.9481 65.55448 549.8427C 66.07597 549.5614 66.31034 549.2128 66.31034 548.7089C 66.31034 548.5565 66.27811 548.3866 66.21366 548.1991z" stroke="none" fill="#353231" fill-rule="evenodd" /></g></g></svg>