<svg xmlns="http://www.w3.org/2000/svg" xmlns:xlink="http://www.w3.org/1999/xlink" id="body_7" preserveAspectRatio="xMinYMin meet" viewBox="0 0 1144 816"><defs><clipPath id="1"><path id="" clip-rule="evenodd" transform="matrix(1 0 0 1 0 0)" d="M0 612L0 -0.28302L0 -0.28302L858.898 -0.28302L858.898 -0.28302L858.898 612L858.898 612L0 612z" /></clipPath><clipPath id="2"><path id="" clip-rule="evenodd" transform="matrix(1 0 0 1 0 0)" d="M0 -0.28302L858.898 -0.28302L858.898 -0.28302L858.898 612L858.898 612L0 612z" /></clipPath><clipPath id="3"><path id="" clip-rule="evenodd" transform="matrix(1 0 0 1 0 0)" d="M84.488 555.307L790.866 555.307L790.866 555.307L790.866 56.409L790.866 56.409L84.488 56.409z" /></clipPath></defs><g transform="matrix(1.333333 0 0 1.333333 0 0)"><g clip-path="url(#1)"><g clip-path="url(#2)"><path id="1" transform="matrix(1 0 0 -1 0 612)" d="M65.2581 139.6837L58.0999 139.6837L58.0999 139.6837L58.0999 142.8576C 58.0999 143.4956 58.16419 143.9806 58.29277 144.3126C 58.42135 144.6447 58.6484 144.91 58.97392 145.1085C 59.29944 145.3071 59.65915 145.4064 60.05302 145.4064C 61.06865 145.4064 61.81247 144.7635 62.00127 143.3898C 62.12171 143.6404 62.24052 143.8309 62.35771 143.9611C 62.61162 144.2378 62.929 144.4998 63.30986 144.7472L63.30986 144.7472L65.2581 145.9923L65.2581 145.9923L65.2581 144.8009L65.2581 144.8009L63.76884 143.8537C 63.33916 143.577 63.01038 143.3491 62.78252 143.1701C 62.55465 142.991 62.39515 142.8307 62.304 142.6891C 62.21286 142.5475 62.14938 142.4035 62.11357 142.257C 62.09079 142.1496 62.07939 141.9738 62.07939 141.7296L62.07939 141.7296L62.07939 140.631L62.07939 140.631L65.2581 140.631zM61.25908 140.631L61.25908 142.6671C 61.25908 143.1001 61.21432 143.4386 61.1248 143.6828C 61.03528 143.9269 60.89206 144.1124 60.69511 144.2394C 60.49817 144.3663 60.28415 144.4298 60.05302 144.4298C 59.37594 144.4298 58.89091 143.9578 58.89091 142.8966L58.89091 142.8966L58.89091 140.631z" stroke="none" fill="#353231" fill-rule="evenodd" /><path id="2" transform="matrix(1 0 0 -1 0 612)" d="M65.2581 150.1752L64.49638 150.1752C 65.08232 149.7716 65.37529 149.2231 65.37529 148.5297C 65.37529 148.2237 65.3167 147.9381 65.19951 147.6728C 65.08232 147.4075 64.93502 147.2105 64.75761 147.082C 64.58021 146.9534 64.36292 146.863 64.10576 146.811C 63.93323 146.7751 63.65979 146.7572 63.28545 146.7572L63.28545 146.7572L60.07256 146.7572L60.07256 146.7572L60.07256 147.6362L60.07256 147.6362L62.94853 147.6362C 63.40752 147.6362 63.71676 147.6541 63.87627 147.6899C 64.33851 147.8005 64.61845 148.1781 64.61845 148.7055C 64.61845 148.9692 64.55091 149.2166 64.41582 149.4477C 64.28072 149.6788 64.09681 149.8424 63.86406 149.9384C 63.63131 150.0344 63.29358 150.0824 62.85088 150.0824L62.85088 150.0824L60.07256 150.0824L60.07256 150.0824L60.07256 150.9613L60.07256 150.9613L65.2581 150.9613z" stroke="none" fill="#353231" fill-rule="evenodd" /><path id="3" transform="matrix(1 0 0 -1 0 612)" d="M62.66533 152.0096C 61.70504 152.0096 60.99378 152.2766 60.53154 152.8104C 60.14743 153.2564 59.95537 153.8 59.95537 154.4413C 59.95537 155.8671 60.94495 156.868 62.59209 156.868C 63.2594 156.868 63.78431 156.7679 64.16679 156.5677C 64.54928 156.3675 64.84632 156.0762 65.05791 155.6937C 65.26949 155.3112 65.37529 154.8937 65.37529 154.4413C 65.37529 152.9894 64.41663 152.0096 62.66533 152.0096zM62.66533 152.9129C 63.99345 152.9129 64.65263 153.5624 64.65263 154.4413C 64.65263 155.3137 63.99671 155.9647 62.63603 155.9647C 61.35348 155.9647 60.68291 155.3072 60.68291 154.4413C 60.68291 153.5624 61.3372 152.9129 62.66533 152.9129z" stroke="none" fill="#353231" fill-rule="evenodd" /><path id="4" transform="matrix(1 0 0 -1 0 612)" d="M63.35869 161.2806L63.47099 162.1448C 64.6624 161.956 65.37529 161.1194 65.37529 159.9866C 65.37529 158.5674 64.41663 157.6282 62.68486 157.6282C 62.12497 157.6282 61.63506 157.721 61.21513 157.9065C 60.79521 158.0921 60.48027 158.3745 60.27031 158.7537C 60.06035 159.1329 59.95537 159.5455 59.95537 159.9915C 59.95537 161.1178 60.54782 161.86 61.59599 162.0618L61.59599 162.0618L61.72783 161.2073C 61.03122 161.0446 60.67802 160.6116 60.67802 160.0257C 60.67802 159.1403 61.28675 158.5315 62.66045 158.5315C 64.05367 158.5315 64.65263 159.1175 64.65263 159.9769C 64.65263 160.667 64.23759 161.1569 63.35869 161.2806z" stroke="none" fill="#353231" fill-rule="evenodd" /><path id="5" transform="matrix(1 0 0 -1 0 612)" d="M65.2581 162.8968L58.0999 162.8968L58.0999 162.8968L58.0999 163.7757L58.0999 163.7757L60.66826 163.7757C 60.193 164.1858 59.95537 164.7034 59.95537 165.3284C 59.95537 165.7125 60.03105 166.0462 60.18242 166.3294C 60.33379 166.6126 60.54293 166.8152 60.80986 166.9373C 61.07679 167.0594 61.46416 167.1204 61.97197 167.1204L61.97197 167.1204L65.2581 167.1204L65.2581 167.1204L65.2581 166.2415L65.2581 166.2415L61.97197 166.2415C 61.09306 166.2415 60.7122 165.8444 60.7122 165.1478C 60.7122 164.8873 60.77975 164.6424 60.91484 164.4129C 61.04993 164.1834 61.23304 164.0198 61.46416 163.9222C 61.69528 163.8245 62.01429 163.7757 62.42119 163.7757L62.42119 163.7757L65.2581 163.7757z" stroke="none" fill="#353231" fill-rule="evenodd" /><path id="6" transform="matrix(1 0 0 -1 0 612)" d="M62.66533 168.1296C 61.70504 168.1296 60.99378 168.3966 60.53154 168.9304C 60.14743 169.3764 59.95537 169.92 59.95537 170.5613C 59.95537 171.9871 60.94495 172.988 62.59209 172.988C 63.2594 172.988 63.78431 172.8879 64.16679 172.6877C 64.54928 172.4875 64.84632 172.1962 65.05791 171.8137C 65.26949 171.4312 65.37529 171.0137 65.37529 170.5613C 65.37529 169.1095 64.41663 168.1296 62.66533 168.1296zM62.66533 169.033C 63.99345 169.033 64.65263 169.6824 64.65263 170.5613C 64.65263 171.4337 63.99671 172.0847 62.63603 172.0847C 61.35348 172.0847 60.68291 171.4272 60.68291 170.5613C 60.68291 169.6824 61.3372 169.033 62.66533 169.033z" stroke="none" fill="#353231" fill-rule="evenodd" /><path id="7" transform="matrix(1 0 0 -1 0 612)" d="M65.2581 174.0168L60.07256 174.0168L60.07256 174.0168L60.07256 174.8078L60.07256 174.8078L60.80986 174.8078C 60.2402 175.1887 59.95537 175.7388 59.95537 176.4582C 59.95537 176.7707 60.01152 177.058 60.12383 177.32C 60.23613 177.582 60.38343 177.7782 60.56572 177.9084C 60.74801 178.0386 60.96448 178.1297 61.21513 178.1818C 61.3779 178.2144 61.66272 178.2307 62.06963 178.2307L62.06963 178.2307L65.2581 178.2307L65.2581 178.2307L65.2581 177.3517L65.2581 177.3517L62.10381 177.3517C 61.74573 177.3517 61.47799 177.3176 61.30058 177.2492C 61.12317 177.1808 60.98157 177.0596 60.87578 176.8854C 60.76999 176.7113 60.71709 176.507 60.71709 176.2726C 60.71709 175.5239 61.09795 174.8957 62.42607 174.8957L62.42607 174.8957L65.2581 174.8957z" stroke="none" fill="#353231" fill-rule="evenodd" /><path id="8" transform="matrix(1 0 0 -1 0 612)" d="M65.68779 179.4156L65.81474 180.2701C 66.07841 180.3059 66.27047 180.4052 66.39091 180.568C 66.55367 180.7861 66.63506 181.0839 66.63506 181.4615C 66.63506 182.2753 66.29326 182.6969 65.70732 182.8531C 65.52828 182.8987 65.15231 182.9199 64.57939 182.9166C 65.03187 182.5325 65.2581 182.054 65.2581 181.4811C 65.2581 180.0553 64.07484 179.2399 62.63603 179.2399C 62.14124 179.2399 61.6847 179.3294 61.2664 179.5084C 60.84811 179.6875 60.52503 179.9471 60.29716 180.2872C 60.0693 180.6274 59.95537 181.027 59.95537 181.486C 59.95537 182.0979 60.20276 182.6025 60.69756 182.9996L60.69756 182.9996L60.07256 182.9996L60.07256 182.9996L60.07256 183.8102L60.07256 183.8102L64.55498 183.8102C 65.36227 183.8102 65.93437 183.728 66.27129 183.5636C 66.6082 183.3992 66.87431 183.1388 67.06963 182.7823C 67.26494 182.4259 67.36259 181.9873 67.36259 181.4664C 67.36259 180.2294 66.80758 179.3896 65.68779 179.4156zM62.57256 180.1432C 63.93323 180.1432 64.53056 180.7503 64.53056 181.5641C 64.53056 182.3714 63.92998 182.9899 62.60185 182.9899C 61.33232 182.9899 60.68291 182.3437 60.68291 181.5494C 60.68291 180.7682 61.32256 180.1432 62.57256 180.1432z" stroke="none" fill="#353231" fill-rule="evenodd" /></g><path id="9" transform="matrix(1 0 0 -1 0 612)" d="M84.488 56.693L790.866 56.693L790.866 555.591L84.488 555.591z" stroke="none" fill="#E6E6E6" fill-rule="nonzero" /><g clip-path="url(#3)"><g transform="matrix(0.2399342 0 0 0.23997 83.47013 56.40942)"><g transform="matrix(1 0 0 1 0 0)"><image x="0" y="0" xlink:href="img_18.png" width="2953" height="2079" /></g></g></g><path id="11" transform="matrix(1 0 0 -1 0 612)" d="M62.34647 441.546L62.27616 442.3502C 62.59843 442.3883 62.86283 442.4769 63.06937 442.6161C 63.27592 442.7552 63.44291 442.9713 63.57035 443.2643C 63.69779 443.5572 63.76151 443.8868 63.76151 444.253C 63.76151 444.5782 63.71317 444.8653 63.61649 445.1143C 63.51981 445.3634 63.38725 445.5487 63.21879 445.6703C 63.05033 445.7918 62.86649 445.8526 62.66727 445.8526C 62.26298 445.8526 61.96268 445.6358 61.75761 445.0968C 61.62284 444.7511 61.29325 443.1808 61.0413 442.7061C 60.71903 442.0909 60.23124 441.7921 59.63944 441.7921C 59.31425 441.7921 59.01029 441.8844 58.72758 442.0689C 58.44486 442.2535 58.23026 442.523 58.08378 442.8775C 57.93729 443.232 57.86405 443.6261 57.86405 444.0597C 57.86405 444.5372 57.94096 444.9583 58.09476 445.3231C 58.24857 445.6878 58.47489 445.9684 58.77372 446.1646C 59.07255 446.3609 59.41093 446.4664 59.78886 446.481L59.78886 446.481L59.85038 445.6637C 59.03593 445.5758 58.61552 445.0851 58.61552 444.0948C 58.61552 443.0636 59.04911 442.6139 59.58231 442.6139C 59.81376 442.6139 60.00419 442.6974 60.1536 442.8643C 60.45243 443.1925 60.78934 445.0602 61.02372 445.5758C 61.36942 446.3258 61.90556 446.6744 62.59696 446.6744C 62.93974 446.6744 63.26273 446.5763 63.56596 446.38C 63.86918 446.1837 64.10502 445.9017 64.27348 445.534C 64.44193 445.1664 64.52616 444.7525 64.52616 444.2926C 64.52616 443.7096 64.4412 443.221 64.27128 442.827C 64.10136 442.433 63.84574 442.1239 63.50443 441.8997C 63.16312 441.6756 62.77714 441.5577 62.34647 441.546z" stroke="none" fill="#353332" fill-rule="evenodd" /><path id="12" transform="matrix(1 0 0 -1 0 612)" d="M63.70878 449.465L64.40751 449.5793C 64.45438 449.3566 64.47782 449.1574 64.47782 448.9816C 64.47782 448.6945 64.43241 448.4718 64.34159 448.3136C 64.25077 448.1554 64.13139 448.0441 63.98344 447.9796C 63.83549 447.9152 63.52421 447.883 63.0496 447.883L63.0496 447.883L60.36454 447.883L60.36454 447.883L60.36454 447.3029L60.36454 447.3029L59.74931 447.3029L59.74931 447.3029L59.74931 447.883L59.74931 447.883L58.59354 447.883L58.59354 447.883L58.11893 448.6696L58.11893 448.6696L59.74931 448.6696L59.74931 448.6696L59.74931 449.465L59.74931 449.465L60.36454 449.465L60.36454 449.465L60.36454 448.6696L60.36454 448.6696L63.09354 448.6696C 63.31913 448.6696 63.46415 448.6835 63.5286 448.7113C 63.59306 448.7392 63.64433 448.7846 63.68241 448.8476C 63.7205 448.9106 63.73954 449.0006 63.73954 449.1178C 63.73954 449.2057 63.72929 449.3214 63.70878 449.465z" stroke="none" fill="#353332" fill-rule="evenodd" /><path id="13" transform="matrix(1 0 0 -1 0 612)" d="M63.84061 453.2854C 64.33866 452.6994 64.52177 452.1882 64.52177 451.5671C 64.52177 450.5417 63.96513 449.9719 63.18583 449.9719C 62.95731 449.9719 62.74857 450.0239 62.55961 450.1279C 62.37064 450.2319 62.21903 450.3681 62.10477 450.5366C 61.99052 450.705 61.90409 450.8947 61.8455 451.1057C 61.80448 451.261 61.76493 451.4953 61.72684 451.8088C 61.65067 452.4475 61.55985 452.9177 61.45438 453.2195C 61.34599 453.2224 61.27714 453.2238 61.24784 453.2238C 60.92558 453.2238 60.69852 453.1491 60.56669 452.9997C 60.38798 452.7976 60.29862 452.4973 60.29862 452.0988C 60.29862 451.3547 60.52421 451.0515 61.18632 450.8816L61.18632 450.8816L61.08085 450.1081C 60.74979 450.1784 60.48246 450.2942 60.27885 450.4553C 60.07523 450.6164 59.9185 450.8493 59.80863 451.154C 59.69877 451.4587 59.64384 451.8117 59.64384 452.2131C 59.64384 452.6115 59.69071 452.9353 59.78446 453.1843C 59.87821 453.4333 59.99613 453.6164 60.13822 453.7336C 60.28031 453.8508 60.45975 453.9328 60.67655 453.9797C 60.81132 454.0061 61.05448 454.0193 61.40604 454.0193L61.40604 454.0193L62.46073 454.0193C 63.93143 454.0193 64.05888 454.0705 64.4163 454.2697L64.4163 454.2697L64.4163 453.4436C 64.25224 453.3615 64.06034 453.3088 63.84061 453.2854zM62.07401 453.2195C 62.1912 452.9323 62.29081 452.5017 62.37284 451.9275C 62.41972 451.6023 62.47245 451.3723 62.53104 451.2375C 62.58964 451.1028 62.67533 450.9987 62.78812 450.9255C 62.90092 450.8523 63.02616 450.8156 63.16386 450.8156C 63.58573 450.8156 63.90214 451.1408 63.90214 451.7561C 63.90214 452.3654 63.61796 452.8694 63.15507 453.092C 62.97636 453.177 62.71268 453.2195 62.36405 453.2195z" stroke="none" fill="#353332" fill-rule="evenodd" /><path id="14" transform="matrix(1 0 0 -1 0 612)" d="M64.4163 455.2352L59.74931 455.2352L59.74931 455.2352L59.74931 455.9471L59.74931 455.9471L60.45683 455.9471C 59.79472 456.3104 59.64384 456.5887 59.64384 456.9578C 59.64384 457.2244 59.7288 457.4954 59.89872 457.7708L59.89872 457.7708L60.63261 457.4984C 60.51835 457.305 60.46122 457.1116 60.46122 456.9183C 60.46122 456.5726 60.68095 456.2752 61.05009 456.158C 61.33134 456.0701 61.63895 456.0262 61.97294 456.0262L61.97294 456.0262L64.4163 456.0262z" stroke="none" fill="#353332" fill-rule="evenodd" /><path id="15" transform="matrix(1 0 0 -1 0 612)" d="M64.4163 458.2322L59.74931 458.2322L59.74931 458.2322L59.74931 458.9441L59.74931 458.9441L60.45683 458.9441C 59.79472 459.3074 59.64384 459.5857 59.64384 459.9548C 59.64384 460.2214 59.7288 460.4924 59.89872 460.7678L59.89872 460.7678L60.63261 460.4954C 60.51835 460.302 60.46122 460.1086 60.46122 459.9153C 60.46122 459.5696 60.68095 459.2722 61.05009 459.155C 61.33134 459.0671 61.63895 459.0232 61.97294 459.0232L61.97294 459.0232L64.4163 459.0232z" stroke="none" fill="#353332" fill-rule="evenodd" /><path id="16" transform="matrix(1 0 0 -1 0 612)" d="M66.21366 461.2028L65.47099 461.1149C 65.51786 461.2878 65.5413 461.4386 65.5413 461.5675C 65.5413 461.9191 65.41825 462.1139 65.20731 462.2487C 65.12821 462.2985 64.93192 462.3791 64.61845 462.4904C 64.5745 462.505 64.51005 462.5285 64.42509 462.5607L64.42509 462.5607L59.74931 460.7897L59.74931 460.7897L59.74931 461.6422L59.74931 461.6422L62.45194 462.6134C 62.79472 462.7394 63.15507 462.8522 63.533 462.9518C 63.16972 463.0426 62.81522 463.151 62.46952 463.277L62.46952 463.277L59.74931 464.2746L59.74931 464.2746L59.74931 465.0656L59.74931 465.0656L64.4954 463.2902C 65.00809 463.0998 65.36112 462.9518 65.55448 462.8463C 66.07597 462.5651 66.31034 462.2165 66.31034 461.7126C 66.31034 461.5602 66.27811 461.3903 66.21366 461.2028z" stroke="none" fill="#353332" fill-rule="evenodd" /><path id="18" transform="matrix(1 0 0 -1 0 612)" d="M63.02323 467.9236L62.90018 468.7058C 63.52714 468.7937 63.87138 469.1936 63.87138 469.9143C 63.87138 470.6408 63.52714 470.9865 63.1287 470.9865C 62.94999 470.9865 62.80936 470.9089 62.70683 470.7536C 62.63651 470.6452 62.54716 470.3757 62.43876 469.945C 62.29227 469.365 62.16557 468.9629 62.05863 468.7387C 61.9517 468.5146 61.80375 468.3447 61.61478 468.229C 61.42582 468.1133 61.21708 468.0554 60.98856 468.0554C 60.57255 468.0554 60.20341 468.259 59.96903 468.5871C 59.78739 468.8332 59.64384 469.2873 59.64384 469.7737C 59.64384 470.1399 59.69657 470.4614 59.80204 470.7383C 59.90751 471.0151 60.05033 471.2195 60.23051 471.3513C 60.41068 471.4831 60.65165 471.5739 60.95341 471.6237L60.95341 471.6237L61.05888 470.8503C 60.57841 470.78 60.29423 470.446 60.29423 469.8308C 60.29423 469.1042 60.57401 468.82 60.89628 468.82C 60.99882 468.82 61.0911 468.8523 61.17313 468.9167C 61.25809 468.9812 61.32841 469.0822 61.38407 469.2199C 61.41337 469.299 61.48075 469.532 61.58622 469.9187C 61.73563 470.4782 61.85795 470.8686 61.95316 471.0898C 62.04838 471.311 62.18681 471.4846 62.36845 471.6106C 62.55009 471.7365 62.77567 471.7995 63.0452 471.7995C 63.30888 471.7995 63.55717 471.7226 63.79008 471.5688C 64.02299 471.415 64.20316 471.1931 64.3306 470.903C 64.45805 470.613 64.52177 470.2849 64.52177 469.9187C 64.52177 468.7058 64.01347 468.0993 63.02323 467.9236z" stroke="none" fill="#353332" fill-rule="evenodd" /><path id="19" transform="matrix(1 0 0 -1 0 612)" d="M64.4163 472.7444L57.97392 472.7444L57.97392 472.7444L57.97392 473.5354L57.97392 473.5354L61.64774 473.5354L61.64774 473.5354L59.74931 475.4074L59.74931 475.4074L59.74931 476.4314L59.74931 476.4314L61.48075 474.6472L61.48075 474.6472L64.4163 476.6115L64.4163 476.6115L64.4163 475.636L64.4163 475.636L62.03007 474.0935L62.03007 474.0935L62.5662 473.5354L62.5662 473.5354L64.4163 473.5354z" stroke="none" fill="#353332" fill-rule="evenodd" /><path id="20" transform="matrix(1 0 0 -1 0 612)" d="M66.21366 477.2048L65.47099 477.1169C 65.51786 477.2898 65.5413 477.4406 65.5413 477.5695C 65.5413 477.9211 65.41825 478.1159 65.20731 478.2507C 65.12821 478.3005 64.93192 478.3811 64.61845 478.4924C 64.5745 478.507 64.51005 478.5305 64.42509 478.5627L64.42509 478.5627L59.74931 476.7917L59.74931 476.7917L59.74931 477.6443L59.74931 477.6443L62.45194 478.6154C 62.79472 478.7414 63.15507 478.8542 63.533 478.9538C 63.16972 479.0446 62.81522 479.153 62.46952 479.279L62.46952 479.279L59.74931 480.2766L59.74931 480.2766L59.74931 481.0676L59.74931 481.0676L64.4954 479.2922C 65.00809 479.1018 65.36112 478.9538 65.55448 478.8484C 66.07597 478.5671 66.31034 478.2185 66.31034 477.7146C 66.31034 477.5622 66.27811 477.3923 66.21366 477.2048z" stroke="none" fill="#353332" fill-rule="evenodd" /><path id="22" transform="matrix(1 0 0 -1 0 612)" d="M63.84061 487.2874C 64.33866 486.7014 64.52177 486.1902 64.52177 485.5691C 64.52177 484.5437 63.96513 483.9739 63.18583 483.9739C 62.95731 483.9739 62.74857 484.0259 62.55961 484.1299C 62.37064 484.2339 62.21903 484.3701 62.10477 484.5386C 61.99052 484.707 61.90409 484.8967 61.8455 485.1077C 61.80448 485.2629 61.76493 485.4973 61.72684 485.8108C 61.65067 486.4495 61.55985 486.9197 61.45438 487.2214C 61.34599 487.2244 61.27714 487.2258 61.24784 487.2258C 60.92558 487.2258 60.69852 487.1511 60.56669 487.0017C 60.38798 486.7996 60.29862 486.4993 60.29862 486.1008C 60.29862 485.3567 60.52421 485.0535 61.18632 484.8835L61.18632 484.8835L61.08085 484.1101C 60.74979 484.1804 60.48246 484.2961 60.27885 484.4573C 60.07523 484.6184 59.9185 484.8513 59.80863 485.156C 59.69877 485.4607 59.64384 485.8137 59.64384 486.2151C 59.64384 486.6135 59.69071 486.9373 59.78446 487.1863C 59.87821 487.4353 59.99613 487.6184 60.13822 487.7356C 60.28031 487.8528 60.45975 487.9348 60.67655 487.9817C 60.81132 488.0081 61.05448 488.0212 61.40604 488.0212L61.40604 488.0212L62.46073 488.0212C 63.93143 488.0212 64.05888 488.0725 64.4163 488.2717L64.4163 488.2717L64.4163 487.4456C 64.25224 487.3635 64.06034 487.3108 63.84061 487.2874zM62.07401 487.2214C 62.1912 486.9343 62.29081 486.5037 62.37284 485.9294C 62.41972 485.6042 62.47245 485.3743 62.53104 485.2395C 62.58964 485.1047 62.67533 485.0007 62.78812 484.9275C 62.90092 484.8542 63.02616 484.8176 63.16386 484.8176C 63.58573 484.8176 63.90214 485.1428 63.90214 485.7581C 63.90214 486.3674 63.61796 486.8713 63.15507 487.094C 62.97636 487.179 62.71268 487.2214 62.36405 487.2214z" stroke="none" fill="#353332" fill-rule="evenodd" /><path id="23" transform="matrix(1 0 0 -1 0 612)" d="M64.4163 489.4349L60.36454 489.4349L60.36454 489.4349L60.36454 488.7362L60.36454 488.7362L59.74931 488.7362L59.74931 488.7362L59.74931 489.4349L59.74931 489.4349L59.25272 489.4349C 58.93925 489.4349 58.70634 489.4627 58.55399 489.5184C 58.14384 489.6708 57.86405 490.0355 57.86405 490.7269C 57.86405 490.9496 57.89042 491.1957 57.94315 491.4652L57.94315 491.4652L58.63309 491.3465C 58.6038 491.1825 58.58915 491.0272 58.58915 490.8807C 58.58915 490.4003 58.75614 490.2215 59.31864 490.2215L59.31864 490.2215L59.74931 490.2215L59.74931 490.2215L59.74931 491.1312L59.74931 491.1312L60.36454 491.1312L60.36454 491.1312L60.36454 490.2215L60.36454 490.2215L64.4163 490.2215z" stroke="none" fill="#353332" fill-rule="evenodd" /><path id="24" transform="matrix(1 0 0 -1 0 612)" d="M63.70878 493.475L64.40751 493.5893C 64.45438 493.3666 64.47782 493.1674 64.47782 492.9916C 64.47782 492.7045 64.43241 492.4818 64.34159 492.3236C 64.25077 492.1654 64.13139 492.0541 63.98344 491.9897C 63.83549 491.9252 63.52421 491.893 63.0496 491.893L63.0496 491.893L60.36454 491.893L60.36454 491.893L60.36454 491.3129L60.36454 491.3129L59.74931 491.3129L59.74931 491.3129L59.74931 491.893L59.74931 491.893L58.59354 491.893L58.59354 491.893L58.11893 492.6796L58.11893 492.6796L59.74931 492.6796L59.74931 492.6796L59.74931 493.475L59.74931 493.475L60.36454 493.475L60.36454 493.475L60.36454 492.6796L60.36454 492.6796L63.09354 492.6796C 63.31913 492.6796 63.46415 492.6935 63.5286 492.7213C 63.59306 492.7492 63.64433 492.7946 63.68241 492.8576C 63.7205 492.9206 63.73954 493.0107 63.73954 493.1278C 63.73954 493.2157 63.72929 493.3315 63.70878 493.475z" stroke="none" fill="#353332" fill-rule="evenodd" /><path id="25" transform="matrix(1 0 0 -1 0 612)" d="M62.91337 497.4448L63.01444 498.2621C 63.96952 498.0043 64.52177 497.2939 64.52177 496.2099C 64.52177 494.8447 63.63993 493.9863 62.12235 493.9863C 60.55204 493.9863 59.64384 494.8769 59.64384 496.166C 59.64384 497.414 60.533 498.2885 62.07401 498.2885C 62.12089 498.2885 62.1912 498.2871 62.28495 498.2841L62.28495 498.2841L62.28495 494.8036C 63.31034 494.8622 63.87138 495.435 63.87138 496.2143C 63.87138 496.7944 63.58134 497.2045 62.91337 497.4448zM61.63456 494.8476L61.63456 497.4536C 61.24198 497.4184 60.94755 497.3188 60.75126 497.1547C 60.44657 496.9028 60.29423 496.5761 60.29423 496.1747C 60.29423 495.4482 60.82011 494.9003 61.63456 494.8476z" stroke="none" fill="#353332" fill-rule="evenodd" /><path id="26" transform="matrix(1 0 0 -1 0 612)" d="M64.4163 499.2452L59.74931 499.2452L59.74931 499.2452L59.74931 499.9571L59.74931 499.9571L60.45683 499.9571C 59.79472 500.3204 59.64384 500.5987 59.64384 500.9678C 59.64384 501.2344 59.7288 501.5054 59.89872 501.7808L59.89872 501.7808L60.63261 501.5084C 60.51835 501.315 60.46122 501.1216 60.46122 500.9283C 60.46122 500.5826 60.68095 500.2852 61.05009 500.168C 61.33134 500.0801 61.63895 500.0362 61.97294 500.0362L61.97294 500.0362L64.4163 500.0362z" stroke="none" fill="#353332" fill-rule="evenodd" /><path id="28" transform="matrix(1 0 0 -1 0 612)" d="M63.84061 507.7984C 64.33866 507.2124 64.52177 506.7012 64.52177 506.0801C 64.52177 505.0547 63.96513 504.4849 63.18583 504.4849C 62.95731 504.4849 62.74857 504.5369 62.55961 504.6409C 62.37064 504.7449 62.21903 504.8811 62.10477 505.0496C 61.99052 505.218 61.90409 505.4077 61.8455 505.6187C 61.80448 505.774 61.76493 506.0083 61.72684 506.3218C 61.65067 506.9605 61.55985 507.4307 61.45438 507.7325C 61.34599 507.7354 61.27714 507.7368 61.24784 507.7368C 60.92558 507.7368 60.69852 507.6621 60.56669 507.5127C 60.38798 507.3106 60.29862 507.0103 60.29862 506.6118C 60.29862 505.8677 60.52421 505.5645 61.18632 505.3946L61.18632 505.3946L61.08085 504.6211C 60.74979 504.6914 60.48246 504.8072 60.27885 504.9683C 60.07523 505.1294 59.9185 505.3623 59.80863 505.667C 59.69877 505.9717 59.64384 506.3247 59.64384 506.7261C 59.64384 507.1245 59.69071 507.4483 59.78446 507.6973C 59.87821 507.9463 59.99613 508.1294 60.13822 508.2466C 60.28031 508.3638 60.45975 508.4458 60.67655 508.4927C 60.81132 508.5191 61.05448 508.5323 61.40604 508.5323L61.40604 508.5323L62.46073 508.5323C 63.93143 508.5323 64.05888 508.5835 64.4163 508.7827L64.4163 508.7827L64.4163 507.9566C 64.25224 507.8745 64.06034 507.8218 63.84061 507.7984zM62.07401 507.7325C 62.1912 507.4453 62.29081 507.0147 62.37284 506.4405C 62.41972 506.1153 62.47245 505.8853 62.53104 505.7505C 62.58964 505.6158 62.67533 505.5117 62.78812 505.4385C 62.90092 505.3653 63.02616 505.3286 63.16386 505.3286C 63.58573 505.3286 63.90214 505.6538 63.90214 506.2691C 63.90214 506.8784 63.61796 507.3824 63.15507 507.605C 62.97636 507.69 62.71268 507.7325 62.36405 507.7325z" stroke="none" fill="#353332" fill-rule="evenodd" /><path id="30" transform="matrix(1 0 0 -1 0 612)" d="M64.4163 512.2502L59.74931 512.2502L59.74931 512.2502L59.74931 512.9621L59.74931 512.9621L60.45683 512.9621C 59.79472 513.3254 59.64384 513.6037 59.64384 513.9728C 59.64384 514.2394 59.7288 514.5104 59.89872 514.7858L59.89872 514.7858L60.63261 514.5134C 60.51835 514.32 60.46122 514.1266 60.46122 513.9333C 60.46122 513.5876 60.68095 513.2902 61.05009 513.173C 61.33134 513.0851 61.63895 513.0412 61.97294 513.0412L61.97294 513.0412L64.4163 513.0412z" stroke="none" fill="#353332" fill-rule="evenodd" /><path id="31" transform="matrix(1 0 0 -1 0 612)" d="M63.84061 518.3014C 64.33866 517.7155 64.52177 517.2042 64.52177 516.5831C 64.52177 515.5577 63.96513 514.9879 63.18583 514.9879C 62.95731 514.9879 62.74857 515.0399 62.55961 515.1439C 62.37064 515.2479 62.21903 515.3842 62.10477 515.5526C 61.99052 515.7211 61.90409 515.9108 61.8455 516.1217C 61.80448 516.277 61.76493 516.5114 61.72684 516.8248C 61.65067 517.4635 61.55985 517.9337 61.45438 518.2355C 61.34599 518.2384 61.27714 518.2399 61.24784 518.2399C 60.92558 518.2399 60.69852 518.1652 60.56669 518.0157C 60.38798 517.8136 60.29862 517.5133 60.29862 517.1149C 60.29862 516.3707 60.52421 516.0675 61.18632 515.8976L61.18632 515.8976L61.08085 515.1241C 60.74979 515.1945 60.48246 515.3102 60.27885 515.4713C 60.07523 515.6324 59.9185 515.8654 59.80863 516.17C 59.69877 516.4747 59.64384 516.8278 59.64384 517.2291C 59.64384 517.6276 59.69071 517.9513 59.78446 518.2003C 59.87821 518.4493 59.99613 518.6324 60.13822 518.7496C 60.28031 518.8668 60.45975 518.9489 60.67655 518.9957C 60.81132 519.0221 61.05448 519.0353 61.40604 519.0353L61.40604 519.0353L62.46073 519.0353C 63.93143 519.0353 64.05888 519.0865 64.4163 519.2858L64.4163 519.2858L64.4163 518.4596C 64.25224 518.3776 64.06034 518.3248 63.84061 518.3014zM62.07401 518.2355C 62.1912 517.9484 62.29081 517.5177 62.37284 516.9435C 62.41972 516.6183 62.47245 516.3883 62.53104 516.2535C 62.58964 516.1188 62.67533 516.0148 62.78812 515.9415C 62.90092 515.8683 63.02616 515.8317 63.16386 515.8317C 63.58573 515.8317 63.90214 516.1569 63.90214 516.7721C 63.90214 517.3815 63.61796 517.8854 63.15507 518.108C 62.97636 518.193 62.71268 518.2355 62.36405 518.2355z" stroke="none" fill="#353332" fill-rule="evenodd" /><path id="32" transform="matrix(1 0 0 -1 0 612)" d="M58.88358 520.2643L57.97392 520.2643L57.97392 520.2643L57.97392 521.0554L57.97392 521.0554L58.88358 521.0554zM64.4163 520.2643L59.74931 520.2643L59.74931 520.2643L59.74931 521.0554L59.74931 521.0554L64.4163 521.0554z" stroke="none" fill="#353332" fill-rule="evenodd" /><path id="33" transform="matrix(1 0 0 -1 0 612)" d="M64.4163 522.2579L59.74931 522.2579L59.74931 522.2579L59.74931 522.9698L59.74931 522.9698L60.41288 522.9698C 59.90018 523.3126 59.64384 523.8077 59.64384 524.4552C 59.64384 524.7365 59.69437 524.995 59.79545 525.2308C 59.89652 525.4667 60.02909 525.6432 60.19315 525.7604C 60.35722 525.8776 60.55204 525.9596 60.77763 526.0065C 60.92411 526.0358 61.18046 526.0504 61.54667 526.0504L61.54667 526.0504L64.4163 526.0504L64.4163 526.0504L64.4163 525.2594L64.4163 525.2594L61.57743 525.2594C 61.25517 525.2594 61.0142 525.2286 60.85453 525.1671C 60.69486 525.1056 60.56742 524.9965 60.47221 524.8397C 60.37699 524.683 60.32938 524.4991 60.32938 524.2882C 60.32938 523.6144 60.67216 523.049 61.86747 523.049L61.86747 523.049L64.4163 523.049z" stroke="none" fill="#353332" fill-rule="evenodd" /><path id="34" transform="matrix(1 0 0 -1 0 612)" d="M66.21366 527.2268L65.47099 527.1389C 65.51786 527.3118 65.5413 527.4626 65.5413 527.5916C 65.5413 527.9431 65.41825 528.1379 65.20731 528.2727C 65.12821 528.3225 64.93192 528.4031 64.61845 528.5144C 64.5745 528.5291 64.51005 528.5525 64.42509 528.5847L64.42509 528.5847L59.74931 526.8137L59.74931 526.8137L59.74931 527.6663L59.74931 527.6663L62.45194 528.6375C 62.79472 528.7634 63.15507 528.8762 63.533 528.9758C 63.16972 529.0667 62.81522 529.175 62.46952 529.301L62.46952 529.301L59.74931 530.2986L59.74931 530.2986L59.74931 531.0896L59.74931 531.0896L64.4954 529.3142C 65.00809 529.1238 65.36112 528.9758 65.55448 528.8704C 66.07597 528.5891 66.31034 528.2405 66.31034 527.7366C 66.31034 527.5842 66.27811 527.4143 66.21366 527.2268z" stroke="none" fill="#353332" fill-rule="evenodd" /><path id="36" transform="matrix(1 0 0 -1 0 612)" d="M64.4163 534.264L59.74931 534.264L59.74931 534.264L59.74931 534.9759L59.74931 534.9759L60.41288 534.9759C 59.90018 535.3187 59.64384 535.8138 59.64384 536.4612C 59.64384 536.7425 59.69437 537.001 59.79545 537.2369C 59.89652 537.4727 60.02909 537.6492 60.19315 537.7664C 60.35722 537.8836 60.55204 537.9656 60.77763 538.0125C 60.92411 538.0418 61.18046 538.0565 61.54667 538.0565L61.54667 538.0565L64.4163 538.0565L64.4163 538.0565L64.4163 537.2654L64.4163 537.2654L61.57743 537.2654C 61.25517 537.2654 61.0142 537.2347 60.85453 537.1732C 60.69486 537.1116 60.56742 537.0025 60.47221 536.8458C 60.37699 536.689 60.32938 536.5052 60.32938 536.2943C 60.32938 535.6204 60.67216 535.055 61.86747 535.055L61.86747 535.055L64.4163 535.055z" stroke="none" fill="#353332" fill-rule="evenodd" /><path id="37" transform="matrix(1 0 0 -1 0 612)" d="M58.88358 539.2723L57.97392 539.2723L57.97392 539.2723L57.97392 540.0634L57.97392 540.0634L58.88358 540.0634zM64.4163 539.2723L59.74931 539.2723L59.74931 539.2723L59.74931 540.0634L59.74931 540.0634L64.4163 540.0634z" stroke="none" fill="#353332" fill-rule="evenodd" /><path id="38" transform="matrix(1 0 0 -1 0 612)" d="M64.80302 541.1209L64.91727 541.89C 65.15458 541.9222 65.32743 542.0115 65.43583 542.158C 65.58231 542.3543 65.65556 542.6224 65.65556 542.9622C 65.65556 543.6946 65.34794 544.074 64.82059 544.2147C 64.65946 544.2557 64.32108 544.2747 63.80546 544.2718C 64.21268 543.9261 64.4163 543.4955 64.4163 542.9798C 64.4163 541.6966 63.35136 540.9627 62.05643 540.9627C 61.61112 540.9627 61.20023 541.0433 60.82377 541.2044C 60.4473 541.3655 60.15653 541.5992 59.95145 541.9053C 59.74638 542.2115 59.64384 542.5711 59.64384 542.9842C 59.64384 543.535 59.86649 543.9891 60.31181 544.3465L60.31181 544.3465L59.74931 544.3465L59.74931 544.3465L59.74931 545.076L59.74931 545.076L63.78349 545.076C 64.51005 545.076 65.02494 545.002 65.32816 544.8541C 65.63139 544.7062 65.87089 544.4717 66.04667 544.1509C 66.22245 543.8301 66.31034 543.4354 66.31034 542.9666C 66.31034 541.8533 65.81083 541.0975 64.80302 541.1209zM61.99931 541.7757C 63.22392 541.7757 63.76151 542.3221 63.76151 543.0545C 63.76151 543.7811 63.22099 544.3377 62.02567 544.3377C 60.88309 544.3377 60.29862 543.7562 60.29862 543.0413C 60.29862 542.3382 60.87431 541.7757 61.99931 541.7757z" stroke="none" fill="#353332" fill-rule="evenodd" /><path id="39" transform="matrix(1 0 0 -1 0 612)" d="M64.4163 546.27L57.97392 546.27L57.97392 546.27L57.97392 547.061L57.97392 547.061L60.28544 547.061C 59.8577 547.4301 59.64384 547.8959 59.64384 548.4584C 59.64384 548.8041 59.71195 549.1044 59.84818 549.3593C 59.98441 549.6142 60.17265 549.7966 60.41288 549.9064C 60.65311 550.0163 61.00175 550.0712 61.45878 550.0712L61.45878 550.0712L64.4163 550.0712L64.4163 550.0712L64.4163 549.2802L64.4163 549.2802L61.45878 549.2802C 60.66776 549.2802 60.32499 548.9228 60.32499 548.2958C 60.32499 548.0615 60.38578 547.841 60.50736 547.6345C 60.62894 547.4279 60.79374 547.2807 61.00175 547.1928C 61.20975 547.1049 61.49686 547.061 61.86308 547.061L61.86308 547.061L64.4163 547.061z" stroke="none" fill="#353332" fill-rule="evenodd" /><path id="738" transform="matrix(1 0 0 -1 0 612)" d="M87.307 395.488L200.055 395.488L200.055 487.889L87.307 487.889z" stroke="none" fill="#FFFEFE" fill-rule="nonzero" /><g transform="matrix(0.2396002 0 0 0.2393823 92.6463 124.1104)"><g transform="matrix(1 0 0 1 0 0)"><image x="0" y="0" xlink:href="img_19.png" width="426" height="386" /></g></g><path id="740" transform="matrix(1 0 0 -1 0 612)" d="M87.307 395.488L200.055 395.488L200.055 395.488L200.055 487.889L200.055 487.889L87.307 487.889z" stroke="#FFFEFE" stroke-width="0.283" fill="none" /></g></g></svg>