<svg xmlns="http://www.w3.org/2000/svg" xmlns:xlink="http://www.w3.org/1999/xlink" id="body_5" preserveAspectRatio="xMinYMin meet" viewBox="0 0 1144 816"><defs><clipPath id="1"><path id="" clip-rule="evenodd" transform="matrix(1 0 0 1 0 0)" d="M0 612L0 -0.28302L0 -0.28302L858.898 -0.28302L858.898 -0.28302L858.898 612L858.898 612L0 612z" /></clipPath><clipPath id="2"><path id="" clip-rule="evenodd" transform="matrix(1 0 0 1 0 0)" d="M0 -0.28302L858.898 -0.28302L858.898 -0.28302L858.898 612L858.898 612L0 612z" /></clipPath><clipPath id="3"><path id="" clip-rule="evenodd" transform="matrix(1 0 0 1 0 0)" d="M160.052 556.016L790.157 556.016L790.157 556.016L790.157 57.11798L790.157 57.11798L160.052 57.11798z" /></clipPath><clipPath id="4"><path id="" clip-rule="evenodd" transform="matrix(1 0 0 1 0 0)" d="M271.601 268.725L353.166 268.725L353.166 268.725L353.166 170.362L353.166 170.362L271.601 170.362z" /></clipPath></defs><g transform="matrix(1.333333 0 0 1.333333 0 0)"><g clip-path="url(#1)"><g clip-path="url(#2)"><path id="1" transform="matrix(1 0 0 -1 0 612)" d="M65.2581 139.6838L58.0999 139.6838L58.0999 139.6838L58.0999 142.8577C 58.0999 143.4957 58.16419 143.9807 58.29277 144.3127C 58.42135 144.6448 58.6484 144.9101 58.97392 145.1086C 59.29944 145.3072 59.65915 145.4065 60.05302 145.4065C 61.06865 145.4065 61.81247 144.7636 62.00127 143.3899C 62.12171 143.6405 62.24052 143.831 62.35771 143.9612C 62.61162 144.2379 62.929 144.4999 63.30986 144.7473L63.30986 144.7473L65.2581 145.9924L65.2581 145.9924L65.2581 144.801L65.2581 144.801L63.76884 143.8538C 63.33916 143.5771 63.01038 143.3492 62.78252 143.1702C 62.55465 142.9911 62.39515 142.8308 62.304 142.6892C 62.21286 142.5476 62.14938 142.4036 62.11357 142.2571C 62.09079 142.1497 62.07939 141.9739 62.07939 141.7297L62.07939 141.7297L62.07939 140.6311L62.07939 140.6311L65.2581 140.6311zM61.25908 140.6311L61.25908 142.6672C 61.25908 143.1002 61.21432 143.4387 61.1248 143.6829C 61.03528 143.927 60.89206 144.1125 60.69511 144.2395C 60.49817 144.3665 60.28415 144.4299 60.05302 144.4299C 59.37594 144.4299 58.89091 143.9579 58.89091 142.8967L58.89091 142.8967L58.89091 140.6311z" stroke="none" fill="#353231" fill-rule="evenodd" /><path id="2" transform="matrix(1 0 0 -1 0 612)" d="M65.2581 150.1753L64.49638 150.1753C 65.08232 149.7717 65.37529 149.2232 65.37529 148.5298C 65.37529 148.2238 65.3167 147.9382 65.19951 147.6729C 65.08232 147.4076 64.93502 147.2106 64.75761 147.0821C 64.58021 146.9535 64.36292 146.8631 64.10576 146.8111C 63.93323 146.7753 63.65979 146.7574 63.28545 146.7574L63.28545 146.7574L60.07256 146.7574L60.07256 146.7574L60.07256 147.6363L60.07256 147.6363L62.94853 147.6363C 63.40752 147.6363 63.71676 147.6542 63.87627 147.69C 64.33851 147.8006 64.61845 148.1783 64.61845 148.7056C 64.61845 148.9693 64.55091 149.2167 64.41582 149.4478C 64.28072 149.6789 64.09681 149.8425 63.86406 149.9385C 63.63131 150.0345 63.29358 150.0826 62.85088 150.0826L62.85088 150.0826L60.07256 150.0826L60.07256 150.0826L60.07256 150.9615L60.07256 150.9615L65.2581 150.9615z" stroke="none" fill="#353231" fill-rule="evenodd" /><path id="3" transform="matrix(1 0 0 -1 0 612)" d="M62.66533 152.0097C 61.70504 152.0097 60.99378 152.2767 60.53154 152.8105C 60.14743 153.2565 59.95537 153.8001 59.95537 154.4414C 59.95537 155.8672 60.94495 156.8681 62.59209 156.8681C 63.2594 156.8681 63.78431 156.768 64.16679 156.5678C 64.54928 156.3676 64.84632 156.0763 65.05791 155.6938C 65.26949 155.3113 65.37529 154.8938 65.37529 154.4414C 65.37529 152.9895 64.41663 152.0097 62.66533 152.0097zM62.66533 152.9131C 63.99345 152.9131 64.65263 153.5625 64.65263 154.4414C 64.65263 155.3138 63.99671 155.9648 62.63603 155.9648C 61.35348 155.9648 60.68291 155.3073 60.68291 154.4414C 60.68291 153.5625 61.3372 152.9131 62.66533 152.9131z" stroke="none" fill="#353231" fill-rule="evenodd" /><path id="4" transform="matrix(1 0 0 -1 0 612)" d="M63.35869 161.2807L63.47099 162.1449C 64.6624 161.9561 65.37529 161.1195 65.37529 159.9867C 65.37529 158.5675 64.41663 157.6283 62.68486 157.6283C 62.12497 157.6283 61.63506 157.7211 61.21513 157.9066C 60.79521 158.0922 60.48027 158.3746 60.27031 158.7538C 60.06035 159.1331 59.95537 159.5457 59.95537 159.9916C 59.95537 161.1179 60.54782 161.8601 61.59599 162.0619L61.59599 162.0619L61.72783 161.2074C 61.03122 161.0447 60.67802 160.6117 60.67802 160.0258C 60.67802 159.1404 61.28675 158.5316 62.66045 158.5316C 64.05367 158.5316 64.65263 159.1176 64.65263 159.977C 64.65263 160.6671 64.23759 161.157 63.35869 161.2807z" stroke="none" fill="#353231" fill-rule="evenodd" /><path id="5" transform="matrix(1 0 0 -1 0 612)" d="M65.2581 162.8969L58.0999 162.8969L58.0999 162.8969L58.0999 163.7758L58.0999 163.7758L60.66826 163.7758C 60.193 164.1859 59.95537 164.7035 59.95537 165.3285C 59.95537 165.7126 60.03105 166.0463 60.18242 166.3295C 60.33379 166.6127 60.54293 166.8153 60.80986 166.9374C 61.07679 167.0595 61.46416 167.1205 61.97197 167.1205L61.97197 167.1205L65.2581 167.1205L65.2581 167.1205L65.2581 166.2416L65.2581 166.2416L61.97197 166.2416C 61.09306 166.2416 60.7122 165.8445 60.7122 165.1479C 60.7122 164.8875 60.77975 164.6425 60.91484 164.413C 61.04993 164.1835 61.23304 164.0199 61.46416 163.9223C 61.69528 163.8246 62.01429 163.7758 62.42119 163.7758L62.42119 163.7758L65.2581 163.7758z" stroke="none" fill="#353231" fill-rule="evenodd" /><path id="6" transform="matrix(1 0 0 -1 0 612)" d="M62.66533 168.1297C 61.70504 168.1297 60.99378 168.3967 60.53154 168.9305C 60.14743 169.3765 59.95537 169.9201 59.95537 170.5614C 59.95537 171.9872 60.94495 172.9881 62.59209 172.9881C 63.2594 172.9881 63.78431 172.888 64.16679 172.6878C 64.54928 172.4876 64.84632 172.1963 65.05791 171.8138C 65.26949 171.4313 65.37529 171.0139 65.37529 170.5614C 65.37529 169.1096 64.41663 168.1297 62.66533 168.1297zM62.66533 169.0331C 63.99345 169.0331 64.65263 169.6825 64.65263 170.5614C 64.65263 171.4338 63.99671 172.0848 62.63603 172.0848C 61.35348 172.0848 60.68291 171.4273 60.68291 170.5614C 60.68291 169.6825 61.3372 169.0331 62.66533 169.0331z" stroke="none" fill="#353231" fill-rule="evenodd" /><path id="7" transform="matrix(1 0 0 -1 0 612)" d="M65.2581 174.0169L60.07256 174.0169L60.07256 174.0169L60.07256 174.8079L60.07256 174.8079L60.80986 174.8079C 60.2402 175.1888 59.95537 175.7389 59.95537 176.4583C 59.95537 176.7708 60.01152 177.0581 60.12383 177.3201C 60.23613 177.5822 60.38343 177.7783 60.56572 177.9085C 60.74801 178.0387 60.96448 178.1298 61.21513 178.1819C 61.3779 178.2145 61.66272 178.2307 62.06963 178.2307L62.06963 178.2307L65.2581 178.2307L65.2581 178.2307L65.2581 177.3518L65.2581 177.3518L62.10381 177.3518C 61.74573 177.3518 61.47799 177.3177 61.30058 177.2493C 61.12317 177.1809 60.98157 177.0597 60.87578 176.8855C 60.76999 176.7114 60.71709 176.5071 60.71709 176.2727C 60.71709 175.524 61.09795 174.8958 62.42607 174.8958L62.42607 174.8958L65.2581 174.8958z" stroke="none" fill="#353231" fill-rule="evenodd" /><path id="8" transform="matrix(1 0 0 -1 0 612)" d="M65.68779 179.4157L65.81474 180.2702C 66.07841 180.306 66.27047 180.4053 66.39091 180.5681C 66.55367 180.7862 66.63506 181.084 66.63506 181.4616C 66.63506 182.2755 66.29326 182.697 65.70732 182.8532C 65.52828 182.8988 65.15231 182.92 64.57939 182.9167C 65.03187 182.5326 65.2581 182.0541 65.2581 181.4812C 65.2581 180.0554 64.07484 179.24 62.63603 179.24C 62.14124 179.24 61.6847 179.3295 61.2664 179.5085C 60.84811 179.6876 60.52503 179.9472 60.29716 180.2873C 60.0693 180.6275 59.95537 181.0271 59.95537 181.4861C 59.95537 182.098 60.20276 182.6026 60.69756 182.9997L60.69756 182.9997L60.07256 182.9997L60.07256 182.9997L60.07256 183.8103L60.07256 183.8103L64.55498 183.8103C 65.36227 183.8103 65.93437 183.7281 66.27129 183.5637C 66.6082 183.3993 66.87431 183.1389 67.06963 182.7824C 67.26494 182.426 67.36259 181.9874 67.36259 181.4665C 67.36259 180.2296 66.80758 179.3897 65.68779 179.4157zM62.57256 180.1433C 63.93323 180.1433 64.53056 180.7504 64.53056 181.5642C 64.53056 182.3715 63.92998 182.99 62.60185 182.99C 61.33232 182.99 60.68291 182.3438 60.68291 181.5495C 60.68291 180.7683 61.32256 180.1433 62.57256 180.1433z" stroke="none" fill="#353231" fill-rule="evenodd" /></g><path id="9" transform="matrix(1 0 0 -1 0 612)" d="M160.052 55.984L790.157 55.984L790.157 554.882L160.052 554.882z" stroke="none" fill="#E5E6E6" fill-rule="nonzero" /><g clip-path="url(#3)"><g transform="matrix(0.2399981 0 0 0.23997 159.0345 57.11792)"><g transform="matrix(1 0 0 1 0 0)"><image x="0" y="0" xlink:href="img_13.png" width="2634" height="2079" /></g></g></g><path id="11" transform="matrix(1 0 0 -1 0 612)" d="M62.34647 443.3814L62.27616 444.1856C 62.59843 444.2237 62.86283 444.3123 63.06937 444.4515C 63.27592 444.5906 63.44291 444.8067 63.57035 445.0997C 63.69779 445.3926 63.76151 445.7222 63.76151 446.0884C 63.76151 446.4136 63.71317 446.7007 63.61649 446.9498C 63.51981 447.1988 63.38725 447.3841 63.21879 447.5057C 63.05033 447.6273 62.86649 447.688 62.66727 447.688C 62.26298 447.688 61.96268 447.4713 61.75761 446.9322C 61.62284 446.5865 61.29325 445.0162 61.0413 444.5416C 60.71903 443.9263 60.23124 443.6275 59.63944 443.6275C 59.31425 443.6275 59.01029 443.7198 58.72758 443.9044C 58.44486 444.0889 58.23026 444.3585 58.08378 444.713C 57.93729 445.0674 57.86405 445.4615 57.86405 445.8951C 57.86405 446.3726 57.94096 446.7938 58.09476 447.1585C 58.24857 447.5233 58.47489 447.8038 58.77372 448.0001C 59.07255 448.1964 59.41093 448.3018 59.78886 448.3165L59.78886 448.3165L59.85038 447.4991C 59.03593 447.4112 58.61552 446.9205 58.61552 445.9302C 58.61552 444.899 59.04911 444.4493 59.58231 444.4493C 59.81376 444.4493 60.00419 444.5328 60.1536 444.6998C 60.45243 445.0279 60.78934 446.8956 61.02372 447.4112C 61.36942 448.1612 61.90556 448.5098 62.59696 448.5098C 62.93974 448.5098 63.26273 448.4117 63.56596 448.2154C 63.86918 448.0191 64.10502 447.7371 64.27348 447.3694C 64.44193 447.0018 64.52616 446.588 64.52616 446.128C 64.52616 445.545 64.4412 445.0565 64.27128 444.6624C 64.10136 444.2684 63.84574 443.9593 63.50443 443.7352C 63.16312 443.511 62.77714 443.3931 62.34647 443.3814z" stroke="none" fill="#353332" fill-rule="evenodd" /><path id="12" transform="matrix(1 0 0 -1 0 612)" d="M63.70878 451.3004L64.40751 451.4147C 64.45438 451.192 64.47782 450.9928 64.47782 450.817C 64.47782 450.5299 64.43241 450.3073 64.34159 450.149C 64.25077 449.9908 64.13139 449.8795 63.98344 449.8151C 63.83549 449.7506 63.52421 449.7184 63.0496 449.7184L63.0496 449.7184L60.36454 449.7184L60.36454 449.7184L60.36454 449.1383L60.36454 449.1383L59.74931 449.1383L59.74931 449.1383L59.74931 449.7184L59.74931 449.7184L58.59354 449.7184L58.59354 449.7184L58.11893 450.505L58.11893 450.505L59.74931 450.505L59.74931 450.505L59.74931 451.3004L59.74931 451.3004L60.36454 451.3004L60.36454 451.3004L60.36454 450.505L60.36454 450.505L63.09354 450.505C 63.31913 450.505 63.46415 450.5189 63.5286 450.5468C 63.59306 450.5746 63.64433 450.62 63.68241 450.683C 63.7205 450.746 63.73954 450.8361 63.73954 450.9532C 63.73954 451.0411 63.72929 451.1569 63.70878 451.3004z" stroke="none" fill="#353332" fill-rule="evenodd" /><path id="13" transform="matrix(1 0 0 -1 0 612)" d="M63.84061 455.1208C 64.33866 454.5349 64.52177 454.0236 64.52177 453.4025C 64.52177 452.3771 63.96513 451.8073 63.18583 451.8073C 62.95731 451.8073 62.74857 451.8593 62.55961 451.9633C 62.37064 452.0673 62.21903 452.2036 62.10477 452.372C 61.99052 452.5405 61.90409 452.7302 61.8455 452.9411C 61.80448 453.0964 61.76493 453.3307 61.72684 453.6442C 61.65067 454.2829 61.55985 454.7531 61.45438 455.0549C 61.34599 455.0578 61.27714 455.0593 61.24784 455.0593C 60.92558 455.0593 60.69852 454.9846 60.56669 454.8351C 60.38798 454.633 60.29862 454.3327 60.29862 453.9343C 60.29862 453.1901 60.52421 452.8869 61.18632 452.717L61.18632 452.717L61.08085 451.9435C 60.74979 452.0139 60.48246 452.1296 60.27885 452.2907C 60.07523 452.4518 59.9185 452.6848 59.80863 452.9894C 59.69877 453.2941 59.64384 453.6472 59.64384 454.0485C 59.64384 454.447 59.69071 454.7707 59.78446 455.0197C 59.87821 455.2687 59.99613 455.4518 60.13822 455.569C 60.28031 455.6862 60.45975 455.7682 60.67655 455.8151C 60.81132 455.8415 61.05448 455.8547 61.40604 455.8547L61.40604 455.8547L62.46073 455.8547C 63.93143 455.8547 64.05888 455.9059 64.4163 456.1052L64.4163 456.1052L64.4163 455.279C 64.25224 455.197 64.06034 455.1442 63.84061 455.1208zM62.07401 455.0549C 62.1912 454.7678 62.29081 454.3371 62.37284 453.7629C 62.41972 453.4377 62.47245 453.2077 62.53104 453.0729C 62.58964 452.9382 62.67533 452.8342 62.78812 452.7609C 62.90092 452.6877 63.02616 452.6511 63.16386 452.6511C 63.58573 452.6511 63.90214 452.9763 63.90214 453.5915C 63.90214 454.2009 63.61796 454.7048 63.15507 454.9274C 62.97636 455.0124 62.71268 455.0549 62.36405 455.0549z" stroke="none" fill="#353332" fill-rule="evenodd" /><path id="14" transform="matrix(1 0 0 -1 0 612)" d="M64.4163 457.0706L59.74931 457.0706L59.74931 457.0706L59.74931 457.7825L59.74931 457.7825L60.45683 457.7825C 59.79472 458.1458 59.64384 458.4241 59.64384 458.7932C 59.64384 459.0598 59.7288 459.3308 59.89872 459.6062L59.89872 459.6062L60.63261 459.3338C 60.51835 459.1404 60.46122 458.9471 60.46122 458.7537C 60.46122 458.408 60.68095 458.1106 61.05009 457.9934C 61.33134 457.9055 61.63895 457.8616 61.97294 457.8616L61.97294 457.8616L64.4163 457.8616z" stroke="none" fill="#353332" fill-rule="evenodd" /><path id="15" transform="matrix(1 0 0 -1 0 612)" d="M64.4163 460.0676L59.74931 460.0676L59.74931 460.0676L59.74931 460.7795L59.74931 460.7795L60.45683 460.7795C 59.79472 461.1428 59.64384 461.4211 59.64384 461.7903C 59.64384 462.0569 59.7288 462.3279 59.89872 462.6032L59.89872 462.6032L60.63261 462.3308C 60.51835 462.1374 60.46122 461.9441 60.46122 461.7507C 60.46122 461.405 60.68095 461.1076 61.05009 460.9904C 61.33134 460.9026 61.63895 460.8586 61.97294 460.8586L61.97294 460.8586L64.4163 460.8586z" stroke="none" fill="#353332" fill-rule="evenodd" /><path id="16" transform="matrix(1 0 0 -1 0 612)" d="M66.21366 463.0382L65.47099 462.9503C 65.51786 463.1232 65.5413 463.274 65.5413 463.403C 65.5413 463.7545 65.41825 463.9493 65.20731 464.0841C 65.12821 464.1339 64.93192 464.2145 64.61845 464.3258C 64.5745 464.3405 64.51005 464.3639 64.42509 464.3961L64.42509 464.3961L59.74931 462.6251L59.74931 462.6251L59.74931 463.4777L59.74931 463.4777L62.45194 464.4489C 62.79472 464.5748 63.15507 464.6876 63.533 464.7872C 63.16972 464.8781 62.81522 464.9865 62.46952 465.1124L62.46952 465.1124L59.74931 466.11L59.74931 466.11L59.74931 466.901L59.74931 466.901L64.4954 465.1256C 65.00809 464.9352 65.36112 464.7872 65.55448 464.6818C 66.07597 464.4005 66.31034 464.0519 66.31034 463.548C 66.31034 463.3956 66.27811 463.2257 66.21366 463.0382z" stroke="none" fill="#353332" fill-rule="evenodd" /><path id="18" transform="matrix(1 0 0 -1 0 612)" d="M63.02323 469.759L62.90018 470.5412C 63.52714 470.6291 63.87138 471.029 63.87138 471.7497C 63.87138 472.4763 63.52714 472.822 63.1287 472.822C 62.94999 472.822 62.80936 472.7443 62.70683 472.5891C 62.63651 472.4807 62.54716 472.2111 62.43876 471.7805C 62.29227 471.2004 62.16557 470.7983 62.05863 470.5742C 61.9517 470.35 61.80375 470.1801 61.61478 470.0644C 61.42582 469.9487 61.21708 469.8908 60.98856 469.8908C 60.57255 469.8908 60.20341 470.0944 59.96903 470.4225C 59.78739 470.6686 59.64384 471.1227 59.64384 471.6091C 59.64384 471.9753 59.69657 472.2968 59.80204 472.5737C 59.90751 472.8505 60.05033 473.0549 60.23051 473.1867C 60.41068 473.3185 60.65165 473.4094 60.95341 473.4592L60.95341 473.4592L61.05888 472.6857C 60.57841 472.6154 60.29423 472.2814 60.29423 471.6662C 60.29423 470.9396 60.57401 470.6555 60.89628 470.6555C 60.99882 470.6555 61.0911 470.6877 61.17313 470.7521C 61.25809 470.8166 61.32841 470.9177 61.38407 471.0554C 61.41337 471.1345 61.48075 471.3674 61.58622 471.7541C 61.73563 472.3137 61.85795 472.704 61.95316 472.9252C 62.04838 473.1464 62.18681 473.32 62.36845 473.446C 62.55009 473.572 62.77567 473.6349 63.0452 473.6349C 63.30888 473.6349 63.55717 473.558 63.79008 473.4042C 64.02299 473.2504 64.20316 473.0285 64.3306 472.7385C 64.45805 472.4484 64.52177 472.1203 64.52177 471.7541C 64.52177 470.5412 64.01347 469.9348 63.02323 469.759z" stroke="none" fill="#353332" fill-rule="evenodd" /><path id="19" transform="matrix(1 0 0 -1 0 612)" d="M64.4163 474.5798L57.97392 474.5798L57.97392 474.5798L57.97392 475.3708L57.97392 475.3708L61.64774 475.3708L61.64774 475.3708L59.74931 477.2429L59.74931 477.2429L59.74931 478.2668L59.74931 478.2668L61.48075 476.4826L61.48075 476.4826L64.4163 478.447L64.4163 478.447L64.4163 477.4714L64.4163 477.4714L62.03007 475.9289L62.03007 475.9289L62.5662 475.3708L62.5662 475.3708L64.4163 475.3708z" stroke="none" fill="#353332" fill-rule="evenodd" /><path id="20" transform="matrix(1 0 0 -1 0 612)" d="M66.21366 479.0402L65.47099 478.9523C 65.51786 479.1252 65.5413 479.2761 65.5413 479.405C 65.5413 479.7565 65.41825 479.9514 65.20731 480.0861C 65.12821 480.1359 64.93192 480.2165 64.61845 480.3278C 64.5745 480.3425 64.51005 480.3659 64.42509 480.3981L64.42509 480.3981L59.74931 478.6271L59.74931 478.6271L59.74931 479.4797L59.74931 479.4797L62.45194 480.4509C 62.79472 480.5768 63.15507 480.6896 63.533 480.7892C 63.16972 480.8801 62.81522 480.9885 62.46952 481.1144L62.46952 481.1144L59.74931 482.112L59.74931 482.112L59.74931 482.903L59.74931 482.903L64.4954 481.1276C 65.00809 480.9372 65.36112 480.7892 65.55448 480.6838C 66.07597 480.4025 66.31034 480.0539 66.31034 479.55C 66.31034 479.3976 66.27811 479.2277 66.21366 479.0402z" stroke="none" fill="#353332" fill-rule="evenodd" /><path id="22" transform="matrix(1 0 0 -1 0 612)" d="M63.84061 489.1228C 64.33866 488.5369 64.52177 488.0256 64.52177 487.4045C 64.52177 486.3792 63.96513 485.8093 63.18583 485.8093C 62.95731 485.8093 62.74857 485.8613 62.55961 485.9653C 62.37064 486.0693 62.21903 486.2056 62.10477 486.374C 61.99052 486.5424 61.90409 486.7321 61.8455 486.9431C 61.80448 487.0984 61.76493 487.3328 61.72684 487.6462C 61.65067 488.2849 61.55985 488.7551 61.45438 489.0569C 61.34599 489.0598 61.27714 489.0612 61.24784 489.0612C 60.92558 489.0612 60.69852 488.9865 60.56669 488.8371C 60.38798 488.635 60.29862 488.3347 60.29862 487.9362C 60.29862 487.1921 60.52421 486.8889 61.18632 486.719L61.18632 486.719L61.08085 485.9455C 60.74979 486.0158 60.48246 486.1316 60.27885 486.2927C 60.07523 486.4539 59.9185 486.6868 59.80863 486.9914C 59.69877 487.2961 59.64384 487.6492 59.64384 488.0505C 59.64384 488.449 59.69071 488.7727 59.78446 489.0217C 59.87821 489.2708 59.99613 489.4538 60.13822 489.571C 60.28031 489.6882 60.45975 489.7702 60.67655 489.8171C 60.81132 489.8435 61.05448 489.8567 61.40604 489.8567L61.40604 489.8567L62.46073 489.8567C 63.93143 489.8567 64.05888 489.908 64.4163 490.1071L64.4163 490.1071L64.4163 489.281C 64.25224 489.1989 64.06034 489.1462 63.84061 489.1228zM62.07401 489.0569C 62.1912 488.7698 62.29081 488.3391 62.37284 487.7649C 62.41972 487.4397 62.47245 487.2097 62.53104 487.0749C 62.58964 486.9402 62.67533 486.8362 62.78812 486.7629C 62.90092 486.6897 63.02616 486.653 63.16386 486.653C 63.58573 486.653 63.90214 486.9782 63.90214 487.5935C 63.90214 488.2029 63.61796 488.7068 63.15507 488.9294C 62.97636 489.0144 62.71268 489.0569 62.36405 489.0569z" stroke="none" fill="#353332" fill-rule="evenodd" /><path id="23" transform="matrix(1 0 0 -1 0 612)" d="M64.4163 491.2703L60.36454 491.2703L60.36454 491.2703L60.36454 490.5716L60.36454 490.5716L59.74931 490.5716L59.74931 490.5716L59.74931 491.2703L59.74931 491.2703L59.25272 491.2703C 58.93925 491.2703 58.70634 491.2982 58.55399 491.3538C 58.14384 491.5062 57.86405 491.8709 57.86405 492.5623C 57.86405 492.785 57.89042 493.0311 57.94315 493.3006L57.94315 493.3006L58.63309 493.1819C 58.6038 493.0179 58.58915 492.8626 58.58915 492.7161C 58.58915 492.2357 58.75614 492.0569 59.31864 492.0569L59.31864 492.0569L59.74931 492.0569L59.74931 492.0569L59.74931 492.9666L59.74931 492.9666L60.36454 492.9666L60.36454 492.9666L60.36454 492.0569L60.36454 492.0569L64.4163 492.0569z" stroke="none" fill="#353332" fill-rule="evenodd" /><path id="24" transform="matrix(1 0 0 -1 0 612)" d="M63.70878 495.3104L64.40751 495.4247C 64.45438 495.202 64.47782 495.0028 64.47782 494.827C 64.47782 494.5399 64.43241 494.3173 64.34159 494.1591C 64.25077 494.0009 64.13139 493.8895 63.98344 493.8251C 63.83549 493.7606 63.52421 493.7284 63.0496 493.7284L63.0496 493.7284L60.36454 493.7284L60.36454 493.7284L60.36454 493.1483L60.36454 493.1483L59.74931 493.1483L59.74931 493.1483L59.74931 493.7284L59.74931 493.7284L58.59354 493.7284L58.59354 493.7284L58.11893 494.515L58.11893 494.515L59.74931 494.515L59.74931 494.515L59.74931 495.3104L59.74931 495.3104L60.36454 495.3104L60.36454 495.3104L60.36454 494.515L60.36454 494.515L63.09354 494.515C 63.31913 494.515 63.46415 494.5289 63.5286 494.5568C 63.59306 494.5846 63.64433 494.63 63.68241 494.693C 63.7205 494.756 63.73954 494.8461 63.73954 494.9633C 63.73954 495.0511 63.72929 495.1669 63.70878 495.3104z" stroke="none" fill="#353332" fill-rule="evenodd" /><path id="25" transform="matrix(1 0 0 -1 0 612)" d="M62.91337 499.2802L63.01444 500.0976C 63.96952 499.8398 64.52177 499.1293 64.52177 498.0453C 64.52177 496.6801 63.63993 495.8217 62.12235 495.8217C 60.55204 495.8217 59.64384 496.7123 59.64384 498.0014C 59.64384 499.2495 60.533 500.124 62.07401 500.124C 62.12089 500.124 62.1912 500.1225 62.28495 500.1196L62.28495 500.1196L62.28495 496.6391C 63.31034 496.6977 63.87138 497.2704 63.87138 498.0497C 63.87138 498.6298 63.58134 499.04 62.91337 499.2802zM61.63456 496.683L61.63456 499.289C 61.24198 499.2538 60.94755 499.1542 60.75126 498.9902C 60.44657 498.7382 60.29423 498.4116 60.29423 498.0102C 60.29423 497.2836 60.82011 496.7358 61.63456 496.683z" stroke="none" fill="#353332" fill-rule="evenodd" /><path id="26" transform="matrix(1 0 0 -1 0 612)" d="M64.4163 501.0806L59.74931 501.0806L59.74931 501.0806L59.74931 501.7925L59.74931 501.7925L60.45683 501.7925C 59.79472 502.1558 59.64384 502.4341 59.64384 502.8032C 59.64384 503.0699 59.7288 503.3408 59.89872 503.6162L59.89872 503.6162L60.63261 503.3438C 60.51835 503.1504 60.46122 502.957 60.46122 502.7637C 60.46122 502.418 60.68095 502.1206 61.05009 502.0034C 61.33134 501.9155 61.63895 501.8716 61.97294 501.8716L61.97294 501.8716L64.4163 501.8716z" stroke="none" fill="#353332" fill-rule="evenodd" /><path id="28" transform="matrix(1 0 0 -1 0 612)" d="M63.84061 509.6338C 64.33866 509.0479 64.52177 508.5366 64.52177 507.9155C 64.52177 506.8901 63.96513 506.3203 63.18583 506.3203C 62.95731 506.3203 62.74857 506.3723 62.55961 506.4763C 62.37064 506.5803 62.21903 506.7166 62.10477 506.885C 61.99052 507.0535 61.90409 507.2432 61.8455 507.4541C 61.80448 507.6094 61.76493 507.8438 61.72684 508.1572C 61.65067 508.7959 61.55985 509.2661 61.45438 509.5679C 61.34599 509.5708 61.27714 509.5723 61.24784 509.5723C 60.92558 509.5723 60.69852 509.4976 60.56669 509.3481C 60.38798 509.146 60.29862 508.8457 60.29862 508.4473C 60.29862 507.7031 60.52421 507.3999 61.18632 507.23L61.18632 507.23L61.08085 506.4565C 60.74979 506.5269 60.48246 506.6426 60.27885 506.8037C 60.07523 506.9648 59.9185 507.1978 59.80863 507.5024C 59.69877 507.8071 59.64384 508.1602 59.64384 508.5615C 59.64384 508.96 59.69071 509.2837 59.78446 509.5327C 59.87821 509.7817 59.99613 509.9648 60.13822 510.082C 60.28031 510.1992 60.45975 510.2813 60.67655 510.3281C 60.81132 510.3545 61.05448 510.3677 61.40604 510.3677L61.40604 510.3677L62.46073 510.3677C 63.93143 510.3677 64.05888 510.4189 64.4163 510.6182L64.4163 510.6182L64.4163 509.792C 64.25224 509.71 64.06034 509.6572 63.84061 509.6338zM62.07401 509.5679C 62.1912 509.2808 62.29081 508.8501 62.37284 508.2759C 62.41972 507.9507 62.47245 507.7207 62.53104 507.5859C 62.58964 507.4512 62.67533 507.3472 62.78812 507.2739C 62.90092 507.2007 63.02616 507.1641 63.16386 507.1641C 63.58573 507.1641 63.90214 507.4893 63.90214 508.1045C 63.90214 508.7139 63.61796 509.2178 63.15507 509.4404C 62.97636 509.5254 62.71268 509.5679 62.36405 509.5679z" stroke="none" fill="#353332" fill-rule="evenodd" /><path id="30" transform="matrix(1 0 0 -1 0 612)" d="M64.4163 514.0856L59.74931 514.0856L59.74931 514.0856L59.74931 514.7975L59.74931 514.7975L60.45683 514.7975C 59.79472 515.1608 59.64384 515.4391 59.64384 515.8082C 59.64384 516.0748 59.7288 516.3458 59.89872 516.6212L59.89872 516.6212L60.63261 516.3488C 60.51835 516.1554 60.46122 515.962 60.46122 515.7687C 60.46122 515.423 60.68095 515.1256 61.05009 515.0084C 61.33134 514.9205 61.63895 514.8766 61.97294 514.8766L61.97294 514.8766L64.4163 514.8766z" stroke="none" fill="#353332" fill-rule="evenodd" /><path id="31" transform="matrix(1 0 0 -1 0 612)" d="M63.84061 520.1368C 64.33866 519.5508 64.52177 519.0396 64.52177 518.4185C 64.52177 517.3931 63.96513 516.8233 63.18583 516.8233C 62.95731 516.8233 62.74857 516.8753 62.55961 516.9793C 62.37064 517.0833 62.21903 517.2195 62.10477 517.388C 61.99052 517.5565 61.90409 517.7462 61.8455 517.9571C 61.80448 518.1124 61.76493 518.3467 61.72684 518.6602C 61.65067 519.2989 61.55985 519.7691 61.45438 520.0709C 61.34599 520.0738 61.27714 520.0753 61.24784 520.0753C 60.92558 520.0753 60.69852 520.0005 60.56669 519.8511C 60.38798 519.649 60.29862 519.3487 60.29862 518.9503C 60.29862 518.2061 60.52421 517.9029 61.18632 517.733L61.18632 517.733L61.08085 516.9595C 60.74979 517.0298 60.48246 517.1456 60.27885 517.3067C 60.07523 517.4678 59.9185 517.7007 59.80863 518.0054C 59.69877 518.3101 59.64384 518.6631 59.64384 519.0645C 59.64384 519.463 59.69071 519.7867 59.78446 520.0357C 59.87821 520.2847 59.99613 520.4678 60.13822 520.585C 60.28031 520.7022 60.45975 520.7842 60.67655 520.8311C 60.81132 520.8575 61.05448 520.8707 61.40604 520.8707L61.40604 520.8707L62.46073 520.8707C 63.93143 520.8707 64.05888 520.9219 64.4163 521.1212L64.4163 521.1212L64.4163 520.295C 64.25224 520.213 64.06034 520.1602 63.84061 520.1368zM62.07401 520.0709C 62.1912 519.7838 62.29081 519.3531 62.37284 518.7789C 62.41972 518.4537 62.47245 518.2237 62.53104 518.0889C 62.58964 517.9542 62.67533 517.8502 62.78812 517.7769C 62.90092 517.7037 63.02616 517.6671 63.16386 517.6671C 63.58573 517.6671 63.90214 517.9922 63.90214 518.6075C 63.90214 519.2169 63.61796 519.7208 63.15507 519.9434C 62.97636 520.0284 62.71268 520.0709 62.36405 520.0709z" stroke="none" fill="#353332" fill-rule="evenodd" /><path id="32" transform="matrix(1 0 0 -1 0 612)" d="M58.88358 522.0998L57.97392 522.0998L57.97392 522.0998L57.97392 522.8908L57.97392 522.8908L58.88358 522.8908zM64.4163 522.0998L59.74931 522.0998L59.74931 522.0998L59.74931 522.8908L59.74931 522.8908L64.4163 522.8908z" stroke="none" fill="#353332" fill-rule="evenodd" /><path id="33" transform="matrix(1 0 0 -1 0 612)" d="M64.4163 524.0934L59.74931 524.0934L59.74931 524.0934L59.74931 524.8053L59.74931 524.8053L60.41288 524.8053C 59.90018 525.1481 59.64384 525.6432 59.64384 526.2906C 59.64384 526.5719 59.69437 526.8304 59.79545 527.0663C 59.89652 527.3021 60.02909 527.4786 60.19315 527.5958C 60.35722 527.713 60.55204 527.795 60.77763 527.8419C 60.92411 527.8712 61.18046 527.8859 61.54667 527.8859L61.54667 527.8859L64.4163 527.8859L64.4163 527.8859L64.4163 527.0948L64.4163 527.0948L61.57743 527.0948C 61.25517 527.0948 61.0142 527.0641 60.85453 527.0026C 60.69486 526.941 60.56742 526.8319 60.47221 526.6752C 60.37699 526.5184 60.32938 526.3346 60.32938 526.1237C 60.32938 525.4498 60.67216 524.8844 61.86747 524.8844L61.86747 524.8844L64.4163 524.8844z" stroke="none" fill="#353332" fill-rule="evenodd" /><path id="34" transform="matrix(1 0 0 -1 0 612)" d="M66.21366 529.0622L65.47099 528.9743C 65.51786 529.1472 65.5413 529.298 65.5413 529.4269C 65.5413 529.7785 65.41825 529.9734 65.20731 530.1081C 65.12821 530.158 64.93192 530.2385 64.61845 530.3498C 64.5745 530.3645 64.51005 530.3879 64.42509 530.4201L64.42509 530.4201L59.74931 528.6491L59.74931 528.6491L59.74931 529.5016L59.74931 529.5016L62.45194 530.4728C 62.79472 530.5988 63.15507 530.7117 63.533 530.8112C 63.16972 530.902 62.81522 531.0105 62.46952 531.1364L62.46952 531.1364L59.74931 532.134L59.74931 532.134L59.74931 532.925L59.74931 532.925L64.4954 531.1496C 65.00809 530.9592 65.36112 530.8112 65.55448 530.7057C 66.07597 530.4245 66.31034 530.0759 66.31034 529.572C 66.31034 529.4197 66.27811 529.2497 66.21366 529.0622z" stroke="none" fill="#353332" fill-rule="evenodd" /><path id="36" transform="matrix(1 0 0 -1 0 612)" d="M64.4163 536.0994L59.74931 536.0994L59.74931 536.0994L59.74931 536.8113L59.74931 536.8113L60.41288 536.8113C 59.90018 537.1541 59.64384 537.6492 59.64384 538.2966C 59.64384 538.5779 59.69437 538.8364 59.79545 539.0723C 59.89652 539.3081 60.02909 539.4846 60.19315 539.6018C 60.35722 539.719 60.55204 539.801 60.77763 539.8479C 60.92411 539.8772 61.18046 539.8918 61.54667 539.8918L61.54667 539.8918L64.4163 539.8918L64.4163 539.8918L64.4163 539.1008L64.4163 539.1008L61.57743 539.1008C 61.25517 539.1008 61.0142 539.0701 60.85453 539.0085C 60.69486 538.947 60.56742 538.8379 60.47221 538.6812C 60.37699 538.5244 60.32938 538.3406 60.32938 538.1296C 60.32938 537.4558 60.67216 536.8904 61.86747 536.8904L61.86747 536.8904L64.4163 536.8904z" stroke="none" fill="#353332" fill-rule="evenodd" /><path id="37" transform="matrix(1 0 0 -1 0 612)" d="M58.88358 541.1078L57.97392 541.1078L57.97392 541.1078L57.97392 541.8988L57.97392 541.8988L58.88358 541.8988zM64.4163 541.1078L59.74931 541.1078L59.74931 541.1078L59.74931 541.8988L59.74931 541.8988L64.4163 541.8988z" stroke="none" fill="#353332" fill-rule="evenodd" /><path id="38" transform="matrix(1 0 0 -1 0 612)" d="M64.80302 542.9564L64.91727 543.7254C 65.15458 543.7576 65.32743 543.847 65.43583 543.9935C 65.58231 544.1898 65.65556 544.4578 65.65556 544.7977C 65.65556 545.5301 65.34794 545.9095 64.82059 546.0501C 64.65946 546.0911 64.32108 546.1102 63.80546 546.1072C 64.21268 545.7615 64.4163 545.3309 64.4163 544.8152C 64.4163 543.532 63.35136 542.7982 62.05643 542.7982C 61.61112 542.7982 61.20023 542.8787 60.82377 543.0399C 60.4473 543.201 60.15653 543.4346 59.95145 543.7408C 59.74638 544.0469 59.64384 544.4066 59.64384 544.8196C 59.64384 545.3704 59.86649 545.8245 60.31181 546.1819L60.31181 546.1819L59.74931 546.1819L59.74931 546.1819L59.74931 546.9114L59.74931 546.9114L63.78349 546.9114C 64.51005 546.9114 65.02494 546.8375 65.32816 546.6895C 65.63139 546.5416 65.87089 546.3072 66.04667 545.9864C 66.22245 545.6656 66.31034 545.2708 66.31034 544.8021C 66.31034 543.6888 65.81083 542.9329 64.80302 542.9564zM61.99931 543.6111C 63.22392 543.6111 63.76151 544.1575 63.76151 544.89C 63.76151 545.6165 63.22099 546.1732 62.02567 546.1732C 60.88309 546.1732 60.29862 545.5916 60.29862 544.8768C 60.29862 544.1736 60.87431 543.6111 61.99931 543.6111z" stroke="none" fill="#353332" fill-rule="evenodd" /><path id="39" transform="matrix(1 0 0 -1 0 612)" d="M64.4163 548.1053L57.97392 548.1053L57.97392 548.1053L57.97392 548.8964L57.97392 548.8964L60.28544 548.8964C 59.8577 549.2655 59.64384 549.7313 59.64384 550.2938C 59.64384 550.6395 59.71195 550.9398 59.84818 551.1947C 59.98441 551.4496 60.17265 551.632 60.41288 551.7418C 60.65311 551.8517 61.00175 551.9066 61.45878 551.9066L61.45878 551.9066L64.4163 551.9066L64.4163 551.9066L64.4163 551.1156L64.4163 551.1156L61.45878 551.1156C 60.66776 551.1156 60.32499 550.7582 60.32499 550.1312C 60.32499 549.8969 60.38578 549.6764 60.50736 549.4698C 60.62894 549.2633 60.79374 549.1161 61.00175 549.0282C 61.20975 548.9403 61.49686 548.8964 61.86308 548.8964L61.86308 548.8964L64.4163 548.8964z" stroke="none" fill="#353332" fill-rule="evenodd" /><g clip-path="url(#4)"><g transform="matrix(0.2398904 0 0 0.2399078 271.0026 170.3621)"><g transform="matrix(1 0 0 1 0 0)"><image x="0" y="0" xlink:href="img_14.png" width="345" height="410" /></g></g></g></g></g></svg>