<svg xmlns="http://www.w3.org/2000/svg" xmlns:xlink="http://www.w3.org/1999/xlink" id="body_3" preserveAspectRatio="xMinYMin meet" viewBox="0 0 1144 816"><defs><clipPath id="1"><path id="" clip-rule="evenodd" transform="matrix(1 0 0 1 0 0)" d="M0 612L0 -0.28302L0 -0.28302L858.898 -0.28302L858.898 -0.28302L858.898 612L858.898 612L0 612z" /></clipPath><clipPath id="2"><path id="" clip-rule="evenodd" transform="matrix(1 0 0 1 0 0)" d="M0 -0.28302L858.898 -0.28302L858.898 -0.28302L858.898 612L858.898 612L0 612z" /></clipPath><clipPath id="3"><path id="" clip-rule="evenodd" transform="matrix(1 0 0 1 0 0)" d="M0 -0.28302L858.898 -0.28302L858.898 -0.28302L858.898 612L858.898 612L0 612z" /></clipPath><clipPath id="4"><path id="" clip-rule="evenodd" transform="matrix(1 0 0 1 0 0)" d="M443.535 422.221L802.772 422.221L802.772 422.221L802.772 239.046L802.772 239.046L443.535 239.046z" /></clipPath></defs><g transform="matrix(1.333333 0 0 1.333333 0 0)"><g clip-path="url(#1)"><g clip-path="url(#2)"><path id="1" transform="matrix(1 0 0 -1 0 612)" d="M0 0L858.898 0L858.898 612.284L0 612.284z" stroke="none" fill="#58524A" fill-rule="nonzero" /></g><g clip-path="url(#3)"><path id="3" transform="matrix(1 0 0 -1 0 612)" d="M65.3148 139.6838L58.15659 139.6838L58.15659 139.6838L58.15659 142.8577C 58.15659 143.4957 58.22088 143.9807 58.34946 144.3127C 58.47805 144.6448 58.7051 144.9101 59.03062 145.1086C 59.35614 145.3072 59.71584 145.4065 60.10972 145.4065C 61.12534 145.4065 61.86916 144.7636 62.05796 143.3899C 62.1784 143.6405 62.29722 143.831 62.41441 143.9612C 62.66831 144.2379 62.98569 144.4999 63.36655 144.7473L63.36655 144.7473L65.3148 145.9924L65.3148 145.9924L65.3148 144.801L65.3148 144.801L63.82554 143.8538C 63.39585 143.5771 63.06707 143.3492 62.83921 143.1702C 62.61135 142.9911 62.45184 142.8308 62.36069 142.6892C 62.26955 142.5476 62.20607 142.4036 62.17027 142.2571C 62.14748 142.1497 62.13609 141.9739 62.13609 141.7297L62.13609 141.7297L62.13609 140.6311L62.13609 140.6311L65.3148 140.6311zM61.31577 140.6311L61.31577 142.6672C 61.31577 143.1002 61.27102 143.4387 61.1815 143.6829C 61.09198 143.927 60.94875 144.1125 60.75181 144.2395C 60.55487 144.3665 60.34084 144.4299 60.10972 144.4299C 59.43264 144.4299 58.94761 143.9579 58.94761 142.8967L58.94761 142.8967L58.94761 140.6311z" stroke="none" fill="#FFFEFE" fill-rule="evenodd" /><path id="4" transform="matrix(1 0 0 -1 0 612)" d="M65.3148 150.1753L64.55308 150.1753C 65.13902 149.7717 65.43198 149.2232 65.43198 148.5298C 65.43198 148.2238 65.37339 147.9382 65.2562 147.6729C 65.13902 147.4076 64.99171 147.2106 64.81431 147.0821C 64.6369 146.9535 64.41962 146.8631 64.16245 146.8111C 63.98993 146.7753 63.71649 146.7574 63.34214 146.7574L63.34214 146.7574L60.12925 146.7574L60.12925 146.7574L60.12925 147.6363L60.12925 147.6363L63.00523 147.6363C 63.46421 147.6363 63.77346 147.6542 63.93296 147.69C 64.3952 147.8006 64.67515 148.1783 64.67515 148.7056C 64.67515 148.9693 64.6076 149.2167 64.47251 149.4478C 64.33742 149.6789 64.1535 149.8425 63.92075 149.9385C 63.68801 150.0345 63.35028 150.0826 62.90757 150.0826L62.90757 150.0826L60.12925 150.0826L60.12925 150.0826L60.12925 150.9615L60.12925 150.9615L65.3148 150.9615z" stroke="none" fill="#FFFEFE" fill-rule="evenodd" /><path id="5" transform="matrix(1 0 0 -1 0 612)" d="M62.72202 152.0097C 61.76174 152.0097 61.05047 152.2767 60.58823 152.8105C 60.20412 153.2565 60.01206 153.8001 60.01206 154.4414C 60.01206 155.8672 61.00164 156.8681 62.64878 156.8681C 63.3161 156.8681 63.841 156.768 64.22349 156.5678C 64.60597 156.3676 64.90302 156.0763 65.1146 155.6938C 65.32619 155.3113 65.43198 154.8938 65.43198 154.4414C 65.43198 152.9895 64.47333 152.0097 62.72202 152.0097zM62.72202 152.9131C 64.05015 152.9131 64.70933 153.5625 64.70933 154.4414C 64.70933 155.3138 64.05341 155.9648 62.69273 155.9648C 61.41018 155.9648 60.7396 155.3073 60.7396 154.4414C 60.7396 153.5625 61.3939 152.9131 62.72202 152.9131z" stroke="none" fill="#FFFEFE" fill-rule="evenodd" /><path id="6" transform="matrix(1 0 0 -1 0 612)" d="M63.41538 161.2807L63.52769 162.1449C 64.71909 161.9561 65.43198 161.1195 65.43198 159.9867C 65.43198 158.5675 64.47333 157.6283 62.74155 157.6283C 62.18166 157.6283 61.69175 157.7211 61.27183 157.9066C 60.85191 158.0922 60.53696 158.3746 60.327 158.7538C 60.11704 159.1331 60.01206 159.5457 60.01206 159.9916C 60.01206 161.1179 60.60451 161.8601 61.65269 162.0619L61.65269 162.0619L61.78452 161.2074C 61.08791 161.0447 60.73472 160.6117 60.73472 160.0258C 60.73472 159.1404 61.34344 158.5316 62.71714 158.5316C 64.11037 158.5316 64.70933 159.1176 64.70933 159.977C 64.70933 160.6671 64.29429 161.157 63.41538 161.2807z" stroke="none" fill="#FFFEFE" fill-rule="evenodd" /><path id="7" transform="matrix(1 0 0 -1 0 612)" d="M65.3148 162.8969L58.15659 162.8969L58.15659 162.8969L58.15659 163.7758L58.15659 163.7758L60.72495 163.7758C 60.24969 164.1859 60.01206 164.7035 60.01206 165.3285C 60.01206 165.7126 60.08775 166.0463 60.23911 166.3295C 60.39048 166.6127 60.59963 166.8153 60.86655 166.9374C 61.13348 167.0595 61.52085 167.1205 62.02866 167.1205L62.02866 167.1205L65.3148 167.1205L65.3148 167.1205L65.3148 166.2416L65.3148 166.2416L62.02866 166.2416C 61.14976 166.2416 60.7689 165.8445 60.7689 165.1479C 60.7689 164.8875 60.83644 164.6425 60.97153 164.413C 61.10662 164.1835 61.28973 164.0199 61.52085 163.9223C 61.75197 163.8246 62.07098 163.7758 62.47788 163.7758L62.47788 163.7758L65.3148 163.7758z" stroke="none" fill="#FFFEFE" fill-rule="evenodd" /><path id="8" transform="matrix(1 0 0 -1 0 612)" d="M62.72202 168.1297C 61.76174 168.1297 61.05047 168.3967 60.58823 168.9305C 60.20412 169.3765 60.01206 169.9201 60.01206 170.5614C 60.01206 171.9872 61.00164 172.9881 62.64878 172.9881C 63.3161 172.9881 63.841 172.888 64.22349 172.6878C 64.60597 172.4876 64.90302 172.1963 65.1146 171.8138C 65.32619 171.4313 65.43198 171.0139 65.43198 170.5614C 65.43198 169.1096 64.47333 168.1297 62.72202 168.1297zM62.72202 169.0331C 64.05015 169.0331 64.70933 169.6825 64.70933 170.5614C 64.70933 171.4338 64.05341 172.0848 62.69273 172.0848C 61.41018 172.0848 60.7396 171.4273 60.7396 170.5614C 60.7396 169.6825 61.3939 169.0331 62.72202 169.0331z" stroke="none" fill="#FFFEFE" fill-rule="evenodd" /><path id="9" transform="matrix(1 0 0 -1 0 612)" d="M65.3148 174.0169L60.12925 174.0169L60.12925 174.0169L60.12925 174.8079L60.12925 174.8079L60.86655 174.8079C 60.29689 175.1888 60.01206 175.7389 60.01206 176.4583C 60.01206 176.7708 60.06821 177.0581 60.18052 177.3201C 60.29282 177.5822 60.44012 177.7783 60.62241 177.9085C 60.80471 178.0387 61.02118 178.1298 61.27183 178.1819C 61.43459 178.2145 61.71942 178.2307 62.12632 178.2307L62.12632 178.2307L65.3148 178.2307L65.3148 178.2307L65.3148 177.3518L65.3148 177.3518L62.1605 177.3518C 61.80243 177.3518 61.53469 177.3177 61.35728 177.2493C 61.17987 177.1809 61.03827 177.0597 60.93247 176.8855C 60.82668 176.7114 60.77378 176.5071 60.77378 176.2727C 60.77378 175.524 61.15464 174.8958 62.48277 174.8958L62.48277 174.8958L65.3148 174.8958z" stroke="none" fill="#FFFEFE" fill-rule="evenodd" /><path id="10" transform="matrix(1 0 0 -1 0 612)" d="M65.74448 179.4157L65.87144 180.2702C 66.13511 180.306 66.32716 180.4053 66.44761 180.5681C 66.61037 180.7862 66.69175 181.084 66.69175 181.4616C 66.69175 182.2755 66.34995 182.697 65.76402 182.8532C 65.58498 182.8988 65.209 182.92 64.63609 182.9167C 65.08856 182.5326 65.3148 182.0541 65.3148 181.4812C 65.3148 180.0554 64.13153 179.24 62.69273 179.24C 62.19793 179.24 61.74139 179.3295 61.3231 179.5085C 60.9048 179.6876 60.58172 179.9472 60.35386 180.2873C 60.126 180.6275 60.01206 181.0271 60.01206 181.4861C 60.01206 182.098 60.25946 182.6026 60.75425 182.9997L60.75425 182.9997L60.12925 182.9997L60.12925 182.9997L60.12925 183.8103L60.12925 183.8103L64.61167 183.8103C 65.41896 183.8103 65.99107 183.7281 66.32798 183.5637C 66.66489 183.3993 66.93101 183.1389 67.12632 182.7824C 67.32163 182.426 67.41929 181.9874 67.41929 181.4665C 67.41929 180.2296 66.86427 179.3897 65.74448 179.4157zM62.62925 180.1433C 63.98993 180.1433 64.58726 180.7504 64.58726 181.5642C 64.58726 182.3715 63.98667 182.99 62.65855 182.99C 61.38902 182.99 60.7396 182.3438 60.7396 181.5495C 60.7396 180.7683 61.37925 180.1433 62.62925 180.1433z" stroke="none" fill="#FFFEFE" fill-rule="evenodd" /></g><path id="11" transform="matrix(1 0 0 -1 0 612)" d="M443.535 372.82L802.771 372.82L802.771 555.995L443.535 555.995z" stroke="none" fill="#E5E6E6" fill-rule="nonzero" /><g transform="matrix(0.2399708 0 0 0.2399306 443.5355 57.00146)"><g transform="matrix(1 0 0 1 0 0)"><image x="0" y="0" xlink:href="img_05.png" width="1497" height="759" /></g></g><path id="13" transform="matrix(1 0 0 -1 0 612)" d="M62.34647 391.9014L62.27616 392.7056C 62.59843 392.7437 62.86283 392.8323 63.06937 392.9715C 63.27592 393.1106 63.44291 393.3267 63.57035 393.6197C 63.69779 393.9126 63.76151 394.2422 63.76151 394.6084C 63.76151 394.9336 63.71317 395.2207 63.61649 395.4698C 63.51981 395.7188 63.38725 395.9041 63.21879 396.0257C 63.05033 396.1472 62.86649 396.208 62.66727 396.208C 62.26298 396.208 61.96268 395.9912 61.75761 395.4522C 61.62284 395.1065 61.29325 393.5362 61.0413 393.0616C 60.71903 392.4463 60.23124 392.1475 59.63944 392.1475C 59.31425 392.1475 59.01029 392.2398 58.72758 392.4243C 58.44486 392.6089 58.23026 392.8784 58.08378 393.2329C 57.93729 393.5874 57.86405 393.9815 57.86405 394.4151C 57.86405 394.8926 57.94096 395.3138 58.09476 395.6785C 58.24857 396.0432 58.47489 396.3238 58.77372 396.5201C 59.07255 396.7163 59.41093 396.8218 59.78886 396.8365L59.78886 396.8365L59.85038 396.0191C 59.03593 395.9312 58.61552 395.4405 58.61552 394.4502C 58.61552 393.419 59.04911 392.9693 59.58231 392.9693C 59.81376 392.9693 60.00419 393.0528 60.1536 393.2198C 60.45243 393.5479 60.78934 395.4156 61.02372 395.9312C 61.36942 396.6812 61.90556 397.0298 62.59696 397.0298C 62.93974 397.0298 63.26273 396.9317 63.56596 396.7354C 63.86918 396.5391 64.10502 396.2571 64.27348 395.8894C 64.44193 395.5218 64.52616 395.1079 64.52616 394.648C 64.52616 394.065 64.4412 393.5764 64.27128 393.1824C 64.10136 392.7884 63.84574 392.4793 63.50443 392.2552C 63.16312 392.031 62.77714 391.9131 62.34647 391.9014z" stroke="none" fill="#FFFEFE" fill-rule="evenodd" /><path id="14" transform="matrix(1 0 0 -1 0 612)" d="M63.70878 399.8204L64.40751 399.9347C 64.45438 399.712 64.47782 399.5128 64.47782 399.337C 64.47782 399.0499 64.43241 398.8272 64.34159 398.669C 64.25077 398.5108 64.13139 398.3995 63.98344 398.3351C 63.83549 398.2706 63.52421 398.2384 63.0496 398.2384L63.0496 398.2384L60.36454 398.2384L60.36454 398.2384L60.36454 397.6583L60.36454 397.6583L59.74931 397.6583L59.74931 397.6583L59.74931 398.2384L59.74931 398.2384L58.59354 398.2384L58.59354 398.2384L58.11893 399.025L58.11893 399.025L59.74931 399.025L59.74931 399.025L59.74931 399.8204L59.74931 399.8204L60.36454 399.8204L60.36454 399.8204L60.36454 399.025L60.36454 399.025L63.09354 399.025C 63.31913 399.025 63.46415 399.0389 63.5286 399.0667C 63.59306 399.0946 63.64433 399.14 63.68241 399.203C 63.7205 399.266 63.73954 399.356 63.73954 399.4732C 63.73954 399.5611 63.72929 399.6768 63.70878 399.8204z" stroke="none" fill="#FFFEFE" fill-rule="evenodd" /><path id="15" transform="matrix(1 0 0 -1 0 612)" d="M63.84061 403.6408C 64.33866 403.0548 64.52177 402.5436 64.52177 401.9225C 64.52177 400.8971 63.96513 400.3273 63.18583 400.3273C 62.95731 400.3273 62.74857 400.3793 62.55961 400.4833C 62.37064 400.5873 62.21903 400.7235 62.10477 400.892C 61.99052 401.0605 61.90409 401.2502 61.8455 401.4611C 61.80448 401.6164 61.76493 401.8507 61.72684 402.1642C 61.65067 402.8029 61.55985 403.2731 61.45438 403.5749C 61.34599 403.5778 61.27714 403.5793 61.24784 403.5793C 60.92558 403.5793 60.69852 403.5045 60.56669 403.3551C 60.38798 403.153 60.29862 402.8527 60.29862 402.4543C 60.29862 401.7101 60.52421 401.4069 61.18632 401.237L61.18632 401.237L61.08085 400.4635C 60.74979 400.5338 60.48246 400.6496 60.27885 400.8107C 60.07523 400.9718 59.9185 401.2047 59.80863 401.5094C 59.69877 401.8141 59.64384 402.1671 59.64384 402.5685C 59.64384 402.9669 59.69071 403.2907 59.78446 403.5397C 59.87821 403.7887 59.99613 403.9718 60.13822 404.089C 60.28031 404.2062 60.45975 404.2882 60.67655 404.3351C 60.81132 404.3615 61.05448 404.3747 61.40604 404.3747L61.40604 404.3747L62.46073 404.3747C 63.93143 404.3747 64.05888 404.4259 64.4163 404.6252L64.4163 404.6252L64.4163 403.799C 64.25224 403.7169 64.06034 403.6642 63.84061 403.6408zM62.07401 403.5749C 62.1912 403.2878 62.29081 402.8571 62.37284 402.2829C 62.41972 401.9577 62.47245 401.7277 62.53104 401.5929C 62.58964 401.4582 62.67533 401.3542 62.78812 401.2809C 62.90092 401.2077 63.02616 401.1711 63.16386 401.1711C 63.58573 401.1711 63.90214 401.4962 63.90214 402.1115C 63.90214 402.7209 63.61796 403.2248 63.15507 403.4474C 62.97636 403.5324 62.71268 403.5749 62.36405 403.5749z" stroke="none" fill="#FFFEFE" fill-rule="evenodd" /><path id="16" transform="matrix(1 0 0 -1 0 612)" d="M64.4163 405.5906L59.74931 405.5906L59.74931 405.5906L59.74931 406.3025L59.74931 406.3025L60.45683 406.3025C 59.79472 406.6658 59.64384 406.9441 59.64384 407.3132C 59.64384 407.5798 59.7288 407.8508 59.89872 408.1262L59.89872 408.1262L60.63261 407.8538C 60.51835 407.6604 60.46122 407.467 60.46122 407.2737C 60.46122 406.928 60.68095 406.6306 61.05009 406.5134C 61.33134 406.4255 61.63895 406.3816 61.97294 406.3816L61.97294 406.3816L64.4163 406.3816z" stroke="none" fill="#FFFEFE" fill-rule="evenodd" /><path id="17" transform="matrix(1 0 0 -1 0 612)" d="M64.4163 408.5876L59.74931 408.5876L59.74931 408.5876L59.74931 409.2995L59.74931 409.2995L60.45683 409.2995C 59.79472 409.6628 59.64384 409.9411 59.64384 410.3102C 59.64384 410.5768 59.7288 410.8478 59.89872 411.1232L59.89872 411.1232L60.63261 410.8508C 60.51835 410.6574 60.46122 410.4641 60.46122 410.2707C 60.46122 409.925 60.68095 409.6276 61.05009 409.5104C 61.33134 409.4225 61.63895 409.3786 61.97294 409.3786L61.97294 409.3786L64.4163 409.3786z" stroke="none" fill="#FFFEFE" fill-rule="evenodd" /><path id="18" transform="matrix(1 0 0 -1 0 612)" d="M66.21366 411.5582L65.47099 411.4703C 65.51786 411.6432 65.5413 411.794 65.5413 411.9229C 65.5413 412.2745 65.41825 412.4693 65.20731 412.6041C 65.12821 412.6539 64.93192 412.7345 64.61845 412.8458C 64.5745 412.8604 64.51005 412.8839 64.42509 412.9161L64.42509 412.9161L59.74931 411.1451L59.74931 411.1451L59.74931 411.9977L59.74931 411.9977L62.45194 412.9688C 62.79472 413.0948 63.15507 413.2076 63.533 413.3072C 63.16972 413.398 62.81522 413.5064 62.46952 413.6324L62.46952 413.6324L59.74931 414.63L59.74931 414.63L59.74931 415.421L59.74931 415.421L64.4954 413.6456C 65.00809 413.4552 65.36112 413.3072 65.55448 413.2018C 66.07597 412.9205 66.31034 412.5719 66.31034 412.068C 66.31034 411.9156 66.27811 411.7457 66.21366 411.5582z" stroke="none" fill="#FFFEFE" fill-rule="evenodd" /><path id="20" transform="matrix(1 0 0 -1 0 612)" d="M63.02323 418.279L62.90018 419.0612C 63.52714 419.1491 63.87138 419.549 63.87138 420.2697C 63.87138 420.9962 63.52714 421.3419 63.1287 421.3419C 62.94999 421.3419 62.80936 421.2643 62.70683 421.109C 62.63651 421.0006 62.54716 420.7311 62.43876 420.3004C 62.29227 419.7204 62.16557 419.3183 62.05863 419.0941C 61.9517 418.87 61.80375 418.7001 61.61478 418.5844C 61.42582 418.4687 61.21708 418.4108 60.98856 418.4108C 60.57255 418.4108 60.20341 418.6144 59.96903 418.9425C 59.78739 419.1886 59.64384 419.6427 59.64384 420.1291C 59.64384 420.4953 59.69657 420.8168 59.80204 421.0937C 59.90751 421.3705 60.05033 421.5749 60.23051 421.7067C 60.41068 421.8385 60.65165 421.9294 60.95341 421.9792L60.95341 421.9792L61.05888 421.2057C 60.57841 421.1354 60.29423 420.8014 60.29423 420.1862C 60.29423 419.4596 60.57401 419.1754 60.89628 419.1754C 60.99882 419.1754 61.0911 419.2077 61.17313 419.2721C 61.25809 419.3366 61.32841 419.4377 61.38407 419.5753C 61.41337 419.6544 61.48075 419.8874 61.58622 420.2741C 61.73563 420.8336 61.85795 421.224 61.95316 421.4452C 62.04838 421.6664 62.18681 421.84 62.36845 421.966C 62.55009 422.0919 62.77567 422.1549 63.0452 422.1549C 63.30888 422.1549 63.55717 422.078 63.79008 421.9242C 64.02299 421.7704 64.20316 421.5485 64.3306 421.2585C 64.45805 420.9684 64.52177 420.6403 64.52177 420.2741C 64.52177 419.0612 64.01347 418.4547 63.02323 418.279z" stroke="none" fill="#FFFEFE" fill-rule="evenodd" /><path id="21" transform="matrix(1 0 0 -1 0 612)" d="M64.4163 423.0998L57.97392 423.0998L57.97392 423.0998L57.97392 423.8908L57.97392 423.8908L61.64774 423.8908L61.64774 423.8908L59.74931 425.7628L59.74931 425.7628L59.74931 426.7868L59.74931 426.7868L61.48075 425.0026L61.48075 425.0026L64.4163 426.9669L64.4163 426.9669L64.4163 425.9914L64.4163 425.9914L62.03007 424.4489L62.03007 424.4489L62.5662 423.8908L62.5662 423.8908L64.4163 423.8908z" stroke="none" fill="#FFFEFE" fill-rule="evenodd" /><path id="22" transform="matrix(1 0 0 -1 0 612)" d="M66.21366 427.5602L65.47099 427.4723C 65.51786 427.6452 65.5413 427.7961 65.5413 427.925C 65.5413 428.2765 65.41825 428.4713 65.20731 428.6061C 65.12821 428.6559 64.93192 428.7365 64.61845 428.8478C 64.5745 428.8625 64.51005 428.8859 64.42509 428.9181L64.42509 428.9181L59.74931 427.1471L59.74931 427.1471L59.74931 427.9997L59.74931 427.9997L62.45194 428.9709C 62.79472 429.0968 63.15507 429.2096 63.533 429.3092C 63.16972 429.4001 62.81522 429.5085 62.46952 429.6344L62.46952 429.6344L59.74931 430.632L59.74931 430.632L59.74931 431.423L59.74931 431.423L64.4954 429.6476C 65.00809 429.4572 65.36112 429.3092 65.55448 429.2038C 66.07597 428.9225 66.31034 428.5739 66.31034 428.07C 66.31034 427.9176 66.27811 427.7477 66.21366 427.5602z" stroke="none" fill="#FFFEFE" fill-rule="evenodd" /><path id="24" transform="matrix(1 0 0 -1 0 612)" d="M63.84061 437.6428C 64.33866 437.0568 64.52177 436.5456 64.52177 435.9245C 64.52177 434.8991 63.96513 434.3293 63.18583 434.3293C 62.95731 434.3293 62.74857 434.3813 62.55961 434.4853C 62.37064 434.5893 62.21903 434.7255 62.10477 434.894C 61.99052 435.0624 61.90409 435.2521 61.8455 435.4631C 61.80448 435.6183 61.76493 435.8527 61.72684 436.1662C 61.65067 436.8049 61.55985 437.2751 61.45438 437.5768C 61.34599 437.5798 61.27714 437.5812 61.24784 437.5812C 60.92558 437.5812 60.69852 437.5065 60.56669 437.3571C 60.38798 437.155 60.29862 436.8547 60.29862 436.4562C 60.29862 435.7121 60.52421 435.4089 61.18632 435.239L61.18632 435.239L61.08085 434.4655C 60.74979 434.5358 60.48246 434.6516 60.27885 434.8127C 60.07523 434.9738 59.9185 435.2067 59.80863 435.5114C 59.69877 435.8161 59.64384 436.1691 59.64384 436.5705C 59.64384 436.9689 59.69071 437.2927 59.78446 437.5417C 59.87821 437.7907 59.99613 437.9738 60.13822 438.091C 60.28031 438.2082 60.45975 438.2902 60.67655 438.3371C 60.81132 438.3635 61.05448 438.3766 61.40604 438.3766L61.40604 438.3766L62.46073 438.3766C 63.93143 438.3766 64.05888 438.4279 64.4163 438.6271L64.4163 438.6271L64.4163 437.801C 64.25224 437.7189 64.06034 437.6662 63.84061 437.6428zM62.07401 437.5768C 62.1912 437.2897 62.29081 436.8591 62.37284 436.2849C 62.41972 435.9597 62.47245 435.7297 62.53104 435.5949C 62.58964 435.4601 62.67533 435.3561 62.78812 435.2829C 62.90092 435.2097 63.02616 435.173 63.16386 435.173C 63.58573 435.173 63.90214 435.4982 63.90214 436.1135C 63.90214 436.7228 63.61796 437.2267 63.15507 437.4494C 62.97636 437.5344 62.71268 437.5768 62.36405 437.5768z" stroke="none" fill="#FFFEFE" fill-rule="evenodd" /><path id="25" transform="matrix(1 0 0 -1 0 612)" d="M64.4163 439.7903L60.36454 439.7903L60.36454 439.7903L60.36454 439.0916L60.36454 439.0916L59.74931 439.0916L59.74931 439.0916L59.74931 439.7903L59.74931 439.7903L59.25272 439.7903C 58.93925 439.7903 58.70634 439.8181 58.55399 439.8738C 58.14384 440.0262 57.86405 440.3909 57.86405 441.0823C 57.86405 441.305 57.89042 441.5511 57.94315 441.8206L57.94315 441.8206L58.63309 441.7019C 58.6038 441.5379 58.58915 441.3826 58.58915 441.2361C 58.58915 440.7557 58.75614 440.5769 59.31864 440.5769L59.31864 440.5769L59.74931 440.5769L59.74931 440.5769L59.74931 441.4866L59.74931 441.4866L60.36454 441.4866L60.36454 441.4866L60.36454 440.5769L60.36454 440.5769L64.4163 440.5769z" stroke="none" fill="#FFFEFE" fill-rule="evenodd" /><path id="26" transform="matrix(1 0 0 -1 0 612)" d="M63.70878 443.8304L64.40751 443.9447C 64.45438 443.722 64.47782 443.5228 64.47782 443.347C 64.47782 443.0599 64.43241 442.8372 64.34159 442.679C 64.25077 442.5208 64.13139 442.4095 63.98344 442.3451C 63.83549 442.2806 63.52421 442.2484 63.0496 442.2484L63.0496 442.2484L60.36454 442.2484L60.36454 442.2484L60.36454 441.6683L60.36454 441.6683L59.74931 441.6683L59.74931 441.6683L59.74931 442.2484L59.74931 442.2484L58.59354 442.2484L58.59354 442.2484L58.11893 443.035L58.11893 443.035L59.74931 443.035L59.74931 443.035L59.74931 443.8304L59.74931 443.8304L60.36454 443.8304L60.36454 443.8304L60.36454 443.035L60.36454 443.035L63.09354 443.035C 63.31913 443.035 63.46415 443.0489 63.5286 443.0768C 63.59306 443.1046 63.64433 443.15 63.68241 443.213C 63.7205 443.276 63.73954 443.3661 63.73954 443.4832C 63.73954 443.5711 63.72929 443.6869 63.70878 443.8304z" stroke="none" fill="#FFFEFE" fill-rule="evenodd" /><path id="27" transform="matrix(1 0 0 -1 0 612)" d="M62.91337 447.8002L63.01444 448.6176C 63.96952 448.3597 64.52177 447.6493 64.52177 446.5653C 64.52177 445.2001 63.63993 444.3417 62.12235 444.3417C 60.55204 444.3417 59.64384 445.2323 59.64384 446.5214C 59.64384 447.7694 60.533 448.6439 62.07401 448.6439C 62.12089 448.6439 62.1912 448.6425 62.28495 448.6395L62.28495 448.6395L62.28495 445.1591C 63.31034 445.2177 63.87138 445.7904 63.87138 446.5697C 63.87138 447.1498 63.58134 447.5599 62.91337 447.8002zM61.63456 445.203L61.63456 447.809C 61.24198 447.7738 60.94755 447.6742 60.75126 447.5101C 60.44657 447.2582 60.29423 446.9315 60.29423 446.5302C 60.29423 445.8036 60.82011 445.2557 61.63456 445.203z" stroke="none" fill="#FFFEFE" fill-rule="evenodd" /><path id="28" transform="matrix(1 0 0 -1 0 612)" d="M64.4163 449.6006L59.74931 449.6006L59.74931 449.6006L59.74931 450.3125L59.74931 450.3125L60.45683 450.3125C 59.79472 450.6758 59.64384 450.9541 59.64384 451.3232C 59.64384 451.5898 59.7288 451.8608 59.89872 452.1362L59.89872 452.1362L60.63261 451.8638C 60.51835 451.6704 60.46122 451.4771 60.46122 451.2837C 60.46122 450.938 60.68095 450.6406 61.05009 450.5234C 61.33134 450.4355 61.63895 450.3916 61.97294 450.3916L61.97294 450.3916L64.4163 450.3916z" stroke="none" fill="#FFFEFE" fill-rule="evenodd" /><path id="30" transform="matrix(1 0 0 -1 0 612)" d="M63.84061 458.1538C 64.33866 457.5678 64.52177 457.0566 64.52177 456.4355C 64.52177 455.4101 63.96513 454.8403 63.18583 454.8403C 62.95731 454.8403 62.74857 454.8923 62.55961 454.9963C 62.37064 455.1003 62.21903 455.2365 62.10477 455.405C 61.99052 455.5735 61.90409 455.7632 61.8455 455.9741C 61.80448 456.1294 61.76493 456.3637 61.72684 456.6772C 61.65067 457.3159 61.55985 457.7861 61.45438 458.0879C 61.34599 458.0908 61.27714 458.0923 61.24784 458.0923C 60.92558 458.0923 60.69852 458.0175 60.56669 457.8681C 60.38798 457.666 60.29862 457.3657 60.29862 456.9673C 60.29862 456.2231 60.52421 455.9199 61.18632 455.75L61.18632 455.75L61.08085 454.9765C 60.74979 455.0468 60.48246 455.1626 60.27885 455.3237C 60.07523 455.4848 59.9185 455.7177 59.80863 456.0224C 59.69877 456.3271 59.64384 456.6801 59.64384 457.0815C 59.64384 457.4799 59.69071 457.8037 59.78446 458.0527C 59.87821 458.3017 59.99613 458.4848 60.13822 458.602C 60.28031 458.7192 60.45975 458.8012 60.67655 458.8481C 60.81132 458.8745 61.05448 458.8877 61.40604 458.8877L61.40604 458.8877L62.46073 458.8877C 63.93143 458.8877 64.05888 458.9389 64.4163 459.1382L64.4163 459.1382L64.4163 458.312C 64.25224 458.2299 64.06034 458.1772 63.84061 458.1538zM62.07401 458.0879C 62.1912 457.8008 62.29081 457.3701 62.37284 456.7959C 62.41972 456.4707 62.47245 456.2407 62.53104 456.1059C 62.58964 455.9712 62.67533 455.8672 62.78812 455.7939C 62.90092 455.7207 63.02616 455.6841 63.16386 455.6841C 63.58573 455.6841 63.90214 456.0092 63.90214 456.6245C 63.90214 457.2339 63.61796 457.7378 63.15507 457.9604C 62.97636 458.0454 62.71268 458.0879 62.36405 458.0879z" stroke="none" fill="#FFFEFE" fill-rule="evenodd" /><path id="32" transform="matrix(1 0 0 -1 0 612)" d="M64.4163 462.6056L59.74931 462.6056L59.74931 462.6056L59.74931 463.3175L59.74931 463.3175L60.45683 463.3175C 59.79472 463.6808 59.64384 463.9591 59.64384 464.3282C 59.64384 464.5948 59.7288 464.8658 59.89872 465.1412L59.89872 465.1412L60.63261 464.8688C 60.51835 464.6754 60.46122 464.4821 60.46122 464.2887C 60.46122 463.943 60.68095 463.6456 61.05009 463.5284C 61.33134 463.4406 61.63895 463.3966 61.97294 463.3966L61.97294 463.3966L64.4163 463.3966z" stroke="none" fill="#FFFEFE" fill-rule="evenodd" /><path id="33" transform="matrix(1 0 0 -1 0 612)" d="M63.84061 468.6568C 64.33866 468.0708 64.52177 467.5596 64.52177 466.9385C 64.52177 465.9131 63.96513 465.3433 63.18583 465.3433C 62.95731 465.3433 62.74857 465.3953 62.55961 465.4993C 62.37064 465.6033 62.21903 465.7395 62.10477 465.908C 61.99052 466.0764 61.90409 466.2661 61.8455 466.4771C 61.80448 466.6324 61.76493 466.8667 61.72684 467.1802C 61.65067 467.8189 61.55985 468.2891 61.45438 468.5909C 61.34599 468.5938 61.27714 468.5952 61.24784 468.5952C 60.92558 468.5952 60.69852 468.5205 60.56669 468.3711C 60.38798 468.169 60.29862 467.8687 60.29862 467.4702C 60.29862 466.7261 60.52421 466.4229 61.18632 466.253L61.18632 466.253L61.08085 465.4795C 60.74979 465.5498 60.48246 465.6656 60.27885 465.8267C 60.07523 465.9878 59.9185 466.2207 59.80863 466.5254C 59.69877 466.8301 59.64384 467.1831 59.64384 467.5845C 59.64384 467.9829 59.69071 468.3067 59.78446 468.5557C 59.87821 468.8047 59.99613 468.9878 60.13822 469.105C 60.28031 469.2222 60.45975 469.3042 60.67655 469.3511C 60.81132 469.3775 61.05448 469.3907 61.40604 469.3907L61.40604 469.3907L62.46073 469.3907C 63.93143 469.3907 64.05888 469.4419 64.4163 469.6411L64.4163 469.6411L64.4163 468.815C 64.25224 468.7329 64.06034 468.6802 63.84061 468.6568zM62.07401 468.5909C 62.1912 468.3037 62.29081 467.8731 62.37284 467.2989C 62.41972 466.9737 62.47245 466.7437 62.53104 466.6089C 62.58964 466.4742 62.67533 466.3701 62.78812 466.2969C 62.90092 466.2237 63.02616 466.187 63.16386 466.187C 63.58573 466.187 63.90214 466.5122 63.90214 467.1275C 63.90214 467.7368 63.61796 468.2408 63.15507 468.4634C 62.97636 468.5484 62.71268 468.5909 62.36405 468.5909z" stroke="none" fill="#FFFEFE" fill-rule="evenodd" /><path id="34" transform="matrix(1 0 0 -1 0 612)" d="M58.88358 470.6198L57.97392 470.6198L57.97392 470.6198L57.97392 471.4108L57.97392 471.4108L58.88358 471.4108zM64.4163 470.6198L59.74931 470.6198L59.74931 470.6198L59.74931 471.4108L59.74931 471.4108L64.4163 471.4108z" stroke="none" fill="#FFFEFE" fill-rule="evenodd" /><path id="35" transform="matrix(1 0 0 -1 0 612)" d="M64.4163 472.6133L59.74931 472.6133L59.74931 472.6133L59.74931 473.3253L59.74931 473.3253L60.41288 473.3253C 59.90018 473.668 59.64384 474.1631 59.64384 474.8106C 59.64384 475.0919 59.69437 475.3504 59.79545 475.5862C 59.89652 475.8221 60.02909 475.9986 60.19315 476.1158C 60.35722 476.233 60.55204 476.315 60.77763 476.3619C 60.92411 476.3912 61.18046 476.4058 61.54667 476.4058L61.54667 476.4058L64.4163 476.4058L64.4163 476.4058L64.4163 475.6148L64.4163 475.6148L61.57743 475.6148C 61.25517 475.6148 61.0142 475.584 60.85453 475.5225C 60.69486 475.461 60.56742 475.3519 60.47221 475.1951C 60.37699 475.0384 60.32938 474.8546 60.32938 474.6436C 60.32938 473.9698 60.67216 473.4044 61.86747 473.4044L61.86747 473.4044L64.4163 473.4044z" stroke="none" fill="#FFFEFE" fill-rule="evenodd" /><path id="36" transform="matrix(1 0 0 -1 0 612)" d="M66.21366 477.5822L65.47099 477.4943C 65.51786 477.6672 65.5413 477.8181 65.5413 477.947C 65.5413 478.2985 65.41825 478.4933 65.20731 478.6281C 65.12821 478.6779 64.93192 478.7585 64.61845 478.8698C 64.5745 478.8845 64.51005 478.9079 64.42509 478.9401L64.42509 478.9401L59.74931 477.1691L59.74931 477.1691L59.74931 478.0217L59.74931 478.0217L62.45194 478.9929C 62.79472 479.1188 63.15507 479.2316 63.533 479.3312C 63.16972 479.4221 62.81522 479.5305 62.46952 479.6564L62.46952 479.6564L59.74931 480.654L59.74931 480.654L59.74931 481.445L59.74931 481.445L64.4954 479.6696C 65.00809 479.4792 65.36112 479.3312 65.55448 479.2258C 66.07597 478.9445 66.31034 478.5959 66.31034 478.092C 66.31034 477.9396 66.27811 477.7697 66.21366 477.5822z" stroke="none" fill="#FFFEFE" fill-rule="evenodd" /><path id="38" transform="matrix(1 0 0 -1 0 612)" d="M64.4163 484.6194L59.74931 484.6194L59.74931 484.6194L59.74931 485.3313L59.74931 485.3313L60.41288 485.3313C 59.90018 485.6741 59.64384 486.1692 59.64384 486.8167C 59.64384 487.0979 59.69437 487.3564 59.79545 487.5923C 59.89652 487.8281 60.02909 488.0046 60.19315 488.1218C 60.35722 488.239 60.55204 488.321 60.77763 488.3679C 60.92411 488.3972 61.18046 488.4119 61.54667 488.4119L61.54667 488.4119L64.4163 488.4119L64.4163 488.4119L64.4163 487.6208L64.4163 487.6208L61.57743 487.6208C 61.25517 487.6208 61.0142 487.5901 60.85453 487.5286C 60.69486 487.467 60.56742 487.3579 60.47221 487.2012C 60.37699 487.0444 60.32938 486.8606 60.32938 486.6497C 60.32938 485.9758 60.67216 485.4104 61.86747 485.4104L61.86747 485.4104L64.4163 485.4104z" stroke="none" fill="#FFFEFE" fill-rule="evenodd" /><path id="39" transform="matrix(1 0 0 -1 0 612)" d="M58.88358 489.6278L57.97392 489.6278L57.97392 489.6278L57.97392 490.4188L57.97392 490.4188L58.88358 490.4188zM64.4163 489.6278L59.74931 489.6278L59.74931 489.6278L59.74931 490.4188L59.74931 490.4188L64.4163 490.4188z" stroke="none" fill="#FFFEFE" fill-rule="evenodd" /><path id="40" transform="matrix(1 0 0 -1 0 612)" d="M64.80302 491.4764L64.91727 492.2454C 65.15458 492.2776 65.32743 492.367 65.43583 492.5135C 65.58231 492.7098 65.65556 492.9778 65.65556 493.3177C 65.65556 494.0501 65.34794 494.4295 64.82059 494.5701C 64.65946 494.6111 64.32108 494.6302 63.80546 494.6273C 64.21268 494.2816 64.4163 493.8509 64.4163 493.3353C 64.4163 492.0521 63.35136 491.3182 62.05643 491.3182C 61.61112 491.3182 61.20023 491.3987 60.82377 491.5599C 60.4473 491.721 60.15653 491.9547 59.95145 492.2608C 59.74638 492.567 59.64384 492.9266 59.64384 493.3397C 59.64384 493.8904 59.86649 494.3445 60.31181 494.702L60.31181 494.702L59.74931 494.702L59.74931 494.702L59.74931 495.4315L59.74931 495.4315L63.78349 495.4315C 64.51005 495.4315 65.02494 495.3575 65.32816 495.2095C 65.63139 495.0616 65.87089 494.8272 66.04667 494.5064C 66.22245 494.1856 66.31034 493.7908 66.31034 493.3221C 66.31034 492.2088 65.81083 491.4529 64.80302 491.4764zM61.99931 492.1312C 63.22392 492.1312 63.76151 492.6776 63.76151 493.41C 63.76151 494.1365 63.22099 494.6932 62.02567 494.6932C 60.88309 494.6932 60.29862 494.1116 60.29862 493.3968C 60.29862 492.6937 60.87431 492.1312 61.99931 492.1312z" stroke="none" fill="#FFFEFE" fill-rule="evenodd" /><path id="41" transform="matrix(1 0 0 -1 0 612)" d="M64.4163 496.6254L57.97392 496.6254L57.97392 496.6254L57.97392 497.4164L57.97392 497.4164L60.28544 497.4164C 59.8577 497.7856 59.64384 498.2514 59.64384 498.8139C 59.64384 499.1596 59.71195 499.4599 59.84818 499.7148C 59.98441 499.9696 60.17265 500.152 60.41288 500.2619C 60.65311 500.3717 61.00175 500.4267 61.45878 500.4267L61.45878 500.4267L64.4163 500.4267L64.4163 500.4267L64.4163 499.6357L64.4163 499.6357L61.45878 499.6357C 60.66776 499.6357 60.32499 499.2782 60.32499 498.6513C 60.32499 498.4169 60.38578 498.1964 60.50736 497.9899C 60.62894 497.7834 60.79374 497.6361 61.00175 497.5482C 61.20975 497.4604 61.49686 497.4164 61.86308 497.4164L61.86308 497.4164L64.4163 497.4164z" stroke="none" fill="#FFFEFE" fill-rule="evenodd" /><path id="42" transform="matrix(1 0 0 -1 0 612)" d="M63.70878 503.3564L64.40751 503.4707C 64.45438 503.248 64.47782 503.0488 64.47782 502.873C 64.47782 502.5859 64.43241 502.3633 64.34159 502.2051C 64.25077 502.0469 64.13139 501.9355 63.98344 501.8711C 63.83549 501.8066 63.52421 501.7744 63.0496 501.7744L63.0496 501.7744L60.36454 501.7744L60.36454 501.7744L60.36454 501.1943L60.36454 501.1943L59.74931 501.1943L59.74931 501.1943L59.74931 501.7744L59.74931 501.7744L58.59354 501.7744L58.59354 501.7744L58.11893 502.561L58.11893 502.561L59.74931 502.561L59.74931 502.561L59.74931 503.3564L59.74931 503.3564L60.36454 503.3564L60.36454 503.3564L60.36454 502.561L60.36454 502.561L63.09354 502.561C 63.31913 502.561 63.46415 502.575 63.5286 502.6028C 63.59306 502.6306 63.64433 502.676 63.68241 502.739C 63.7205 502.802 63.73954 502.8921 63.73954 503.0093C 63.73954 503.0972 63.72929 503.2129 63.70878 503.3564z" stroke="none" fill="#FFFEFE" fill-rule="evenodd" /><path id="714" transform="matrix(1 0 0 -1 0 612)" d="M443.535 189.78L802.771 189.78L802.771 372.955L443.535 372.955z" stroke="none" fill="#E5E6E6" fill-rule="nonzero" /><g clip-path="url(#4)"><g transform="matrix(0.2399708 0 0 0.23969 443.5355 239.0413)"><g transform="matrix(1 0 0 1 0 0)"><image x="0" y="0" xlink:href="img_06.png" width="1497" height="765" /></g></g></g></g></g></svg>