<svg xmlns="http://www.w3.org/2000/svg" xmlns:xlink="http://www.w3.org/1999/xlink" id="body_4" preserveAspectRatio="xMinYMin meet" viewBox="0 0 1144 816"><defs><clipPath id="1"><path id="" clip-rule="evenodd" transform="matrix(1 0 0 1 0 0)" d="M0 612L0 -0.28302L0 -0.28302L858.898 -0.28302L858.898 -0.28302L858.898 612L858.898 612L0 612z" /></clipPath><clipPath id="2"><path id="" clip-rule="evenodd" transform="matrix(1 0 0 1 0 0)" d="M0 -0.28302L858.898 -0.28302L858.898 -0.28302L858.898 612L858.898 612L0 612z" /></clipPath><clipPath id="3"><path id="" clip-rule="evenodd" transform="matrix(1 0 0 1 0 0)" d="M56.858 56.409L423.449 56.409L423.449 56.409L423.449 258.378L423.449 258.378L56.858 258.378z" /></clipPath><clipPath id="4"><path id="" clip-rule="evenodd" transform="matrix(1 0 0 1 0 0)" d="M56.693 555.307L416.693 555.307L416.693 555.307L416.693 396.375L416.693 396.375L56.693 396.375z" /></clipPath><clipPath id="5"><path id="" clip-rule="evenodd" transform="matrix(1 0 0 1 0 0)" d="M435.449 61.14398L771.953 61.14398L771.953 61.14398L771.953 258.378L771.953 258.378L435.449 258.378z" /></clipPath><clipPath id="6"><path id="" clip-rule="evenodd" transform="matrix(1 0 0 1 0 0)" d="M285.542 387.231L423.449 387.231L423.449 387.231L423.449 266.284L423.449 266.284L285.542 266.284z" /></clipPath></defs><g transform="matrix(1.333333 0 0 1.333333 0 0)"><g clip-path="url(#1)"><g clip-path="url(#2)"><path id="1" transform="matrix(1 0 0 -1 0 612)" d="M65.2581 139.6838L58.0999 139.6838L58.0999 139.6838L58.0999 142.8577C 58.0999 143.4957 58.16419 143.9807 58.29277 144.3127C 58.42135 144.6448 58.6484 144.9101 58.97392 145.1086C 59.29944 145.3072 59.65915 145.4065 60.05302 145.4065C 61.06865 145.4065 61.81247 144.7636 62.00127 143.3899C 62.12171 143.6405 62.24052 143.831 62.35771 143.9612C 62.61162 144.2379 62.929 144.4999 63.30986 144.7473L63.30986 144.7473L65.2581 145.9924L65.2581 145.9924L65.2581 144.801L65.2581 144.801L63.76884 143.8538C 63.33916 143.5771 63.01038 143.3492 62.78252 143.1702C 62.55465 142.9911 62.39515 142.8308 62.304 142.6892C 62.21286 142.5476 62.14938 142.4036 62.11357 142.2571C 62.09079 142.1497 62.07939 141.9739 62.07939 141.7297L62.07939 141.7297L62.07939 140.6311L62.07939 140.6311L65.2581 140.6311zM61.25908 140.6311L61.25908 142.6672C 61.25908 143.1002 61.21432 143.4387 61.1248 143.6829C 61.03528 143.927 60.89206 144.1125 60.69511 144.2395C 60.49817 144.3665 60.28415 144.4299 60.05302 144.4299C 59.37594 144.4299 58.89091 143.9579 58.89091 142.8967L58.89091 142.8967L58.89091 140.6311z" stroke="none" fill="#353231" fill-rule="evenodd" /><path id="2" transform="matrix(1 0 0 -1 0 612)" d="M65.2581 150.1753L64.49638 150.1753C 65.08232 149.7717 65.37529 149.2232 65.37529 148.5298C 65.37529 148.2238 65.3167 147.9382 65.19951 147.6729C 65.08232 147.4076 64.93502 147.2106 64.75761 147.0821C 64.58021 146.9535 64.36292 146.8631 64.10576 146.8111C 63.93323 146.7753 63.65979 146.7574 63.28545 146.7574L63.28545 146.7574L60.07256 146.7574L60.07256 146.7574L60.07256 147.6363L60.07256 147.6363L62.94853 147.6363C 63.40752 147.6363 63.71676 147.6542 63.87627 147.69C 64.33851 147.8006 64.61845 148.1783 64.61845 148.7056C 64.61845 148.9693 64.55091 149.2167 64.41582 149.4478C 64.28072 149.6789 64.09681 149.8425 63.86406 149.9385C 63.63131 150.0345 63.29358 150.0826 62.85088 150.0826L62.85088 150.0826L60.07256 150.0826L60.07256 150.0826L60.07256 150.9615L60.07256 150.9615L65.2581 150.9615z" stroke="none" fill="#353231" fill-rule="evenodd" /><path id="3" transform="matrix(1 0 0 -1 0 612)" d="M62.66533 152.0097C 61.70504 152.0097 60.99378 152.2767 60.53154 152.8105C 60.14743 153.2565 59.95537 153.8001 59.95537 154.4414C 59.95537 155.8672 60.94495 156.8681 62.59209 156.8681C 63.2594 156.8681 63.78431 156.768 64.16679 156.5678C 64.54928 156.3676 64.84632 156.0763 65.05791 155.6938C 65.26949 155.3113 65.37529 154.8938 65.37529 154.4414C 65.37529 152.9895 64.41663 152.0097 62.66533 152.0097zM62.66533 152.9131C 63.99345 152.9131 64.65263 153.5625 64.65263 154.4414C 64.65263 155.3138 63.99671 155.9648 62.63603 155.9648C 61.35348 155.9648 60.68291 155.3073 60.68291 154.4414C 60.68291 153.5625 61.3372 152.9131 62.66533 152.9131z" stroke="none" fill="#353231" fill-rule="evenodd" /><path id="4" transform="matrix(1 0 0 -1 0 612)" d="M63.35869 161.2807L63.47099 162.1449C 64.6624 161.9561 65.37529 161.1195 65.37529 159.9867C 65.37529 158.5675 64.41663 157.6283 62.68486 157.6283C 62.12497 157.6283 61.63506 157.7211 61.21513 157.9066C 60.79521 158.0922 60.48027 158.3746 60.27031 158.7538C 60.06035 159.1331 59.95537 159.5457 59.95537 159.9916C 59.95537 161.1179 60.54782 161.8601 61.59599 162.0619L61.59599 162.0619L61.72783 161.2074C 61.03122 161.0447 60.67802 160.6117 60.67802 160.0258C 60.67802 159.1404 61.28675 158.5316 62.66045 158.5316C 64.05367 158.5316 64.65263 159.1176 64.65263 159.977C 64.65263 160.6671 64.23759 161.157 63.35869 161.2807z" stroke="none" fill="#353231" fill-rule="evenodd" /><path id="5" transform="matrix(1 0 0 -1 0 612)" d="M65.2581 162.8969L58.0999 162.8969L58.0999 162.8969L58.0999 163.7758L58.0999 163.7758L60.66826 163.7758C 60.193 164.1859 59.95537 164.7035 59.95537 165.3285C 59.95537 165.7126 60.03105 166.0463 60.18242 166.3295C 60.33379 166.6127 60.54293 166.8153 60.80986 166.9374C 61.07679 167.0595 61.46416 167.1205 61.97197 167.1205L61.97197 167.1205L65.2581 167.1205L65.2581 167.1205L65.2581 166.2416L65.2581 166.2416L61.97197 166.2416C 61.09306 166.2416 60.7122 165.8445 60.7122 165.1479C 60.7122 164.8875 60.77975 164.6425 60.91484 164.413C 61.04993 164.1835 61.23304 164.0199 61.46416 163.9223C 61.69528 163.8246 62.01429 163.7758 62.42119 163.7758L62.42119 163.7758L65.2581 163.7758z" stroke="none" fill="#353231" fill-rule="evenodd" /><path id="6" transform="matrix(1 0 0 -1 0 612)" d="M62.66533 168.1297C 61.70504 168.1297 60.99378 168.3967 60.53154 168.9305C 60.14743 169.3765 59.95537 169.9201 59.95537 170.5614C 59.95537 171.9872 60.94495 172.9881 62.59209 172.9881C 63.2594 172.9881 63.78431 172.888 64.16679 172.6878C 64.54928 172.4876 64.84632 172.1963 65.05791 171.8138C 65.26949 171.4313 65.37529 171.0139 65.37529 170.5614C 65.37529 169.1096 64.41663 168.1297 62.66533 168.1297zM62.66533 169.0331C 63.99345 169.0331 64.65263 169.6825 64.65263 170.5614C 64.65263 171.4338 63.99671 172.0848 62.63603 172.0848C 61.35348 172.0848 60.68291 171.4273 60.68291 170.5614C 60.68291 169.6825 61.3372 169.0331 62.66533 169.0331z" stroke="none" fill="#353231" fill-rule="evenodd" /><path id="7" transform="matrix(1 0 0 -1 0 612)" d="M65.2581 174.0169L60.07256 174.0169L60.07256 174.0169L60.07256 174.8079L60.07256 174.8079L60.80986 174.8079C 60.2402 175.1888 59.95537 175.7389 59.95537 176.4583C 59.95537 176.7708 60.01152 177.0581 60.12383 177.3201C 60.23613 177.5822 60.38343 177.7783 60.56572 177.9085C 60.74801 178.0387 60.96448 178.1298 61.21513 178.1819C 61.3779 178.2145 61.66272 178.2307 62.06963 178.2307L62.06963 178.2307L65.2581 178.2307L65.2581 178.2307L65.2581 177.3518L65.2581 177.3518L62.10381 177.3518C 61.74573 177.3518 61.47799 177.3177 61.30058 177.2493C 61.12317 177.1809 60.98157 177.0597 60.87578 176.8855C 60.76999 176.7114 60.71709 176.5071 60.71709 176.2727C 60.71709 175.524 61.09795 174.8958 62.42607 174.8958L62.42607 174.8958L65.2581 174.8958z" stroke="none" fill="#353231" fill-rule="evenodd" /><path id="8" transform="matrix(1 0 0 -1 0 612)" d="M65.68779 179.4157L65.81474 180.2702C 66.07841 180.306 66.27047 180.4053 66.39091 180.5681C 66.55367 180.7862 66.63506 181.084 66.63506 181.4616C 66.63506 182.2755 66.29326 182.697 65.70732 182.8532C 65.52828 182.8988 65.15231 182.92 64.57939 182.9167C 65.03187 182.5326 65.2581 182.0541 65.2581 181.4812C 65.2581 180.0554 64.07484 179.24 62.63603 179.24C 62.14124 179.24 61.6847 179.3295 61.2664 179.5085C 60.84811 179.6876 60.52503 179.9472 60.29716 180.2873C 60.0693 180.6275 59.95537 181.0271 59.95537 181.4861C 59.95537 182.098 60.20276 182.6026 60.69756 182.9997L60.69756 182.9997L60.07256 182.9997L60.07256 182.9997L60.07256 183.8103L60.07256 183.8103L64.55498 183.8103C 65.36227 183.8103 65.93437 183.7281 66.27129 183.5637C 66.6082 183.3993 66.87431 183.1389 67.06963 182.7824C 67.26494 182.426 67.36259 181.9874 67.36259 181.4665C 67.36259 180.2296 66.80758 179.3897 65.68779 179.4157zM62.57256 180.1433C 63.93323 180.1433 64.53056 180.7504 64.53056 181.5642C 64.53056 182.3715 63.92998 182.99 62.60185 182.99C 61.33232 182.99 60.68291 182.3438 60.68291 181.5495C 60.68291 180.7683 61.32256 180.1433 62.57256 180.1433z" stroke="none" fill="#353231" fill-rule="evenodd" /></g><path id="9" transform="matrix(1 0 0 -1 0 612)" d="M699.78 71.197L745.079 71.197L745.079 570.095L699.78 570.095z" stroke="none" fill="#FFFEFE" fill-rule="nonzero" /><path id="10" transform="matrix(1 0 0 -1 0 612)" d="M56.693 353.622L423.449 353.622L423.449 555.591L56.693 555.591z" stroke="none" fill="#E5E6E6" fill-rule="nonzero" /><g clip-path="url(#3)"><g transform="matrix(0.2399153 0 0 0.2398789 56.85828 55.38977)"><g transform="matrix(1 0 0 1 0 0)"><image x="0" y="0" xlink:href="img_08.png" width="1528" height="851" /></g></g></g><path id="12" transform="matrix(1 0 0 -1 0 612)" d="M56.693 56.693L423.449 56.693L423.449 215.625L56.693 215.625z" stroke="none" fill="#FFFEFE" fill-rule="nonzero" /><g clip-path="url(#4)"><g transform="matrix(0.24 0 0 0.239883 56.69291 396.2103)"><g transform="matrix(1 0 0 1 0 0)"><image x="0" y="0" xlink:href="img_09.png" width="1500" height="668" /></g></g></g><path id="329" transform="matrix(1 0 0 -1 0 612)" d="M796.377 555.1863L796.4473 554.3821C 796.1251 554.344 795.8607 554.2554 795.6541 554.1162C 795.4476 553.9771 795.2806 553.761 795.1531 553.468C 795.0257 553.175 794.962 552.8455 794.962 552.4792C 794.962 552.1541 795.0103 551.8669 795.107 551.6179C 795.2037 551.3689 795.3362 551.1836 795.5047 551.062C 795.6732 550.9404 795.857 550.8796 796.0562 550.8796C 796.4605 550.8796 796.7608 551.0964 796.9659 551.6355C 797.1006 551.9812 797.4302 553.5515 797.6822 554.0261C 798.0045 554.6414 798.4922 554.9402 799.084 554.9402C 799.4092 554.9402 799.7132 554.8479 799.9959 554.6633C 800.2786 554.4788 800.4932 554.2092 800.6397 553.8547C 800.7862 553.5002 800.8594 553.1062 800.8594 552.6726C 800.8594 552.1951 800.7825 551.7739 800.6287 551.4092C 800.4749 551.0444 800.2486 550.7639 799.9498 550.5676C 799.6509 550.3713 799.3126 550.2659 798.9346 550.2512L798.9346 550.2512L798.8731 551.0686C 799.6876 551.1565 800.108 551.6472 800.108 552.6375C 800.108 553.6687 799.6744 554.1184 799.1412 554.1184C 798.9097 554.1184 798.7193 554.0349 798.5699 553.8679C 798.2711 553.5398 797.9341 551.6721 797.6998 551.1565C 797.3541 550.4065 796.8179 550.0579 796.1265 550.0579C 795.7838 550.0579 795.4608 550.156 795.1575 550.3523C 794.8543 550.5486 794.6185 550.8306 794.45 551.1982C 794.2816 551.5659 794.1973 551.9797 794.1973 552.4397C 794.1973 553.0227 794.2823 553.5112 794.4522 553.9053C 794.6221 554.2993 794.8777 554.6084 795.2191 554.8325C 795.5604 555.0566 795.9464 555.1746 796.377 555.1863z" stroke="none" fill="#353231" fill-rule="evenodd" /><path id="330" transform="matrix(1 0 0 -1 0 612)" d="M795.0147 547.2673L794.316 547.153C 794.2691 547.3757 794.2457 547.5749 794.2457 547.7507C 794.2457 548.0378 794.2911 548.2604 794.3819 548.4186C 794.4727 548.5768 794.5921 548.6882 794.7401 548.7526C 794.888 548.8171 795.1993 548.8493 795.6739 548.8493L795.6739 548.8493L798.3589 548.8493L798.3589 548.8493L798.3589 549.4294L798.3589 549.4294L798.9742 549.4294L798.9742 549.4294L798.9742 548.8493L798.9742 548.8493L800.1299 548.8493L800.1299 548.8493L800.6046 548.0627L800.6046 548.0627L798.9742 548.0627L798.9742 548.0627L798.9742 547.2673L798.9742 547.2673L798.3589 547.2673L798.3589 547.2673L798.3589 548.0627L798.3589 548.0627L795.6299 548.0627C 795.4044 548.0627 795.2593 548.0488 795.1949 548.0209C 795.1304 547.9931 795.0792 547.9477 795.0411 547.8847C 795.003 547.8217 794.9839 547.7316 794.9839 547.6144C 794.9839 547.5266 794.9942 547.4108 795.0147 547.2673z" stroke="none" fill="#353231" fill-rule="evenodd" /><path id="331" transform="matrix(1 0 0 -1 0 612)" d="M794.8829 543.4469C 794.3848 544.0328 794.2017 544.5441 794.2017 545.1652C 794.2017 546.1906 794.7584 546.7604 795.5377 546.7604C 795.7662 546.7604 795.9749 546.7084 796.1639 546.6044C 796.3528 546.5004 796.5045 546.3641 796.6187 546.1957C 796.733 546.0272 796.8194 545.8375 796.878 545.6266C 796.919 545.4713 796.9586 545.2369 796.9966 544.9235C 797.0728 544.2848 797.1636 543.8146 797.2691 543.5128C 797.3775 543.5099 797.4464 543.5084 797.4756 543.5084C 797.7979 543.5084 798.025 543.5831 798.1568 543.7325C 798.3355 543.9347 798.4249 544.235 798.4249 544.6334C 798.4249 545.3776 798.1993 545.6808 797.5372 545.8507L797.5372 545.8507L797.6426 546.6241C 797.9737 546.5538 798.241 546.4381 798.4446 546.277C 798.6483 546.1158 798.805 545.8829 798.9149 545.5782C 799.0247 545.2736 799.0797 544.9205 799.0797 544.5192C 799.0797 544.1207 799.0328 543.797 798.939 543.548C 798.8453 543.299 798.7274 543.1158 798.5853 542.9987C 798.4432 542.8815 798.2637 542.7994 798.0469 542.7526C 797.9122 542.7262 797.669 542.713 797.3174 542.713L797.3174 542.713L796.2628 542.713C 794.7921 542.713 794.6646 542.6617 794.3072 542.4625L794.3072 542.4625L794.3072 543.2887C 794.4713 543.3707 794.6631 543.4235 794.8829 543.4469zM796.6495 543.5128C 796.5323 543.7999 796.4327 544.2306 796.3506 544.8048C 796.3038 545.13 796.251 545.36 796.1924 545.4948C 796.1339 545.6295 796.0482 545.7335 795.9354 545.8068C 795.8226 545.88 795.6973 545.9166 795.5596 545.9166C 795.1378 545.9166 794.8214 545.5914 794.8214 544.9762C 794.8214 544.3668 795.1055 543.8629 795.5684 543.6403C 795.7471 543.5553 796.0108 543.5128 796.3594 543.5128z" stroke="none" fill="#353231" fill-rule="evenodd" /><path id="332" transform="matrix(1 0 0 -1 0 612)" d="M794.3072 541.4971L798.9742 541.4971L798.9742 541.4971L798.9742 540.7852L798.9742 540.7852L798.2667 540.7852C 798.9288 540.4219 799.0797 540.1436 799.0797 539.7745C 799.0797 539.5079 798.9947 539.2369 798.8248 538.9615L798.8248 538.9615L798.0909 539.2339C 798.2051 539.4273 798.2623 539.6207 798.2623 539.814C 798.2623 540.1597 798.0425 540.4571 797.6734 540.5743C 797.3922 540.6622 797.0845 540.7061 796.7505 540.7061L796.7505 540.7061L794.3072 540.7061z" stroke="none" fill="#353231" fill-rule="evenodd" /><path id="333" transform="matrix(1 0 0 -1 0 612)" d="M794.3072 538.5001L798.9742 538.5001L798.9742 538.5001L798.9742 537.7882L798.9742 537.7882L798.2667 537.7882C 798.9288 537.4249 799.0797 537.1466 799.0797 536.7775C 799.0797 536.5109 798.9947 536.2399 798.8248 535.9645L798.8248 535.9645L798.0909 536.2369C 798.2051 536.4303 798.2623 536.6237 798.2623 536.817C 798.2623 537.1627 798.0425 537.4601 797.6734 537.5773C 797.3922 537.6652 797.0845 537.7091 796.7505 537.7091L796.7505 537.7091L794.3072 537.7091z" stroke="none" fill="#353231" fill-rule="evenodd" /><path id="334" transform="matrix(1 0 0 -1 0 612)" d="M792.5098 535.5295L793.2525 535.6174C 793.2056 535.4445 793.1822 535.2936 793.1822 535.1647C 793.1822 534.8132 793.3052 534.6183 793.5162 534.4836C 793.5953 534.4338 793.7916 534.3532 794.105 534.2419C 794.149 534.2272 794.2134 534.2038 794.2984 534.1716L794.2984 534.1716L798.9742 535.9426L798.9742 535.9426L798.9742 535.09L798.9742 535.09L796.2715 534.1188C 795.9288 533.9929 795.5684 533.8801 795.1905 533.7805C 795.5538 533.6896 795.9083 533.5812 796.254 533.4553L796.254 533.4553L798.9742 532.4577L798.9742 532.4577L798.9742 531.6667L798.9742 531.6667L794.2281 533.4421C 793.7154 533.6325 793.3624 533.7805 793.169 533.8859C 792.6475 534.1672 792.4131 534.5158 792.4131 535.0197C 792.4131 535.1721 792.4454 535.342 792.5098 535.5295z" stroke="none" fill="#353231" fill-rule="evenodd" /><path id="336" transform="matrix(1 0 0 -1 0 612)" d="M795.7003 528.8087L795.8233 528.0265C 795.1964 527.9386 794.8521 527.5387 794.8521 526.818C 794.8521 526.0914 795.1964 525.7457 795.5948 525.7457C 795.7735 525.7457 795.9141 525.8234 796.0167 525.9786C 796.087 526.087 796.1763 526.3566 796.2847 526.7872C 796.4312 527.3673 796.5579 527.7694 796.6649 527.9935C 796.7718 528.2177 796.9197 528.3876 797.1087 528.5033C 797.2977 528.619 797.5064 528.6769 797.7349 528.6769C 798.1509 528.6769 798.5201 528.4733 798.7545 528.1451C 798.9361 527.899 799.0797 527.4449 799.0797 526.9586C 799.0797 526.5924 799.0269 526.2709 798.9214 525.994C 798.816 525.7172 798.6732 525.5128 798.493 525.381C 798.3128 525.2491 798.0718 525.1583 797.7701 525.1085L797.7701 525.1085L797.6646 525.882C 798.1451 525.9523 798.4293 526.2863 798.4293 526.9015C 798.4293 527.6281 798.1495 527.9122 797.8272 527.9122C 797.7247 527.9122 797.6324 527.88 797.5504 527.8156C 797.4654 527.7511 797.3951 527.65 797.3394 527.5123C 797.3101 527.4332 797.2427 527.2003 797.1373 526.8136C 796.9879 526.254 796.8655 525.8636 796.7703 525.6425C 796.6751 525.4213 796.5367 525.2477 796.355 525.1217C 796.1734 524.9957 795.9478 524.9327 795.6783 524.9327C 795.4146 524.9327 795.1663 525.0096 794.9334 525.1635C 794.7005 525.3173 794.5203 525.5392 794.3929 525.8292C 794.2654 526.1193 794.2017 526.4474 794.2017 526.8136C 794.2017 528.0265 794.71 528.6329 795.7003 528.8087z" stroke="none" fill="#353231" fill-rule="evenodd" /><path id="337" transform="matrix(1 0 0 -1 0 612)" d="M794.3072 523.9879L800.7496 523.9879L800.7496 523.9879L800.7496 523.1969L800.7496 523.1969L797.0757 523.1969L797.0757 523.1969L798.9742 521.3248L798.9742 521.3248L798.9742 520.3009L798.9742 520.3009L797.2427 522.0851L797.2427 522.0851L794.3072 520.1207L794.3072 520.1207L794.3072 521.0963L794.3072 521.0963L796.6934 522.6388L796.6934 522.6388L796.1573 523.1969L796.1573 523.1969L794.3072 523.1969z" stroke="none" fill="#353231" fill-rule="evenodd" /><path id="338" transform="matrix(1 0 0 -1 0 612)" d="M792.5098 519.5275L793.2525 519.6154C 793.2056 519.4425 793.1822 519.2916 793.1822 519.1627C 793.1822 518.8112 793.3052 518.6163 793.5162 518.4816C 793.5953 518.4318 793.7916 518.3512 794.105 518.2399C 794.149 518.2252 794.2134 518.2018 794.2984 518.1696L794.2984 518.1696L798.9742 519.9406L798.9742 519.9406L798.9742 519.088L798.9742 519.088L796.2715 518.1168C 795.9288 517.9908 795.5684 517.8781 795.1905 517.7784C 795.5538 517.6876 795.9083 517.5792 796.254 517.4532L796.254 517.4532L798.9742 516.4557L798.9742 516.4557L798.9742 515.6647L798.9742 515.6647L794.2281 517.4401C 793.7154 517.6305 793.3624 517.7784 793.169 517.8839C 792.6475 518.1652 792.4131 518.5138 792.4131 519.0177C 792.4131 519.17 792.4454 519.34 792.5098 519.5275z" stroke="none" fill="#353231" fill-rule="evenodd" /><path id="340" transform="matrix(1 0 0 -1 0 612)" d="M794.8829 509.4449C 794.3848 510.0308 794.2017 510.5421 794.2017 511.1632C 794.2017 512.1885 794.7584 512.7584 795.5377 512.7584C 795.7662 512.7584 795.9749 512.7064 796.1639 512.6024C 796.3528 512.4984 796.5045 512.3621 796.6187 512.1937C 796.733 512.0252 796.8194 511.8355 796.878 511.6246C 796.919 511.4693 796.9586 511.2349 796.9966 510.9215C 797.0728 510.2828 797.1636 509.8126 797.2691 509.5108C 797.3775 509.5079 797.4464 509.5064 797.4756 509.5064C 797.7979 509.5064 798.025 509.5811 798.1568 509.7306C 798.3355 509.9327 798.4249 510.233 798.4249 510.6314C 798.4249 511.3755 798.1993 511.6788 797.5372 511.8487L797.5372 511.8487L797.6426 512.6221C 797.9737 512.5518 798.241 512.4361 798.4446 512.275C 798.6483 512.1138 798.805 511.8809 798.9149 511.5763C 799.0247 511.2716 799.0797 510.9185 799.0797 510.5172C 799.0797 510.1187 799.0328 509.795 798.939 509.546C 798.8453 509.2969 798.7274 509.1139 798.5853 508.9967C 798.4432 508.8795 798.2637 508.7975 798.0469 508.7506C 797.9122 508.7242 797.669 508.711 797.3174 508.711L797.3174 508.711L796.2628 508.711C 794.7921 508.711 794.6646 508.6597 794.3072 508.4605L794.3072 508.4605L794.3072 509.2867C 794.4713 509.3687 794.6631 509.4215 794.8829 509.4449zM796.6495 509.5108C 796.5323 509.7979 796.4327 510.2286 796.3506 510.8028C 796.3038 511.128 796.251 511.358 796.1924 511.4928C 796.1339 511.6275 796.0482 511.7315 795.9354 511.8048C 795.8226 511.878 795.6973 511.9146 795.5596 511.9146C 795.1378 511.9146 794.8214 511.5894 794.8214 510.9742C 794.8214 510.3648 795.1055 509.8609 795.5684 509.6383C 795.7471 509.5533 796.0108 509.5108 796.3594 509.5108z" stroke="none" fill="#353231" fill-rule="evenodd" /><path id="341" transform="matrix(1 0 0 -1 0 612)" d="M794.3072 507.2974L798.3589 507.2974L798.3589 507.2974L798.3589 507.9961L798.3589 507.9961L798.9742 507.9961L798.9742 507.9961L798.9742 507.2974L798.9742 507.2974L799.4708 507.2974C 799.7842 507.2974 800.0172 507.2695 800.1695 507.2139C 800.5797 507.0615 800.8594 506.6968 800.8594 506.0054C 800.8594 505.7827 800.8331 505.5366 800.7803 505.2671L800.7803 505.2671L800.0904 505.3857C 800.1197 505.5498 800.1343 505.7051 800.1343 505.8516C 800.1343 506.332 799.9673 506.5107 799.4048 506.5107L799.4048 506.5107L798.9742 506.5107L798.9742 506.5107L798.9742 505.6011L798.9742 505.6011L798.3589 505.6011L798.3589 505.6011L798.3589 506.5107L798.3589 506.5107L794.3072 506.5107z" stroke="none" fill="#353231" fill-rule="evenodd" /><path id="342" transform="matrix(1 0 0 -1 0 612)" d="M795.0147 503.2573L794.316 503.143C 794.2691 503.3657 794.2457 503.5649 794.2457 503.7407C 794.2457 504.0278 794.2911 504.2504 794.3819 504.4086C 794.4727 504.5668 794.5921 504.6782 794.7401 504.7426C 794.888 504.8071 795.1993 504.8393 795.6739 504.8393L795.6739 504.8393L798.3589 504.8393L798.3589 504.8393L798.3589 505.4194L798.3589 505.4194L798.9742 505.4194L798.9742 505.4194L798.9742 504.8393L798.9742 504.8393L800.1299 504.8393L800.1299 504.8393L800.6046 504.0527L800.6046 504.0527L798.9742 504.0527L798.9742 504.0527L798.9742 503.2573L798.9742 503.2573L798.3589 503.2573L798.3589 503.2573L798.3589 504.0527L798.3589 504.0527L795.6299 504.0527C 795.4044 504.0527 795.2593 504.0388 795.1949 504.0109C 795.1304 503.9831 795.0792 503.9377 795.0411 503.8747C 795.003 503.8117 794.9839 503.7216 794.9839 503.6044C 794.9839 503.5165 794.9942 503.4008 795.0147 503.2573z" stroke="none" fill="#353231" fill-rule="evenodd" /><path id="343" transform="matrix(1 0 0 -1 0 612)" d="M795.8101 499.2875L795.709 498.4701C 794.754 498.7279 794.2017 499.4384 794.2017 500.5223C 794.2017 501.8876 795.0836 502.746 796.6011 502.746C 798.1714 502.746 799.0797 501.8553 799.0797 500.5663C 799.0797 499.3182 798.1905 498.4437 796.6495 498.4437C 796.6026 498.4437 796.5323 498.4452 796.4385 498.4481L796.4385 498.4481L796.4385 501.9286C 795.4131 501.87 794.8521 501.2972 794.8521 500.5179C 794.8521 499.9379 795.1422 499.5277 795.8101 499.2875zM797.0889 501.8846L797.0889 499.2787C 797.4815 499.3138 797.7759 499.4135 797.9722 499.5775C 798.2769 499.8295 798.4293 500.1561 798.4293 500.5575C 798.4293 501.2841 797.9034 501.8319 797.0889 501.8846z" stroke="none" fill="#353231" fill-rule="evenodd" /><path id="344" transform="matrix(1 0 0 -1 0 612)" d="M794.3072 497.4871L798.9742 497.4871L798.9742 497.4871L798.9742 496.7752L798.9742 496.7752L798.2667 496.7752C 798.9288 496.4119 799.0797 496.1336 799.0797 495.7645C 799.0797 495.4978 798.9947 495.2269 798.8248 494.9515L798.8248 494.9515L798.0909 495.2239C 798.2051 495.4173 798.2623 495.6107 798.2623 495.804C 798.2623 496.1497 798.0425 496.4471 797.6734 496.5643C 797.3922 496.6522 797.0845 496.6961 796.7505 496.6961L796.7505 496.6961L794.3072 496.6961z" stroke="none" fill="#353231" fill-rule="evenodd" /><path id="346" transform="matrix(1 0 0 -1 0 612)" d="M794.8829 488.9339C 794.3848 489.5198 794.2017 490.0311 794.2017 490.6522C 794.2017 491.6776 794.7584 492.2474 795.5377 492.2474C 795.7662 492.2474 795.9749 492.1954 796.1639 492.0914C 796.3528 491.9874 796.5045 491.8511 796.6187 491.6827C 796.733 491.5142 796.8194 491.3245 796.878 491.1136C 796.919 490.9583 796.9586 490.7239 796.9966 490.4105C 797.0728 489.7718 797.1636 489.3016 797.2691 488.9998C 797.3775 488.9969 797.4464 488.9954 797.4756 488.9954C 797.7979 488.9954 798.025 489.0701 798.1568 489.2195C 798.3355 489.4217 798.4249 489.722 798.4249 490.1204C 798.4249 490.8646 798.1993 491.1678 797.5372 491.3377L797.5372 491.3377L797.6426 492.1111C 797.9737 492.0408 798.241 491.9251 798.4446 491.764C 798.6483 491.6028 798.805 491.3699 798.9149 491.0652C 799.0247 490.7606 799.0797 490.4075 799.0797 490.0062C 799.0797 489.6077 799.0328 489.284 798.939 489.035C 798.8453 488.7859 798.7274 488.6028 798.5853 488.4857C 798.4432 488.3685 798.2637 488.2864 798.0469 488.2396C 797.9122 488.2132 797.669 488.2 797.3174 488.2L797.3174 488.2L796.2628 488.2C 794.7921 488.2 794.6646 488.1487 794.3072 487.9495L794.3072 487.9495L794.3072 488.7757C 794.4713 488.8577 794.6631 488.9105 794.8829 488.9339zM796.6495 488.9998C 796.5323 489.2869 796.4327 489.7176 796.3506 490.2918C 796.3038 490.617 796.251 490.847 796.1924 490.9818C 796.1339 491.1165 796.0482 491.2205 795.9354 491.2938C 795.8226 491.367 795.6973 491.4036 795.5596 491.4036C 795.1378 491.4036 794.8214 491.0784 794.8214 490.4632C 794.8214 489.8538 795.1055 489.3499 795.5684 489.1273C 795.7471 489.0423 796.0108 488.9998 796.3594 488.9998z" stroke="none" fill="#353231" fill-rule="evenodd" /><path id="348" transform="matrix(1 0 0 -1 0 612)" d="M794.3072 484.4821L798.9742 484.4821L798.9742 484.4821L798.9742 483.7702L798.9742 483.7702L798.2667 483.7702C 798.9288 483.4069 799.0797 483.1286 799.0797 482.7595C 799.0797 482.4929 798.9947 482.2219 798.8248 481.9465L798.8248 481.9465L798.0909 482.2189C 798.2051 482.4123 798.2623 482.6057 798.2623 482.799C 798.2623 483.1447 798.0425 483.4421 797.6734 483.5593C 797.3922 483.6472 797.0845 483.6911 796.7505 483.6911L796.7505 483.6911L794.3072 483.6911z" stroke="none" fill="#353231" fill-rule="evenodd" /><path id="349" transform="matrix(1 0 0 -1 0 612)" d="M794.8829 478.4309C 794.3848 479.0168 794.2017 479.5281 794.2017 480.1492C 794.2017 481.1746 794.7584 481.7444 795.5377 481.7444C 795.7662 481.7444 795.9749 481.6924 796.1639 481.5884C 796.3528 481.4844 796.5045 481.3481 796.6187 481.1797C 796.733 481.0112 796.8194 480.8215 796.878 480.6106C 796.919 480.4553 796.9586 480.2209 796.9966 479.9075C 797.0728 479.2688 797.1636 478.7986 797.2691 478.4968C 797.3775 478.4939 797.4464 478.4924 797.4756 478.4924C 797.7979 478.4924 798.025 478.5671 798.1568 478.7166C 798.3355 478.9187 798.4249 479.219 798.4249 479.6174C 798.4249 480.3616 798.1993 480.6648 797.5372 480.8347L797.5372 480.8347L797.6426 481.6082C 797.9737 481.5378 798.241 481.4221 798.4446 481.261C 798.6483 481.0999 798.805 480.8669 798.9149 480.5623C 799.0247 480.2576 799.0797 479.9045 799.0797 479.5032C 799.0797 479.1047 799.0328 478.781 798.939 478.532C 798.8453 478.283 798.7274 478.0999 798.5853 477.9827C 798.4432 477.8655 798.2637 477.7834 798.0469 477.7366C 797.9122 477.7102 797.669 477.697 797.3174 477.697L797.3174 477.697L796.2628 477.697C 794.7921 477.697 794.6646 477.6458 794.3072 477.4465L794.3072 477.4465L794.3072 478.2727C 794.4713 478.3547 794.6631 478.4075 794.8829 478.4309zM796.6495 478.4968C 796.5323 478.7839 796.4327 479.2146 796.3506 479.7888C 796.3038 480.114 796.251 480.344 796.1924 480.4788C 796.1339 480.6135 796.0482 480.7175 795.9354 480.7908C 795.8226 480.864 795.6973 480.9006 795.5596 480.9006C 795.1378 480.9006 794.8214 480.5754 794.8214 479.9602C 794.8214 479.3508 795.1055 478.8469 795.5684 478.6243C 795.7471 478.5393 796.0108 478.4968 796.3594 478.4968z" stroke="none" fill="#353231" fill-rule="evenodd" /><path id="350" transform="matrix(1 0 0 -1 0 612)" d="M799.8399 476.4679L800.7496 476.4679L800.7496 476.4679L800.7496 475.6769L800.7496 475.6769L799.8399 475.6769zM794.3072 476.4679L798.9742 476.4679L798.9742 476.4679L798.9742 475.6769L798.9742 475.6769L794.3072 475.6769z" stroke="none" fill="#353231" fill-rule="evenodd" /><path id="351" transform="matrix(1 0 0 -1 0 612)" d="M794.3072 474.4743L798.9742 474.4743L798.9742 474.4743L798.9742 473.7624L798.9742 473.7624L798.3106 473.7624C 798.8233 473.4196 799.0797 472.9245 799.0797 472.277C 799.0797 471.9958 799.0291 471.7372 798.928 471.5014C 798.827 471.2656 798.6944 471.0891 798.5303 470.9719C 798.3663 470.8547 798.1714 470.7726 797.9459 470.7258C 797.7994 470.6965 797.543 470.6818 797.1768 470.6818L797.1768 470.6818L794.3072 470.6818L794.3072 470.6818L794.3072 471.4728L794.3072 471.4728L797.1461 471.4728C 797.4683 471.4728 797.7093 471.5036 797.869 471.5651C 798.0286 471.6266 798.1561 471.7358 798.2513 471.8925C 798.3465 472.0493 798.3941 472.2331 798.3941 472.444C 798.3941 473.1179 798.0513 473.6833 796.856 473.6833L796.856 473.6833L794.3072 473.6833z" stroke="none" fill="#353231" fill-rule="evenodd" /><path id="352" transform="matrix(1 0 0 -1 0 612)" d="M792.5098 469.5055L793.2525 469.5934C 793.2056 469.4205 793.1822 469.2696 793.1822 469.1407C 793.1822 468.7892 793.3052 468.5943 793.5162 468.4596C 793.5953 468.4098 793.7916 468.3292 794.105 468.2179C 794.149 468.2032 794.2134 468.1798 794.2984 468.1476L794.2984 468.1476L798.9742 469.9185L798.9742 469.9185L798.9742 469.066L798.9742 469.066L796.2715 468.0948C 795.9288 467.9688 795.5684 467.856 795.1905 467.7564C 795.5538 467.6656 795.9083 467.5572 796.254 467.4312L796.254 467.4312L798.9742 466.4337L798.9742 466.4337L798.9742 465.6427L798.9742 465.6427L794.2281 467.4181C 793.7154 467.6085 793.3624 467.7564 793.169 467.8619C 792.6475 468.1432 792.4131 468.4918 792.4131 468.9957C 792.4131 469.148 792.4454 469.318 792.5098 469.5055z" stroke="none" fill="#353231" fill-rule="evenodd" /><path id="354" transform="matrix(1 0 0 -1 0 612)" d="M794.3072 462.4683L798.9742 462.4683L798.9742 462.4683L798.9742 461.7564L798.9742 461.7564L798.3106 461.7564C 798.8233 461.4136 799.0797 460.9185 799.0797 460.2711C 799.0797 459.9898 799.0291 459.7313 798.928 459.4954C 798.827 459.2596 798.6944 459.0831 798.5303 458.9659C 798.3663 458.8487 798.1714 458.7667 797.9459 458.7198C 797.7994 458.6905 797.543 458.6758 797.1768 458.6758L797.1768 458.6758L794.3072 458.6758L794.3072 458.6758L794.3072 459.4669L794.3072 459.4669L797.1461 459.4669C 797.4683 459.4669 797.7093 459.4976 797.869 459.5591C 798.0286 459.6207 798.1561 459.7298 798.2513 459.8865C 798.3465 460.0433 798.3941 460.2271 798.3941 460.438C 798.3941 461.1119 798.0513 461.6773 796.856 461.6773L796.856 461.6773L794.3072 461.6773z" stroke="none" fill="#353231" fill-rule="evenodd" /><path id="355" transform="matrix(1 0 0 -1 0 612)" d="M799.8399 457.4599L800.7496 457.4599L800.7496 457.4599L800.7496 456.6689L800.7496 456.6689L799.8399 456.6689zM794.3072 457.4599L798.9742 457.4599L798.9742 457.4599L798.9742 456.6689L798.9742 456.6689L794.3072 456.6689z" stroke="none" fill="#353231" fill-rule="evenodd" /><path id="356" transform="matrix(1 0 0 -1 0 612)" d="M793.9205 455.6113L793.8062 454.8423C 793.5689 454.8101 793.3961 454.7207 793.2877 454.5742C 793.1412 454.3779 793.0679 454.1099 793.0679 453.77C 793.0679 453.0376 793.3755 452.6582 793.9029 452.5176C 794.064 452.4766 794.4024 452.4575 794.918 452.4604C 794.5108 452.8062 794.3072 453.2368 794.3072 453.7524C 794.3072 455.0356 795.3721 455.7695 796.6671 455.7695C 797.1124 455.7695 797.5233 455.689 797.8997 455.5278C 798.2762 455.3667 798.567 455.1331 798.772 454.8269C 798.9771 454.5208 799.0797 454.1611 799.0797 453.748C 799.0797 453.1973 798.857 452.7432 798.4117 452.3857L798.4117 452.3857L798.9742 452.3857L798.9742 452.3857L798.9742 451.6563L798.9742 451.6563L794.94 451.6563C 794.2134 451.6563 793.6985 451.7302 793.3953 451.8782C 793.0921 452.0261 792.8526 452.2605 792.6768 452.5813C 792.501 452.9021 792.4131 453.2969 792.4131 453.7656C 792.4131 454.8789 792.9127 455.6348 793.9205 455.6113zM796.7242 454.9565C 795.4996 454.9565 794.962 454.4102 794.962 453.6777C 794.962 452.9512 795.5025 452.3945 796.6978 452.3945C 797.8404 452.3945 798.4249 452.9761 798.4249 453.6909C 798.4249 454.394 797.8492 454.9565 796.7242 454.9565z" stroke="none" fill="#353231" fill-rule="evenodd" /><path id="357" transform="matrix(1 0 0 -1 0 612)" d="M794.3072 450.4623L800.7496 450.4623L800.7496 450.4623L800.7496 449.6713L800.7496 449.6713L798.438 449.6713C 798.8658 449.3022 799.0797 448.8363 799.0797 448.2738C 799.0797 447.9281 799.0115 447.6278 798.8753 447.373C 798.7391 447.1181 798.5508 446.9357 798.3106 446.8258C 798.0704 446.716 797.7217 446.661 797.2647 446.661L797.2647 446.661L794.3072 446.661L794.3072 446.661L794.3072 447.4521L794.3072 447.4521L797.2647 447.4521C 798.0557 447.4521 798.3985 447.8095 798.3985 448.4364C 798.3985 448.6708 798.3377 448.8913 798.2161 449.0978C 798.0945 449.3044 797.9297 449.4516 797.7217 449.5395C 797.5137 449.6273 797.2266 449.6713 796.8604 449.6713L796.8604 449.6713L794.3072 449.6713z" stroke="none" fill="#353231" fill-rule="evenodd" /><path id="358" transform="matrix(1 0 0 -1 0 612)" d="M795.0147 443.7313L794.316 443.617C 794.2691 443.8397 794.2457 444.0389 794.2457 444.2147C 794.2457 444.5018 794.2911 444.7244 794.3819 444.8826C 794.4727 445.0408 794.5921 445.1522 794.7401 445.2166C 794.888 445.2811 795.1993 445.3133 795.6739 445.3133L795.6739 445.3133L798.3589 445.3133L798.3589 445.3133L798.3589 445.8934L798.3589 445.8934L798.9742 445.8934L798.9742 445.8934L798.9742 445.3133L798.9742 445.3133L800.1299 445.3133L800.1299 445.3133L800.6046 444.5267L800.6046 444.5267L798.9742 444.5267L798.9742 444.5267L798.9742 443.7313L798.9742 443.7313L798.3589 443.7313L798.3589 443.7313L798.3589 444.5267L798.3589 444.5267L795.6299 444.5267C 795.4044 444.5267 795.2593 444.5128 795.1949 444.4849C 795.1304 444.4571 795.0792 444.4117 795.0411 444.3487C 795.003 444.2857 794.9839 444.1956 794.9839 444.0784C 794.9839 443.9905 794.9942 443.8748 795.0147 443.7313z" stroke="none" fill="#353231" fill-rule="evenodd" /><g clip-path="url(#5)"><g transform="matrix(0.2399723 0 0 0.2399437 435.4489 61.14429)"><g transform="matrix(1 0 0 1 0 0)"><image x="0" y="0" xlink:href="img_10.png" width="1407" height="822" /></g></g></g><g clip-path="url(#6)"><g transform="matrix(0.2398376 0 0 0.2397772 285.5422 265.2543)"><g transform="matrix(1 0 0 1 0 0)"><image x="0" y="0" xlink:href="img_11.png" width="575" height="513" /></g></g></g></g></g></svg>