<svg xmlns="http://www.w3.org/2000/svg" xmlns:xlink="http://www.w3.org/1999/xlink" id="body_9" preserveAspectRatio="xMinYMin meet" viewBox="0 0 1144 816"><defs><clipPath id="1"><path id="" clip-rule="evenodd" transform="matrix(1 0 0 1 0 0)" d="M0 612L0 -0.28302L0 -0.28302L858.898 -0.28302L858.898 -0.28302L858.898 612L858.898 612L0 612z" /></clipPath><clipPath id="2"><path id="" clip-rule="evenodd" transform="matrix(1 0 0 1 0 0)" d="M0 -0.28302L858.898 -0.28302L858.898 -0.28302L858.898 612L858.898 612L0 612z" /></clipPath><clipPath id="3"><path id="" clip-rule="evenodd" transform="matrix(1 0 0 1 0 0)" d="M78.684 56.409L802.206 56.409L802.206 56.409L802.206 555.306L802.206 555.306L78.684 555.306z" /></clipPath></defs><g transform="matrix(1.333333 0 0 1.333333 0 0)"><g clip-path="url(#1)"><g clip-path="url(#2)"><path id="1" transform="matrix(1 0 0 -1 0 612)" d="M65.2581 139.6837L58.0999 139.6837L58.0999 139.6837L58.0999 142.8576C 58.0999 143.4956 58.16419 143.9806 58.29277 144.3126C 58.42135 144.6447 58.6484 144.91 58.97392 145.1085C 59.29944 145.3071 59.65915 145.4064 60.05302 145.4064C 61.06865 145.4064 61.81247 144.7635 62.00127 143.3898C 62.12171 143.6404 62.24052 143.8309 62.35771 143.9611C 62.61162 144.2378 62.929 144.4998 63.30986 144.7472L63.30986 144.7472L65.2581 145.9923L65.2581 145.9923L65.2581 144.8009L65.2581 144.8009L63.76884 143.8537C 63.33916 143.577 63.01038 143.3491 62.78252 143.1701C 62.55465 142.991 62.39515 142.8307 62.304 142.6891C 62.21286 142.5475 62.14938 142.4035 62.11357 142.257C 62.09079 142.1496 62.07939 141.9738 62.07939 141.7296L62.07939 141.7296L62.07939 140.631L62.07939 140.631L65.2581 140.631zM61.25908 140.631L61.25908 142.6671C 61.25908 143.1001 61.21432 143.4386 61.1248 143.6828C 61.03528 143.9269 60.89206 144.1124 60.69511 144.2394C 60.49817 144.3663 60.28415 144.4298 60.05302 144.4298C 59.37594 144.4298 58.89091 143.9578 58.89091 142.8966L58.89091 142.8966L58.89091 140.631z" stroke="none" fill="#353231" fill-rule="evenodd" /><path id="2" transform="matrix(1 0 0 -1 0 612)" d="M65.2581 150.1752L64.49638 150.1752C 65.08232 149.7716 65.37529 149.2231 65.37529 148.5297C 65.37529 148.2237 65.3167 147.9381 65.19951 147.6728C 65.08232 147.4075 64.93502 147.2105 64.75761 147.082C 64.58021 146.9534 64.36292 146.863 64.10576 146.811C 63.93323 146.7751 63.65979 146.7572 63.28545 146.7572L63.28545 146.7572L60.07256 146.7572L60.07256 146.7572L60.07256 147.6362L60.07256 147.6362L62.94853 147.6362C 63.40752 147.6362 63.71676 147.6541 63.87627 147.6899C 64.33851 147.8005 64.61845 148.1781 64.61845 148.7055C 64.61845 148.9692 64.55091 149.2166 64.41582 149.4477C 64.28072 149.6788 64.09681 149.8424 63.86406 149.9384C 63.63131 150.0344 63.29358 150.0824 62.85088 150.0824L62.85088 150.0824L60.07256 150.0824L60.07256 150.0824L60.07256 150.9613L60.07256 150.9613L65.2581 150.9613z" stroke="none" fill="#353231" fill-rule="evenodd" /><path id="3" transform="matrix(1 0 0 -1 0 612)" d="M62.66533 152.0096C 61.70504 152.0096 60.99378 152.2766 60.53154 152.8104C 60.14743 153.2564 59.95537 153.8 59.95537 154.4413C 59.95537 155.8671 60.94495 156.868 62.59209 156.868C 63.2594 156.868 63.78431 156.7679 64.16679 156.5677C 64.54928 156.3675 64.84632 156.0762 65.05791 155.6937C 65.26949 155.3112 65.37529 154.8937 65.37529 154.4413C 65.37529 152.9894 64.41663 152.0096 62.66533 152.0096zM62.66533 152.9129C 63.99345 152.9129 64.65263 153.5624 64.65263 154.4413C 64.65263 155.3137 63.99671 155.9647 62.63603 155.9647C 61.35348 155.9647 60.68291 155.3072 60.68291 154.4413C 60.68291 153.5624 61.3372 152.9129 62.66533 152.9129z" stroke="none" fill="#353231" fill-rule="evenodd" /><path id="4" transform="matrix(1 0 0 -1 0 612)" d="M63.35869 161.2806L63.47099 162.1448C 64.6624 161.956 65.37529 161.1194 65.37529 159.9866C 65.37529 158.5674 64.41663 157.6282 62.68486 157.6282C 62.12497 157.6282 61.63506 157.721 61.21513 157.9065C 60.79521 158.0921 60.48027 158.3745 60.27031 158.7537C 60.06035 159.1329 59.95537 159.5455 59.95537 159.9915C 59.95537 161.1178 60.54782 161.86 61.59599 162.0618L61.59599 162.0618L61.72783 161.2073C 61.03122 161.0446 60.67802 160.6116 60.67802 160.0257C 60.67802 159.1403 61.28675 158.5315 62.66045 158.5315C 64.05367 158.5315 64.65263 159.1175 64.65263 159.9769C 64.65263 160.667 64.23759 161.1569 63.35869 161.2806z" stroke="none" fill="#353231" fill-rule="evenodd" /><path id="5" transform="matrix(1 0 0 -1 0 612)" d="M65.2581 162.8968L58.0999 162.8968L58.0999 162.8968L58.0999 163.7757L58.0999 163.7757L60.66826 163.7757C 60.193 164.1858 59.95537 164.7034 59.95537 165.3284C 59.95537 165.7125 60.03105 166.0462 60.18242 166.3294C 60.33379 166.6126 60.54293 166.8152 60.80986 166.9373C 61.07679 167.0594 61.46416 167.1204 61.97197 167.1204L61.97197 167.1204L65.2581 167.1204L65.2581 167.1204L65.2581 166.2415L65.2581 166.2415L61.97197 166.2415C 61.09306 166.2415 60.7122 165.8444 60.7122 165.1478C 60.7122 164.8873 60.77975 164.6424 60.91484 164.4129C 61.04993 164.1834 61.23304 164.0198 61.46416 163.9222C 61.69528 163.8245 62.01429 163.7757 62.42119 163.7757L62.42119 163.7757L65.2581 163.7757z" stroke="none" fill="#353231" fill-rule="evenodd" /><path id="6" transform="matrix(1 0 0 -1 0 612)" d="M62.66533 168.1296C 61.70504 168.1296 60.99378 168.3966 60.53154 168.9304C 60.14743 169.3764 59.95537 169.92 59.95537 170.5613C 59.95537 171.9871 60.94495 172.988 62.59209 172.988C 63.2594 172.988 63.78431 172.8879 64.16679 172.6877C 64.54928 172.4875 64.84632 172.1962 65.05791 171.8137C 65.26949 171.4312 65.37529 171.0137 65.37529 170.5613C 65.37529 169.1095 64.41663 168.1296 62.66533 168.1296zM62.66533 169.033C 63.99345 169.033 64.65263 169.6824 64.65263 170.5613C 64.65263 171.4337 63.99671 172.0847 62.63603 172.0847C 61.35348 172.0847 60.68291 171.4272 60.68291 170.5613C 60.68291 169.6824 61.3372 169.033 62.66533 169.033z" stroke="none" fill="#353231" fill-rule="evenodd" /><path id="7" transform="matrix(1 0 0 -1 0 612)" d="M65.2581 174.0168L60.07256 174.0168L60.07256 174.0168L60.07256 174.8078L60.07256 174.8078L60.80986 174.8078C 60.2402 175.1887 59.95537 175.7388 59.95537 176.4582C 59.95537 176.7707 60.01152 177.058 60.12383 177.32C 60.23613 177.582 60.38343 177.7782 60.56572 177.9084C 60.74801 178.0386 60.96448 178.1297 61.21513 178.1818C 61.3779 178.2144 61.66272 178.2307 62.06963 178.2307L62.06963 178.2307L65.2581 178.2307L65.2581 178.2307L65.2581 177.3517L65.2581 177.3517L62.10381 177.3517C 61.74573 177.3517 61.47799 177.3176 61.30058 177.2492C 61.12317 177.1808 60.98157 177.0596 60.87578 176.8854C 60.76999 176.7113 60.71709 176.507 60.71709 176.2726C 60.71709 175.5239 61.09795 174.8957 62.42607 174.8957L62.42607 174.8957L65.2581 174.8957z" stroke="none" fill="#353231" fill-rule="evenodd" /><path id="8" transform="matrix(1 0 0 -1 0 612)" d="M65.68779 179.4156L65.81474 180.2701C 66.07841 180.3059 66.27047 180.4052 66.39091 180.568C 66.55367 180.7861 66.63506 181.0839 66.63506 181.4615C 66.63506 182.2753 66.29326 182.6969 65.70732 182.8531C 65.52828 182.8987 65.15231 182.9199 64.57939 182.9166C 65.03187 182.5325 65.2581 182.054 65.2581 181.4811C 65.2581 180.0553 64.07484 179.2399 62.63603 179.2399C 62.14124 179.2399 61.6847 179.3294 61.2664 179.5084C 60.84811 179.6875 60.52503 179.9471 60.29716 180.2872C 60.0693 180.6274 59.95537 181.027 59.95537 181.486C 59.95537 182.0979 60.20276 182.6025 60.69756 182.9996L60.69756 182.9996L60.07256 182.9996L60.07256 182.9996L60.07256 183.8102L60.07256 183.8102L64.55498 183.8102C 65.36227 183.8102 65.93437 183.728 66.27129 183.5636C 66.6082 183.3992 66.87431 183.1388 67.06963 182.7823C 67.26494 182.4259 67.36259 181.9873 67.36259 181.4664C 67.36259 180.2294 66.80758 179.3896 65.68779 179.4156zM62.57256 180.1432C 63.93323 180.1432 64.53056 180.7503 64.53056 181.5641C 64.53056 182.3714 63.92998 182.9899 62.60185 182.9899C 61.33232 182.9899 60.68291 182.3437 60.68291 181.5494C 60.68291 180.7682 61.32256 180.1432 62.57256 180.1432z" stroke="none" fill="#353231" fill-rule="evenodd" /></g><path id="9" transform="matrix(1 0 0 -1 0 612)" d="M78.684 56.693L802.205 56.693L802.205 555.591L78.684 555.591z" stroke="none" fill="#E6E6E6" fill-rule="nonzero" /><g clip-path="url(#3)"><g transform="matrix(0.2399513 0 0 0.2399052 77.66795 55.27911)"><g transform="matrix(1 0 0 1 0 0)"><image x="0" y="0" xlink:href="img_23.png" width="3024" height="2089" /></g></g></g><path id="11" transform="matrix(1 0 0 -1 0 612)" d="M62.34647 442.0113L62.27616 442.8155C 62.59843 442.8536 62.86283 442.9422 63.06937 443.0814C 63.27592 443.2205 63.44291 443.4366 63.57035 443.7296C 63.69779 444.0225 63.76151 444.3521 63.76151 444.7183C 63.76151 445.0435 63.71317 445.3306 63.61649 445.5797C 63.51981 445.8287 63.38725 446.014 63.21879 446.1356C 63.05033 446.2571 62.86649 446.3179 62.66727 446.3179C 62.26298 446.3179 61.96268 446.1011 61.75761 445.5621C 61.62284 445.2164 61.29325 443.6461 61.0413 443.1714C 60.71903 442.5562 60.23124 442.2574 59.63944 442.2574C 59.31425 442.2574 59.01029 442.3497 58.72758 442.5342C 58.44486 442.7188 58.23026 442.9883 58.08378 443.3428C 57.93729 443.6973 57.86405 444.0914 57.86405 444.525C 57.86405 445.0025 57.94096 445.4236 58.09476 445.7884C 58.24857 446.1531 58.47489 446.4337 58.77372 446.6299C 59.07255 446.8262 59.41093 446.9317 59.78886 446.9464L59.78886 446.9464L59.85038 446.129C 59.03593 446.0411 58.61552 445.5504 58.61552 444.5601C 58.61552 443.5289 59.04911 443.0792 59.58231 443.0792C 59.81376 443.0792 60.00419 443.1627 60.1536 443.3297C 60.45243 443.6578 60.78934 445.5255 61.02372 446.0411C 61.36942 446.7911 61.90556 447.1397 62.59696 447.1397C 62.93974 447.1397 63.26273 447.0416 63.56596 446.8453C 63.86918 446.649 64.10502 446.367 64.27348 445.9993C 64.44193 445.6317 64.52616 445.2178 64.52616 444.7579C 64.52616 444.1749 64.4412 443.6863 64.27128 443.2923C 64.10136 442.8983 63.84574 442.5892 63.50443 442.3651C 63.16312 442.1409 62.77714 442.023 62.34647 442.0113z" stroke="none" fill="#353332" fill-rule="evenodd" /><path id="12" transform="matrix(1 0 0 -1 0 612)" d="M63.70878 449.9303L64.40751 450.0446C 64.45438 449.8219 64.47782 449.6227 64.47782 449.4469C 64.47782 449.1598 64.43241 448.9371 64.34159 448.7789C 64.25077 448.6207 64.13139 448.5094 63.98344 448.4449C 63.83549 448.3805 63.52421 448.3483 63.0496 448.3483L63.0496 448.3483L60.36454 448.3483L60.36454 448.3483L60.36454 447.7682L60.36454 447.7682L59.74931 447.7682L59.74931 447.7682L59.74931 448.3483L59.74931 448.3483L58.59354 448.3483L58.59354 448.3483L58.11893 449.1349L58.11893 449.1349L59.74931 449.1349L59.74931 449.1349L59.74931 449.9303L59.74931 449.9303L60.36454 449.9303L60.36454 449.9303L60.36454 449.1349L60.36454 449.1349L63.09354 449.1349C 63.31913 449.1349 63.46415 449.1488 63.5286 449.1766C 63.59306 449.2045 63.64433 449.2499 63.68241 449.3129C 63.7205 449.3759 63.73954 449.4659 63.73954 449.5831C 63.73954 449.671 63.72929 449.7867 63.70878 449.9303z" stroke="none" fill="#353332" fill-rule="evenodd" /><path id="13" transform="matrix(1 0 0 -1 0 612)" d="M63.84061 453.7507C 64.33866 453.1647 64.52177 452.6535 64.52177 452.0324C 64.52177 451.007 63.96513 450.4372 63.18583 450.4372C 62.95731 450.4372 62.74857 450.4892 62.55961 450.5932C 62.37064 450.6972 62.21903 450.8334 62.10477 451.0019C 61.99052 451.1703 61.90409 451.36 61.8455 451.571C 61.80448 451.7263 61.76493 451.9606 61.72684 452.2741C 61.65067 452.9128 61.55985 453.383 61.45438 453.6848C 61.34599 453.6877 61.27714 453.6891 61.24784 453.6891C 60.92558 453.6891 60.69852 453.6144 60.56669 453.465C 60.38798 453.2629 60.29862 452.9626 60.29862 452.5641C 60.29862 451.82 60.52421 451.5168 61.18632 451.3469L61.18632 451.3469L61.08085 450.5734C 60.74979 450.6437 60.48246 450.7595 60.27885 450.9206C 60.07523 451.0817 59.9185 451.3146 59.80863 451.6193C 59.69877 451.924 59.64384 452.277 59.64384 452.6784C 59.64384 453.0768 59.69071 453.4006 59.78446 453.6496C 59.87821 453.8986 59.99613 454.0817 60.13822 454.1989C 60.28031 454.3161 60.45975 454.3981 60.67655 454.445C 60.81132 454.4714 61.05448 454.4846 61.40604 454.4846L61.40604 454.4846L62.46073 454.4846C 63.93143 454.4846 64.05888 454.5358 64.4163 454.735L64.4163 454.735L64.4163 453.9089C 64.25224 453.8268 64.06034 453.7741 63.84061 453.7507zM62.07401 453.6848C 62.1912 453.3976 62.29081 452.967 62.37284 452.3928C 62.41972 452.0676 62.47245 451.8376 62.53104 451.7028C 62.58964 451.5681 62.67533 451.4641 62.78812 451.3908C 62.90092 451.3176 63.02616 451.2809 63.16386 451.2809C 63.58573 451.2809 63.90214 451.6061 63.90214 452.2214C 63.90214 452.8307 63.61796 453.3347 63.15507 453.5573C 62.97636 453.6423 62.71268 453.6848 62.36405 453.6848z" stroke="none" fill="#353332" fill-rule="evenodd" /><path id="14" transform="matrix(1 0 0 -1 0 612)" d="M64.4163 455.7005L59.74931 455.7005L59.74931 455.7005L59.74931 456.4124L59.74931 456.4124L60.45683 456.4124C 59.79472 456.7757 59.64384 457.054 59.64384 457.4231C 59.64384 457.6897 59.7288 457.9607 59.89872 458.2361L59.89872 458.2361L60.63261 457.9637C 60.51835 457.7703 60.46122 457.5769 60.46122 457.3836C 60.46122 457.0379 60.68095 456.7405 61.05009 456.6233C 61.33134 456.5354 61.63895 456.4915 61.97294 456.4915L61.97294 456.4915L64.4163 456.4915z" stroke="none" fill="#353332" fill-rule="evenodd" /><path id="15" transform="matrix(1 0 0 -1 0 612)" d="M64.4163 458.6975L59.74931 458.6975L59.74931 458.6975L59.74931 459.4094L59.74931 459.4094L60.45683 459.4094C 59.79472 459.7727 59.64384 460.051 59.64384 460.4201C 59.64384 460.6867 59.7288 460.9577 59.89872 461.2331L59.89872 461.2331L60.63261 460.9607C 60.51835 460.7673 60.46122 460.5739 60.46122 460.3806C 60.46122 460.0349 60.68095 459.7375 61.05009 459.6203C 61.33134 459.5324 61.63895 459.4885 61.97294 459.4885L61.97294 459.4885L64.4163 459.4885z" stroke="none" fill="#353332" fill-rule="evenodd" /><path id="16" transform="matrix(1 0 0 -1 0 612)" d="M66.21366 461.6681L65.47099 461.5802C 65.51786 461.7531 65.5413 461.9039 65.5413 462.0328C 65.5413 462.3844 65.41825 462.5792 65.20731 462.714C 65.12821 462.7638 64.93192 462.8444 64.61845 462.9557C 64.5745 462.9703 64.51005 462.9938 64.42509 463.026L64.42509 463.026L59.74931 461.255L59.74931 461.255L59.74931 462.1075L59.74931 462.1075L62.45194 463.0787C 62.79472 463.2047 63.15507 463.3175 63.533 463.4171C 63.16972 463.5079 62.81522 463.6163 62.46952 463.7423L62.46952 463.7423L59.74931 464.7399L59.74931 464.7399L59.74931 465.5309L59.74931 465.5309L64.4954 463.7555C 65.00809 463.5651 65.36112 463.4171 65.55448 463.3116C 66.07597 463.0304 66.31034 462.6818 66.31034 462.1779C 66.31034 462.0255 66.27811 461.8556 66.21366 461.6681z" stroke="none" fill="#353332" fill-rule="evenodd" /><path id="18" transform="matrix(1 0 0 -1 0 612)" d="M63.02323 468.3889L62.90018 469.1711C 63.52714 469.259 63.87138 469.6589 63.87138 470.3796C 63.87138 471.1061 63.52714 471.4518 63.1287 471.4518C 62.94999 471.4518 62.80936 471.3742 62.70683 471.2189C 62.63651 471.1105 62.54716 470.841 62.43876 470.4103C 62.29227 469.8303 62.16557 469.4282 62.05863 469.204C 61.9517 468.9799 61.80375 468.81 61.61478 468.6943C 61.42582 468.5786 61.21708 468.5207 60.98856 468.5207C 60.57255 468.5207 60.20341 468.7243 59.96903 469.0524C 59.78739 469.2985 59.64384 469.7526 59.64384 470.239C 59.64384 470.6052 59.69657 470.9267 59.80204 471.2036C 59.90751 471.4804 60.05033 471.6848 60.23051 471.8166C 60.41068 471.9484 60.65165 472.0392 60.95341 472.0891L60.95341 472.0891L61.05888 471.3156C 60.57841 471.2453 60.29423 470.9113 60.29423 470.2961C 60.29423 469.5695 60.57401 469.2853 60.89628 469.2853C 60.99882 469.2853 61.0911 469.3176 61.17313 469.382C 61.25809 469.4465 61.32841 469.5475 61.38407 469.6852C 61.41337 469.7643 61.48075 469.9973 61.58622 470.384C 61.73563 470.9435 61.85795 471.3339 61.95316 471.5551C 62.04838 471.7763 62.18681 471.9499 62.36845 472.0759C 62.55009 472.2018 62.77567 472.2648 63.0452 472.2648C 63.30888 472.2648 63.55717 472.1879 63.79008 472.0341C 64.02299 471.8803 64.20316 471.6584 64.3306 471.3683C 64.45805 471.0783 64.52177 470.7502 64.52177 470.384C 64.52177 469.1711 64.01347 468.5646 63.02323 468.3889z" stroke="none" fill="#353332" fill-rule="evenodd" /><path id="19" transform="matrix(1 0 0 -1 0 612)" d="M64.4163 473.2097L57.97392 473.2097L57.97392 473.2097L57.97392 474.0007L57.97392 474.0007L61.64774 474.0007L61.64774 474.0007L59.74931 475.8727L59.74931 475.8727L59.74931 476.8967L59.74931 476.8967L61.48075 475.1125L61.48075 475.1125L64.4163 477.0768L64.4163 477.0768L64.4163 476.1013L64.4163 476.1013L62.03007 474.5588L62.03007 474.5588L62.5662 474.0007L62.5662 474.0007L64.4163 474.0007z" stroke="none" fill="#353332" fill-rule="evenodd" /><path id="20" transform="matrix(1 0 0 -1 0 612)" d="M66.21366 477.6701L65.47099 477.5822C 65.51786 477.7551 65.5413 477.9059 65.5413 478.0349C 65.5413 478.3864 65.41825 478.5812 65.20731 478.716C 65.12821 478.7658 64.93192 478.8464 64.61845 478.9577C 64.5745 478.9724 64.51005 478.9958 64.42509 479.028L64.42509 479.028L59.74931 477.257L59.74931 477.257L59.74931 478.1096L59.74931 478.1096L62.45194 479.0807C 62.79472 479.2067 63.15507 479.3195 63.533 479.4191C 63.16972 479.5099 62.81522 479.6183 62.46952 479.7443L62.46952 479.7443L59.74931 480.7419L59.74931 480.7419L59.74931 481.5329L59.74931 481.5329L64.4954 479.7575C 65.00809 479.5671 65.36112 479.4191 65.55448 479.3137C 66.07597 479.0324 66.31034 478.6838 66.31034 478.1799C 66.31034 478.0275 66.27811 477.8576 66.21366 477.6701z" stroke="none" fill="#353332" fill-rule="evenodd" /><path id="22" transform="matrix(1 0 0 -1 0 612)" d="M63.84061 487.7527C 64.33866 487.1667 64.52177 486.6555 64.52177 486.0344C 64.52177 485.009 63.96513 484.4392 63.18583 484.4392C 62.95731 484.4392 62.74857 484.4912 62.55961 484.5952C 62.37064 484.6992 62.21903 484.8354 62.10477 485.0039C 61.99052 485.1723 61.90409 485.362 61.8455 485.573C 61.80448 485.7282 61.76493 485.9626 61.72684 486.2761C 61.65067 486.9148 61.55985 487.385 61.45438 487.6867C 61.34599 487.6897 61.27714 487.6911 61.24784 487.6911C 60.92558 487.6911 60.69852 487.6164 60.56669 487.467C 60.38798 487.2649 60.29862 486.9646 60.29862 486.5661C 60.29862 485.822 60.52421 485.5188 61.18632 485.3488L61.18632 485.3488L61.08085 484.5754C 60.74979 484.6457 60.48246 484.7614 60.27885 484.9226C 60.07523 485.0837 59.9185 485.3167 59.80863 485.6213C 59.69877 485.926 59.64384 486.2791 59.64384 486.6804C 59.64384 487.0789 59.69071 487.4026 59.78446 487.6516C 59.87821 487.9006 59.99613 488.0837 60.13822 488.2009C 60.28031 488.3181 60.45975 488.4001 60.67655 488.447C 60.81132 488.4734 61.05448 488.4865 61.40604 488.4865L61.40604 488.4865L62.46073 488.4865C 63.93143 488.4865 64.05888 488.5378 64.4163 488.737L64.4163 488.737L64.4163 487.9109C 64.25224 487.8288 64.06034 487.7761 63.84061 487.7527zM62.07401 487.6867C 62.1912 487.3997 62.29081 486.969 62.37284 486.3947C 62.41972 486.0695 62.47245 485.8396 62.53104 485.7048C 62.58964 485.57 62.67533 485.4661 62.78812 485.3928C 62.90092 485.3195 63.02616 485.2829 63.16386 485.2829C 63.58573 485.2829 63.90214 485.6081 63.90214 486.2234C 63.90214 486.8328 63.61796 487.3366 63.15507 487.5593C 62.97636 487.6443 62.71268 487.6867 62.36405 487.6867z" stroke="none" fill="#353332" fill-rule="evenodd" /><path id="23" transform="matrix(1 0 0 -1 0 612)" d="M64.4163 489.9002L60.36454 489.9002L60.36454 489.9002L60.36454 489.2015L60.36454 489.2015L59.74931 489.2015L59.74931 489.2015L59.74931 489.9002L59.74931 489.9002L59.25272 489.9002C 58.93925 489.9002 58.70634 489.928 58.55399 489.9837C 58.14384 490.136 57.86405 490.5008 57.86405 491.1922C 57.86405 491.4149 57.89042 491.6609 57.94315 491.9305L57.94315 491.9305L58.63309 491.8118C 58.6038 491.6478 58.58915 491.4925 58.58915 491.346C 58.58915 490.8655 58.75614 490.6868 59.31864 490.6868L59.31864 490.6868L59.74931 490.6868L59.74931 490.6868L59.74931 491.5965L59.74931 491.5965L60.36454 491.5965L60.36454 491.5965L60.36454 490.6868L60.36454 490.6868L64.4163 490.6868z" stroke="none" fill="#353332" fill-rule="evenodd" /><path id="24" transform="matrix(1 0 0 -1 0 612)" d="M63.70878 493.9403L64.40751 494.0546C 64.45438 493.8319 64.47782 493.6327 64.47782 493.4569C 64.47782 493.1698 64.43241 492.9471 64.34159 492.7889C 64.25077 492.6307 64.13139 492.5194 63.98344 492.455C 63.83549 492.3905 63.52421 492.3583 63.0496 492.3583L63.0496 492.3583L60.36454 492.3583L60.36454 492.3583L60.36454 491.7782L60.36454 491.7782L59.74931 491.7782L59.74931 491.7782L59.74931 492.3583L59.74931 492.3583L58.59354 492.3583L58.59354 492.3583L58.11893 493.1449L58.11893 493.1449L59.74931 493.1449L59.74931 493.1449L59.74931 493.9403L59.74931 493.9403L60.36454 493.9403L60.36454 493.9403L60.36454 493.1449L60.36454 493.1449L63.09354 493.1449C 63.31913 493.1449 63.46415 493.1588 63.5286 493.1866C 63.59306 493.2145 63.64433 493.2599 63.68241 493.3229C 63.7205 493.3859 63.73954 493.476 63.73954 493.5931C 63.73954 493.681 63.72929 493.7968 63.70878 493.9403z" stroke="none" fill="#353332" fill-rule="evenodd" /><path id="25" transform="matrix(1 0 0 -1 0 612)" d="M62.91337 497.9101L63.01444 498.7275C 63.96952 498.4697 64.52177 497.7592 64.52177 496.6752C 64.52177 495.31 63.63993 494.4516 62.12235 494.4516C 60.55204 494.4516 59.64384 495.3422 59.64384 496.6313C 59.64384 497.8793 60.533 498.7538 62.07401 498.7538C 62.12089 498.7538 62.1912 498.7524 62.28495 498.7495L62.28495 498.7495L62.28495 495.269C 63.31034 495.3276 63.87138 495.9003 63.87138 496.6796C 63.87138 497.2597 63.58134 497.6699 62.91337 497.9101zM61.63456 495.3129L61.63456 497.9189C 61.24198 497.8837 60.94755 497.7841 60.75126 497.6201C 60.44657 497.3681 60.29423 497.0414 60.29423 496.6401C 60.29423 495.9135 60.82011 495.3657 61.63456 495.3129z" stroke="none" fill="#353332" fill-rule="evenodd" /><path id="26" transform="matrix(1 0 0 -1 0 612)" d="M64.4163 499.7104L59.74931 499.7104L59.74931 499.7104L59.74931 500.4224L59.74931 500.4224L60.45683 500.4224C 59.79472 500.7857 59.64384 501.064 59.64384 501.4331C 59.64384 501.6997 59.7288 501.9707 59.89872 502.2461L59.89872 502.2461L60.63261 501.9736C 60.51835 501.7803 60.46122 501.5869 60.46122 501.3936C 60.46122 501.0479 60.68095 500.7505 61.05009 500.6333C 61.33134 500.5454 61.63895 500.5015 61.97294 500.5015L61.97294 500.5015L64.4163 500.5015z" stroke="none" fill="#353332" fill-rule="evenodd" /><path id="28" transform="matrix(1 0 0 -1 0 612)" d="M63.84061 508.2637C 64.33866 507.6777 64.52177 507.1665 64.52177 506.5454C 64.52177 505.52 63.96513 504.9502 63.18583 504.9502C 62.95731 504.9502 62.74857 505.0022 62.55961 505.1062C 62.37064 505.2102 62.21903 505.3464 62.10477 505.5149C 61.99052 505.6833 61.90409 505.873 61.8455 506.084C 61.80448 506.2393 61.76493 506.4736 61.72684 506.7871C 61.65067 507.4258 61.55985 507.896 61.45438 508.1978C 61.34599 508.2007 61.27714 508.2021 61.24784 508.2021C 60.92558 508.2021 60.69852 508.1274 60.56669 507.978C 60.38798 507.7759 60.29862 507.4756 60.29862 507.0771C 60.29862 506.333 60.52421 506.0298 61.18632 505.8599L61.18632 505.8599L61.08085 505.0864C 60.74979 505.1567 60.48246 505.2725 60.27885 505.4336C 60.07523 505.5947 59.9185 505.8276 59.80863 506.1323C 59.69877 506.437 59.64384 506.79 59.64384 507.1914C 59.64384 507.5898 59.69071 507.9136 59.78446 508.1626C 59.87821 508.4116 59.99613 508.5947 60.13822 508.7119C 60.28031 508.8291 60.45975 508.9111 60.67655 508.958C 60.81132 508.9844 61.05448 508.9976 61.40604 508.9976L61.40604 508.9976L62.46073 508.9976C 63.93143 508.9976 64.05888 509.0488 64.4163 509.248L64.4163 509.248L64.4163 508.4219C 64.25224 508.3398 64.06034 508.2871 63.84061 508.2637zM62.07401 508.1978C 62.1912 507.9106 62.29081 507.48 62.37284 506.9058C 62.41972 506.5806 62.47245 506.3506 62.53104 506.2158C 62.58964 506.0811 62.67533 505.9771 62.78812 505.9038C 62.90092 505.8306 63.02616 505.7939 63.16386 505.7939C 63.58573 505.7939 63.90214 506.1191 63.90214 506.7344C 63.90214 507.3438 63.61796 507.8477 63.15507 508.0703C 62.97636 508.1553 62.71268 508.1978 62.36405 508.1978z" stroke="none" fill="#353332" fill-rule="evenodd" /><path id="30" transform="matrix(1 0 0 -1 0 612)" d="M64.4163 512.7155L59.74931 512.7155L59.74931 512.7155L59.74931 513.4274L59.74931 513.4274L60.45683 513.4274C 59.79472 513.7906 59.64384 514.069 59.64384 514.4381C 59.64384 514.7047 59.7288 514.9757 59.89872 515.2511L59.89872 515.2511L60.63261 514.9786C 60.51835 514.7853 60.46122 514.5919 60.46122 514.3986C 60.46122 514.0529 60.68095 513.7555 61.05009 513.6383C 61.33134 513.5504 61.63895 513.5065 61.97294 513.5065L61.97294 513.5065L64.4163 513.5065z" stroke="none" fill="#353332" fill-rule="evenodd" /><path id="31" transform="matrix(1 0 0 -1 0 612)" d="M63.84061 518.7667C 64.33866 518.1807 64.52177 517.6695 64.52177 517.0484C 64.52177 516.023 63.96513 515.4532 63.18583 515.4532C 62.95731 515.4532 62.74857 515.5052 62.55961 515.6092C 62.37064 515.7132 62.21903 515.8494 62.10477 516.0179C 61.99052 516.1863 61.90409 516.376 61.8455 516.587C 61.80448 516.7422 61.76493 516.9766 61.72684 517.2901C 61.65067 517.9288 61.55985 518.399 61.45438 518.7007C 61.34599 518.7037 61.27714 518.7051 61.24784 518.7051C 60.92558 518.7051 60.69852 518.6304 60.56669 518.481C 60.38798 518.2789 60.29862 517.9786 60.29862 517.5801C 60.29862 516.836 60.52421 516.5328 61.18632 516.3629L61.18632 516.3629L61.08085 515.5894C 60.74979 515.6597 60.48246 515.7755 60.27885 515.9366C 60.07523 516.0977 59.9185 516.3306 59.80863 516.6353C 59.69877 516.94 59.64384 517.293 59.64384 517.6944C 59.64384 518.0928 59.69071 518.4166 59.78446 518.6656C 59.87821 518.9146 59.99613 519.0977 60.13822 519.2149C 60.28031 519.3321 60.45975 519.4141 60.67655 519.461C 60.81132 519.4874 61.05448 519.5005 61.40604 519.5005L61.40604 519.5005L62.46073 519.5005C 63.93143 519.5005 64.05888 519.5518 64.4163 519.751L64.4163 519.751L64.4163 518.9249C 64.25224 518.8428 64.06034 518.7901 63.84061 518.7667zM62.07401 518.7007C 62.1912 518.4136 62.29081 517.983 62.37284 517.4088C 62.41972 517.0836 62.47245 516.8536 62.53104 516.7188C 62.58964 516.584 62.67533 516.48 62.78812 516.4068C 62.90092 516.3336 63.02616 516.2969 63.16386 516.2969C 63.58573 516.2969 63.90214 516.6221 63.90214 517.2374C 63.90214 517.8467 63.61796 518.3506 63.15507 518.5733C 62.97636 518.6583 62.71268 518.7007 62.36405 518.7007z" stroke="none" fill="#353332" fill-rule="evenodd" /><path id="32" transform="matrix(1 0 0 -1 0 612)" d="M58.88358 520.7297L57.97392 520.7297L57.97392 520.7297L57.97392 521.5207L57.97392 521.5207L58.88358 521.5207zM64.4163 520.7297L59.74931 520.7297L59.74931 520.7297L59.74931 521.5207L59.74931 521.5207L64.4163 521.5207z" stroke="none" fill="#353332" fill-rule="evenodd" /><path id="33" transform="matrix(1 0 0 -1 0 612)" d="M64.4163 522.7233L59.74931 522.7233L59.74931 522.7233L59.74931 523.4352L59.74931 523.4352L60.41288 523.4352C 59.90018 523.778 59.64384 524.2731 59.64384 524.9205C 59.64384 525.2018 59.69437 525.4603 59.79545 525.6962C 59.89652 525.932 60.02909 526.1085 60.19315 526.2257C 60.35722 526.3429 60.55204 526.4249 60.77763 526.4718C 60.92411 526.5011 61.18046 526.5157 61.54667 526.5157L61.54667 526.5157L64.4163 526.5157L64.4163 526.5157L64.4163 525.7247L64.4163 525.7247L61.57743 525.7247C 61.25517 525.7247 61.0142 525.694 60.85453 525.6324C 60.69486 525.5709 60.56742 525.4618 60.47221 525.3051C 60.37699 525.1483 60.32938 524.9645 60.32938 524.7535C 60.32938 524.0797 60.67216 523.5143 61.86747 523.5143L61.86747 523.5143L64.4163 523.5143z" stroke="none" fill="#353332" fill-rule="evenodd" /><path id="34" transform="matrix(1 0 0 -1 0 612)" d="M66.21366 527.6921L65.47099 527.6042C 65.51786 527.7771 65.5413 527.9279 65.5413 528.0568C 65.5413 528.4084 65.41825 528.6033 65.20731 528.738C 65.12821 528.7878 64.93192 528.8683 64.61845 528.9797C 64.5745 528.9944 64.51005 529.0178 64.42509 529.05L64.42509 529.05L59.74931 527.279L59.74931 527.279L59.74931 528.1315L59.74931 528.1315L62.45194 529.1027C 62.79472 529.2287 63.15507 529.3416 63.533 529.4411C 63.16972 529.5319 62.81522 529.6404 62.46952 529.7663L62.46952 529.7663L59.74931 530.7639L59.74931 530.7639L59.74931 531.5549L59.74931 531.5549L64.4954 529.7795C 65.00809 529.5891 65.36112 529.4411 65.55448 529.3356C 66.07597 529.0544 66.31034 528.7057 66.31034 528.2018C 66.31034 528.0496 66.27811 527.8796 66.21366 527.6921z" stroke="none" fill="#353332" fill-rule="evenodd" /><path id="36" transform="matrix(1 0 0 -1 0 612)" d="M64.4163 534.7292L59.74931 534.7292L59.74931 534.7292L59.74931 535.4412L59.74931 535.4412L60.41288 535.4412C 59.90018 535.7839 59.64384 536.2791 59.64384 536.9265C 59.64384 537.2078 59.69437 537.4663 59.79545 537.7021C 59.89652 537.938 60.02909 538.1145 60.19315 538.2317C 60.35722 538.3489 60.55204 538.4309 60.77763 538.4778C 60.92411 538.5071 61.18046 538.5217 61.54667 538.5217L61.54667 538.5217L64.4163 538.5217L64.4163 538.5217L64.4163 537.7307L64.4163 537.7307L61.57743 537.7307C 61.25517 537.7307 61.0142 537.7 60.85453 537.6384C 60.69486 537.5769 60.56742 537.4678 60.47221 537.311C 60.37699 537.1543 60.32938 536.9705 60.32938 536.7595C 60.32938 536.0857 60.67216 535.5203 61.86747 535.5203L61.86747 535.5203L64.4163 535.5203z" stroke="none" fill="#353332" fill-rule="evenodd" /><path id="37" transform="matrix(1 0 0 -1 0 612)" d="M58.88358 539.7377L57.97392 539.7377L57.97392 539.7377L57.97392 540.5287L57.97392 540.5287L58.88358 540.5287zM64.4163 539.7377L59.74931 539.7377L59.74931 539.7377L59.74931 540.5287L59.74931 540.5287L64.4163 540.5287z" stroke="none" fill="#353332" fill-rule="evenodd" /><path id="38" transform="matrix(1 0 0 -1 0 612)" d="M64.80302 541.5862L64.91727 542.3553C 65.15458 542.3875 65.32743 542.4769 65.43583 542.6234C 65.58231 542.8196 65.65556 543.0877 65.65556 543.4276C 65.65556 544.16 65.34794 544.5394 64.82059 544.68C 64.65946 544.721 64.32108 544.7401 63.80546 544.7371C 64.21268 544.3914 64.4163 543.9608 64.4163 543.4451C 64.4163 542.1619 63.35136 541.428 62.05643 541.428C 61.61112 541.428 61.20023 541.5086 60.82377 541.6697C 60.4473 541.8309 60.15653 542.0645 59.95145 542.3707C 59.74638 542.6768 59.64384 543.0364 59.64384 543.4495C 59.64384 544.0003 59.86649 544.4544 60.31181 544.8118L60.31181 544.8118L59.74931 544.8118L59.74931 544.8118L59.74931 545.5413L59.74931 545.5413L63.78349 545.5413C 64.51005 545.5413 65.02494 545.4673 65.32816 545.3194C 65.63139 545.1714 65.87089 544.9371 66.04667 544.6163C 66.22245 544.2955 66.31034 543.9007 66.31034 543.4319C 66.31034 542.3187 65.81083 541.5628 64.80302 541.5862zM61.99931 542.241C 63.22392 542.241 63.76151 542.7874 63.76151 543.5198C 63.76151 544.2464 63.22099 544.803 62.02567 544.803C 60.88309 544.803 60.29862 544.2215 60.29862 543.5067C 60.29862 542.8035 60.87431 542.241 61.99931 542.241z" stroke="none" fill="#353332" fill-rule="evenodd" /><path id="39" transform="matrix(1 0 0 -1 0 612)" d="M64.4163 546.7352L57.97392 546.7352L57.97392 546.7352L57.97392 547.5262L57.97392 547.5262L60.28544 547.5262C 59.8577 547.8954 59.64384 548.3612 59.64384 548.9237C 59.64384 549.2694 59.71195 549.5697 59.84818 549.8246C 59.98441 550.0795 60.17265 550.2618 60.41288 550.3717C 60.65311 550.4816 61.00175 550.5365 61.45878 550.5365L61.45878 550.5365L64.4163 550.5365L64.4163 550.5365L64.4163 549.7455L64.4163 549.7455L61.45878 549.7455C 60.66776 549.7455 60.32499 549.3881 60.32499 548.7611C 60.32499 548.5267 60.38578 548.3063 60.50736 548.0997C 60.62894 547.8932 60.79374 547.746 61.00175 547.6581C 61.20975 547.5702 61.49686 547.5262 61.86308 547.5262L61.86308 547.5262L64.4163 547.5262z" stroke="none" fill="#353332" fill-rule="evenodd" /></g></g></svg>