<svg xmlns="http://www.w3.org/2000/svg" xmlns:xlink="http://www.w3.org/1999/xlink" id="body_10" preserveAspectRatio="xMinYMin meet" viewBox="0 0 1144 816"><defs><clipPath id="1"><path id="" clip-rule="evenodd" transform="matrix(1 0 0 1 0 0)" d="M0 612L0 -0.28302L0 -0.28302L858.898 -0.28302L858.898 -0.28302L858.898 612L858.898 612L0 612z" /></clipPath><clipPath id="2"><path id="" clip-rule="evenodd" transform="matrix(1 0 0 1 0 0)" d="M0 -0.28302L858.898 -0.28302L858.898 -0.28302L858.898 612L858.898 612L0 612z" /></clipPath><clipPath id="3"><path id="" clip-rule="evenodd" transform="matrix(1 0 0 1 0 0)" d="M56.693 535.464L802.031 535.464L802.031 535.464L802.031 124.759L802.031 124.759L56.693 124.759z" /></clipPath></defs><g transform="matrix(1.333333 0 0 1.333333 0 0)"><g clip-path="url(#1)"><g clip-path="url(#2)"><path id="1" transform="matrix(1 0 0 -1 0 612)" d="M65.2581 139.6838L58.0999 139.6838L58.0999 139.6838L58.0999 142.8577C 58.0999 143.4957 58.16419 143.9807 58.29277 144.3127C 58.42135 144.6448 58.6484 144.9101 58.97392 145.1086C 59.29944 145.3072 59.65915 145.4065 60.05302 145.4065C 61.06865 145.4065 61.81247 144.7636 62.00127 143.3899C 62.12171 143.6405 62.24052 143.831 62.35771 143.9612C 62.61162 144.2379 62.929 144.4999 63.30986 144.7473L63.30986 144.7473L65.2581 145.9924L65.2581 145.9924L65.2581 144.801L65.2581 144.801L63.76884 143.8538C 63.33916 143.5771 63.01038 143.3492 62.78252 143.1702C 62.55465 142.9911 62.39515 142.8308 62.304 142.6892C 62.21286 142.5476 62.14938 142.4036 62.11357 142.2571C 62.09079 142.1497 62.07939 141.9739 62.07939 141.7297L62.07939 141.7297L62.07939 140.6311L62.07939 140.6311L65.2581 140.6311zM61.25908 140.6311L61.25908 142.6672C 61.25908 143.1002 61.21432 143.4387 61.1248 143.6829C 61.03528 143.927 60.89206 144.1125 60.69511 144.2395C 60.49817 144.3665 60.28415 144.4299 60.05302 144.4299C 59.37594 144.4299 58.89091 143.9579 58.89091 142.8967L58.89091 142.8967L58.89091 140.6311z" stroke="none" fill="#353231" fill-rule="evenodd" /><path id="2" transform="matrix(1 0 0 -1 0 612)" d="M65.2581 150.1753L64.49638 150.1753C 65.08232 149.7717 65.37529 149.2232 65.37529 148.5298C 65.37529 148.2238 65.3167 147.9382 65.19951 147.6729C 65.08232 147.4076 64.93502 147.2106 64.75761 147.0821C 64.58021 146.9535 64.36292 146.8631 64.10576 146.8111C 63.93323 146.7753 63.65979 146.7574 63.28545 146.7574L63.28545 146.7574L60.07256 146.7574L60.07256 146.7574L60.07256 147.6363L60.07256 147.6363L62.94853 147.6363C 63.40752 147.6363 63.71676 147.6542 63.87627 147.69C 64.33851 147.8006 64.61845 148.1783 64.61845 148.7056C 64.61845 148.9693 64.55091 149.2167 64.41582 149.4478C 64.28072 149.6789 64.09681 149.8425 63.86406 149.9385C 63.63131 150.0345 63.29358 150.0826 62.85088 150.0826L62.85088 150.0826L60.07256 150.0826L60.07256 150.0826L60.07256 150.9615L60.07256 150.9615L65.2581 150.9615z" stroke="none" fill="#353231" fill-rule="evenodd" /><path id="3" transform="matrix(1 0 0 -1 0 612)" d="M62.66533 152.0097C 61.70504 152.0097 60.99378 152.2767 60.53154 152.8105C 60.14743 153.2565 59.95537 153.8001 59.95537 154.4414C 59.95537 155.8672 60.94495 156.8681 62.59209 156.8681C 63.2594 156.8681 63.78431 156.768 64.16679 156.5678C 64.54928 156.3676 64.84632 156.0763 65.05791 155.6938C 65.26949 155.3113 65.37529 154.8938 65.37529 154.4414C 65.37529 152.9895 64.41663 152.0097 62.66533 152.0097zM62.66533 152.9131C 63.99345 152.9131 64.65263 153.5625 64.65263 154.4414C 64.65263 155.3138 63.99671 155.9648 62.63603 155.9648C 61.35348 155.9648 60.68291 155.3073 60.68291 154.4414C 60.68291 153.5625 61.3372 152.9131 62.66533 152.9131z" stroke="none" fill="#353231" fill-rule="evenodd" /><path id="4" transform="matrix(1 0 0 -1 0 612)" d="M63.35869 161.2807L63.47099 162.1449C 64.6624 161.9561 65.37529 161.1195 65.37529 159.9867C 65.37529 158.5675 64.41663 157.6283 62.68486 157.6283C 62.12497 157.6283 61.63506 157.7211 61.21513 157.9066C 60.79521 158.0922 60.48027 158.3746 60.27031 158.7538C 60.06035 159.1331 59.95537 159.5457 59.95537 159.9916C 59.95537 161.1179 60.54782 161.8601 61.59599 162.0619L61.59599 162.0619L61.72783 161.2074C 61.03122 161.0447 60.67802 160.6117 60.67802 160.0258C 60.67802 159.1404 61.28675 158.5316 62.66045 158.5316C 64.05367 158.5316 64.65263 159.1176 64.65263 159.977C 64.65263 160.6671 64.23759 161.157 63.35869 161.2807z" stroke="none" fill="#353231" fill-rule="evenodd" /><path id="5" transform="matrix(1 0 0 -1 0 612)" d="M65.2581 162.8969L58.0999 162.8969L58.0999 162.8969L58.0999 163.7758L58.0999 163.7758L60.66826 163.7758C 60.193 164.1859 59.95537 164.7035 59.95537 165.3285C 59.95537 165.7126 60.03105 166.0463 60.18242 166.3295C 60.33379 166.6127 60.54293 166.8153 60.80986 166.9374C 61.07679 167.0595 61.46416 167.1205 61.97197 167.1205L61.97197 167.1205L65.2581 167.1205L65.2581 167.1205L65.2581 166.2416L65.2581 166.2416L61.97197 166.2416C 61.09306 166.2416 60.7122 165.8445 60.7122 165.1479C 60.7122 164.8875 60.77975 164.6425 60.91484 164.413C 61.04993 164.1835 61.23304 164.0199 61.46416 163.9223C 61.69528 163.8246 62.01429 163.7758 62.42119 163.7758L62.42119 163.7758L65.2581 163.7758z" stroke="none" fill="#353231" fill-rule="evenodd" /><path id="6" transform="matrix(1 0 0 -1 0 612)" d="M62.66533 168.1297C 61.70504 168.1297 60.99378 168.3967 60.53154 168.9305C 60.14743 169.3765 59.95537 169.9201 59.95537 170.5614C 59.95537 171.9872 60.94495 172.9881 62.59209 172.9881C 63.2594 172.9881 63.78431 172.888 64.16679 172.6878C 64.54928 172.4876 64.84632 172.1963 65.05791 171.8138C 65.26949 171.4313 65.37529 171.0139 65.37529 170.5614C 65.37529 169.1096 64.41663 168.1297 62.66533 168.1297zM62.66533 169.0331C 63.99345 169.0331 64.65263 169.6825 64.65263 170.5614C 64.65263 171.4338 63.99671 172.0848 62.63603 172.0848C 61.35348 172.0848 60.68291 171.4273 60.68291 170.5614C 60.68291 169.6825 61.3372 169.0331 62.66533 169.0331z" stroke="none" fill="#353231" fill-rule="evenodd" /><path id="7" transform="matrix(1 0 0 -1 0 612)" d="M65.2581 174.0169L60.07256 174.0169L60.07256 174.0169L60.07256 174.8079L60.07256 174.8079L60.80986 174.8079C 60.2402 175.1888 59.95537 175.7389 59.95537 176.4583C 59.95537 176.7708 60.01152 177.0581 60.12383 177.3201C 60.23613 177.5822 60.38343 177.7783 60.56572 177.9085C 60.74801 178.0387 60.96448 178.1298 61.21513 178.1819C 61.3779 178.2145 61.66272 178.2307 62.06963 178.2307L62.06963 178.2307L65.2581 178.2307L65.2581 178.2307L65.2581 177.3518L65.2581 177.3518L62.10381 177.3518C 61.74573 177.3518 61.47799 177.3177 61.30058 177.2493C 61.12317 177.1809 60.98157 177.0597 60.87578 176.8855C 60.76999 176.7114 60.71709 176.5071 60.71709 176.2727C 60.71709 175.524 61.09795 174.8958 62.42607 174.8958L62.42607 174.8958L65.2581 174.8958z" stroke="none" fill="#353231" fill-rule="evenodd" /><path id="8" transform="matrix(1 0 0 -1 0 612)" d="M65.68779 179.4157L65.81474 180.2702C 66.07841 180.306 66.27047 180.4053 66.39091 180.5681C 66.55367 180.7862 66.63506 181.084 66.63506 181.4616C 66.63506 182.2755 66.29326 182.697 65.70732 182.8532C 65.52828 182.8988 65.15231 182.92 64.57939 182.9167C 65.03187 182.5326 65.2581 182.0541 65.2581 181.4812C 65.2581 180.0554 64.07484 179.24 62.63603 179.24C 62.14124 179.24 61.6847 179.3295 61.2664 179.5085C 60.84811 179.6876 60.52503 179.9472 60.29716 180.2873C 60.0693 180.6275 59.95537 181.0271 59.95537 181.4861C 59.95537 182.098 60.20276 182.6026 60.69756 182.9997L60.69756 182.9997L60.07256 182.9997L60.07256 182.9997L60.07256 183.8103L60.07256 183.8103L64.55498 183.8103C 65.36227 183.8103 65.93437 183.7281 66.27129 183.5637C 66.6082 183.3993 66.87431 183.1389 67.06963 182.7824C 67.26494 182.426 67.36259 181.9874 67.36259 181.4665C 67.36259 180.2296 66.80758 179.3897 65.68779 179.4157zM62.57256 180.1433C 63.93323 180.1433 64.53056 180.7504 64.53056 181.5642C 64.53056 182.3715 63.92998 182.99 62.60185 182.99C 61.33232 182.99 60.68291 182.3438 60.68291 181.5495C 60.68291 180.7683 61.32256 180.1433 62.57256 180.1433z" stroke="none" fill="#353231" fill-rule="evenodd" /></g><path id="9" transform="matrix(1 0 0 -1 0 612)" d="M687.953 49.343L733.252 49.343L733.252 548.241L687.953 548.241z" stroke="none" fill="#FFFEFE" fill-rule="nonzero" /><path id="10" transform="matrix(1 0 0 -1 0 612)" d="M56.693 76.536L802.031 76.536L802.031 487.241L56.693 487.241z" stroke="none" fill="#E5E6E6" fill-rule="nonzero" /><g clip-path="url(#3)"><g transform="matrix(0.3756742 0 0 0.3756742 56.69287 123.4911)"><g transform="matrix(1 0 0 1 0 0)"><image x="0" y="0" xlink:href="img_25.png" width="1984" height="1100" /></g></g></g><path id="12" transform="matrix(1 0 0 -1 0 612)" d="M504.3453 525.0707L666.8123 525.0707" stroke="#15599F" stroke-width="0.7" fill="none" /><path id="13" transform="matrix(1 0 0 -1 0 612)" d="M553.9059 508.2706L734.0269 508.2706" stroke="#15599F" stroke-width="0.7" fill="none" /></g></g></svg>