<svg version="1.1" xmlns="http://www.w3.org/2000/svg" fill-rule="evenodd" clip-rule="evenodd" height="1024" width="1024" viewBox="0 0 1024 1024"><path d="M844.224 867.1744c-21.7728 0-34.7648-12.3264-34.7648-32.9856v-123.0592c0-33.7536-22.1824-33.7536-30.5408-33.7536-38.9376 0-39.3856 38.6944-39.3856 39.104v117.7088c0 20.032-13.2224 32.9856-33.7152 32.9856-21.4528 0-34.7776-12.6336-34.7776-32.9856V647.9744c0-20.5952 13.056-33.3696 34.0608-33.3696 15.1808 0 26.2528 6.528 31.3344 17.7792 12.544-9.3696 30.3616-17.7792 55.0016-17.7792 54.144 0 86.4896 33.6768 86.4896 90.0736v129.5104c0.0128 12.2496-4.8256 19.6864-8.8832 23.7312-6.0288 6.0544-14.6176 9.2544-24.8192 9.2544z m-233.216-7.4752H476.1728c-42.7904 0-61.888-18.9696-61.888-61.5552V608.3456c0-42.5472 19.0976-61.5296 61.888-61.5296h128.7936c19.8272 0 32.64 12.672 32.64 32.2688 0 19.8272-12.8128 32.6528-32.64 32.6528h-116.3008c-2.2528 0-3.3536 0.3584-3.5968 0.4992 0.128-0.0384-0.1408 0.8064-0.1408 2.8928v52.608h106.1248c30.2848 0.0768 32.64 24.1792 32.64 31.5776 0 19.4048-12.8128 31.9104-32.64 31.9104h-106.1248v60.1344c0 1.856 0.2432 2.8032 0.3584 3.1488 0.1152-0.0384 1.2032 0.2432 3.3792 0.2432h122.3552c22.5792 0 32.6784 16.2176 32.6784 32.2816-0.0128 20.1472-12.5184 32.6656-32.6912 32.6656zM325.504 483.072c-22.7968 0-35.8656-12.3264-35.8656-33.8304V370.688h-85.3632c-45.8752 0-66.3424-20.4672-66.3424-66.3424V210.432c0-45.6064 20.4672-65.9328 66.3424-65.9328h85.3632V112.9472c0-20.9408 12.8128-33.4336 34.2528-33.4336 30.272 0 36.6336 18.176 36.6336 33.4336v31.5776h86.1312c45.888 0 66.3552 20.3392 66.3552 65.92v93.9264c0 45.8752-20.4672 66.3296-66.3552 66.3296h-86.1312v78.5536c0 21.1712-13.0944 33.8176-35.0208 33.8176z m-110.3872-271.68c-6.4768 0-7.0784 0.6016-7.0784 7.0784v78.2336c0 6.5408 0.6016 7.1424 7.0784 7.1424h74.5216v-92.4544h-74.5216z m145.408 92.416h75.3152c6.2976 0 7.0912-0.8064 7.0912-7.0784v-78.2848c0-6.2848-0.7936-7.0912-7.0912-7.0912h-75.3152v92.4544z"></path><path d="M512 960C265.4976 960 64.9472 759.0272 64.9472 512c0-35.6736 4.2112-71.2192 12.5312-105.6768 4.5568-18.8544 24.2048-30.8736 43.0464-26.304a35.4176 35.4176 0 0 1 22.0544 16.0384c4.992 8.1408 6.4896 17.7152 4.2496 26.9824a379.136 379.136 0 0 0-10.5344 88.9216c0 207.7312 168.5504 376.6912 375.7184 376.6912a35.712 35.712 0 0 1 35.648 35.6608A35.7248 35.7248 0 0 1 512 960z m398.6944-310.1952a35.904 35.904 0 0 1-28.1728-13.7728 35.9424 35.9424 0 0 1-6.4256-30.656c7.7184-30.3232 11.6096-61.7216 11.6096-93.376 0-207.7056-168.5504-376.6912-375.7184-376.6912a35.712 35.712 0 0 1-35.648-35.6608A35.712 35.712 0 0 1 512 64c246.5024 0 447.0528 200.9728 447.0528 448 0 37.504-4.6464 74.8288-13.8112 110.912a35.6224 35.6224 0 0 1-34.5472 26.8928z"></path></svg>