<svg xmlns="http://www.w3.org/2000/svg" xmlns:xlink="http://www.w3.org/1999/xlink" id="body_7" preserveAspectRatio="xMinYMin meet" viewBox="0 0 1144 816"><defs><clipPath id="1"><path id="" clip-rule="evenodd" transform="matrix(1 0 0 1 0 0)" d="M0 612L0 -0.28302L0 -0.28302L858.898 -0.28302L858.898 -0.28302L858.898 612L858.898 612L0 612z" /></clipPath><clipPath id="2"><path id="" clip-rule="evenodd" transform="matrix(1 0 0 1 0 0)" d="M0 -0.28302L858.898 -0.28302L858.898 -0.28302L858.898 612L858.898 612L0 612z" /></clipPath></defs><g transform="matrix(1.333333 0 0 1.333333 0 0)"><g clip-path="url(#1)"><g clip-path="url(#2)"><path id="1" transform="matrix(1 0 0 -1 0 612)" d="M65.2581 139.6837L58.0999 139.6837L58.0999 139.6837L58.0999 142.8576C 58.0999 143.4956 58.16419 143.9806 58.29277 144.3126C 58.42135 144.6447 58.6484 144.91 58.97392 145.1085C 59.29944 145.3071 59.65915 145.4064 60.05302 145.4064C 61.06865 145.4064 61.81247 144.7635 62.00127 143.3898C 62.12171 143.6404 62.24052 143.8309 62.35771 143.9611C 62.61162 144.2378 62.929 144.4998 63.30986 144.7472L63.30986 144.7472L65.2581 145.9923L65.2581 145.9923L65.2581 144.8009L65.2581 144.8009L63.76884 143.8537C 63.33916 143.577 63.01038 143.3491 62.78252 143.1701C 62.55465 142.991 62.39515 142.8307 62.304 142.6891C 62.21286 142.5475 62.14938 142.4035 62.11357 142.257C 62.09079 142.1496 62.07939 141.9738 62.07939 141.7296L62.07939 141.7296L62.07939 140.631L62.07939 140.631L65.2581 140.631zM61.25908 140.631L61.25908 142.6671C 61.25908 143.1001 61.21432 143.4386 61.1248 143.6828C 61.03528 143.9269 60.89206 144.1124 60.69511 144.2394C 60.49817 144.3663 60.28415 144.4298 60.05302 144.4298C 59.37594 144.4298 58.89091 143.9578 58.89091 142.8966L58.89091 142.8966L58.89091 140.631z" stroke="none" fill="#353231" fill-rule="evenodd" /><path id="2" transform="matrix(1 0 0 -1 0 612)" d="M65.2581 150.1752L64.49638 150.1752C 65.08232 149.7716 65.37529 149.2231 65.37529 148.5297C 65.37529 148.2237 65.3167 147.9381 65.19951 147.6728C 65.08232 147.4075 64.93502 147.2105 64.75761 147.082C 64.58021 146.9534 64.36292 146.863 64.10576 146.811C 63.93323 146.7751 63.65979 146.7572 63.28545 146.7572L63.28545 146.7572L60.07256 146.7572L60.07256 146.7572L60.07256 147.6362L60.07256 147.6362L62.94853 147.6362C 63.40752 147.6362 63.71676 147.6541 63.87627 147.6899C 64.33851 147.8005 64.61845 148.1781 64.61845 148.7055C 64.61845 148.9692 64.55091 149.2166 64.41582 149.4477C 64.28072 149.6788 64.09681 149.8424 63.86406 149.9384C 63.63131 150.0344 63.29358 150.0824 62.85088 150.0824L62.85088 150.0824L60.07256 150.0824L60.07256 150.0824L60.07256 150.9613L60.07256 150.9613L65.2581 150.9613z" stroke="none" fill="#353231" fill-rule="evenodd" /><path id="3" transform="matrix(1 0 0 -1 0 612)" d="M62.66533 152.0096C 61.70504 152.0096 60.99378 152.2766 60.53154 152.8104C 60.14743 153.2564 59.95537 153.8 59.95537 154.4413C 59.95537 155.8671 60.94495 156.868 62.59209 156.868C 63.2594 156.868 63.78431 156.7679 64.16679 156.5677C 64.54928 156.3675 64.84632 156.0762 65.05791 155.6937C 65.26949 155.3112 65.37529 154.8937 65.37529 154.4413C 65.37529 152.9894 64.41663 152.0096 62.66533 152.0096zM62.66533 152.9129C 63.99345 152.9129 64.65263 153.5624 64.65263 154.4413C 64.65263 155.3137 63.99671 155.9647 62.63603 155.9647C 61.35348 155.9647 60.68291 155.3072 60.68291 154.4413C 60.68291 153.5624 61.3372 152.9129 62.66533 152.9129z" stroke="none" fill="#353231" fill-rule="evenodd" /><path id="4" transform="matrix(1 0 0 -1 0 612)" d="M63.35869 161.2806L63.47099 162.1448C 64.6624 161.956 65.37529 161.1194 65.37529 159.9866C 65.37529 158.5674 64.41663 157.6282 62.68486 157.6282C 62.12497 157.6282 61.63506 157.721 61.21513 157.9065C 60.79521 158.0921 60.48027 158.3745 60.27031 158.7537C 60.06035 159.1329 59.95537 159.5455 59.95537 159.9915C 59.95537 161.1178 60.54782 161.86 61.59599 162.0618L61.59599 162.0618L61.72783 161.2073C 61.03122 161.0446 60.67802 160.6116 60.67802 160.0257C 60.67802 159.1403 61.28675 158.5315 62.66045 158.5315C 64.05367 158.5315 64.65263 159.1175 64.65263 159.9769C 64.65263 160.667 64.23759 161.1569 63.35869 161.2806z" stroke="none" fill="#353231" fill-rule="evenodd" /><path id="5" transform="matrix(1 0 0 -1 0 612)" d="M65.2581 162.8968L58.0999 162.8968L58.0999 162.8968L58.0999 163.7757L58.0999 163.7757L60.66826 163.7757C 60.193 164.1858 59.95537 164.7034 59.95537 165.3284C 59.95537 165.7125 60.03105 166.0462 60.18242 166.3294C 60.33379 166.6126 60.54293 166.8152 60.80986 166.9373C 61.07679 167.0594 61.46416 167.1204 61.97197 167.1204L61.97197 167.1204L65.2581 167.1204L65.2581 167.1204L65.2581 166.2415L65.2581 166.2415L61.97197 166.2415C 61.09306 166.2415 60.7122 165.8444 60.7122 165.1478C 60.7122 164.8873 60.77975 164.6424 60.91484 164.4129C 61.04993 164.1834 61.23304 164.0198 61.46416 163.9222C 61.69528 163.8245 62.01429 163.7757 62.42119 163.7757L62.42119 163.7757L65.2581 163.7757z" stroke="none" fill="#353231" fill-rule="evenodd" /><path id="6" transform="matrix(1 0 0 -1 0 612)" d="M62.66533 168.1296C 61.70504 168.1296 60.99378 168.3966 60.53154 168.9304C 60.14743 169.3764 59.95537 169.92 59.95537 170.5613C 59.95537 171.9871 60.94495 172.988 62.59209 172.988C 63.2594 172.988 63.78431 172.8879 64.16679 172.6877C 64.54928 172.4875 64.84632 172.1962 65.05791 171.8137C 65.26949 171.4312 65.37529 171.0137 65.37529 170.5613C 65.37529 169.1095 64.41663 168.1296 62.66533 168.1296zM62.66533 169.033C 63.99345 169.033 64.65263 169.6824 64.65263 170.5613C 64.65263 171.4337 63.99671 172.0847 62.63603 172.0847C 61.35348 172.0847 60.68291 171.4272 60.68291 170.5613C 60.68291 169.6824 61.3372 169.033 62.66533 169.033z" stroke="none" fill="#353231" fill-rule="evenodd" /><path id="7" transform="matrix(1 0 0 -1 0 612)" d="M65.2581 174.0168L60.07256 174.0168L60.07256 174.0168L60.07256 174.8078L60.07256 174.8078L60.80986 174.8078C 60.2402 175.1887 59.95537 175.7388 59.95537 176.4582C 59.95537 176.7707 60.01152 177.058 60.12383 177.32C 60.23613 177.582 60.38343 177.7782 60.56572 177.9084C 60.74801 178.0386 60.96448 178.1297 61.21513 178.1818C 61.3779 178.2144 61.66272 178.2307 62.06963 178.2307L62.06963 178.2307L65.2581 178.2307L65.2581 178.2307L65.2581 177.3517L65.2581 177.3517L62.10381 177.3517C 61.74573 177.3517 61.47799 177.3176 61.30058 177.2492C 61.12317 177.1808 60.98157 177.0596 60.87578 176.8854C 60.76999 176.7113 60.71709 176.507 60.71709 176.2726C 60.71709 175.5239 61.09795 174.8957 62.42607 174.8957L62.42607 174.8957L65.2581 174.8957z" stroke="none" fill="#353231" fill-rule="evenodd" /><path id="8" transform="matrix(1 0 0 -1 0 612)" d="M65.68779 179.4156L65.81474 180.2701C 66.07841 180.3059 66.27047 180.4052 66.39091 180.568C 66.55367 180.7861 66.63506 181.0839 66.63506 181.4615C 66.63506 182.2753 66.29326 182.6969 65.70732 182.8531C 65.52828 182.8987 65.15231 182.9199 64.57939 182.9166C 65.03187 182.5325 65.2581 182.054 65.2581 181.4811C 65.2581 180.0553 64.07484 179.2399 62.63603 179.2399C 62.14124 179.2399 61.6847 179.3294 61.2664 179.5084C 60.84811 179.6875 60.52503 179.9471 60.29716 180.2872C 60.0693 180.6274 59.95537 181.027 59.95537 181.486C 59.95537 182.0979 60.20276 182.6025 60.69756 182.9996L60.69756 182.9996L60.07256 182.9996L60.07256 182.9996L60.07256 183.8102L60.07256 183.8102L64.55498 183.8102C 65.36227 183.8102 65.93437 183.728 66.27129 183.5636C 66.6082 183.3992 66.87431 183.1388 67.06963 182.7823C 67.26494 182.4259 67.36259 181.9873 67.36259 181.4664C 67.36259 180.2294 66.80758 179.3896 65.68779 179.4156zM62.57256 180.1432C 63.93323 180.1432 64.53056 180.7503 64.53056 181.5641C 64.53056 182.3714 63.92998 182.9899 62.60185 182.9899C 61.33232 182.9899 60.68291 182.3437 60.68291 181.5494C 60.68291 180.7682 61.32256 180.1432 62.57256 180.1432z" stroke="none" fill="#353231" fill-rule="evenodd" /></g><g transform="matrix(0.2658744 0 0 0.2658744 56.69291 56.73438)"><g transform="matrix(1 0 0 1 0 0)"><image x="0" y="0" xlink:href="img_13.png" width="2804" height="1874" /></g></g><path id="10" transform="matrix(1 0 0 -1 0 612)" d="M64.4163 464.3807L58.73417 464.3807L58.73417 464.3807L58.73417 462.2581L58.73417 462.2581L57.97392 462.2581L57.97392 462.2581L57.97392 467.3646L57.97392 467.3646L58.73417 467.3646L58.73417 467.3646L58.73417 465.2332L58.73417 465.2332L64.4163 465.2332z" stroke="none" fill="#353332" fill-rule="evenodd" /><path id="11" transform="matrix(1 0 0 -1 0 612)" d="M64.4163 468.5058L59.74931 467.0776L59.74931 467.0776L59.74931 467.895L59.74931 467.895L62.44315 468.6376L62.44315 468.6376L63.44511 468.9145C 63.3953 468.9262 63.0745 469.0068 62.4827 469.1562L62.4827 469.1562L59.74931 469.8989L59.74931 469.8989L59.74931 470.7119L59.74931 470.7119L62.45634 471.4106L62.45634 471.4106L63.34843 471.6435L63.34843 471.6435L62.44755 471.9116L62.44755 471.9116L59.74931 472.7114L59.74931 472.7114L59.74931 473.4804L59.74931 473.4804L64.4163 472.0214L64.4163 472.0214L64.4163 471.1996L64.4163 471.1996L61.62138 470.457L61.62138 470.457L60.82597 470.2768L60.82597 470.2768L64.4163 469.332z" stroke="none" fill="#353332" fill-rule="evenodd" /><path id="12" transform="matrix(1 0 0 -1 0 612)" d="M62.0828 473.848C 61.21854 473.848 60.57841 474.0883 60.16239 474.5687C 59.81669 474.9701 59.64384 475.4594 59.64384 476.0365C 59.64384 477.3197 60.53446 478.2206 62.01688 478.2206C 62.61747 478.2206 63.08988 478.1305 63.43412 477.9503C 63.77836 477.7701 64.04569 477.5079 64.23612 477.1637C 64.42655 476.8195 64.52177 476.4437 64.52177 476.0365C 64.52177 474.7299 63.65897 473.848 62.0828 473.848zM62.0828 474.661C 63.27811 474.661 63.87138 475.2455 63.87138 476.0365C 63.87138 476.8217 63.28104 477.4076 62.05643 477.4076C 60.90214 477.4076 60.29862 476.8158 60.29862 476.0365C 60.29862 475.2455 60.88749 474.661 62.0828 474.661z" stroke="none" fill="#353332" fill-rule="evenodd" /><path id="14" transform="matrix(1 0 0 -1 0 612)" d="M64.4163 481.7144L57.97392 481.7144L57.97392 481.7144L57.97392 484.1314C 57.97392 484.6236 58.0391 485.0183 58.16947 485.3157C 58.29984 485.6131 58.50053 485.846 58.77152 486.0144C 59.04252 486.1829 59.32597 486.2671 59.62186 486.2671C 60.17265 486.2671 60.68974 485.9698 60.98856 485.3662C 61.21708 486.1455 61.79862 486.5791 62.54862 486.5791C 62.85038 486.5791 63.1309 486.5154 63.39017 486.388C 63.64945 486.2605 63.8494 486.1031 63.99003 485.9156C 64.13065 485.7281 64.23685 485.493 64.30863 485.2102C 64.38041 484.9275 64.4163 484.5811 64.4163 484.1709zM60.68095 482.5669L60.68095 483.96C 60.68095 484.3379 60.65604 484.6089 60.60624 484.773C 60.47733 485.2066 60.17411 485.4278 59.72294 485.4278C 59.50907 485.4278 59.32084 485.3765 59.15824 485.274C 58.99564 485.1714 58.88432 485.0249 58.82426 484.8345C 58.7642 484.6441 58.73417 484.3174 58.73417 483.8545L58.73417 483.8545L58.73417 482.5669zM63.65604 482.5669L63.65604 484.1709C 63.65604 484.4463 63.64579 484.6397 63.62528 484.751C 63.59013 484.9473 63.53153 485.1114 63.4495 485.2432C 63.36747 485.375 63.24809 485.4834 63.09135 485.5684C 62.93461 485.6534 62.7537 485.6958 62.54862 485.6958C 62.30839 485.6958 62.09965 485.6343 61.9224 485.5113C 61.74516 485.3882 61.62064 485.2176 61.54887 484.9993C 61.47709 484.781 61.4412 484.4668 61.4412 484.0567L61.4412 484.0567L61.4412 482.5669z" stroke="none" fill="#353332" fill-rule="evenodd" /><path id="15" transform="matrix(1 0 0 -1 0 612)" d="M64.4163 487.6427L59.74931 487.6427L59.74931 487.6427L59.74931 488.3546L59.74931 488.3546L60.45683 488.3546C 59.79472 488.7179 59.64384 488.9962 59.64384 489.3653C 59.64384 489.6319 59.7288 489.9029 59.89872 490.1783L59.89872 490.1783L60.63261 489.9059C 60.51835 489.7125 60.46122 489.5191 60.46122 489.3258C 60.46122 488.9801 60.68095 488.6827 61.05009 488.5655C 61.33134 488.4776 61.63895 488.4337 61.97294 488.4337L61.97294 488.4337L64.4163 488.4337z" stroke="none" fill="#353332" fill-rule="evenodd" /><path id="16" transform="matrix(1 0 0 -1 0 612)" d="M62.0828 490.354C 61.21854 490.354 60.57841 490.5943 60.16239 491.0747C 59.81669 491.4761 59.64384 491.9654 59.64384 492.5425C 59.64384 493.8257 60.53446 494.7266 62.01688 494.7266C 62.61747 494.7266 63.08988 494.6365 63.43412 494.4563C 63.77836 494.2762 64.04569 494.0139 64.23612 493.6697C 64.42655 493.3255 64.52177 492.9497 64.52177 492.5425C 64.52177 491.2359 63.65897 490.354 62.0828 490.354zM62.0828 491.167C 63.27811 491.167 63.87138 491.7515 63.87138 492.5425C 63.87138 493.3277 63.28104 493.9136 62.05643 493.9136C 60.90214 493.9136 60.29862 493.3218 60.29862 492.5425C 60.29862 491.7515 60.88749 491.167 62.0828 491.167z" stroke="none" fill="#353332" fill-rule="evenodd" /><path id="17" transform="matrix(1 0 0 -1 0 612)" d="M63.70878 497.3795L64.40751 497.4938C 64.45438 497.2711 64.47782 497.0719 64.47782 496.8961C 64.47782 496.609 64.43241 496.3864 64.34159 496.2281C 64.25077 496.0699 64.13139 495.9586 63.98344 495.8942C 63.83549 495.8297 63.52421 495.7975 63.0496 495.7975L63.0496 495.7975L60.36454 495.7975L60.36454 495.7975L60.36454 495.2174L60.36454 495.2174L59.74931 495.2174L59.74931 495.2174L59.74931 495.7975L59.74931 495.7975L58.59354 495.7975L58.59354 495.7975L58.11893 496.5841L58.11893 496.5841L59.74931 496.5841L59.74931 496.5841L59.74931 497.3795L59.74931 497.3795L60.36454 497.3795L60.36454 497.3795L60.36454 496.5841L60.36454 496.5841L63.09354 496.5841C 63.31913 496.5841 63.46415 496.598 63.5286 496.6259C 63.59306 496.6537 63.64433 496.6991 63.68241 496.7621C 63.7205 496.8251 63.73954 496.9152 63.73954 497.0323C 63.73954 497.1202 63.72929 497.236 63.70878 497.3795z" stroke="none" fill="#353332" fill-rule="evenodd" /><path id="18" transform="matrix(1 0 0 -1 0 612)" d="M64.4163 498.1545L57.97392 498.1545L57.97392 498.1545L57.97392 498.9455L57.97392 498.9455L60.28544 498.9455C 59.8577 499.3146 59.64384 499.7805 59.64384 500.343C 59.64384 500.6887 59.71195 500.989 59.84818 501.2438C 59.98441 501.4987 60.17265 501.6811 60.41288 501.791C 60.65311 501.9008 61.00175 501.9557 61.45878 501.9557L61.45878 501.9557L64.4163 501.9557L64.4163 501.9557L64.4163 501.1647L64.4163 501.1647L61.45878 501.1647C 60.66776 501.1647 60.32499 500.8073 60.32499 500.1804C 60.32499 499.946 60.38578 499.7255 60.50736 499.519C 60.62894 499.3124 60.79374 499.1652 61.00175 499.0773C 61.20975 498.9894 61.49686 498.9455 61.86308 498.9455L61.86308 498.9455L64.4163 498.9455z" stroke="none" fill="#353332" fill-rule="evenodd" /><path id="19" transform="matrix(1 0 0 -1 0 612)" d="M62.91337 506.3533L63.01444 507.1707C 63.96952 506.9129 64.52177 506.2024 64.52177 505.1184C 64.52177 503.7532 63.63993 502.8948 62.12235 502.8948C 60.55204 502.8948 59.64384 503.7854 59.64384 505.0745C 59.64384 506.3225 60.533 507.1971 62.07401 507.1971C 62.12089 507.1971 62.1912 507.1956 62.28495 507.1927L62.28495 507.1927L62.28495 503.7122C 63.31034 503.7708 63.87138 504.3435 63.87138 505.1228C 63.87138 505.7029 63.58134 506.1131 62.91337 506.3533zM61.63456 503.7561L61.63456 506.3621C 61.24198 506.3269 60.94755 506.2273 60.75126 506.0633C 60.44657 505.8113 60.29423 505.4846 60.29423 505.0833C 60.29423 504.3567 60.82011 503.8089 61.63456 503.7561z" stroke="none" fill="#353332" fill-rule="evenodd" /><path id="20" transform="matrix(1 0 0 -1 0 612)" d="M64.4163 508.1537L59.74931 508.1537L59.74931 508.1537L59.74931 508.8656L59.74931 508.8656L60.45683 508.8656C 59.79472 509.2289 59.64384 509.5072 59.64384 509.8763C 59.64384 510.1429 59.7288 510.4139 59.89872 510.6893L59.89872 510.6893L60.63261 510.4169C 60.51835 510.2235 60.46122 510.0302 60.46122 509.8368C 60.46122 509.4911 60.68095 509.1937 61.05009 509.0765C 61.33134 508.9886 61.63895 508.9447 61.97294 508.9447L61.97294 508.9447L64.4163 508.9447z" stroke="none" fill="#353332" fill-rule="evenodd" /><path id="21" transform="matrix(1 0 0 -1 0 612)" d="M63.02323 510.8431L62.90018 511.6253C 63.52714 511.7132 63.87138 512.1131 63.87138 512.8338C 63.87138 513.5604 63.52714 513.9061 63.1287 513.9061C 62.94999 513.9061 62.80936 513.8284 62.70683 513.6732C 62.63651 513.5648 62.54716 513.2952 62.43876 512.8646C 62.29227 512.2845 62.16557 511.8824 62.05863 511.6583C 61.9517 511.4341 61.80375 511.2642 61.61478 511.1485C 61.42582 511.0328 61.21708 510.9749 60.98856 510.9749C 60.57255 510.9749 60.20341 511.1785 59.96903 511.5067C 59.78739 511.7527 59.64384 512.2068 59.64384 512.6932C 59.64384 513.0594 59.69657 513.3809 59.80204 513.6578C 59.90751 513.9346 60.05033 514.139 60.23051 514.2708C 60.41068 514.4026 60.65165 514.4935 60.95341 514.5433L60.95341 514.5433L61.05888 513.7698C 60.57841 513.6995 60.29423 513.3655 60.29423 512.7503C 60.29423 512.0237 60.57401 511.7396 60.89628 511.7396C 60.99882 511.7396 61.0911 511.7718 61.17313 511.8362C 61.25809 511.9007 61.32841 512.0018 61.38407 512.1395C 61.41337 512.2186 61.48075 512.4515 61.58622 512.8382C 61.73563 513.3978 61.85795 513.7881 61.95316 514.0093C 62.04838 514.2305 62.18681 514.4041 62.36845 514.5301C 62.55009 514.6561 62.77567 514.7191 63.0452 514.7191C 63.30888 514.7191 63.55717 514.6422 63.79008 514.4883C 64.02299 514.3345 64.20316 514.1126 64.3306 513.8226C 64.45805 513.5325 64.52177 513.2044 64.52177 512.8382C 64.52177 511.6253 64.01347 511.0189 63.02323 510.8431z" stroke="none" fill="#353332" fill-rule="evenodd" /></g></g></svg>