<svg xmlns="http://www.w3.org/2000/svg" xmlns:xlink="http://www.w3.org/1999/xlink" id="body_6" preserveAspectRatio="xMinYMin meet" viewBox="0 0 1144 816"><defs><clipPath id="1"><path id="" clip-rule="evenodd" transform="matrix(1 0 0 1 0 0)" d="M0 612L0 -0.28302L0 -0.28302L858.898 -0.28302L858.898 -0.28302L858.898 612L858.898 612L0 612z" /></clipPath><clipPath id="2"><path id="" clip-rule="evenodd" transform="matrix(1 0 0 1 0 0)" d="M0 -0.28302L858.898 -0.28302L858.898 -0.28302L858.898 612L858.898 612L0 612z" /></clipPath></defs><g transform="matrix(1.333333 0 0 1.333333 0 0)"><g clip-path="url(#1)"><g clip-path="url(#2)"><path id="1" transform="matrix(1 0 0 -1 0 612)" d="M65.2581 139.6837L58.0999 139.6837L58.0999 139.6837L58.0999 142.8576C 58.0999 143.4956 58.16419 143.9806 58.29277 144.3126C 58.42135 144.6447 58.6484 144.91 58.97392 145.1085C 59.29944 145.3071 59.65915 145.4064 60.05302 145.4064C 61.06865 145.4064 61.81247 144.7635 62.00127 143.3898C 62.12171 143.6404 62.24052 143.8309 62.35771 143.9611C 62.61162 144.2378 62.929 144.4998 63.30986 144.7472L63.30986 144.7472L65.2581 145.9923L65.2581 145.9923L65.2581 144.8009L65.2581 144.8009L63.76884 143.8537C 63.33916 143.577 63.01038 143.3491 62.78252 143.1701C 62.55465 142.991 62.39515 142.8307 62.304 142.6891C 62.21286 142.5475 62.14938 142.4035 62.11357 142.257C 62.09079 142.1496 62.07939 141.9738 62.07939 141.7296L62.07939 141.7296L62.07939 140.631L62.07939 140.631L65.2581 140.631zM61.25908 140.631L61.25908 142.6671C 61.25908 143.1001 61.21432 143.4386 61.1248 143.6828C 61.03528 143.9269 60.89206 144.1124 60.69511 144.2394C 60.49817 144.3663 60.28415 144.4298 60.05302 144.4298C 59.37594 144.4298 58.89091 143.9578 58.89091 142.8966L58.89091 142.8966L58.89091 140.631z" stroke="none" fill="#353332" fill-rule="evenodd" /><path id="2" transform="matrix(1 0 0 -1 0 612)" d="M65.2581 150.1752L64.49638 150.1752C 65.08232 149.7716 65.37529 149.2231 65.37529 148.5297C 65.37529 148.2237 65.3167 147.9381 65.19951 147.6728C 65.08232 147.4075 64.93502 147.2105 64.75761 147.082C 64.58021 146.9534 64.36292 146.863 64.10576 146.811C 63.93323 146.7751 63.65979 146.7572 63.28545 146.7572L63.28545 146.7572L60.07256 146.7572L60.07256 146.7572L60.07256 147.6362L60.07256 147.6362L62.94853 147.6362C 63.40752 147.6362 63.71676 147.6541 63.87627 147.6899C 64.33851 147.8005 64.61845 148.1781 64.61845 148.7055C 64.61845 148.9692 64.55091 149.2166 64.41582 149.4477C 64.28072 149.6788 64.09681 149.8424 63.86406 149.9384C 63.63131 150.0344 63.29358 150.0824 62.85088 150.0824L62.85088 150.0824L60.07256 150.0824L60.07256 150.0824L60.07256 150.9613L60.07256 150.9613L65.2581 150.9613z" stroke="none" fill="#353332" fill-rule="evenodd" /><path id="3" transform="matrix(1 0 0 -1 0 612)" d="M62.66533 152.0096C 61.70504 152.0096 60.99378 152.2766 60.53154 152.8104C 60.14743 153.2564 59.95537 153.8 59.95537 154.4413C 59.95537 155.8671 60.94495 156.868 62.59209 156.868C 63.2594 156.868 63.78431 156.7679 64.16679 156.5677C 64.54928 156.3675 64.84632 156.0762 65.05791 155.6937C 65.26949 155.3112 65.37529 154.8937 65.37529 154.4413C 65.37529 152.9894 64.41663 152.0096 62.66533 152.0096zM62.66533 152.9129C 63.99345 152.9129 64.65263 153.5624 64.65263 154.4413C 64.65263 155.3137 63.99671 155.9647 62.63603 155.9647C 61.35348 155.9647 60.68291 155.3072 60.68291 154.4413C 60.68291 153.5624 61.3372 152.9129 62.66533 152.9129z" stroke="none" fill="#353332" fill-rule="evenodd" /><path id="4" transform="matrix(1 0 0 -1 0 612)" d="M63.35869 161.2806L63.47099 162.1448C 64.6624 161.956 65.37529 161.1194 65.37529 159.9866C 65.37529 158.5674 64.41663 157.6282 62.68486 157.6282C 62.12497 157.6282 61.63506 157.721 61.21513 157.9065C 60.79521 158.0921 60.48027 158.3745 60.27031 158.7537C 60.06035 159.1329 59.95537 159.5455 59.95537 159.9915C 59.95537 161.1178 60.54782 161.86 61.59599 162.0618L61.59599 162.0618L61.72783 161.2073C 61.03122 161.0446 60.67802 160.6116 60.67802 160.0257C 60.67802 159.1403 61.28675 158.5315 62.66045 158.5315C 64.05367 158.5315 64.65263 159.1175 64.65263 159.9769C 64.65263 160.667 64.23759 161.1569 63.35869 161.2806z" stroke="none" fill="#353332" fill-rule="evenodd" /><path id="5" transform="matrix(1 0 0 -1 0 612)" d="M65.2581 162.8968L58.0999 162.8968L58.0999 162.8968L58.0999 163.7757L58.0999 163.7757L60.66826 163.7757C 60.193 164.1858 59.95537 164.7034 59.95537 165.3284C 59.95537 165.7125 60.03105 166.0462 60.18242 166.3294C 60.33379 166.6126 60.54293 166.8152 60.80986 166.9373C 61.07679 167.0594 61.46416 167.1204 61.97197 167.1204L61.97197 167.1204L65.2581 167.1204L65.2581 167.1204L65.2581 166.2415L65.2581 166.2415L61.97197 166.2415C 61.09306 166.2415 60.7122 165.8444 60.7122 165.1478C 60.7122 164.8873 60.77975 164.6424 60.91484 164.4129C 61.04993 164.1834 61.23304 164.0198 61.46416 163.9222C 61.69528 163.8245 62.01429 163.7757 62.42119 163.7757L62.42119 163.7757L65.2581 163.7757z" stroke="none" fill="#353332" fill-rule="evenodd" /><path id="6" transform="matrix(1 0 0 -1 0 612)" d="M62.66533 168.1296C 61.70504 168.1296 60.99378 168.3966 60.53154 168.9304C 60.14743 169.3764 59.95537 169.92 59.95537 170.5613C 59.95537 171.9871 60.94495 172.988 62.59209 172.988C 63.2594 172.988 63.78431 172.8879 64.16679 172.6877C 64.54928 172.4875 64.84632 172.1962 65.05791 171.8137C 65.26949 171.4312 65.37529 171.0137 65.37529 170.5613C 65.37529 169.1095 64.41663 168.1296 62.66533 168.1296zM62.66533 169.033C 63.99345 169.033 64.65263 169.6824 64.65263 170.5613C 64.65263 171.4337 63.99671 172.0847 62.63603 172.0847C 61.35348 172.0847 60.68291 171.4272 60.68291 170.5613C 60.68291 169.6824 61.3372 169.033 62.66533 169.033z" stroke="none" fill="#353332" fill-rule="evenodd" /><path id="7" transform="matrix(1 0 0 -1 0 612)" d="M65.2581 174.0168L60.07256 174.0168L60.07256 174.0168L60.07256 174.8078L60.07256 174.8078L60.80986 174.8078C 60.2402 175.1887 59.95537 175.7388 59.95537 176.4582C 59.95537 176.7707 60.01152 177.058 60.12383 177.32C 60.23613 177.582 60.38343 177.7782 60.56572 177.9084C 60.74801 178.0386 60.96448 178.1297 61.21513 178.1818C 61.3779 178.2144 61.66272 178.2307 62.06963 178.2307L62.06963 178.2307L65.2581 178.2307L65.2581 178.2307L65.2581 177.3517L65.2581 177.3517L62.10381 177.3517C 61.74573 177.3517 61.47799 177.3176 61.30058 177.2492C 61.12317 177.1808 60.98157 177.0596 60.87578 176.8854C 60.76999 176.7113 60.71709 176.507 60.71709 176.2726C 60.71709 175.5239 61.09795 174.8957 62.42607 174.8957L62.42607 174.8957L65.2581 174.8957z" stroke="none" fill="#353332" fill-rule="evenodd" /><path id="8" transform="matrix(1 0 0 -1 0 612)" d="M65.68779 179.4156L65.81474 180.2701C 66.07841 180.3059 66.27047 180.4052 66.39091 180.568C 66.55367 180.7861 66.63506 181.0839 66.63506 181.4615C 66.63506 182.2753 66.29326 182.6969 65.70732 182.8531C 65.52828 182.8987 65.15231 182.9199 64.57939 182.9166C 65.03187 182.5325 65.2581 182.054 65.2581 181.4811C 65.2581 180.0553 64.07484 179.2399 62.63603 179.2399C 62.14124 179.2399 61.6847 179.3294 61.2664 179.5084C 60.84811 179.6875 60.52503 179.9471 60.29716 180.2872C 60.0693 180.6274 59.95537 181.027 59.95537 181.486C 59.95537 182.0979 60.20276 182.6025 60.69756 182.9996L60.69756 182.9996L60.07256 182.9996L60.07256 182.9996L60.07256 183.8102L60.07256 183.8102L64.55498 183.8102C 65.36227 183.8102 65.93437 183.728 66.27129 183.5636C 66.6082 183.3992 66.87431 183.1388 67.06963 182.7823C 67.26494 182.4259 67.36259 181.9873 67.36259 181.4664C 67.36259 180.2294 66.80758 179.3896 65.68779 179.4156zM62.57256 180.1432C 63.93323 180.1432 64.53056 180.7503 64.53056 181.5641C 64.53056 182.3714 63.92998 182.9899 62.60185 182.9899C 61.33232 182.9899 60.68291 182.3437 60.68291 181.5494C 60.68291 180.7682 61.32256 180.1432 62.57256 180.1432z" stroke="none" fill="#353332" fill-rule="evenodd" /></g><g transform="matrix(0.2658744 0 0 0.2658744 56.69291 56.73438)"><g transform="matrix(1 0 0 1 0 0)"><image x="0" y="0" xlink:href="img_11.png" width="2804" height="1874" /></g></g><path id="10" transform="matrix(1 0 0 -1 0 612)" d="M794.4813 512.7216L800.1635 512.7216L800.1635 512.7216L800.1635 514.8442L800.1635 514.8442L800.9237 514.8442L800.9237 514.8442L800.9237 509.7377L800.9237 509.7377L800.1635 509.7377L800.1635 509.7377L800.1635 511.8691L800.1635 511.8691L794.4813 511.8691z" stroke="none" fill="#353231" fill-rule="evenodd" /><path id="11" transform="matrix(1 0 0 -1 0 612)" d="M794.4813 508.5965L799.1483 510.0247L799.1483 510.0247L799.1483 509.2074L799.1483 509.2074L796.4545 508.4647L796.4545 508.4647L795.4525 508.1878C 795.5023 508.1761 795.8231 508.0956 796.4149 507.9461L796.4149 507.9461L799.1483 507.2035L799.1483 507.2035L799.1483 506.3905L799.1483 506.3905L796.4413 505.6917L796.4413 505.6917L795.5492 505.4588L795.5492 505.4588L796.4501 505.1908L796.4501 505.1908L799.1483 504.391L799.1483 504.391L799.1483 503.6219L799.1483 503.6219L794.4813 505.0809L794.4813 505.0809L794.4813 505.9027L794.4813 505.9027L797.2762 506.6454L797.2762 506.6454L798.0717 506.8255L798.0717 506.8255L794.4813 507.7704z" stroke="none" fill="#353231" fill-rule="evenodd" /><path id="12" transform="matrix(1 0 0 -1 0 612)" d="M796.8148 503.2543C 797.6791 503.2543 798.3192 503.0141 798.7352 502.5336C 799.0809 502.1322 799.2538 501.643 799.2538 501.0658C 799.2538 499.7826 798.3632 498.8817 796.8807 498.8817C 796.2802 498.8817 795.8077 498.9718 795.4635 499.152C 795.1193 499.3322 794.8519 499.5944 794.6615 499.9386C 794.4711 500.2829 794.3759 500.6586 794.3759 501.0658C 794.3759 502.3725 795.2386 503.2543 796.8148 503.2543zM796.8148 502.4413C 795.6195 502.4413 795.0262 501.8568 795.0262 501.0658C 795.0262 500.2807 795.6166 499.6947 796.8412 499.6947C 797.9955 499.6947 798.599 500.2865 798.599 501.0658C 798.599 501.8568 798.0101 502.4413 796.8148 502.4413z" stroke="none" fill="#353231" fill-rule="evenodd" /><path id="14" transform="matrix(1 0 0 -1 0 612)" d="M794.4813 495.3879L800.9237 495.3879L800.9237 495.3879L800.9237 492.9709C 800.9237 492.4788 800.8585 492.084 800.7281 491.7866C 800.5978 491.4893 800.3971 491.2563 800.1261 491.0879C 799.8551 490.9194 799.5717 490.8352 799.2758 490.8352C 798.725 490.8352 798.2079 491.1326 797.9091 491.7361C 797.6805 490.9568 797.099 490.5232 796.349 490.5232C 796.0472 490.5232 795.7667 490.5869 795.5074 490.7144C 795.2482 490.8418 795.0482 490.9993 794.9076 491.1868C 794.767 491.3743 794.6608 491.6094 794.589 491.8921C 794.5172 492.1748 794.4813 492.5212 794.4813 492.9314zM798.2167 494.5354L798.2167 493.1423C 798.2167 492.7644 798.2416 492.4934 798.2914 492.3293C 798.4203 491.8958 798.7235 491.6746 799.1747 491.6746C 799.3885 491.6746 799.5768 491.7258 799.7394 491.8284C 799.902 491.9309 800.0133 492.0774 800.0734 492.2678C 800.1334 492.4583 800.1635 492.7849 800.1635 493.2478L800.1635 493.2478L800.1635 494.5354zM795.2416 494.5354L795.2416 492.9314C 795.2416 492.656 795.2518 492.4626 795.2723 492.3513C 795.3075 492.155 795.3661 491.991 795.4481 491.8591C 795.5302 491.7273 795.6495 491.6189 795.8063 491.5339C 795.963 491.449 796.1439 491.4065 796.349 491.4065C 796.5892 491.4065 796.798 491.468 796.9752 491.5911C 797.1525 491.7141 797.277 491.8848 797.3488 492.103C 797.4205 492.3213 797.4564 492.6355 797.4564 493.0457L797.4564 493.0457L797.4564 494.5354z" stroke="none" fill="#353231" fill-rule="evenodd" /><path id="15" transform="matrix(1 0 0 -1 0 612)" d="M794.4813 489.4597L799.1483 489.4597L799.1483 489.4597L799.1483 488.7477L799.1483 488.7477L798.4408 488.7477C 799.1029 488.3845 799.2538 488.1061 799.2538 487.737C 799.2538 487.4704 799.1688 487.1994 798.9989 486.924L798.9989 486.924L798.265 487.1965C 798.3793 487.3898 798.4364 487.5832 798.4364 487.7766C 798.4364 488.1223 798.2167 488.4196 797.8475 488.5368C 797.5663 488.6247 797.2587 488.6686 796.9247 488.6686L796.9247 488.6686L794.4813 488.6686z" stroke="none" fill="#353231" fill-rule="evenodd" /><path id="16" transform="matrix(1 0 0 -1 0 612)" d="M796.8148 486.7483C 797.6791 486.7483 798.3192 486.5081 798.7352 486.0276C 799.0809 485.6262 799.2538 485.137 799.2538 484.5598C 799.2538 483.2766 798.3632 482.3757 796.8807 482.3757C 796.2802 482.3757 795.8077 482.4658 795.4635 482.646C 795.1193 482.8262 794.8519 483.0884 794.6615 483.4326C 794.4711 483.7769 794.3759 484.1526 794.3759 484.5598C 794.3759 485.8665 795.2386 486.7483 796.8148 486.7483zM796.8148 485.9353C 795.6195 485.9353 795.0262 485.3508 795.0262 484.5598C 795.0262 483.7747 795.6166 483.1887 796.8412 483.1887C 797.9955 483.1887 798.599 483.7805 798.599 484.5598C 798.599 485.3508 798.0101 485.9353 796.8148 485.9353z" stroke="none" fill="#353231" fill-rule="evenodd" /><path id="17" transform="matrix(1 0 0 -1 0 612)" d="M795.1888 479.7228L794.4901 479.6086C 794.4432 479.8312 794.4198 480.0304 794.4198 480.2062C 794.4198 480.4933 794.4652 480.716 794.556 480.8742C 794.6469 481.0324 794.7662 481.1437 794.9142 481.2082C 795.0621 481.2726 795.3734 481.3048 795.848 481.3048L795.848 481.3048L798.5331 481.3048L798.5331 481.3048L798.5331 481.8849L798.5331 481.8849L799.1483 481.8849L799.1483 481.8849L799.1483 481.3048L799.1483 481.3048L800.3041 481.3048L800.3041 481.3048L800.7787 480.5182L800.7787 480.5182L799.1483 480.5182L799.1483 480.5182L799.1483 479.7228L799.1483 479.7228L798.5331 479.7228L798.5331 479.7228L798.5331 480.5182L798.5331 480.5182L795.8041 480.5182C 795.5785 480.5182 795.4335 480.5043 795.369 480.4765C 795.3046 480.4486 795.2533 480.4032 795.2152 480.3402C 795.1771 480.2773 795.1581 480.1872 795.1581 480.07C 795.1581 479.9821 795.1683 479.8664 795.1888 479.7228z" stroke="none" fill="#353231" fill-rule="evenodd" /><path id="18" transform="matrix(1 0 0 -1 0 612)" d="M794.4813 478.9478L800.9237 478.9478L800.9237 478.9478L800.9237 478.1568L800.9237 478.1568L798.6122 478.1568C 799.0399 477.7877 799.2538 477.3219 799.2538 476.7594C 799.2538 476.4137 799.1857 476.1134 799.0494 475.8585C 798.9132 475.6036 798.725 475.4212 798.4847 475.3114C 798.2445 475.2015 797.8959 475.1466 797.4388 475.1466L797.4388 475.1466L794.4813 475.1466L794.4813 475.1466L794.4813 475.9376L794.4813 475.9376L797.4388 475.9376C 798.2299 475.9376 798.5726 476.295 798.5726 476.922C 798.5726 477.1563 798.5118 477.3768 798.3903 477.5833C 798.2687 477.7899 798.1039 477.9371 797.8959 478.025C 797.6879 478.1129 797.4008 478.1568 797.0345 478.1568L797.0345 478.1568L794.4813 478.1568z" stroke="none" fill="#353231" fill-rule="evenodd" /><path id="19" transform="matrix(1 0 0 -1 0 612)" d="M795.9843 470.749L795.8832 469.9316C 794.9281 470.1895 794.3759 470.8999 794.3759 471.9839C 794.3759 473.3491 795.2577 474.2075 796.7753 474.2075C 798.3456 474.2075 799.2538 473.3169 799.2538 472.0278C 799.2538 470.7798 798.3646 469.9053 796.8236 469.9053C 796.7767 469.9053 796.7064 469.9067 796.6127 469.9097L796.6127 469.9097L796.6127 473.3901C 795.5873 473.3315 795.0262 472.7588 795.0262 471.9795C 795.0262 471.3994 795.3163 470.9893 795.9843 470.749zM797.2631 473.3462L797.2631 470.7402C 797.6556 470.7754 797.9501 470.875 798.1464 471.0391C 798.451 471.291 798.6034 471.6177 798.6034 472.019C 798.6034 472.7456 798.0775 473.2935 797.2631 473.3462z" stroke="none" fill="#353231" fill-rule="evenodd" /><path id="20" transform="matrix(1 0 0 -1 0 612)" d="M794.4813 468.9486L799.1483 468.9486L799.1483 468.9486L799.1483 468.2367L799.1483 468.2367L798.4408 468.2367C 799.1029 467.8734 799.2538 467.5951 799.2538 467.226C 799.2538 466.9594 799.1688 466.6884 798.9989 466.413L798.9989 466.413L798.265 466.6855C 798.3793 466.8788 798.4364 467.0722 798.4364 467.2655C 798.4364 467.6112 798.2167 467.9086 797.8475 468.0258C 797.5663 468.1137 797.2587 468.1576 796.9247 468.1576L796.9247 468.1576L794.4813 468.1576z" stroke="none" fill="#353231" fill-rule="evenodd" /><path id="21" transform="matrix(1 0 0 -1 0 612)" d="M795.8744 466.2593L795.9974 465.4771C 795.3705 465.3892 795.0262 464.9893 795.0262 464.2686C 795.0262 463.542 795.3705 463.1963 795.7689 463.1963C 795.9476 463.1963 796.0883 463.2739 796.1908 463.4292C 796.2611 463.5376 796.3505 463.8071 796.4589 464.2378C 796.6053 464.8179 796.7321 465.22 796.839 465.4441C 796.9459 465.6682 797.0939 465.8381 797.2828 465.9539C 797.4718 466.0695 797.6805 466.1274 797.9091 466.1274C 798.3251 466.1274 798.6942 465.9238 798.9286 465.5957C 799.1102 465.3496 799.2538 464.8955 799.2538 464.4092C 799.2538 464.043 799.201 463.7214 799.0956 463.4446C 798.9901 463.1677 798.8473 462.9634 798.6671 462.8315C 798.4869 462.6997 798.246 462.6089 797.9442 462.5591L797.9442 462.5591L797.8387 463.3325C 798.3192 463.4028 798.6034 463.7368 798.6034 464.3521C 798.6034 465.0786 798.3236 465.3628 798.0013 465.3628C 797.8988 465.3628 797.8065 465.3306 797.7245 465.2661C 797.6395 465.2016 797.5692 465.1006 797.5135 464.9629C 797.4843 464.8838 797.4169 464.6509 797.3114 464.2642C 797.162 463.7046 797.0397 463.3142 796.9445 463.093C 796.8492 462.8718 796.7108 462.6982 796.5292 462.5723C 796.3475 462.4463 796.1219 462.3833 795.8524 462.3833C 795.5887 462.3833 795.3405 462.4602 795.1075 462.614C 794.8746 462.7678 794.6945 462.9897 794.567 463.2798C 794.4396 463.5698 794.3759 463.8979 794.3759 464.2642C 794.3759 465.4771 794.8842 466.0835 795.8744 466.2593z" stroke="none" fill="#353231" fill-rule="evenodd" /></g></g></svg>