<svg xmlns="http://www.w3.org/2000/svg" xmlns:xlink="http://www.w3.org/1999/xlink" id="body_4" preserveAspectRatio="xMinYMin meet" viewBox="0 0 1144 816"><defs><clipPath id="1"><path id="" clip-rule="evenodd" transform="matrix(1 0 0 1 0 0)" d="M0 612L0 -0.28302L0 -0.28302L858.898 -0.28302L858.898 -0.28302L858.898 612L858.898 612L0 612z" /></clipPath><clipPath id="2"><path id="" clip-rule="evenodd" transform="matrix(1 0 0 1 0 0)" d="M0 -0.28302L858.898 -0.28302L858.898 -0.28302L858.898 612L858.898 612L0 612z" /></clipPath></defs><g transform="matrix(1.333333 0 0 1.333333 0 0)"><g clip-path="url(#1)"><g clip-path="url(#2)"><path id="1" transform="matrix(1 0 0 -1 0 612)" d="M65.2581 139.6837L58.0999 139.6837L58.0999 139.6837L58.0999 142.8576C 58.0999 143.4956 58.16419 143.9806 58.29277 144.3126C 58.42135 144.6447 58.6484 144.91 58.97392 145.1085C 59.29944 145.3071 59.65915 145.4064 60.05302 145.4064C 61.06865 145.4064 61.81247 144.7635 62.00127 143.3898C 62.12171 143.6404 62.24052 143.8309 62.35771 143.9611C 62.61162 144.2378 62.929 144.4998 63.30986 144.7472L63.30986 144.7472L65.2581 145.9923L65.2581 145.9923L65.2581 144.8009L65.2581 144.8009L63.76884 143.8537C 63.33916 143.577 63.01038 143.3491 62.78252 143.1701C 62.55465 142.991 62.39515 142.8307 62.304 142.6891C 62.21286 142.5475 62.14938 142.4035 62.11357 142.257C 62.09079 142.1496 62.07939 141.9738 62.07939 141.7296L62.07939 141.7296L62.07939 140.631L62.07939 140.631L65.2581 140.631zM61.25908 140.631L61.25908 142.6671C 61.25908 143.1001 61.21432 143.4386 61.1248 143.6828C 61.03528 143.9269 60.89206 144.1124 60.69511 144.2394C 60.49817 144.3663 60.28415 144.4298 60.05302 144.4298C 59.37594 144.4298 58.89091 143.9578 58.89091 142.8966L58.89091 142.8966L58.89091 140.631z" stroke="none" fill="#353332" fill-rule="evenodd" /><path id="2" transform="matrix(1 0 0 -1 0 612)" d="M65.2581 150.1752L64.49638 150.1752C 65.08232 149.7716 65.37529 149.2231 65.37529 148.5297C 65.37529 148.2237 65.3167 147.9381 65.19951 147.6728C 65.08232 147.4075 64.93502 147.2105 64.75761 147.082C 64.58021 146.9534 64.36292 146.863 64.10576 146.811C 63.93323 146.7751 63.65979 146.7572 63.28545 146.7572L63.28545 146.7572L60.07256 146.7572L60.07256 146.7572L60.07256 147.6362L60.07256 147.6362L62.94853 147.6362C 63.40752 147.6362 63.71676 147.6541 63.87627 147.6899C 64.33851 147.8005 64.61845 148.1781 64.61845 148.7055C 64.61845 148.9692 64.55091 149.2166 64.41582 149.4477C 64.28072 149.6788 64.09681 149.8424 63.86406 149.9384C 63.63131 150.0344 63.29358 150.0824 62.85088 150.0824L62.85088 150.0824L60.07256 150.0824L60.07256 150.0824L60.07256 150.9613L60.07256 150.9613L65.2581 150.9613z" stroke="none" fill="#353332" fill-rule="evenodd" /><path id="3" transform="matrix(1 0 0 -1 0 612)" d="M62.66533 152.0096C 61.70504 152.0096 60.99378 152.2766 60.53154 152.8104C 60.14743 153.2564 59.95537 153.8 59.95537 154.4413C 59.95537 155.8671 60.94495 156.868 62.59209 156.868C 63.2594 156.868 63.78431 156.7679 64.16679 156.5677C 64.54928 156.3675 64.84632 156.0762 65.05791 155.6937C 65.26949 155.3112 65.37529 154.8937 65.37529 154.4413C 65.37529 152.9894 64.41663 152.0096 62.66533 152.0096zM62.66533 152.9129C 63.99345 152.9129 64.65263 153.5624 64.65263 154.4413C 64.65263 155.3137 63.99671 155.9647 62.63603 155.9647C 61.35348 155.9647 60.68291 155.3072 60.68291 154.4413C 60.68291 153.5624 61.3372 152.9129 62.66533 152.9129z" stroke="none" fill="#353332" fill-rule="evenodd" /><path id="4" transform="matrix(1 0 0 -1 0 612)" d="M63.35869 161.2806L63.47099 162.1448C 64.6624 161.956 65.37529 161.1194 65.37529 159.9866C 65.37529 158.5674 64.41663 157.6282 62.68486 157.6282C 62.12497 157.6282 61.63506 157.721 61.21513 157.9065C 60.79521 158.0921 60.48027 158.3745 60.27031 158.7537C 60.06035 159.1329 59.95537 159.5455 59.95537 159.9915C 59.95537 161.1178 60.54782 161.86 61.59599 162.0618L61.59599 162.0618L61.72783 161.2073C 61.03122 161.0446 60.67802 160.6116 60.67802 160.0257C 60.67802 159.1403 61.28675 158.5315 62.66045 158.5315C 64.05367 158.5315 64.65263 159.1175 64.65263 159.9769C 64.65263 160.667 64.23759 161.1569 63.35869 161.2806z" stroke="none" fill="#353332" fill-rule="evenodd" /><path id="5" transform="matrix(1 0 0 -1 0 612)" d="M65.2581 162.8968L58.0999 162.8968L58.0999 162.8968L58.0999 163.7757L58.0999 163.7757L60.66826 163.7757C 60.193 164.1858 59.95537 164.7034 59.95537 165.3284C 59.95537 165.7125 60.03105 166.0462 60.18242 166.3294C 60.33379 166.6126 60.54293 166.8152 60.80986 166.9373C 61.07679 167.0594 61.46416 167.1204 61.97197 167.1204L61.97197 167.1204L65.2581 167.1204L65.2581 167.1204L65.2581 166.2415L65.2581 166.2415L61.97197 166.2415C 61.09306 166.2415 60.7122 165.8444 60.7122 165.1478C 60.7122 164.8873 60.77975 164.6424 60.91484 164.4129C 61.04993 164.1834 61.23304 164.0198 61.46416 163.9222C 61.69528 163.8245 62.01429 163.7757 62.42119 163.7757L62.42119 163.7757L65.2581 163.7757z" stroke="none" fill="#353332" fill-rule="evenodd" /><path id="6" transform="matrix(1 0 0 -1 0 612)" d="M62.66533 168.1296C 61.70504 168.1296 60.99378 168.3966 60.53154 168.9304C 60.14743 169.3764 59.95537 169.92 59.95537 170.5613C 59.95537 171.9871 60.94495 172.988 62.59209 172.988C 63.2594 172.988 63.78431 172.8879 64.16679 172.6877C 64.54928 172.4875 64.84632 172.1962 65.05791 171.8137C 65.26949 171.4312 65.37529 171.0137 65.37529 170.5613C 65.37529 169.1095 64.41663 168.1296 62.66533 168.1296zM62.66533 169.033C 63.99345 169.033 64.65263 169.6824 64.65263 170.5613C 64.65263 171.4337 63.99671 172.0847 62.63603 172.0847C 61.35348 172.0847 60.68291 171.4272 60.68291 170.5613C 60.68291 169.6824 61.3372 169.033 62.66533 169.033z" stroke="none" fill="#353332" fill-rule="evenodd" /><path id="7" transform="matrix(1 0 0 -1 0 612)" d="M65.2581 174.0168L60.07256 174.0168L60.07256 174.0168L60.07256 174.8078L60.07256 174.8078L60.80986 174.8078C 60.2402 175.1887 59.95537 175.7388 59.95537 176.4582C 59.95537 176.7707 60.01152 177.058 60.12383 177.32C 60.23613 177.582 60.38343 177.7782 60.56572 177.9084C 60.74801 178.0386 60.96448 178.1297 61.21513 178.1818C 61.3779 178.2144 61.66272 178.2307 62.06963 178.2307L62.06963 178.2307L65.2581 178.2307L65.2581 178.2307L65.2581 177.3517L65.2581 177.3517L62.10381 177.3517C 61.74573 177.3517 61.47799 177.3176 61.30058 177.2492C 61.12317 177.1808 60.98157 177.0596 60.87578 176.8854C 60.76999 176.7113 60.71709 176.507 60.71709 176.2726C 60.71709 175.5239 61.09795 174.8957 62.42607 174.8957L62.42607 174.8957L65.2581 174.8957z" stroke="none" fill="#353332" fill-rule="evenodd" /><path id="8" transform="matrix(1 0 0 -1 0 612)" d="M65.68779 179.4156L65.81474 180.2701C 66.07841 180.3059 66.27047 180.4052 66.39091 180.568C 66.55367 180.7861 66.63506 181.0839 66.63506 181.4615C 66.63506 182.2753 66.29326 182.6969 65.70732 182.8531C 65.52828 182.8987 65.15231 182.9199 64.57939 182.9166C 65.03187 182.5325 65.2581 182.054 65.2581 181.4811C 65.2581 180.0553 64.07484 179.2399 62.63603 179.2399C 62.14124 179.2399 61.6847 179.3294 61.2664 179.5084C 60.84811 179.6875 60.52503 179.9471 60.29716 180.2872C 60.0693 180.6274 59.95537 181.027 59.95537 181.486C 59.95537 182.0979 60.20276 182.6025 60.69756 182.9996L60.69756 182.9996L60.07256 182.9996L60.07256 182.9996L60.07256 183.8102L60.07256 183.8102L64.55498 183.8102C 65.36227 183.8102 65.93437 183.728 66.27129 183.5636C 66.6082 183.3992 66.87431 183.1388 67.06963 182.7823C 67.26494 182.4259 67.36259 181.9873 67.36259 181.4664C 67.36259 180.2294 66.80758 179.3896 65.68779 179.4156zM62.57256 180.1432C 63.93323 180.1432 64.53056 180.7503 64.53056 181.5641C 64.53056 182.3714 63.92998 182.9899 62.60185 182.9899C 61.33232 182.9899 60.68291 182.3437 60.68291 181.5494C 60.68291 180.7682 61.32256 180.1432 62.57256 180.1432z" stroke="none" fill="#353332" fill-rule="evenodd" /></g><g transform="matrix(0.2658744 0 0 0.2658744 56.69291 56.73438)"><g transform="matrix(1 0 0 1 0 0)"><image x="0" y="0" xlink:href="img_07.png" width="2804" height="1874" /></g></g><path id="20" transform="matrix(1 0 0 -1 0 612)" d="M794.4813 515.5563L800.1635 515.5563L800.1635 515.5563L800.1635 517.6788L800.1635 517.6788L800.9237 517.6788L800.9237 517.6788L800.9237 512.5724L800.9237 512.5724L800.1635 512.5724L800.1635 512.5724L800.1635 514.7037L800.1635 514.7037L794.4813 514.7037z" stroke="none" fill="#353231" fill-rule="evenodd" /><path id="21" transform="matrix(1 0 0 -1 0 612)" d="M794.4813 511.4312L799.1483 512.8594L799.1483 512.8594L799.1483 512.042L799.1483 512.042L796.4545 511.2993L796.4545 511.2993L795.4525 511.0225C 795.5023 511.0107 795.8231 510.9302 796.4149 510.7808L796.4149 510.7808L799.1483 510.0381L799.1483 510.0381L799.1483 509.2251L799.1483 509.2251L796.4413 508.5264L796.4413 508.5264L795.5492 508.2935L795.5492 508.2935L796.4501 508.0254L796.4501 508.0254L799.1483 507.2256L799.1483 507.2256L799.1483 506.4565L799.1483 506.4565L794.4813 507.9155L794.4813 507.9155L794.4813 508.7373L794.4813 508.7373L797.2762 509.48L797.2762 509.48L798.0717 509.6602L798.0717 509.6602L794.4813 510.605z" stroke="none" fill="#353231" fill-rule="evenodd" /><path id="22" transform="matrix(1 0 0 -1 0 612)" d="M796.8148 506.0889C 797.6791 506.0889 798.3192 505.8487 798.7352 505.3682C 799.0809 504.9669 799.2538 504.4776 799.2538 503.9005C 799.2538 502.6172 798.3632 501.7164 796.8807 501.7164C 796.2802 501.7164 795.8077 501.8065 795.4635 501.9866C 795.1193 502.1668 794.8519 502.429 794.6615 502.7733C 794.4711 503.1175 794.3759 503.4932 794.3759 503.9005C 794.3759 505.2071 795.2386 506.0889 796.8148 506.0889zM796.8148 505.2759C 795.6195 505.2759 795.0262 504.6915 795.0262 503.9005C 795.0262 503.1153 795.6166 502.5294 796.8412 502.5294C 797.9955 502.5294 798.599 503.1212 798.599 503.9005C 798.599 504.6915 798.0101 505.2759 796.8148 505.2759z" stroke="none" fill="#353231" fill-rule="evenodd" /><path id="24" transform="matrix(1 0 0 -1 0 612)" d="M794.4813 498.2226L800.9237 498.2226L800.9237 498.2226L800.9237 495.8056C 800.9237 495.3134 800.8585 494.9186 800.7281 494.6212C 800.5978 494.3239 800.3971 494.091 800.1261 493.9225C 799.8551 493.7541 799.5717 493.6698 799.2758 493.6698C 798.725 493.6698 798.2079 493.9672 797.9091 494.5707C 797.6805 493.7914 797.099 493.3578 796.349 493.3578C 796.0472 493.3578 795.7667 493.4215 795.5074 493.549C 795.2482 493.6764 795.0482 493.8339 794.9076 494.0214C 794.767 494.2089 794.6608 494.444 794.589 494.7267C 794.5172 495.0094 794.4813 495.3559 794.4813 495.766zM798.2167 497.37L798.2167 495.977C 798.2167 495.599 798.2416 495.328 798.2914 495.164C 798.4203 494.7304 798.7235 494.5092 799.1747 494.5092C 799.3885 494.5092 799.5768 494.5605 799.7394 494.663C 799.902 494.7655 800.0133 494.912 800.0734 495.1024C 800.1334 495.2929 800.1635 495.6195 800.1635 496.0824L800.1635 496.0824L800.1635 497.37zM795.2416 497.37L795.2416 495.766C 795.2416 495.4906 795.2518 495.2973 795.2723 495.1859C 795.3075 494.9897 795.3661 494.8256 795.4481 494.6938C 795.5302 494.5619 795.6495 494.4535 795.8063 494.3686C 795.963 494.2836 796.1439 494.2411 796.349 494.2411C 796.5892 494.2411 796.798 494.3026 796.9752 494.4257C 797.1525 494.5487 797.277 494.7194 797.3488 494.9377C 797.4205 495.1559 797.4564 495.4701 797.4564 495.8803L797.4564 495.8803L797.4564 497.37z" stroke="none" fill="#353231" fill-rule="evenodd" /><path id="25" transform="matrix(1 0 0 -1 0 612)" d="M794.4813 492.2943L799.1483 492.2943L799.1483 492.2943L799.1483 491.5824L799.1483 491.5824L798.4408 491.5824C 799.1029 491.2191 799.2538 490.9408 799.2538 490.5716C 799.2538 490.305 799.1688 490.034 798.9989 489.7586L798.9989 489.7586L798.265 490.0311C 798.3793 490.2245 798.4364 490.4178 798.4364 490.6112C 798.4364 490.9569 798.2167 491.2542 797.8475 491.3714C 797.5663 491.4593 797.2587 491.5033 796.9247 491.5033L796.9247 491.5033L794.4813 491.5033z" stroke="none" fill="#353231" fill-rule="evenodd" /><path id="26" transform="matrix(1 0 0 -1 0 612)" d="M796.8148 489.5829C 797.6791 489.5829 798.3192 489.3427 798.7352 488.8622C 799.0809 488.4608 799.2538 487.9716 799.2538 487.3944C 799.2538 486.1112 798.3632 485.2104 796.8807 485.2104C 796.2802 485.2104 795.8077 485.3004 795.4635 485.4806C 795.1193 485.6608 794.8519 485.923 794.6615 486.2672C 794.4711 486.6115 794.3759 486.9872 794.3759 487.3944C 794.3759 488.7011 795.2386 489.5829 796.8148 489.5829zM796.8148 488.7699C 795.6195 488.7699 795.0262 488.1855 795.0262 487.3944C 795.0262 486.6093 795.6166 486.0233 796.8412 486.0233C 797.9955 486.0233 798.599 486.6151 798.599 487.3944C 798.599 488.1855 798.0101 488.7699 796.8148 488.7699z" stroke="none" fill="#353231" fill-rule="evenodd" /><path id="27" transform="matrix(1 0 0 -1 0 612)" d="M795.1888 482.5574L794.4901 482.4432C 794.4432 482.6658 794.4198 482.8651 794.4198 483.0408C 794.4198 483.3279 794.4652 483.5506 794.556 483.7088C 794.6469 483.867 794.7662 483.9783 794.9142 484.0428C 795.0621 484.1072 795.3734 484.1395 795.848 484.1395L795.848 484.1395L798.5331 484.1395L798.5331 484.1395L798.5331 484.7195L798.5331 484.7195L799.1483 484.7195L799.1483 484.7195L799.1483 484.1395L799.1483 484.1395L800.3041 484.1395L800.3041 484.1395L800.7787 483.3528L800.7787 483.3528L799.1483 483.3528L799.1483 483.3528L799.1483 482.5574L799.1483 482.5574L798.5331 482.5574L798.5331 482.5574L798.5331 483.3528L798.5331 483.3528L795.8041 483.3528C 795.5785 483.3528 795.4335 483.3389 795.369 483.3111C 795.3046 483.2833 795.2533 483.2379 795.2152 483.1749C 795.1771 483.1119 795.1581 483.0218 795.1581 482.9046C 795.1581 482.8167 795.1683 482.701 795.1888 482.5574z" stroke="none" fill="#353231" fill-rule="evenodd" /><path id="28" transform="matrix(1 0 0 -1 0 612)" d="M794.4813 481.7825L800.9237 481.7825L800.9237 481.7825L800.9237 480.9915L800.9237 480.9915L798.6122 480.9915C 799.0399 480.6223 799.2538 480.1565 799.2538 479.594C 799.2538 479.2483 799.1857 478.948 799.0494 478.6931C 798.9132 478.4382 798.725 478.2559 798.4847 478.146C 798.2445 478.0361 797.8959 477.9812 797.4388 477.9812L797.4388 477.9812L794.4813 477.9812L794.4813 477.9812L794.4813 478.7722L794.4813 478.7722L797.4388 478.7722C 798.2299 478.7722 798.5726 479.1296 798.5726 479.7566C 798.5726 479.991 798.5118 480.2114 798.3903 480.418C 798.2687 480.6245 798.1039 480.7717 797.8959 480.8596C 797.6879 480.9475 797.4008 480.9915 797.0345 480.9915L797.0345 480.9915L794.4813 480.9915z" stroke="none" fill="#353231" fill-rule="evenodd" /><path id="29" transform="matrix(1 0 0 -1 0 612)" d="M795.9843 473.5836L795.8832 472.7663C 794.9281 473.0241 794.3759 473.7345 794.3759 474.8185C 794.3759 476.1837 795.2577 477.0421 796.7753 477.0421C 798.3456 477.0421 799.2538 476.1515 799.2538 474.8625C 799.2538 473.6144 798.3646 472.7399 796.8236 472.7399C 796.7767 472.7399 796.7064 472.7414 796.6127 472.7443L796.6127 472.7443L796.6127 476.2248C 795.5873 476.1662 795.0262 475.5934 795.0262 474.8141C 795.0262 474.234 795.3163 473.8239 795.9843 473.5836zM797.2631 476.1808L797.2631 473.5749C 797.6556 473.61 797.9501 473.7096 798.1464 473.8737C 798.451 474.1256 798.6034 474.4523 798.6034 474.8537C 798.6034 475.5802 798.0775 476.1281 797.2631 476.1808z" stroke="none" fill="#353231" fill-rule="evenodd" /><path id="30" transform="matrix(1 0 0 -1 0 612)" d="M794.4813 471.7833L799.1483 471.7833L799.1483 471.7833L799.1483 471.0714L799.1483 471.0714L798.4408 471.0714C 799.1029 470.7081 799.2538 470.4297 799.2538 470.0606C 799.2538 469.794 799.1688 469.523 798.9989 469.2476L798.9989 469.2476L798.265 469.5201C 798.3793 469.7134 798.4364 469.9068 798.4364 470.1002C 798.4364 470.4459 798.2167 470.7432 797.8475 470.8604C 797.5663 470.9483 797.2587 470.9922 796.9247 470.9922L796.9247 470.9922L794.4813 470.9922z" stroke="none" fill="#353231" fill-rule="evenodd" /><path id="31" transform="matrix(1 0 0 -1 0 612)" d="M795.8744 469.0939L795.9974 468.3116C 795.3705 468.2238 795.0262 467.8239 795.0262 467.1031C 795.0262 466.3766 795.3705 466.0309 795.7689 466.0309C 795.9476 466.0309 796.0883 466.1085 796.1908 466.2638C 796.2611 466.3722 796.3505 466.6417 796.4589 467.0724C 796.6053 467.6525 796.7321 468.0546 796.839 468.2787C 796.9459 468.5028 797.0939 468.6727 797.2828 468.7885C 797.4718 468.9042 797.6805 468.962 797.9091 468.962C 798.3251 468.962 798.6942 468.7584 798.9286 468.4303C 799.1102 468.1842 799.2538 467.7301 799.2538 467.2438C 799.2538 466.8776 799.201 466.556 799.0956 466.2792C 798.9901 466.0023 798.8473 465.798 798.6671 465.6661C 798.4869 465.5343 798.246 465.4435 797.9442 465.3937L797.9442 465.3937L797.8387 466.1671C 798.3192 466.2374 798.6034 466.5714 798.6034 467.1866C 798.6034 467.9132 798.3236 468.1974 798.0013 468.1974C 797.8988 468.1974 797.8065 468.1652 797.7245 468.1007C 797.6395 468.0363 797.5692 467.9352 797.5135 467.7975C 797.4843 467.7184 797.4169 467.4855 797.3114 467.0988C 797.162 466.5392 797.0397 466.1488 796.9445 465.9276C 796.8492 465.7064 796.7108 465.5328 796.5292 465.4069C 796.3475 465.2809 796.1219 465.2179 795.8524 465.2179C 795.5887 465.2179 795.3405 465.2948 795.1075 465.4486C 794.8746 465.6024 794.6945 465.8243 794.567 466.1144C 794.4396 466.4044 794.3759 466.7325 794.3759 467.0988C 794.3759 468.3116 794.8842 468.9181 795.8744 469.0939z" stroke="none" fill="#353231" fill-rule="evenodd" /></g></g></svg>