<svg xmlns="http://www.w3.org/2000/svg" xmlns:xlink="http://www.w3.org/1999/xlink" id="body_5" preserveAspectRatio="xMinYMin meet" viewBox="0 0 1144 816"><defs><clipPath id="1"><path id="" clip-rule="evenodd" transform="matrix(1 0 0 1 0 0)" d="M0 612L0 -0.28302L0 -0.28302L858.898 -0.28302L858.898 -0.28302L858.898 612L858.898 612L0 612z" /></clipPath><clipPath id="2"><path id="" clip-rule="evenodd" transform="matrix(1 0 0 1 0 0)" d="M0 -0.28302L858.898 -0.28302L858.898 -0.28302L858.898 612L858.898 612L0 612z" /></clipPath></defs><g transform="matrix(1.333333 0 0 1.333333 0 0)"><g clip-path="url(#1)"><g clip-path="url(#2)"><path id="1" transform="matrix(1 0 0 -1 0 612)" d="M65.2581 139.6837L58.0999 139.6837L58.0999 139.6837L58.0999 142.8576C 58.0999 143.4956 58.16419 143.9806 58.29277 144.3126C 58.42135 144.6447 58.6484 144.91 58.97392 145.1085C 59.29944 145.3071 59.65915 145.4064 60.05302 145.4064C 61.06865 145.4064 61.81247 144.7635 62.00127 143.3898C 62.12171 143.6404 62.24052 143.8309 62.35771 143.9611C 62.61162 144.2378 62.929 144.4998 63.30986 144.7472L63.30986 144.7472L65.2581 145.9923L65.2581 145.9923L65.2581 144.8009L65.2581 144.8009L63.76884 143.8537C 63.33916 143.577 63.01038 143.3491 62.78252 143.1701C 62.55465 142.991 62.39515 142.8307 62.304 142.6891C 62.21286 142.5475 62.14938 142.4035 62.11357 142.257C 62.09079 142.1496 62.07939 141.9738 62.07939 141.7296L62.07939 141.7296L62.07939 140.631L62.07939 140.631L65.2581 140.631zM61.25908 140.631L61.25908 142.6671C 61.25908 143.1001 61.21432 143.4386 61.1248 143.6828C 61.03528 143.9269 60.89206 144.1124 60.69511 144.2394C 60.49817 144.3663 60.28415 144.4298 60.05302 144.4298C 59.37594 144.4298 58.89091 143.9578 58.89091 142.8966L58.89091 142.8966L58.89091 140.631z" stroke="none" fill="#353231" fill-rule="evenodd" /><path id="2" transform="matrix(1 0 0 -1 0 612)" d="M65.2581 150.1752L64.49638 150.1752C 65.08232 149.7716 65.37529 149.2231 65.37529 148.5297C 65.37529 148.2237 65.3167 147.9381 65.19951 147.6728C 65.08232 147.4075 64.93502 147.2105 64.75761 147.082C 64.58021 146.9534 64.36292 146.863 64.10576 146.811C 63.93323 146.7751 63.65979 146.7572 63.28545 146.7572L63.28545 146.7572L60.07256 146.7572L60.07256 146.7572L60.07256 147.6362L60.07256 147.6362L62.94853 147.6362C 63.40752 147.6362 63.71676 147.6541 63.87627 147.6899C 64.33851 147.8005 64.61845 148.1781 64.61845 148.7055C 64.61845 148.9692 64.55091 149.2166 64.41582 149.4477C 64.28072 149.6788 64.09681 149.8424 63.86406 149.9384C 63.63131 150.0344 63.29358 150.0824 62.85088 150.0824L62.85088 150.0824L60.07256 150.0824L60.07256 150.0824L60.07256 150.9613L60.07256 150.9613L65.2581 150.9613z" stroke="none" fill="#353231" fill-rule="evenodd" /><path id="3" transform="matrix(1 0 0 -1 0 612)" d="M62.66533 152.0096C 61.70504 152.0096 60.99378 152.2766 60.53154 152.8104C 60.14743 153.2564 59.95537 153.8 59.95537 154.4413C 59.95537 155.8671 60.94495 156.868 62.59209 156.868C 63.2594 156.868 63.78431 156.7679 64.16679 156.5677C 64.54928 156.3675 64.84632 156.0762 65.05791 155.6937C 65.26949 155.3112 65.37529 154.8937 65.37529 154.4413C 65.37529 152.9894 64.41663 152.0096 62.66533 152.0096zM62.66533 152.9129C 63.99345 152.9129 64.65263 153.5624 64.65263 154.4413C 64.65263 155.3137 63.99671 155.9647 62.63603 155.9647C 61.35348 155.9647 60.68291 155.3072 60.68291 154.4413C 60.68291 153.5624 61.3372 152.9129 62.66533 152.9129z" stroke="none" fill="#353231" fill-rule="evenodd" /><path id="4" transform="matrix(1 0 0 -1 0 612)" d="M63.35869 161.2806L63.47099 162.1448C 64.6624 161.956 65.37529 161.1194 65.37529 159.9866C 65.37529 158.5674 64.41663 157.6282 62.68486 157.6282C 62.12497 157.6282 61.63506 157.721 61.21513 157.9065C 60.79521 158.0921 60.48027 158.3745 60.27031 158.7537C 60.06035 159.1329 59.95537 159.5455 59.95537 159.9915C 59.95537 161.1178 60.54782 161.86 61.59599 162.0618L61.59599 162.0618L61.72783 161.2073C 61.03122 161.0446 60.67802 160.6116 60.67802 160.0257C 60.67802 159.1403 61.28675 158.5315 62.66045 158.5315C 64.05367 158.5315 64.65263 159.1175 64.65263 159.9769C 64.65263 160.667 64.23759 161.1569 63.35869 161.2806z" stroke="none" fill="#353231" fill-rule="evenodd" /><path id="5" transform="matrix(1 0 0 -1 0 612)" d="M65.2581 162.8968L58.0999 162.8968L58.0999 162.8968L58.0999 163.7757L58.0999 163.7757L60.66826 163.7757C 60.193 164.1858 59.95537 164.7034 59.95537 165.3284C 59.95537 165.7125 60.03105 166.0462 60.18242 166.3294C 60.33379 166.6126 60.54293 166.8152 60.80986 166.9373C 61.07679 167.0594 61.46416 167.1204 61.97197 167.1204L61.97197 167.1204L65.2581 167.1204L65.2581 167.1204L65.2581 166.2415L65.2581 166.2415L61.97197 166.2415C 61.09306 166.2415 60.7122 165.8444 60.7122 165.1478C 60.7122 164.8873 60.77975 164.6424 60.91484 164.4129C 61.04993 164.1834 61.23304 164.0198 61.46416 163.9222C 61.69528 163.8245 62.01429 163.7757 62.42119 163.7757L62.42119 163.7757L65.2581 163.7757z" stroke="none" fill="#353231" fill-rule="evenodd" /><path id="6" transform="matrix(1 0 0 -1 0 612)" d="M62.66533 168.1296C 61.70504 168.1296 60.99378 168.3966 60.53154 168.9304C 60.14743 169.3764 59.95537 169.92 59.95537 170.5613C 59.95537 171.9871 60.94495 172.988 62.59209 172.988C 63.2594 172.988 63.78431 172.8879 64.16679 172.6877C 64.54928 172.4875 64.84632 172.1962 65.05791 171.8137C 65.26949 171.4312 65.37529 171.0137 65.37529 170.5613C 65.37529 169.1095 64.41663 168.1296 62.66533 168.1296zM62.66533 169.033C 63.99345 169.033 64.65263 169.6824 64.65263 170.5613C 64.65263 171.4337 63.99671 172.0847 62.63603 172.0847C 61.35348 172.0847 60.68291 171.4272 60.68291 170.5613C 60.68291 169.6824 61.3372 169.033 62.66533 169.033z" stroke="none" fill="#353231" fill-rule="evenodd" /><path id="7" transform="matrix(1 0 0 -1 0 612)" d="M65.2581 174.0168L60.07256 174.0168L60.07256 174.0168L60.07256 174.8078L60.07256 174.8078L60.80986 174.8078C 60.2402 175.1887 59.95537 175.7388 59.95537 176.4582C 59.95537 176.7707 60.01152 177.058 60.12383 177.32C 60.23613 177.582 60.38343 177.7782 60.56572 177.9084C 60.74801 178.0386 60.96448 178.1297 61.21513 178.1818C 61.3779 178.2144 61.66272 178.2307 62.06963 178.2307L62.06963 178.2307L65.2581 178.2307L65.2581 178.2307L65.2581 177.3517L65.2581 177.3517L62.10381 177.3517C 61.74573 177.3517 61.47799 177.3176 61.30058 177.2492C 61.12317 177.1808 60.98157 177.0596 60.87578 176.8854C 60.76999 176.7113 60.71709 176.507 60.71709 176.2726C 60.71709 175.5239 61.09795 174.8957 62.42607 174.8957L62.42607 174.8957L65.2581 174.8957z" stroke="none" fill="#353231" fill-rule="evenodd" /><path id="8" transform="matrix(1 0 0 -1 0 612)" d="M65.68779 179.4156L65.81474 180.2701C 66.07841 180.3059 66.27047 180.4052 66.39091 180.568C 66.55367 180.7861 66.63506 181.0839 66.63506 181.4615C 66.63506 182.2753 66.29326 182.6969 65.70732 182.8531C 65.52828 182.8987 65.15231 182.9199 64.57939 182.9166C 65.03187 182.5325 65.2581 182.054 65.2581 181.4811C 65.2581 180.0553 64.07484 179.2399 62.63603 179.2399C 62.14124 179.2399 61.6847 179.3294 61.2664 179.5084C 60.84811 179.6875 60.52503 179.9471 60.29716 180.2872C 60.0693 180.6274 59.95537 181.027 59.95537 181.486C 59.95537 182.0979 60.20276 182.6025 60.69756 182.9996L60.69756 182.9996L60.07256 182.9996L60.07256 182.9996L60.07256 183.8102L60.07256 183.8102L64.55498 183.8102C 65.36227 183.8102 65.93437 183.728 66.27129 183.5636C 66.6082 183.3992 66.87431 183.1388 67.06963 182.7823C 67.26494 182.4259 67.36259 181.9873 67.36259 181.4664C 67.36259 180.2294 66.80758 179.3896 65.68779 179.4156zM62.57256 180.1432C 63.93323 180.1432 64.53056 180.7503 64.53056 181.5641C 64.53056 182.3714 63.92998 182.9899 62.60185 182.9899C 61.33232 182.9899 60.68291 182.3437 60.68291 181.5494C 60.68291 180.7682 61.32256 180.1432 62.57256 180.1432z" stroke="none" fill="#353231" fill-rule="evenodd" /></g><g transform="matrix(0.2658744 0 0 0.2658744 56.69291 56.73438)"><g transform="matrix(1 0 0 1 0 0)"><image x="0" y="0" xlink:href="img_09.png" width="2804" height="1874" /></g></g><path id="10" transform="matrix(1 0 0 -1 0 612)" d="M64.4163 468.035L58.73417 468.035L58.73417 468.035L58.73417 465.9124L58.73417 465.9124L57.97392 465.9124L57.97392 465.9124L57.97392 471.0189L57.97392 471.0189L58.73417 471.0189L58.73417 471.0189L58.73417 468.8875L58.73417 468.8875L64.4163 468.8875z" stroke="none" fill="#353332" fill-rule="evenodd" /><path id="11" transform="matrix(1 0 0 -1 0 612)" d="M64.4163 472.1601L59.74931 470.7319L59.74931 470.7319L59.74931 471.5493L59.74931 471.5493L62.44315 472.2919L62.44315 472.2919L63.44511 472.5688C 63.3953 472.5805 63.0745 472.6611 62.4827 472.8105L62.4827 472.8105L59.74931 473.5532L59.74931 473.5532L59.74931 474.3661L59.74931 474.3661L62.45634 475.0649L62.45634 475.0649L63.34843 475.2978L63.34843 475.2978L62.44755 475.5659L62.44755 475.5659L59.74931 476.3657L59.74931 476.3657L59.74931 477.1347L59.74931 477.1347L64.4163 475.6757L64.4163 475.6757L64.4163 474.8539L64.4163 474.8539L61.62138 474.1113L61.62138 474.1113L60.82597 473.9311L60.82597 473.9311L64.4163 472.9863z" stroke="none" fill="#353332" fill-rule="evenodd" /><path id="12" transform="matrix(1 0 0 -1 0 612)" d="M62.0828 477.5023C 61.21854 477.5023 60.57841 477.7426 60.16239 478.223C 59.81669 478.6244 59.64384 479.1136 59.64384 479.6908C 59.64384 480.974 60.53446 481.8749 62.01688 481.8749C 62.61747 481.8749 63.08988 481.7848 63.43412 481.6046C 63.77836 481.4244 64.04569 481.1622 64.23612 480.818C 64.42655 480.4738 64.52177 480.098 64.52177 479.6908C 64.52177 478.3842 63.65897 477.5023 62.0828 477.5023zM62.0828 478.3153C 63.27811 478.3153 63.87138 478.8998 63.87138 479.6908C 63.87138 480.476 63.28104 481.0619 62.05643 481.0619C 60.90214 481.0619 60.29862 480.4701 60.29862 479.6908C 60.29862 478.8998 60.88749 478.3153 62.0828 478.3153z" stroke="none" fill="#353332" fill-rule="evenodd" /><path id="14" transform="matrix(1 0 0 -1 0 612)" d="M64.4163 485.3687L57.97392 485.3687L57.97392 485.3687L57.97392 487.7857C 57.97392 488.2779 58.0391 488.6726 58.16947 488.97C 58.29984 489.2674 58.50053 489.5003 58.77152 489.6687C 59.04252 489.8372 59.32597 489.9214 59.62186 489.9214C 60.17265 489.9214 60.68974 489.6241 60.98856 489.0205C 61.21708 489.7998 61.79862 490.2334 62.54862 490.2334C 62.85038 490.2334 63.1309 490.1697 63.39017 490.0423C 63.64945 489.9148 63.8494 489.7574 63.99003 489.5699C 64.13065 489.3824 64.23685 489.1472 64.30863 488.8645C 64.38041 488.5818 64.4163 488.2354 64.4163 487.8252zM60.68095 486.2212L60.68095 487.6143C 60.68095 487.9922 60.65604 488.2632 60.60624 488.4273C 60.47733 488.8609 60.17411 489.0821 59.72294 489.0821C 59.50907 489.0821 59.32084 489.0308 59.15824 488.9283C 58.99564 488.8257 58.88432 488.6792 58.82426 488.4888C 58.7642 488.2984 58.73417 487.9717 58.73417 487.5088L58.73417 487.5088L58.73417 486.2212zM63.65604 486.2212L63.65604 487.8252C 63.65604 488.1006 63.64579 488.294 63.62528 488.4053C 63.59013 488.6016 63.53153 488.7657 63.4495 488.8975C 63.36747 489.0293 63.24809 489.1377 63.09135 489.2227C 62.93461 489.3076 62.7537 489.3501 62.54862 489.3501C 62.30839 489.3501 62.09965 489.2886 61.9224 489.1656C 61.74516 489.0425 61.62064 488.8719 61.54887 488.6536C 61.47709 488.4353 61.4412 488.1211 61.4412 487.711L61.4412 487.711L61.4412 486.2212z" stroke="none" fill="#353332" fill-rule="evenodd" /><path id="15" transform="matrix(1 0 0 -1 0 612)" d="M64.4163 491.297L59.74931 491.297L59.74931 491.297L59.74931 492.0089L59.74931 492.0089L60.45683 492.0089C 59.79472 492.3722 59.64384 492.6505 59.64384 493.0196C 59.64384 493.2862 59.7288 493.5572 59.89872 493.8326L59.89872 493.8326L60.63261 493.5602C 60.51835 493.3668 60.46122 493.1734 60.46122 492.9801C 60.46122 492.6344 60.68095 492.337 61.05009 492.2198C 61.33134 492.1319 61.63895 492.088 61.97294 492.088L61.97294 492.088L64.4163 492.088z" stroke="none" fill="#353332" fill-rule="evenodd" /><path id="16" transform="matrix(1 0 0 -1 0 612)" d="M62.0828 494.0083C 61.21854 494.0083 60.57841 494.2486 60.16239 494.729C 59.81669 495.1304 59.64384 495.6197 59.64384 496.1968C 59.64384 497.48 60.53446 498.3809 62.01688 498.3809C 62.61747 498.3809 63.08988 498.2908 63.43412 498.1106C 63.77836 497.9305 64.04569 497.6682 64.23612 497.324C 64.42655 496.9798 64.52177 496.604 64.52177 496.1968C 64.52177 494.8902 63.65897 494.0083 62.0828 494.0083zM62.0828 494.8213C 63.27811 494.8213 63.87138 495.4058 63.87138 496.1968C 63.87138 496.982 63.28104 497.5679 62.05643 497.5679C 60.90214 497.5679 60.29862 496.9761 60.29862 496.1968C 60.29862 495.4058 60.88749 494.8213 62.0828 494.8213z" stroke="none" fill="#353332" fill-rule="evenodd" /><path id="17" transform="matrix(1 0 0 -1 0 612)" d="M63.70878 501.0338L64.40751 501.1481C 64.45438 500.9254 64.47782 500.7262 64.47782 500.5504C 64.47782 500.2633 64.43241 500.0406 64.34159 499.8824C 64.25077 499.7242 64.13139 499.6129 63.98344 499.5485C 63.83549 499.484 63.52421 499.4518 63.0496 499.4518L63.0496 499.4518L60.36454 499.4518L60.36454 499.4518L60.36454 498.8717L60.36454 498.8717L59.74931 498.8717L59.74931 498.8717L59.74931 499.4518L59.74931 499.4518L58.59354 499.4518L58.59354 499.4518L58.11893 500.2384L58.11893 500.2384L59.74931 500.2384L59.74931 500.2384L59.74931 501.0338L59.74931 501.0338L60.36454 501.0338L60.36454 501.0338L60.36454 500.2384L60.36454 500.2384L63.09354 500.2384C 63.31913 500.2384 63.46415 500.2523 63.5286 500.2802C 63.59306 500.308 63.64433 500.3534 63.68241 500.4164C 63.7205 500.4794 63.73954 500.5695 63.73954 500.6866C 63.73954 500.7745 63.72929 500.8903 63.70878 501.0338z" stroke="none" fill="#353332" fill-rule="evenodd" /><path id="18" transform="matrix(1 0 0 -1 0 612)" d="M64.4163 501.8088L57.97392 501.8088L57.97392 501.8088L57.97392 502.5998L57.97392 502.5998L60.28544 502.5998C 59.8577 502.9689 59.64384 503.4348 59.64384 503.9973C 59.64384 504.343 59.71195 504.6432 59.84818 504.8981C 59.98441 505.153 60.17265 505.3354 60.41288 505.4453C 60.65311 505.5551 61.00175 505.61 61.45878 505.61L61.45878 505.61L64.4163 505.61L64.4163 505.61L64.4163 504.819L64.4163 504.819L61.45878 504.819C 60.66776 504.819 60.32499 504.4616 60.32499 503.8347C 60.32499 503.6003 60.38578 503.3798 60.50736 503.1733C 60.62894 502.9667 60.79374 502.8195 61.00175 502.7316C 61.20975 502.6437 61.49686 502.5998 61.86308 502.5998L61.86308 502.5998L64.4163 502.5998z" stroke="none" fill="#353332" fill-rule="evenodd" /><path id="19" transform="matrix(1 0 0 -1 0 612)" d="M62.91337 510.0076L63.01444 510.825C 63.96952 510.5672 64.52177 509.8567 64.52177 508.7727C 64.52177 507.4075 63.63993 506.5491 62.12235 506.5491C 60.55204 506.5491 59.64384 507.4397 59.64384 508.7288C 59.64384 509.9768 60.533 510.8513 62.07401 510.8513C 62.12089 510.8513 62.1912 510.8499 62.28495 510.847L62.28495 510.847L62.28495 507.3665C 63.31034 507.4251 63.87138 507.9978 63.87138 508.7771C 63.87138 509.3572 63.58134 509.7674 62.91337 510.0076zM61.63456 507.4104L61.63456 510.0164C 61.24198 509.9812 60.94755 509.8816 60.75126 509.7176C 60.44657 509.4656 60.29423 509.1389 60.29423 508.7376C 60.29423 508.011 60.82011 507.4632 61.63456 507.4104z" stroke="none" fill="#353332" fill-rule="evenodd" /><path id="20" transform="matrix(1 0 0 -1 0 612)" d="M64.4163 511.808L59.74931 511.808L59.74931 511.808L59.74931 512.5199L59.74931 512.5199L60.45683 512.5199C 59.79472 512.8832 59.64384 513.1615 59.64384 513.5306C 59.64384 513.7972 59.7288 514.0682 59.89872 514.3436L59.89872 514.3436L60.63261 514.0712C 60.51835 513.8778 60.46122 513.6844 60.46122 513.4911C 60.46122 513.1454 60.68095 512.848 61.05009 512.7308C 61.33134 512.6429 61.63895 512.599 61.97294 512.599L61.97294 512.599L64.4163 512.599z" stroke="none" fill="#353332" fill-rule="evenodd" /><path id="21" transform="matrix(1 0 0 -1 0 612)" d="M63.02323 514.4974L62.90018 515.2796C 63.52714 515.3675 63.87138 515.7674 63.87138 516.4881C 63.87138 517.2147 63.52714 517.5604 63.1287 517.5604C 62.94999 517.5604 62.80936 517.4827 62.70683 517.3275C 62.63651 517.2191 62.54716 516.9495 62.43876 516.5189C 62.29227 515.9388 62.16557 515.5367 62.05863 515.3126C 61.9517 515.0884 61.80375 514.9185 61.61478 514.8028C 61.42582 514.6871 61.21708 514.6292 60.98856 514.6292C 60.57255 514.6292 60.20341 514.8328 59.96903 515.1609C 59.78739 515.407 59.64384 515.8611 59.64384 516.3475C 59.64384 516.7137 59.69657 517.0352 59.80204 517.3121C 59.90751 517.5889 60.05033 517.7933 60.23051 517.9251C 60.41068 518.0569 60.65165 518.1478 60.95341 518.1976L60.95341 518.1976L61.05888 517.4241C 60.57841 517.3538 60.29423 517.0198 60.29423 516.4046C 60.29423 515.678 60.57401 515.3939 60.89628 515.3939C 60.99882 515.3939 61.0911 515.4261 61.17313 515.4905C 61.25809 515.555 61.32841 515.6561 61.38407 515.7938C 61.41337 515.8729 61.48075 516.1058 61.58622 516.4925C 61.73563 517.0521 61.85795 517.4424 61.95316 517.6636C 62.04838 517.8848 62.18681 518.0584 62.36845 518.1844C 62.55009 518.3104 62.77567 518.3734 63.0452 518.3734C 63.30888 518.3734 63.55717 518.2964 63.79008 518.1426C 64.02299 517.9888 64.20316 517.7669 64.3306 517.4769C 64.45805 517.1868 64.52177 516.8587 64.52177 516.4925C 64.52177 515.2796 64.01347 514.6732 63.02323 514.4974z" stroke="none" fill="#353332" fill-rule="evenodd" /></g></g></svg>