<svg xmlns="http://www.w3.org/2000/svg" xmlns:xlink="http://www.w3.org/1999/xlink" id="body_8" preserveAspectRatio="xMinYMin meet" viewBox="0 0 1144 816"><defs><clipPath id="1"><path id="" clip-rule="evenodd" transform="matrix(1 0 0 1 0 0)" d="M0 612L0 -0.28302L0 -0.28302L858.898 -0.28302L858.898 -0.28302L858.898 612L858.898 612L0 612z" /></clipPath><clipPath id="2"><path id="" clip-rule="evenodd" transform="matrix(1 0 0 1 0 0)" d="M0 -0.28302L858.898 -0.28302L858.898 -0.28302L858.898 612L858.898 612L0 612z" /></clipPath><clipPath id="3"><path id="" clip-rule="evenodd" transform="matrix(1 0 0 1 0 0)" d="M429.448 305.697L802.205 305.697L802.205 305.697L802.205 56.57202L802.205 56.57202L429.448 56.57202z" /></clipPath><clipPath id="4"><path id="" clip-rule="evenodd" transform="matrix(1 0 0 1 0 0)" d="M429.448 555.307L802.205 555.307L802.205 555.307L802.205 305.858L802.205 305.858L429.448 305.858z" /></clipPath></defs><g transform="matrix(1.333333 0 0 1.333333 0 0)"><g clip-path="url(#1)"><g clip-path="url(#2)"><path id="1" transform="matrix(1 0 0 -1 0 612)" d="M65.2581 139.6837L58.0999 139.6837L58.0999 139.6837L58.0999 142.8576C 58.0999 143.4956 58.16419 143.9806 58.29277 144.3126C 58.42135 144.6447 58.6484 144.91 58.97392 145.1085C 59.29944 145.3071 59.65915 145.4064 60.05302 145.4064C 61.06865 145.4064 61.81247 144.7635 62.00127 143.3898C 62.12171 143.6404 62.24052 143.8309 62.35771 143.9611C 62.61162 144.2378 62.929 144.4998 63.30986 144.7472L63.30986 144.7472L65.2581 145.9923L65.2581 145.9923L65.2581 144.8009L65.2581 144.8009L63.76884 143.8537C 63.33916 143.577 63.01038 143.3491 62.78252 143.1701C 62.55465 142.991 62.39515 142.8307 62.304 142.6891C 62.21286 142.5475 62.14938 142.4035 62.11357 142.257C 62.09079 142.1496 62.07939 141.9738 62.07939 141.7296L62.07939 141.7296L62.07939 140.631L62.07939 140.631L65.2581 140.631zM61.25908 140.631L61.25908 142.6671C 61.25908 143.1001 61.21432 143.4386 61.1248 143.6828C 61.03528 143.9269 60.89206 144.1124 60.69511 144.2394C 60.49817 144.3663 60.28415 144.4298 60.05302 144.4298C 59.37594 144.4298 58.89091 143.9578 58.89091 142.8966L58.89091 142.8966L58.89091 140.631z" stroke="none" fill="#353332" fill-rule="evenodd" /><path id="2" transform="matrix(1 0 0 -1 0 612)" d="M65.2581 150.1752L64.49638 150.1752C 65.08232 149.7716 65.37529 149.2231 65.37529 148.5297C 65.37529 148.2237 65.3167 147.9381 65.19951 147.6728C 65.08232 147.4075 64.93502 147.2105 64.75761 147.082C 64.58021 146.9534 64.36292 146.863 64.10576 146.811C 63.93323 146.7751 63.65979 146.7572 63.28545 146.7572L63.28545 146.7572L60.07256 146.7572L60.07256 146.7572L60.07256 147.6362L60.07256 147.6362L62.94853 147.6362C 63.40752 147.6362 63.71676 147.6541 63.87627 147.6899C 64.33851 147.8005 64.61845 148.1781 64.61845 148.7055C 64.61845 148.9692 64.55091 149.2166 64.41582 149.4477C 64.28072 149.6788 64.09681 149.8424 63.86406 149.9384C 63.63131 150.0344 63.29358 150.0824 62.85088 150.0824L62.85088 150.0824L60.07256 150.0824L60.07256 150.0824L60.07256 150.9613L60.07256 150.9613L65.2581 150.9613z" stroke="none" fill="#353332" fill-rule="evenodd" /><path id="3" transform="matrix(1 0 0 -1 0 612)" d="M62.66533 152.0096C 61.70504 152.0096 60.99378 152.2766 60.53154 152.8104C 60.14743 153.2564 59.95537 153.8 59.95537 154.4413C 59.95537 155.8671 60.94495 156.868 62.59209 156.868C 63.2594 156.868 63.78431 156.7679 64.16679 156.5677C 64.54928 156.3675 64.84632 156.0762 65.05791 155.6937C 65.26949 155.3112 65.37529 154.8937 65.37529 154.4413C 65.37529 152.9894 64.41663 152.0096 62.66533 152.0096zM62.66533 152.9129C 63.99345 152.9129 64.65263 153.5624 64.65263 154.4413C 64.65263 155.3137 63.99671 155.9647 62.63603 155.9647C 61.35348 155.9647 60.68291 155.3072 60.68291 154.4413C 60.68291 153.5624 61.3372 152.9129 62.66533 152.9129z" stroke="none" fill="#353332" fill-rule="evenodd" /><path id="4" transform="matrix(1 0 0 -1 0 612)" d="M63.35869 161.2806L63.47099 162.1448C 64.6624 161.956 65.37529 161.1194 65.37529 159.9866C 65.37529 158.5674 64.41663 157.6282 62.68486 157.6282C 62.12497 157.6282 61.63506 157.721 61.21513 157.9065C 60.79521 158.0921 60.48027 158.3745 60.27031 158.7537C 60.06035 159.1329 59.95537 159.5455 59.95537 159.9915C 59.95537 161.1178 60.54782 161.86 61.59599 162.0618L61.59599 162.0618L61.72783 161.2073C 61.03122 161.0446 60.67802 160.6116 60.67802 160.0257C 60.67802 159.1403 61.28675 158.5315 62.66045 158.5315C 64.05367 158.5315 64.65263 159.1175 64.65263 159.9769C 64.65263 160.667 64.23759 161.1569 63.35869 161.2806z" stroke="none" fill="#353332" fill-rule="evenodd" /><path id="5" transform="matrix(1 0 0 -1 0 612)" d="M65.2581 162.8968L58.0999 162.8968L58.0999 162.8968L58.0999 163.7757L58.0999 163.7757L60.66826 163.7757C 60.193 164.1858 59.95537 164.7034 59.95537 165.3284C 59.95537 165.7125 60.03105 166.0462 60.18242 166.3294C 60.33379 166.6126 60.54293 166.8152 60.80986 166.9373C 61.07679 167.0594 61.46416 167.1204 61.97197 167.1204L61.97197 167.1204L65.2581 167.1204L65.2581 167.1204L65.2581 166.2415L65.2581 166.2415L61.97197 166.2415C 61.09306 166.2415 60.7122 165.8444 60.7122 165.1478C 60.7122 164.8873 60.77975 164.6424 60.91484 164.4129C 61.04993 164.1834 61.23304 164.0198 61.46416 163.9222C 61.69528 163.8245 62.01429 163.7757 62.42119 163.7757L62.42119 163.7757L65.2581 163.7757z" stroke="none" fill="#353332" fill-rule="evenodd" /><path id="6" transform="matrix(1 0 0 -1 0 612)" d="M62.66533 168.1296C 61.70504 168.1296 60.99378 168.3966 60.53154 168.9304C 60.14743 169.3764 59.95537 169.92 59.95537 170.5613C 59.95537 171.9871 60.94495 172.988 62.59209 172.988C 63.2594 172.988 63.78431 172.8879 64.16679 172.6877C 64.54928 172.4875 64.84632 172.1962 65.05791 171.8137C 65.26949 171.4312 65.37529 171.0137 65.37529 170.5613C 65.37529 169.1095 64.41663 168.1296 62.66533 168.1296zM62.66533 169.033C 63.99345 169.033 64.65263 169.6824 64.65263 170.5613C 64.65263 171.4337 63.99671 172.0847 62.63603 172.0847C 61.35348 172.0847 60.68291 171.4272 60.68291 170.5613C 60.68291 169.6824 61.3372 169.033 62.66533 169.033z" stroke="none" fill="#353332" fill-rule="evenodd" /><path id="7" transform="matrix(1 0 0 -1 0 612)" d="M65.2581 174.0168L60.07256 174.0168L60.07256 174.0168L60.07256 174.8078L60.07256 174.8078L60.80986 174.8078C 60.2402 175.1887 59.95537 175.7388 59.95537 176.4582C 59.95537 176.7707 60.01152 177.058 60.12383 177.32C 60.23613 177.582 60.38343 177.7782 60.56572 177.9084C 60.74801 178.0386 60.96448 178.1297 61.21513 178.1818C 61.3779 178.2144 61.66272 178.2307 62.06963 178.2307L62.06963 178.2307L65.2581 178.2307L65.2581 178.2307L65.2581 177.3517L65.2581 177.3517L62.10381 177.3517C 61.74573 177.3517 61.47799 177.3176 61.30058 177.2492C 61.12317 177.1808 60.98157 177.0596 60.87578 176.8854C 60.76999 176.7113 60.71709 176.507 60.71709 176.2726C 60.71709 175.5239 61.09795 174.8957 62.42607 174.8957L62.42607 174.8957L65.2581 174.8957z" stroke="none" fill="#353332" fill-rule="evenodd" /><path id="8" transform="matrix(1 0 0 -1 0 612)" d="M65.68779 179.4156L65.81474 180.2701C 66.07841 180.3059 66.27047 180.4052 66.39091 180.568C 66.55367 180.7861 66.63506 181.0839 66.63506 181.4615C 66.63506 182.2753 66.29326 182.6969 65.70732 182.8531C 65.52828 182.8987 65.15231 182.9199 64.57939 182.9166C 65.03187 182.5325 65.2581 182.054 65.2581 181.4811C 65.2581 180.0553 64.07484 179.2399 62.63603 179.2399C 62.14124 179.2399 61.6847 179.3294 61.2664 179.5084C 60.84811 179.6875 60.52503 179.9471 60.29716 180.2872C 60.0693 180.6274 59.95537 181.027 59.95537 181.486C 59.95537 182.0979 60.20276 182.6025 60.69756 182.9996L60.69756 182.9996L60.07256 182.9996L60.07256 182.9996L60.07256 183.8102L60.07256 183.8102L64.55498 183.8102C 65.36227 183.8102 65.93437 183.728 66.27129 183.5636C 66.6082 183.3992 66.87431 183.1388 67.06963 182.7823C 67.26494 182.4259 67.36259 181.9873 67.36259 181.4664C 67.36259 180.2294 66.80758 179.3896 65.68779 179.4156zM62.57256 180.1432C 63.93323 180.1432 64.53056 180.7503 64.53056 181.5641C 64.53056 182.3714 63.92998 182.9899 62.60185 182.9899C 61.33232 182.9899 60.68291 182.3437 60.68291 181.5494C 60.68291 180.7682 61.32256 180.1432 62.57256 180.1432z" stroke="none" fill="#353332" fill-rule="evenodd" /></g><g transform="matrix(0.2398687 0 0 0.2397732 56.69293 56.57227)"><g transform="matrix(1 0 0 1 0 0)"><image x="0" y="0" xlink:href="img_15.png" width="1554" height="1039" /></g></g><g transform="matrix(0.2398687 0 0 0.2397732 56.69293 306.0205)"><g transform="matrix(1 0 0 1 0 0)"><image x="0" y="0" xlink:href="img_16.png" width="1554" height="1039" /></g></g><g clip-path="url(#3)"><g transform="matrix(0.2398687 0 0 0.2397732 429.4489 56.57227)"><g transform="matrix(1 0 0 1 0 0)"><image x="0" y="0" xlink:href="img_17.png" width="1554" height="1039" /></g></g></g><g clip-path="url(#4)"><g transform="matrix(0.2398724 0 0 0.2398546 429.2061 305.8584)"><g transform="matrix(1 0 0 1 0 0)"><image x="0" y="0" xlink:href="img_18.png" width="1556" height="1040" /></g></g></g><path id="13" transform="matrix(1 0 0 -1 0 612)" d="M794.4813 511.4861L800.1635 511.4861L800.1635 511.4861L800.1635 513.6086L800.1635 513.6086L800.9237 513.6086L800.9237 513.6086L800.9237 508.5022L800.9237 508.5022L800.1635 508.5022L800.1635 508.5022L800.1635 510.6335L800.1635 510.6335L794.4813 510.6335z" stroke="none" fill="#353332" fill-rule="evenodd" /><path id="14" transform="matrix(1 0 0 -1 0 612)" d="M794.4813 507.361L799.1483 508.7892L799.1483 508.7892L799.1483 507.9718L799.1483 507.9718L796.4545 507.2292L796.4545 507.2292L795.4525 506.9523C 795.5023 506.9406 795.8231 506.86 796.4149 506.7106L796.4149 506.7106L799.1483 505.9679L799.1483 505.9679L799.1483 505.1549L799.1483 505.1549L796.4413 504.4562L796.4413 504.4562L795.5492 504.2233L795.5492 504.2233L796.4501 503.9552L796.4501 503.9552L799.1483 503.1554L799.1483 503.1554L799.1483 502.3864L799.1483 502.3864L794.4813 503.8454L794.4813 503.8454L794.4813 504.6671L794.4813 504.6671L797.2762 505.4098L797.2762 505.4098L798.0717 505.59L798.0717 505.59L794.4813 506.5348z" stroke="none" fill="#353332" fill-rule="evenodd" /><path id="15" transform="matrix(1 0 0 -1 0 612)" d="M796.8148 502.0188C 797.6791 502.0188 798.3192 501.7785 798.7352 501.2981C 799.0809 500.8967 799.2538 500.4074 799.2538 499.8303C 799.2538 498.5471 798.3632 497.6462 796.8807 497.6462C 796.2802 497.6462 795.8077 497.7363 795.4635 497.9165C 795.1193 498.0966 794.8519 498.3589 794.6615 498.7031C 794.4711 499.0473 794.3759 499.4231 794.3759 499.8303C 794.3759 501.1369 795.2386 502.0188 796.8148 502.0188zM796.8148 501.2058C 795.6195 501.2058 795.0262 500.6213 795.0262 499.8303C 795.0262 499.0451 795.6166 498.4592 796.8412 498.4592C 797.9955 498.4592 798.599 499.051 798.599 499.8303C 798.599 500.6213 798.0101 501.2058 796.8148 501.2058z" stroke="none" fill="#353332" fill-rule="evenodd" /><path id="17" transform="matrix(1 0 0 -1 0 612)" d="M794.4813 494.1524L800.9237 494.1524L800.9237 494.1524L800.9237 491.7354C 800.9237 491.2432 800.8585 490.8484 800.7281 490.5511C 800.5978 490.2537 800.3971 490.0208 800.1261 489.8524C 799.8551 489.6839 799.5717 489.5997 799.2758 489.5997C 798.725 489.5997 798.2079 489.897 797.9091 490.5005C 797.6805 489.7213 797.099 489.2877 796.349 489.2877C 796.0472 489.2877 795.7667 489.3514 795.5074 489.4788C 795.2482 489.6063 795.0482 489.7637 794.9076 489.9512C 794.767 490.1387 794.6608 490.3738 794.589 490.6566C 794.5172 490.9393 794.4813 491.2857 794.4813 491.6959zM798.2167 493.2999L798.2167 491.9068C 798.2167 491.5289 798.2416 491.2579 798.2914 491.0938C 798.4203 490.6602 798.7235 490.439 799.1747 490.439C 799.3885 490.439 799.5768 490.4903 799.7394 490.5928C 799.902 490.6954 800.0133 490.8419 800.0734 491.0323C 800.1334 491.2227 800.1635 491.5494 800.1635 492.0123L800.1635 492.0123L800.1635 493.2999zM795.2416 493.2999L795.2416 491.6959C 795.2416 491.4205 795.2518 491.2271 795.2723 491.1158C 795.3075 490.9195 795.3661 490.7554 795.4481 490.6236C 795.5302 490.4918 795.6495 490.3834 795.8063 490.2984C 795.963 490.2134 796.1439 490.171 796.349 490.171C 796.5892 490.171 796.798 490.2325 796.9752 490.3555C 797.1525 490.4786 797.277 490.6492 797.3488 490.8675C 797.4205 491.0858 797.4564 491.4 797.4564 491.8101L797.4564 491.8101L797.4564 493.2999z" stroke="none" fill="#353332" fill-rule="evenodd" /><path id="18" transform="matrix(1 0 0 -1 0 612)" d="M794.4813 488.2241L799.1483 488.2241L799.1483 488.2241L799.1483 487.5122L799.1483 487.5122L798.4408 487.5122C 799.1029 487.1489 799.2538 486.8706 799.2538 486.5015C 799.2538 486.2349 799.1688 485.9639 798.9989 485.6885L798.9989 485.6885L798.265 485.9609C 798.3793 486.1543 798.4364 486.3477 798.4364 486.541C 798.4364 486.8867 798.2167 487.1841 797.8475 487.3013C 797.5663 487.3892 797.2587 487.4331 796.9247 487.4331L796.9247 487.4331L794.4813 487.4331z" stroke="none" fill="#353332" fill-rule="evenodd" /><path id="19" transform="matrix(1 0 0 -1 0 612)" d="M796.8148 485.5128C 797.6791 485.5128 798.3192 485.2725 798.7352 484.7921C 799.0809 484.3907 799.2538 483.9014 799.2538 483.3243C 799.2538 482.0411 798.3632 481.1402 796.8807 481.1402C 796.2802 481.1402 795.8077 481.2303 795.4635 481.4105C 795.1193 481.5906 794.8519 481.8528 794.6615 482.1971C 794.4711 482.5413 794.3759 482.9171 794.3759 483.3243C 794.3759 484.6309 795.2386 485.5128 796.8148 485.5128zM796.8148 484.6998C 795.6195 484.6998 795.0262 484.1153 795.0262 483.3243C 795.0262 482.5391 795.6166 481.9532 796.8412 481.9532C 797.9955 481.9532 798.599 482.545 798.599 483.3243C 798.599 484.1153 798.0101 484.6998 796.8148 484.6998z" stroke="none" fill="#353332" fill-rule="evenodd" /><path id="20" transform="matrix(1 0 0 -1 0 612)" d="M795.1888 478.4873L794.4901 478.373C 794.4432 478.5957 794.4198 478.7949 794.4198 478.9707C 794.4198 479.2578 794.4652 479.4804 794.556 479.6386C 794.6469 479.7968 794.7662 479.9082 794.9142 479.9726C 795.0621 480.0371 795.3734 480.0693 795.848 480.0693L795.848 480.0693L798.5331 480.0693L798.5331 480.0693L798.5331 480.6494L798.5331 480.6494L799.1483 480.6494L799.1483 480.6494L799.1483 480.0693L799.1483 480.0693L800.3041 480.0693L800.3041 480.0693L800.7787 479.2827L800.7787 479.2827L799.1483 479.2827L799.1483 479.2827L799.1483 478.4873L799.1483 478.4873L798.5331 478.4873L798.5331 478.4873L798.5331 479.2827L798.5331 479.2827L795.8041 479.2827C 795.5785 479.2827 795.4335 479.2688 795.369 479.2409C 795.3046 479.2131 795.2533 479.1677 795.2152 479.1047C 795.1771 479.0417 795.1581 478.9516 795.1581 478.8344C 795.1581 478.7466 795.1683 478.6308 795.1888 478.4873z" stroke="none" fill="#353332" fill-rule="evenodd" /><path id="21" transform="matrix(1 0 0 -1 0 612)" d="M794.4813 477.7123L800.9237 477.7123L800.9237 477.7123L800.9237 476.9213L800.9237 476.9213L798.6122 476.9213C 799.0399 476.5522 799.2538 476.0863 799.2538 475.5238C 799.2538 475.1781 799.1857 474.8778 799.0494 474.623C 798.9132 474.3681 798.725 474.1857 798.4847 474.0758C 798.2445 473.966 797.8959 473.911 797.4388 473.911L797.4388 473.911L794.4813 473.911L794.4813 473.911L794.4813 474.7021L794.4813 474.7021L797.4388 474.7021C 798.2299 474.7021 798.5726 475.0595 798.5726 475.6864C 798.5726 475.9208 798.5118 476.1413 798.3903 476.3478C 798.2687 476.5544 798.1039 476.7016 797.8959 476.7895C 797.6879 476.8773 797.4008 476.9213 797.0345 476.9213L797.0345 476.9213L794.4813 476.9213z" stroke="none" fill="#353332" fill-rule="evenodd" /><path id="22" transform="matrix(1 0 0 -1 0 612)" d="M795.9843 469.5135L795.8832 468.6961C 794.9281 468.9539 794.3759 469.6644 794.3759 470.7484C 794.3759 472.1136 795.2577 472.972 796.7753 472.972C 798.3456 472.972 799.2538 472.0814 799.2538 470.7923C 799.2538 469.5443 798.3646 468.6697 796.8236 468.6697C 796.7767 468.6697 796.7064 468.6712 796.6127 468.6741L796.6127 468.6741L796.6127 472.1546C 795.5873 472.096 795.0262 471.5233 795.0262 470.744C 795.0262 470.1639 795.3163 469.7537 795.9843 469.5135zM797.2631 472.1107L797.2631 469.5047C 797.6556 469.5399 797.9501 469.6395 798.1464 469.8035C 798.451 470.0555 798.6034 470.3821 798.6034 470.7835C 798.6034 471.5101 798.0775 472.0579 797.2631 472.1107z" stroke="none" fill="#353332" fill-rule="evenodd" /><path id="23" transform="matrix(1 0 0 -1 0 612)" d="M794.4813 467.7131L799.1483 467.7131L799.1483 467.7131L799.1483 467.0012L799.1483 467.0012L798.4408 467.0012C 799.1029 466.6379 799.2538 466.3596 799.2538 465.9904C 799.2538 465.7238 799.1688 465.4529 798.9989 465.1775L798.9989 465.1775L798.265 465.4499C 798.3793 465.6433 798.4364 465.8366 798.4364 466.03C 798.4364 466.3757 798.2167 466.6731 797.8475 466.7903C 797.5663 466.8781 797.2587 466.9221 796.9247 466.9221L796.9247 466.9221L794.4813 466.9221z" stroke="none" fill="#353332" fill-rule="evenodd" /><path id="24" transform="matrix(1 0 0 -1 0 612)" d="M795.8744 465.0237L795.9974 464.2415C 795.3705 464.1536 795.0262 463.7537 795.0262 463.033C 795.0262 462.3065 795.3705 461.9608 795.7689 461.9608C 795.9476 461.9608 796.0883 462.0384 796.1908 462.1937C 796.2611 462.3021 796.3505 462.5716 796.4589 463.0023C 796.6053 463.5823 796.7321 463.9844 796.839 464.2086C 796.9459 464.4327 797.0939 464.6026 797.2828 464.7183C 797.4718 464.834 797.6805 464.8919 797.9091 464.8919C 798.3251 464.8919 798.6942 464.6883 798.9286 464.3602C 799.1102 464.1141 799.2538 463.66 799.2538 463.1736C 799.2538 462.8074 799.201 462.4859 799.0956 462.209C 798.9901 461.9322 798.8473 461.7278 798.6671 461.596C 798.4869 461.4642 798.246 461.3733 797.9442 461.3235L797.9442 461.3235L797.8387 462.097C 798.3192 462.1673 798.6034 462.5013 798.6034 463.1165C 798.6034 463.843 798.3236 464.1273 798.0013 464.1273C 797.8988 464.1273 797.8065 464.095 797.7245 464.0306C 797.6395 463.9661 797.5692 463.865 797.5135 463.7274C 797.4843 463.6483 797.4169 463.4153 797.3114 463.0286C 797.162 462.4691 797.0397 462.0786 796.9445 461.8575C 796.8492 461.6363 796.7108 461.4627 796.5292 461.3367C 796.3475 461.2107 796.1219 461.1478 795.8524 461.1478C 795.5887 461.1478 795.3405 461.2247 795.1075 461.3785C 794.8746 461.5323 794.6945 461.7542 794.567 462.0443C 794.4396 462.3343 794.3759 462.6624 794.3759 463.0286C 794.3759 464.2415 794.8842 464.848 795.8744 465.0237z" stroke="none" fill="#353332" fill-rule="evenodd" /></g></g></svg>